<?xml version="1.0" standalone="no"?>
<!DOCTYPE svg PUBLIC "-//W3C//DTD SVG 1.1//EN" "http://www.w3.org/Graphics/SVG/1.1/DTD/svg11.dtd" >
<svg xmlns="http://www.w3.org/2000/svg">
<metadata></metadata>
<defs>
<font id="neutonitalic" horiz-adv-x="807" >
<font-face units-per-em="2048" ascent="1638" descent="-410" />
<missing-glyph horiz-adv-x="380" />
<glyph horiz-adv-x="0" />
<glyph unicode="&#xd;" horiz-adv-x="682" />
<glyph unicode=" "  horiz-adv-x="380" />
<glyph unicode="&#x09;" horiz-adv-x="380" />
<glyph unicode="&#xa0;" horiz-adv-x="380" />
<glyph unicode="!" horiz-adv-x="494" d="M44 81q0 58 43 93.5t100 35.5q45 0 76.5 -34t31.5 -78q0 -59 -45 -96.5t-102 -37.5q-46 0 -75 35t-29 82zM170 376q11 105 40 438t44 431q4 25 41 36t78 11q26 0 52 -8t26 -25q0 -41 -74.5 -390.5t-122.5 -511.5z" />
<glyph unicode="&#x22;" horiz-adv-x="523" d="M71 892l12 411l180 -17l-96 -383zM280 892l11 411l180 -17l-96 -383z" />
<glyph unicode="#" horiz-adv-x="1099" d="M42 326l33 125h243l39 260h-244l34 125h229l47 313l116 10l-48 -323h189l47 313l118 9l-48 -322h259l-31 -125h-247l-39 -260h242l-31 -125h-230l-52 -345l-117 -7l53 352h-189l-52 -345l-117 -7l53 352h-257zM433 451h189l39 260h-189z" />
<glyph unicode="$" horiz-adv-x="938" d="M39 122l57 268l99 -15l6 -188q21 -47 65.5 -76t108.5 -33l73 463q-34 20 -55 33.5t-52 35.5t-50 40t-41 44t-34.5 51.5t-21 57.5t-8.5 67q0 79 28 147t76 116t109 80t130 47l8 134l167 15l-36 -140q155 -11 230 -100l-66 -282l-97 11l3 192q-6 22 -41 52t-81 39l-68 -430 q15 -9 47 -28t49.5 -29.5t46.5 -29.5t46 -33t39.5 -35t35.5 -41t26 -44.5t18.5 -52.5t5.5 -58q0 -77 -31.5 -147t-85.5 -122t-124 -89t-148 -54l-13 -152l-175 -15l34 155q-96 7 -173.5 48t-106.5 98zM371 968q0 -55 31.5 -98t89.5 -83l62 395q-80 -9 -131.5 -64t-51.5 -150 zM446 83q41 7 78.5 24.5t70 44.5t51.5 68.5t19 91.5q0 56 -39.5 99.5t-114.5 90.5z" />
<glyph unicode="%" horiz-adv-x="1241" d="M42 -10l502 598l421 535l-373 14q40 -49 40 -184q0 -73 -32 -143.5t-80 -119t-104.5 -78t-105.5 -29.5q-90 0 -156.5 71.5t-66.5 185.5q0 73 31.5 143t80 119t106 79t108.5 30q20 0 29 -3l-1 -66q-28 12 -43 12q-35 0 -64.5 -36t-47.5 -91.5t-28 -116t-10 -113.5 q0 -148 72 -148q44 0 78 47.5t51 120.5t25 143.5t8 133.5q0 61 -8 104l559 12l166 -3l-7 -29l-494 -587l-469 -623zM607 221q0 72 31.5 142t79.5 118.5t105.5 78.5t107.5 30q95 0 157 -72.5t62 -183.5q0 -73 -30.5 -143t-77.5 -118.5t-102.5 -78.5t-104.5 -30 q-90 0 -159 71.5t-69 185.5zM769 187q0 -68 19 -111.5t58 -43.5q37 0 66.5 34.5t47 89t26.5 114.5t9 116q0 148 -73 148q-36 0 -66 -34.5t-48.5 -88t-28.5 -112.5t-10 -112z" />
<glyph unicode="&#x26;" horiz-adv-x="1454" d="M45 262q0 66 24 127.5t59 106t86 86.5t93 68t93 52q-41 40 -73 102t-32 131q0 86 54 165t139 125.5t173 46.5q78 0 138.5 -18.5t102 -67.5t41.5 -125q0 -50 -18.5 -95.5t-44.5 -78.5t-68.5 -67t-76 -55t-82.5 -48l-2 -12l237 -282l214 297l-161 41l21 76h449l-21 -76 l-177 -38l-266 -370q190 -245 284 -274l32 -10l-27 -69q-60 -20 -124 -20q-76 0 -147 62t-158 176q-39 -45 -74.5 -78t-93 -74t-129.5 -63.5t-151 -22.5q-145 0 -229.5 80.5t-84.5 201.5zM246 338q0 -98 49.5 -165t142.5 -67q52 0 106.5 21.5t95 53t67.5 57.5t39 44 l-293 347l-15 2q-192 -119 -192 -293zM465 1002q0 -59 39.5 -120.5t89.5 -108.5q92 56 133 111t41 145q0 69 -36.5 113.5t-103.5 44.5q-68 0 -115.5 -57.5t-47.5 -127.5z" />
<glyph unicode="'" horiz-adv-x="315" d="M71 892l12 411l180 -17l-96 -383z" />
<glyph unicode="(" horiz-adv-x="611" d="M50 261q0 117 22.5 231t58 204.5t83 175.5t93 145t93.5 113t78 80.5t53 44.5l39 -66q-37 -39 -78 -97.5t-89 -150.5t-85.5 -194t-63 -234t-25.5 -264q0 -102 14 -200t36 -173.5t37.5 -117t30.5 -75.5l-79 -58q-18 20 -37.5 45.5t-54.5 86.5t-60.5 128t-45.5 168t-20 208z " />
<glyph unicode=")" horiz-adv-x="634" d="M40 -317q89 117 132 186q237 383 237 833q0 296 -116 487l59 66q21 -20 43.5 -47.5t57.5 -86t61.5 -124t46 -164t19.5 -204.5q0 -126 -24 -247t-57.5 -211t-85.5 -178t-92.5 -142t-95 -109.5t-75.5 -74t-50 -42.5z" />
<glyph unicode="*" d="M48 964l55 127l267 -114l-37 315l136 -13l-26 -291l289 131l29 -130l-285 -68l219 -229l-118 -69l-153 247l-155 -277l-102 92l193 219z" />
<glyph unicode="+" horiz-adv-x="653" d="M50 409l12 101h209v231l109 -12l1 -219h220l-12 -101h-208l2 -235l-112 11v224h-221z" />
<glyph unicode="," horiz-adv-x="483" d="M51 -244q96 25 153 78.5t57 104.5t-36.5 78.5t-94.5 12.5q-19 81 21.5 134.5t115.5 53.5q63 0 107.5 -42.5t44.5 -145.5q0 -40 -18 -85.5t-56.5 -95.5t-112 -94.5t-170.5 -68.5z" />
<glyph unicode="-" horiz-adv-x="558" d="M59 398l28 101l410 18l-27 -101z" />
<glyph unicode="." horiz-adv-x="364" d="M57 74q0 59 42 100t101 41q45 0 72.5 -32.5t27.5 -75.5q0 -62 -39.5 -101t-97.5 -39q-39 0 -72.5 34t-33.5 73z" />
<glyph unicode="/" horiz-adv-x="677" d="M41 -363l462 1598l132 9l-466 -1599z" />
<glyph unicode="0" horiz-adv-x="971" d="M51 383q0 182 46 339t122 260.5t173 162t200 58.5q153 0 240.5 -106.5t87.5 -317.5q0 -155 -32 -288.5t-84.5 -226.5t-121 -160t-142.5 -99t-147 -32q-342 0 -342 410zM256 335q0 -121 38 -193t119 -72q67 0 125 71t96 182.5t59.5 246t21.5 265.5q0 120 -35.5 191.5 t-110.5 71.5q-73 0 -134 -70t-99 -182.5t-59 -245.5t-21 -265z" />
<glyph unicode="1" horiz-adv-x="837" d="M43 0l19 74l271 47l144 910h-250l18 77l434 77h27l-170 -1071l257 -31l-23 -83h-727z" />
<glyph unicode="2" horiz-adv-x="1014" d="M44 0l10 102l266 197q80 59 134 104t113 107t94 121t57.5 135.5t22.5 160.5q0 178 -153 178q-61 0 -116.5 -34t-82.5 -84l-78 -261l-75 10l18 284q55 75 182.5 132t235.5 57q143 0 219.5 -69t76.5 -197q0 -70 -23 -140.5t-56 -127t-88.5 -117.5t-102.5 -103t-117 -93.5 t-112 -79.5t-107 -70q-7 -5 -11 -7l-83 -54h454l138 217l69 -10l-105 -358h-780z" />
<glyph unicode="3" horiz-adv-x="962" d="M43 74l98 299l83 -13l-19 -203q13 -33 56 -59t94 -26q127 0 206.5 57t79.5 176q0 92 -82 166t-212 74v66q30 9 59 20t72.5 31t79.5 46.5t69.5 59t52.5 76.5t19 93q0 73 -40.5 130t-115.5 57q-83 0 -153 -56l-86 -256l-83 11l24 267q44 41 156.5 82t213.5 41 q132 0 217.5 -65t85.5 -168q0 -215 -338 -331l-2 -12q124 -17 206.5 -88t82.5 -173q0 -119 -82.5 -214t-207 -143.5t-259.5 -48.5q-95 0 -176.5 33.5t-98.5 70.5z" />
<glyph unicode="4" horiz-adv-x="1051" d="M45 431l763 763l62 -18q-38 -181 -88 -493l-32 -204h255l-37 -133h-239l-39 -241l184 -32l-21 -73h-581l17 66l222 45l38 238h-494zM238 479h329l68 433z" />
<glyph unicode="5" horiz-adv-x="928" d="M43 74l76 313l82 -19l-13 -213q43 -88 177 -88q109 0 179 68t70 189q0 124 -104.5 194t-306.5 84l208 567l474 29l-55 -182l-389 -16l-74 -238q120 -7 208.5 -37.5t139 -78.5t74 -105.5t23.5 -124.5q0 -125 -69.5 -227t-185 -158t-251.5 -56q-183 0 -263 99z" />
<glyph unicode="6" horiz-adv-x="894" d="M48 345q0 140 66.5 283t172.5 257t237 201t263 128l28 -59q-101 -43 -188 -107t-150 -137.5t-107.5 -148.5t-72.5 -153h11q44 42 110 71t141 29q127 0 205.5 -82.5t78.5 -213.5q0 -103 -41 -187.5t-109 -137t-152 -81t-173 -28.5q-164 0 -242 100t-78 266zM247 313 q0 -114 35.5 -183t105.5 -69q125 0 184 85t59 234q0 93 -40 159.5t-121 66.5q-53 0 -109 -25t-80 -54q-34 -81 -34 -214z" />
<glyph unicode="7" horiz-adv-x="961" d="M47 809l83 373h788l-8 -52l-601 -1163l-204 22l632 1026h-513l-110 -219z" />
<glyph unicode="8" horiz-adv-x="914" d="M44 229q0 115 66 190t218 156l1 9q-144 108 -144 254q0 99 58.5 183.5t151.5 132t196 47.5q127 0 203 -66.5t76 -167.5q0 -105 -76.5 -199.5t-175.5 -128.5l-5 -10q95 -78 146 -152t51 -155q0 -165 -128 -257t-340 -92q-128 0 -213 69t-85 187zM238 273q0 -90 55.5 -151 t126.5 -61q77 0 137 51t60 144q0 38 -20.5 77t-57.5 76t-71.5 65t-79.5 59q-68 -54 -90 -79q-60 -71 -60 -181zM365 930q0 -64 49 -129.5t140 -122.5q71 38 107 97.5t36 163.5q0 82 -38.5 133.5t-104.5 51.5q-84 0 -136.5 -58.5t-52.5 -135.5z" />
<glyph unicode="9" horiz-adv-x="873" d="M54 737q0 107 42.5 198.5t110 150.5t149 92t162.5 33t141.5 -28t95.5 -78t52 -112.5t17 -136.5q0 -207 -101.5 -399.5t-271 -321.5t-363.5 -162l-11 74q192 55 325 200.5t180 327.5h-13q-116 -109 -261 -109q-121 0 -187.5 73.5t-66.5 197.5zM261 766q0 -86 36.5 -138.5 t116.5 -52.5q52 0 103.5 24.5t81.5 62.5q39 119 39 236q0 101 -36 166.5t-103 65.5q-116 0 -177 -101t-61 -263z" />
<glyph unicode=":" horiz-adv-x="428" d="M50 100q0 52 40.5 88.5t91.5 36.5q41 0 68.5 -26.5t27.5 -64.5q0 -54 -41.5 -93t-91.5 -39q-42 0 -68.5 28t-26.5 70zM151 727q0 54 39.5 89.5t90.5 35.5q41 0 68.5 -25.5t27.5 -64.5q0 -55 -41 -94t-91 -39q-42 0 -68 28t-26 70z" />
<glyph unicode=";" horiz-adv-x="488" d="M45 -216q87 23 138 70.5t51 93.5t-33 70.5t-85 11.5q-17 73 19 121t104 48q57 0 97 -38t40 -131q0 -28 -9.5 -59.5t-33 -68.5t-58.5 -70t-92 -63t-128 -48zM211 727q0 54 40 89.5t91 35.5q41 0 68 -25.5t27 -64.5q0 -55 -40.5 -94t-90.5 -39q-42 0 -68.5 28t-26.5 70z " />
<glyph unicode="&#x3c;" horiz-adv-x="787" d="M47 415l1 57l620 501l56 -73l-440 -466l460 -447l-63 -70z" />
<glyph unicode="=" horiz-adv-x="792" d="M60 319l10 105h655l-11 -105h-654zM63 559l10 104h656l-12 -104h-654z" />
<glyph unicode="&#x3e;" horiz-adv-x="789" d="M43 -13l460 447l-440 466l56 73l620 -501l1 -57l-634 -498z" />
<glyph unicode="?" horiz-adv-x="648" d="M44 70q0 60 44 100t100 40q47 0 77.5 -29t30.5 -73q0 -60 -45.5 -102t-100.5 -42q-46 0 -76 30.5t-30 75.5zM102 1137q0 60 54 105.5t165 45.5q110 0 196 -99.5t86 -251.5q0 -76 -19.5 -129.5t-50.5 -80.5t-69 -46t-76 -34t-69 -35.5t-50.5 -59.5t-19.5 -98q0 -30 6 -71 l-77 -16q-46 92 -46 181q0 65 27.5 110.5t68 66.5t88.5 42t88.5 39.5t68 57.5t27.5 96q0 59 -46 106t-91 47q-126 0 -203 -71q-23 10 -40.5 36t-17.5 59z" />
<glyph unicode="@" horiz-adv-x="1362" d="M49 310q0 148 58 283t158 234t241.5 158t299.5 59q141 0 255 -53.5t182 -156t68 -236.5t-65.5 -256t-180.5 -197.5t-248 -75.5q-46 0 -72 31t-19 87h-8q-35 -51 -88 -89.5t-105 -38.5q-82 0 -127 62t-45 186q0 103 41 195.5t103.5 153.5t134.5 97t136 36q92 0 163 -16 l4 -2l18 -20l-55 -366q-23 -151 -18 -186q4 -31 23 -31q112 0 192.5 117.5t80.5 272.5q0 192 -113 294.5t-297 102.5q-159 0 -289.5 -88.5t-201 -229t-70.5 -297.5q0 -225 129 -350t371 -125q94 0 194.5 36.5t150.5 70.5l12 8l33 -63l-9 -5q-41 -27 -73.5 -45.5t-88 -43.5 t-121.5 -38t-138 -13q-96 0 -182 17t-166.5 57t-139 100t-93.5 153.5t-35 210.5zM512 350q0 -73 9.5 -111t24.5 -48.5t43 -10.5q74 0 141 74l69 438q-48 12 -87 12q-55 0 -102.5 -57t-72.5 -138t-25 -159z" />
<glyph unicode="A" horiz-adv-x="1379" d="M44 0l21 74l159 55l603 1108l157 31l219 -1144l129 -43l-22 -81h-515l23 74l182 55l-63 304h-419l-159 -309l178 -43l-24 -81h-469zM570 533h352l-86 501z" />
<glyph unicode="B" horiz-adv-x="1219" d="M43 0l23 74l177 47l172 984l-165 30l23 76q326 46 500 46q101 0 178 -22t122 -60t67.5 -84t22.5 -98q0 -91 -62.5 -178.5t-198.5 -134.5l-2 -8q128 -7 198.5 -84.5t70.5 -176.5q0 -75 -39 -146t-114.5 -131t-202.5 -97t-286 -37h-484zM430 96h203q83 0 149 24.5 t105.5 65.5t60 90.5t20.5 103.5q0 91 -58.5 157.5t-167.5 66.5h-223zM535 689h208q102 0 162 69t60 188q0 43 -13 80.5t-42 71.5t-83 53.5t-128 19.5q-42 0 -81 -7z" />
<glyph unicode="C" horiz-adv-x="1190" d="M53 535q0 99 29.5 200.5t92 198t150.5 171t215 120t274 45.5q195 0 334 -121l-83 -332l-84 14l-8 219q-76 124 -235 124q-90 0 -173.5 -41.5t-147.5 -116.5t-102.5 -190t-38.5 -251q0 -112 30.5 -202.5t83.5 -148t122.5 -88t149.5 -30.5q99 0 185 28t174 106l43 -55 q-188 -210 -506 -210q-102 0 -194.5 40.5t-161 112.5t-109 177.5t-40.5 229.5z" />
<glyph unicode="D" horiz-adv-x="1462" d="M43 0l25 74l182 55l152 974l-167 30l21 76q318 49 520 49q140 0 251 -27.5t182.5 -73.5t119 -111t67.5 -136t20 -152q0 -144 -64 -280t-177.5 -242.5t-283.5 -171t-367 -64.5h-481zM436 104h147q137 0 252 45t192.5 122t120.5 181t43 222q0 140 -49.5 246.5t-157 171 t-262.5 64.5q-64 0 -121 -7z" />
<glyph unicode="E" horiz-adv-x="1259" d="M43 0l20 74l175 47l159 1005l-177 42l22 76h975l-69 -319l-84 13l-20 215h-452l-73 -476h291l51 119l96 13l-83 -388l-87 -13l-7 175h-276l-77 -487h507l113 229l83 -11l-61 -314h-1026z" />
<glyph unicode="F" horiz-adv-x="1116" d="M43 0l20 74l175 47l159 1005l-177 42l22 76h994l-69 -321l-86 13l-24 217h-465l-75 -483h288l51 121l91 13l-75 -391l-91 -15l-4 180h-275l-72 -456l231 -38l-26 -84h-592z" />
<glyph unicode="G" horiz-adv-x="1319" d="M53 489q0 119 31.5 227t86.5 191.5t129.5 151t160.5 111t178.5 67t185.5 23.5q277 0 411 -97l-76 -322l-86 14l-5 192q-31 47 -108 80.5t-202 33.5q-92 0 -173.5 -32.5t-151.5 -100.5t-111.5 -188.5t-41.5 -280.5q0 -100 24.5 -186t73 -153t127.5 -105.5t180 -38.5 q134 0 190 46l48 312l-230 38l25 83h557l-24 -74l-132 -42l-54 -351q-86 -56 -220 -87.5t-297 -31.5q-126 0 -223.5 42t-155.5 115t-87.5 165t-29.5 198z" />
<glyph unicode="H" horiz-adv-x="1650" d="M43 0l20 74l175 47l159 1005l-177 42l22 76h545l-22 -76l-173 -38l-70 -438h628l69 434l-178 42l23 76h545l-23 -76l-172 -38l-160 -1016l177 -33l-24 -81h-543l23 74l174 47l74 469h-629l-75 -476l180 -33l-26 -81h-542z" />
<glyph unicode="I" horiz-adv-x="828" d="M43 0l20 74l175 47l159 1005l-177 42l22 76h545l-22 -76l-175 -38l-160 -1016l177 -33l-24 -81h-540z" />
<glyph unicode="J" horiz-adv-x="927" d="M42 -238q139 115 212.5 217t91.5 218l149 929l-175 42l20 76h545l-20 -76l-175 -38l-128 -812q-14 -90 -32 -157.5t-47 -125.5t-61.5 -101t-86 -88t-109.5 -82.5t-142 -88.5q-30 41 -42 87z" />
<glyph unicode="K" horiz-adv-x="1387" d="M44 0l21 74l182 55l155 989l-182 50l25 76h550l-21 -76l-179 -47l-155 -997l182 -43l-25 -81h-553zM543 604l4 25q70 49 128 108l355 384l-156 47l20 76h497l-23 -76l-183 -47l-454 -477l183 -266q96 -140 160.5 -203t151.5 -92l35 -12l-22 -69q-65 -23 -133 -23 q-116 0 -200 73.5t-159 208.5l-135 248q-44 70 -69 95z" />
<glyph unicode="L" horiz-adv-x="1149" d="M43 0l20 74l175 47l157 997l-182 50l25 76h550l-22 -76l-178 -47l-162 -1025h453l138 248l84 -14l-59 -330h-999z" />
<glyph unicode="M" horiz-adv-x="1832" d="M43 0l23 74l175 47l191 1005l-178 42l23 76h393l56 -194l175 -740l391 773l99 161h400l-21 -76l-174 -38l-67 -1016l177 -33l-24 -81h-535l24 74l173 47l41 883l-492 -953l-127 -20l-238 935l-158 -852l180 -33l-27 -81h-480z" />
<glyph unicode="N" horiz-adv-x="1580" d="M44 0l20 74l175 47l157 997l-175 50l22 76h348l494 -982l135 864l-180 42l23 76h476l-25 -76l-172 -38l-178 -1128l-160 -32l-505 991l-134 -847l178 -33l-23 -81h-476z" />
<glyph unicode="O" horiz-adv-x="1344" d="M54 515q0 222 86.5 393t252.5 268t389 97q127 0 227 -44.5t162 -121t94 -174t32 -208.5q0 -120 -30 -231t-91.5 -205.5t-147 -164.5t-204 -110t-256.5 -40q-130 0 -230 42t-161.5 116t-92 171t-30.5 212zM283 547q0 -90 20 -172t59.5 -149t104.5 -107t147 -40 q85 0 154.5 22.5t116.5 59t82 89.5t55 106t32 117t15.5 114.5t3.5 105.5q0 89 -20.5 173t-60.5 154.5t-106 113t-149 42.5q-68 0 -125 -13.5t-100 -36.5t-77.5 -57.5t-58 -71.5t-41 -84t-27.5 -90t-15.5 -95t-7.5 -92.5t-2 -88.5z" />
<glyph unicode="P" horiz-adv-x="1227" d="M43 0l22 74l176 47l154 984l-165 30l21 76q290 44 484 44q92 0 170 -17.5t142 -55t100.5 -103t36.5 -153.5q0 -133 -73 -234t-188.5 -151.5t-251.5 -50.5q-42 0 -114 9l-7 82h53q367 0 367 326q0 120 -66.5 193t-199.5 73l-108 -5l-163 -1046l229 -38l-26 -84h-593z" />
<glyph unicode="Q" horiz-adv-x="1362" d="M54 515q0 223 91.5 395t261 267.5t390.5 95.5q125 0 225.5 -45.5t163 -123t96 -175t33.5 -206.5q0 -173 -72 -324t-207 -258t-312 -148q20 -73 55.5 -120.5t118 -86.5t218.5 -62q-10 -48 -24 -74q-79 -35 -183 -35q-141 0 -229 99q-77 86 -77 223q0 21 2 42 q-17 -5 -54 -5q-147 0 -261.5 72.5t-175 195.5t-60.5 273zM267 560q0 -68 12 -132t41 -128.5t73 -113t114.5 -81t158.5 -37.5q80 20 145 52.5t109.5 71.5t77.5 88.5t52 96.5t30.5 103t15 102t3.5 98q0 94 -23 181t-65.5 156t-109 110t-147.5 41q-224 0 -355.5 -166.5 t-131.5 -441.5z" />
<glyph unicode="R" horiz-adv-x="1296" d="M44 0l22 74l176 47l154 981l-167 29l23 76q300 46 464 46q210 0 327 -66.5t117 -208.5q0 -120 -86 -222t-247 -157l2 -1l138 -250q77 -136 123 -189t128 -81l30 -10l-25 -70q-57 -19 -124 -19q-111 0 -184.5 72t-127.5 202l-115 284h-174l-62 -411l180 -43l-24 -83h-548z M511 628h166q104 0 191.5 93t87.5 222q0 108 -61.5 167t-175.5 59l-122 -5z" />
<glyph unicode="S" horiz-adv-x="944" d="M42 122l57 268l99 -15l6 -188q22 -50 71 -79.5t119 -29.5q46 0 92.5 14t88 41.5t67.5 74t26 104.5q0 43 -26.5 81t-68.5 68t-93.5 61t-102.5 66t-93 74.5t-68.5 95.5t-26.5 122q0 92 39 167.5t102.5 123t142.5 73.5t162 26q76 0 148.5 -23.5t117.5 -77.5l-66 -282l-97 11 l3 192q-7 27 -52.5 60.5t-101.5 33.5q-92 0 -152.5 -54t-60.5 -162q0 -47 27 -88t70.5 -73t96 -64t104.5 -67.5t95.5 -75.5t70.5 -96.5t27 -123.5q0 -92 -44.5 -169.5t-116.5 -128t-163 -79t-186 -28.5q-106 0 -194 42.5t-119 104.5z" />
<glyph unicode="T" horiz-adv-x="1242" d="M46 923l42 321h1111l-86 -337l-92 15l-3 231h-304l-164 -1039l179 -33l-27 -81h-540l22 74l176 47l162 1032h-295l-91 -243z" />
<glyph unicode="U" horiz-adv-x="1458" d="M47 1168l23 76h541l-19 -76l-175 -38l-100 -636q-9 -60 -9 -111q0 -124 55 -193q78 -98 240 -98q86 0 153 26.5t106 64.5t67.5 95.5t40 101.5t20.5 101l102 645l-175 42l20 76h479l-22 -76l-173 -38l-104 -631q-87 -525 -600 -525q-38 0 -73.5 4t-76.5 14t-74.5 27.5 t-67.5 44t-56 63.5t-39 87t-17 113t10 142l104 657z" />
<glyph unicode="V" horiz-adv-x="1384" d="M49 1168l21 76h527l-21 -76l-174 -38l238 -890l403 886l-177 42l20 76h456l-20 -76l-135 -38l-524 -1125l-155 -30l-320 1151z" />
<glyph unicode="W" horiz-adv-x="1910" d="M49 1168l19 76h514l-25 -76l-173 -38l127 -878l394 942l181 25l142 -950l343 857l-175 42l23 76h449l-23 -76l-127 -38l-483 -1125l-159 -30l-148 976l-395 -946l-165 -30l-187 1151z" />
<glyph unicode="X" horiz-adv-x="1460" d="M44 0l25 74l129 47l441 506l-258 491l-125 50l23 76h527l-24 -76l-178 -47l192 -396l328 401l-181 42l23 76h452l-20 -76l-132 -38l-415 -493l258 -523l134 -33l-26 -81h-514l25 74l175 47l-213 415l-347 -422l177 -33l-23 -81h-453z" />
<glyph unicode="Y" horiz-adv-x="1225" d="M49 1168l24 76h507l-23 -76l-163 -38l200 -489l300 485l-177 42l22 76h444l-22 -76l-128 -38l-401 -602l-65 -414l159 -33l-23 -81h-507l21 74l159 47l61 384l-258 621z" />
<glyph unicode="Z" horiz-adv-x="1223" d="M45 0l9 104l869 1045h-516l-98 -246l-87 19l41 322h918l-11 -76l-902 -1067h590l132 249l91 -15l-79 -335h-957z" />
<glyph unicode="[" horiz-adv-x="615" d="M41 -377l261 1632h271l-4 -89l-143 -20l-222 -1405l139 -20l-26 -96z" />
<glyph unicode="\" horiz-adv-x="433" d="M48 1244l131 -9l210 -1598l-128 8z" />
<glyph unicode="]" horiz-adv-x="616" d="M41 -375l5 96l145 20l223 1405l-137 20l25 89h271l-256 -1632z" />
<glyph unicode="^" horiz-adv-x="746" d="M56 826l355 411l56 13l228 -426l-61 -36l-228 285h-10l-296 -280z" />
<glyph unicode="_" horiz-adv-x="970" d="M63 -132l12 105h828l-11 -105h-829z" />
<glyph unicode="`" horiz-adv-x="406" d="M79 1659l115 38l132 -333l-56 -35z" />
<glyph unicode="a" d="M24 274q0 114 32 214t84 171.5t119 123t137.5 77t137.5 25.5q159 0 201 -53l-72 -454q-18 -117 -21 -173q-1 -12 -1 -23q1 -38 9 -57q10 -24 41 -29l76 -12l-18 -69q-86 -32 -151 -32q-71 0 -107 42q-24 28 -24 66q0 19 6 41h-12q-36 -66 -100 -109.5t-136 -43.5 q-92 0 -146.5 79t-54.5 216zM185 320q0 -214 121 -214q52 0 91.5 24.5t80.5 70.5l86 545q-38 35 -119 35q-76 0 -137.5 -71.5t-92 -176t-30.5 -213.5z" />
<glyph unicode="b" horiz-adv-x="843" d="M58 50l171 1070q5 33 -4 52.5t-28 25t-45 7.5t-54 -1l9 80q68 33 153 33q64 0 96 -22.5t36 -65.5q1 -13 1 -28q0 -34 -6 -77l-50 -282l-28 -120h12q40 69 113 118.5t140 49.5q81 0 137.5 -48.5t81.5 -124.5t25 -173q0 -85 -24 -168t-71 -154.5t-110 -126.5t-147 -86.5 t-176 -31.5q-61 0 -127 18.5t-105 54.5zM228 155q19 -32 60.5 -51.5t88.5 -19.5q78 0 142 59.5t98 150.5t34 189q0 70 -14.5 127t-52.5 97.5t-95 40.5t-96.5 -26t-80.5 -76z" />
<glyph unicode="c" horiz-adv-x="708" d="M24 308q0 122 43 231.5t112.5 185t157.5 119.5t177 44q87 0 136.5 -42.5t49.5 -114.5q0 -45 -37 -72t-92 -32q-14 43 -22 63t-25 48.5t-39.5 40.5t-53.5 12q-60 0 -107.5 -40t-74 -104t-39.5 -132t-13 -135q0 -138 49 -206t152 -68q95 0 213 73l24 -61 q-54 -61 -140 -101.5t-168 -40.5q-138 0 -220.5 85t-82.5 247z" />
<glyph unicode="d" horiz-adv-x="844" d="M24 286q0 111 31.5 208.5t85.5 168t123.5 121t146.5 75.5t155 25q28 0 41 -3h6l28 239q4 33 -5.5 52.5t-28.5 25t-44 7t-53 -0.5l9 80q68 33 153 32q64 0 96 -22t36 -65q1 -13 2 -29q0 -34 -7 -76l-116 -744q-16 -102 -22 -149q-5 -38 -5 -67v-14q2 -34 11.5 -41.5 t31.5 -11.5l66 -11l-19 -69q-81 -32 -139 -32q-60 0 -89 24.5t-30 64.5q0 23 5 48h-13q-36 -62 -100 -102.5t-136 -40.5q-102 0 -161 77t-59 230zM187 337q0 -122 32.5 -176.5t101.5 -54.5q58 0 99 24.5t75 70.5l82 535q-17 14 -30.5 22t-39.5 15.5t-56 7.5q-75 0 -136 -62 t-94.5 -163.5t-33.5 -218.5z" />
<glyph unicode="e" horiz-adv-x="676" d="M24 289q0 119 35 230.5t92.5 192.5t135 129.5t159.5 48.5q83 0 132.5 -53.5t49.5 -144.5q0 -77 -26.5 -135.5t-69 -93t-101.5 -55.5q-59 -22 -117 -28q-45 -5 -94 -4h-31q-2 -28 -2 -54q0 -96 27 -150q34 -70 122 -70q74 0 131.5 24t88.5 51l26 -45q-38 -59 -127 -110.5 t-183 -51.5q-248 0 -248 319zM198 449q49 0 86.5 5t75.5 18.5t62.5 36.5t40 62t15.5 92q0 56 -25 95.5t-67 39.5q-31 0 -60 -16t-57 -53t-47 -109t-24 -171z" />
<glyph unicode="f" horiz-adv-x="579" d="M0 -204q26 41 43 96t52 207l112 669h-149l14 68l157 36q17 105 59 191.5t96 140.5t114 83.5t118 29.5q164 0 164 -113q0 -30 -24 -58.5t-71 -44.5q-4 5 -17.5 22t-18 22t-16 17.5t-17.5 16.5l-18 12t-22 10.5t-24 5t-29 2.5q-59 0 -88 -75.5t-54 -275.5h180l-18 -90h-175 l-110 -633q-21 -91 -31 -130.5t-24 -91.5t-24.5 -77.5t-22.5 -39.5h-156z" />
<glyph unicode="g" horiz-adv-x="725" d="M-140 -177q0 49 34 95t80.5 75.5t95.5 43.5v8q-39 15 -62.5 41t-23.5 77q0 49 59.5 98t122.5 69l-5 8q-33 14 -69.5 73.5t-36.5 118.5q0 95 52 180.5t136 136t175 50.5q98 0 157 -63l201 25l17 -23l-45 -121h-16l-119 40l-2 -17q15 -19 15 -107q0 -70 -35.5 -135.5 t-90 -109.5t-123.5 -66q-44 -13 -87 -13q-23 0 -46 4q-31 -10 -57 -36.5t-26 -54.5q0 -33 44 -42q24 -6 104 -9q61 -3 105.5 -8.5t91 -21.5t75.5 -40.5t47 -67t18 -100.5q0 -83 -69.5 -154.5t-177.5 -111.5t-224 -40q-61 0 -114 10.5t-99.5 32.5t-73.5 62t-28 93zM9 -128 q0 -67 67 -109t159 -42q101 0 170.5 41.5t69.5 105.5q0 37 -10 64.5t-35 43.5t-48.5 26t-69.5 14t-76.5 5t-90.5 1q-46 -12 -91 -55.5t-45 -94.5zM207 542q0 -64 30 -113t80 -49q40 0 72.5 25.5t51 67t28 90t9.5 98.5q0 43 -8 77.5t-29.5 59t-55.5 24.5q-54 0 -96 -44.5 t-62 -107.5t-20 -128z" />
<glyph unicode="h" horiz-adv-x="889" d="M59 0l169 1120q5 33 -4 52.5t-28.5 25t-45 7.5t-53.5 -1l9 80q68 33 153 33q64 0 96 -22.5t36 -65.5q1 -13 1 -28q0 -34 -6 -77l-43 -278l-28 -124h12q52 68 129 119.5t160 51.5q173 0 173 -185q0 -43 -9 -95l-35 -235q-23 -146 -23 -206q0 -22 6.5 -37.5t18 -23 t27.5 -11.5t21 -4h54l-8 -81q-62 -32 -141 -32q-97 -1 -127 49q-18 30 -18 85q0 34 7 77l51 331q10 51 10 90q0 130 -114 130q-45 0 -85 -14.5t-60.5 -29.5t-46.5 -39l-95 -662h-163z" />
<glyph unicode="i" horiz-adv-x="493" d="M65 773l9 80q68 33 153 33q93 0 117 -46q15 -28 16 -78q0 -31 -6 -69l-46 -315q-23 -159 -23 -206q0 -22 6.5 -37.5t18 -23t27.5 -11.5t21 -4h54l-8 -81q-62 -32 -141 -32q-96 1 -125 49q-19 31 -19 89q0 32 6 73l71 495q5 33 -4 52.5t-28 25t-45 7t-54 -0.5zM226 1177 q0 46 33.5 80.5t85.5 34.5q45 0 76.5 -32.5t31.5 -80.5q0 -47 -34.5 -78.5t-84.5 -31.5q-44 0 -76 31.5t-32 76.5z" />
<glyph unicode="j" horiz-adv-x="478" d="M-143 -307q222 162 258 406l85 584q5 33 -4 52.5t-28 25t-45 7t-54 -0.5l9 80q68 33 153 33q93 0 118 -46q15 -28 15 -77q0 -31 -6 -70l-88 -601q-12 -80 -44 -152.5t-71 -121.5t-88 -91.5t-86 -65.5t-74 -41zM216 1177q0 46 34.5 81t86.5 35q45 0 77 -33t32 -81 t-34.5 -79.5t-85.5 -31.5q-45 0 -77.5 32t-32.5 77z" />
<glyph unicode="k" horiz-adv-x="801" d="M58 0l170 1120q5 33 -4 52.5t-28.5 25t-45 7.5t-53.5 -1l9 80q68 33 153 33q64 0 96 -22.5t36 -65.5q1 -13 1 -28q0 -34 -6 -77l-165 -1124h-163zM323 434l3 17q100 60 184 148.5t84 138.5q0 32 -30 42q-13 4 -28 4q-19 0 -41 -7l9 80q55 33 123 33q65 0 91 -26t26 -94 q0 -42 -34 -92.5t-85 -95t-87 -71.5t-65 -45l37 -83q66 -149 125 -214t138 -80l26 -5l-13 -78q-69 -21 -122 -21q-63 0 -105.5 24t-84.5 89t-92 189z" />
<glyph unicode="l" horiz-adv-x="410" d="M65 194l143 926q5 33 -4 52.5t-28 25t-45 7.5t-54 -1l9 80q68 33 153 33q64 0 95.5 -22.5t35.5 -65.5q2 -14 2 -31q0 -33 -6 -74l-118 -746q-23 -144 -23 -206q0 -22 6.5 -37.5t18.5 -23t28 -11.5t34.5 -4h39.5l-8 -81q-62 -32 -141 -32q-95 0 -125 49q-19 31 -19 88 q0 33 6 74z" />
<glyph unicode="m" horiz-adv-x="1402" d="M65 781l9 80q68 33 153 33q141 0 141 -113q0 -27 -8 -59h12q51 68 126.5 119.5t157.5 51.5q85 0 124.5 -47t39.5 -148q27 36 59 68t72.5 62t88 47.5t94.5 17.5q94 -1 130 -67q24 -46 25 -129q0 -38 -5 -84l-26 -235q-4 -32 -10.5 -80.5t-9.5 -76t-3 -46.5 q0 -22 6.5 -37.5t18 -23t27.5 -11.5t21 -4h54l-8 -81q-62 -32 -141 -32q-97 0 -125 48q-19 32 -18 92q0 32 5 71l42 328q7 49 7 87q0 48 -11 78q-19 54 -86 55q-68 0 -117.5 -28t-91.5 -73q-1 -15 -3 -31l-70 -613h-163l66 525q6 46 6 82q0 52 -12 84q-20 54 -93 54 q-44 0 -82.5 -14.5t-59 -29.5t-45.5 -39l-95 -662h-163l92 697q5 33 -4 52.5t-28.5 25t-45 7t-53.5 -0.5z" />
<glyph unicode="n" horiz-adv-x="924" d="M65 781l9 80q68 33 153 33q141 0 141 -113q0 -27 -8 -59h12q51 68 126.5 119.5t157.5 51.5q168 0 168 -186q0 -42 -9 -94l-35 -235q-23 -144 -23 -203q0 -22 6.5 -37.5t18 -23t27.5 -11.5t21 -4h54l-8 -81q-62 -32 -141 -32q-97 0 -127 50q-18 30 -18 84q0 34 7 77 l51 328q8 49 8 87q0 47 -12 78q-21 55 -95 55q-44 0 -82.5 -14.5t-59 -29.5t-45.5 -39l-95 -662h-163l92 697q5 33 -4 52.5t-28.5 25t-45 7t-53.5 -0.5z" />
<glyph unicode="o" horiz-adv-x="819" d="M25 347q0 105 34 204t93 174.5t144.5 121.5t182.5 46q57 0 104.5 -21t80 -57.5t55 -85t33 -102.5t10.5 -112q0 -80 -21 -159t-61 -147.5t-94 -121t-124.5 -83t-147.5 -30.5q-92 0 -158.5 50t-98.5 133.5t-32 189.5zM190 388q0 -140 52.5 -217t134.5 -77q105 0 162 100.5 t57 277.5q0 61 -11 113.5t-33.5 96t-61.5 68.5t-91 25q-95 0 -152 -101t-57 -286z" />
<glyph unicode="p" horiz-adv-x="905" d="M30 -366l153 1041q5 33 -4 52.5t-28.5 25t-45 7t-53.5 -0.5l9 80q68 33 153 33q91 0 116 -36q14 -22 14 -59q0 -24 -6 -55l13 -2q36 66 108 118t149 52q104 0 172 -93t68 -255q0 -108 -42.5 -211.5t-110.5 -179.5t-156.5 -122t-176.5 -46q-60 0 -87 9l23 122 q19 -9 29.5 -13t36 -8t62.5 -4q29 0 61.5 13t67 43.5t62 74.5t45 113t17.5 153q0 119 -44.5 189.5t-106.5 70.5q-57 0 -94.5 -20.5t-91.5 -74.5l-153 -1017h-159z" />
<glyph unicode="q" horiz-adv-x="776" d="M24 264q0 115 32 217t84.5 174.5t119 125.5t137.5 78.5t138 25.5q159 0 201 -53l-176 -1196h-155l160 1110q-38 35 -119 35q-76 0 -137.5 -71.5t-92 -176t-30.5 -213.5q0 -94 31.5 -156t90.5 -62q80 0 131 35l3 -55q-40 -49 -90.5 -76t-132.5 -27q-92 0 -143.5 79.5 t-51.5 205.5z" />
<glyph unicode="r" horiz-adv-x="646" d="M65 781l9 80q68 33 153 33q87 0 119 -42q20 -27 20 -72q0 -26 -6 -58l-23 -115h11q36 112 99.5 198.5t133.5 86.5q45 0 70.5 -27t25.5 -68q0 -76 -56 -132q-34 34 -86 34q-41 0 -83.5 -36t-67.5 -74t-46 -81l-67 -508h-167l92 697q4 33 -5 52.5t-28 25t-44.5 7 t-53.5 -0.5z" />
<glyph unicode="s" horiz-adv-x="685" d="M31 142q0 45 34.5 78t95.5 38q21 -118 62 -161t123 -43q54 0 87 34t33 81q0 46 -36.5 88t-88 78t-103.5 75t-88.5 97t-36.5 127q0 104 94 186t225 82q98 0 159 -37.5t61 -111.5q0 -52 -34 -83t-95 -36q-21 104 -51.5 148t-90.5 44q-52 0 -87.5 -33t-35.5 -96 q0 -36 20 -70t51.5 -62t70.5 -56.5t77.5 -59t70 -63.5t51.5 -76t20 -90q0 -104 -102.5 -179.5t-218.5 -75.5q-123 0 -195 53t-72 124z" />
<glyph unicode="t" horiz-adv-x="573" d="M65 766l10 96h105l34 218h154l-35 -218h220l-19 -96h-216l-67 -419q-10 -64 -10 -108q0 -46 11 -70q22 -47 109 -47q55 0 105 33l13 -53q-94 -123 -226 -123q-112 0 -149 77q-22 47 -22 122q0 49 9 111l74 477h-100z" />
<glyph unicode="u" horiz-adv-x="884" d="M65 773l9 80q68 33 153 33q93 0 118 -46q15 -28 15 -77q0 -31 -6 -70l-53 -348q-8 -49 -8 -87q0 -47 12 -78q21 -55 95 -55q44 0 82.5 14.5t59 29.5t45.5 39l69 481q5 33 -4 52.5t-28.5 25t-45 7t-53.5 -0.5l9 80q68 33 153 33q93 0 117 -45q15 -29 15 -82q0 -29 -5 -66 l-71 -520q-6 -38 8.5 -55.5t46.5 -22.5l66 -12l-18 -69q-86 -32 -141 -32h-7q-70 0 -98 39q-18 25 -18 67q0 27 7 60h-12q-51 -68 -126.5 -119.5t-157.5 -51.5q-101 -1 -141 67q-25 43 -26 119q0 42 8 94l62 432q5 33 -4 52.5t-28.5 25t-45 7t-53.5 -0.5z" />
<glyph unicode="v" horiz-adv-x="790" d="M43 773l9 80q64 33 143 33q22 0 39 -3.5t30.5 -12t23.5 -17t18 -26t12.5 -30t9.5 -38t7.5 -42t7.5 -48.5l71 -514q55 96 85 153.5t62.5 134.5t46.5 148t14 147q0 30 -30 40q-14 4 -30 5q-18 0 -39 -6l9 80q55 33 123 33q117 0 117 -120q0 -89 -112.5 -317t-252.5 -463 l-104 -18l-126 717q-6 34 -17.5 52.5t-27.5 25t-38.5 7.5t-50.5 -1z" />
<glyph unicode="w" horiz-adv-x="1183" d="M43 773l9 80q64 33 143 33q22 0 39 -3.5t30.5 -12t23.5 -17t18 -26t12.5 -30t9.5 -38t7.5 -42t7.5 -48.5l71 -494q54 144 80 217.5t57 181.5t47 203l110 22l127 -644q95 191 137.5 315.5t42.5 267.5q0 30 -33 40q-15 4 -33 5q-20 0 -43 -6l9 80q60 33 133 33 q117 0 117 -120q0 -89 -104 -317.5t-233 -462.5l-104 -18l-119 551q-84 -252 -198 -533l-104 -18l-126 717q-6 34 -17.5 52.5t-27.5 25t-38.5 7.5t-50.5 -1z" />
<glyph unicode="x" horiz-adv-x="883" d="M20 93q0 41 23 90t56 90.5t78 86t79 73.5t69 55l-92 201q-15 33 -29 50.5t-31 25.5t-39 8.5t-55 -0.5l9 80q55 33 123 33q65 0 100 -31.5t85 -141.5l121 -266q76 71 118.5 140t42.5 151q0 32 -30 42q-13 4 -28 4q-19 0 -41 -7l9 80q55 33 123 33q65 0 91 -26t26 -94 q0 -47 -29.5 -102t-78 -107t-91.5 -90.5t-89 -73.5l6 -14q69 -151 127 -215t136 -79l26 -5l-13 -78q-69 -21 -121 -21q-89 0 -143.5 59t-139.5 243l-70 153q-40 -37 -67.5 -68t-55 -71t-41.5 -84.5t-14 -91.5q0 -24 30 -31q13 -3 28 -3q19 0 41 5l-9 -80q-55 -33 -123 -33 q-65 0 -91 24t-26 86z" />
<glyph unicode="y" horiz-adv-x="778" d="M-120 -257q0 60 47 107q83 -56 161 -56q84 0 143 50t104 156l-160 697q-8 34 -19.5 52.5t-27 25t-37.5 7.5t-50 -1l9 80q64 33 143 33q33 0 56 -9.5t37 -24t24 -42t15.5 -54t12.5 -68.5q2 -13 3 -19l91 -534q24 42 49.5 97.5t58 139t53 181t20.5 185.5q0 31 -34 40 q-16 5 -34 5q-20 0 -44 -6l9 80q59 33 133 33q117 0 117 -120q0 -94 -106.5 -341.5t-218.5 -438.5q-29 -51 -47.5 -82t-47.5 -76.5t-51 -72.5t-52.5 -59t-59 -49t-62.5 -29t-70 -12q-71 0 -118 33t-47 92z" />
<glyph unicode="z" horiz-adv-x="778" d="M10 26l574 723h-339l-68 -168l-68 13l36 280h607v-68l-513 -655l4 -4q2 0 14.5 3t18.5 4.5t19.5 4t22 4t22 3t24 1t22.5 -1t22.5 -3t20.5 -6.5l97 -40q45 -20 75 -20q9 0 17 2q32 9 78 74l62 -28q-30 -66 -64 -107.5t-65 -60.5q-31 -20 -70 -22q-10 -1 -20 0q-27 0 -51 5 q-32 7 -75 23l-133 48q-24 9 -45 11.5t-32.5 2.5t-28 -7.5t-20 -9.5t-20.5 -13l-33 -29z" />
<glyph unicode="{" horiz-adv-x="702" d="M44 390l14 99l49 8q48 8 82.5 39.5t54.5 77t34 102.5t24.5 118t23 121.5t33 114.5t50 95.5t78.5 65.5t115 24h59l-25 -99l-40 -7q-35 -6 -58 -43.5t-35 -94t-21.5 -124.5t-25 -138.5t-38.5 -132t-68.5 -108.5t-108.5 -64l-1 -6q58 -17 88 -64.5t33.5 -109t-3 -133 t-17.5 -140t-16 -125.5t8 -94.5t49 -43.5l33 -5l-9 -101h-61q-66 0 -108 24.5t-59 66t-20.5 96t3 115t15.5 122t13.5 118.5t-0.5 102.5t-29 76.5t-68 38z" />
<glyph unicode="|" horiz-adv-x="452" d="M41 -350l254 1605l114 -11l-254 -1607z" />
<glyph unicode="}" horiz-adv-x="709" d="M40 -378l23 101l35 5q38 6 63 43.5t38 94.5t23.5 125.5t26.5 140t39.5 133t68.5 109t108 64.5l1 6q-58 17 -88.5 64t-34.5 108.5t3.5 132t19 138.5t17.5 124.5t-4.5 94t-44.5 43.5l-38 7l7 99h59q83 0 127.5 -39t53 -102.5t2 -140.5t-18 -156.5t-14 -147t22 -115 t81.5 -57.5l47 -8l-17 -99l-51 -9q-59 -9 -97.5 -56t-57 -114.5t-32 -147t-32 -157.5t-47 -141.5t-86.5 -103t-142 -39.5h-61z" />
<glyph unicode="~" horiz-adv-x="896" d="M55 412q2 9 7 23t22.5 50t37.5 62.5t53.5 47t70.5 16.5l450 -45q16 -1 37 14.5t33 31.5l12 16l64 -2q-3 -9 -8 -23.5t-23 -51t-38.5 -63.5t-55.5 -47.5t-73 -16.5l-450 45q-18 2 -39 -15.5t-33 -35.5l-12 -19z" />
<glyph unicode="&#xa1;" horiz-adv-x="496" d="M42 -383q0 41 74.5 390.5t122.5 511.5l84 -19q-11 -105 -40 -438t-44 -431q-4 -25 -41 -36t-78 -11q-26 0 -52 8t-26 25zM198 778q0 59 45 96.5t102 37.5q46 0 75 -35t29 -82q0 -58 -43 -93.5t-100 -35.5q-45 0 -76.5 34t-31.5 78z" />
<glyph unicode="&#xa2;" horiz-adv-x="712" d="M24 348q0 102 32.5 195.5t87 163.5t125 119t147.5 69q4 110 8 219l148 17l-55 -223q86 -1 134.5 -43.5t48.5 -113.5q0 -45 -37 -72t-92 -32q-14 43 -22 63t-25 48.5t-39.5 40.5t-53.5 12q-60 0 -107.5 -38t-74 -99t-39.5 -126t-13 -128q0 -159 49 -236.5t152 -77.5 q95 0 213 73l24 -61q-44 -49 -111 -86t-136 -50l-6 -232l-151 -16l62 244q-124 11 -196.5 105.5t-72.5 264.5z" />
<glyph unicode="&#xa3;" horiz-adv-x="1167" d="M43 0l19 74l175 47q33 70 52 143.5t41 196.5l17 88l-182 -11l28 101l173 10l24 137q44 232 173 348t308 116q140 0 227 -39l-81 -316l-84 12l-7 214q-38 22 -82 22q-51 0 -87.5 -14.5t-64 -43.5t-49.5 -84t-38.5 -123.5t-35.5 -174.5l-7 -48l220 14l-26 -101l-213 -13 l-7 -40q-53 -300 -127 -416l459 -3l171 253l83 -18l-90 -331h-989z" />
<glyph unicode="&#xa4;" horiz-adv-x="789" d="M48 746l84 81l109 -118q32 27 74.5 43t79.5 16q90 0 157 -50l111 112l74 -88l-115 -106q36 -63 36 -145q0 -90 -43 -149l125 -119l-85 -80l-113 121q-77 -47 -155 -47q-67 0 -134 40l-108 -121l-84 85l115 111q-45 67 -45 156q0 79 39 140zM236 494q0 -81 43.5 -131 t112.5 -50q72 0 116 48t44 126q0 83 -44 133t-117 50q-69 0 -112 -48.5t-43 -127.5z" />
<glyph unicode="&#xa5;" horiz-adv-x="1159" d="M43 239l28 106h299l20 127h-307l28 106h264l-153 548l-131 42l25 76h467l-23 -76l-138 -38l132 -489l295 485l-150 42l21 76h397l-22 -76l-130 -38l-342 -552h304l-28 -106h-316l-19 -127h323l-28 -106h-312l-20 -125l159 -33l-23 -81h-507l21 74l159 47l18 118h-311z " />
<glyph unicode="&#xa6;" horiz-adv-x="447" d="M41 -350l124 781l109 -12l-124 -782zM183 540l112 715l109 -11l-117 -716z" />
<glyph unicode="&#xa7;" horiz-adv-x="1006" d="M41 -236l55 267l102 -15l7 -188q22 -46 72.5 -78t116.5 -32q56 0 111.5 21t102 70.5t57.5 119.5q7 42 -9 79.5t-47.5 65.5t-74 56.5t-88.5 53.5t-91 56.5t-82 64.5t-61 78.5t-27.5 98.5t17.5 124l325 -200q22 -13 67 -39q73 -41 110 -66.5t85.5 -72t64.5 -103.5t5 -129 q-17 -111 -94.5 -199t-185.5 -134t-223 -46q-104 0 -189.5 42.5t-125.5 104.5zM248 842q-3 35 3 74q26 162 156 257.5t287 95.5q163 0 268 -100l-67 -282l-97 12l4 191q-11 32 -54.5 63.5t-98.5 31.5q-80 0 -139.5 -48t-74.5 -142q-7 -47 8.5 -88t47.5 -70.5t75 -58.5 t90.5 -54t93.5 -56t83.5 -63.5t62 -78t28.5 -99.5t-18 -127l-370 227q-121 74 -153 98q-126 96 -135 217z" />
<glyph unicode="&#xa8;" horiz-adv-x="603" d="M82 1465q6 34 35.5 55.5t62.5 21.5q35 0 56 -21.5t16 -55.5q-6 -36 -34 -58.5t-63 -22.5q-34 0 -56.5 22.5t-16.5 58.5zM350 1465q6 34 35 55.5t62 21.5q35 0 57 -21.5t17 -55.5q-6 -36 -35 -58.5t-64 -22.5q-34 0 -56 22.5t-16 58.5z" />
<glyph unicode="&#xa9;" horiz-adv-x="1380" d="M54 645q0 186 87 342t232 244.5t312 88.5q193 0 340.5 -87.5t225 -239.5t77.5 -344q0 -132 -51 -254t-137.5 -212t-208 -144t-255.5 -54q-180 0 -322.5 86.5t-221 237t-78.5 336.5zM177 657q0 -246 142.5 -405.5t364.5 -159.5q107 0 203 41.5t166 113.5t111.5 174.5 t41.5 217.5q0 164 -59.5 293.5t-179 207t-282.5 77.5q-141 0 -258.5 -76.5t-183.5 -205t-66 -278.5zM346 644q0 92 30.5 170.5t81 130.5t115.5 81.5t134 29.5q100 0 152.5 -37.5t52.5 -92.5q0 -38 -28 -61.5t-80 -27.5q-11 27 -21.5 46.5t-27.5 43.5t-39.5 36.5t-48.5 12.5 q-76 0 -122 -69.5t-46 -184.5q0 -56 15 -115.5t44.5 -114t80 -89.5t113.5 -35q94 0 172 51l21 -49q-35 -42 -110 -73t-154 -31q-149 0 -242 110t-93 268z" />
<glyph unicode="&#xaa;" horiz-adv-x="761" d="M62 655q0 116 104.5 196.5t305.5 80.5l5 34q7 56 10 101t-19 74t-72 29t-73.5 -40.5t-51.5 -151.5q-55 -6 -84 17.5t-29 70.5q0 48 54 93t125.5 70t130.5 25q107 0 145.5 -62t21.5 -184l-38 -260q-8 -56 8 -79.5t70 -33.5l41 -7l-21 -62q-35 -27 -60 -36.5t-63 -9.5 q-75 0 -108 35.5t-25 83.5h-9q-86 -124 -226 -124q-60 0 -101 40t-41 100zM230 701q0 -30 17.5 -50t55.5 -20q17 0 33 4.5t31.5 15t24 17t25 22.5t19.5 19l26 165q-121 -21 -176.5 -62t-55.5 -111z" />
<glyph unicode="&#xab;" horiz-adv-x="704" d="M49 449l2 20l323 352l35 -60l-213 -300l117 -321l-63 -62zM297 449l1 20l324 352l35 -60l-213 -300l117 -321l-63 -62z" />
<glyph unicode="&#xac;" horiz-adv-x="886" d="M55 558l28 106h745l-48 -314l-109 -18l36 226h-652z" />
<glyph unicode="&#xad;" horiz-adv-x="560" d="M57 406l26 116l418 59l-26 -115z" />
<glyph unicode="&#xae;" horiz-adv-x="1074" d="M55 1022q0 234 135.5 367t343.5 133q104 0 193.5 -32t157 -93t106 -156.5t38.5 -214.5q0 -151 -68 -262.5t-181.5 -167.5t-255.5 -56q-131 0 -237 57.5t-169 168.5t-63 256zM143 1036q0 -191 110.5 -305.5t278.5 -114.5q173 0 291 114t118 286q0 194 -116.5 312 t-290.5 118q-172 0 -281.5 -108.5t-109.5 -301.5zM255 777l7 48l80 28v395l-81 18l5 53q145 22 245 22q121 0 183 -33.5t62 -113.5q0 -52 -37 -100.5t-88 -65.5l-1 -2l78 -91q37 -43 59 -61t60 -35l16 -7l-10 -55q-35 -11 -82 -11q-63 0 -102 36t-81 116l-43 83h-56v-144 l74 -27l-5 -53h-283zM469 1068h79q71 30 71 102q0 47 -30.5 74.5t-85.5 27.5q-8 0 -15.5 -0.5t-12.5 -1t-6 -0.5v-202z" />
<glyph unicode="&#xaf;" horiz-adv-x="617" d="M81 1379l13 100h442l-13 -100h-442z" />
<glyph unicode="&#xb0;" horiz-adv-x="485" d="M66 1107q0 79 56.5 138t136.5 59q85 0 128 -46t43 -130q0 -85 -57 -142.5t-138 -57.5q-78 0 -123.5 46.5t-45.5 132.5zM157 1129q0 -51 25.5 -92.5t70.5 -41.5q85 0 85 110q0 51 -25.5 91.5t-69.5 40.5q-42 0 -64 -31.5t-22 -76.5z" />
<glyph unicode="&#xb1;" horiz-adv-x="729" d="M51 13l17 104l611 7l-16 -104zM58 490l12 101h209v231l109 -12l1 -219h220l-12 -101h-208l2 -235l-112 11v224h-221z" />
<glyph unicode="&#xb2;" horiz-adv-x="728" d="M49 531l25 107l174 123q63 45 95.5 71.5t67.5 64t49.5 76t14.5 84.5q0 96 -90 96q-36 0 -67 -16.5t-47 -41.5l-42 -129l-67 5l12 170q37 54 122.5 85t168.5 31q103 0 158.5 -40t55.5 -113q0 -44 -13.5 -85t-43.5 -78.5t-59.5 -67t-79.5 -64.5t-84.5 -56.5t-92.5 -56.5 l-74 -44h270l103 153l54 -21l-59 -253h-551z" />
<glyph unicode="&#xb3;" horiz-adv-x="701" d="M49 563l62 199l73 -8l-13 -135q29 -40 93 -40q73 0 123.5 42.5t50.5 111.5q0 50 -51 83t-134 33l-6 59q23 7 43.5 14t53.5 24t56 35.5t40.5 48t17.5 62.5q0 41 -23 69t-67 28q-58 0 -86 -22l-49 -157l-75 6l15 171q30 34 109 63t154 29q97 0 157 -36.5t60 -102.5 q0 -83 -60.5 -136t-150.5 -77l-1 -7q95 -10 143 -49t48 -104q0 -79 -56.5 -142t-144 -96.5t-185.5 -33.5q-74 0 -131 18.5t-66 49.5z" />
<glyph unicode="&#xb4;" horiz-adv-x="393" d="M80 1380l123 325l111 -39l-183 -318z" />
<glyph unicode="&#xb5;" horiz-adv-x="945" d="M42 -362q18 62 89 382t96 477l39 249l-131 24l10 74l283 25l19 -23l-79 -471q-26 -133 -13 -195.5t78 -62.5q97 0 180 83l82 546l-134 24l10 74l286 25l20 -23l-76 -476q-18 -115 -18.5 -175t11 -77t37.5 -22l66 -12l-18 -69q-86 -32 -141 -32q-144 0 -127 147h-10 q-27 -50 -100.5 -100t-162.5 -50q-88 0 -125 58v-1h-7q0 -75 -5 -123l-30 -302z" />
<glyph unicode="&#xb6;" horiz-adv-x="1356" d="M54 785q0 138 75 245t191.5 161t248.5 54h346l-197 -1245h-406l19 74l248 47l163 1031q-80 2 -106 2q-177 0 -274 -86t-97 -251q0 -115 67.5 -193t200.5 -78l-33 -98q-92 0 -170.5 20t-141 60t-98.5 106t-36 151zM797 0l197 1245h320l-21 -77l-176 -38l-161 -1016 l176 -34l-23 -80h-312z" />
<glyph unicode="&#xb7;" horiz-adv-x="362" d="M59 504q0 47 35.5 80.5t84.5 33.5q50 0 86 -33t36 -81q0 -50 -36 -86.5t-86 -36.5q-49 0 -84.5 36.5t-35.5 86.5z" />
<glyph unicode="&#xb8;" horiz-adv-x="339" d="M54 -331q41 14 63.5 36.5t22.5 46.5q0 40 -74 110l98 141h74l-53 -79q89 -79 89 -151q0 -103 -201 -162z" />
<glyph unicode="&#xb9;" horiz-adv-x="599" d="M49 531l16 74l157 25l78 492h-145l16 77l309 46h19l-98 -618l150 -13l-19 -83h-483z" />
<glyph unicode="&#xba;" horiz-adv-x="826" d="M58 803q0 103 39 191t102 144.5t140 88t155 31.5q135 0 209.5 -78t74.5 -211q0 -99 -35 -185.5t-93.5 -144.5t-135 -91.5t-158.5 -33.5q-144 0 -221 79.5t-77 209.5zM234 811q0 -102 33 -159.5t120 -57.5q56 0 99 31.5t67 84.5t35.5 113t11.5 125q0 227 -155 227 q-58 0 -101 -32t-66 -86t-33.5 -115t-10.5 -131z" />
<glyph unicode="&#xbb;" horiz-adv-x="703" d="M45 138l213 300l-117 321l63 62l201 -371l-1 -20l-324 -352zM293 138l213 300l-117 321l63 62l201 -371l-2 -20l-323 -352z" />
<glyph unicode="&#xbc;" horiz-adv-x="1397" d="M44 531l16 74l157 25l78 492h-145l16 77l309 46h19l-98 -618l150 -13l-19 -83h-483zM169 -10l502 598l490 622l175 -3l-7 -29l-493 -587l-470 -623zM746 178l2 92l484 467l55 -11q-32 -142 -56 -296l-25 -158h148l-24 -97h-139l-15 -92l118 -18l-16 -65h-414l13 58 l141 27l15 93h-287zM855 272h190l37 236z" />
<glyph unicode="&#xbd;" horiz-adv-x="1476" d="M44 531l16 74l157 25l78 492h-145l16 77l309 46h19l-98 -618l150 -13l-19 -83h-483zM149 -10l502 598l490 622l175 -3l-7 -29l-493 -587l-470 -623zM796 2l25 107l175 123q50 36 77.5 57.5t60.5 52t49 56t27.5 59t11.5 71.5q0 96 -90 96q-36 0 -66.5 -16.5t-46.5 -41.5 l-43 -129l-67 5l12 170q37 54 122.5 85t168.5 31q103 0 158.5 -40t55.5 -113q0 -44 -13.5 -85t-43.5 -78.5t-59.5 -67t-79.5 -64.5t-84.5 -56.5t-92.5 -56.5l-74 -44h270l104 153l53 -21l-59 -253h-551z" />
<glyph unicode="&#xbe;" horiz-adv-x="1376" d="M46 546l62 199l73 -8l-13 -135q29 -40 93 -40q73 0 123.5 42.5t50.5 111.5q0 50 -51 83t-134 33l-6 59q23 7 43.5 14t53.5 24t56 35.5t40.5 48t17.5 62.5q0 41 -23 69t-67 28q-58 0 -86 -22l-49 -157l-75 6l15 171q30 34 109 63t154 29q97 0 157 -36.5t60 -102.5 q0 -83 -60.5 -136t-150.5 -77l-1 -7q95 -10 143 -49t48 -104q0 -79 -56.5 -142t-144 -96.5t-185.5 -33.5q-74 0 -131 18.5t-66 49.5zM162 -10l502 598l489 622l176 -3l-7 -29l-494 -587l-470 -623zM725 178l1 92l484 467l56 -11q-32 -142 -56 -296l-25 -158h148l-25 -97 h-139l-14 -92l118 -18l-16 -65h-414l13 58l141 27l15 93h-287zM834 272h190l37 236z" />
<glyph unicode="&#xbf;" horiz-adv-x="650" d="M44 -36q0 76 19.5 129.5t50.5 80.5t69 46t76 34t69 35.5t50.5 59.5t19.5 98q0 30 -6 71l77 16q46 -92 46 -181q0 -65 -27.5 -110.5t-68 -66.5t-88.5 -42t-88.5 -39.5t-68 -57.5t-27.5 -96q0 -59 46 -106t91 -47q126 0 203 71q23 -10 40.5 -36t17.5 -59q0 -60 -54 -105.5 t-165 -45.5q-110 0 -196 99.5t-86 251.5zM351 793q0 60 45.5 102t100.5 42q46 0 76 -30.5t30 -75.5q0 -60 -44 -100t-100 -40q-47 0 -77.5 29t-30.5 73z" />
<glyph unicode="&#xc0;" horiz-adv-x="1379" d="M44 0l21 74l159 55l603 1108l157 31l219 -1144l129 -43l-22 -81h-515l23 74l182 55l-63 304h-419l-159 -309l178 -43l-24 -81h-469zM570 533h352l-86 501zM728 1725l115 38l132 -333l-56 -35z" />
<glyph unicode="&#xc1;" horiz-adv-x="1379" d="M44 0l21 74l159 55l603 1108l157 31l219 -1144l129 -43l-22 -81h-515l23 74l182 55l-63 304h-419l-159 -309l178 -43l-24 -81h-469zM570 533h352l-86 501zM819 1427l123 325l111 -39l-183 -318z" />
<glyph unicode="&#xc2;" horiz-adv-x="1379" d="M44 0l21 74l159 55l603 1108l157 31l219 -1144l129 -43l-22 -81h-515l23 74l182 55l-63 304h-419l-159 -309l178 -43l-24 -81h-469zM570 533h352l-86 501zM756 1425l168 179l55 15l178 -186l-49 -37l-163 110h-11l-139 -111z" />
<glyph unicode="&#xc3;" horiz-adv-x="1379" d="M44 0l21 74l159 55l603 1108l157 31l219 -1144l129 -43l-22 -81h-515l23 74l182 55l-63 304h-419l-159 -309l178 -43l-24 -81h-469zM570 533h352l-86 501zM730 1404q2 6 5 16.5t15 36.5t26.5 45t38.5 33t51 11l226 -29q11 -1 25.5 9t22.5 20l8 11l49 -2l-5 -13 q-4 -14 -17.5 -40.5t-29 -45.5t-40.5 -33.5t-52 -10.5l-225 32q-12 2 -27 -10.5t-23 -25.5l-9 -13z" />
<glyph unicode="&#xc4;" horiz-adv-x="1379" d="M44 0l21 74l159 55l603 1108l157 31l219 -1144l129 -43l-22 -81h-515l23 74l182 55l-63 304h-419l-159 -309l178 -43l-24 -81h-469zM483 1476q6 34 35.5 55.5t62.5 21.5q35 0 56 -21.5t16 -55.5q-6 -36 -34 -58.5t-63 -22.5q-34 0 -56.5 22.5t-16.5 58.5zM570 533h352 l-86 501zM751 1476q6 34 35 55.5t62 21.5q35 0 57 -21.5t17 -55.5q-6 -36 -35 -58.5t-64 -22.5q-34 0 -56 22.5t-16 58.5z" />
<glyph unicode="&#xc5;" horiz-adv-x="1379" d="M44 0l21 74l159 55l603 1108l128 25q-67 4 -111 49.5t-44 116.5q0 68 55 120t125 52q72 0 120 -46.5t48 -116.5q0 -64 -47 -115.5t-116 -58.5l218 -1139l129 -43l-22 -81h-515l23 74l182 55l-63 304h-419l-159 -309l178 -43l-24 -81h-469zM570 533h352l-86 501zM890 1439 q0 -51 22 -86.5t67 -35.5q80 0 80 108q0 51 -23 86t-67 35q-41 0 -60 -30t-19 -77z" />
<glyph unicode="&#xc6;" horiz-adv-x="1919" d="M44 1l21 75l145 55l790 995l-207 42l22 76h1062l-82 -317l-84 13l-9 212h-438l-75 -473h259l62 123l96 8l-95 -386l-87 -15l-6 177h-243l-78 -490h464l138 233l77 -16l-79 -313h-971l20 74l174 47l56 351h-359l-273 -346l181 -43l-26 -82h-455zM684 568h307l77 490z" />
<glyph unicode="&#xc7;" horiz-adv-x="1190" d="M53 535q0 99 29.5 200.5t92 198t150.5 171t215 120t274 45.5q195 0 334 -121l-83 -332l-84 14l-8 219q-76 124 -235 124q-90 0 -173.5 -41.5t-147.5 -116.5t-102.5 -190t-38.5 -251q0 -112 30.5 -202.5t83.5 -148t122.5 -88t149.5 -30.5q99 0 185 28t174 106l43 -55 q-175 -196 -463 -209l-45 -67q89 -79 89 -151q0 -103 -201 -162l-19 58q41 14 63.5 36.5t22.5 46.5q0 40 -74 110l90 129q-97 6 -183.5 49t-151 114.5t-102 174t-37.5 221.5z" />
<glyph unicode="&#xc8;" horiz-adv-x="1259" d="M43 0l20 74l175 47l159 1005l-177 42l22 76h975l-69 -319l-84 13l-20 215h-452l-73 -476h291l51 119l96 13l-83 -388l-87 -13l-7 175h-276l-77 -487h507l113 229l83 -11l-61 -314h-1026zM518 1725l115 38l132 -333l-56 -35z" />
<glyph unicode="&#xc9;" horiz-adv-x="1259" d="M43 0l20 74l175 47l159 1005l-177 42l22 76h975l-69 -319l-84 13l-20 215h-452l-73 -476h291l51 119l96 13l-83 -388l-87 -13l-7 175h-276l-77 -487h507l113 229l83 -11l-61 -314h-1026zM609 1427l123 325l111 -39l-183 -318z" />
<glyph unicode="&#xca;" horiz-adv-x="1259" d="M43 0l20 74l175 47l159 1005l-177 42l22 76h975l-69 -319l-84 13l-20 215h-452l-73 -476h291l51 119l96 13l-83 -388l-87 -13l-7 175h-276l-77 -487h507l113 229l83 -11l-61 -314h-1026zM545 1425l168 179l55 15l178 -186l-49 -37l-163 110h-11l-139 -111z" />
<glyph unicode="&#xcb;" horiz-adv-x="1259" d="M43 0l20 74l175 47l159 1005l-177 42l22 76h975l-69 -319l-84 13l-20 215h-452l-73 -476h291l51 119l96 13l-83 -388l-87 -13l-7 175h-276l-77 -487h507l113 229l83 -11l-61 -314h-1026zM272 1476q6 34 35.5 55.5t62.5 21.5q35 0 56 -21.5t16 -55.5q-6 -36 -34 -58.5 t-63 -22.5q-34 0 -56.5 22.5t-16.5 58.5zM540 1476q6 34 35 55.5t62 21.5q35 0 57 -21.5t17 -55.5q-6 -36 -35 -58.5t-64 -22.5q-34 0 -56 22.5t-16 58.5z" />
<glyph unicode="&#xcc;" horiz-adv-x="828" d="M43 0l20 74l175 47l159 1005l-177 42l22 76h545l-22 -76l-175 -38l-160 -1016l177 -33l-24 -81h-540zM293 1725l115 38l132 -333l-56 -35z" />
<glyph unicode="&#xcd;" horiz-adv-x="828" d="M43 0l20 74l175 47l159 1005l-177 42l22 76h545l-22 -76l-175 -38l-160 -1016l177 -33l-24 -81h-540zM384 1427l123 325l111 -39l-183 -318z" />
<glyph unicode="&#xce;" horiz-adv-x="828" d="M43 0l20 74l175 47l159 1005l-177 42l22 76h545l-22 -76l-175 -38l-160 -1016l177 -33l-24 -81h-540zM320 1425l168 179l55 15l178 -186l-49 -37l-163 110h-11l-139 -111z" />
<glyph unicode="&#xcf;" horiz-adv-x="828" d="M43 0l20 74l175 47l159 1005l-177 42l22 76h545l-22 -76l-175 -38l-160 -1016l177 -33l-24 -81h-540zM47 1476q6 34 35.5 55.5t62.5 21.5q35 0 56 -21.5t16 -55.5q-6 -36 -34 -58.5t-63 -22.5q-34 0 -56.5 22.5t-16.5 58.5zM315 1476q6 34 35 55.5t62 21.5q35 0 57 -21.5 t17 -55.5q-6 -36 -35 -58.5t-64 -22.5q-34 0 -56 22.5t-16 58.5z" />
<glyph unicode="&#xd0;" horiz-adv-x="1473" d="M43 0l26 74l180 55l70 440l-182 -14l25 92l172 13l70 444l-167 30l21 77q319 49 521 49q142 0 255 -30t185.5 -79.5t120 -118t67.5 -142t20 -155.5q0 -154 -62.5 -289t-174.5 -233.5t-276 -155.5t-358 -57h-513zM436 104h212q131 0 237.5 45.5t175 125t105.5 185.5 t37 229q0 97 -29.5 180.5t-86.5 148.5t-150 102t-212 37q-61 0 -123 -6l-76 -479l262 21l-27 -91l-249 -21z" />
<glyph unicode="&#xd1;" horiz-adv-x="1580" d="M44 0l20 74l175 47l157 997l-175 50l22 76h348l494 -982l135 864l-180 42l23 76h476l-25 -76l-172 -38l-178 -1128l-160 -32l-505 991l-134 -847l178 -33l-23 -81h-476zM670 1404q2 6 5 16.5t15 36.5t26.5 45t38.5 33t51 11l226 -29q11 -1 25.5 9t22.5 20l8 11l49 -2 l-5 -13q-4 -14 -17.5 -40.5t-29 -45.5t-40.5 -33.5t-52 -10.5l-225 32q-12 2 -27 -10.5t-23 -25.5l-9 -13z" />
<glyph unicode="&#xd2;" horiz-adv-x="1344" d="M54 515q0 222 86.5 393t252.5 268t389 97q127 0 227 -44.5t162 -121t94 -174t32 -208.5q0 -120 -30 -231t-91.5 -205.5t-147 -164.5t-204 -110t-256.5 -40q-130 0 -230 42t-161.5 116t-92 171t-30.5 212zM283 547q0 -90 20 -172t59.5 -149t104.5 -107t147 -40 q85 0 154.5 22.5t116.5 59t82 89.5t55 106t32 117t15.5 114.5t3.5 105.5q0 89 -20.5 173t-60.5 154.5t-106 113t-149 42.5q-68 0 -125 -13.5t-100 -36.5t-77.5 -57.5t-58 -71.5t-41 -84t-27.5 -90t-15.5 -95t-7.5 -92.5t-2 -88.5zM652 1725l115 38l132 -333l-56 -35z" />
<glyph unicode="&#xd3;" horiz-adv-x="1344" d="M54 515q0 222 86.5 393t252.5 268t389 97q127 0 227 -44.5t162 -121t94 -174t32 -208.5q0 -120 -30 -231t-91.5 -205.5t-147 -164.5t-204 -110t-256.5 -40q-130 0 -230 42t-161.5 116t-92 171t-30.5 212zM283 547q0 -90 20 -172t59.5 -149t104.5 -107t147 -40 q85 0 154.5 22.5t116.5 59t82 89.5t55 106t32 117t15.5 114.5t3.5 105.5q0 89 -20.5 173t-60.5 154.5t-106 113t-149 42.5q-68 0 -125 -13.5t-100 -36.5t-77.5 -57.5t-58 -71.5t-41 -84t-27.5 -90t-15.5 -95t-7.5 -92.5t-2 -88.5zM743 1427l123 325l111 -39l-183 -318z" />
<glyph unicode="&#xd4;" horiz-adv-x="1344" d="M54 515q0 222 86.5 393t252.5 268t389 97q127 0 227 -44.5t162 -121t94 -174t32 -208.5q0 -120 -30 -231t-91.5 -205.5t-147 -164.5t-204 -110t-256.5 -40q-130 0 -230 42t-161.5 116t-92 171t-30.5 212zM283 547q0 -90 20 -172t59.5 -149t104.5 -107t147 -40 q85 0 154.5 22.5t116.5 59t82 89.5t55 106t32 117t15.5 114.5t3.5 105.5q0 89 -20.5 173t-60.5 154.5t-106 113t-149 42.5q-68 0 -125 -13.5t-100 -36.5t-77.5 -57.5t-58 -71.5t-41 -84t-27.5 -90t-15.5 -95t-7.5 -92.5t-2 -88.5zM680 1425l168 179l55 15l178 -186l-49 -37 l-163 110h-11l-139 -111z" />
<glyph unicode="&#xd5;" horiz-adv-x="1344" d="M54 515q0 222 86.5 393t252.5 268t389 97q127 0 227 -44.5t162 -121t94 -174t32 -208.5q0 -120 -30 -231t-91.5 -205.5t-147 -164.5t-204 -110t-256.5 -40q-130 0 -230 42t-161.5 116t-92 171t-30.5 212zM283 547q0 -90 20 -172t59.5 -149t104.5 -107t147 -40 q85 0 154.5 22.5t116.5 59t82 89.5t55 106t32 117t15.5 114.5t3.5 105.5q0 89 -20.5 173t-60.5 154.5t-106 113t-149 42.5q-68 0 -125 -13.5t-100 -36.5t-77.5 -57.5t-58 -71.5t-41 -84t-27.5 -90t-15.5 -95t-7.5 -92.5t-2 -88.5zM654 1404q2 6 5 16.5t15 36.5t26.5 45 t38.5 33t51 11l226 -29q11 -1 25.5 9t22.5 20l8 11l49 -2l-5 -13q-4 -14 -17.5 -40.5t-29 -45.5t-40.5 -33.5t-52 -10.5l-225 32q-12 2 -27 -10.5t-23 -25.5l-9 -13z" />
<glyph unicode="&#xd6;" horiz-adv-x="1344" d="M54 515q0 222 86.5 393t252.5 268t389 97q127 0 227 -44.5t162 -121t94 -174t32 -208.5q0 -120 -30 -231t-91.5 -205.5t-147 -164.5t-204 -110t-256.5 -40q-130 0 -230 42t-161.5 116t-92 171t-30.5 212zM283 547q0 -90 20 -172t59.5 -149t104.5 -107t147 -40 q85 0 154.5 22.5t116.5 59t82 89.5t55 106t32 117t15.5 114.5t3.5 105.5q0 89 -20.5 173t-60.5 154.5t-106 113t-149 42.5q-68 0 -125 -13.5t-100 -36.5t-77.5 -57.5t-58 -71.5t-41 -84t-27.5 -90t-15.5 -95t-7.5 -92.5t-2 -88.5zM407 1476q6 34 35.5 55.5t62.5 21.5 q35 0 56 -21.5t16 -55.5q-6 -36 -34 -58.5t-63 -22.5q-34 0 -56.5 22.5t-16.5 58.5zM675 1476q6 34 35 55.5t62 21.5q35 0 57 -21.5t17 -55.5q-6 -36 -35 -58.5t-64 -22.5q-34 0 -56 22.5t-16 58.5z" />
<glyph unicode="&#xd7;" horiz-adv-x="570" d="M51 310l156 152l-156 157l84 66l153 -153l165 160l65 -84l-156 -150l159 -161l-83 -66l-156 157l-164 -160z" />
<glyph unicode="&#xd8;" horiz-adv-x="1344" d="M54 505q-4 217 90.5 392t269.5 275.5t398 100.5q87 0 163 -25l48 76l167 8l-95 -147q96 -71 148 -188.5t54 -259.5q3 -149 -50 -287t-149.5 -243.5t-242 -169t-317.5 -63.5q-106 0 -195 38l-60 -94l-162 -9l110 172q-83 71 -129 181t-48 243zM283 527q4 -183 70 -299 l568 890q-73 58 -174 58q-86 0 -156.5 -23.5t-118.5 -61.5t-84 -93t-56 -111.5t-32 -123.5t-15 -122t-2 -114zM407 155q78 -76 197 -76q85 0 155.5 23.5t118 62t84 93t57.5 110.5t34 120.5t17 117.5t3 107q-4 213 -91 339z" />
<glyph unicode="&#xd9;" horiz-adv-x="1458" d="M47 1168l23 76h541l-19 -76l-175 -38l-100 -636q-32 -206 46 -304t240 -98q86 0 153 26.5t106 64.5t67.5 95.5t40 101.5t20.5 101l102 645l-175 42l20 76h479l-22 -76l-173 -38l-104 -631q-87 -525 -600 -525q-38 0 -73.5 4t-76.5 14t-74.5 27.5t-67.5 44t-56 63.5 t-39 87t-17 113t10 142l104 657zM678 1725l115 38l132 -333l-56 -35z" />
<glyph unicode="&#xda;" horiz-adv-x="1458" d="M47 1168l23 76h541l-19 -76l-175 -38l-100 -636q-32 -206 46 -304t240 -98q86 0 153 26.5t106 64.5t67.5 95.5t40 101.5t20.5 101l102 645l-175 42l20 76h479l-22 -76l-173 -38l-104 -631q-87 -525 -600 -525q-38 0 -73.5 4t-76.5 14t-74.5 27.5t-67.5 44t-56 63.5 t-39 87t-17 113t10 142l104 657zM769 1427l123 325l111 -39l-183 -318z" />
<glyph unicode="&#xdb;" horiz-adv-x="1458" d="M47 1168l23 76h541l-19 -76l-175 -38l-100 -636q-32 -206 46 -304t240 -98q86 0 153 26.5t106 64.5t67.5 95.5t40 101.5t20.5 101l102 645l-175 42l20 76h479l-22 -76l-173 -38l-104 -631q-87 -525 -600 -525q-38 0 -73.5 4t-76.5 14t-74.5 27.5t-67.5 44t-56 63.5 t-39 87t-17 113t10 142l104 657zM706 1425l168 179l55 15l178 -186l-49 -37l-163 110h-11l-139 -111z" />
<glyph unicode="&#xdc;" horiz-adv-x="1458" d="M47 1168l23 76h541l-19 -76l-175 -38l-100 -636q-32 -206 46 -304t240 -98q86 0 153 26.5t106 64.5t67.5 95.5t40 101.5t20.5 101l102 645l-175 42l20 76h479l-22 -76l-173 -38l-104 -631q-87 -525 -600 -525q-38 0 -73.5 4t-76.5 14t-74.5 27.5t-67.5 44t-56 63.5 t-39 87t-17 113t10 142l104 657zM432 1476q6 34 35.5 55.5t62.5 21.5q35 0 56 -21.5t16 -55.5q-6 -36 -34 -58.5t-63 -22.5q-34 0 -56.5 22.5t-16.5 58.5zM700 1476q6 34 35 55.5t62 21.5q35 0 57 -21.5t17 -55.5q-6 -36 -35 -58.5t-64 -22.5q-34 0 -56 22.5t-16 58.5z" />
<glyph unicode="&#xdd;" horiz-adv-x="1225" d="M49 1168l24 76h507l-23 -76l-163 -38l200 -489l300 485l-177 42l22 76h444l-22 -76l-128 -38l-401 -602l-65 -414l159 -33l-23 -81h-507l21 74l159 47l61 384l-258 621zM675 1427l123 325l111 -39l-183 -318z" />
<glyph unicode="&#xde;" horiz-adv-x="1194" d="M43 -1l22 74l175 46l160 1007l-176 42l23 76h543l-22 -76l-177 -38l-17 -110q13 0 57 2t67 2q92 0 171 -18t142.5 -55.5t100 -101t36.5 -147.5q0 -104 -43.5 -189.5t-116 -139.5t-164 -83.5t-190.5 -29.5q-58 0 -116 6l-3 85q201 -11 310 61t109 247q0 113 -68 190 t-201 77l-107 -7l-127 -798l231 -38l-26 -84h-593z" />
<glyph unicode="&#xdf;" horiz-adv-x="1027" d="M100 768l14 68l157 36q23 117 89.5 219t167.5 165.5t210 63.5q118 0 176 -68.5t58 -180.5q0 -45 -15 -86.5t-39 -73.5t-53.5 -62.5t-58.5 -57.5t-53 -52.5t-39 -54t-15 -56.5q0 -30 20 -61.5t50.5 -58.5t65.5 -60t64.5 -64.5t49 -73.5t18.5 -86q-3 -109 -96 -184 t-198 -75q-108 0 -171 35t-63 82q0 49 32.5 84.5t89.5 41.5q50 -154 152 -154q48 0 78.5 27.5t30.5 80.5q0 31 -19.5 61.5t-48.5 55t-63.5 55.5t-63.5 61t-48.5 73.5t-19.5 91.5q0 39 14 74.5t36.5 64t50 56t54.5 55.5t49.5 57.5t36.5 67.5t14 80q0 88 -38.5 145t-107.5 57 q-110 0 -166 -90t-78 -288l-74 -704q-16 -146 -50 -195h-156q12 22 17 32.5t13 44.5t13 82l66 669h-153z" />
<glyph unicode="&#xe0;" d="M24 274q0 114 32 214t84 171.5t119 123t137.5 77t137.5 25.5q159 0 201 -53l-72 -454q-18 -117 -21 -173t7.5 -80t41.5 -29l76 -12l-18 -69q-86 -32 -151 -32q-71 0 -107 42t-18 107h-12q-36 -66 -100 -109.5t-136 -43.5q-92 0 -146.5 79t-54.5 216zM185 320 q0 -214 121 -214q52 0 91.5 24.5t80.5 70.5l86 545q-38 35 -119 35q-76 0 -137.5 -71.5t-92 -176t-30.5 -213.5zM357 1345l115 38l132 -333l-56 -35z" />
<glyph unicode="&#xe1;" d="M24 274q0 114 32 214t84 171.5t119 123t137.5 77t137.5 25.5q159 0 201 -53l-72 -454q-18 -117 -21 -173t7.5 -80t41.5 -29l76 -12l-18 -69q-86 -32 -151 -32q-71 0 -107 42t-18 107h-12q-36 -66 -100 -109.5t-136 -43.5q-92 0 -146.5 79t-54.5 216zM185 320 q0 -214 121 -214q52 0 91.5 24.5t80.5 70.5l86 545q-38 35 -119 35q-76 0 -137.5 -71.5t-92 -176t-30.5 -213.5zM448 1047l123 325l111 -39l-183 -318z" />
<glyph unicode="&#xe2;" d="M24 274q0 114 32 214t84 171.5t119 123t137.5 77t137.5 25.5q159 0 201 -53l-72 -454q-18 -117 -21 -173t7.5 -80t41.5 -29l76 -12l-18 -69q-86 -32 -151 -32q-71 0 -107 42t-18 107h-12q-36 -66 -100 -109.5t-136 -43.5q-92 0 -146.5 79t-54.5 216zM185 320 q0 -214 121 -214q52 0 91.5 24.5t80.5 70.5l86 545q-38 35 -119 35q-76 0 -137.5 -71.5t-92 -176t-30.5 -213.5zM385 1045l168 179l55 15l178 -186l-49 -37l-163 110h-11l-139 -111z" />
<glyph unicode="&#xe3;" d="M24 274q0 114 32 214t84 171.5t119 123t137.5 77t137.5 25.5q159 0 201 -53l-72 -454q-18 -117 -21 -173t7.5 -80t41.5 -29l76 -12l-18 -69q-86 -32 -151 -32q-71 0 -107 42t-18 107h-12q-36 -66 -100 -109.5t-136 -43.5q-92 0 -146.5 79t-54.5 216zM185 320 q0 -214 121 -214q52 0 91.5 24.5t80.5 70.5l86 545q-38 35 -119 35q-76 0 -137.5 -71.5t-92 -176t-30.5 -213.5zM359 1024q2 6 5 16.5t15 36.5t26.5 45t38.5 33t51 11l226 -29q11 -1 25 9t22 20l9 11l49 -2l-4 -13q-5 -14 -18.5 -40.5t-29 -45.5t-40.5 -33.5t-52 -10.5 l-225 32q-12 2 -27.5 -10.5t-23.5 -25.5l-8 -13z" />
<glyph unicode="&#xe4;" d="M24 274q0 114 32 214t84 171.5t119 123t137.5 77t137.5 25.5q159 0 201 -53l-72 -454q-18 -117 -21 -173t7.5 -80t41.5 -29l76 -12l-18 -69q-86 -32 -151 -32q-71 0 -107 42t-18 107h-12q-36 -66 -100 -109.5t-136 -43.5q-92 0 -146.5 79t-54.5 216zM111 1096 q6 34 35.5 55.5t62.5 21.5q35 0 56 -21.5t16 -55.5q-6 -36 -34 -58.5t-63 -22.5q-34 0 -56.5 22.5t-16.5 58.5zM185 320q0 -214 121 -214q52 0 91.5 24.5t80.5 70.5l86 545q-38 35 -119 35q-76 0 -137.5 -71.5t-92 -176t-30.5 -213.5zM379 1096q6 34 35 55.5t62 21.5 q35 0 57 -21.5t17 -55.5q-6 -36 -35 -58.5t-64 -22.5q-34 0 -56 22.5t-16 58.5z" />
<glyph unicode="&#xe5;" d="M24 274q0 114 32 214t84 171.5t119 123t137.5 77t137.5 25.5q159 0 201 -53l-72 -454q-18 -117 -21 -173t7.5 -80t41.5 -29l76 -12l-18 -69q-86 -32 -151 -32q-71 0 -107 42t-18 107h-12q-36 -66 -100 -109.5t-136 -43.5q-92 0 -146.5 79t-54.5 216zM185 320 q0 -214 121 -214q52 0 91.5 24.5t80.5 70.5l86 545q-38 35 -119 35q-76 0 -137.5 -71.5t-92 -176t-30.5 -213.5zM448 1181q0 68 55 120t125 52q72 0 120 -46.5t48 -116.5q0 -69 -53 -122t-128 -53q-71 0 -119 45.5t-48 120.5zM538 1192q0 -51 22 -86.5t67 -35.5q80 0 80 108 q0 51 -23 86t-67 35q-41 0 -60 -30t-19 -77z" />
<glyph unicode="&#xe6;" horiz-adv-x="1171" d="M47 274q0 114 32 214t84 171.5t119 123t137.5 77t137.5 25.5q109 0 165 -30l15 -19l-4 -38q129 92 211 92q83 0 132.5 -53.5t49.5 -144.5q0 -84 -46 -148.5t-115 -97.5t-142.5 -46t-135.5 -4q-5 -28 -5 -72q0 -110 47.5 -166t134.5 -56q38 0 104 27.5t86 47.5l26 -45 q-38 -59 -127 -110.5t-183 -51.5q-87 0 -139.5 46.5t-77.5 139.5q-53 -81 -135.5 -129t-169.5 -48q-92 0 -146.5 79t-54.5 216zM208 320q0 -214 121 -214q56 0 105 29t74 73l99 532q-20 18 -61 29.5t-78 11.5q-76 0 -137.5 -71.5t-92 -176t-30.5 -213.5zM696 469 q53 -6 101.5 1t89.5 28t65 63.5t24 101.5q0 56 -25 95.5t-67 39.5q-69 0 -115 -80.5t-73 -248.5z" />
<glyph unicode="&#xe7;" horiz-adv-x="708" d="M24 308q0 122 43 231.5t112.5 185t157.5 119.5t177 44q87 0 136.5 -42.5t49.5 -114.5q0 -45 -37 -72t-92 -32q-14 43 -22 63t-25 48.5t-39.5 40.5t-53.5 12q-60 0 -107.5 -40t-74 -104t-39.5 -132t-13 -135q0 -138 49 -206t152 -68q95 0 213 73l24 -61 q-54 -61 -140 -101.5t-168 -40.5q-25 0 -49 3l-50 -75q89 -79 89 -151q0 -103 -201 -162l-19 58q41 14 63.5 36.5t22.5 46.5q0 40 -74 110l98 141h46q-107 21 -168 103.5t-61 221.5z" />
<glyph unicode="&#xe8;" horiz-adv-x="676" d="M24 289q0 119 35 230.5t92.5 192.5t135 129.5t159.5 48.5q83 0 132.5 -53.5t49.5 -144.5q0 -77 -26.5 -135.5t-69 -93t-101.5 -55.5t-117.5 -27.5t-124.5 -4.5q-9 -135 25 -204.5t122 -69.5q74 0 131.5 24t88.5 51l26 -45q-38 -59 -127 -110.5t-183 -51.5 q-248 0 -248 319zM198 449q49 0 86.5 5t75.5 18.5t62.5 36.5t40 62t15.5 92q0 56 -25 95.5t-67 39.5q-31 0 -60 -16t-57 -53t-47 -109t-24 -171zM243 1345l115 38l132 -333l-56 -35z" />
<glyph unicode="&#xe9;" horiz-adv-x="676" d="M24 289q0 119 35 230.5t92.5 192.5t135 129.5t159.5 48.5q83 0 132.5 -53.5t49.5 -144.5q0 -77 -26.5 -135.5t-69 -93t-101.5 -55.5t-117.5 -27.5t-124.5 -4.5q-9 -135 25 -204.5t122 -69.5q74 0 131.5 24t88.5 51l26 -45q-38 -59 -127 -110.5t-183 -51.5 q-248 0 -248 319zM198 449q49 0 86.5 5t75.5 18.5t62.5 36.5t40 62t15.5 92q0 56 -25 95.5t-67 39.5q-31 0 -60 -16t-57 -53t-47 -109t-24 -171zM334 1047l123 325l111 -39l-183 -318z" />
<glyph unicode="&#xea;" horiz-adv-x="676" d="M24 289q0 119 35 230.5t92.5 192.5t135 129.5t159.5 48.5q83 0 132.5 -53.5t49.5 -144.5q0 -77 -26.5 -135.5t-69 -93t-101.5 -55.5t-117.5 -27.5t-124.5 -4.5q-9 -135 25 -204.5t122 -69.5q74 0 131.5 24t88.5 51l26 -45q-38 -59 -127 -110.5t-183 -51.5 q-248 0 -248 319zM198 449q49 0 86.5 5t75.5 18.5t62.5 36.5t40 62t15.5 92q0 56 -25 95.5t-67 39.5q-31 0 -60 -16t-57 -53t-47 -109t-24 -171zM271 1045l168 179l55 15l178 -186l-49 -37l-163 110h-11l-139 -111z" />
<glyph unicode="&#xeb;" horiz-adv-x="676" d="M-3 1096q6 34 35.5 55.5t62.5 21.5q35 0 56 -21.5t16 -55.5q-6 -36 -34 -58.5t-63 -22.5q-34 0 -56.5 22.5t-16.5 58.5zM24 289q0 119 35 230.5t92.5 192.5t135 129.5t159.5 48.5q83 0 132.5 -53.5t49.5 -144.5q0 -77 -26.5 -135.5t-69 -93t-101.5 -55.5t-117.5 -27.5 t-124.5 -4.5q-9 -135 25 -204.5t122 -69.5q74 0 131.5 24t88.5 51l26 -45q-38 -59 -127 -110.5t-183 -51.5q-248 0 -248 319zM198 449q49 0 86.5 5t75.5 18.5t62.5 36.5t40 62t15.5 92q0 56 -25 95.5t-67 39.5q-31 0 -60 -16t-57 -53t-47 -109t-24 -171zM265 1096 q6 34 35 55.5t62 21.5q35 0 57 -21.5t17 -55.5q-6 -36 -35 -58.5t-64 -22.5q-34 0 -56 22.5t-16 58.5z" />
<glyph unicode="&#xec;" horiz-adv-x="518" d="M44 -2l18 75l123 33l100 640l-130 22l10 76l274 25l20 -23l-116 -744l126 -31l-17 -73h-408zM228 1345l115 38l132 -333l-56 -35z" />
<glyph unicode="&#xed;" horiz-adv-x="594" d="M44 -2l18 75l123 33l100 640l-130 22l10 76l274 25l20 -23l-116 -744l126 -31l-17 -73h-408zM319 1047l123 325l111 -39l-183 -318z" />
<glyph unicode="&#xee;" horiz-adv-x="698" d="M44 -2l18 75l123 33l100 640l-130 22l10 76l274 25l20 -23l-116 -744l126 -31l-17 -73h-408zM256 1045l168 179l55 15l178 -186l-49 -37l-163 110h-11l-139 -111z" />
<glyph unicode="&#xef;" horiz-adv-x="584" d="M47 1096q6 34 35.5 55.5t62.5 21.5q35 0 56 -21.5t16 -55.5q-6 -36 -34 -58.5t-63 -22.5q-34 0 -56.5 22.5t-16.5 58.5zM108 -2l18 75l123 33l100 640l-130 22l10 76l274 25l20 -23l-116 -744l126 -31l-17 -73h-408zM315 1096q6 34 35 55.5t62 21.5q35 0 57 -21.5 t17 -55.5q-6 -36 -35 -58.5t-64 -22.5q-34 0 -56 22.5t-16 58.5z" />
<glyph unicode="&#xf0;" horiz-adv-x="926" d="M47 340q0 127 42 242t109.5 194t154 125.5t174.5 46.5q25 0 51 -6t54.5 -28t36.5 -57l7 2q-12 84 -45 219l-234 -47l22 75l193 40q-33 110 -63 156h117q42 -44 82 -128l134 27l-22 -77l-84 -17q80 -216 80 -509q0 -290 -134 -457.5t-347 -167.5q-85 0 -149.5 29 t-102.5 80.5t-57 116t-19 141.5zM231 380q0 -141 49 -225.5t133 -84.5q124 0 193.5 124t69.5 316q0 139 -52 241.5t-125 104.5q-84 0 -146 -66.5t-92 -173t-30 -236.5z" />
<glyph unicode="&#xf1;" horiz-adv-x="924" d="M65 781l9 80q68 33 153 33q174 0 133 -172h12q51 68 126.5 119.5t157.5 51.5q206 0 159 -280l-35 -235q-23 -144 -23 -203q0 -22 6.5 -37.5t18 -23t27.5 -11.5t21 -4h54l-8 -81q-62 -32 -141 -32q-97 0 -127 49.5t-11 161.5l51 328q17 110 -4 165t-95 55 q-44 0 -82.5 -14.5t-59 -29.5t-45.5 -39l-95 -662h-163l92 697q5 33 -4 52.5t-28.5 25t-45 7t-53.5 -0.5zM283 1024q2 6 5 16.5t15 36.5t26.5 45t38.5 33t51 11l226 -29q11 -1 25 9t22 20l9 11l49 -2l-4 -13q-5 -14 -18.5 -40.5t-29 -45.5t-40.5 -33.5t-52 -10.5l-225 32 q-12 2 -27.5 -10.5t-23.5 -25.5l-8 -13z" />
<glyph unicode="&#xf2;" horiz-adv-x="819" d="M25 347q0 105 34 204t93 174.5t144.5 121.5t182.5 46q57 0 104.5 -21t80 -57.5t55 -85t33 -102.5t10.5 -112q0 -80 -21 -159t-61 -147.5t-94 -121t-124.5 -83t-147.5 -30.5q-92 0 -158.5 50t-98.5 133.5t-32 189.5zM190 388q0 -140 52.5 -217t134.5 -77q105 0 162 100.5 t57 277.5q0 61 -11 113.5t-33.5 96t-61.5 68.5t-91 25q-95 0 -152 -101t-57 -286zM284 1345l115 38l132 -333l-56 -35z" />
<glyph unicode="&#xf3;" horiz-adv-x="819" d="M25 347q0 105 34 204t93 174.5t144.5 121.5t182.5 46q57 0 104.5 -21t80 -57.5t55 -85t33 -102.5t10.5 -112q0 -80 -21 -159t-61 -147.5t-94 -121t-124.5 -83t-147.5 -30.5q-92 0 -158.5 50t-98.5 133.5t-32 189.5zM190 388q0 -140 52.5 -217t134.5 -77q105 0 162 100.5 t57 277.5q0 61 -11 113.5t-33.5 96t-61.5 68.5t-91 25q-95 0 -152 -101t-57 -286zM375 1047l123 325l111 -39l-183 -318z" />
<glyph unicode="&#xf4;" horiz-adv-x="819" d="M25 347q0 105 34 204t93 174.5t144.5 121.5t182.5 46q57 0 104.5 -21t80 -57.5t55 -85t33 -102.5t10.5 -112q0 -80 -21 -159t-61 -147.5t-94 -121t-124.5 -83t-147.5 -30.5q-92 0 -158.5 50t-98.5 133.5t-32 189.5zM190 388q0 -140 52.5 -217t134.5 -77q105 0 162 100.5 t57 277.5q0 61 -11 113.5t-33.5 96t-61.5 68.5t-91 25q-95 0 -152 -101t-57 -286zM312 1045l168 179l55 15l178 -186l-49 -37l-163 110h-11l-139 -111z" />
<glyph unicode="&#xf5;" horiz-adv-x="819" d="M25 347q0 105 34 204t93 174.5t144.5 121.5t182.5 46q57 0 104.5 -21t80 -57.5t55 -85t33 -102.5t10.5 -112q0 -80 -21 -159t-61 -147.5t-94 -121t-124.5 -83t-147.5 -30.5q-92 0 -158.5 50t-98.5 133.5t-32 189.5zM190 388q0 -140 52.5 -217t134.5 -77q105 0 162 100.5 t57 277.5q0 61 -11 113.5t-33.5 96t-61.5 68.5t-91 25q-95 0 -152 -101t-57 -286zM286 1024q2 6 5 16.5t15 36.5t26.5 45t38.5 33t51 11l226 -29q11 -1 25 9t22 20l9 11l49 -2q-2 -6 -6 -16.5t-17 -37t-28.5 -45.5t-40.5 -33.5t-52 -10.5l-225 32q-12 2 -27 -10.5t-24 -25.5 l-8 -13z" />
<glyph unicode="&#xf6;" horiz-adv-x="819" d="M25 347q0 105 34 204t93 174.5t144.5 121.5t182.5 46q57 0 104.5 -21t80 -57.5t55 -85t33 -102.5t10.5 -112q0 -80 -21 -159t-61 -147.5t-94 -121t-124.5 -83t-147.5 -30.5q-92 0 -158.5 50t-98.5 133.5t-32 189.5zM39 1096q6 34 35.5 55.5t62.5 21.5q35 0 56 -21.5 t16 -55.5q-6 -36 -34 -58.5t-63 -22.5q-34 0 -56.5 22.5t-16.5 58.5zM190 388q0 -140 52.5 -217t134.5 -77q105 0 162 100.5t57 277.5q0 61 -11 113.5t-33.5 96t-61.5 68.5t-91 25q-95 0 -152 -101t-57 -286zM307 1096q6 34 35 55.5t62 21.5q35 0 57 -21.5t17 -55.5 q-6 -36 -35 -58.5t-64 -22.5q-34 0 -56 22.5t-16 58.5z" />
<glyph unicode="&#xf7;" horiz-adv-x="919" d="M48 454l12 106h812l-11 -106h-813zM334 228q0 47 35 80t84 33q50 0 85.5 -33t35.5 -81q0 -50 -36 -86.5t-85 -36.5t-84 36.5t-35 87.5zM334 790q0 47 35 80t84 33q50 0 85.5 -33t35.5 -81q0 -50 -36 -86.5t-85 -36.5t-84 36.5t-35 87.5z" />
<glyph unicode="&#xf8;" horiz-adv-x="963" d="M42 -46l132 158q-48 89 -48 215q0 141 58.5 270.5t166.5 212.5t239 83q81 0 139 -46l38 50l155 7l-119 -157q40 -89 40 -210q0 -139 -54.5 -267.5t-156.5 -212t-227 -83.5q-88 0 -152 47l-48 -62zM307 320q0 -36 4 -71l336 450q-33 117 -100 117q-79 0 -135 -73.5 t-80.5 -183t-24.5 -239.5zM329 163q16 -53 43.5 -84t65.5 -31q70 0 123.5 75t79.5 188t26 241q0 27 -3 55z" />
<glyph unicode="&#xf9;" horiz-adv-x="884" d="M65 773l9 80q68 33 153 33q93 0 118 -46t9 -147l-53 -348q-17 -110 4 -165t95 -55q44 0 82.5 14.5t59 29.5t45.5 39l69 481q5 33 -4 52.5t-28.5 25t-45 7t-53.5 -0.5l9 80q68 33 153 33q93 0 116.5 -45t10.5 -148l-71 -520q-6 -38 8.5 -55.5t46.5 -22.5l66 -12l-18 -69 q-86 -32 -141 -32q-76 -2 -105.5 39t-10.5 127h-12q-51 -68 -126.5 -119.5t-157.5 -51.5q-102 0 -141.5 67.5t-17.5 212.5l62 432q5 33 -4 52.5t-28.5 25t-45 7t-53.5 -0.5zM430 1345l115 38l132 -333l-56 -35z" />
<glyph unicode="&#xfa;" horiz-adv-x="884" d="M65 773l9 80q68 33 153 33q93 0 118 -46t9 -147l-53 -348q-17 -110 4 -165t95 -55q44 0 82.5 14.5t59 29.5t45.5 39l69 481q5 33 -4 52.5t-28.5 25t-45 7t-53.5 -0.5l9 80q68 33 153 33q93 0 116.5 -45t10.5 -148l-71 -520q-6 -38 8.5 -55.5t46.5 -22.5l66 -12l-18 -69 q-86 -32 -141 -32q-76 -2 -105.5 39t-10.5 127h-12q-51 -68 -126.5 -119.5t-157.5 -51.5q-102 0 -141.5 67.5t-17.5 212.5l62 432q5 33 -4 52.5t-28.5 25t-45 7t-53.5 -0.5zM521 1047l123 325l111 -39l-183 -318z" />
<glyph unicode="&#xfb;" horiz-adv-x="884" d="M65 773l9 80q68 33 153 33q93 0 118 -46t9 -147l-53 -348q-17 -110 4 -165t95 -55q44 0 82.5 14.5t59 29.5t45.5 39l69 481q5 33 -4 52.5t-28.5 25t-45 7t-53.5 -0.5l9 80q68 33 153 33q93 0 116.5 -45t10.5 -148l-71 -520q-6 -38 8.5 -55.5t46.5 -22.5l66 -12l-18 -69 q-86 -32 -141 -32q-76 -2 -105.5 39t-10.5 127h-12q-51 -68 -126.5 -119.5t-157.5 -51.5q-102 0 -141.5 67.5t-17.5 212.5l62 432q5 33 -4 52.5t-28.5 25t-45 7t-53.5 -0.5zM458 1045l168 179l55 15l178 -186l-49 -37l-163 110h-11l-139 -111z" />
<glyph unicode="&#xfc;" horiz-adv-x="884" d="M65 773l9 80q68 33 153 33q93 0 118 -46t9 -147l-53 -348q-17 -110 4 -165t95 -55q44 0 82.5 14.5t59 29.5t45.5 39l69 481q5 33 -4 52.5t-28.5 25t-45 7t-53.5 -0.5l9 80q68 33 153 33q93 0 116.5 -45t10.5 -148l-71 -520q-6 -38 8.5 -55.5t46.5 -22.5l66 -12l-18 -69 q-86 -32 -141 -32q-76 -2 -105.5 39t-10.5 127h-12q-51 -68 -126.5 -119.5t-157.5 -51.5q-102 0 -141.5 67.5t-17.5 212.5l62 432q5 33 -4 52.5t-28.5 25t-45 7t-53.5 -0.5zM184 1096q6 34 35.5 55.5t62.5 21.5q35 0 56 -21.5t16 -55.5q-6 -36 -34 -58.5t-63 -22.5 q-34 0 -56.5 22.5t-16.5 58.5zM452 1096q6 34 35 55.5t62 21.5q35 0 57 -21.5t17 -55.5q-6 -36 -35 -58.5t-64 -22.5q-34 0 -56 22.5t-16 58.5z" />
<glyph unicode="&#xfd;" horiz-adv-x="778" d="M-120 -257q0 60 47 107q83 -56 161 -56q84 0 143 50t104 156l-160 697q-8 34 -19.5 52.5t-27 25t-37.5 7.5t-50 -1l9 80q64 33 143 33q33 0 56 -9.5t37 -24t24 -42t15.5 -54t12.5 -68.5q2 -13 3 -19l91 -534q24 42 49.5 97.5t58 139t53 181t20.5 185.5q0 31 -34 40.5 t-78 -1.5l9 80q59 33 133 33q117 0 117 -120q0 -94 -106.5 -341.5t-218.5 -438.5q-29 -51 -47.5 -82t-47.5 -76.5t-51 -72.5t-52.5 -59t-59 -49t-62.5 -29t-70 -12q-71 0 -118 33t-47 92zM334 1047l123 325l111 -39l-183 -318z" />
<glyph unicode="&#xfe;" horiz-adv-x="1022" d="M42 -365l20 74l120 33l207 1384l-134 23l12 76l281 25l22 -23l-61 -380l-29 -125h10q33 63 107 115.5t139 52.5q99 0 168 -104t69 -254q0 -126 -40.5 -231.5t-108 -174t-152 -106.5t-174.5 -38q-73 0 -93 11l22 114q36 -18 87 -18q27 0 48.5 2t52 11t54.5 25t49 45.5 t42 70.5t27.5 103t10.5 140q0 119 -39 189.5t-93 70.5q-49 0 -94.5 -21t-67.5 -42l-22 -21l-141 -925l155 -31l-18 -71h-436z" />
<glyph unicode="&#xff;" horiz-adv-x="778" d="M-120 -257q0 60 47 107q83 -56 161 -56q84 0 143 50t104 156l-160 697q-8 34 -19.5 52.5t-27 25t-37.5 7.5t-50 -1l9 80q64 33 143 33q33 0 56 -9.5t37 -24t24 -42t15.5 -54t12.5 -68.5q2 -13 3 -19l91 -534q24 42 49.5 97.5t58 139t53 181t20.5 185.5q0 31 -34 40.5 t-78 -1.5l9 80q59 33 133 33q117 0 117 -120q0 -94 -106.5 -341.5t-218.5 -438.5q-29 -51 -47.5 -82t-47.5 -76.5t-51 -72.5t-52.5 -59t-59 -49t-62.5 -29t-70 -12q-71 0 -118 33t-47 92zM-3 1096q6 34 35.5 55.5t62.5 21.5q35 0 56 -21.5t16 -55.5q-6 -36 -34 -58.5 t-63 -22.5q-34 0 -56.5 22.5t-16.5 58.5zM265 1096q6 34 35 55.5t62 21.5q35 0 57 -21.5t17 -55.5q-6 -36 -35 -58.5t-64 -22.5q-34 0 -56 22.5t-16 58.5z" />
<glyph unicode="&#x152;" horiz-adv-x="1708" d="M151 409q-5 98 11 210q23 147 80 266.5t144.5 206t208.5 133.5t266 47q107 0 181 -28h777l-83 -320l-84 13l-6 215h-469l-75 -476h288l61 120l96 14l-93 -389l-89 -13l-6 175h-272l-77 -487h492l135 230l81 -13l-79 -313h-841q-116 -27 -212 -27q-100 0 -180 31.5 t-132.5 89t-85 137.5t-37.5 178zM378 513.5q-2 -80.5 11.5 -160t42.5 -139.5t84 -97.5t130 -37.5q93 0 175 43l159 1004q-77 50 -183 50q-325 0 -404 -500q-13 -82 -15 -162.5z" />
<glyph unicode="&#x153;" horiz-adv-x="1407" d="M113 280q-3 68 8 146q18 111 65 202t113 149.5t145 90.5t164 32q91 0 169.5 -50t94.5 -114q62 69 152 116t186 47q55 0 100 -20t75.5 -60t42 -99.5t-0.5 -138.5q-9 -58 -38 -130l-483 -6q-6 -50 -4 -99.5t19.5 -95t43.5 -80.5t68.5 -56t95.5 -21q57 0 105.5 12.5 t128.5 51.5l16 -53q-70 -63 -162 -98.5t-190 -35.5q-172 0 -268 161q-80 -85 -155.5 -122t-166.5 -37q-78 0 -138.5 22.5t-98.5 63t-61 97.5t-26 125zM301.5 374q-0.5 -60 10.5 -114t32.5 -95t58 -65t84.5 -24q52 0 101 41.5t82 106t44 135.5q10 62 12 122t-6.5 119t-28 103 t-55.5 71t-85 27q-191 0 -239 -304q-10 -63 -10.5 -123zM920 527l318 22q11 28 17 66q29 186 -109 186q-31 0 -63.5 -16t-63.5 -47.5t-57.5 -86t-41.5 -124.5z" />
<glyph unicode="&#x178;" horiz-adv-x="1123" d="M-3 1168l24 76h507l-23 -76l-163 -38l200 -489l300 485l-177 42l22 76h444l-22 -76l-128 -38l-401 -602l-65 -414l159 -33l-23 -81h-507l21 74l159 47l61 384l-258 621zM386 1465q6 34 35.5 55.5t62.5 21.5q35 0 56 -21.5t16 -55.5q-6 -36 -34 -58.5t-63 -22.5 q-34 0 -56.5 22.5t-16.5 58.5zM654 1465q6 34 35 55.5t62 21.5q35 0 57 -21.5t17 -55.5q-6 -36 -35 -58.5t-64 -22.5q-34 0 -56 22.5t-16 58.5z" />
<glyph unicode="&#x2c6;" horiz-adv-x="560" d="M79 1387l168 179l55 15l178 -186l-49 -37l-163 110h-11l-139 -111z" />
<glyph unicode="&#x2dc;" horiz-adv-x="626" d="M80 1379q2 6 5 16.5t15 36.5t26.5 45t38.5 33t51 11l226 -29q11 -1 25.5 9.5t22.5 20.5l8 10l49 -2l-5 -14q-4 -13 -17.5 -39.5t-29 -45.5t-40.5 -33.5t-52 -10.5l-225 32q-12 2 -27 -10.5t-23 -25.5l-9 -13z" />
<glyph unicode="&#x2000;" horiz-adv-x="881" />
<glyph unicode="&#x2001;" horiz-adv-x="1763" />
<glyph unicode="&#x2002;" horiz-adv-x="881" />
<glyph unicode="&#x2003;" horiz-adv-x="1763" />
<glyph unicode="&#x2004;" horiz-adv-x="587" />
<glyph unicode="&#x2005;" horiz-adv-x="440" />
<glyph unicode="&#x2006;" horiz-adv-x="293" />
<glyph unicode="&#x2007;" horiz-adv-x="293" />
<glyph unicode="&#x2008;" horiz-adv-x="220" />
<glyph unicode="&#x2009;" horiz-adv-x="352" />
<glyph unicode="&#x200a;" horiz-adv-x="97" />
<glyph unicode="&#x2010;" horiz-adv-x="558" d="M59 398l28 101l410 18l-27 -101z" />
<glyph unicode="&#x2011;" horiz-adv-x="558" d="M59 398l28 101l410 18l-27 -101z" />
<glyph unicode="&#x2012;" horiz-adv-x="558" d="M59 398l28 101l410 18l-27 -101z" />
<glyph unicode="&#x2013;" horiz-adv-x="748" d="M61 409l15 104l611 7l-16 -105z" />
<glyph unicode="&#x2014;" horiz-adv-x="1258" d="M61 409l15 104l1121 7l-16 -105z" />
<glyph unicode="&#x2018;" horiz-adv-x="427" d="M59 961q0 244 296 323l23 -69q-92 -24 -137 -72.5t-45 -101.5q0 -44 32.5 -75.5t83.5 -31.5q4 0 9 0.5t11 1.5t9 1q16 -42 16 -62q0 -55 -40 -88.5t-83 -33.5q-28 0 -57 12t-56.5 35t-44.5 65t-17 96z" />
<glyph unicode="&#x2019;" horiz-adv-x="430" d="M61 819q92 24 136.5 72t44.5 101q0 44 -32 76t-83 32l-30 -3q-15 39 -15 63q0 55 40 88t83 33q28 0 57 -12t56.5 -35t44.5 -65t17 -96q0 -244 -296 -323z" />
<glyph unicode="&#x201a;" horiz-adv-x="437" d="M55 -244q92 24 137 72.5t45 101.5q0 43 -32.5 74.5t-83.5 31.5q-10 0 -30 -2q-14 37 -14 63q0 55 39.5 88t82.5 33q28 0 57 -12t56 -35t44 -65t17 -96q0 -244 -295 -323z" />
<glyph unicode="&#x201c;" horiz-adv-x="742" d="M59 964q0 33 5.5 63t24 70t49 73t87 65t131.5 52l21 -68q-92 -24 -136.5 -72.5t-44.5 -101.5q0 -43 33 -75t84 -32q10 0 30 2q14 -37 14 -62q0 -55 -39.5 -88.5t-82.5 -33.5q-28 0 -57.5 12t-56.5 35t-44.5 65t-17.5 96zM374 964q0 33 5.5 63t24 70t49 73t87 65t131.5 52 l22 -68q-92 -24 -136.5 -72.5t-44.5 -101.5q0 -44 32.5 -75.5t83.5 -31.5q9 0 29 2q14 -37 14 -62q0 -55 -39.5 -88.5t-82.5 -33.5q-28 0 -57 12t-56.5 35t-44.5 65t-17 96z" />
<glyph unicode="&#x201d;" horiz-adv-x="747" d="M61 824q92 24 136.5 72.5t44.5 101.5q0 44 -32 75t-83 31q-20 0 -30 -1q-15 39 -15 63q0 55 39.5 87.5t83.5 32.5q28 0 57 -12t56.5 -35t44.5 -65t17 -96q0 -244 -296 -323zM379 824q92 24 136.5 72.5t44.5 101.5q0 43 -32.5 74.5t-83.5 31.5q-20 0 -30 -1q-15 39 -15 63 q0 55 39.5 87.5t83.5 32.5q28 0 57 -12t56.5 -35t44.5 -65t17 -96q0 -244 -296 -323z" />
<glyph unicode="&#x201e;" horiz-adv-x="749" d="M54 -254q92 24 137 72.5t45 101.5q0 44 -32.5 75.5t-83.5 31.5l-30 -3q-14 37 -14 63q0 55 39.5 88t82.5 33q28 0 57 -12t56 -35t44 -65t17 -96q0 -244 -295 -323zM372 -254q92 24 136.5 72.5t44.5 101.5q0 44 -32 75.5t-83 31.5l-30 -3q-15 39 -15 63q0 55 40 88t83 33 q28 0 57 -12t56.5 -35t44.5 -65t17 -96q0 -244 -296 -323z" />
<glyph unicode="&#x2022;" horiz-adv-x="494" d="M71 575q0 69 52 117.5t123 48.5q72 0 124.5 -49.5t52.5 -118.5q0 -74 -52.5 -126t-124.5 -52t-123.5 53t-51.5 127z" />
<glyph unicode="&#x2026;" horiz-adv-x="1301" d="M74 92q0 47 35 80t84 33q50 0 85 -33.5t35 -81.5q0 -50 -35 -85.5t-85 -35.5q-49 0 -84 36.5t-35 86.5zM519 92q0 47 35 80t84 33q50 0 85.5 -33.5t35.5 -81.5q0 -50 -35.5 -85.5t-85.5 -35.5q-49 0 -84 36.5t-35 86.5zM991 92q0 48 35 80.5t83 32.5q50 0 86 -33.5 t36 -81.5q0 -50 -36 -85.5t-86 -35.5q-49 0 -83.5 36t-34.5 87z" />
<glyph unicode="&#x202f;" horiz-adv-x="352" />
<glyph unicode="&#x2039;" horiz-adv-x="415" d="M49 469l269 351l43 -59l-164 -300l167 -320l-52 -64l-262 372z" />
<glyph unicode="&#x203a;" horiz-adv-x="416" d="M51 141l167 320l-164 300l44 59l268 -351l-2 -20l-261 -372z" />
<glyph unicode="&#x205f;" horiz-adv-x="440" />
<glyph unicode="&#x20ac;" horiz-adv-x="1210" d="M49 468l10 99h148q-2 34 -2 69v15h-146l10 99h147q14 78 46 151.5t84 140.5t118.5 117.5t156.5 80t192 29.5q101 0 180 -23t149 -77l-31 -332l-88 13l-42 220q-41 52 -89 78t-136 26q-149 0 -235 -114t-101 -310h541l-21 -99h-523q1 -43 5 -84h490l-21 -99h-454 q37 -175 134.5 -280t241.5 -105q51 0 101 22.5t83 68.5l43 227l88 13l31 -303q-94 -74 -183.5 -104.5t-212.5 -30.5q-215 0 -359.5 131.5t-184.5 360.5h-170z" />
<glyph unicode="&#x2122;" horiz-adv-x="1146" d="M178 1079l22 165h540l-42 -172l-62 7l-1 104h-122l-68 -427l81 -16l-15 -56h-273l12 53l79 22l67 424h-117l-41 -110zM649 684l13 53l79 22l98 412l-80 19l13 54h240l21 -87l50 -304l159 319l44 72h228l-14 -54l-78 -17l-42 -417l79 -16l-13 -56h-272l14 53l78 22l34 377 l-208 -428l-98 -9l-89 420l-86 -363l80 -16l-14 -56h-236z" />
<glyph unicode="&#x25fc;" horiz-adv-x="890" d="M0 0v890h890v-890h-890z" />
</font>
</defs>
</svg>
