<?xml version="1.0" standalone="no"?>
<!DOCTYPE svg PUBLIC "-//W3C//DTD SVG 1.1//EN" "http://www.w3.org/Graphics/SVG/1.1/DTD/svg11.dtd" >
<svg xmlns="http://www.w3.org/2000/svg">
<metadata></metadata>
<defs>
<font id="neutonbold" horiz-adv-x="588" >
<font-face units-per-em="2048" ascent="1638" descent="-410" />
<missing-glyph horiz-adv-x="508" />
<glyph horiz-adv-x="0" />
<glyph unicode="&#xd;" horiz-adv-x="682" />
<glyph unicode=" "  horiz-adv-x="508" />
<glyph unicode="&#x09;" horiz-adv-x="508" />
<glyph unicode="&#xa0;" horiz-adv-x="508" />
<glyph unicode="!" horiz-adv-x="419" d="M42 107.5q0 57.5 43 97.5t125 40t125.5 -40t43.5 -98.5t-43.5 -98t-128.5 -39.5t-125 40.5t-40 98zM64 1220q0 38 46 58.5t111 20.5t93 -14t28 -51q0 -248 -68 -874l-126 24q-5 47 -20 171l-23 203q-41 360 -41 462z" />
<glyph unicode="&#x22;" horiz-adv-x="579" d="M25 1282l247 -20l-48 -370l-134 -19zM300 1282l247 -20l-48 -370l-134 -19z" />
<glyph unicode="#" horiz-adv-x="1033" d="M-11 296l44 174h229l31 210h-233l45 174h215l44 294l164 10l-45 -304h166l44 294l166 8l-45 -302h259l-42 -174h-244l-31 -210h242l-42 -174h-227l-47 -315l-165 -7l48 322h-166l-47 -315l-165 -7l49 322h-247zM425 470h166l32 210h-166z" />
<glyph unicode="$" horiz-adv-x="899" d="M33 129l23 299l140 -21l50 -207q51 -74 152 -90l14 386q-150 79 -211 127q-143 113 -143 267t96 249t247 121l-11 132l226 25l-26 -156q111 -17 216 -83l-24 -317l-136 21l-32 197q-23 31 -93 53l-13 -353q16 -9 51.5 -27t54.5 -28l52 -30q98 -58 127.5 -91t48 -58 t28.5 -50q23 -57 23 -127.5t-30.5 -137.5t-82.5 -114q-103 -93 -244 -125l6 -152l-229 -20l21 163q-92 14 -176.5 55.5t-124.5 91.5zM306 1009.5q0 -63.5 33.5 -106t95.5 -82.5l13 324q-62 0 -102 -36t-40 -99.5zM476 111q68 12 114 57t46 106.5t-37.5 100t-109.5 79.5z" />
<glyph unicode="%" horiz-adv-x="1665" d="M14 897q0 74 47 147.5t120.5 119.5t146.5 46q11 0 26 -3l10 -93q-24 8 -33 8q-81 0 -81 -225t83 -225t83 205.5t-24 325.5l658 5l234 -2v-52l-472 -563l-432 -617l-278 38l482 576l403 536l-433 -3q47 -41 68.5 -107t21.5 -133t-48 -142t-120 -117t-143 -42 q-135 0 -227 87t-92 230zM758 268q0 130 104 226t223 96t211 -92t92 -219t-98.5 -221t-219 -94t-216.5 87t-96 217zM995 282q0 -222 87 -222q78 0 78 214q0 98 -20 164t-60 66q-85 0 -85 -222z" />
<glyph unicode="&#x26;" horiz-adv-x="1333" d="M16 296q0 131 75.5 221t217.5 166q-55 49 -90 124t-35 147q0 134 108.5 226t240.5 92t210.5 -64t78.5 -190q0 -170 -193 -294v-14l189 -204l153 224l-116 40l17 118h448l-16 -118l-172 -48l-214 -317q232 -246 328 -285l39 -14l-23 -103q-67 -21 -150 -21 q-150 0 -284 142l-61 63q-159 -211 -387 -211q-159 0 -258 74q-106 79 -106 246zM276 401q0 -108 52.5 -177.5t125.5 -69.5q126 0 214 134l-271 300l-13 3q-108 -82 -108 -190zM399 1024.5q0 -50.5 40.5 -109.5t91.5 -105q42 37 62.5 74.5t20.5 104.5t-30 111.5t-79 44.5 t-77.5 -35t-28.5 -85.5z" />
<glyph unicode="'" horiz-adv-x="308" d="M25 1302l247 -20l-48 -370l-134 -19z" />
<glyph unicode="(" horiz-adv-x="472" d="M15 436q0 444 243 724q48 55 95 95l89 -95q-135 -178 -168 -436q-16 -119 -16 -270q0 -451 194 -752l-100 -78q-69 67 -104 111q-233 290 -233 701z" />
<glyph unicode=")" horiz-adv-x="472" d="M15 -298q194 301 194 752q0 303 -61 472q-47 135 -123 234l89 95q92 -79 141 -152t84 -142t58 -143q55 -177 55 -382q0 -490 -329 -804l-8 -8z" />
<glyph unicode="*" horiz-adv-x="774" d="M122 888l219 38l-177 176l109 82l103 -194l118 220l108 -78l-155 -169l249 -29l-40 -128l-204 82l44 -234h-137l24 210l-219 -108z" />
<glyph unicode="+" horiz-adv-x="639" d="M25 392l10 134h214v238l149 -12v-226h223l-13 -134h-210l1 -234l-150 8v226h-224z" />
<glyph unicode="," horiz-adv-x="439" d="M31 -252q87 25 130 74.5t43 97t-28.5 75.5t-61.5 28t-53 -7q-23 46 -23 80q0 71 47.5 111.5t128.5 40.5t138 -62.5t57 -174.5q0 -107 -71 -205q-82 -113 -274 -151z" />
<glyph unicode="-" d="M40 378l14 138l494 21l-14 -143z" />
<glyph unicode="." horiz-adv-x="405" d="M36 107q0 56 42 95.5t124 39.5t125 -39t43 -96.5t-43 -96t-127 -38.5t-124 39.5t-40 95.5z" />
<glyph unicode="/" horiz-adv-x="684" d="M22 -368l462 1598l181 14l-466 -1600z" />
<glyph unicode="0" horiz-adv-x="957" d="M34 579q0 137 26.5 244t70.5 177t103 117q112 88 256 88q189 0 306 -137q127 -150 127 -484q0 -380 -199 -530q-109 -81 -246 -81q-239 0 -352 183q-92 148 -92 423zM338 586q0 -262 30.5 -371t117.5 -109q75 0 104 113t29 372t-30.5 365t-111.5 106t-110 -107t-29 -369z " />
<glyph unicode="1" horiz-adv-x="819" d="M20 -2l12 101l244 57v817h-233l9 122l458 91h60v-1040l249 -38l-11 -110h-788z" />
<glyph unicode="2" horiz-adv-x="934" d="M26 158l227 177q291 232 291 443q0 271 -171 271q-77 0 -117 -63l-52 -320l-118 19l-39 328q63 84 197.5 140.5t259.5 56.5q177 0 272 -93t95 -239q0 -230 -231 -442q-104 -95 -244 -188l-72 -48h365l108 210l115 -14l-49 -396h-831z" />
<glyph unicode="3" horiz-adv-x="941" d="M26 42l64 372l132 -16l20 -248q17 -19 49.5 -32.5t65.5 -13.5q95 0 155 53.5t60 154t-85.5 168t-233.5 57.5l-25 97q131 30 221.5 98t90.5 160t-52.5 145.5t-120 53.5t-109.5 -30l-52 -291l-126 12l-41 322q38 39 158.5 76.5t219 37.5t173 -14.5t132.5 -43.5 q123 -62 123 -198q0 -116 -115 -196q-99 -70 -202 -105v-15q163 -6 261 -79t99 -189t-73 -206t-206.5 -143t-294.5 -53q-85 0 -163 19.5t-125 46.5z" />
<glyph unicode="4" horiz-adv-x="1029" d="M-10 448l694 770l95 -25q-11 -220 -11 -511v-186h255l-16 -165h-239v-184l216 -45l-10 -103h-707l5 91l242 60v184h-500zM240 496h272v368z" />
<glyph unicode="5" horiz-adv-x="862" d="M-10 40l52 368l118 -28l31 -244q42 -52 125 -52t137.5 50t54.5 135q0 126 -111 205t-322 86l121 608l509 30l-35 -246l-392 -14l-24 -172q381 -11 478 -251q27 -67 27 -164t-74.5 -192t-191 -146t-264.5 -51t-239 78z" />
<glyph unicode="6" horiz-adv-x="911" d="M30 432q0 102 41.5 213.5t110.5 201t158 164.5q175 148 368 203l52 -74q-165 -81 -283.5 -219t-148.5 -285h16q86 96 227 96t233 -94t92 -252q0 -97 -38.5 -176t-101.5 -128q-131 -102 -301 -102q-211 0 -321 132q-104 126 -104 320zM317 360q0 -49 14 -113t47.5 -109.5 t82.5 -45.5q149 0 149 237q0 251 -144 251q-45 0 -83.5 -19.5t-58.5 -46.5q-7 -105 -7 -154z" />
<glyph unicode="7" horiz-adv-x="868" d="M2 746l19 437h837v-89l-444 -1127l-302 31l519 954h-440l-88 -226z" />
<glyph unicode="8" horiz-adv-x="908" d="M27 275q0 181 223 291v12q-178 131 -178 293q0 133 111 231t281 98t267.5 -80.5t97.5 -193.5q0 -79 -56 -154.5t-142 -111.5l-1 -13q131 -91 187.5 -163.5t56.5 -167.5q0 -146 -125 -244.5t-318.5 -98.5t-298.5 85.5t-105 216.5zM292 305q0 -85 55.5 -151t128 -66 t109.5 34t37 92q0 43 -23.5 72.5t-37.5 45t-44.5 40.5t-48.5 38l-113 84q-36 -39 -49.5 -71.5t-13.5 -117.5zM333 967.5q0 -55.5 51.5 -123.5t139.5 -120q40 24 55.5 59.5t15.5 115t-44 137.5t-102 58t-87 -35.5t-29 -91z" />
<glyph unicode="9" horiz-adv-x="895" d="M20 780q0 99 36 182.5t96 137.5q125 114 292 114q313 0 397 -267q25 -79 25 -175q0 -203 -80.5 -375.5t-230.5 -285t-343 -137.5l-36 94q185 62 276 175.5t110 277.5l-10 5q-81 -82 -220 -82t-225.5 88.5t-86.5 247.5zM300 856q0 -257 134 -257q82 0 130 61q9 60 9 171 t-37.5 189t-107.5 78t-99 -58t-29 -184z" />
<glyph unicode=":" horiz-adv-x="405" d="M52 108.5q0 50.5 38 86t111.5 35.5t112.5 -35t39 -86.5t-39 -86.5t-114.5 -35t-111.5 35.5t-36 86zM52 736.5q0 50.5 38 86t111.5 35.5t112.5 -35t39 -86.5t-39 -86.5t-114.5 -35t-111.5 35.5t-36 86z" />
<glyph unicode=";" horiz-adv-x="405" d="M50 -103q78 22 117 66.5t39 87.5t-26 68.5t-53 25.5t-50 -7q-21 40 -21 72q0 64 43 100.5t116 36.5t124 -56t51 -157q0 -97 -64 -184q-74 -102 -246 -136zM54 752.5q0 50.5 38 86t111.5 35.5t112.5 -35t39 -86.5t-39 -86.5t-114.5 -35t-111.5 35.5t-36 86z" />
<glyph unicode="&#x3c;" horiz-adv-x="706" d="M-50 419v75l620 480l101 -104l-388 -416l404 -442l-104 -96z" />
<glyph unicode="=" horiz-adv-x="771" d="M20 280l22 165h710l-20 -165h-712zM24 519l22 165h708l-20 -165h-710z" />
<glyph unicode="&#x3e;" horiz-adv-x="706" d="M30 12l404 442l-388 416l101 104l620 -480v-75l-633 -503z" />
<glyph unicode="?" horiz-adv-x="629" d="M24 1145q0 57 50 100.5t152 43.5t192 -64t148 -171t58 -221q0 -103 -58 -159q-41 -41 -94 -67t-78 -41q-58 -35 -58 -82t13 -90l-118 -24q-36 53 -60.5 122t-24.5 120.5t32.5 88t79.5 56.5l92 39q112 46 112 130q0 50 -42 85t-93.5 35t-110 -20t-84.5 -48 q-39 11 -73.5 60.5t-34.5 106.5zM122 107.5q0 57.5 43 97.5t125 40t125.5 -40t43.5 -98.5t-43 -98t-128 -39.5t-125.5 40.5t-40.5 98z" />
<glyph unicode="@" horiz-adv-x="1396" d="M27 330.5q0 137.5 58.5 268t162 229t256.5 157.5t294.5 59t238 -28.5t173 -81.5t122 -138t45.5 -189.5t-40.5 -202t-108.5 -169.5t-161 -115.5t-175 -43.5q-165 0 -161 116h-11q-36 -53 -86 -86.5t-100 -33.5q-80 0 -132 69.5t-52 192.5q0 187 132.5 322.5t327.5 135.5 q91 0 164 -16l18 -20l-40 -366q-29 -184 22 -184q64 0 116 58q100 113 100 295t-113 282.5t-296 100.5q-126 0 -232 -47t-175 -127q-146 -166 -146 -395t135 -358t392 -129q101 0 200 35t157 83l40 -88q-204 -140 -452 -140q-289 0 -478 138q-91 67 -143 173t-52 243.5z M567 378q0 -144 69 -144q46 0 96 42l50 399l-60 11q-38 0 -69 -33.5t-49 -83.5q-37 -103 -37 -191z" />
<glyph unicode="A" horiz-adv-x="1343" d="M-18 0l14 106l154 79l414 1036l248 48l390 -1088l143 -69l-11 -113h-620l14 106l169 79l-74 208h-405l-74 -210l187 -68l-13 -114h-536zM472 548h301l-146 436z" />
<glyph unicode="B" horiz-adv-x="1187" d="M25 0l13 106l166 63v887l-170 37l10 118q331 46 500 46t266 -25t152 -68q109 -84 109 -205q0 -85 -55 -164.5t-150 -112.5v-9q143 -8 220.5 -96t77.5 -197q0 -170 -140 -275t-418 -105h-581zM486 141h166q102 0 164 58.5t62 152.5t-65 162.5t-176 68.5h-151v-442z M486 708h216q96 63 96 195q0 98 -58.5 160.5t-187.5 62.5q-32 0 -66 -6v-412z" />
<glyph unicode="C" horiz-adv-x="1197" d="M30 586q0 199 100 368q118 197 340 273q125 43 255 43t241 -26.5t172 -73.5l-30 -378l-130 18l-52 226q-35 44 -99.5 70t-138.5 26q-163 0 -258.5 -117.5t-95.5 -349t122.5 -369.5t314.5 -138t359 123l48 -105q-67 -79 -203.5 -140.5t-296.5 -61.5q-294 0 -471 162 t-177 450z" />
<glyph unicode="D" horiz-adv-x="1407" d="M24 0l18 106l176 79v868l-172 38l8 117q316 50 498.5 50t290 -17.5t186 -48.5t139.5 -76t100 -96t64 -113q46 -111 46 -234.5t-33.5 -219.5t-101 -178.5t-161.5 -143.5q-202 -131 -502 -131h-556zM498 153h110q287 0 402 201q60 107 60 224t-30.5 205.5t-89.5 162 t-157.5 117t-224.5 43.5l-70 -5v-948z" />
<glyph unicode="E" horiz-adv-x="1189" d="M25 1134l15 110h1084l-31 -369l-129 19l-62 218h-407v-428h235l44 129l144 27l-34 -424l-139 -23l-33 169h-217v-411h429l122 226l124 -15l-30 -362h-1104l10 106l165 63v909z" />
<glyph unicode="F" horiz-adv-x="1125" d="M25 1134l15 110h1080l-50 -366l-127 20l-47 214h-400v-474h233l46 132l147 30l-40 -446l-135 -28l-32 180h-219v-332l230 -61l-15 -113h-675l12 106l164 63v909z" />
<glyph unicode="G" horiz-adv-x="1345" d="M30 579q0 371 307 571q179 116 402 116q150 0 252.5 -24.5t198.5 -67.5l-32 -380l-138 14l-38 205q-111 111 -292 111q-151 0 -246 -104q-102 -111 -102 -348q0 -152 47.5 -274.5t141 -196t209.5 -73.5t186 49v217l-228 52l17 127h608l-17 -115l-114 -57v-315 q-81 -50 -220 -82t-273 -32q-328 0 -498.5 162t-170.5 445z" />
<glyph unicode="H" horiz-adv-x="1524" d="M25 1131l18 113h632l-15 -113l-167 -53v-360h537v355l-182 58l14 113h637l-15 -113l-168 -53v-916l180 -48l-12 -114h-632l12 106l166 63v372h-537v-379l183 -48l-16 -114h-629l10 106l168 63v904z" />
<glyph unicode="I" horiz-adv-x="706" d="M25 1131l15 113h636l-13 -118l-174 -52v-906l181 -48l-12 -120h-628l8 108l172 63v902z" />
<glyph unicode="J" horiz-adv-x="699" d="M-2 -194q220 193 220 435v832l-180 58l15 113h631l-15 -113l-170 -53l-1 -668q0 -207 -28.5 -301t-57.5 -144.5t-78 -100.5q-83 -86 -250 -190z" />
<glyph unicode="K" horiz-adv-x="1372" d="M24 1131l22 113h630l-15 -113l-154 -71v-878l192 -68l-11 -114h-660l14 106l186 79v870zM540 594l2 46q71 77 108 129l209 293l-71 63l18 119h506l-20 -113l-201 -71l-303 -391l278 -348q89 -108 127 -135q83 -57 155 -75l30 -9l-20 -100q-69 -26 -159 -26t-153.5 23.5 t-118.5 70.5q-95 80 -193 234z" />
<glyph unicode="L" horiz-adv-x="1149" d="M24 1133l16 111h647l-15 -111l-184 -73v-912l356 -11l152 261l126 -18l-42 -380h-1051l13 106l162 63v889z" />
<glyph unicode="M" horiz-adv-x="1752" d="M12 0l16 114l168 63l65 901l-183 50l12 116h505l75 -200l208 -618l302 818h498l-14 -116l-165 -46l61 -910l179 -52l-12 -120h-589l18 114l138 63l-54 713l-303 -850l-205 -28l-292 865l-48 -705l156 -52l-18 -120h-518z" />
<glyph unicode="N" horiz-adv-x="1396" d="M27 1128l13 116h395l587 -842v671l-186 58l18 113h526l-20 -113l-167 -53v-1070l-218 -38l-588 820v-628l181 -48l-12 -114h-528l10 106l168 63v891z" />
<glyph unicode="O" horiz-adv-x="1402" d="M50 623.5q0 289.5 180 468t486 178.5t471.5 -172t165.5 -471t-188.5 -476.5t-504.5 -177.5q-301 0 -458 184q-152 177 -152 466.5zM366 697q0 -81 7.5 -140.5t23 -123t43 -118.5t64.5 -99q80 -95 207 -95q319 0 319 452q0 111 -22.5 208.5t-50.5 153.5t-65 101 q-79 99 -210 99q-178 0 -250 -133q-66 -122 -66 -305z" />
<glyph unicode="P" horiz-adv-x="1136" d="M25 0l17 106l176 63v887l-180 37l12 118q331 50 562 50q292 0 413 -113q95 -89 95 -262.5t-138 -294.5t-341 -121q-31 0 -91 4l-24 128l36 1q134 2 202 66t68 180t-64 190t-192 74q-42 0 -84 -7v-928l238 -58l-18 -120h-687z" />
<glyph unicode="Q" horiz-adv-x="1404" d="M50 586.5q0 165.5 48.5 287.5t136.5 209.5t217.5 137t285.5 49.5q290 0 453.5 -170.5t163.5 -473.5q0 -227 -122.5 -397t-326.5 -224q46 -96 150 -153.5t283 -89.5q0 -9 -6.5 -53.5t-8.5 -51.5q-104 -41 -219.5 -41t-201.5 38.5t-139 121.5q-50 78 -50 184v16 q-21 -3 -52 -3q-193 0 -332.5 82t-209.5 224t-70 307.5zM359 675q0 -257 135 -423q47 -57 121 -96.5t165 -47.5q155 54 208 180q48 112 48 280q0 262 -119 434q-40 57 -101.5 93t-135.5 36q-321 0 -321 -456z" />
<glyph unicode="R" horiz-adv-x="1332" d="M25 0l15 106l178 63v879l-181 38l11 119q307 49 560.5 49t391.5 -75.5t138 -252.5q0 -113 -82.5 -209t-198.5 -137l151 -206q134 -183 217 -229q40 -22 89 -35l36 -10l-23 -100q-74 -24 -169 -24q-142 0 -238.5 76t-171.5 216l-124 230h-124v-320l165 -59l-11 -119h-629z M500 648h175q159 69 159 226q0 107 -70 177.5t-188 70.5l-76 -3v-471z" />
<glyph unicode="S" horiz-adv-x="934" d="M33 124l23 314l140 -21l40 -187q30 -44 90 -72.5t130 -28.5t124 42t54 100.5t-32.5 96.5t-84 66t-113.5 56.5t-124.5 63.5t-113.5 78q-117 97 -117 254q0 216 203 321q118 61 262 61q84 0 177.5 -27t140.5 -69l-26 -322l-136 22l-32 166q-24 39 -79.5 68.5t-116.5 29.5 t-100.5 -37.5t-39.5 -96.5t34 -99t89 -70.5t121 -60.5t132.5 -66.5t121.5 -80.5q123 -98 123 -257q0 -220 -231 -332q-126 -60 -263 -60t-243.5 42t-152.5 106z" />
<glyph unicode="T" horiz-adv-x="1205" d="M12 1244h1187l-33 -393l-139 23l-51 238h-244v-951l193 -45l-15 -116h-638l10 107l173 58v947h-237l-70 -264l-131 19z" />
<glyph unicode="U" horiz-adv-x="1472" d="M11 1131l21 113h631l-15 -113l-168 -53v-552q0 -182 86 -269.5t230 -87.5t221 84t77 257l1 563l-179 58l14 113h532l-14 -113l-166 -53l-4 -538q-3 -288 -137 -427.5t-404 -139.5q-196 0 -310 55q-229 109 -229 448v597z" />
<glyph unicode="V" horiz-adv-x="1352" d="M-10 1128l14 116h648l-17 -116l-166 -50l274 -742l269 740l-178 52l11 116h520l-11 -116l-133 -50l-409 -1058l-253 -44l-423 1100z" />
<glyph unicode="W" horiz-adv-x="1913" d="M-6 1128l10 116h635l-25 -120l-160 -46l198 -700l228 819l257 33l227 -836l207 684l-174 48l16 118h514l-18 -116l-127 -46l-350 -1061l-244 -45l-234 860l-232 -815l-254 -45l-316 1098z" />
<glyph unicode="X" horiz-adv-x="1268" d="M0 0l18 116l128 61l346 425l-340 466l-132 48l20 128h580l-19 -123l-124 -55l204 -297l215 301l-142 55l20 119h471l-16 -116l-129 -56l-321 -422l367 -480l118 -40l-19 -130h-573l20 120l126 56l-223 310l-227 -312l154 -49l-22 -125h-500z" />
<glyph unicode="Y" horiz-adv-x="1215" d="M-10 1128l22 116h584l-20 -116l-116 -49l213 -389l207 386l-140 52l16 116h460l-18 -116l-119 -50l-331 -564v-346l166 -58l-12 -110h-604l14 106l154 63v325l-340 582z" />
<glyph unicode="Z" horiz-adv-x="1084" d="M24 170l688 939h-439l-70 -251l-145 24l10 362h980l-4 -116l-724 -975l464 -15l154 266l122 -20l-59 -384h-967z" />
<glyph unicode="[" horiz-adv-x="475" d="M0 -377l2 1632h395l21 -125l-228 -20v-1336l232 -20l-19 -130z" />
<glyph unicode="\" horiz-adv-x="686" d="M18 1304l185 -13l461 -1684l-178 11z" />
<glyph unicode="]" horiz-adv-x="475" d="M0 -246l232 20v1336l-228 20l21 125h395l2 -1632l-403 1z" />
<glyph unicode="^" horiz-adv-x="680" d="M21 826l265 411l100 13l274 -426l-89 -36l-243 230h-11l-214 -224z" />
<glyph unicode="_" horiz-adv-x="840" d="M0 -131l14 143h827l-13 -143h-828z" />
<glyph unicode="`" horiz-adv-x="411" d="M21 1658l217 38l140 -340l-157 -33z" />
<glyph unicode="a" horiz-adv-x="881" d="M24 178q0 130 118.5 221.5t340.5 99.5v75q0 91 -39 152t-101.5 61t-79.5 -44t-27 -171q-134 0 -168 55q-16 25 -16 70.5t65 101t160.5 90.5t180.5 35q260 0 260 -307v-349q0 -41 3.5 -49.5t8 -20.5t11 -16t16.5 -11q16 -11 56 -18l39 -7l-19 -128q-63 -39 -149.5 -39 t-121.5 35q-35 36 -51 111l-12 3q-24 -56 -98.5 -104t-168 -48t-151 52.5t-57.5 149.5zM260 247q0 -37 25.5 -66t80 -29t117.5 59v202q-223 -37 -223 -166z" />
<glyph unicode="b" horiz-adv-x="1016" d="M-8 1124l21 120l327 24l40 -39v-365l-14 -104l12 -2q67 76 132 116t143 40q153 0 245.5 -119t92.5 -311q0 -116 -43.5 -213t-116.5 -161q-153 -133 -365 -133q-77 0 -171 18.5t-155 54.5v997zM380 207q66 -63 155.5 -63t140.5 75.5t51 208.5q0 102 -26.5 164.5t-60 88 t-79.5 25.5q-95 0 -181 -81v-418z" />
<glyph unicode="c" horiz-adv-x="817" d="M25 420q0 117 43 216.5t112 163.5q148 134 326 134q123 0 193.5 -56.5t70.5 -130.5q0 -136 -165 -151q-35 100 -72 147.5t-89 47.5q-78 0 -120 -71t-42 -209q0 -130 66 -243q31 -55 84 -89t122 -34q112 0 220 66l32 -81q-40 -67 -136.5 -113.5t-205.5 -46.5 q-214 0 -326.5 124.5t-112.5 325.5z" />
<glyph unicode="d" horiz-adv-x="1025" d="M27 361q0 159 58 278.5t165 193t239 73.5q36 0 78.5 -10.5t64.5 -25.5h6l-11 100v79l-163 78l20 119l334 26l40 -40v-937q0 -73 25 -97.5t99 -45.5l36 -10l-18 -126q-110 -41 -188 -41q-76 0 -122 39q-43 37 -56 102l-3 10l-11 2q-49 -68 -111.5 -108t-156.5 -40 q-147 0 -236 111t-89 270zM284 482.5q0 -148.5 48.5 -226t131.5 -77.5t160 65v394q-38 55 -85.5 84t-95.5 29t-87 -42q-72 -78 -72 -226.5z" />
<glyph unicode="e" horiz-adv-x="823" d="M26 429q0 109 39.5 204t104.5 157q137 134 308 134q137 0 219 -93t82 -251q0 -75 -19 -154l-480 -10q6 -114 75.5 -190t197 -76t229.5 56l20 -93q-61 -72 -163.5 -107.5t-210.5 -35.5q-174 0 -288 120t-114 339zM276 514l245 24q6 24 6 72q0 162 -111 162 q-58 0 -97.5 -69.5t-42.5 -188.5z" />
<glyph unicode="f" horiz-adv-x="794" d="M18 0l12 116l153 57v569h-149l10 111l138 23q17 195 137 307t275 112q234 0 234 -133q0 -49 -45 -91t-93 -50q-27 43 -45 68.5t-50 51t-75 25.5q-100 0 -104 -198l-2 -98h260l-12 -128h-248v-562l246 -52l-8 -128h-634z" />
<glyph unicode="g" horiz-adv-x="953" d="M12 -163q0 58 48.5 106t110.5 69v12q-95 46 -95 145q0 50 58 102t123 71l-1 12q-52 18 -108 92t-56 160q0 124 104.5 219t252.5 95t245 -63l225 24l25 -29l-42 -152l-25 -2l-107 34l-2 -10q18 -50 18 -95q0 -94 -52 -167q-104 -143 -300 -143q-30 0 -78 9 q-38 -40 -38 -69q0 -61 140 -61h136q151 0 229.5 -50t78.5 -180.5t-150 -241t-366 -110.5q-138 0 -246 46q-58 24 -93 71.5t-35 105.5zM239 -94q0 -149 211.5 -149t211.5 141q0 59 -45.5 82t-157.5 23h-185q-1 -3 -10 -17q-25 -36 -25 -80zM312 626q0 -139 99 -194 q19 -10 29 -10q69 0 97.5 41.5t28.5 145.5q0 58 -23 110q-44 99 -117 99q-114 0 -114 -192z" />
<glyph unicode="h" horiz-adv-x="1097" d="M8 1127l18 120l340 25l42 -40v-358l-18 -120l12 -2q152 162 298 162q116 0 180 -67.5t64 -227.5v-449l147 -49l-17 -122h-443l6 115l67 56l2 334q0 94 -37.5 136t-108.5 42t-144 -70v-440l130 -50l-20 -123h-514l14 118l148 55v878z" />
<glyph unicode="i" d="M18 0l10 128l153 45v502l-149 82l22 125l328 24l40 -40v-693l161 -46l-11 -127h-554zM113 1164q0 59 48 96.5t128.5 37.5t129.5 -38.5t49 -96.5t-47.5 -98.5t-133 -40.5t-130 40.5t-44.5 99.5z" />
<glyph unicode="j" horiz-adv-x="547" d="M-17 -254l48 36q58 45 83.5 78.5t46.5 69t33 72.5q28 86 28 193v473l-148 84l26 131l322 22l42 -39v-716q0 -307 -264 -462q-46 -27 -104 -53l-48 -17zM148 1159.5q0 61.5 49.5 102t131.5 40.5t130.5 -41t48.5 -102t-48 -104t-134.5 -43t-132 43t-45.5 104.5z" />
<glyph unicode="k" horiz-adv-x="1064" d="M5 0l13 128l152 45v869l-162 77l23 124l338 25l43 -42v-1053l134 -46l-18 -127h-523zM434 417l6 33l222 318l-134 49l16 117h480l-21 -112l-148 -53l-201 -274l46 -61q116 -161 179 -227.5t145 -97.5l40 -17l-19 -92q-2 0 -19.5 -3.5t-35.5 -6.5q-48 -8 -101 -8 q-101 0 -178.5 68.5t-187.5 232.5z" />
<glyph unicode="l" horiz-adv-x="574" d="M5 0l13 128l152 45v873l-162 78l23 124l339 24l41 -40v-1059l158 -46l-13 -127h-551z" />
<glyph unicode="m" horiz-adv-x="1640" d="M22 0l13 116l146 56v508l-151 66l18 121l354 35l28 -30l-20 -114l12 -2q138 156 294 156q178 0 222 -166l14 -2q144 164 296 164q241 0 241 -283v-453l143 -50l-18 -122h-430l3 116l63 56v335q0 84 -34 129t-108 45t-150 -73v-436l139 -50l-17 -122h-430l5 116l65 56v335 q0 85 -35.5 129.5t-96.5 44.5q-95 0 -164 -69v-440l134 -50l-20 -122h-516z" />
<glyph unicode="n" horiz-adv-x="1110" d="M18 0l14 115l146 57v508l-148 67l19 122l351 34l27 -29l-20 -115l13 -3q144 158 294 158q116 0 180 -72t64 -214v-456l146 -50l-16 -122h-443l5 115l69 57v331q0 179 -135 179q-94 0 -162 -68v-442l136 -50l-22 -122h-518z" />
<glyph unicode="o" horiz-adv-x="956" d="M26 452q0 104 41 197t108 153q141 125 331 125t302 -120.5t112 -341t-126.5 -356.5t-325.5 -136q-327 0 -416 292q-26 83 -26 187zM282 512q0 -244 92 -340q50 -53 129 -53t119 63.5t40 150t-5.5 141.5t-20 110.5t-37.5 95.5q-52 90 -148 90q-169 0 -169 -258z" />
<glyph unicode="p" horiz-adv-x="1034" d="M6 -371l12 118l154 54v883l-152 63l19 123l353 32l30 -28l-18 -106l10 -3q45 64 114.5 109.5t147.5 45.5t134 -25.5t102 -76.5q96 -108 96 -339.5t-133 -364.5t-339 -133q-89 0 -125 13l-1 58v-252l200 -51l-17 -120h-587zM410 167q68 -32 155.5 -32t138 69.5t50.5 193.5 q0 308 -162 308q-86 0 -182 -78v-461z" />
<glyph unicode="q" horiz-adv-x="1007" d="M27 399q0 130 66 250t176 193.5t211.5 73.5t193.5 -41l143 39l40 -4v-1104l159 -50l-14 -120h-542l14 118l152 52v816q-24 50 -72.5 85t-99.5 35q-84 0 -131 -69.5t-47 -205t51 -218t141 -82.5t150 41l-2 -127q-49 -53 -123.5 -77t-141.5 -24q-145 0 -234.5 105 t-89.5 314z" />
<glyph unicode="r" horiz-adv-x="803" d="M20 1l16 117l150 54v514l-152 63l20 122l326 33l31 -32l-19 -185l19 -5q37 119 101.5 177.5t134.5 58.5t108.5 -39t38.5 -97q0 -96 -91 -172q-69 44 -125 44t-96.5 -48t-57.5 -124v-296l236 -48l-12 -137h-628z" />
<glyph unicode="s" horiz-adv-x="738" d="M25 145q0 71 43 110t119 45q29 -101 78 -153.5t108 -52.5q121 0 121 82q0 60 -114 114q-117 56 -212 126q-49 35 -81.5 90.5t-32.5 112t19.5 105t58.5 95t109.5 76t180 29.5t189 -44t79.5 -116.5t-47 -115t-118 -48.5l-20 64q-37 144 -151 144q-45 0 -71.5 -27t-26.5 -65 t34 -70.5t85 -57.5t110 -58.5t110 -69t85 -91.5t34 -123q0 -127 -107.5 -204t-250.5 -77t-237 54.5t-94 125.5z" />
<glyph unicode="t" horiz-adv-x="705" d="M29 723v101q142 97 255 258h108v-220h278l-10 -142h-271l-2 -384q0 -87 33.5 -124t103 -37t139.5 42l25 -93q-45 -63 -121.5 -105t-192.5 -42t-176 67q-59 66 -59 229v5l3 445h-113z" />
<glyph unicode="u" horiz-adv-x="1072" d="M10 750l24 132l316 21l40 -39v-471q0 -102 29.5 -145t100.5 -43t138 63v395l-138 59l22 150l326 35l37 -39v-574q0 -72 26 -100t97 -48l36 -10l-16 -126q-106 -39 -192.5 -39t-132.5 38t-46 109v12l-13 2q-48 -77 -121.5 -118t-156.5 -41q-128 0 -186.5 68.5t-58.5 225.5 v403z" />
<glyph unicode="v" horiz-adv-x="968" d="M-3 782l16 116h499l-14 -116l-119 -48l151 -471l162 468l-122 51l20 116h383l-19 -116l-96 -48l-267 -742l-203 -22l-274 761z" />
<glyph unicode="w" horiz-adv-x="1272" d="M-1 782l17 118h450l-16 -116l-105 -58l89 -376l16 -2l116 488l184 18l126 -512l18 13l80 369l-106 58l16 118h392l-18 -116l-108 -58l-194 -736l-185 -24l-139 534l-126 -510l-183 -24l-209 758z" />
<glyph unicode="x" horiz-adv-x="974" d="M10 0l12 115l122 47l210 279l-230 307l-100 40l20 118h364l33 -94l-47 -36l130 -184l120 161l-100 50l22 103h392l-18 -115l-114 -41l-211 -264l233 -318l115 -42l-16 -126h-378l-35 96l54 35l-140 201l-118 -176l121 -52l-17 -104h-424z" />
<glyph unicode="y" horiz-adv-x="1025" d="M4 -240q0 94 70 159q78 -69 187 -69t157 105l16 36l-298 740l-126 49l18 118h487l-15 -116l-108 -47l173 -463l185 456l-124 54l21 116h381l-12 -116l-99 -51l-327 -765q-83 -194 -170 -270.5t-224 -76.5q-76 0 -134 42.5t-58 98.5z" />
<glyph unicode="z" horiz-adv-x="817" d="M34 134l441 630h-242l-79 -180l-119 22l17 292h722l-3 -117l-462 -641h271l109 180l105 -22l-41 -298h-713z" />
<glyph unicode="{" horiz-adv-x="615" d="M11 368v148l53 11q109 21 127 168q8 65 9.5 141t7.5 149.5t24.5 134t69.5 98t134 37.5h170l-6 -151l-108 -5q-67 -3 -64 -216q2 -89 -1.5 -180.5t-39 -163t-109.5 -87.5v-10q106 -47 132 -182q20 -100 19 -207.5t3 -158.5q9 -110 72 -114l98 -5l11 -153h-175 q-84 0 -136 37.5t-71 99t-25.5 136t-7.5 151t-8 142.5q-16 148 -122 169z" />
<glyph unicode="|" horiz-adv-x="263" d="M54 -364v1624l156 -12v-1628z" />
<glyph unicode="}" horiz-adv-x="615" d="M11 -378l11 153l98 5q63 4 72 114q4 51 3.5 112.5t3 127.5t15.5 126q26 135 132 182v10q-74 16 -109.5 87.5t-39 163t-1.5 180.5q3 213 -64 216l-108 5l-6 151h170q83 0 134 -37.5t69.5 -98t24.5 -134t7.5 -149.5t9.5 -141q18 -147 127 -168l53 -11v-148l-57 -11 q-106 -21 -122 -169q-7 -66 -8 -142.5t-7.5 -151t-25.5 -136t-71 -99t-136 -37.5h-175z" />
<glyph unicode="~" horiz-adv-x="885" d="M43 347q-2 91 25.5 154.5t56.5 96.5q66 74 182 56l396 -64q36 -6 59.5 13t29.5 41l5 21l119 -10q-2 -153 -74.5 -239t-211.5 -61l-383 69q-35 6 -56.5 -16t-26.5 -47l-4 -25z" />
<glyph unicode="&#xa1;" horiz-adv-x="419" d="M41 741.5q0 58.5 43.5 98t128.5 39.5t125 -40.5t40 -98t-43 -97.5t-125 -40t-125.5 40t-43.5 98.5zM78 -386q0 248 68 874l126 -24q5 -47 20 -171l23 -203q41 -360 41 -462q0 -38 -46 -58.5t-111 -20.5t-93 14t-28 51z" />
<glyph unicode="&#xa2;" horiz-adv-x="837" d="M20 438q0 186 103.5 327t252.5 190l-30 238l187 17l-22 -234q127 -3 193 -67t66 -140q0 -144 -159 -159q-40 112 -81 165t-106 53t-105.5 -86t-40.5 -197.5t28 -191t91 -136.5t141 -57t128.5 18t107.5 53l32 -96q-35 -58 -115.5 -103.5t-175.5 -57.5l30 -224l-189 -16 l24 241q-176 25 -268 151t-92 312z" />
<glyph unicode="&#xa3;" horiz-adv-x="1160" d="M22 0l8 106l166 63q25 72 33.5 126t10.5 165l2 65l-184 -13l14 143l172 9l3 102q4 121 48 216t117 152q149 118 358 118q148 0 259 -44l-36 -371l-123 17l-60 214q-51 24 -118 24q-99 0 -134.5 -81t-37.5 -307v-34l250 15l-10 -141l-244 -13l-2 -32q-1 -12 -2.5 -50 t-2.5 -53.5t-3.5 -48.5t-6.5 -52t-10 -45q-10 -45 -35 -85l389 -27l165 257l131 -26l-46 -369h-1071z" />
<glyph unicode="&#xa4;" horiz-adv-x="806" d="M34 723l126 118l108 -116q61 51 142 51t135 -41l109 109l120 -124l-116 -104q30 -55 30 -130.5t-36 -128.5l126 -119l-130 -116l-113 123q-66 -41 -132 -41t-122 34l-111 -127l-126 122l120 114q-40 58 -40 131.5t34 129.5zM273 491q0 -67 37.5 -110t94.5 -43t95 41 t38 109t-37.5 110t-95 42t-95 -41t-37.5 -108z" />
<glyph unicode="&#xa5;" horiz-adv-x="1111" d="M21 1128l23 116h500l-19 -116l-99 -49l182 -418l192 417l-130 50l18 116h402l-16 -116l-119 -48l-235 -476h250l-10 -119h-278v-97h284l-12 -114h-272v-116l146 -48l-10 -110h-540l14 101l124 65v108h-278l12 114h266v97h-275l15 119h228l-232 472z" />
<glyph unicode="&#xa6;" horiz-adv-x="277" d="M54 -358v777l170 -20v-779zM54 534v733l168 -19v-731z" />
<glyph unicode="&#xa7;" horiz-adv-x="930" d="M31 -234l17 290l145 -25l42 -195q23 -31 80.5 -56.5t127.5 -25.5t126.5 42t56.5 128q0 50 -37.5 92t-95.5 70l-128 63q-70 34 -134 69t-114 90q-104 115 -65 302l373 -186l147 -69q172 -81 224 -138q51 -55 62 -86q24 -67 24 -136.5t-30.5 -136t-80 -111t-113.5 -75.5 q-121 -60 -243 -60t-228 46t-156 108zM50 920.5q0 84.5 33.5 154.5t93.5 111q120 82 310.5 82t304.5 -90l-18 -285l-135 17l-37 169q-22 26 -68 49t-102 23t-97 -38.5t-41 -101.5t30.5 -102t79.5 -65t110 -54l122 -54q323 -138 236 -426l-534 262l-66 34q-53 29 -98.5 66 t-61.5 59.5t-32 50.5q-30 54 -30 138.5z" />
<glyph unicode="&#xa8;" horiz-adv-x="594" d="M24 1451q0 39 27.5 66.5t81.5 27.5t82.5 -27t28.5 -67t-28.5 -67.5t-83.5 -27.5t-81.5 28t-26.5 67zM333 1451q0 39 27.5 66.5t81.5 27.5t82.5 -27t28.5 -67t-28.5 -67.5t-83.5 -27.5t-81.5 28t-26.5 67z" />
<glyph unicode="&#xa9;" horiz-adv-x="1383" d="M26 668.5q0 198.5 91.5 358t244.5 245.5t346.5 86t346 -87.5t233 -242t80.5 -354.5q0 -132 -52.5 -255.5t-141.5 -216t-215.5 -148.5t-266.5 -56q-200 0 -352 84.5t-233 236t-81 350zM191 682q0 -255 141.5 -403t365.5 -148q142 0 258 64t186 186.5t70 282.5 q0 295 -185 455q-128 111 -333 111q-149 0 -264.5 -72.5t-177 -196.5t-61.5 -279zM333 660q0 98 36.5 182t94.5 138q124 114 275 114q103 0 162.5 -48t59.5 -110q0 -114 -139 -127q-29 84 -60.5 124t-75.5 40q-136 0 -136 -236q0 -112 55 -206q60 -103 192 -103q76 0 168 56 l27 -68q-34 -56 -115.5 -95.5t-173.5 -39.5q-181 0 -275.5 104.5t-94.5 274.5z" />
<glyph unicode="&#xaa;" horiz-adv-x="881" d="M113 658q0 64 22 110t65 84q93 82 283 82v55q0 162 -101 162q-39 0 -52.5 -35.5t-22.5 -142.5q-73 -3 -119.5 24t-46.5 79.5t52.5 96t130 70t147.5 26.5q224 0 224 -245v-237q0 -63 16.5 -88t69.5 -35l33 -6l-16 -99q-63 -46 -142 -46q-127 0 -149 101l-2 11l-9 2 q-20 -45 -76.5 -80.5t-134 -35.5t-125 41.5t-47.5 105.5zM326 741q0 -82 70 -82q36 0 52 15l35 30v150q-157 -23 -157 -113z" />
<glyph unicode="&#xab;" horiz-adv-x="376" d="M12 448l1 21l268 350l59 -83l-140 -276l148 -294l-74 -90zM332 448l1 21l268 350l59 -83l-140 -276l148 -294l-74 -90z" />
<glyph unicode="&#xac;" horiz-adv-x="857" d="M37 509l12 153h773l2 -356l-163 -20v223h-624z" />
<glyph unicode="&#xad;" horiz-adv-x="546" d="M42 377l6 169l458 58l-7 -169z" />
<glyph unicode="&#xae;" horiz-adv-x="1289" d="M148 1025q0 122 43 221t117 160q149 126 359 126q218 0 371 -120q75 -60 119.5 -159.5t44.5 -223t-45 -219.5t-122 -156q-159 -124 -378 -124q-205 0 -353 122q-71 60 -113.5 155.5t-42.5 217.5zM261 1037.5q0 -192.5 112 -302t296.5 -109.5t302 108t117.5 291.5 t-120 297t-306 113.5t-294 -103t-108 -295.5zM371 775l7 55l78 32v373l-79 19l6 63q143 22 268.5 22t191 -35t65.5 -117q0 -53 -38.5 -94.5t-87.5 -58.5l-1 -1l59 -77q52 -70 153 -124l-13 -57q-38 -12 -89 -12q-135 0 -202 155l-31 72h-45v-124l64 -30l-5 -61h-301z M613 1071h69q57 28 57 83q0 110 -103 110l-23 -1v-192z" />
<glyph unicode="&#xaf;" horiz-adv-x="555" d="M46 1379l17 147h447l-17 -147h-447z" />
<glyph unicode="&#xb0;" horiz-adv-x="424" d="M27 1103q0 82 59 141.5t142 59.5t130.5 -47t47.5 -130t-61.5 -141t-142 -58t-128 46.5t-47.5 128.5zM138 1124.5q0 -44.5 20.5 -80t60.5 -35.5q70 0 70 96q0 48 -21.5 83t-57 35t-54 -27t-18.5 -71.5z" />
<glyph unicode="&#xb1;" horiz-adv-x="679" d="M25 552l10 134h214v238l149 -12v-226h223l-13 -134h-210l1 -234l-150 8v226h-224zM80 138l14 138l494 21l-14 -143z" />
<glyph unicode="&#xb2;" horiz-adv-x="681" d="M52 672l136 103q90 68 139 133.5t49 115.5q0 105 -90 105q-46 0 -76 -34l-30 -151l-89 8l-29 198q43 53 128.5 84.5t197.5 31.5t182 -54.5t70 -121.5t-26 -117.5t-74 -94.5q-78 -72 -201 -140l-73 -38l235 -10l83 136l84 -13l-26 -283h-586z" />
<glyph unicode="&#xb3;" horiz-adv-x="666" d="M18 545l38 238l116 -8l10 -128q26 -22 70 -22t75 28.5t31 79.5t-45.5 85t-116.5 27l-26 92q67 14 116 47.5t49 80.5t-26 76t-66.5 29t-55.5 -11l-28 -153l-111 5l-25 185q26 37 111.5 68.5t192.5 31.5t189 -39t82 -115.5t-63.5 -128t-150.5 -73.5v-8q132 -2 191 -46 t61 -141t-117 -172.5t-278 -75.5t-223 48z" />
<glyph unicode="&#xb4;" horiz-adv-x="480" d="M88 1390l114 314l222 -28l-182 -313z" />
<glyph unicode="&#xb6;" horiz-adv-x="1447" d="M22 812q0 190 132 311.5t340 121.5h438v-1246h-475l9 106l250 63v942q-82 11 -140 11q-278 0 -278 -260q0 -120 75.5 -204t222.5 -83l-18 -146q-342 -19 -483 157q-73 91 -73 227zM1028 -1v1246h380l-14 -117l-174 -52v-912l186 -50l-10 -115h-368z" />
<glyph unicode="&#xb7;" horiz-adv-x="405" d="M36 457q0 56 42 95.5t124 39.5t125 -39t43 -96.5t-43 -96t-127 -38.5t-124 39.5t-40 95.5z" />
<glyph unicode="&#xb8;" horiz-adv-x="390" d="M67 -141l183 144h114l-86 -83q83 -47 102 -88q10 -22 10 -48q0 -75 -78 -114.5t-214 -57.5l-28 84q48 7 85 24t37 38q0 37 -125 101z" />
<glyph unicode="&#xb9;" horiz-adv-x="564" d="M12 530l9 102l141 30v436h-134l8 122l340 40h44v-604l144 -16l-6 -110h-546z" />
<glyph unicode="&#xba;" horiz-adv-x="956" d="M108 893q0 83 34.5 157.5t90.5 122.5q118 101 275 101t251.5 -97.5t94.5 -273t-106.5 -284.5t-270.5 -109q-189 0 -283 114q-86 105 -86 269zM337 955.5q0 -85.5 7.5 -139t25.5 -98.5q37 -91 134 -91q66 0 92.5 49t26.5 121.5t-3 114t-13 87.5t-27 77q-38 72 -113.5 72 t-102.5 -53.5t-27 -139z" />
<glyph unicode="&#xbb;" horiz-adv-x="706" d="M589 166l148 294l-140 276l59 83l268 -350l1 -21l-262 -372zM909 166l148 294l-140 276l59 83l268 -350l1 -21l-262 -372z" />
<glyph unicode="&#xbc;" horiz-adv-x="1665" d="M-98 530l10 102l140 30v436h-133l7 122l340 40h44v-604l145 -16l-7 -110h-546zM120 12l482 576l466 620l240 -2l-2 -52l-470 -563l-432 -617zM790 282l454 440l84 -18q-10 -128 -10 -276v-135h148l-9 -133h-139v-87l110 -23l-6 -80h-450l4 74l118 30v89h-290zM945 274 h157v200z" />
<glyph unicode="&#xbd;" horiz-adv-x="1665" d="M-98 530l10 102l140 30v436h-133l7 122l340 40h44v-604l145 -16l-7 -110h-546zM110 12l482 576l466 620l240 -2l-2 -52l-470 -563l-432 -617zM906 114l136 102q90 68 139 134t49 116q0 105 -90 105q-45 0 -76 -35l-30 -150l-89 7l-29 199q43 53 128.5 84.5t197.5 31.5 t182 -54.5t70 -121.5t-26 -117.5t-74 -94.5q-78 -72 -201 -140l-73 -39l235 -10l83 137l84 -14l-26 -283h-586z" />
<glyph unicode="&#xbe;" horiz-adv-x="1665" d="M-82 532l38 238l116 -8l10 -128q26 -22 70 -22t75 28.5t31 79t-45.5 85t-116.5 27.5l-26 92q67 14 116 47t49 80t-26 76.5t-66.5 29.5t-55.5 -11l-28 -154l-111 6l-25 185q26 36 111.5 67.5t192.5 31.5t189 -39t82 -115.5t-63.5 -127.5t-150.5 -73v-9q132 -2 191 -46 t61 -129q2 -108 -117 -183.5t-278 -75.5t-223 48zM126 12l482 576l468 620l238 -2v-52l-472 -563l-432 -617zM790 282l454 440l84 -18q-10 -128 -10 -276v-135h148l-9 -133h-139v-87l110 -23l-6 -80h-450l4 74l118 30v89h-290zM945 274h157v200z" />
<glyph unicode="&#xbf;" horiz-adv-x="629" d="M24 425q0 103 58 159q41 41 94 67t78 41q58 35 58 82t-13 90l118 24q36 -53 60.5 -122t24.5 -120.5t-32.5 -88t-79.5 -56.5l-92 -39q-112 -46 -112 -130q0 -50 42 -85t93.5 -35t110 20t84.5 48q39 -11 73.5 -60.5t34.5 -106.5t-50 -100.5t-152 -43.5t-192 64t-148 171 t-58 221zM189 1151.5q0 58.5 43 98t128 39.5t125.5 -40.5t40.5 -98t-43 -97.5t-125 -40t-125.5 40t-43.5 98.5z" />
<glyph unicode="&#xc0;" horiz-adv-x="1343" d="M-18 0l14 106l154 79l414 1036l248 48l390 -1088l143 -69l-11 -113h-620l14 106l169 79l-74 208h-405l-74 -210l187 -68l-13 -114h-536zM447 1728l217 38l140 -340l-157 -33zM472 548h301l-146 436z" />
<glyph unicode="&#xc1;" horiz-adv-x="1343" d="M-18 0l14 106l154 79l414 1036l248 48l390 -1088l143 -69l-11 -113h-620l14 106l169 79l-74 208h-405l-74 -210l187 -68l-13 -114h-536zM472 548h301l-146 436zM620 1420l114 314l222 -28l-182 -313z" />
<glyph unicode="&#xc2;" horiz-adv-x="1343" d="M-18 0l14 106l154 79l414 1036l248 48l390 -1088l143 -69l-11 -113h-620l14 106l169 79l-74 208h-405l-74 -210l187 -68l-13 -114h-536zM472 548h301l-146 436zM486 1363l164 216l187 21l180 -220l-169 -35l-104 85h-10l-87 -91z" />
<glyph unicode="&#xc3;" horiz-adv-x="1343" d="M-18 0l14 106l154 79l414 1036l248 48l390 -1088l143 -69l-11 -113h-620l14 106l169 79l-74 208h-405l-74 -210l187 -68l-13 -114h-536zM414 1396q-7 44 16.5 93t46.5 75q53 60 140 40l206 -49q31 -8 55 33l8 13l82 -6q0 -70 -56 -145q-27 -36 -72 -53t-98 -4l-187 46 q-19 4 -33.5 -10t-25.5 -46zM472 548h301l-146 436z" />
<glyph unicode="&#xc4;" horiz-adv-x="1343" d="M-18 0l14 106l154 79l414 1036l248 48l390 -1088l143 -69l-11 -113h-620l14 106l169 79l-74 208h-405l-74 -210l187 -68l-13 -114h-536zM428 1487q0 39 27.5 66.5t81.5 27.5t82.5 -27t28.5 -67t-28.5 -67.5t-83.5 -27.5t-81.5 28t-26.5 67zM472 548h301l-146 436z M737 1487q0 39 27.5 66.5t81.5 27.5t82.5 -27t28.5 -67t-28.5 -67.5t-83.5 -27.5t-81.5 28t-26.5 67z" />
<glyph unicode="&#xc5;" horiz-adv-x="1343" d="M-18 0l14 106l154 79l414 1036l248 48l390 -1088l143 -69l-11 -113h-620l14 106l169 79l-74 208h-405l-74 -210l187 -68l-13 -114h-536zM472 548h301l-146 436zM476 1495q0 72 58 118t163 46q215 0 215 -155q0 -71 -58 -116.5t-170 -45.5q-208 0 -208 153zM642 1502 q0 -19 4.5 -30.5t13.5 -15.5q15 -6 32 -6q48 3 50 52q0 49 -56 49q-21 0 -32.5 -15t-11.5 -34z" />
<glyph unicode="&#xc6;" horiz-adv-x="1758" d="M-20 0l14 119l136 65l596 889l-196 58l15 113h1157l-32 -368l-128 20l-62 216h-344l9 -418l195 8l36 63l136 15l-33 -314h-125l-30 90l-176 5l8 -414l366 -9l123 240l123 -16l-30 -362h-1022l11 106l165 63l-6 289h-381l-175 -274l184 -68l-14 -116h-520zM583 592h297 l-6 441z" />
<glyph unicode="&#xc7;" horiz-adv-x="1197" d="M30 586q0 199 100 368q118 197 340 273q125 43 255 43t241 -26.5t172 -73.5l-30 -378l-130 18l-52 226q-35 44 -99.5 70t-138.5 26q-163 0 -258.5 -117.5t-95.5 -349t122.5 -369.5t314.5 -138t359 123l48 -105q-52 -61 -152 -115.5t-222 -75.5l-84 -81q83 -47 102 -88 q10 -22 10 -48q0 -75 -78 -114.5t-214 -57.5l-28 84q48 7 85 24t37 38q0 37 -125 101l166 131q-294 1 -469.5 163t-175.5 449z" />
<glyph unicode="&#xc8;" horiz-adv-x="1189" d="M25 1134l15 110h1084l-31 -369l-129 19l-62 218h-407v-428h235l44 129l144 27l-34 -424l-139 -23l-33 169h-217v-411h429l122 226l124 -15l-30 -362h-1104l10 106l165 63v909zM342 1728l217 38l140 -340l-157 -33z" />
<glyph unicode="&#xc9;" horiz-adv-x="1189" d="M25 1134l15 110h1084l-31 -369l-129 19l-62 218h-407v-428h235l44 129l144 27l-34 -424l-139 -23l-33 169h-217v-411h429l122 226l124 -15l-30 -362h-1104l10 106l165 63v909zM490 1420l114 314l222 -28l-182 -313z" />
<glyph unicode="&#xca;" horiz-adv-x="1189" d="M25 1134l15 110h1084l-31 -369l-129 19l-62 218h-407v-428h235l44 129l144 27l-34 -424l-139 -23l-33 169h-217v-411h429l122 226l124 -15l-30 -362h-1104l10 106l165 63v909zM355 1363l164 216l187 21l180 -220l-169 -35l-104 85h-10l-87 -91z" />
<glyph unicode="&#xcb;" horiz-adv-x="1189" d="M25 1134l15 110h1084l-31 -369l-129 19l-62 218h-407v-428h235l44 129l144 27l-34 -424l-139 -23l-33 169h-217v-411h429l122 226l124 -15l-30 -362h-1104l10 106l165 63v909zM317 1487q0 39 27.5 66.5t81.5 27.5t82.5 -27t28.5 -67t-28.5 -67.5t-83.5 -27.5t-81.5 28 t-26.5 67zM626 1487q0 39 27.5 66.5t81.5 27.5t82.5 -27t28.5 -67t-28.5 -67.5t-83.5 -27.5t-81.5 28t-26.5 67z" />
<glyph unicode="&#xcc;" horiz-adv-x="706" d="M25 1131l15 113h636l-13 -118l-174 -52v-906l181 -48l-12 -120h-628l8 108l172 63v902zM118 1728l217 38l140 -340l-157 -33z" />
<glyph unicode="&#xcd;" horiz-adv-x="706" d="M25 1131l15 113h636l-13 -118l-174 -52v-906l181 -48l-12 -120h-628l8 108l172 63v902zM266 1420l114 314l222 -28l-182 -313z" />
<glyph unicode="&#xce;" horiz-adv-x="706" d="M25 1131l15 113h636l-13 -118l-174 -52v-906l181 -48l-12 -120h-628l8 108l172 63v902zM132 1363l164 216l187 21l180 -220l-169 -35l-104 85h-10l-87 -91z" />
<glyph unicode="&#xcf;" horiz-adv-x="706" d="M25 1131l15 113h636l-13 -118l-174 -52v-906l181 -48l-12 -120h-628l8 108l172 63v902zM94 1487q0 39 27.5 66.5t81.5 27.5t82.5 -27t28.5 -67t-28.5 -67.5t-83.5 -27.5t-81.5 28t-26.5 67zM403 1487q0 39 27.5 66.5t81.5 27.5t82.5 -27t28.5 -67t-28.5 -67.5 t-83.5 -27.5t-81.5 28t-26.5 67z" />
<glyph unicode="&#xd0;" horiz-adv-x="1412" d="M24 0l18 106l176 79v349l-180 -15l13 137l167 14v384l-172 38l8 116q322 51 526.5 51t342.5 -34t223.5 -89.5t140.5 -135.5q97 -141 97 -345q0 -209 -136 -375q-145 -177 -384 -244q-128 -36 -275 -36h-565zM498 153h144q275 0 378 203q54 105 54 212t-18.5 179.5 t-59 138t-98.5 114.5q-127 107 -330 107l-70 -6v-409l228 23l-15 -140l-213 -17v-405z" />
<glyph unicode="&#xd1;" horiz-adv-x="1396" d="M27 1128l13 116h395l587 -842v671l-186 58l18 113h526l-20 -113l-167 -53v-1070l-218 -38l-588 820v-628l181 -48l-12 -114h-528l10 106l168 63v891zM431 1396q-7 44 16.5 93t46.5 75q53 60 140 40l206 -49q16 -4 32 7.5t31 38.5l82 -6q0 -70 -57 -145q-26 -36 -71 -53 t-98 -4l-187 46q-19 4 -33.5 -10t-25.5 -46z" />
<glyph unicode="&#xd2;" horiz-adv-x="1402" d="M50 623.5q0 289.5 180 468t486 178.5t471.5 -172t165.5 -471t-188.5 -476.5t-504.5 -177.5q-301 0 -458 184q-152 177 -152 466.5zM366 697q0 -81 7.5 -140.5t23 -123t43 -118.5t64.5 -99q80 -95 207 -95q319 0 319 452q0 111 -22.5 208.5t-50.5 153.5t-65 101 q-79 99 -210 99q-178 0 -250 -133q-66 -122 -66 -305zM489 1728l217 38l140 -340l-157 -33z" />
<glyph unicode="&#xd3;" horiz-adv-x="1402" d="M50 623.5q0 289.5 180 468t486 178.5t471.5 -172t165.5 -471t-188.5 -476.5t-504.5 -177.5q-301 0 -458 184q-152 177 -152 466.5zM366 697q0 -81 7.5 -140.5t23 -123t43 -118.5t64.5 -99q80 -95 207 -95q319 0 319 452q0 111 -22.5 208.5t-50.5 153.5t-65 101 q-79 99 -210 99q-178 0 -250 -133q-66 -122 -66 -305zM638 1420l114 314l222 -28l-182 -313z" />
<glyph unicode="&#xd4;" horiz-adv-x="1402" d="M50 623.5q0 289.5 180 468t486 178.5t471.5 -172t165.5 -471t-188.5 -476.5t-504.5 -177.5q-301 0 -458 184q-152 177 -152 466.5zM366 697q0 -81 7.5 -140.5t23 -123t43 -118.5t64.5 -99q80 -95 207 -95q319 0 319 452q0 111 -22.5 208.5t-50.5 153.5t-65 101 q-79 99 -210 99q-178 0 -250 -133q-66 -122 -66 -305zM443 1363l164 216l187 21l180 -220l-169 -35l-104 85h-10l-87 -91z" />
<glyph unicode="&#xd5;" horiz-adv-x="1402" d="M50 623.5q0 289.5 180 468t486 178.5t471.5 -172t165.5 -471t-188.5 -476.5t-504.5 -177.5q-301 0 -458 184q-152 177 -152 466.5zM366 697q0 -81 7.5 -140.5t23 -123t43 -118.5t64.5 -99q80 -95 207 -95q319 0 319 452q0 111 -22.5 208.5t-50.5 153.5t-65 101 q-79 99 -210 99q-178 0 -250 -133q-66 -122 -66 -305zM451 1396q-7 44 16.5 93t46.5 75q53 60 140 40l206 -49q16 -4 32 7.5t31 38.5l82 -6q0 -70 -57 -145q-26 -36 -71 -53t-98 -4l-187 46q-19 4 -33.5 -10t-25.5 -46z" />
<glyph unicode="&#xd6;" horiz-adv-x="1402" d="M50 623.5q0 289.5 180 468t486 178.5t471.5 -172t165.5 -471t-188.5 -476.5t-504.5 -177.5q-301 0 -458 184q-152 177 -152 466.5zM366 697q0 -81 7.5 -140.5t23 -123t43 -118.5t64.5 -99q80 -95 207 -95q319 0 319 452q0 111 -22.5 208.5t-50.5 153.5t-65 101 q-79 99 -210 99q-178 0 -250 -133q-66 -122 -66 -305zM465 1487q0 39 27.5 66.5t81.5 27.5t82.5 -27t28.5 -67t-28.5 -67.5t-83.5 -27.5t-81.5 28t-26.5 67zM774 1487q0 39 27.5 66.5t81.5 27.5t82.5 -27t28.5 -67t-28.5 -67.5t-83.5 -27.5t-81.5 28t-26.5 67z" />
<glyph unicode="&#xd7;" horiz-adv-x="576" d="M34 618l116 90l148 -154l167 166l89 -118l-160 -145l158 -159l-114 -94l-148 162l-160 -163l-92 116l155 143z" />
<glyph unicode="&#xd8;" horiz-adv-x="1402" d="M36 605q0 306 189 485.5t511 179.5q156 0 280 -50l58 73l197 -21l-109 -137q217 -177 217 -519q0 -286 -197.5 -464.5t-515.5 -178.5q-157 0 -284 55l-62 -88l-196 26l111 155q-199 178 -199 484zM372 671q0 -209 77 -363l466 708q-89 119 -227 119q-178 0 -250 -133 q-66 -122 -66 -331zM499 229q86 -108 218 -108q319 0 319 452q0 209 -74 365z" />
<glyph unicode="&#xd9;" horiz-adv-x="1472" d="M11 1131l21 113h631l-15 -113l-168 -53v-552q0 -182 86 -269.5t230 -87.5t221 84t77 257l1 563l-179 58l14 113h532l-14 -113l-166 -53l-4 -538q-3 -288 -137 -427.5t-404 -139.5q-196 0 -310 55q-229 109 -229 448v597zM507 1728l217 38l140 -340l-157 -33z" />
<glyph unicode="&#xda;" horiz-adv-x="1472" d="M11 1131l21 113h631l-15 -113l-168 -53v-552q0 -182 86 -269.5t230 -87.5t221 84t77 257l1 563l-179 58l14 113h532l-14 -113l-166 -53l-4 -538q-3 -288 -137 -427.5t-404 -139.5q-196 0 -310 55q-229 109 -229 448v597zM655 1420l114 314l222 -28l-182 -313z" />
<glyph unicode="&#xdb;" horiz-adv-x="1472" d="M11 1131l21 113h631l-15 -113l-168 -53v-552q0 -182 86 -269.5t230 -87.5t221 84t77 257l1 563l-179 58l14 113h532l-14 -113l-166 -53l-4 -538q-3 -288 -137 -427.5t-404 -139.5q-196 0 -310 55q-229 109 -229 448v597zM520 1363l164 216l187 21l180 -220l-169 -35 l-104 85h-10l-87 -91z" />
<glyph unicode="&#xdc;" horiz-adv-x="1472" d="M11 1131l21 113h631l-15 -113l-168 -53v-552q0 -182 86 -269.5t230 -87.5t221 84t77 257l1 563l-179 58l14 113h532l-14 -113l-166 -53l-4 -538q-3 -288 -137 -427.5t-404 -139.5q-196 0 -310 55q-229 109 -229 448v597zM482 1487q0 39 27.5 66.5t81.5 27.5t82.5 -27 t28.5 -67t-28.5 -67.5t-83.5 -27.5t-81.5 28t-26.5 67zM791 1487q0 39 27.5 66.5t81.5 27.5t82.5 -27t28.5 -67t-28.5 -67.5t-83.5 -27.5t-81.5 28t-26.5 67z" />
<glyph unicode="&#xdd;" horiz-adv-x="1215" d="M-10 1128l22 116h584l-20 -116l-116 -49l213 -389l207 386l-140 52l16 116h460l-18 -116l-119 -50l-331 -564v-346l166 -58l-12 -110h-604l14 106l154 63v325l-340 582zM502 1420l114 314l222 -28l-182 -313z" />
<glyph unicode="&#xde;" horiz-adv-x="1139" d="M25 1131l15 113h636l-14 -118l-174 -52v-73q70 7 141.5 7t143.5 -8.5t138.5 -32t110.5 -63.5q95 -86 95 -257.5t-133 -283.5t-338 -112q-56 0 -98 5l-25 130q152 -5 228.5 49t76.5 171.5t-63 184.5t-190 67q-45 0 -87 -7v-679l208 -50l-13 -122h-655l10 108l172 62v903z " />
<glyph unicode="&#xdf;" horiz-adv-x="1205" d="M17 0l12 116l153 57v569h-147l9 107l138 23q12 181 149 302.5t316 121.5t269.5 -62t90.5 -180q0 -104 -96 -172q-40 -29 -80 -54q-96 -60 -96 -114t91 -104q41 -22 90 -45t98 -52t90 -64q91 -79 91 -203.5t-107 -202t-250 -77.5t-237.5 54t-94.5 128q0 143 162 154 q25 -96 76.5 -151.5t111.5 -55.5t89.5 17t29.5 53.5t-24 61t-63 46.5l-86 46q-191 99 -242 203q-24 50 -24 110t23 111.5t56 86t66 63.5q79 69 79 128.5t-43 102t-124 42.5q-67 0 -119 -48q-60 -56 -60 -186v-932h-397z" />
<glyph unicode="&#xe0;" horiz-adv-x="881" d="M24 178q0 130 118.5 221.5t340.5 99.5v75q0 91 -39 152t-101.5 61t-79.5 -44t-27 -171q-134 0 -168 55q-16 25 -16 70.5t65 101t160.5 90.5t180.5 35q260 0 260 -307v-349q0 -41 3.5 -49.5t8 -20.5t11 -16t16.5 -11q16 -11 56 -18l39 -7l-19 -128q-63 -39 -149.5 -39 t-121.5 35q-35 36 -51 111l-12 3q-24 -56 -98.5 -104t-168 -48t-151 52.5t-57.5 149.5zM228 1384l217 38l140 -340l-157 -33zM260 247q0 -37 25.5 -66t80 -29t117.5 59v202q-223 -37 -223 -166z" />
<glyph unicode="&#xe1;" horiz-adv-x="881" d="M24 178q0 130 118.5 221.5t340.5 99.5v75q0 91 -39 152t-101.5 61t-79.5 -44t-27 -171q-134 0 -168 55q-16 25 -16 70.5t65 101t160.5 90.5t180.5 35q260 0 260 -307v-349q0 -41 3.5 -49.5t8 -20.5t11 -16t16.5 -11q16 -11 56 -18l39 -7l-19 -128q-63 -39 -149.5 -39 t-121.5 35q-35 36 -51 111l-12 3q-24 -56 -98.5 -104t-168 -48t-151 52.5t-57.5 149.5zM260 247q0 -37 25.5 -66t80 -29t117.5 59v202q-223 -37 -223 -166zM346 1076l114 314l222 -28l-182 -313z" />
<glyph unicode="&#xe2;" horiz-adv-x="881" d="M24 178q0 130 118.5 221.5t340.5 99.5v75q0 91 -39 152t-101.5 61t-79.5 -44t-27 -171q-134 0 -168 55q-16 25 -16 70.5t65 101t160.5 90.5t180.5 35q260 0 260 -307v-349q0 -41 3.5 -49.5t8 -20.5t11 -16t16.5 -11q16 -11 56 -18l39 -7l-19 -128q-63 -39 -149.5 -39 t-121.5 35q-35 36 -51 111l-12 3q-24 -56 -98.5 -104t-168 -48t-151 52.5t-57.5 149.5zM152 1020l164 216l187 21l180 -220l-169 -35l-104 85h-10l-87 -91zM260 247q0 -37 25.5 -66t80 -29t117.5 59v202q-223 -37 -223 -166z" />
<glyph unicode="&#xe3;" horiz-adv-x="881" d="M24 178q0 130 118.5 221.5t340.5 99.5v75q0 91 -39 152t-101.5 61t-79.5 -44t-27 -171q-134 0 -168 55q-16 25 -16 70.5t65 101t160.5 90.5t180.5 35q260 0 260 -307v-349q0 -41 3.5 -49.5t8 -20.5t11 -16t16.5 -11q16 -11 56 -18l39 -7l-19 -128q-63 -39 -149.5 -39 t-121.5 35q-35 36 -51 111l-12 3q-24 -56 -98.5 -104t-168 -48t-151 52.5t-57.5 149.5zM150 1053q-7 44 16.5 93t46.5 75q53 60 140 40l206 -49q31 -8 55 32l8 14l82 -6q0 -70 -56 -146q-27 -35 -72 -52t-98 -4l-187 46q-19 4 -33.5 -10t-25.5 -46zM260 247q0 -37 25.5 -66 t80 -29t117.5 59v202q-223 -37 -223 -166z" />
<glyph unicode="&#xe4;" horiz-adv-x="881" d="M24 178q0 130 118.5 221.5t340.5 99.5v75q0 91 -39 152t-101.5 61t-79.5 -44t-27 -171q-134 0 -168 55q-16 25 -16 70.5t65 101t160.5 90.5t180.5 35q260 0 260 -307v-349q0 -41 3.5 -49.5t8 -20.5t11 -16t16.5 -11q16 -11 56 -18l39 -7l-19 -128q-63 -39 -149.5 -39 t-121.5 35q-35 36 -51 111l-12 3q-24 -56 -98.5 -104t-168 -48t-151 52.5t-57.5 149.5zM144 1144q0 39 27.5 66.5t81.5 27.5t82.5 -27t28.5 -67t-28.5 -67.5t-83.5 -27.5t-81.5 28t-26.5 67zM260 247q0 -37 25.5 -66t80 -29t117.5 59v202q-223 -37 -223 -166zM453 1144 q0 39 27.5 66.5t81.5 27.5t82.5 -27t28.5 -67t-28.5 -67.5t-83.5 -27.5t-81.5 28t-26.5 67z" />
<glyph unicode="&#xe5;" horiz-adv-x="881" d="M24 178q0 130 118.5 221.5t340.5 99.5v75q0 91 -39 152t-101.5 61t-79.5 -44t-27 -171q-134 0 -168 55q-16 25 -16 70.5t65 101t160.5 90.5t180.5 35q260 0 260 -307v-349q0 -41 3.5 -49.5t8 -20.5t11 -16t16.5 -11q16 -11 56 -18l39 -7l-19 -128q-63 -39 -149.5 -39 t-121.5 35q-35 36 -51 111l-12 3q-24 -56 -98.5 -104t-168 -48t-151 52.5t-57.5 149.5zM202 1195q0 72 58 118t163 46q215 0 215 -155q0 -71 -58 -116.5t-170 -45.5q-208 0 -208 153zM260 247q0 -37 25.5 -66t80 -29t117.5 59v202q-223 -37 -223 -166zM368 1202 q0 -19 4.5 -30.5t13.5 -15.5q15 -6 32 -6q48 3 50 52q0 49 -56 49q-21 0 -32.5 -15t-11.5 -34z" />
<glyph unicode="&#xe6;" horiz-adv-x="1265" d="M22 172q0 129 112 216t348 110v76q0 88 -37 144t-96.5 56t-80.5 -40.5t-37 -145.5q-65 -6 -118 22.5t-53 93.5t69.5 115.5t159.5 77.5t163 27q157 0 210 -94q115 94 254.5 94t222.5 -93t83 -251q0 -70 -20 -157l-480 -11q6 -115 75.5 -192.5t190 -77.5t236.5 63l19 -92 q-61 -72 -163 -107.5t-213.5 -35.5t-197.5 46t-121 131q-75 -171 -326 -171q-84 0 -142 50.5t-58 145.5zM258 233q0 -37 25.5 -63t68.5 -26t81.5 30t48.5 74v156q-182 -27 -215 -111q-9 -23 -9 -60zM721 512l241 25q8 32 8 89t-27.5 101.5t-84.5 44.5t-95.5 -70.5 t-41.5 -189.5z" />
<glyph unicode="&#xe7;" horiz-adv-x="817" d="M25 420q0 117 43 216.5t112 163.5q148 134 326 134q123 0 193.5 -56.5t70.5 -130.5q0 -136 -165 -151q-35 100 -72 147.5t-89 47.5q-78 0 -120 -71t-42 -209q0 -130 66 -243q31 -55 84 -89t122 -34q112 0 220 66l32 -81q-30 -49 -92 -88.5t-140 -58.5h16l-86 -83 q83 -47 102 -88q10 -22 10 -48q0 -75 -78 -114.5t-214 -57.5l-28 84q48 7 85 24t37 38q0 37 -125 101l166 131q-143 1 -243 61q-191 115 -191 389z" />
<glyph unicode="&#xe8;" horiz-adv-x="823" d="M26 429q0 109 39.5 204t104.5 157q137 134 308 134q137 0 219 -93t82 -251q0 -75 -19 -154l-480 -10q6 -114 75.5 -190t197 -76t229.5 56l20 -93q-61 -72 -163.5 -107.5t-210.5 -35.5q-174 0 -288 120t-114 339zM237 1384l217 38l140 -340l-157 -33zM276 514l245 24 q6 24 6 72q0 162 -111 162q-58 0 -97.5 -69.5t-42.5 -188.5z" />
<glyph unicode="&#xe9;" horiz-adv-x="823" d="M26 429q0 109 39.5 204t104.5 157q137 134 308 134q137 0 219 -93t82 -251q0 -75 -19 -154l-480 -10q6 -114 75.5 -190t197 -76t229.5 56l20 -93q-61 -72 -163.5 -107.5t-210.5 -35.5q-174 0 -288 120t-114 339zM276 514l245 24q6 24 6 72q0 162 -111 162 q-58 0 -97.5 -69.5t-42.5 -188.5zM386 1076l114 314l222 -28l-182 -313z" />
<glyph unicode="&#xea;" horiz-adv-x="823" d="M26 429q0 109 39.5 204t104.5 157q137 134 308 134q137 0 219 -93t82 -251q0 -75 -19 -154l-480 -10q6 -114 75.5 -190t197 -76t229.5 56l20 -93q-61 -72 -163.5 -107.5t-210.5 -35.5q-174 0 -288 120t-114 339zM191 1020l164 216l187 21l180 -220l-169 -35l-104 85h-10 l-87 -91zM276 514l245 24q6 24 6 72q0 162 -111 162q-58 0 -97.5 -69.5t-42.5 -188.5z" />
<glyph unicode="&#xeb;" horiz-adv-x="823" d="M26 429q0 109 39.5 204t104.5 157q137 134 308 134q137 0 219 -93t82 -251q0 -75 -19 -154l-480 -10q6 -114 75.5 -190t197 -76t229.5 56l20 -93q-61 -72 -163.5 -107.5t-210.5 -35.5q-174 0 -288 120t-114 339zM170 1143q0 39 27.5 66.5t81.5 27.5t82.5 -27t28.5 -67 t-28.5 -67.5t-83.5 -27.5t-81.5 28t-26.5 67zM276 514l245 24q6 24 6 72q0 162 -111 162q-58 0 -97.5 -69.5t-42.5 -188.5zM479 1143q0 39 27.5 66.5t81.5 27.5t82.5 -27t28.5 -67t-28.5 -67.5t-83.5 -27.5t-81.5 28t-26.5 67z" />
<glyph unicode="&#xec;" d="M18 0l10 128l153 45v478l-149 80l22 127l328 24l40 -42v-667l161 -46l-11 -127h-554zM61 1384l217 38l140 -340l-157 -33z" />
<glyph unicode="&#xed;" d="M18 0l10 128l153 45v478l-149 80l22 127l328 24l40 -42v-667l161 -46l-11 -127h-554zM209 1076l114 314l222 -28l-182 -313z" />
<glyph unicode="&#xee;" d="M14 1020l164 216l187 21l180 -220l-169 -35l-104 85h-10l-87 -91zM18 0l10 128l153 45v478l-149 80l22 127l328 24l40 -42v-667l161 -46l-11 -127h-554z" />
<glyph unicode="&#xef;" d="M17 1144q0 39 27.5 66.5t81.5 27.5t82.5 -27t28.5 -67t-28.5 -67.5t-83.5 -27.5t-81.5 28t-26.5 67zM18 0l10 128l153 45v478l-149 80l22 127l328 24l40 -42v-667l161 -46l-11 -127h-554zM326 1144q0 39 27.5 66.5t81.5 27.5t82.5 -27t28.5 -67t-28.5 -67.5t-83.5 -27.5 t-81.5 28t-26.5 67z" />
<glyph unicode="&#xf0;" horiz-adv-x="927" d="M26 451q0 96 35.5 188.5t92.5 159t130.5 107.5t160.5 41t128 -75l5 4q-18 58 -84 182l-208 -40l9 101l153 32q-61 98 -120 151h187q62 -43 121 -107l157 33l-11 -109l-75 -15q185 -266 185 -606q0 -232 -116.5 -378.5t-315.5 -146.5q-113 0 -199 40t-136 109 q-99 135 -99 329zM282 498q4 -171 63.5 -278.5t147.5 -107.5t118.5 77t30.5 238t-64.5 274.5t-140.5 115.5q-155 0 -155 -319z" />
<glyph unicode="&#xf1;" horiz-adv-x="1110" d="M18 0l14 115l146 57v508l-148 67l19 122l351 34l27 -29l-20 -115l13 -3q144 158 294 158q116 0 180 -72t64 -214v-456l146 -50l-16 -122h-443l5 115l69 57v331q0 179 -135 179q-94 0 -162 -68v-442l136 -50l-22 -122h-518zM283 1053q-7 44 16.5 93t46.5 75q53 60 140 40 l206 -49q16 -4 32 7.5t31 38.5l82 -6q0 -70 -57 -146q-26 -35 -71 -52t-98 -4l-187 46q-19 4 -33.5 -10t-25.5 -46z" />
<glyph unicode="&#xf2;" horiz-adv-x="956" d="M26 452q0 104 41 197t108 153q141 125 331 125t302 -120.5t112 -341t-126.5 -356.5t-325.5 -136q-327 0 -416 292q-26 83 -26 187zM251 1384l217 38l140 -340l-157 -33zM282 512q0 -244 92 -340q50 -53 129 -53t119 63.5t40 150t-5.5 141.5t-20 110.5t-37.5 95.5 q-52 90 -148 90q-169 0 -169 -258z" />
<glyph unicode="&#xf3;" horiz-adv-x="956" d="M26 452q0 104 41 197t108 153q141 125 331 125t302 -120.5t112 -341t-126.5 -356.5t-325.5 -136q-327 0 -416 292q-26 83 -26 187zM282 512q0 -244 92 -340q50 -53 129 -53t119 63.5t40 150t-5.5 141.5t-20 110.5t-37.5 95.5q-52 90 -148 90q-169 0 -169 -258zM399 1076 l114 314l222 -28l-182 -313z" />
<glyph unicode="&#xf4;" horiz-adv-x="956" d="M26 452q0 104 41 197t108 153q141 125 331 125t302 -120.5t112 -341t-126.5 -356.5t-325.5 -136q-327 0 -416 292q-26 83 -26 187zM204 1020l164 216l187 21l180 -220l-169 -35l-104 85h-10l-87 -91zM282 512q0 -244 92 -340q50 -53 129 -53t119 63.5t40 150t-5.5 141.5 t-20 110.5t-37.5 95.5q-52 90 -148 90q-169 0 -169 -258z" />
<glyph unicode="&#xf5;" horiz-adv-x="956" d="M26 452q0 104 41 197t108 153q141 125 331 125t302 -120.5t112 -341t-126.5 -356.5t-325.5 -136q-327 0 -416 292q-26 83 -26 187zM213 1053q-7 44 16.5 93t46.5 75q53 60 140 40l206 -49q16 -4 32 7.5t31 38.5l82 -6q0 -70 -57 -146q-26 -35 -71 -52t-98 -4l-187 46 q-19 4 -33.5 -10t-25.5 -46zM282 512q0 -244 92 -340q50 -53 129 -53t119 63.5t40 150t-5.5 141.5t-20 110.5t-37.5 95.5q-52 90 -148 90q-169 0 -169 -258z" />
<glyph unicode="&#xf6;" horiz-adv-x="956" d="M26 452q0 104 41 197t108 153q141 125 331 125t302 -120.5t112 -341t-126.5 -356.5t-325.5 -136q-327 0 -416 292q-26 83 -26 187zM206 1144q0 39 27.5 66.5t81.5 27.5t82.5 -27t28.5 -67t-28.5 -67.5t-83.5 -27.5t-81.5 28t-26.5 67zM282 512q0 -244 92 -340 q50 -53 129 -53t119 63.5t40 150t-5.5 141.5t-20 110.5t-37.5 95.5q-52 90 -148 90q-169 0 -169 -258zM515 1144q0 39 27.5 66.5t81.5 27.5t82.5 -27t28.5 -67t-28.5 -67.5t-83.5 -27.5t-81.5 28t-26.5 67z" />
<glyph unicode="&#xf7;" horiz-adv-x="877" d="M28 432l12 146h811l-10 -146h-813zM266 220q0 56 42 96t124 40t125 -39t43 -96.5t-43 -97t-127 -39.5t-124 40t-40 96zM266 783q0 56 42 95.5t124 39.5t125 -39t43 -96.5t-43 -96.5t-127 -39t-124 40t-40 96z" />
<glyph unicode="&#xf8;" horiz-adv-x="965" d="M12 -16l115 138q-97 125 -97 324q0 110 41.5 203t108.5 153q141 125 316 125q135 0 232 -54l43 53l180 -14l-111 -138q85 -117 85 -323t-126.5 -342t-325.5 -136q-133 0 -231 52l-44 -55zM287 512q0 -130 26 -220l294 382q-53 96 -151 96q-169 0 -169 -258zM351 205 q56 -86 155 -86q160 0 160 239q0 131 -24 223z" />
<glyph unicode="&#xf9;" horiz-adv-x="1072" d="M10 750l24 132l316 21l40 -39v-471q0 -102 29.5 -145t100.5 -43t138 63v395l-138 59l22 150l326 35l37 -39v-574q0 -72 26 -100t97 -48l36 -10l-16 -126q-106 -39 -192.5 -39t-132.5 38t-46 109v12l-13 2q-48 -77 -121.5 -118t-156.5 -41q-128 0 -186.5 68.5t-58.5 225.5 v403zM287 1384l217 38l140 -340l-157 -33z" />
<glyph unicode="&#xfa;" horiz-adv-x="1072" d="M10 750l24 132l316 21l40 -39v-471q0 -102 29.5 -145t100.5 -43t138 63v395l-138 59l22 150l326 35l37 -39v-574q0 -72 26 -100t97 -48l36 -10l-16 -126q-106 -39 -192.5 -39t-132.5 38t-46 109v12l-13 2q-48 -77 -121.5 -118t-156.5 -41q-128 0 -186.5 68.5t-58.5 225.5 v403zM370 1076l114 314l222 -28l-182 -313z" />
<glyph unicode="&#xfb;" horiz-adv-x="1072" d="M10 750l24 132l316 21l40 -39v-471q0 -102 29.5 -145t100.5 -43t138 63v395l-138 59l22 150l326 35l37 -39v-574q0 -72 26 -100t97 -48l36 -10l-16 -126q-106 -39 -192.5 -39t-132.5 38t-46 109v12l-13 2q-48 -77 -121.5 -118t-156.5 -41q-128 0 -186.5 68.5t-58.5 225.5 v403zM261 1020l164 216l187 21l180 -220l-169 -35l-104 85h-10l-87 -91z" />
<glyph unicode="&#xfc;" horiz-adv-x="1072" d="M10 750l24 132l316 21l40 -39v-471q0 -102 29.5 -145t100.5 -43t138 63v395l-138 59l22 150l326 35l37 -39v-574q0 -72 26 -100t97 -48l36 -10l-16 -126q-106 -39 -192.5 -39t-132.5 38t-46 109v12l-13 2q-48 -77 -121.5 -118t-156.5 -41q-128 0 -186.5 68.5t-58.5 225.5 v403zM235 1144q0 39 27.5 66.5t81.5 27.5t82.5 -27t28.5 -67t-28.5 -67.5t-83.5 -27.5t-81.5 28t-26.5 67zM544 1144q0 39 27.5 66.5t81.5 27.5t82.5 -27t28.5 -67t-28.5 -67.5t-83.5 -27.5t-81.5 28t-26.5 67z" />
<glyph unicode="&#xfd;" horiz-adv-x="1025" d="M4 -240q0 94 70 159q78 -69 187 -69t157 105l16 36l-298 740l-126 49l18 118h487l-15 -116l-108 -47l173 -463l185 456l-124 54l21 116h381l-12 -116l-99 -51l-327 -765q-83 -194 -170 -270.5t-224 -76.5q-76 0 -134 42.5t-58 98.5zM436 1076l114 314l222 -28l-182 -313z " />
<glyph unicode="&#xfe;" horiz-adv-x="1019" d="M-8 -368l13 118l154 54l-1 1240l-162 78l18 120l342 24l42 -39v-345l-15 -122l13 -3q128 161 269.5 161t234 -112.5t92.5 -333.5t-129.5 -354.5t-326.5 -133.5q-90 0 -128 16l-2 164q155 -52 242.5 14t87.5 220q0 307 -160 307q-86 0 -180 -77v-826l200 -50l-17 -120 h-587z" />
<glyph unicode="&#xff;" horiz-adv-x="1025" d="M4 -240q0 94 70 159q78 -69 187 -69t157 105l16 36l-298 740l-126 49l18 118h487l-15 -116l-108 -47l173 -463l185 456l-124 54l21 116h381l-12 -116l-99 -51l-327 -765q-83 -194 -170 -270.5t-224 -76.5q-76 0 -134 42.5t-58 98.5zM263 1144q0 39 27.5 66.5t81.5 27.5 t82.5 -27t28.5 -67t-28.5 -67.5t-83.5 -27.5t-81.5 28t-26.5 67zM572 1144q0 39 27.5 66.5t81.5 27.5t82.5 -27t28.5 -67t-28.5 -67.5t-83.5 -27.5t-81.5 28t-26.5 67z" />
<glyph unicode="&#x152;" horiz-adv-x="1770" d="M32 595.5q0 174.5 35 292.5t107 204q146 178 460 178q111 0 192 -28l858 2l-30 -369l-129 19l-61 218h-400v-418l240 8l30 61l160 17l-33 -318l-151 3l-26 89l-220 8v-425l440 1l122 239l124 -15l-30 -362h-940q-103 -27 -217 -27q-176 0 -296.5 81t-177.5 224t-57 317.5 zM366 673.5q0 -246.5 80 -403.5q29 -57 78 -95t117 -38t143 44v911q-96 48 -176 48q-122 0 -182 -110t-60 -356.5z" />
<glyph unicode="&#x153;" horiz-adv-x="1418" d="M27 452q0 104 39.5 197t103.5 152q137 125 310 125q92 0 173.5 -34.5t124.5 -87.5q125 120 273 120t230 -93t82 -251q0 -75 -19 -154l-480 -5q3 -116 74.5 -195.5t193.5 -79.5t232 60l22 -93q-61 -72 -163.5 -107.5t-210.5 -35.5q-159 0 -275 116q-118 -114 -279 -114 q-229 0 -334 143q-97 131 -97 337zM284 482.5q0 -147.5 51.5 -254t154.5 -106.5q71 0 109.5 63.5t38.5 157t-9 161.5t-29.5 131t-61.5 100t-92 37t-82.5 -19.5t-48.5 -56.5q-31 -66 -31 -213.5zM863 522l242 18q7 28 7 85.5t-27.5 102t-85 44.5t-95.5 -66t-41 -184z" />
<glyph unicode="&#x178;" horiz-adv-x="1215" d="M-10 1128l22 116h584l-20 -116l-116 -49l213 -389l207 386l-140 52l16 116h460l-18 -116l-119 -50l-331 -564v-346l166 -58l-12 -110h-604l14 106l154 63v325l-340 582zM372 1487q0 39 27.5 66.5t81.5 27.5t82.5 -27t28.5 -67t-28.5 -67.5t-83.5 -27.5t-81.5 28t-26.5 67 zM681 1487q0 39 27.5 66.5t81.5 27.5t82.5 -27t28.5 -67t-28.5 -67.5t-83.5 -27.5t-81.5 28t-26.5 67z" />
<glyph unicode="&#x2c6;" d="M24 1327l164 216l187 21l180 -220l-169 -35l-104 85h-10l-87 -91z" />
<glyph unicode="&#x2dc;" horiz-adv-x="646" d="M44 1349q-7 44 16.5 93t46.5 75q53 60 140 40l206 -49q31 -8 55 32l8 14l82 -6q0 -70 -56 -146q-27 -35 -72 -52t-98 -4l-187 46q-19 4 -33.5 -10t-25.5 -46z" />
<glyph unicode="&#x2000;" horiz-adv-x="883" />
<glyph unicode="&#x2001;" horiz-adv-x="1766" />
<glyph unicode="&#x2002;" horiz-adv-x="883" />
<glyph unicode="&#x2003;" horiz-adv-x="1766" />
<glyph unicode="&#x2004;" />
<glyph unicode="&#x2005;" horiz-adv-x="441" />
<glyph unicode="&#x2006;" horiz-adv-x="294" />
<glyph unicode="&#x2007;" horiz-adv-x="294" />
<glyph unicode="&#x2008;" horiz-adv-x="220" />
<glyph unicode="&#x2009;" horiz-adv-x="353" />
<glyph unicode="&#x200a;" horiz-adv-x="98" />
<glyph unicode="&#x2010;" d="M40 378l14 138l494 21l-14 -143z" />
<glyph unicode="&#x2011;" d="M40 378l14 138l494 21l-14 -143z" />
<glyph unicode="&#x2012;" d="M40 378l14 138l494 21l-14 -143z" />
<glyph unicode="&#x2013;" horiz-adv-x="776" d="M44 388l18 146l674 7l-23 -147z" />
<glyph unicode="&#x2014;" horiz-adv-x="1348" d="M44 388l18 146l1245 7l-21 -147z" />
<glyph unicode="&#x201a;" horiz-adv-x="439" d="M31 -252q87 25 130 74.5t43 97t-28.5 75.5t-61.5 28t-53 -7q-23 46 -23 80q0 71 47.5 111.5t128.5 40.5t138 -62.5t57 -174.5q0 -107 -71 -205q-82 -113 -274 -151z" />
<glyph unicode="&#x201e;" horiz-adv-x="439" d="M31 -252q87 25 130 74.5t43 97t-28.5 75.5t-61.5 28t-53 -7q-23 46 -23 80q0 71 47.5 111.5t128.5 40.5t138 -62.5t57 -174.5q0 -107 -71 -205q-82 -113 -274 -151zM441 -252q87 25 130 74.5t43 97t-28.5 75.5t-61.5 28t-53 -7q-23 46 -23 80q0 71 47.5 111.5t128.5 40.5 t138 -62.5t57 -174.5q0 -107 -71 -205q-82 -113 -274 -151z" />
<glyph unicode="&#x2022;" horiz-adv-x="405" d="M-14 697.5q0 72.5 54.5 124t161 51.5t162.5 -51t56 -125.5t-56 -124.5t-165 -50t-161 51.5t-52 124z" />
<glyph unicode="&#x2026;" horiz-adv-x="405" d="M-60 107q0 56 42 95.5t124 39.5t125 -39t43 -96.5t-43 -96t-127 -38.5t-124 39.5t-40 95.5zM354 107q0 56 42 95.5t124 39.5t125 -39t43 -96.5t-43 -96t-127 -38.5t-124 39.5t-40 95.5zM756 107q0 56 42 95.5t124 39.5t125 -39t43 -96.5t-43 -96t-127 -38.5t-124 39.5 t-40 95.5z" />
<glyph unicode="&#x202f;" horiz-adv-x="353" />
<glyph unicode="&#x2039;" horiz-adv-x="376" d="M12 448l1 21l268 350l59 -83l-140 -276l148 -294l-74 -90z" />
<glyph unicode="&#x203a;" horiz-adv-x="376" d="M12 166l148 294l-140 276l59 83l268 -350l1 -21l-262 -372z" />
<glyph unicode="&#x205f;" horiz-adv-x="441" />
<glyph unicode="&#x20ac;" horiz-adv-x="1201" d="M-7 462l13 116h128v25q0 16 2 50h-130l13 117h137q53 204 212 346q169 152 408.5 152t369.5 -100l-30 -342l-131 18l-54 204q-91 87 -221 87t-202.5 -95t-82.5 -270h495l-24 -117h-470q3 -37 9 -75h438l-24 -116h-388q43 -149 129.5 -243.5t199.5 -94.5t153 57l59 223 l132 21l30 -306q-97 -82 -190 -112.5t-222 -30.5q-253 0 -410 133t-196 353h-153z" />
<glyph unicode="&#x2122;" horiz-adv-x="1273" d="M4 1261h569l-14 -194l-78 11l-23 112h-101v-407l87 -20l-7 -62h-309l4 58l78 26v405h-99l-31 -124l-74 9zM572 701l7 61l76 29l29 385l-82 22l5 63h267l33 -90l85 -264l89 272l31 82h260l-7 -63l-74 -20l28 -390l80 -23l-5 -64h-288l8 61l63 29l-25 310l-121 -381 l-122 -13l-132 389l-21 -308l70 -23l-9 -64h-245z" />
<glyph unicode="&#x25fc;" horiz-adv-x="905" d="M0 0v905h905v-905h-905z" />
</font>
</defs>
</svg>
