<?xml version="1.0" standalone="no"?>
<!DOCTYPE svg PUBLIC "-//W3C//DTD SVG 1.1//EN" "http://www.w3.org/Graphics/SVG/1.1/DTD/svg11.dtd" >
<svg xmlns="http://www.w3.org/2000/svg">
<metadata></metadata>
<defs>
<font id="neutonitalic" horiz-adv-x="1402" >
<font-face units-per-em="2048" ascent="1638" descent="-410" />
<missing-glyph horiz-adv-x="480" />
<glyph horiz-adv-x="0" />
<glyph horiz-adv-x="0" />
<glyph unicode="&#xd;" horiz-adv-x="682" />
<glyph unicode=" "  horiz-adv-x="480" />
<glyph unicode="&#x09;" horiz-adv-x="480" />
<glyph unicode="&#xa0;" horiz-adv-x="480" />
<glyph unicode="!" horiz-adv-x="530" d="M133 88q0 72 49 121t121 49q55 0 89.5 -38.5t34.5 -91.5q0 -73 -47.5 -120.5t-118.5 -47.5q-48 0 -88 41t-40 87zM281 456v4q67 830 102 1054l2 4q8 21 62 34.5t106 13.5q29 0 49.5 -10.5t20.5 -31.5v-6q-38 -246 -238 -1078v-8z" />
<glyph unicode="&#x22;" horiz-adv-x="621" d="M300 1080l14 498l220 -20l-118 -464zM552 1080l14 498l220 -20l-118 -464z" />
<glyph unicode="#" horiz-adv-x="1163" d="M120 440l31 122h196l37 256h-196l29 122h188l36 212l124 12l-36 -224h248l34 212l125 10l-35 -222h204l-29 -122h-196l-37 -256h194l-29 -122h-188l-27 -224l-128 -10l31 234h-246l-29 -224l-128 -10l31 234h-204zM471 562h246l39 256h-248z" />
<glyph unicode="$" horiz-adv-x="1050" d="M78 149l67 325l122 -18l10 -229q24 -51 77.5 -88.5t124.5 -43.5l91 576q-60 35 -93.5 56.5t-82 60.5t-74.5 73.5t-45.5 85t-19.5 106.5q0 26 5 61q13 84 53.5 157t99 124.5t128 86.5t146.5 51l26 163l155 20l-28 -173q171 -12 285 -121l-81 -344l-118 14l5 233 q-10 30 -48.5 63t-88.5 46l-85 -536q15 -9 50.5 -29t53 -30.5t49.5 -30.5t49.5 -33.5t44 -35t41 -39.5t32 -43t26.5 -49.5t15.5 -54t6.5 -61.5q0 -25 -5 -62q-27 -169 -162 -289t-316 -157l-29 -183l-163 -20l30 190q-117 6 -212 56t-142 122zM482 1171q0 -120 137 -216 l76 481q-81 -14 -137.5 -70t-72.5 -155q-3 -21 -3 -40zM587 103q93 21 162.5 83t86.5 163q3 18 3 34q0 69 -44.5 122.5t-126.5 106.5z" />
<glyph unicode="%" horiz-adv-x="1419" d="M213 846q0 76 53 154.5t133 128.5q79 48 152 48q238 0 238 -273q0 -77 -52.5 -154.5t-131.5 -126.5q-79 -47 -148 -47q-115 0 -179.5 70.5t-64.5 199.5zM231 -34l996 1216l134 -10l-986 -1218zM369 860q0 -100 21.5 -142t82.5 -42q71 0 119.5 70.5t48.5 165.5 q0 89 -22.5 128.5t-83.5 39.5q-72 0 -119 -66.5t-47 -153.5zM813 224q0 76 53 155.5t133 130.5q80 50 152 50q238 0 238 -274q0 -77 -52.5 -154.5t-131.5 -126.5q-79 -47 -148 -47q-117 0 -180.5 69t-63.5 197zM969 238q0 -99 21.5 -139.5t82.5 -40.5q71 0 119.5 70.5 t48.5 165.5q0 89 -22.5 128.5t-83.5 39.5q-72 0 -119 -68t-47 -156z" />
<glyph unicode="&#x26;" horiz-adv-x="1615" d="M94 324q0 147 102 276q40 50 100 101t117 87q58 36 109 62q-124 120 -124 298q0 89 65 181t169 152q104 59 204 59q167 0 254.5 -68.5t87.5 -219.5q0 -114 -122 -223q-107 -94 -230 -161l-2 -14l286 -342l262 360l-196 50l26 92h544l-26 -92l-214 -46l-324 -448 q104 -138 221 -246q77 -71 123 -86l38 -12l-30 -84q-75 -24 -150 -24q-86 0 -173.5 71t-198.5 217q-40 -47 -71.5 -78t-81.5 -70q-56 -45 -109.5 -72.5t-125.5 -47.5q-75 -20 -152 -20q-194 0 -290 107q-88 98 -88 241zM334 440q0 -128 48 -214q55 -98 186 -98 q61 0 127.5 25.5t116.5 65.5q94 74 128 123l-354 420l-20 2q-95 -60 -163.5 -148t-68.5 -176zM598 1220q0 -135 158 -284q210 128 210 292q0 105 -40 157.5t-130 52.5q-77 0 -137.5 -68.5t-60.5 -149.5z" />
<glyph unicode="'" horiz-adv-x="369" d="M300 1080l14 498l220 -20l-118 -464z" />
<glyph unicode="(" horiz-adv-x="585" d="M139 304q0 308 98 567q80 210 215 385q46 60 107 122.5t98 93.5q39 32 62 48l48 -80q-55 -60 -99.5 -120.5t-101.5 -164.5q-66 -119 -110 -243.5t-76 -296.5q-33 -178 -33 -371q0 -304 148 -628l-94 -70q-4 4 -14 14.5t-12.5 14t-11 12.5t-12.5 14.5t-12 16t-15 21 t-16.5 25.5t-20.5 33q-46 74 -73 149.5t-51 197.5q-24 123 -24 260z" />
<glyph unicode=")" horiz-adv-x="587" d="M-29 -384q93 123 152 222q278 466 293 993q1 19 1 57q0 319 -140 552l72 80l9 -9q47 -46 86 -95q53 -68 100 -172q47 -107 70 -270q11 -90 11 -178q0 -148 -28 -297t-74 -269q-41 -108 -102 -217.5t-119 -186.5q-49 -66 -109.5 -133t-94.5 -98q-7 -7 -55 -49z" />
<glyph unicode="*" horiz-adv-x="1028" d="M188 1168l65 154l322 -138l-14 -86zM331 830l230 264l79 -40l-185 -336zM533 1566l164 -16l-31 -348l-85 -14zM648 1054l62 62l262 -278l-145 -84zM669 1198l346 162l36 -162l-342 -78z" />
<glyph unicode="+" horiz-adv-x="833" d="M163 496l32 122h254l44 280l128 -14l-40 -266h266l-32 -122h-252l-44 -286l-132 14l44 272h-268z" />
<glyph unicode="," horiz-adv-x="541" d="M30 -296q113 29 183.5 93.5t70.5 128.5q0 55 -31.5 86.5t-90.5 31.5q-6 0 -36 -8q-8 37 -8 66q0 65 57 113.5t115 48.5q70 0 121 -43q59 -52 59 -183q0 -84 -55 -172q-68 -110 -200 -181q-78 -41 -171 -65z" />
<glyph unicode="-" horiz-adv-x="731" d="M199 482l14 122l494 22l-14 -122z" />
<glyph unicode="." horiz-adv-x="489" d="M120 88q0 72 49 121t121 49q55 0 89.5 -38.5t34.5 -91.5q0 -73 -47.5 -120.5t-118.5 -47.5q-48 0 -88 41t-40 87z" />
<glyph unicode="/" horiz-adv-x="624" d="M37 -440l560 1936l160 10l-564 -1936z" />
<glyph unicode="0" horiz-adv-x="1224" d="M212 542q0 186 53.5 352.5t142.5 282.5q89 117 197.5 180t220.5 63q90 0 166 -40q150 -88 208 -294q28 -111 28 -240q0 -203 -54 -371t-146 -285q-85 -108 -193 -165t-207 -57q-83 0 -163.5 37.5t-130.5 104.5q-60 75 -88 180q-34 109 -34 252zM412 498q0 -410 234 -410 q172 0 268 162q51 84 86 246q32 169 32 392q0 198 -55.5 306t-162.5 108q-87 0 -154 -40q-125 -79 -182 -256q-48 -149 -62 -350q-4 -52 -4 -158z" />
<glyph unicode="1" horiz-adv-x="951" d="M82 0l22 88l342 54l152 1076h-320l20 92l498 90h32l-178 -1266l316 -36l-24 -98h-860z" />
<glyph unicode="2" horiz-adv-x="1143" d="M90 0l10 124l316 242l176 140q186 149 282 332q46 93 46 200q0 100 -46 164q-55 68 -164 68q-61 0 -116 -28q-54 -30 -96 -72q-87 -95 -140 -202l-92 36q28 75 83 153t121 135q78 64 156 100q90 38 178 38q165 0 250.5 -86.5t85.5 -245.5q0 -243 -262 -494 q-100 -98 -230 -192l-210 -160l-103 -88h549l142 206l82 -11l-116 -359h-902z" />
<glyph unicode="3" horiz-adv-x="1033" d="M88 120q0 46 44 84q45 39 124 48q0 -48 56 -110q28 -31 64 -52q32 -22 78 -22q187 0 272 122q52 80 52 186q0 46 -22.5 97.5t-61.5 90.5q-96 90 -236 90h-20v78q3 2 10 3q5 1 16 6q9 4 20 7q74 29 166 86q99 66 148 162q26 54 26 110q0 72 -40 118q-50 54 -138 54 q-89 0 -151.5 -46.5t-110.5 -133.5l-84 30q10 41 53.5 97t102.5 103q141 106 284 106q53 0 118 -20q114 -44 162 -140q24 -48 24 -106q0 -139 -104 -250q-93 -93 -229 -140l-1 -14q140 -23 216 -112q72 -84 72 -196q0 -95 -50 -190q-107 -187 -332 -264q-122 -38 -238 -38 q-63 0 -128 14q-110 31 -144 86q-18 27 -18 56z" />
<glyph unicode="4" horiz-adv-x="1139" d="M94 510l858 902l72 -22q0 -1 -22 -120l-22 -142l-24 -158q-21 -153 -22 -162l-34 -242h298l-40 -148h-280l-54 -400l-204 -32l64 436h-576zM302 566h398l72 510z" />
<glyph unicode="5" horiz-adv-x="937" d="M132 50q272 24 422 126q152 101 152 258q0 312 -500 346l236 603l530 33l-54 -186l-438 -22l-100 -258q262 -17 414 -138q68 -56 104 -134t36 -166q0 -103 -49.5 -200t-142.5 -174q-95 -77 -248 -132q-151 -52 -356 -64z" />
<glyph unicode="6" horiz-adv-x="1095" d="M172 404q0 203 130 434q59 101 144 199t176 171q194 157 410 228l34 -68q-116 -51 -226 -128q-92 -68 -176.5 -160t-135.5 -180q-54 -93 -84 -180h12q45 45 132 82q28 10 88 26q47 10 94 10q72 0 135.5 -30.5t106.5 -83.5q40 -49 66 -118q22 -67 22 -138q0 -99 -46 -190 q-99 -185 -294 -264q-96 -40 -200 -40q-106 0 -178 34q-76 38 -120 94q-90 107 -90 302zM394 406q0 -136 48 -232q22 -45 60 -74q34 -28 82 -28q162 0 240 120q56 98 56 246q0 105 -52 190q-59 88 -160 88q-19 0 -70 -8q-80 -22 -132 -52q-27 -18 -38 -32q-9 -32 -21.5 -99 t-12.5 -119z" />
<glyph unicode="7" horiz-adv-x="1023" d="M206 1072l74 326h914l-6 -62l-702 -1376l-106 36l598 1222h-608l-84 -162z" />
<glyph unicode="8" horiz-adv-x="1104" d="M159 286q0 118 85.5 217.5t260.5 194.5l2 10q-29 17 -62 48q-78 64 -112 154q-18 48 -18 102q0 79 38 150q73 146 248 222q84 36 176 36q145 0 238 -86q39 -38 64 -90q22 -56 22 -112q0 -57 -22 -116q-27 -61 -60 -106q-36 -52 -88 -88q-51 -39 -106 -58l-4 -12 q242 -175 242 -356q0 -82 -39 -160t-111 -138t-174 -96q-103 -34 -230 -34q-158 0 -248 84q-49 43 -74 100q-28 60 -28 134zM361 332q0 -96 64 -176q29 -35 68 -56q35 -22 84 -22q152 0 220 68q68 71 68 184q0 43 -25 86q-27 42 -69 84q-42 39 -96 78l-108 78l-76 -60 q-79 -66 -112 -150q-18 -48 -18 -114zM505 1106q0 -92 68 -166q68 -72 178 -140q47 26 76 52q32 26 56 62q21 37 32 80q10 47 10 104q0 102 -54 168q-55 64 -136 64q-98 0 -172 -74q-58 -64 -58 -150z" />
<glyph unicode="9" horiz-adv-x="1093" d="M214 896q0 213 176 376q83 77 177.5 118.5t182.5 41.5q189 0 292 -132q43 -56 68 -140q22 -84 22 -168q0 -181 -62.5 -352t-177.5 -310q-116 -141 -275.5 -235.5t-346.5 -126.5l-16 88q278 77 434 246q130 141 182 378h-20q-24 -27 -65.5 -54t-78.5 -40q-80 -34 -168 -34 q-150 0 -240 100q-84 95 -84 244zM418 954q0 -57 14 -104q14 -52 42 -86q58 -84 168 -84q32 0 66 8q61 9 132 52q27 17 46 44q17 55 22.5 76.5t10.5 60.5t5 93q0 47 -14 120q-12 50 -40 104q-27 43 -62 70q-37 28 -80 28q-159 0 -236 -112q-74 -100 -74 -270z" />
<glyph unicode=":" horiz-adv-x="567" d="M168 118q0 68 46.5 114t113.5 46q52 0 85 -37t33 -88q0 -68 -44.5 -112.5t-111.5 -44.5q-45 0 -83.5 39.5t-38.5 82.5zM284 876q0 68 46.5 114t113.5 46q52 0 84 -36t32 -86q0 -68 -45 -113t-111 -45q-45 0 -82.5 38.5t-37.5 81.5z" />
<glyph unicode=";" horiz-adv-x="597" d="M60 -282q106 29 172 88t66 120q0 52 -29 82t-85 30q-4 0 -34 -8q-8 34 -8 62q0 60 53.5 106t108.5 46q65 0 113 -41q55 -47 55 -171q0 -78 -52 -162q-62 -102 -187 -169q-70 -38 -161 -61zM314 876q0 68 46.5 114t113.5 46q52 0 84 -36t32 -86q0 -68 -45 -113t-111 -45 q-45 0 -82.5 38.5t-37.5 81.5z" />
<glyph unicode="&#x3c;" horiz-adv-x="897" d="M145 518l8 34l752 625l54 -85l-524 -542l374 -566l-90 -84z" />
<glyph unicode="=" horiz-adv-x="1062" d="M210 386l34 128h744l-34 -128h-744zM260 676l34 128h744l-34 -128h-744z" />
<glyph unicode="&#x3e;" horiz-adv-x="899" d="M86 -16l550 566l-352 542l82 85l556 -625l-4 -34l-770 -618z" />
<glyph unicode="?" horiz-adv-x="827" d="M230 88q0 72 49 121t121 49q55 0 89.5 -38.5t34.5 -91.5q0 -73 -47.5 -120.5t-118.5 -47.5q-48 0 -88 41t-40 87zM296 1384q0 56 61 112q31 29 85.5 46.5t119.5 17.5q144 0 243 -125t99 -311q0 -155 -85 -237q-65 -62 -176 -117q-56 -28 -90 -50.5t-55 -54.5 q-24 -35 -24 -81q0 -56 8 -120l-92 -20q-54 100 -54 212q0 130 88 199q57 45 179 99q111 49 149 110q24 40 24 94q0 79 -51 134.5t-113 55.5q-151 0 -246 -86q-31 13 -50.5 45.5t-19.5 76.5z" />
<glyph unicode="@" horiz-adv-x="1682" d="M159 376q0 177 69.5 340.5t192.5 285.5q122 122 293.5 192t360.5 70q172 0 310 -65.5t220 -188.5q82 -124 82 -286q0 -120 -47 -237.5t-127 -206.5q-80 -90 -193 -143t-231 -53q-51 0 -82.5 31.5t-31.5 88.5q0 6 1 11t1 11h-10q-45 -66 -108 -110t-124 -44 q-101 0 -154.5 75t-53.5 225q0 122 48 235t126 189q76 74 162.5 117t163.5 43q109 0 200 -20l4 -2l20 -24l-64 -444q-24 -171 -24 -202q0 -60 28 -60q89 0 166 65.5t122 175.5q44 109 44 231q0 228 -134.5 354t-361.5 126q-142 0 -271 -61.5t-219 -167.5 q-89 -105 -139.5 -240t-50.5 -275q0 -275 157 -425.5t449 -150.5q105 0 227 41.5t191 88.5l12 10l42 -76l-10 -6q-101 -66 -196 -108q-136 -62 -314 -62q-241 0 -422 90q-102 50 -171 123.5t-110 183.5q-43 111 -43 255zM719 424q0 -88 11 -135q11 -44 28 -57.5t53 -13.5 q89 0 172 90l82 530q-58 14 -106 14q-64 0 -121.5 -67t-88.5 -169q-30 -98 -30 -192z" />
<glyph unicode="A" d="M-39 0l22 90l180 66l716 1342l178 38l228 -1386l150 -52l-22 -98h-586l24 90l208 66l-68 368h-484l-186 -374l206 -52l-26 -98h-540zM569 646h406l-96 606z" />
<glyph unicode="B" horiz-adv-x="1379" d="M78 0l22 90l204 56l206 1192l-192 36l24 92q374 56 584 56q232 0 345 -97q101 -89 101 -211q0 -104 -65 -210q-73 -120 -239 -180l-2 -10q145 -9 226.5 -94t81.5 -210q0 -151 -116 -279q-129 -143 -355 -200q-123 -31 -273 -31h-552zM518 116h234q94 0 171 31t125 84 q94 103 94 241q0 112 -69 186t-189 74h-258zM646 834h240q116 0 186 88t72 234q0 106 -63 180q-71 82 -243 82q-46 0 -92 -8z" />
<glyph unicode="C" horiz-adv-x="1389" d="M203 584q0 177 72 359q79 203 216 342q160 162 362 221q114 32 236 32q262 0 396 -122l-100 -402l-98 16l-4 266q-34 59 -106.5 92.5t-175.5 33.5q-105 0 -203 -55.5t-174 -154.5q-77 -101 -121 -247.5t-44 -312.5q0 -129 34.5 -231.5t97.5 -165.5q124 -127 308 -127 q221 0 420 184l46 -66q-119 -140 -269.5 -208t-312.5 -68q-241 0 -407 157q-82 76 -127.5 194.5t-45.5 262.5z" />
<glyph unicode="D" horiz-adv-x="1632" d="M87 0l24 90l208 66l186 1180l-194 36l24 92q369 60 604 60q318 0 498 -118q81 -53 135 -130t77 -165q22 -84 22 -185q0 -288 -185 -527q-194 -249 -503 -347q-163 -52 -348 -52h-548zM533 126h170q154 0 289 58.5t227 160.5q91 101 141.5 232t50.5 273q0 234 -129 387 q-65 77 -170 120t-237 43q-73 0 -142 -8z" />
<glyph unicode="E" horiz-adv-x="1373" d="M100 0l18 90l200 56l192 1218l-202 50l20 92h1154l-96 -386l-98 16l-6 260h-546l-90 -576h336l74 144l110 16l-112 -470l-102 -16l-6 212h-318l-94 -590h574l158 278l94 -14l-96 -380h-1164z" />
<glyph unicode="F" horiz-adv-x="1273" d="M100 0l18 90l200 56l192 1218l-202 50l22 92h1150l-108 -388l-98 16v262h-538l-92 -584h332l74 146l104 16l-104 -474l-106 -18l-2 218h-316l-88 -552l268 -46l-24 -102h-682z" />
<glyph unicode="G" horiz-adv-x="1554" d="M205 564q0 174 51.5 331t141.5 273q184 235 447 318q126 40 258 40q322 0 474 -118l-94 -390l-98 18l-4 232q-36 60 -127.5 99t-228.5 39q-177 0 -314 -106q-154 -119 -213 -357q-33 -131 -33 -291q0 -276 117.5 -418t350.5 -142q151 0 216 56l60 378l-266 46l24 100h642 l-22 -90l-150 -50l-66 -426q-103 -69 -257 -106.5t-341 -37.5q-142 0 -253.5 47.5t-179.5 133.5q-135 170 -135 421z" />
<glyph unicode="H" horiz-adv-x="1700" d="M108 0l18 90l190 56l192 1218l-192 50l20 92h599l-21 -92l-192 -46l-82 -530h688l82 526l-194 50l22 92h598l-20 -92l-192 -46l-194 -1230l196 -40l-22 -98h-596l22 90l188 56l90 570l-690 -2l-90 -576l200 -40l-26 -98h-594z" />
<glyph unicode="I" horiz-adv-x="811" d="M100 0l18 90l200 56l192 1218l-202 50l20 92h628l-20 -92l-204 -46l-194 -1230l206 -40l-23 -98h-621z" />
<glyph unicode="J" horiz-adv-x="768" d="M-37 -288q162 140 245.5 263.5t106.5 262.5l180 1126l-200 50l18 92h628l-16 -92l-204 -46l-146 -902q-41 -257 -101 -393q-35 -80 -74.5 -138t-99.5 -115q-59 -56 -124 -103.5t-167 -110.5q-31 47 -46 106z" />
<glyph unicode="K" horiz-adv-x="1463" d="M95 0l18 90l210 66l188 1198l-208 60l24 92h634l-20 -92l-208 -56l-188 -1208l210 -52l-22 -98h-638zM669 732l6 30q96 73 146 130l414 466l-178 56l18 92h574l-22 -92l-214 -56l-528 -572l210 -326q116 -178 187 -250.5t169 -107.5l40 -14l-26 -88q-76 -26 -152 -26 q-139 0 -242 100q-87 84 -168 242l-154 300q-55 90 -80 116z" />
<glyph unicode="L" horiz-adv-x="1302" d="M101 0l16 90l202 56l190 1208l-208 60l24 92h634l-20 -92l-208 -56l-196 -1242h510l198 300l98 -16l-106 -400h-1134z" />
<glyph unicode="M" horiz-adv-x="1992" d="M51 0l22 90l200 56l276 1218l-204 50l22 92h462l52 -234l160 -898l506 938l104 194h456l-20 -92l-202 -46l-132 -1230l204 -40l-22 -98h-616l22 90l198 56l104 1070l-622 -1154l-144 -24l-220 1132l-236 -1032l210 -40l-26 -98h-554z" />
<glyph unicode="N" horiz-adv-x="1644" d="M101 0l18 90l200 56l190 1208l-200 60l20 92h404l556 -1176l162 1034l-206 50l22 92h548l-22 -92l-200 -46l-216 -1368l-176 -36l-576 1200l-162 -1026l208 -40l-22 -98h-548z" />
<glyph unicode="O" horiz-adv-x="1622" d="M212 612q0 196 64 368t180 297q117 125 282.5 195t355.5 70q130 0 236.5 -51t176.5 -143q141 -186 141 -466q0 -301 -154 -530q-162 -243 -428 -335q-140 -49 -300 -49q-166 0 -294 84.5t-194 231.5q-66 146 -66 328zM476 638q0 -222 85 -376q43 -79 116 -122.5 t167 -43.5q192 0 316 104q107 90 165 247q47 133 60 288q5 72 5 129q0 219 -85 383q-44 83 -118 130t-167 47q-96 0 -178.5 -28t-139.5 -76q-107 -91 -163 -250q-47 -135 -58 -296q-5 -73 -5 -136z" />
<glyph unicode="P" horiz-adv-x="1296" d="M93 0l20 90l203 56l185 1192l-190 36l26 92q342 54 560 54q514 0 514 -362q0 -120 -49 -227t-134 -180q-84 -74 -193 -115.5t-222 -41.5q-60 0 -130 10l-8 100h62q212 0 319 103.5t107 302.5q0 143 -77.5 226.5t-226.5 83.5l-124 -6l-200 -1266l268 -46l-26 -102h-684z " />
<glyph unicode="Q" horiz-adv-x="1638" d="M210 612q0 193 67.5 366t188.5 298t289 195.5t355 70.5q129 0 236 -50t177 -140q143 -183 143 -460q0 -212 -84 -398.5t-240 -318.5q-158 -134 -362 -183q16 -68 43 -114.5t75 -87.5q98 -83 328 -124q-8 -58 -26 -90q-88 -42 -210 -42q-155 0 -252.5 106t-97.5 284 q0 26 2 50q-15 -6 -74 -6q-166 0 -294.5 84.5t-196.5 231.5q-67 144 -67 328zM456 678q0 -175 61 -315q70 -165 215 -235q78 -40 182 -46q179 45 294 150q99 90 151 224q42 107 53 249q4 49 4 119q0 190 -63 337q-71 160 -189 221q-66 32 -140 32q-263 0 -415.5 -196 t-152.5 -540z" />
<glyph unicode="R" horiz-adv-x="1411" d="M94 0l20 90l203 56l187 1188l-194 36l28 92q347 56 536 56q328 0 454 -142q68 -78 68 -193q0 -142 -105 -265q-107 -125 -295 -192v-2l160 -302q42 -79 78 -141q28 -50 72 -98q28 -34 84 -64q29 -16 54 -25l34 -12l-30 -82q-76 -26 -144 -26q-122 0 -207.5 84t-148.5 248 l-132 344h-200l-78 -498l210 -52l-23 -100h-631zM632 760h192q126 0 224 105.5t98 254.5q0 129 -72.5 212.5t-195.5 83.5q-32 0 -124 -4l-18 -2z" />
<glyph unicode="S" horiz-adv-x="1105" d="M134 148l68 324l114 -18l6 -228q25 -62 81.5 -97t138.5 -35q88 0 169 37q89 41 127 125q20 48 20 103q0 93 -85 170q-77 68 -189 139q-109 69 -188 154q-86 91 -86 212q0 181 111 312q106 124 258 170q73 22 151 22q94 0 175.5 -30t130.5 -92l-78 -342l-114 14l6 232 q-9 37 -62 75.5t-114 38.5q-107 0 -178.5 -77.5t-71.5 -204.5q0 -113 112 -205q54 -45 109 -80q171 -113 230 -167q111 -101 111 -236q0 -108 -50.5 -203t-136.5 -159q-180 -132 -405 -132q-121 0 -222.5 51t-137.5 127z" />
<glyph unicode="T" horiz-adv-x="1345" d="M224 1118l52 388h1282l-102 -408l-108 18v280h-350l-200 -1258l206 -40l-24 -98h-624l20 90l202 56l198 1250h-340l-108 -294z" />
<glyph unicode="U" horiz-adv-x="1643" d="M265 1414l22 92h624l-18 -92l-204 -46l-120 -770q-12 -75 -12 -134q0 -176 88 -264t250 -88q141 0 236 60q82 51 134 146q40 75 64 178q7 31 16 86l124 782l-200 50l18 92h552l-20 -92l-202 -46l-126 -764q-107 -636 -694 -636q-139 0 -246 50q-68 31 -113 80t-74 128 q-31 81 -31 190q0 68 12 152l126 796z" />
<glyph unicode="V" horiz-adv-x="1409" d="M190 1414l20 92h612l-18 -92l-204 -46l194 -1064l534 1060l-202 50l18 92h526l-18 -92l-158 -46l-708 -1362l-170 -36l-268 1394z" />
<glyph unicode="W" horiz-adv-x="2046" d="M202 1414l18 92h586l-24 -92l-202 -46l118 -1038l510 1116l200 30l98 -1128l460 1016l-198 50l20 92h518l-20 -92l-150 -46l-636 -1362l-176 -36l-108 1182l-520 -1146l-182 -36l-162 1394z" />
<glyph unicode="X" horiz-adv-x="1387" d="M14 0l24 90l146 56l518 590l-298 618l-142 60l22 92h600l-22 -92l-200 -56l206 -458l386 464l-208 50l22 92h522l-18 -92l-154 -46l-482 -580l292 -650l156 -40l-26 -98h-584l24 90l200 56l-228 486l-418 -494l206 -40l-22 -98h-522z" />
<glyph unicode="Y" horiz-adv-x="1278" d="M188 1414l24 92h578l-22 -92l-190 -46l232 -596l396 592l-200 50l18 92h512l-18 -92l-152 -46l-512 -728l-80 -502l186 -40l-22 -98h-586l20 90l182 56l74 466l-292 752z" />
<glyph unicode="Z" horiz-adv-x="1325" d="M104 0l8 126l1060 1266h-650l-110 -298l-106 22l46 390h1108l-14 -92l-1086 -1292h646l172 302l110 -18l-100 -406h-1084z" />
<glyph unicode="[" horiz-adv-x="534" d="M87 -456l316 1976h328l-4 -108l-174 -24l-268 -1702l168 -24l-30 -116z" />
<glyph unicode="\" horiz-adv-x="860" d="M304 1506l158 -10l254 -1936l-156 10z" />
<glyph unicode="]" horiz-adv-x="536" d="M-29 -454l6 116l176 24l268 1702l-166 24l32 108h328l-312 -1976z" />
<glyph unicode="^" horiz-adv-x="909" d="M226 1000l428 498l68 16l278 -516l-76 -44l-276 346h-12l-356 -340z" />
<glyph unicode="_" horiz-adv-x="1018" d="M-25 -160l34 128h1004l-34 -128h-1004z" />
<glyph unicode="`" horiz-adv-x="767" d="M198 2010l140 46l160 -404l-70 -42z" />
<glyph unicode="a" horiz-adv-x="1034" d="M145 332q0 135 38 256.5t103 210.5q130 178 310 243q86 30 167 30q157 0 224 -42l20 -22l-86 -550q-32 -212 -32 -262q0 -41 11 -58t41 -22l82 -14l-24 -84q-84 -36 -170 -36q-64 0 -104 30t-40 88v14l4 46h-14q-46 -82 -123.5 -134t-162.5 -52q-113 0 -178.5 95.5 t-65.5 262.5zM341 388q0 -260 146 -260q60 0 107 28t101 88l104 660q-45 42 -144 42q-89 0 -164 -84t-113 -215q-37 -124 -37 -259z" />
<glyph unicode="b" horiz-adv-x="1048" d="M155 60l212 1324l-162 28l8 92l334 30l22 -28l-76 -486l-32 -146h14q49 85 139 144.5t171 59.5q79 0 144 -60t100 -160q34 -96 34 -210q0 -184 -81.5 -339t-225.5 -246q-145 -91 -321 -91q-76 0 -156 24t-124 64zM361 186q24 -36 76.5 -57t117.5 -21q79 0 154 64 q91 78 129 237q21 90 21 203q0 152 -76 245q-40 49 -94 49q-68 0 -117 -23.5t-107 -76.5z" />
<glyph unicode="c" horiz-adv-x="806" d="M148 372q0 125 36 241.5t96 203.5q58 84 130.5 147t145.5 95q72 31 136 31q95 0 149.5 -47t54.5 -127q0 -58 -47 -95t-121 -43q-6 75 -24 129q-22 69 -72 69q-45 0 -92.5 -41t-89.5 -114q-42 -74 -68 -186t-26 -235q0 -136 46 -212t138 -76q64 0 112 18t110 58l28 -60 q-58 -72 -148 -118t-176 -46q-150 0 -234 107t-84 301z" />
<glyph unicode="d" horiz-adv-x="1033" d="M144 328q0 125 36 244t99 209q131 188 300 257q83 34 163 34q57 0 84 -8h8l46 336l-172 32l16 88l334 30l24 -28l-166 -1062q-32 -224 -32 -266q0 -40 11 -55.5t41 -20.5l80 -14l-24 -86q-104 -36 -168 -36q-70 0 -106 29t-38 79q0 28 6 70h-16q-46 -82 -123.5 -134 t-162.5 -52q-240 0 -240 354zM340 400q0 -142 37 -207t113 -65q60 0 101.5 26t96.5 90l106 658q-52 44 -142 44q-89 0 -163.5 -82.5t-111.5 -210.5q-37 -121 -37 -253z" />
<glyph unicode="e" horiz-adv-x="887" d="M152 370q0 189 68 350.5t190 259.5t268 98q114 0 171 -74t57 -212q0 -129 -58 -238l-494 -22q-9 -52 -9 -110q0 -157 72 -229q69 -69 177 -69q44 0 124.5 32.5t103.5 57.5l32 -54q-49 -76 -156.5 -136t-217.5 -60q-90 0 -156.5 33.5t-103.5 94.5q-68 112 -68 278z M367 620l329 26q26 54 26 144q-5 176 -116 176q-70 0 -136 -85q-67 -85 -103 -261z" />
<glyph unicode="f" horiz-adv-x="711" d="M61 0l20 92l150 40l128 818h-144l20 82l144 44q26 128 96.5 239.5t166.5 177.5q95 65 188 65q98 0 150.5 -34.5t52.5 -103.5q0 -40 -31.5 -73.5t-92.5 -50.5q-13 39 -64 73.5t-102 34.5q-71 0 -107 -82q-28 -63 -45 -164l-16 -100h226l-30 -108h-212l-130 -818l252 -36 l-22 -96h-598z" />
<glyph unicode="g" horiz-adv-x="1004" d="M-6 -244q0 162 234 266v10q-51 27 -71.5 58.5t-22.5 85.5q0 49 78.5 119t159.5 101l2 10q-54 15 -104 93.5t-50 165.5q0 106 68.5 205.5t176.5 158.5q103 57 207 57q121 0 190 -76l256 18l20 -28l-66 -134h-20l-144 48l-2 -20q18 -62 18 -130q0 -102 -66 -196t-166 -149 q-98 -53 -188 -53q-48 0 -84 12l-22 -22q-20 -20 -24 -27q-7 -10 -10 -14q-7 -10 -10 -17q0 -1 -2.5 -7.5t-4.5 -10.5q-7 -18 -7 -40q0 -38 42 -48q39 -10 158 -10h106q298 0 298 -182q0 -79 -37 -153t-102 -131q-136 -120 -300 -162q-81 -22 -155 -22q-206 0 -303 96 q-53 53 -53 128zM220 -180q0 -158 206 -158q134 0 218 67t84 179q0 52 -58 74q-57 22 -196 22h-168l-9 -6q-24 -18 -47 -56q-30 -50 -30 -122zM420 668q0 -89 37.5 -148.5t92.5 -59.5q84 0 139 94.5t55 245.5q0 92 -30 144t-82 52q-90 0 -151 -95t-61 -233z" />
<glyph unicode="h" horiz-adv-x="1087" d="M33 0l26 90l146 40l200 1254l-162 28l12 92l332 30l26 -28l-76 -482l-34 -150h14q68 89 159.5 148.5t184.5 59.5q178 0 178 -218q0 -66 -10 -122l-100 -620l150 -34l-26 -88h-328l102 636q10 67 10 112q0 154 -106 154q-49 0 -96.5 -16t-74.5 -37q-28 -22 -55 -47 l-108 -678l148 -38l-22 -86h-490z" />
<glyph unicode="i" horiz-adv-x="602" d="M74 0l22 88l148 40l122 776l-158 26l12 92l332 30l24 -28l-140 -900l152 -38l-20 -86h-494zM392 1450q0 56 43 95.5t101 39.5q61 0 104.5 -40t43.5 -97q0 -61 -44 -104.5t-104 -43.5t-102 44t-42 106z" />
<glyph unicode="j" horiz-adv-x="534" d="M-102 -372q268 196 312 492l125 786l-161 26l12 92l332 30l26 -28l-146 -922q-14 -92 -53 -180t-88 -152q-43 -56 -101 -107t-108 -83q-48 -30 -90 -50zM360 1446q0 57 45 99.5t103 42.5q63 0 109.5 -43t46.5 -103q0 -62 -46.5 -108t-109.5 -46q-60 0 -104 47.5 t-44 110.5z" />
<glyph unicode="k" horiz-adv-x="1041" d="M36 0l20 90l150 40l200 1254l-160 26l14 92l328 30l28 -28l-218 -1378l152 -38l-20 -88h-494zM490 526l4 20l318 386l-148 40l18 86h460l-26 -92l-160 -40l-290 -336l60 -126q8 -19 30 -64q27 -61 52 -112q18 -39 49 -89q19 -30 55 -63q26 -24 69 -38q17 -7 43 -10l42 -6 l-26 -82q-23 -7 -76.5 -15.5t-85.5 -8.5q-80 0 -139 52q-50 44 -112 176q-25 52 -63 144z" />
<glyph unicode="l" horiz-adv-x="564" d="M35 0l22 90l148 40l200 1254l-160 26l14 92l328 30l26 -28l-216 -1378l154 -38l-22 -88h-494z" />
<glyph unicode="m" horiz-adv-x="1653" d="M76 0l26 92l146 40l116 766l-158 26l16 100l340 30l26 -28l-38 -152h14q32 54 120 124q46 37 106 60.5t118 23.5q80 0 126 -46t46 -136v-16h14q150 198 336 198q89 0 130.5 -52.5t41.5 -161.5q0 -53 -10 -126l-90 -620l150 -34l-26 -88h-318l-14 16l96 620q10 70 10 116 q0 152 -92 152q-130 0 -232 -102q-14 -103 -28 -186l-30 -190l-48 -302l150 -34l-26 -90h-318l-14 18l100 618q12 69 12 126q0 142 -94 142q-122 0 -228 -102l-106 -676l148 -38l-22 -88h-496z" />
<glyph unicode="n" horiz-adv-x="1121" d="M76 0l26 90l146 40l116 768l-158 26l16 100l336 30l26 -28l-42 -152h14q63 83 162.5 145.5t185.5 62.5t128 -48.5t42 -159.5q0 -54 -12 -132l-96 -616l150 -34l-26 -88h-322l-14 14l100 618q14 101 14 136q0 70 -24 99t-76 29q-122 0 -222 -96l-108 -676l148 -38l-22 -90 h-488z" />
<glyph unicode="o" horiz-adv-x="1019" d="M148 398q0 125 42.5 249t117.5 221q75 98 182 156t224 58q159 0 238.5 -111.5t79.5 -322.5q0 -124 -40.5 -246t-111.5 -219q-72 -98 -175 -156.5t-215 -58.5q-107 0 -186 56.5t-118 154.5q-38 97 -38 219zM370 390q0 -187 72 -282q38 -50 88 -50q84 0 154 87.5t108 229.5 q36 138 36 290q0 151 -44 237t-122 86q-71 0 -128.5 -49.5t-92.5 -136.5q-71 -176 -71 -412z" />
<glyph unicode="p" horiz-adv-x="1095" d="M-14 -446l24 90l146 40l176 1218l-160 26l14 92l336 34l24 -28l-38 -154h14q41 78 130.5 142t167.5 64q120 0 203 -125.5t83 -308.5q0 -150 -48 -278.5t-131 -213.5q-81 -83 -183.5 -128.5t-211.5 -45.5q-79 0 -112 14l26 138q17 -8 51 -15t55 -7q65 0 122 16 q38 11 66.5 29.5t58.5 54.5q61 71 84 210q13 74 13 170q0 141 -46.5 228.5t-113.5 87.5q-68 0 -113.5 -21.5t-112.5 -82.5l-168 -1118l188 -38l-22 -86z" />
<glyph unicode="q" horiz-adv-x="1002" d="M141 320q0 117 33.5 231.5t94.5 207.5q127 197 300 273q90 38 176 38q77 0 126 -24l120 18l20 -8l-204 -1374l164 -38l-22 -86h-540l24 90l186 40l178 1214q-71 42 -138 42q-73 0 -135 -51t-101 -136q-78 -170 -78 -357q0 -121 37.5 -198.5t102.5 -77.5q104 0 170 54 l10 -62q-54 -71 -121 -106.5t-167 -35.5q-110 0 -173 95t-63 251z" />
<glyph unicode="r" horiz-adv-x="751" d="M76 0l26 90l144 40l120 768l-160 26l14 100l332 30l26 -28l-56 -230h18q95 284 228 284q39 0 66.5 -29t27.5 -71q0 -48 -20 -95t-46 -61q-24 14 -42.5 17t-63.5 3q-36 0 -83 -48t-79 -108l-96 -560l210 -38l-22 -90h-544z" />
<glyph unicode="s" horiz-adv-x="787" d="M98 148q0 61 40 103t108 49q57 -234 172 -234q67 0 117.5 42.5t50.5 111.5q0 72 -130 173q-98 77 -135 115q-39 42 -65 89q-38 68 -38 147q0 64 30 127.5t82 113.5q52 49 124.5 78t149.5 29q100 0 159 -43.5t59 -124.5q0 -80 -40.5 -126t-115.5 -54l-4 28 q-18 228 -120 228q-66 0 -107 -40.5t-41 -115.5q0 -114 130 -224q7 -6 30 -25.5t32.5 -27.5t29.5 -25.5t31 -29t26 -27.5t27 -32t23 -32q38 -61 38 -125q0 -121 -92 -210q-89 -84 -197 -113q-54 -15 -102 -15q-123 0 -197.5 54.5t-74.5 135.5z" />
<glyph unicode="t" horiz-adv-x="683" d="M192 940l12 58q77 55 143.5 126t150.5 184h78l-42 -252h260l-24 -116h-260l-82 -520q-16 -106 -16 -138q0 -61 18.5 -98.5t57.5 -37.5q92 0 188 40l16 -62q-58 -64 -139.5 -107t-158.5 -43q-87 0 -133.5 53.5t-46.5 156.5q0 64 12 130l100 626h-134z" />
<glyph unicode="u" horiz-adv-x="1096" d="M170 932l12 90l342 30l24 -28l-96 -570q-19 -117 -19 -184q0 -68 22 -98t75 -30q118 0 218 100l100 662l-162 28l12 90l346 30l24 -28l-92 -576q-28 -181 -28 -242q0 -47 11.5 -66t40.5 -24l80 -14l-22 -84q-84 -36 -170 -36q-73 0 -108.5 33.5t-35.5 104.5q0 20 2 38 h-12q-37 -68 -127 -125t-191 -57q-186 0 -186 222q0 49 10 122l88 584z" />
<glyph unicode="v" horiz-adv-x="929" d="M145 972l22 86h458l-22 -84l-148 -46l84 -668l290 672l-148 40l20 86h402l-24 -90l-120 -42l-442 -938l-126 -22l-130 968z" />
<glyph unicode="w" horiz-adv-x="1413" d="M147 972l22 86h428l-22 -90l-146 -40l60 -490l10 -164l298 706l162 22l72 -582l6 -160l278 674l-146 38l20 86h394l-24 -90l-116 -40l-408 -942l-128 -22l-96 766l-314 -744l-140 -22l-92 970z" />
<glyph unicode="x" horiz-adv-x="1036" d="M23 0l24 84l114 42l348 400l-186 408l-116 36l22 86h460l-24 -84l-142 -38l136 -286l226 282l-126 40l22 86h378l-26 -86l-120 -44l-314 -364l208 -436l114 -42l-22 -84h-478l24 84l148 42l-138 300l-242 -298l154 -42l-24 -86h-420z" />
<glyph unicode="y" horiz-adv-x="1007" d="M-68 -324q0 86 86 154q82 -66 172 -66q59 0 104 36t100 140l22 42l-154 952l-114 38l20 86h466l-22 -84l-150 -48l102 -654l340 660l-148 40l24 86h404l-24 -90l-116 -38l-518 -994q-116 -222 -212.5 -309t-223.5 -87q-78 0 -118 36.5t-40 99.5z" />
<glyph unicode="z" horiz-adv-x="903" d="M82 0l10 96l656 860h-346l-106 -204l-80 15l58 291h700l-12 -82l-666 -870h366l140 198l76 -10l-96 -294h-700z" />
<glyph unicode="{" horiz-adv-x="639" d="M72 472l18 120l60 10q70 12 119 68t73 142q25 90 40 177q45 248 95 360q36 80 105 125.5t167 45.5h71l-30 -120l-48 -8q-80 -13 -112 -167q-15 -70 -27 -151q-30 -208 -76 -327q-30 -77 -85 -133t-130 -76l-2 -8q81 -24 115.5 -92t34.5 -181q0 -83 -24 -244t-24 -217 q0 -116 70 -126l40 -6l-10 -122h-74q-121 0 -174.5 65.5t-53.5 192.5q0 75 22 229t22 223q0 95 -28 147t-94 63z" />
<glyph unicode="|" horiz-adv-x="461" d="M93 -424l308 1944l138 -14l-308 -1946z" />
<glyph unicode="}" horiz-adv-x="638" d="M-19 -458l30 122l40 6q87 13 122 168q13 55 29 152q30 199 79 330q29 77 84 133.5t130 76.5l2 8q-148 43 -148 258q0 79 26 246t26 222q0 60 -14 91t-48 37l-48 8l10 120h72q133 0 181 -77q43 -71 43 -187q0 -73 -21 -229q-21 -157 -21 -223q0 -89 29 -139.5t95 -62.5 l56 -10l-18 -120l-64 -10q-110 -17 -161 -138q-39 -91 -70 -269q-34 -200 -68 -287q-57 -147 -158 -196q-62 -30 -141 -30h-74z" />
<glyph unicode="~" horiz-adv-x="1147" d="M198 500q0 1 7 26q26 78 64 131q25 35 63.5 59t79.5 24h16l541 -54h5q19 0 43 17.5t41 38.5l14 18l78 -2q-1 -3 -3.5 -11.5t-4.5 -14.5q-7 -22 -26.5 -63.5t-40.5 -70.5q-26 -36 -65.5 -61t-81.5 -25q-5 0 -9 1t-9 1l-540 54h-6q-20 0 -45 -19.5t-41 -43.5l-14 -21z" />
<glyph unicode="&#xa1;" horiz-adv-x="499" d="M63 -432q38 246 238 1078v8l104 -24v-4q-67 -830 -102 -1054l-2 -4q-8 -21 -62 -34.5t-106 -13.5q-29 0 -49.5 10.5t-20.5 31.5v6zM259 958q0 73 47.5 120.5t118.5 47.5q48 0 88 -41t40 -87q0 -72 -49 -121t-121 -49q-55 0 -89.5 38.5t-34.5 91.5z" />
<glyph unicode="&#xa2;" horiz-adv-x="1022" d="M171 404q0 108 32 211t88 183q110 158 268 236q73 36 146 48l44 146l148 26l-50 -170q107 -11 153.5 -51.5t46.5 -112.5q0 -55 -48.5 -96.5t-123.5 -47.5q-3 45 -22.5 92.5t-55.5 75.5l-236 -818q48 -22 122 -22q69 0 128 20.5t136 63.5q10 -18 16 -68 q-90 -81 -188.5 -118.5t-223.5 -37.5q-22 0 -38 2l-30 -104l-148 -24l48 162q-119 60 -168 177q-44 105 -44 227zM419 492q0 -102 10 -154t44 -116l212 750q-98 -25 -182 -171t-84 -309z" />
<glyph unicode="&#xa3;" horiz-adv-x="1389" d="M73 0l24 90l210 56q38 80 60 162t54 250l18 106l-218 -12l34 122l208 12l30 166q54 289 217 428q155 134 365 134q168 0 276 -48l-100 -382l-100 16l-10 258q-47 28 -98 28q-117 0 -184 -70q-60 -64 -106 -252q-22 -90 -44 -212l-10 -58l270 16l-34 -122l-256 -16 l-10 -48q-64 -362 -154 -504l558 -4l206 306l100 -22l-108 -400h-1198z" />
<glyph unicode="&#xa4;" horiz-adv-x="986" d="M175 308l116 94q-20 42 -26 65.5t-6 68.5q0 39 27.5 115t54.5 109l-92 104l118 100l76 -106q45 33 99 52.5t99 19.5q51 0 100 -16t80 -43l110 95l76 -106l-117 -90q14 -33 17.5 -53t3.5 -69q0 -66 -24.5 -129t-61.5 -105l98 -104l-122 -100l-78 110q-106 -58 -198 -58 q-77 0 -154 50l-110 -108zM395 574q0 -101 37 -147.5t119 -46.5q90 0 160 69.5t70 162.5q0 103 -39 151.5t-125 48.5q-88 0 -155 -70t-67 -168z" />
<glyph unicode="&#xa5;" horiz-adv-x="1375" d="M234 290l36 128h362l24 154h-372l34 128h320l-186 664l-159 50l31 92h566l-30 -92l-166 -46l160 -592l358 588l-184 50l28 92h480l-28 -92l-156 -46l-414 -668h368l-34 -128h-382l-24 -154h392l-36 -128h-378l-24 -152l192 -40l-26 -98h-614l26 90l190 56l22 144h-376z " />
<glyph unicode="&#xa6;" horiz-adv-x="456" d="M94 -424l150 946l132 -14l-150 -948zM264 654l138 866l132 -14l-144 -866z" />
<glyph unicode="&#xa7;" horiz-adv-x="969" d="M6 -287l67 325l122 -18l10 -229q27 -56 88 -94.5t142 -38.5q51 0 102.5 15t99 44t82.5 80t45 116q3 16 3 32q0 48 -25 90.5t-66 74.5t-93.5 66t-107.5 64t-107.5 69t-93.5 80.5t-66 100t-25 125.5q0 35 5 63q4 28 14 59l394 -244q27 -16 77 -45t81.5 -48t75 -48.5 t70.5 -58t53.5 -64.5t39 -79.5t12.5 -92.5q0 -35 -5 -63q-16 -101 -75.5 -189t-144 -146.5t-187 -91.5t-206.5 -33q-125 0 -228 51.5t-153 127.5zM255 1051q0 35 5 63q21 132 106 232t199 149t236 49q197 0 324 -122l-81 -344l-118 14l5 233q-13 39 -66.5 77t-120.5 38 q-98 0 -169.5 -58t-89.5 -171q-3 -19 -3 -38q0 -60 33 -110.5t85.5 -88t116 -73.5t126.5 -75t115.5 -83.5t85.5 -108.5t33 -141q0 -35 -5 -63q-6 -37 -15 -65l-450 276q-141 83 -188 120q-150 114 -163 260q-1 15 -1 30z" />
<glyph unicode="&#xa8;" horiz-adv-x="831" d="M150 1774q0 41 30.5 67.5t71.5 26.5q43 0 73.5 -26.5t30.5 -67.5q0 -42 -30.5 -70t-73.5 -28q-42 0 -72 28t-30 70zM474 1774q0 41 30.5 67.5t71.5 26.5q43 0 74.5 -27t31.5 -67q0 -42 -31.5 -70t-74.5 -28q-42 0 -72 28t-30 70z" />
<glyph unicode="&#xa9;" horiz-adv-x="1698" d="M198 596q0 286 131 508q126 214 329 331q204 117 430 117q130 0 240.5 -34.5t187.5 -95.5q150 -121 201 -311q23 -90 23 -185q0 -180 -49.5 -336.5t-138.5 -271.5q-87 -112 -203 -192t-249 -119q-134 -39 -274 -39q-127 0 -233 34.5t-179 95.5q-145 119 -193 311 q-23 90 -23 187zM338 616q0 -181 76 -311q81 -143 245 -195q85 -28 195 -28q239 0 428 137q202 146 279 395q41 135 41 286q0 178 -78 310q-87 147 -252 202q-90 30 -200 30q-234 0 -418 -138q-200 -149 -275 -398q-41 -137 -41 -290zM612 652q0 102 29.5 198t79.5 168 q99 143 227 198q61 26 112 26q78 0 123 -39t45 -105q0 -47 -39.5 -77t-100.5 -35q-5 90 -34 134q-18 28 -44 28q-85 0 -157 -139t-72 -335q0 -111 38.5 -173.5t114.5 -62.5q97 0 182 64l24 -52q-46 -58 -120.5 -96t-145.5 -38q-123 0 -192.5 89t-69.5 247z" />
<glyph unicode="&#xaa;" horiz-adv-x="655" d="M182 348l20 70h410l-20 -70h-410zM242 564q0 64 58 104.5t188 63.5l6 32q4 28 4 46q0 82 -64 82q-23 0 -40 -15q-8 -7 -21 -45q-4 -14 -9 -34q-60 0 -60 40q0 39 59 70.5t119 31.5q52 0 76 -24.5t24 -75.5q0 -18 -4 -50l-28 -176q-2 -14 -2 -24q0 -19 10 -28t36 -12 l24 -4l-14 -42q-1 0 -5 -1t-7.5 -1.5t-7.5 -1.5q-26 -6 -46 -6q-32 0 -50 15.5t-18 38.5q0 3 1 6t1 6v6h-6q-16 -29 -58 -51.5t-86 -22.5q-37 0 -58.5 19.5t-21.5 52.5zM330 592q0 -48 46 -48q50 0 92 52l16 102q-85 -12 -119.5 -37t-34.5 -69z" />
<glyph unicode="&#xab;" horiz-adv-x="789" d="M114 544v24l392 426l44 -72l-258 -364l142 -388l-76 -76zM414 544v24l392 426l44 -72l-258 -364l142 -388l-76 -76z" />
<glyph unicode="&#xac;" horiz-adv-x="1172" d="M227 676l34 128h902l-58 -380l-132 -22l44 274h-790z" />
<glyph unicode="&#xad;" horiz-adv-x="776" d="M231 492l10 140l494 72l-10 -140z" />
<glyph unicode="&#xae;" horiz-adv-x="723" d="M285 1232q0 105 46 188t120 124q70 40 154 40q113 0 175 -65.5t62 -166.5q0 -151 -97 -244.5t-236 -93.5q-107 0 -165.5 61.5t-58.5 156.5zM335 1244q0 -84 47.5 -137t136.5 -53q155 0 235 133q41 68 41 161q0 87 -51.5 142.5t-144.5 55.5q-110 0 -187 -84t-77 -218z M399 1154l6 22l44 10l38 240l-42 8l6 22q85 8 108 8q68 0 95 -15.5t27 -52.5q0 -25 -21.5 -49t-58.5 -39l38 -66q26 -50 60 -65l8 -1l-10 -22q-11 -4 -30 -4q-51 0 -80 66l-30 68h-38l-14 -96l40 -12l-6 -22h-140zM525 1314h42q21 0 36.5 22.5t15.5 51.5q0 48 -58 48l-18 -2 z" />
<glyph unicode="&#xaf;" horiz-adv-x="849" d="M150 1670l16 121h534l-16 -121h-534z" />
<glyph unicode="&#xb0;" horiz-adv-x="527" d="M276 1304q0 103 74.5 177.5t167.5 74.5q88 0 123 -34t35 -120q0 -89 -76 -171.5t-164 -82.5q-76 0 -118 43.5t-42 112.5zM366 1332q0 -57 24 -91.5t70 -34.5q56 0 92 46.5t36 131.5q0 46 -23.5 80t-70.5 34q-53 0 -90.5 -49.5t-37.5 -116.5z" />
<glyph unicode="&#xb1;" horiz-adv-x="967" d="M131 16l40 126l742 8l-40 -126zM207 576l32 122h254l44 280l128 -14l-40 -266h266l-32 -122h-252l-44 -286l-132 14l44 272h-268z" />
<glyph unicode="&#xb2;" horiz-adv-x="387" d="M272 1224l4 38l122 104q64 52 64 118q0 52 -42 52q-37 0 -52 -88q-27 3 -35.5 10t-8.5 26q0 33 43 62.5t83 29.5q38 0 59 -22t21 -60q0 -46 -28 -81t-104 -95l-54 -42h160l-18 -52h-214z" />
<glyph unicode="&#xb3;" horiz-adv-x="387" d="M266 1196v8q3 17 19.5 28t34.5 14q0 -46 13 -62q10 -12 31 -12q31 0 52 22t26 56q0 5 1 8t1 8q0 30 -18.5 51t-47.5 21q-11 0 -21 -1q-11 -1 -23 -1v20v12v2q1 0 10 3q24 6 42 13q20 8 47 31q24 21 29 57q0 4 1 7t1 7q0 21 -12.5 34.5t-33.5 13.5q-20 0 -37 -21.5 t-23 -62.5q-44 3 -44 30v6q6 36 49.5 62t82.5 26q35 0 57.5 -21t22.5 -51q0 -4 -1 -7t-1 -7q-4 -34 -28.5 -66t-59.5 -50v-6q35 -10 54.5 -34.5t19.5 -55.5q0 -5 -1 -9t-1 -9q-8 -50 -49.5 -87t-94.5 -37q-51 0 -74.5 17t-23.5 43z" />
<glyph unicode="&#xb4;" horiz-adv-x="749" d="M278 1672l148 394l136 -48l-222 -384z" />
<glyph unicode="&#xb5;" horiz-adv-x="1102" d="M94 -438q0 1 2 10t6 30.5t9 43.5q53 271 87 442q54 273 92 510l46 294l-160 42l12 92l336 26l26 -30l-104 -640q-10 -67 -10 -106q0 -70 24.5 -102t75.5 -32q118 0 218 100l100 662l-162 28l12 90l346 30l24 -28l-92 -576q-28 -181 -28 -242q0 -47 11.5 -66t40.5 -24 l80 -14l-22 -84q-84 -36 -170 -36q-73 0 -108.5 33.5t-35.5 104.5q0 20 2 38h-12q-36 -67 -122 -124.5t-176 -57.5q-112 0 -146 52h-10q0 -57 -10 -150l-32 -348z" />
<glyph unicode="&#xb6;" horiz-adv-x="1602" d="M228 952q0 120 54 227.5t145 178.5q90 71 199.5 110.5t219.5 39.5l902 -2l-28 -92l-212 -46l-196 -1230l214 -40l-26 -98h-878l24 90l210 56l70 442q-78 -6 -158 -6q-251 0 -387 75q-153 84 -153 295zM484 992q0 -95 38 -163q44 -79 152 -111q58 -18 134 -18l130 8l6 -6 l110 694q-66 2 -128 2q-207 0 -324.5 -104.5t-117.5 -301.5zM1056 138l26 -4l48 12l194 1218l-44 10l-28 -6z" />
<glyph unicode="&#xb7;" horiz-adv-x="521" d="M212 588q0 69 50 114.5t116 45.5q57 0 89.5 -38t32.5 -98t-52 -105t-116 -45q-120 0 -120 126z" />
<glyph unicode="&#xb8;" horiz-adv-x="465" d="M100 -400q49 17 76.5 44t27.5 56q0 50 -88 134l118 170h90l-66 -96q108 -94 108 -182q0 -124 -242 -198z" />
<glyph unicode="&#xb9;" horiz-adv-x="327" d="M262 1222l8 28l64 16l38 240h-56l6 28l108 28h10l-46 -298l64 -12l-10 -30h-186z" />
<glyph unicode="&#xba;" horiz-adv-x="667" d="M188 348l20 70h410l-20 -70h-410zM252 660q0 83 37.5 148.5t94.5 97.5q54 30 110 30q68 0 98 -38q24 -31 30 -107q2 -38 2 -75q0 -98 -63 -164t-151 -66q-158 0 -158 174zM344 665q0 -59 21.5 -95t64.5 -36q52 0 88 59t36 155q0 138 -86 138q-54 0 -89 -57.5t-35 -163.5z " />
<glyph unicode="&#xbb;" horiz-adv-x="789" d="M108 170l266 388l-142 364l64 72l256 -426l-4 -24l-388 -450zM408 170l266 388l-142 364l64 72l256 -426l-4 -24l-388 -450z" />
<glyph unicode="&#xbc;" horiz-adv-x="1270" d="M182 610l8 36l141 23l54 442h-131l7 38l204 37h13l-64 -520l131 -16l-10 -40h-353zM187 -36l987 1203l99 10l-983 -1203zM728 210l346 371l31 -9q-15 -84 -34 -240l-12 -99h124l-15 -61h-116l-21 -165l-81 -13l22 180h-237zM813 233h164l26 209z" />
<glyph unicode="&#xbd;" horiz-adv-x="1273" d="M187 -36l987 1203l99 10l-983 -1203zM206 610l8 36l141 23l54 442h-131l7 38l204 37h13l-64 -520l131 -16l-10 -40h-353zM770 0l4 50l130 99q55 43 90 75t68.5 80.5t39.5 94.5q2 12 2 34q0 89 -85 89q-80 0 -145 -124l-38 15q24 67 86.5 121t133.5 54q140 0 140 -133 q0 -10 -2 -34q-5 -39 -25 -77t-54 -73.5t-62.5 -60t-72 -58.5t-59.5 -48l-50 -36h234l56 84l33 -5l-45 -147h-379z" />
<glyph unicode="&#xbe;" horiz-adv-x="1270" d="M187 -36l987 1203l99 10l-983 -1203zM193 656q0 21 19 36t49 18q0 -19 25.5 -47t56.5 -28q115 0 131 116q0 2 0.5 5.5t0.5 5.5q0 44 -37 79t-97 35h-8l-1 32q20 6 48 19t65 47t42 74q1 5 1 14q0 31 -18 50.5t-57 19.5q-66 0 -106 -74l-34 13q13 44 65 84.5t113 40.5 q53 0 90 -30.5t37 -77.5q0 -9 -1 -14q-6 -55 -43.5 -92t-89.5 -56v-5q56 -8 88 -44t32 -82q0 -10 -1 -15q-10 -79 -82.5 -133.5t-168.5 -54.5q-57 0 -88 19t-31 45zM728 210l346 371l31 -9q-15 -84 -34 -240l-12 -99h124l-15 -61h-116l-21 -165l-81 -13l22 180h-237z M813 233h164l26 209z" />
<glyph unicode="&#xbf;" horiz-adv-x="813" d="M84 -32q0 155 85 237q67 64 176 118q38 19 59.5 30.5t46.5 31.5t40 42q23 35 23 81q0 56 -8 120l92 20q54 -101 54 -212q0 -130 -87 -198q-58 -46 -180 -100q-55 -24 -90.5 -49t-57.5 -61q-25 -40 -25 -94q0 -79 51 -135t113 -56q151 0 246 87q31 -13 50.5 -45.5 t19.5 -76.5q0 -56 -61 -112q-31 -29 -85.5 -46.5t-119.5 -17.5q-144 0 -243 125t-99 311zM464 964q0 73 47.5 120.5t118.5 47.5q48 0 88 -41t40 -87q0 -72 -49 -121t-121 -49q-55 0 -89.5 38.5t-34.5 91.5z" />
<glyph unicode="&#xc0;" d="M-39 0l22 90l180 66l716 1342l178 38l228 -1386l150 -52l-22 -98h-586l24 90l208 66l-68 368h-484l-186 -374l206 -52l-26 -98h-540zM569 646h406l-96 606zM739 2010l140 46l160 -404l-70 -42z" />
<glyph unicode="&#xc1;" d="M-39 0l22 90l180 66l716 1342l178 38l228 -1386l150 -52l-22 -98h-586l24 90l208 66l-68 368h-484l-186 -374l206 -52l-26 -98h-540zM569 646h406l-96 606zM967 1672l148 394l136 -48l-222 -384z" />
<glyph unicode="&#xc2;" d="M-39 0l22 90l180 66l716 1342l178 38l228 -1386l150 -52l-22 -98h-586l24 90l208 66l-68 368h-484l-186 -374l206 -52l-26 -98h-540zM569 646h406l-96 606zM735 1680l204 218l66 16l216 -225l-60 -43l-198 132h-12l-170 -134z" />
<glyph unicode="&#xc3;" d="M-39 0l22 90l180 66l716 1342l178 38l228 -1386l150 -52l-22 -98h-586l24 90l208 66l-68 368h-484l-186 -374l206 -52l-26 -98h-540zM569 646h406l-96 606zM697 1670q2 6 3 10q6 24 22 59q20 44 47 71q34 34 76 34q5 0 8 -1t8 -1l270 -36h4q13 0 30 12t28 26l10 12l58 -2 q-1 -3 -2.5 -9.5t-2.5 -9.5q-16 -50 -48 -94q-45 -61 -105 -61h-14l-270 38h-4q-15 0 -33 -14t-29 -30l-10 -14z" />
<glyph unicode="&#xc4;" d="M-39 0l22 90l180 66l716 1342l178 38l228 -1386l150 -52l-22 -98h-586l24 90l208 66l-68 368h-484l-186 -374l206 -52l-26 -98h-540zM569 646h406l-96 606zM713 1774q0 41 30.5 67.5t71.5 26.5q43 0 73.5 -26.5t30.5 -67.5q0 -42 -30.5 -70t-73.5 -28q-42 0 -72 28 t-30 70zM1037 1774q0 41 30.5 67.5t71.5 26.5q43 0 74.5 -27t31.5 -67q0 -42 -31.5 -70t-74.5 -28q-42 0 -72 28t-30 70z" />
<glyph unicode="&#xc5;" d="M-39 0l22 90l180 66l716 1342l178 38l228 -1386l150 -52l-22 -98h-586l24 90l208 66l-68 368h-484l-186 -374l206 -52l-26 -98h-540zM569 646h406l-96 606zM783 1850q0 85 60 146.5t144 61.5q86 0 137 -54t51 -142t-58 -150t-146 -62q-85 0 -136.5 54t-51.5 146z M869 1864q0 -64 31.5 -110t84.5 -46q50 0 77 36t27 102q0 65 -32 109.5t-84 44.5q-49 0 -76.5 -38.5t-27.5 -97.5z" />
<glyph unicode="&#xc6;" horiz-adv-x="1955" d="M-54 0l22 92l166 66l1036 1348h894l-96 -382l-96 16l-6 256h-504l-92 -572h298l72 148l112 8l-112 -466l-104 -18l-4 214h-280l-94 -594h536l158 282l90 -18l-94 -380h-550h-510h-60l24 90l196 54l6 2l66 426h-414l-315 -420l207 -52l-26 -100h-526zM684 686h352l96 595z " />
<glyph unicode="&#xc7;" horiz-adv-x="1390" d="M204 584q0 177 72 359q79 203 216 342q160 162 362 221q114 32 236 32q262 0 396 -122l-100 -402l-98 16l-4 266q-34 59 -106.5 92.5t-175.5 33.5q-105 0 -203 -55.5t-174 -154.5q-77 -101 -121 -247.5t-44 -312.5q0 -129 34.5 -231.5t97.5 -165.5q124 -127 308 -127 q221 0 420 184l46 -66q-203 -238 -496 -272l-46 -66q108 -94 108 -182q0 -124 -242 -198l-24 72q49 17 76.5 44t27.5 56q0 50 -88 134l94 136q-239 5 -401 160q-80 76 -125.5 194t-45.5 260z" />
<glyph unicode="&#xc8;" horiz-adv-x="1373" d="M100 0l18 90l200 56l192 1218l-202 50l20 92h1154l-96 -386l-98 16l-6 260h-546l-90 -576h336l74 144l110 16l-112 -470l-102 -16l-6 212h-318l-94 -590h574l158 278l94 -14l-96 -380h-1164zM818 2010l140 46l160 -404l-70 -42z" />
<glyph unicode="&#xc9;" horiz-adv-x="1373" d="M100 0l18 90l200 56l192 1218l-202 50l20 92h1154l-96 -386l-98 16l-6 260h-546l-90 -576h336l74 144l110 16l-112 -470l-102 -16l-6 212h-318l-94 -590h574l158 278l94 -14l-96 -380h-1164zM956 1672l148 394l136 -48l-222 -384z" />
<glyph unicode="&#xca;" horiz-adv-x="1373" d="M100 0l18 90l200 56l192 1218l-202 50l20 92h1154l-96 -386l-98 16l-6 260h-546l-90 -576h336l74 144l110 16l-112 -470l-102 -16l-6 212h-318l-94 -590h574l158 278l94 -14l-96 -380h-1164zM724 1680l204 218l66 16l216 -225l-60 -43l-198 132h-12l-170 -134z" />
<glyph unicode="&#xcb;" horiz-adv-x="1373" d="M100 0l18 90l200 56l192 1218l-202 50l20 92h1154l-96 -386l-98 16l-6 260h-546l-90 -576h336l74 144l110 16l-112 -470l-102 -16l-6 212h-318l-94 -590h574l158 278l94 -14l-96 -380h-1164zM702 1774q0 41 30.5 67.5t71.5 26.5q43 0 73.5 -26.5t30.5 -67.5 q0 -42 -30.5 -70t-73.5 -28q-42 0 -72 28t-30 70zM1026 1774q0 41 30.5 67.5t71.5 26.5q43 0 74 -27t31 -67q0 -42 -31 -70t-74 -28q-42 0 -72 28t-30 70z" />
<glyph unicode="&#xcc;" horiz-adv-x="811" d="M100 0l18 90l200 56l192 1218l-202 50l20 92h628l-20 -92l-204 -46l-194 -1230l206 -40l-23 -98h-621zM412 2010l140 46l160 -404l-70 -42z" />
<glyph unicode="&#xcd;" horiz-adv-x="811" d="M100 0l18 90l200 56l192 1218l-202 50l20 92h628l-20 -92l-204 -46l-194 -1230l206 -40l-23 -98h-621zM630 1672l148 394l136 -48l-222 -384z" />
<glyph unicode="&#xce;" horiz-adv-x="811" d="M100 0l18 90l200 56l192 1218l-202 50l20 92h628l-20 -92l-204 -46l-194 -1230l206 -40l-23 -98h-621zM418 1680l204 218l66 16l216 -225l-60 -43l-198 132h-12l-170 -134z" />
<glyph unicode="&#xcf;" horiz-adv-x="811" d="M100 0l18 90l200 56l192 1218l-202 50l20 92h628l-20 -92l-204 -46l-194 -1230l206 -40l-23 -98h-621zM396 1774q0 41 30.5 67.5t71.5 26.5q43 0 73.5 -26.5t30.5 -67.5q0 -42 -30.5 -70t-73.5 -28q-42 0 -72 28t-30 70zM720 1774q0 41 30.5 67.5t71.5 26.5 q43 0 74.5 -27t31.5 -67q0 -42 -31.5 -70t-74.5 -28q-42 0 -72 28t-30 70z" />
<glyph unicode="&#xd0;" horiz-adv-x="1633" d="M88 0l24 90l208 66l82 514l-184 -8l32 122l170 8l86 544l-194 36l24 92q369 60 604 60q318 0 498 -118q80 -53 134.5 -129t77.5 -163q22 -84 22 -184q0 -291 -185 -530q-193 -250 -503 -348q-163 -52 -348 -52h-548zM534 126h170q154 0 289 59t227 161 q91 101 141.5 232.5t50.5 273.5q0 239 -129 389q-65 76 -169.5 117.5t-237.5 41.5q-73 0 -142 -8l-94 -592l348 16l-34 -122l-332 -14z" />
<glyph unicode="&#xd1;" horiz-adv-x="1644" d="M101 0l18 90l200 56l190 1208l-200 60l20 92h404l556 -1176l162 1034l-206 50l22 92h548l-22 -92l-200 -46l-216 -1368l-176 -36l-576 1200l-162 -1026l208 -40l-22 -98h-548zM787 1670q2 6 3 10q6 24 22 59q20 44 47 71q34 34 76 34q5 0 8 -1t8 -1l270 -36h4q13 0 30 12 t28 26l10 12l58 -2q-1 -3 -2.5 -9.5t-2.5 -9.5q-16 -50 -48 -94q-45 -61 -105 -61h-14l-270 38h-4q-15 0 -33 -14t-29 -30l-10 -14z" />
<glyph unicode="&#xd2;" horiz-adv-x="1622" d="M212 612q0 196 64 368t180 297q117 125 282.5 195t355.5 70q130 0 236.5 -51t176.5 -143q141 -186 141 -466q0 -301 -154 -530q-162 -243 -428 -335q-140 -49 -300 -49q-166 0 -294 84.5t-194 231.5q-66 146 -66 328zM476 640q0 -181 54 -313q60 -148 175 -201 q61 -30 139 -30q192 0 316 104q107 90 165 247q47 133 60 288q5 72 5 129q0 219 -85 383q-44 83 -118 130t-167 47q-96 0 -178.5 -28t-139.5 -76q-53 -45 -95.5 -111.5t-67.5 -137.5q-47 -133 -58 -295q-5 -73 -5 -136zM956 2014l140 46l160 -404l-70 -42z" />
<glyph unicode="&#xd3;" horiz-adv-x="1622" d="M212 612q0 196 64 368t180 297q117 125 282.5 195t355.5 70q130 0 236.5 -51t176.5 -143q141 -186 141 -466q0 -301 -154 -530q-162 -243 -428 -335q-140 -49 -300 -49q-166 0 -294 84.5t-194 231.5q-66 146 -66 328zM476 640q0 -181 54 -313q60 -148 175 -201 q61 -30 139 -30q192 0 316 104q107 90 165 247q47 133 60 288q5 72 5 129q0 219 -85 383q-44 83 -118 130t-167 47q-96 0 -178.5 -28t-139.5 -76q-53 -45 -95.5 -111.5t-67.5 -137.5q-47 -133 -58 -295q-5 -73 -5 -136zM1134 1676l148 394l136 -48l-222 -384z" />
<glyph unicode="&#xd4;" horiz-adv-x="1622" d="M212 612q0 196 64 368t180 297q117 125 282.5 195t355.5 70q130 0 236.5 -51t176.5 -143q141 -186 141 -466q0 -301 -154 -530q-162 -243 -428 -335q-140 -49 -300 -49q-166 0 -294 84.5t-194 231.5q-66 146 -66 328zM476 640q0 -181 54 -313q60 -148 175 -201 q61 -30 139 -30q192 0 316 104q107 90 165 247q47 133 60 288q5 72 5 129q0 219 -85 383q-44 83 -118 130t-167 47q-96 0 -178.5 -28t-139.5 -76q-53 -45 -95.5 -111.5t-67.5 -137.5q-47 -133 -58 -295q-5 -73 -5 -136zM862 1684l204 218l66 16l216 -224l-60 -44l-198 132 h-12l-170 -134z" />
<glyph unicode="&#xd5;" horiz-adv-x="1622" d="M212 612q0 196 64 368t180 297q117 125 282.5 195t355.5 70q130 0 236.5 -51t176.5 -143q141 -186 141 -466q0 -301 -154 -530q-162 -243 -428 -335q-140 -49 -300 -49q-166 0 -294 84.5t-194 231.5q-66 146 -66 328zM476 640q0 -181 54 -313q60 -148 175 -201 q61 -30 139 -30q192 0 316 104q107 90 165 247q47 133 60 288q5 72 5 129q0 219 -85 383q-44 83 -118 130t-167 47q-96 0 -178.5 -28t-139.5 -76q-53 -45 -95.5 -111.5t-67.5 -137.5q-47 -133 -58 -295q-5 -73 -5 -136zM824 1674q2 6 3 10q6 24 22 59q20 44 47 71 q34 34 76 34q5 0 8 -1t8 -1l270 -36h4q13 0 30 12t28 26l10 12l58 -2q-1 -3 -2.5 -9.5t-2.5 -9.5q-16 -50 -48 -94q-45 -61 -105 -61h-14l-270 38h-4q-15 0 -33 -14t-29 -30l-10 -14z" />
<glyph unicode="&#xd6;" horiz-adv-x="1622" d="M212 612q0 196 64 368t180 297q117 125 282.5 195t355.5 70q130 0 236.5 -51t176.5 -143q141 -186 141 -466q0 -301 -154 -530q-162 -243 -428 -335q-140 -49 -300 -49q-166 0 -294 84.5t-194 231.5q-66 146 -66 328zM476 640q0 -181 54 -313q60 -148 175 -201 q61 -30 139 -30q192 0 316 104q107 90 165 247q47 133 60 288q5 72 5 129q0 219 -85 383q-44 83 -118 130t-167 47q-96 0 -178.5 -28t-139.5 -76q-53 -45 -95.5 -111.5t-67.5 -137.5q-47 -133 -58 -295q-5 -73 -5 -136zM840 1778q0 41 30.5 67.5t71.5 26.5q43 0 73.5 -27 t30.5 -67q0 -42 -30.5 -70t-73.5 -28q-42 0 -72 28t-30 70zM1164 1778q0 41 30.5 67.5t71.5 26.5q43 0 74.5 -27t31.5 -67q0 -42 -31.5 -70t-74.5 -28q-42 0 -72 28t-30 70z" />
<glyph unicode="&#xd7;" horiz-adv-x="793" d="M172 376l216 184l-156 190l112 80l156 -186l232 194l62 -102l-218 -182l162 -194l-114 -80l-158 190l-230 -194z" />
<glyph unicode="&#xd8;" horiz-adv-x="1622" d="M212 612q0 196 64 368t180 297q117 125 282.5 195t355.5 70q142 0 257 -62l51 78l163 10l-108 -164q27 -26 50 -56q141 -186 141 -466q0 -301 -154 -530q-162 -243 -428 -335q-140 -49 -300 -49q-124 0 -227 47l-69 -105l-159 -10l120 182q-98 78 -153 202 q-66 146 -66 328zM417 110q0 -14 427 -14q192 0 316 104q107 90 165 247q47 133 60 288q5 72 5 129q0 209 -77 368l-693 -1049q4 -4 4 -7q0 -13 -52 -26.5t-103.5 -24t-51.5 -15.5zM476 638q0 -222 85 -376l9 -15l696 1059q-95 118 -246 118q-96 0 -178.5 -28t-139.5 -76 q-107 -91 -163 -250q-47 -135 -58 -296q-5 -73 -5 -136z" />
<glyph unicode="&#xd9;" horiz-adv-x="1643" d="M265 1414l22 92h624l-18 -92l-204 -46l-120 -770q-12 -75 -12 -134q0 -176 88 -264t250 -88q141 0 236 60q82 51 134 146q40 75 64 178q7 31 16 86l124 782l-200 50l18 92h552l-20 -92l-202 -46l-126 -764q-107 -636 -694 -636q-139 0 -246 50q-68 31 -113 80t-74 128 q-31 81 -31 190q0 68 12 152l126 796zM969 2010l140 46l160 -404l-70 -42z" />
<glyph unicode="&#xda;" horiz-adv-x="1643" d="M265 1414l22 92h624l-18 -92l-204 -46l-120 -770q-12 -75 -12 -134q0 -176 88 -264t250 -88q141 0 236 60q82 51 134 146q40 75 64 178q7 31 16 86l124 782l-200 50l18 92h552l-20 -92l-202 -46l-126 -764q-107 -636 -694 -636q-139 0 -246 50q-68 31 -113 80t-74 128 q-31 81 -31 190q0 68 12 152l126 796zM1067 1662l148 394l136 -48l-222 -384z" />
<glyph unicode="&#xdb;" horiz-adv-x="1643" d="M265 1414l22 92h624l-18 -92l-204 -46l-120 -770q-12 -75 -12 -134q0 -176 88 -264t250 -88q141 0 236 60q82 51 134 146q40 75 64 178q7 31 16 86l124 782l-200 50l18 92h552l-20 -92l-202 -46l-126 -764q-107 -636 -694 -636q-139 0 -246 50q-68 31 -113 80t-74 128 q-31 81 -31 190q0 68 12 152l126 796zM875 1680l204 218l66 16l216 -225l-60 -43l-198 132h-12l-170 -134z" />
<glyph unicode="&#xdc;" horiz-adv-x="1643" d="M265 1414l22 92h624l-18 -92l-204 -46l-120 -770q-12 -75 -12 -134q0 -176 88 -264t250 -88q141 0 236 60q82 51 134 146q40 75 64 178q7 31 16 86l124 782l-200 50l18 92h552l-20 -92l-202 -46l-126 -764q-107 -636 -694 -636q-139 0 -246 50q-68 31 -113 80t-74 128 q-31 81 -31 190q0 68 12 152l126 796zM853 1774q0 41 30.5 67.5t71.5 26.5q43 0 73.5 -26.5t30.5 -67.5q0 -42 -30.5 -70t-73.5 -28q-42 0 -72 28t-30 70zM1177 1774q0 41 30.5 67.5t71.5 26.5q43 0 74.5 -27t31.5 -67q0 -42 -31.5 -70t-74.5 -28q-42 0 -72 28t-30 70z" />
<glyph unicode="&#xdd;" horiz-adv-x="1278" d="M188 1414l24 92h578l-22 -92l-190 -46l232 -596l396 592l-200 50l18 92h512l-18 -92l-152 -46l-512 -728l-80 -502l186 -40l-22 -98h-586l20 90l182 56l74 466l-292 752zM914 1672l148 394l136 -48l-222 -384z" />
<glyph unicode="&#xde;" horiz-adv-x="1311" d="M100 0l18 90l200 56l192 1218l-202 50l20 92h628l-20 -92l-204 -46l-18 -114q78 6 154 6q177 0 297 -46q137 -52 189 -170q28 -63 28 -146q0 -120 -49 -227t-134 -180q-84 -74 -193 -115.5t-222 -41.5q-60 0 -130 10l-8 100h62q212 0 319 103.5t107 302.5 q0 143 -77.5 226.5t-226.5 83.5l-124 -6l-8 -4l-160 -1012l206 -40l-23 -98h-621z" />
<glyph unicode="&#xdf;" horiz-adv-x="1186" d="M61 0l20 92l150 40l128 818h-144l20 82l144 44q27 125 104 237.5t180 179.5q101 65 196 65q151 0 218 -82q58 -72 58 -166q0 -91 -57 -163q-25 -32 -117 -122q-75 -71 -98 -124q-16 -36 -16 -77q0 -111 127 -216q9 -8 34.5 -28.5t37 -30t32.5 -28.5t34 -32.5t28.5 -32.5 t27.5 -37q37 -58 37 -123q0 -73 -38 -139t-99 -109q-127 -90 -255 -90q-123 0 -197.5 55t-74.5 135q0 61 40 103t108 49q57 -234 172 -234q67 0 117.5 42.5t50.5 111.5q0 72 -130 173q-98 77 -135 115q-39 42 -65 89q-38 68 -38 147q0 103 98 231q14 17 41.5 52t40.5 53 q98 123 98 210q0 70 -32 103t-106 33q-93 0 -143.5 -62t-72.5 -206l-180 -1158h-344z" />
<glyph unicode="&#xe0;" horiz-adv-x="1034" d="M145 332q0 135 38 256.5t103 210.5q130 178 310 243q86 30 167 30q157 0 224 -42l20 -22l-86 -550q-32 -212 -32 -262q0 -41 11 -58t41 -22l82 -14l-24 -84q-84 -36 -170 -36q-64 0 -104 30t-40 88v14l4 46h-14q-46 -82 -123.5 -134t-162.5 -52q-113 0 -178.5 95.5 t-65.5 262.5zM341 388q0 -260 146 -260q60 0 107 28t101 88l104 660q-45 42 -144 42q-89 0 -164 -84t-113 -215q-37 -124 -37 -259zM637 1582l140 46l160 -404l-70 -42z" />
<glyph unicode="&#xe1;" horiz-adv-x="1034" d="M145 332q0 135 38 256.5t103 210.5q130 178 310 243q86 30 167 30q157 0 224 -42l20 -22l-86 -550q-32 -212 -32 -262q0 -41 11 -58t41 -22l82 -14l-24 -84q-84 -36 -170 -36q-64 0 -104 30t-40 88v14l4 46h-14q-46 -82 -123.5 -134t-162.5 -52q-113 0 -178.5 95.5 t-65.5 262.5zM341 388q0 -260 146 -260q60 0 107 28t101 88l104 660q-45 42 -144 42q-89 0 -164 -84t-113 -215q-37 -124 -37 -259zM795 1244l148 394l136 -48l-222 -384z" />
<glyph unicode="&#xe2;" horiz-adv-x="1034" d="M145 332q0 135 38 256.5t103 210.5q130 178 310 243q86 30 167 30q157 0 224 -42l20 -22l-86 -550q-32 -212 -32 -262q0 -41 11 -58t41 -22l82 -14l-24 -84q-84 -36 -170 -36q-64 0 -104 30t-40 88v14l4 46h-14q-46 -82 -123.5 -134t-162.5 -52q-113 0 -178.5 95.5 t-65.5 262.5zM341 388q0 -260 146 -260q60 0 107 28t101 88l104 660q-45 42 -144 42q-89 0 -164 -84t-113 -215q-37 -124 -37 -259zM583 1252l204 218l66 16l216 -224l-60 -44l-198 132h-12l-170 -134z" />
<glyph unicode="&#xe3;" horiz-adv-x="1034" d="M145 332q0 135 38 256.5t103 210.5q130 178 310 243q86 30 167 30q157 0 224 -42l20 -22l-86 -550q-32 -212 -32 -262q0 -41 11 -58t41 -22l82 -14l-24 -84q-84 -36 -170 -36q-64 0 -104 30t-40 88v14l4 46h-14q-46 -82 -123.5 -134t-162.5 -52q-113 0 -178.5 95.5 t-65.5 262.5zM341 388q0 -260 146 -260q60 0 107 28t101 88l104 660q-45 42 -144 42q-89 0 -164 -84t-113 -215q-37 -124 -37 -259zM545 1242q2 6 3 10q6 24 22 59q20 44 47 71q34 34 76 34q5 0 8 -1t8 -1l270 -36h4q13 0 30 12t28 26l10 12l58 -2q-1 -3 -2.5 -9.5 t-2.5 -9.5q-16 -50 -48 -94q-45 -61 -105 -61h-14l-270 38h-4q-15 0 -33 -14t-29 -30l-10 -14z" />
<glyph unicode="&#xe4;" horiz-adv-x="1034" d="M145 332q0 135 38 256.5t103 210.5q130 178 310 243q86 30 167 30q157 0 224 -42l20 -22l-86 -550q-32 -212 -32 -262q0 -41 11 -58t41 -22l82 -14l-24 -84q-84 -36 -170 -36q-64 0 -104 30t-40 88v14l4 46h-14q-46 -82 -123.5 -134t-162.5 -52q-113 0 -178.5 95.5 t-65.5 262.5zM341 388q0 -260 146 -260q60 0 107 28t101 88l104 660q-45 42 -144 42q-89 0 -164 -84t-113 -215q-37 -124 -37 -259zM561 1346q0 41 30.5 67.5t71.5 26.5q43 0 73.5 -27t30.5 -67q0 -42 -30.5 -70t-73.5 -28q-42 0 -72 28t-30 70zM885 1346q0 41 30.5 67.5 t71.5 26.5q43 0 74.5 -27t31.5 -67q0 -42 -31.5 -70t-74.5 -28q-42 0 -72 28t-30 70z" />
<glyph unicode="&#xe5;" horiz-adv-x="1034" d="M145 332q0 135 38 256.5t103 210.5q130 178 310 243q86 30 167 30q157 0 224 -42l20 -22l-86 -550q-32 -212 -32 -262q0 -41 11 -58t41 -22l82 -14l-24 -84q-84 -36 -170 -36q-64 0 -104 30t-40 88v14l4 46h-14q-46 -82 -123.5 -134t-162.5 -52q-113 0 -178.5 95.5 t-65.5 262.5zM341 388q0 -260 146 -260q60 0 107 28t101 88l104 660q-45 42 -144 42q-89 0 -164 -84t-113 -215q-37 -124 -37 -259zM631 1422q0 85 60 146.5t144 61.5q86 0 137 -54t51 -142t-58 -150t-146 -62q-85 0 -136.5 54t-51.5 146zM717 1436q0 -64 31.5 -109.5 t84.5 -45.5q50 0 77 35.5t27 101.5q0 65 -32 109.5t-84 44.5q-49 0 -76.5 -38.5t-27.5 -97.5z" />
<glyph unicode="&#xe6;" horiz-adv-x="1466" d="M145 332q0 135 38 256.5t103 210.5q130 178 310 243q86 30 167 30q68 0 127.5 -28.5t80.5 -79.5q131 114 286 114q228 0 228 -278q0 -142 -57 -246l-495 -22q-9 -52 -9 -110q0 -157 72 -229q69 -69 177 -69q44 0 124 32.5t104 57.5l32 -54q-49 -76 -156.5 -136 t-217.5 -60q-239 0 -306 226q-24 -30 -66 -74q-135 -142 -298 -142q-113 0 -178.5 95.5t-65.5 262.5zM341 388q0 -260 146 -260q60 0 107 28t101 88l104 660q-45 42 -144 42q-89 0 -164 -84t-113 -215q-37 -124 -37 -259zM945 620l330 26q26 54 26 144q-5 176 -116 176 q-71 0 -137 -85q-67 -85 -103 -261z" />
<glyph unicode="&#xe7;" horiz-adv-x="810" d="M150 372q0 125 36 241.5t96 203.5q58 84 130.5 147t145.5 95q72 31 136 31q95 0 149.5 -47t54.5 -127q0 -58 -47 -95t-121 -43q-6 75 -24 129q-22 69 -72 69q-45 0 -92.5 -41t-89.5 -114q-42 -74 -68 -186t-26 -235q0 -136 46 -212t138 -76q64 0 112 18t110 58l28 -60 q-42 -53 -104.5 -93.5t-129.5 -58.5l-48 -68q108 -94 108 -182q0 -124 -242 -198l-24 72q49 17 76.5 44t27.5 56q0 50 -88 134l90 130q-145 3 -226.5 110t-81.5 298z" />
<glyph unicode="&#xe8;" horiz-adv-x="887" d="M152 370q0 189 68 350.5t190 259.5t268 98q228 0 228 -286q0 -129 -58 -238l-494 -22q-9 -52 -9 -110q0 -157 72 -229q69 -69 177 -69q44 0 124.5 32.5t103.5 57.5l32 -54q-49 -76 -156.5 -136t-217.5 -60q-154 0 -241 103t-87 303zM367 620l329 26q26 54 26 144 q-5 176 -116 176q-70 0 -136 -85q-67 -85 -103 -261zM457 1582l140 46l160 -404l-70 -42z" />
<glyph unicode="&#xe9;" horiz-adv-x="887" d="M152 370q0 189 68 350.5t190 259.5t268 98q228 0 228 -286q0 -129 -58 -238l-494 -22q-9 -52 -9 -110q0 -157 72 -229q69 -69 177 -69q44 0 124.5 32.5t103.5 57.5l32 -54q-49 -76 -156.5 -136t-217.5 -60q-154 0 -241 103t-87 303zM367 620l329 26q26 54 26 144 q-5 176 -116 176q-70 0 -136 -85q-67 -85 -103 -261zM686 1234l147 394l136 -48l-222 -384z" />
<glyph unicode="&#xea;" horiz-adv-x="887" d="M152 370q0 189 68 350.5t190 259.5t268 98q228 0 228 -286q0 -129 -58 -238l-494 -22q-9 -52 -9 -110q0 -157 72 -229q69 -69 177 -69q44 0 124.5 32.5t103.5 57.5l32 -54q-49 -76 -156.5 -136t-217.5 -60q-154 0 -241 103t-87 303zM367 620l329 26q26 54 26 144 q-5 176 -116 176q-70 0 -136 -85q-67 -85 -103 -261zM444 1260l204 217l65 17l216 -225l-60 -43l-198 132h-12l-170 -134z" />
<glyph unicode="&#xeb;" horiz-adv-x="887" d="M152 370q0 189 68 350.5t190 259.5t268 98q228 0 228 -286q0 -129 -58 -238l-494 -22q-9 -52 -9 -110q0 -157 72 -229q69 -69 177 -69q44 0 124.5 32.5t103.5 57.5l32 -54q-49 -76 -156.5 -136t-217.5 -60q-154 0 -241 103t-87 303zM367 620l329 26q26 54 26 144 q-5 176 -116 176q-70 0 -136 -85q-67 -85 -103 -261zM448 1346q0 41 30.5 67.5t71.5 26.5q43 0 73.5 -27t30.5 -67q0 -42 -30.5 -70t-73.5 -28q-42 0 -72 28t-30 70zM771 1346q0 41 30.5 67.5t71.5 26.5q43 0 74.5 -27t31.5 -67q0 -42 -31.5 -70t-74.5 -28q-42 0 -72 28 t-30 70z" />
<glyph unicode="&#xec;" horiz-adv-x="601" d="M73 0l22 88l148 40l122 776l-158 26l12 92l332 30l24 -28l-140 -900l152 -38l-20 -86h-494zM226 1582l140 46l159 -404l-69 -42z" />
<glyph unicode="&#xed;" horiz-adv-x="602" d="M74 0l22 88l148 40l122 776l-158 26l12 92l332 30l24 -28l-140 -900l152 -38l-20 -86h-494zM465 1244l148 394l136 -48l-222 -384z" />
<glyph unicode="&#xee;" horiz-adv-x="602" d="M74 0l22 88l148 40l122 776l-158 26l12 92l332 30l24 -28l-140 -900l152 -38l-20 -86h-494zM294 1252l204 218l66 16l216 -224l-60 -44l-198 132h-12l-170 -134z" />
<glyph unicode="&#xef;" horiz-adv-x="602" d="M74 0l22 88l148 40l122 776l-158 26l12 92l332 30l24 -28l-140 -900l152 -38l-20 -86h-494zM272 1346q0 41 30.5 67.5t71.5 26.5q43 0 73.5 -27t30.5 -67q0 -42 -30.5 -70t-73.5 -28q-42 0 -72 28t-30 70zM596 1346q0 41 30.5 67.5t71.5 26.5q43 0 74.5 -27t31.5 -67 q0 -42 -31.5 -70t-74.5 -28q-42 0 -72 28t-30 70z" />
<glyph unicode="&#xf0;" horiz-adv-x="1083" d="M155 400q0 137 34 254.5t93 197.5q56 76 130.5 131.5t151.5 80.5q77 24 151 24q43 0 91 -21q58 -25 71 -89h8q-17 117 -92 318l-256 -50l28 94l198 40q-51 106 -128 198h134q84 -74 150 -162l176 38l-28 -94l-104 -20q67 -122 95.5 -248t28.5 -296t-34 -314.5t-92 -240.5 q-56 -91 -130.5 -154.5t-152.5 -91.5q-76 -27 -153 -27q-172 0 -271 110.5t-99 321.5zM367 436q0 -168 50.5 -259t151.5 -91q138 0 221 153t83 421q0 143 -49 229.5t-139 86.5q-109 0 -185 -73q-84 -81 -116 -254q-17 -97 -17 -213z" />
<glyph unicode="&#xf1;" horiz-adv-x="1121" d="M76 0l26 90l146 40l116 768l-158 26l16 100l336 30l26 -28l-42 -152h14q63 83 162.5 145.5t185.5 62.5t128 -48.5t42 -159.5q0 -54 -12 -132l-96 -616l150 -34l-26 -88h-322l-14 14l100 618q14 101 14 136q0 70 -24 99t-76 29q-122 0 -222 -96l-108 -676l148 -38l-22 -90 h-488zM474 1242q2 6 3 10q6 24 22 59q20 44 47 71q34 34 76 34q5 0 8 -1t8 -1l270 -36h4q13 0 30 12t28 26l10 12l58 -2q-1 -3 -2.5 -9.5t-2.5 -9.5q-16 -50 -48 -94q-45 -61 -105 -61h-14l-270 38h-4q-15 0 -33 -14t-29 -30l-10 -14z" />
<glyph unicode="&#xf2;" horiz-adv-x="1019" d="M148 398q0 125 42.5 249t117.5 221q75 98 182 156t224 58q159 0 238.5 -111.5t79.5 -322.5q0 -124 -40.5 -246t-111.5 -219q-72 -98 -175 -156.5t-215 -58.5q-107 0 -186 56.5t-118 154.5q-38 97 -38 219zM370 390q0 -187 72 -282q38 -50 88 -50q84 0 154 87.5t108 229.5 q36 138 36 290q0 151 -44 237t-122 86q-71 0 -128.5 -49.5t-92.5 -136.5q-71 -176 -71 -412zM554 1582l140 46l160 -404l-70 -42z" />
<glyph unicode="&#xf3;" horiz-adv-x="1019" d="M148 398q0 125 42.5 249t117.5 221q75 98 182 156t224 58q159 0 238.5 -111.5t79.5 -322.5q0 -124 -40.5 -246t-111.5 -219q-72 -98 -175 -156.5t-215 -58.5q-107 0 -186 56.5t-118 154.5q-38 97 -38 219zM370 390q0 -187 72 -282q38 -50 88 -50q84 0 154 87.5t108 229.5 q36 138 36 290q0 151 -44 237t-122 86q-71 0 -128.5 -49.5t-92.5 -136.5q-71 -176 -71 -412zM732 1244l148 394l136 -48l-222 -384z" />
<glyph unicode="&#xf4;" horiz-adv-x="1019" d="M148 398q0 125 42.5 249t117.5 221q75 98 182 156t224 58q159 0 238.5 -111.5t79.5 -322.5q0 -124 -40.5 -246t-111.5 -219q-72 -98 -175 -156.5t-215 -58.5q-107 0 -186 56.5t-118 154.5q-38 97 -38 219zM370 390q0 -187 72 -282q38 -50 88 -50q84 0 154 87.5t108 229.5 q36 138 36 290q0 151 -44 237t-122 86q-71 0 -128.5 -49.5t-92.5 -136.5q-71 -176 -71 -412zM460 1252l204 218l66 16l216 -224l-60 -44l-198 132h-12l-170 -134z" />
<glyph unicode="&#xf5;" horiz-adv-x="1019" d="M148 398q0 125 42.5 249t117.5 221q75 98 182 156t224 58q159 0 238.5 -111.5t79.5 -322.5q0 -124 -40.5 -246t-111.5 -219q-72 -98 -175 -156.5t-215 -58.5q-107 0 -186 56.5t-118 154.5q-38 97 -38 219zM370 390q0 -187 72 -282q38 -50 88 -50q84 0 154 87.5t108 229.5 q36 138 36 290q0 151 -44 237t-122 86q-71 0 -128.5 -49.5t-92.5 -136.5q-71 -176 -71 -412zM422 1242q2 6 3 10q6 24 22 59q20 44 47 71q34 34 76 34q5 0 8 -1t8 -1l270 -36h4q13 0 30 12t28 26l10 12l58 -2q-1 -3 -2.5 -9.5t-2.5 -9.5q-16 -50 -48 -94q-45 -61 -105 -61 h-14l-270 38h-4q-15 0 -33 -14t-29 -30l-10 -14z" />
<glyph unicode="&#xf6;" horiz-adv-x="1019" d="M148 398q0 125 42.5 249t117.5 221q75 98 182 156t224 58q159 0 238.5 -111.5t79.5 -322.5q0 -124 -40.5 -246t-111.5 -219q-72 -98 -175 -156.5t-215 -58.5q-107 0 -186 56.5t-118 154.5q-38 97 -38 219zM370 390q0 -187 72 -282q38 -50 88 -50q84 0 154 87.5t108 229.5 q36 138 36 290q0 151 -44 237t-122 86q-71 0 -128.5 -49.5t-92.5 -136.5q-71 -176 -71 -412zM438 1346q0 41 30.5 67.5t71.5 26.5q43 0 73.5 -27t30.5 -67q0 -42 -30.5 -70t-73.5 -28q-42 0 -72 28t-30 70zM762 1346q0 41 30.5 67.5t71.5 26.5q43 0 74.5 -27t31.5 -67 q0 -42 -31.5 -70t-74.5 -28q-42 0 -72 28t-30 70z" />
<glyph unicode="&#xf7;" horiz-adv-x="1180" d="M177 550l34 128h984l-34 -128h-984zM479 248q0 69 47.5 116.5t116.5 47.5q52 0 85 -36t33 -88q0 -70 -46 -116t-114 -46q-47 0 -84.5 38t-37.5 84zM581 928q0 69 47.5 116.5t116.5 47.5q52 0 86 -36.5t34 -87.5q0 -70 -46 -116t-114 -46q-47 0 -85.5 38.5t-38.5 83.5z " />
<glyph unicode="&#xf8;" horiz-adv-x="1019" d="M106 -100l127 194q-29 38 -47 85q-38 97 -38 219q0 125 42.5 249t117.5 221q75 98 182 156t224 58q85 0 148 -33l58 88l155 10l-119 -181q76 -110 76 -318q0 -124 -40.5 -246t-111.5 -219q-72 -98 -175 -156.5t-215 -58.5q-92 0 -166 44l-67 -102zM370 390q0 -63 9 -120 l410 622q-43 96 -127 96q-71 0 -128.5 -49.5t-92.5 -136.5q-71 -176 -71 -412zM404 178q15 -40 38 -70q38 -50 88 -50q84 0 154 87.5t108 229.5q36 138 36 290q0 82 -11 137z" />
<glyph unicode="&#xf9;" horiz-adv-x="1096" d="M170 932l12 90l342 30l24 -28l-96 -570q-19 -117 -19 -184q0 -68 22 -98t75 -30q118 0 218 100l100 662l-162 28l12 90l346 30l24 -28l-92 -576q-28 -181 -28 -242q0 -47 11.5 -66t40.5 -24l80 -14l-22 -84q-84 -36 -170 -36q-73 0 -108.5 33.5t-35.5 104.5q0 20 2 38 h-12q-37 -68 -127 -125t-191 -57q-186 0 -186 222q0 49 10 122l88 584zM518 1582l140 46l160 -404l-70 -42z" />
<glyph unicode="&#xfa;" horiz-adv-x="1096" d="M170 932l12 90l342 30l24 -28l-96 -570q-19 -117 -19 -184q0 -68 22 -98t75 -30q118 0 218 100l100 662l-162 28l12 90l346 30l24 -28l-92 -576q-28 -181 -28 -242q0 -47 11.5 -66t40.5 -24l80 -14l-22 -84q-84 -36 -170 -36q-73 0 -108.5 33.5t-35.5 104.5q0 20 2 38 h-12q-37 -68 -127 -125t-191 -57q-186 0 -186 222q0 49 10 122l88 584zM696 1244l148 394l136 -48l-222 -384z" />
<glyph unicode="&#xfb;" horiz-adv-x="1096" d="M170 932l12 90l342 30l24 -28l-96 -570q-19 -117 -19 -184q0 -68 22 -98t75 -30q118 0 218 100l100 662l-162 28l12 90l346 30l24 -28l-92 -576q-28 -181 -28 -242q0 -47 11.5 -66t40.5 -24l80 -14l-22 -84q-84 -36 -170 -36q-73 0 -108.5 33.5t-35.5 104.5q0 20 2 38 h-12q-37 -68 -127 -125t-191 -57q-186 0 -186 222q0 49 10 122l88 584zM444 1252l204 218l66 16l216 -224l-60 -44l-198 132h-12l-170 -134z" />
<glyph unicode="&#xfc;" horiz-adv-x="1096" d="M170 932l12 90l342 30l24 -28l-96 -570q-19 -117 -19 -184q0 -68 22 -98t75 -30q118 0 218 100l100 662l-162 28l12 90l346 30l24 -28l-92 -576q-28 -181 -28 -242q0 -47 11.5 -66t40.5 -24l80 -14l-22 -84q-84 -36 -170 -36q-73 0 -108.5 33.5t-35.5 104.5q0 20 2 38 h-12q-37 -68 -127 -125t-191 -57q-186 0 -186 222q0 49 10 122l88 584zM402 1346q0 41 30.5 67.5t71.5 26.5q43 0 73.5 -27t30.5 -67q0 -42 -30.5 -70t-73.5 -28q-42 0 -72 28t-30 70zM726 1346q0 41 30.5 67.5t71.5 26.5q43 0 74.5 -27t31.5 -67q0 -42 -31.5 -70t-74.5 -28 q-42 0 -72 28t-30 70z" />
<glyph unicode="&#xfd;" horiz-adv-x="1007" d="M-68 -324q0 86 86 154q82 -66 172 -66q59 0 104 36t100 140l22 42l-154 952l-114 38l20 86h466l-22 -84l-150 -48l102 -654l340 660l-148 40l24 86h404l-24 -90l-116 -38l-518 -994q-116 -222 -212.5 -309t-223.5 -87q-78 0 -118 36.5t-40 99.5zM742 1244l148 394 l136 -48l-222 -384z" />
<glyph unicode="&#xfe;" horiz-adv-x="1056" d="M-53 -446l24 90l146 40l242 1700l-162 28l12 92l332 30l26 -28l-66 -482l-34 -150h14v-2h2q41 78 130.5 142t167.5 64q120 0 203 -125.5t83 -308.5q0 -150 -48 -278.5t-131 -213.5q-81 -83 -183.5 -128.5t-211.5 -45.5q-79 0 -112 14l26 138q17 -8 51 -15t55 -7 q65 0 122 16q38 11 66.5 29.5t58.5 54.5q61 71 84 210q13 74 13 170q0 141 -46.5 228.5t-113.5 87.5q-68 0 -113.5 -21.5t-112.5 -82.5l-168 -1118l188 -38l-22 -90h-522z" />
<glyph unicode="&#xff;" horiz-adv-x="1007" d="M-68 -324q0 86 86 154q82 -66 172 -66q59 0 104 36t100 140l22 42l-154 952l-114 38l20 86h466l-22 -84l-150 -48l102 -654l340 660l-148 40l24 86h404l-24 -90l-116 -38l-518 -994q-116 -222 -212.5 -309t-223.5 -87q-78 0 -118 36.5t-40 99.5zM448 1346q0 41 30.5 67.5 t71.5 26.5q43 0 73.5 -27t30.5 -67q0 -42 -30.5 -70t-73.5 -28q-42 0 -72 28t-30 70zM772 1346q0 41 30.5 67.5t71.5 26.5q43 0 74.5 -27t31.5 -67q0 -42 -31.5 -70t-74.5 -28q-42 0 -72 28t-30 70z" />
<glyph unicode="&#x152;" horiz-adv-x="1959" d="M211 612q0 196 64 368t180 297q117 125 282.5 195t355.5 70q108 0 201 -36h774l-96 -386l-98 16l-6 260h-459l-90 -576h249l74 144l110 16l-112 -470l-102 -16l-6 212h-231l-94 -590h487l158 278l94 -14l-96 -380h-839q-119 -32 -246 -32q-166 0 -294 84.5t-194 231.5 q-66 146 -66 328zM475 638q0 -222 85 -376q43 -79 116 -122.5t167 -43.5q69 0 136 16l205 1267q-73 45 -165 45q-96 0 -178.5 -28t-139.5 -76q-107 -91 -163 -250q-47 -135 -58 -296q-5 -73 -5 -136z" />
<glyph unicode="&#x153;" horiz-adv-x="1906" d="M148 398q0 125 42.5 249t117.5 221q75 98 182 156t224 58q197 0 272 -167q27 31 68 65q122 98 268 98q114 0 171 -74t57 -212q0 -129 -58 -238l-494 -22q-9 -52 -9 -110q0 -158 72 -229q69 -69 177 -69q44 0 124.5 32.5t103.5 57.5l32 -54q-49 -76 -156.5 -136 t-217.5 -60q-90 0 -156.5 33.5t-103.5 94.5q-16 28 -23 43q-72 -78 -163 -122.5t-188 -44.5q-107 0 -186 56.5t-118 154.5q-38 97 -38 219zM370 390q0 -187 72 -282q38 -50 88 -50q84 0 154 87.5t108 229.5q36 138 36 290q0 151 -44 237t-122 86q-71 0 -128.5 -49.5 t-92.5 -136.5q-71 -176 -71 -412zM1011 620l329 26q26 54 26 144q-5 176 -116 176q-70 0 -136 -85q-67 -85 -103 -261z" />
<glyph unicode="&#x178;" horiz-adv-x="1278" d="M188 1414l24 92h578l-22 -92l-190 -46l232 -596l396 592l-200 50l18 92h512l-18 -92l-152 -46l-512 -728l-80 -502l186 -40l-22 -98h-586l20 90l182 56l74 466l-292 752zM657 1774q0 41 30.5 67.5t71.5 26.5q43 0 73.5 -26.5t30.5 -67.5q0 -42 -30.5 -70t-73.5 -28 q-42 0 -72 28t-30 70zM981 1774q0 41 30.5 67.5t71.5 26.5q43 0 74.5 -27t31.5 -67q0 -42 -31.5 -70t-74.5 -28q-42 0 -72 28t-30 70z" />
<glyph unicode="&#x2c6;" horiz-adv-x="785" d="M146 1680l204 218l66 16l216 -225l-60 -43l-198 132h-12l-170 -134z" />
<glyph unicode="&#x2dc;" horiz-adv-x="863" d="M150 1670q2 6 3 10q6 24 22 59q20 44 47 71q34 34 76 34q5 0 8 -1t8 -1l270 -36h4q13 0 30 12t28 26l10 12l58 -2q-1 -3 -2.5 -9.5t-2.5 -9.5q-16 -50 -48 -94q-45 -61 -105 -61h-14l-270 38h-4q-15 0 -33 -14t-29 -30l-10 -14z" />
<glyph unicode="&#x2000;" horiz-adv-x="1035" />
<glyph unicode="&#x2001;" horiz-adv-x="2070" />
<glyph unicode="&#x2002;" horiz-adv-x="1035" />
<glyph unicode="&#x2003;" horiz-adv-x="2070" />
<glyph unicode="&#x2004;" horiz-adv-x="690" />
<glyph unicode="&#x2005;" horiz-adv-x="517" />
<glyph unicode="&#x2006;" horiz-adv-x="345" />
<glyph unicode="&#x2007;" horiz-adv-x="345" />
<glyph unicode="&#x2008;" horiz-adv-x="258" />
<glyph unicode="&#x2009;" horiz-adv-x="414" />
<glyph unicode="&#x200a;" horiz-adv-x="115" />
<glyph unicode="&#x2010;" horiz-adv-x="731" d="M199 482l14 122l494 22l-14 -122z" />
<glyph unicode="&#x2011;" horiz-adv-x="731" d="M199 482l14 122l494 22l-14 -122z" />
<glyph unicode="&#x2012;" horiz-adv-x="731" d="M199 482l14 122l494 22l-14 -122z" />
<glyph unicode="&#x2013;" horiz-adv-x="986" d="M201 496l20 126l740 8l-20 -126z" />
<glyph unicode="&#x2014;" horiz-adv-x="1604" d="M202 496l20 126l1356 8l-20 -126z" />
<glyph unicode="&#x2018;" horiz-adv-x="534" d="M253 1138q0 82 56 173q68 109 200 180q79 42 170 65l14 -84q-113 -29 -183.5 -93.5t-70.5 -128.5q0 -55 31.5 -86.5t90.5 -31.5q6 0 36 8q8 -37 8 -66q0 -65 -57 -113.5t-115 -48.5q-71 0 -120 44q-60 50 -60 182z" />
<glyph unicode="&#x2019;" horiz-adv-x="542" d="M243 992q113 29 183.5 93.5t70.5 128.5q0 55 -31.5 86.5t-90.5 31.5q-6 0 -36 -8q-8 37 -8 66q0 65 57 113.5t116 48.5q70 0 121 -43q58 -52 58 -183q0 -84 -55 -172q-68 -110 -200 -181q-78 -41 -171 -65z" />
<glyph unicode="&#x201a;" horiz-adv-x="541" d="M30 -296q113 29 183.5 93.5t70.5 128.5q0 55 -31.5 86.5t-90.5 31.5q-6 0 -36 -8q-8 37 -8 66q0 65 57 113.5t115 48.5q70 0 121 -43q59 -52 59 -183q0 -84 -55 -172q-68 -110 -200 -181q-78 -41 -171 -65z" />
<glyph unicode="&#x201c;" horiz-adv-x="915" d="M254 1142q0 82 56 173q68 109 200 180q79 42 170 65l14 -84q-113 -29 -183.5 -93.5t-70.5 -128.5q0 -55 31.5 -86.5t90.5 -31.5q6 0 36 8q8 -37 8 -66q0 -65 -57 -113.5t-115 -48.5q-70 0 -120 44q-60 50 -60 182zM636 1142q0 82 56 173q68 109 200 180q79 42 170 65 l14 -84q-113 -29 -183.5 -93.5t-70.5 -128.5q0 -55 31.5 -86.5t90.5 -31.5q6 0 36 8q8 -37 8 -66q0 -65 -57 -113.5t-115 -48.5q-70 0 -120 44q-60 50 -60 182z" />
<glyph unicode="&#x201d;" horiz-adv-x="923" d="M242 998q113 29 183.5 93.5t70.5 128.5q0 55 -31.5 86.5t-90.5 31.5q-6 0 -36 -8q-8 37 -8 66q0 65 57 113.5t115 48.5q70 0 121 -43q59 -52 59 -183q0 -84 -55 -172q-68 -110 -200 -181q-78 -41 -171 -65zM626 998q113 29 183.5 93.5t70.5 128.5q0 55 -31.5 86.5 t-90.5 31.5q-6 0 -36 -8q-8 37 -8 66q0 65 57 113.5t115 48.5q70 0 121 -43q59 -52 59 -183q0 -84 -55 -172q-68 -110 -200 -181q-78 -41 -171 -65z" />
<glyph unicode="&#x201e;" horiz-adv-x="925" d="M30 -308q113 29 183.5 93.5t70.5 128.5q0 55 -31.5 86.5t-90.5 31.5q-6 0 -36 -8q-8 37 -8 66q0 65 57 113.5t115 48.5q70 0 121 -43q59 -52 59 -183q0 -84 -55 -172q-68 -110 -200 -181q-78 -41 -171 -65zM414 -308q113 29 183.5 93.5t70.5 128.5q0 55 -31.5 86.5 t-90.5 31.5q-6 0 -36 -8q-8 37 -8 66q0 65 57 113.5t115 48.5q70 0 121 -43q59 -52 59 -183q0 -84 -55 -172q-68 -110 -200 -181q-78 -41 -171 -65z" />
<glyph unicode="&#x2022;" horiz-adv-x="629" d="M206 662q0 106 72 178t176 72q81 0 131.5 -55t50.5 -135q0 -108 -69 -177t-173 -69q-71 0 -129.5 58.5t-58.5 127.5z" />
<glyph unicode="&#x2026;" horiz-adv-x="1601" d="M120 88q0 72 49 121t121 49q55 0 89.5 -38.5t34.5 -91.5q0 -73 -47.5 -120.5t-118.5 -47.5q-48 0 -88 41t-40 87zM660 88q0 72 49 121t121 49q55 0 89.5 -38.5t34.5 -91.5q0 -73 -47.5 -120.5t-118.5 -47.5q-48 0 -88 41t-40 87zM1232 88q0 72 49 121t121 49 q55 0 89.5 -38.5t34.5 -91.5q0 -73 -47.5 -120.5t-118.5 -47.5q-48 0 -88 41t-40 87z" />
<glyph unicode="&#x202f;" horiz-adv-x="414" />
<glyph unicode="&#x2039;" horiz-adv-x="489" d="M114 544l2 24l390 426l44 -72l-258 -364l142 -388l-76 -76z" />
<glyph unicode="&#x203a;" horiz-adv-x="489" d="M108 170l266 388l-142 364l64 72l258 -426l-6 -24l-388 -450z" />
<glyph unicode="&#x205f;" horiz-adv-x="517" />
<glyph unicode="&#x20ac;" horiz-adv-x="1458" d="M165 588l42 128h94q6 37 16 84h-112l42 128h108q70 198 206 347q152 166 364 229q114 34 246 34q124 0 214 -28.5t164 -93.5l-102 -402l-102 16l-8 266q-40 67 -95.5 96.5t-158.5 29.5q-168 0 -295.5 -130t-188.5 -364h660l-56 -128h-630v-2q-9 -68 -10 -82h608l-56 -128 h-558v-2q0 -233 101 -358.5t285 -125.5q148 0 242 108l92 266l108 16l-18 -358q-129 -90 -242.5 -127t-261.5 -37q-168 0 -296 65.5t-203 195.5q-77 131 -77 313q0 12 1 22t1 22h-124z" />
<glyph unicode="&#x2122;" horiz-adv-x="1124" d="M316 1488l12 108h356l-30 -112l-34 4v74h-82l-52 -320l60 -10l-10 -32h-192l6 30l56 14l52 318h-78l-32 -78zM638 1200l6 30l56 14l74 310l-58 12l8 30h150l16 -62l46 -236l138 248l30 50h148l-8 -30l-56 -12l-32 -312l58 -10l-10 -32h-184l8 30l54 14l26 276l-170 -304 l-62 -6l-64 298l-62 -266l58 -10l-10 -32h-160z" />
<glyph unicode="&#x25fc;" horiz-adv-x="1055" d="M0 0v1055h1055v-1055h-1055z" />
</font>
</defs>
</svg>
