<?xml version="1.0" standalone="no"?>
<!DOCTYPE svg PUBLIC "-//W3C//DTD SVG 1.1//EN" "http://www.w3.org/Graphics/SVG/1.1/DTD/svg11.dtd" >
<svg xmlns="http://www.w3.org/2000/svg">
<metadata></metadata>
<defs>
<font id="neutonregular" horiz-adv-x="1005" >
<font-face units-per-em="2048" ascent="1638" descent="-410" />
<missing-glyph horiz-adv-x="429" />
<glyph horiz-adv-x="0" />
<glyph unicode="&#xd;" horiz-adv-x="560" />
<glyph unicode=" "  horiz-adv-x="429" />
<glyph unicode="&#x09;" horiz-adv-x="429" />
<glyph unicode="&#xa0;" horiz-adv-x="429" />
<glyph unicode="!" horiz-adv-x="485" d="M119 92q0 50 36.5 84t87.5 34t88 -35t37 -85q0 -53 -37 -89.5t-88.5 -36.5t-87.5 37.5t-36 90.5zM146 1250v3q6 19 50.5 29.5t80.5 10.5q25 0 45 -9t20 -31q0 -214 -55 -889v-7l-89 20v3q-53 688 -52 870z" />
<glyph unicode="&#x22;" horiz-adv-x="556" d="M82 1303l184 -17l-37 -383l-93 -11zM290 1303l184 -17l-36 -383l-94 -11z" />
<glyph unicode="#" horiz-adv-x="939" d="M63 364l24 100h162l31 211h-161l23 101h155l30 176l102 9l-29 -185h205l27 176l102 8l-27 -184h168l-23 -101h-162l-31 -211h160l-23 -100h-155l-23 -186l-106 -8l27 194h-203l-26 -186l-105 -8l26 194h-168zM352 464h203l33 211h-205z" />
<glyph unicode="$" horiz-adv-x="863" d="M44 123l14 267l102 -15l38 -188q26 -42 75 -73t109 -36v474q-41 22 -65.5 35.5t-62.5 38t-60 43.5t-49 48t-41 57.5t-24.5 65t-10.5 76.5q0 137 84.5 227.5t211.5 117.5v134l125 16v-142q143 -10 250 -99l-22 -283l-99 11l-26 192q-12 25 -48 52t-79 37v-440 q13 -7 49.5 -26.5t52 -27.5t48.5 -27.5t48.5 -31t42.5 -32.5t40.5 -37.5t31 -41t26 -48t15 -53t6.5 -60.5q0 -139 -95.5 -238t-239.5 -129v-151l-132 -16v156q-97 5 -182 46t-133 101zM241 996q0 -67 37.5 -117t106.5 -94v396q-65 -12 -104.5 -58t-39.5 -127zM470 85 q74 17 123 68t49 134q0 67 -44 117t-128 99v-418z" />
<glyph unicode="%" horiz-adv-x="1142" d="M49 725q0 99 71.5 173.5t163.5 74.5q105 0 169.5 -71t64.5 -179q0 -99 -71.5 -173.5t-161.5 -74.5q-99 0 -167.5 69.5t-68.5 180.5zM174 721q0 -72 29 -117.5t82 -45.5q108 0 108 165q0 75 -27.5 122t-81.5 47q-110 -1 -110 -171zM178 -28l664 1004l113 -8l-656 -1006z M623 213q0 99 72 174t164 75q104 0 169 -71.5t65 -179.5q0 -98 -71.5 -172t-161.5 -74q-99 0 -168 69.5t-69 178.5zM748 211q0 -72 29.5 -118.5t82.5 -46.5q108 0 108 167q0 75 -27.5 122t-81.5 47q-111 -1 -111 -171z" />
<glyph unicode="&#x26;" horiz-adv-x="1231" d="M18 313q0 229 277 389q-54 46 -92 117q-39 74 -39 156q0 114 93 204q95 92 222 93q71 0 114 -14q56 -16 90 -42q44 -33 65 -82q23 -53 23 -123q0 -155 -229 -295v-11l231 -256l177 271l-152 42l10 75h432l-10 -75l-170 -39l-216 -343q253 -274 344 -301l33 -10l-15 -69 q-57 -20 -121 -20q-42 0 -82 18q-43 19 -88 55q-34 26 -86 74q-34 31 -87 91q-21 -30 -78 -102q-111 -126 -272 -136h-27q-109 0 -187 46q-81 49 -120.5 123t-39.5 164zM206 393q0 -76 22 -137q21 -61 72 -107q48 -43 124 -43q43 0 91 21q44 20 76 55q35 37 50 56 q20 25 29 44l-313 347l-16 2q-58 -40 -97 -100q-38 -59 -38 -138zM324 1024q0 -67 46 -136q50 -72 104 -115q72 49 99.5 95.5t27.5 119.5q0 91 -33 143q-36 57 -109 57q-63 0 -99 -50q-36 -52 -36 -114z" />
<glyph unicode="'" horiz-adv-x="380" d="M99 1303l183 -17l-36 -383l-94 -11z" />
<glyph unicode="(" horiz-adv-x="475" d="M49 446q0 108 16 207.5t39 172t58 141.5t63 111t66.5 84.5t55 57.5t40.5 35l49 -66q-31 -41 -55 -79t-54.5 -105t-50.5 -140.5t-34 -180.5t-14 -228q0 -409 223 -773l-69 -58q-21 19 -36 33.5t-52 59.5t-65 88t-64 115t-59.5 146t-40 174t-16.5 205z" />
<glyph unicode=")" horiz-adv-x="475" d="M25 -317q223 364 223 773q0 122 -14 228.5t-34.5 180t-51 140.5t-54 105t-55.5 79l50 66q24 -20 40.5 -35t54.5 -57.5t66 -84.5t63.5 -111t58 -141.5t38.5 -172t16 -207.5q0 -105 -16.5 -205t-40 -174t-59 -146t-63.5 -115t-65.5 -88t-52.5 -59.5t-35 -33.5z" />
<glyph unicode="*" horiz-adv-x="838" d="M63 965l55 126l265 -113l-11 -72zM182 685l190 218l64 -33l-152 -277zM347 1293l137 -13l-27 -287l-70 -12zM442 870l51 51l217 -229l-119 -69zM461 989l286 134l29 -134l-283 -65z" />
<glyph unicode="+" horiz-adv-x="714" d="M82 410l12 100h209v232l108 -12l2 -220h219l-11 -100h-208l2 -236l-112 11v225h-221z" />
<glyph unicode="," horiz-adv-x="364" d="M20 -244q92 24 137 72t45 101q0 44 -32.5 75.5t-83.5 31.5q-20 0 -30 -1q-15 39 -15 62q0 56 39.5 88.5t83.5 32.5q28 0 56.5 -12t56 -35.5t45 -65.5t17.5 -95q0 -33 -5.5 -63.5t-24 -70.5t-49 -73t-86.5 -65t-131 -51z" />
<glyph unicode="-" horiz-adv-x="569" d="M79 398l11 100l408 19l-11 -101z" />
<glyph unicode="." horiz-adv-x="403" d="M82 92q0 48 35.5 80.5t84.5 32.5t84.5 -33.5t35.5 -81.5q0 -50 -35.5 -85.5t-85 -35.5t-84.5 36t-35 87z" />
<glyph unicode="/" horiz-adv-x="547" d="M-23 -364l462 1599l133 9l-466 -1599z" />
<glyph unicode="0" d="M86 586q0 136 34.5 252.5t92.5 195t134.5 123t159.5 44.5q183 0 298 -166.5t115 -448.5q0 -146 -36 -265.5t-95 -193.5t-131 -113.5t-148 -39.5q-86 0 -161.5 38t-134.5 111.5t-93.5 193t-34.5 269.5zM262 583q0 -509 250 -509q128 0 182 117.5t54 394.5q0 248 -60 381.5 t-180 133.5q-132 0 -189 -130.5t-57 -387.5z" />
<glyph unicode="1" d="M136 0l6 74l284 47v910h-271l7 77l410 76h26v-1070l274 -32l-10 -80z" />
<glyph unicode="2" d="M89 102l236 205q63 54 103 91t92.5 94t82.5 104t52 106.5t22 118.5q0 253 -205 252q-164 0 -264 -254l-82 30q15 64 51.5 127.5t88 115.5t121.5 84.5t145 32.5q161 0 244 -89t83 -255q0 -52 -15 -104t-37 -96t-58 -92t-69 -83.5t-80 -79.5t-79.5 -71t-80.5 -67t-70 -59 l-91 -79h471l96 178l69 -10l-56 -302h-764z" />
<glyph unicode="3" d="M108 109q0 39 33.5 68.5t92.5 35.5q7 -40 66 -97.5t123 -57.5q72 0 121 21.5t73.5 59t33.5 75.5t9 83q0 44 -21.5 89t-59.5 82.5t-96.5 61.5t-125.5 24h-16l-10 65q16 5 35.5 14t54.5 26t66.5 41t61.5 53.5t47.5 70t17.5 82.5q0 74 -41.5 124t-131.5 50q-76 0 -122.5 -39 t-77.5 -113l-74 27q7 40 36 85t72 83.5t103.5 63.5t124.5 25q117 0 203.5 -72t86.5 -179q0 -113 -67 -190t-169 -114v-11q128 -18 205 -102.5t77 -186.5q0 -108 -61.5 -196.5t-169.5 -139.5t-238 -51q-122 0 -192 42.5t-70 96.5z" />
<glyph unicode="4" d="M39 431l618 763l66 -18q-10 -179 -10 -493v-204h255l-16 -125h-239v-339l-164 -27v369h-486zM208 479h337v431z" />
<glyph unicode="5" d="M243 659l127 511l444 28l-24 -158l-367 -19l-53 -218q248 -15 385 -127.5t137 -288.5q0 -79 -35.5 -151t-106.5 -133.5t-191 -101.5t-275 -50l-18 92q209 20 325.5 95t116.5 184q0 153 -111 237t-354 100z" />
<glyph unicode="6" d="M116 421q0 163 86 329.5t225.5 289.5t295.5 174l37 -58q-184 -85 -299.5 -235.5t-147.5 -311.5h11q35 41 104.5 70t146.5 29q94 0 169 -51t114.5 -131.5t39.5 -171.5q0 -100 -54 -187t-146.5 -137.5t-199.5 -50.5q-99 0 -174 35.5t-119.5 98t-66.5 140.5t-22 168z M303 406q0 -86 24.5 -164t71.5 -129.5t106 -51.5q114 0 162.5 70.5t48.5 195.5q0 52 -14 101t-39.5 89.5t-67.5 64.5t-93 24q-53 0 -113 -25.5t-79 -53.5q-7 -66 -7 -121z" />
<glyph unicode="7" d="M134 906l25 277h772v-54l-429 -1162l-94 30l360 1034h-514l-51 -138z" />
<glyph unicode="8" d="M126 280q0 166 244 310v8q-32 19 -63 45t-63.5 61.5t-52 81.5t-19.5 94q0 63 26.5 121.5t72 102t109.5 70.5t135 27q139 0 225 -79.5t86 -195.5q0 -90 -54 -170t-138 -110l-3 -10q116 -72 181.5 -156t65.5 -172q0 -69 -28.5 -129.5t-81 -106.5t-132.5 -72t-177 -26 q-142 0 -237.5 83t-95.5 223zM290 303q0 -89 67.5 -163t147.5 -74q111 0 163 49t52 151q0 31 -18 63.5t-41.5 58t-68 59t-75.5 53.5t-88 55q-3 -3 -19 -17t-20.5 -18.5t-19 -18t-19 -20.5t-16 -21.5t-15.5 -25t-11.5 -26.5t-10.5 -31t-5.5 -34t-2.5 -40zM321 955 q0 -76 63.5 -143.5t180.5 -134.5q60 35 87.5 81.5t27.5 131.5q0 104 -55 169t-136 65q-80 0 -124 -51t-44 -118z" />
<glyph unicode="9" d="M119 803q0 81 34.5 157.5t90 131t126.5 87t142 32.5q76 0 139.5 -24.5t107.5 -66t74.5 -98.5t44.5 -122t14 -137q0 -199 -74.5 -366.5t-215 -279t-325.5 -143.5l-23 74q120 35 204.5 87.5t134 121.5t74.5 145t33 173h-13q-35 -49 -108.5 -78.5t-142.5 -29.5 q-142 0 -229.5 97.5t-87.5 238.5zM287 846q0 -109 60 -190t161 -81q54 0 113.5 25t81.5 62q10 55 10 144q0 81 -27.5 155.5t-76 121t-104.5 46.5q-109 0 -163.5 -73.5t-54.5 -209.5z" />
<glyph unicode=":" horiz-adv-x="403" d="M94 119q0 44 33 75t79.5 31t79.5 -31.5t33 -75.5q0 -48 -33 -82t-80 -34t-79.5 34.5t-32.5 82.5zM94 747q0 45 33 75t79.5 30t79.5 -31t33 -76q0 -48 -33 -82t-80 -34t-79.5 34.5t-32.5 83.5z" />
<glyph unicode=";" horiz-adv-x="403" d="M31 -230q86 22 128 67t42 94q0 40 -30 69.5t-78 29.5q-19 0 -28 -1q-14 37 -14 58q0 52 36.5 82t77.5 30q58 0 110.5 -49.5t52.5 -143.5q0 -30 -5 -58.5t-22 -66t-45.5 -68t-80.5 -60t-122 -47.5zM81 744q0 46 33.5 77t80.5 31q48 0 82 -31.5t34 -77.5q0 -49 -34 -83 t-82 -34t-81 35t-33 83z" />
<glyph unicode="&#x3c;" horiz-adv-x="683" d="M28 428l2 28l539 517l57 -72l-362 -447l382 -467l-63 -69z" />
<glyph unicode="=" horiz-adv-x="793" d="M82 319l12 105h614l-11 -105h-615zM86 558l11 106h614l-11 -106h-614z" />
<glyph unicode="&#x3e;" horiz-adv-x="683" d="M33 -13l382 467l-362 447l56 72l540 -517l2 -28l-556 -510z" />
<glyph unicode="?" horiz-adv-x="600" d="M28 1152q0 22 9 44t29.5 43.5t61.5 35t97 13.5q58 0 119 -31.5t111 -86.5t81.5 -136.5t31.5 -173.5q0 -49 -16 -86.5t-41 -61.5t-56 -43t-61.5 -34.5t-55.5 -32t-41.5 -40.5t-16.5 -54q0 -53 22 -125l-74 -16q-27 40 -52 102t-25 116q0 45 16.5 78.5t44 54t60 36.5t65 31 t60 33t44 49t16.5 72q0 65 -57 119.5t-106 54.5q-58 0 -109.5 -18.5t-82.5 -52.5q-28 12 -51 42t-23 68zM139 92q0 50 36.5 84t86.5 34q51 0 88.5 -35t37.5 -85q0 -53 -37 -89.5t-88.5 -36.5t-87.5 37.5t-36 90.5z" />
<glyph unicode="@" horiz-adv-x="1360" d="M56 324q0 148 54.5 280t150 229t233.5 154t296 57q141 0 258.5 -55.5t189 -160.5t71.5 -238q0 -100 -35.5 -195.5t-97.5 -167t-151 -115t-189 -43.5q-39 0 -68 24.5t-29 61.5l1 32h-9q-35 -51 -85.5 -89.5t-101.5 -38.5q-81 0 -130.5 71t-49.5 196q0 102 38 192t97 147.5 t128 91t133 33.5q92 0 164 -17l4 -2l18 -19l-41 -367q-13 -118 -13 -156q0 -34 5.5 -47t18.5 -13q74 0 134 52.5t93 139t33 188.5q0 127 -56.5 220t-152 139.5t-214.5 46.5q-120 0 -222.5 -50t-171.5 -134t-108.5 -193t-39.5 -228q0 -224 137.5 -355t381.5 -131 q95 0 194.5 37t147.5 71l10 8l36 -62l-8 -5q-39 -27 -72 -46t-87 -44t-119.5 -38t-138.5 -13q-95 0 -183.5 18t-172 60.5t-145 104.5t-99 157t-37.5 212zM518 368q0 -106 21.5 -147t63.5 -41q74 0 139 74l53 438q-46 12 -88 11q-55 0 -99.5 -52t-67 -128t-22.5 -155z" />
<glyph unicode="A" horiz-adv-x="1278" d="M2 0l10 74l148 55l438 1108l152 31l389 -1144l138 -43l-9 -81h-515l12 74l171 55l-109 304h-419l-113 -309l187 -43l-12 -81h-468zM446 534h352l-167 500z" />
<glyph unicode="B" horiz-adv-x="1127" d="M23 0l10 74l169 47v984l-172 29l9 77q313 46 493 46q112 0 198.5 -24t137.5 -65t76.5 -92t25.5 -110q0 -41 -11 -80.5t-33.5 -79t-64 -72.5t-98.5 -54v-8q74 -4 134.5 -31.5t98 -69t57.5 -91t20 -100.5q0 -59 -16.5 -112t-55.5 -103t-98.5 -85.5t-152.5 -57.5t-210 -22 h-517zM393 95h220q123 0 193.5 74t70.5 178q0 48 -16.5 93t-48 82t-82.5 60t-114 23h-223v-510zM393 688h258q130 55 130 219q-1 41 -9 77t-30 71t-56 60t-89 40.5t-125 15.5h-11q-38 0 -68 -6v-477z" />
<glyph unicode="C" horiz-adv-x="1111" d="M49 590q0 65 11.5 130.5t37 133t61.5 128t89 113.5t117 92t148.5 61t179.5 22q229 0 362 -100l-31 -333l-88 13l-41 220q-81 104 -259 105q-160 0 -266 -140t-106 -376q0 -130 37.5 -236t101 -173t144.5 -103t171 -36q95 0 187 42.5t162 107.5l36 -76q-68 -82 -193 -146 t-269 -64q-117 0 -222.5 41t-188.5 116t-132 194t-49 264z" />
<glyph unicode="D" horiz-adv-x="1324" d="M18 0l13 74l172 55v974l-172 30l8 76q310 49 515 49q118 0 216.5 -17t172 -48t131 -75.5t95 -96t61.5 -113t34.5 -124t10.5 -130.5q0 -104 -29.5 -199.5t-92 -178.5t-151.5 -144t-215 -96.5t-275 -35.5h-494zM395 104h145q129 0 231 39.5t165 107.5t95 156.5t32 190.5 q0 93 -21 175.5t-65 153t-108.5 121.5t-154.5 79.5t-197 28.5q-81 0 -122 -5v-1047z" />
<glyph unicode="E" horiz-adv-x="1074" d="M25 1168l10 76h996l-32 -320l-86 14l-41 214h-472v-475h290l43 119l94 13l-32 -388l-87 -13l-33 175h-275v-488h497l97 231l83 -13l-30 -313h-1016l8 74l167 47v1005z" />
<glyph unicode="F" horiz-adv-x="1028" d="M25 1168l10 76h994l-41 -321l-88 13l-35 216h-465v-482h287l43 121l89 13l-26 -391l-88 -15l-31 180h-274l-2 -455l238 -39l-13 -84h-592l8 74l167 47v1005z" />
<glyph unicode="G" horiz-adv-x="1276" d="M49 578q0 155 56 286.5t148.5 216.5t210 132t243.5 47q260 0 422 -97l-24 -322l-88 14l-36 192q-43 43 -130.5 78.5t-193.5 35.5q-61 0 -116.5 -17.5t-106 -58t-88 -98.5t-59 -145.5t-21.5 -194.5q0 -113 33 -214.5t94 -181t156.5 -127t210.5 -47.5q101 0 173 42v315 l-236 38l11 83h557l-12 -75l-124 -41v-360q-98 -58 -214 -84t-268 -26q-118 0 -216.5 30.5t-168.5 85.5t-118.5 131.5t-71.5 167.5t-23 194z" />
<glyph unicode="H" horiz-adv-x="1416" d="M25 1168l10 76h545l-10 -76l-169 -39v-437h628v434l-183 42l11 76h545l-11 -76l-167 -39v-1015l182 -33l-10 -81h-544l12 74l165 47v470l-628 -1v-476l185 -33l-13 -81h-542l8 74l167 47v1005z" />
<glyph unicode="I" horiz-adv-x="600" d="M25 1168l10 76h545l-10 -76l-170 -39v-1015l182 -33l-10 -81h-541l8 74l167 47v1005z" />
<glyph unicode="J" horiz-adv-x="592" d="M-31 -238q122 115 179 217t57 218l1 929l-181 42l10 76h545l-10 -76l-170 -39l-2 -744q-1 -125 -13 -214.5t-36 -157.5t-71.5 -126t-104.5 -105t-150 -108z" />
<glyph unicode="K" horiz-adv-x="1214" d="M18 1168l13 76h551l-10 -76l-172 -47v-997l190 -43l-12 -81h-553l10 74l171 55v989zM424 626q24 24 77.5 83.5t75.5 88.5l245 323l-155 47l8 76h493l-12 -76l-176 -47l-374 -467l228 -269q57 -67 84 -98t66.5 -72.5t66 -62t61.5 -39.5t72 -31l38 -11l-11 -69 q-64 -23 -131 -23q-60 0 -116 21t-106 62t-92 87.5t-89 111.5l-251 344z" />
<glyph unicode="L" horiz-adv-x="1065" d="M25 1168l13 76h550l-10 -76l-172 -47v-1026h443l131 249l85 -13l-38 -331h-989l8 74l167 47v997z" />
<glyph unicode="M" horiz-adv-x="1663" d="M12 0l11 74l167 47l72 1005l-183 42l11 76h400l80 -194l261 -742l310 775l70 161h395l-10 -76l-169 -39l53 -1015l181 -33l-9 -81h-536l12 74l165 47l-56 883l-382 -953l-127 -20l-343 935l-64 -852l184 -33l-13 -81h-480z" />
<glyph unicode="N" horiz-adv-x="1337" d="M25 1168l10 76h352l642 -972v854l-185 42l11 76h476l-13 -76l-167 -39v-1127l-153 -32l-664 991v-847l183 -33l-10 -81h-476l8 74l167 47v997z" />
<glyph unicode="O" horiz-adv-x="1322" d="M49 619q0 192 78 340t225 231t343 83q106 0 198.5 -34t161.5 -95t118.5 -143t74.5 -179.5t25 -202.5q0 -131 -43 -246.5t-123.5 -205t-205 -141.5t-275.5 -52q-169 0 -301.5 86t-204 232.5t-71.5 326.5zM272 677q0 -90 14 -174.5t45.5 -162.5t77 -135.5t114 -91.5 t152.5 -34q88 0 155.5 29t108.5 75t66.5 112t35 133t9.5 145q0 88 -14 172t-45.5 163t-77 138t-114.5 94.5t-152 35.5q-375 0 -375 -499z" />
<glyph unicode="P" horiz-adv-x="1008" d="M23 0l10 74l169 47v984l-172 29l9 77q290 44 478 44h3q497 0 497 -363q0 -86 -37.5 -162t-101 -127t-147.5 -80.5t-174 -29.5q-37 0 -100 4l-18 83l53 2q161 5 240 72t79 201q0 66 -17.5 122t-54.5 101t-99.5 70t-144.5 25l-102 -7v-1043l236 -39l-13 -84h-593z" />
<glyph unicode="Q" horiz-adv-x="1334" d="M61 608q0 192 82 343t232.5 236.5t345.5 85.5q174 0 307 -88.5t202.5 -234t69.5 -321.5q0 -148 -56 -278.5t-166.5 -225.5t-258.5 -132q24 -55 53 -93t77.5 -73t123 -60t179.5 -43q0 -48 -10 -74q-73 -35 -177 -35q-92 0 -170 43t-130.5 127t-61.5 194q-15 -5 -64 -5 q-169 0 -301.5 83t-204.5 227t-72 324zM264 680q0 -77 13.5 -154t48.5 -158.5t88 -144.5t140 -106.5t196 -49.5q98 25 166.5 73.5t106 116.5t54 142t16.5 164q0 111 -30.5 218.5t-84 194t-136 139.5t-177.5 53q-189 0 -295 -128t-106 -360z" />
<glyph unicode="R" horiz-adv-x="1213" d="M23 0l10 74l169 47v980l-172 30l9 76q294 46 458 46q115 0 204 -16t157 -51.5t104 -96t36 -146.5q0 -102 -75.5 -198.5t-211.5 -144.5v-2l181 -249q39 -53 55 -75t44.5 -58t45 -51t42 -35.5t50 -32t55.5 -20.5l33 -10l-15 -69q-54 -19 -114 -19h-6q-111 0 -197 72 t-159 202l-159 284h-174v-411l189 -44l-10 -82h-549zM393 628h198q84 28 142 94t58 165q0 126 -74 204.5t-204 78.5q-31 0 -61 -1.5t-44 -2.5l-15 -1v-537z" />
<glyph unicode="S" horiz-adv-x="863" d="M44 123l14 267l102 -15l38 -188q29 -46 84.5 -78t122.5 -32q42 0 82 12.5t76 36.5t57.5 66t21.5 95t-31.5 97t-82 76.5t-111.5 65t-122 69t-112 79t-82.5 105t-31.5 137.5q0 109 57 191t144 122.5t187 40.5q163 0 283 -100l-22 -283l-99 11l-26 192q-16 32 -64.5 63 t-104.5 31q-81 0 -132 -47.5t-51 -140.5q0 -46 20 -85t54 -68.5t78 -56.5t92 -52t96.5 -51.5t92.5 -59t77.5 -69.5t54 -88.5t20.5 -111.5q0 -84 -37.5 -156t-99 -120t-142 -75.5t-165.5 -27.5q-104 0 -195.5 42.5t-142.5 105.5z" />
<glyph unicode="T" horiz-adv-x="1119" d="M8 1244h1111l-34 -338l-94 15l-39 231h-305v-1038l185 -33l-13 -81h-540l8 74l169 47v1031h-296l-52 -242l-92 13z" />
<glyph unicode="U" horiz-adv-x="1368" d="M8 1168l13 76h542l-9 -76l-169 -39v-619q0 -206 93.5 -305t254.5 -99q155 0 240 92.5t86 283.5l1 644l-182 42l10 76h479l-12 -76l-166 -39l-5 -614q-2 -274 -122.5 -407.5t-378.5 -133.5q-76 0 -139.5 10.5t-131 42.5t-113.5 85t-76 144t-30 213v657z" />
<glyph unicode="V" horiz-adv-x="1284" d="M2 1168l10 76h537l-10 -76l-169 -39l312 -878l321 875l-184 42l8 76h456l-8 -76l-131 -39l-426 -1124l-151 -30l-420 1151z" />
<glyph unicode="W" horiz-adv-x="1844" d="M8 1168l8 76h515l-14 -76l-168 -39l242 -857l281 922l177 25l247 -932l261 839l-181 42l12 76h449l-12 -76l-122 -39l-366 -1124l-154 -30l-262 977l-285 -947l-162 -30l-327 1151z" />
<glyph unicode="X" horiz-adv-x="1201" d="M3 0l13 76l126 45l366 493l-338 509l-137 43l11 78h514l-11 -78l-155 -45l247 -371l271 376l-170 40l12 78h436l-9 -76l-127 -39l-339 -472l342 -543l136 -33l-13 -81h-504l13 74l160 47l-262 408l-291 -411l165 -34l-15 -84h-441z" />
<glyph unicode="Y" horiz-adv-x="1209" d="M31 1168l13 76h508l-12 -76l-158 -39l277 -488l264 485l-183 42l10 76h444l-10 -76l-124 -39l-345 -600v-415l163 -33l-9 -81h-507l10 74l149 47v384l-352 621z" />
<glyph unicode="Z" horiz-adv-x="1008" d="M0 104l745 1045h-537l-77 -246l-90 18l10 323h929v-76l-765 -1068h570l123 250l93 -14l-57 -336h-936z" />
<glyph unicode="[" horiz-adv-x="483" d="M67 -377v1632h354l12 -89l-215 -20v-1405l216 -20l-10 -96z" />
<glyph unicode="\" horiz-adv-x="547" d="M-23 1274l132 -8l463 -1643l-130 9z" />
<glyph unicode="]" horiz-adv-x="483" d="M49 -279l217 20v1405l-215 20l12 89h353l1 -1632l-358 2z" />
<glyph unicode="^" horiz-adv-x="750" d="M56 826l289 411l55 13l295 -426l-56 -36l-272 285h-10l-251 -280z" />
<glyph unicode="_" horiz-adv-x="901" d="M30 -132l11 106h829l-11 -106h-829z" />
<glyph unicode="`" horiz-adv-x="634" d="M164 1660l115 38l132 -334l-57 -35z" />
<glyph unicode="a" horiz-adv-x="866" d="M66 169q0 57 26.5 108.5t80.5 95.5t145 74t209 38v55q0 54 -8 99t-27.5 84t-55 60t-86.5 21q-31 0 -51 -12t-30.5 -39t-15.5 -55.5t-10 -74.5q-2 -21 -4 -32q-21 0 -35.5 1.5t-35.5 7t-34.5 16t-23.5 31t-10 48.5q0 52 57 101.5t137 77.5q78 27 148 27q132 0 190 -74 t58 -234v-364q0 -70 21 -96t90 -38l49 -8l-11 -85q-16 -2 -41 -8t-47.5 -9t-48.5 -3q-79 0 -117 40.5t-38 93.5v15h-12q-12 -23 -31.5 -47t-52 -50t-82 -42.5t-107.5 -16.5q-83 0 -139.5 52.5t-56.5 141.5zM241 215q0 -43 30.5 -79.5t82.5 -36.5q47 0 95.5 28t77.5 61v240 q-155 -30 -220.5 -83.5t-65.5 -129.5z" />
<glyph unicode="b" horiz-adv-x="970" d="M-13 1161l13 76l277 21l25 -23v-386l-15 -104h12q136 153 286 153q145 0 233 -118t88 -308q0 -115 -40.5 -210.5t-109 -156.5t-157 -94.5t-186.5 -33.5q-160 0 -274 72v1059zM302 155q31 -31 88.5 -49.5t122.5 -18.5q92 0 153.5 81.5t61.5 239.5q0 49 -5.5 95t-20 95.5 t-37.5 86t-61.5 60t-86.5 23.5q-124 0 -215 -96v-517z" />
<glyph unicode="c" horiz-adv-x="783" d="M66 416q0 108 35.5 200.5t95.5 153.5t136 95.5t157 34.5q118 0 179.5 -44.5t61.5 -108.5q0 -45 -32.5 -72.5t-93.5 -32.5q-13 31 -25.5 55t-33 51.5t-46.5 42.5t-58 15q-90 0 -143 -82t-53 -217q0 -52 10.5 -107.5t34 -111.5t57.5 -99.5t84.5 -71t110.5 -27.5 q46 0 86.5 10.5t62.5 21t53 30.5l25 -58q-41 -50 -128.5 -87t-180.5 -37q-117 0 -208.5 62t-139 163t-47.5 221z" />
<glyph unicode="d" horiz-adv-x="1008" d="M66 400q0 105 39.5 200t102 160t140.5 103t155 38q49 0 98 -13.5t74 -32.5h8l-13 130v126l-152 55l14 74l277 25l23 -25v-1025q0 -37 6.5 -60t22 -35.5t30 -18t42.5 -11.5q6 -1 8 -1l45 -10l-11 -84q-72 -18 -148 -18q-72 0 -110 40.5t-38 106.5v7h-10 q-110 -152 -277 -152q-139 0 -232.5 111.5t-93.5 309.5zM243 462q0 -172 61 -264t160 -92q59 0 117.5 28t87.5 63v468q-38 63 -99 100.5t-114 37.5q-58 0 -100 -26t-66 -73.5t-35.5 -107t-11.5 -134.5z" />
<glyph unicode="e" horiz-adv-x="824" d="M61 428q0 109 37 199.5t96.5 148.5t131.5 90t146 32q115 0 191.5 -82t76.5 -234q0 -58 -17 -131l-484 -5q3 -62 21.5 -121t51 -110t86.5 -82t120 -31h6q43 0 67 2t65 15t89 38l22 -53q-60 -63 -146 -98.5t-183 -35.5q-72 0 -138.5 30t-120.5 85t-86 144t-32 199zM241 524 l314 21q7 22 7 69q0 187 -139 187q-67 0 -121 -70.5t-61 -206.5z" />
<glyph unicode="f" horiz-adv-x="611" d="M39 0l12 72l152 44v669h-149l12 72l139 23q10 83 38 154.5t67 120t85.5 83t93.5 50.5t91 16q85 0 136 -28.5t51 -86.5q0 -34 -30 -67.5t-60 -44.5q-38 48 -85.5 85t-89.5 37q-60 0 -93.5 -48t-36.5 -170l-2 -108h258l-14 -88h-244v-664l246 -37l-8 -84h-569z" />
<glyph unicode="g" horiz-adv-x="881" d="M21 -162q0 26 13.5 52t28 43t42.5 37t40 27t37 21v8q-47 22 -71.5 58t-24.5 80q0 39 53.5 89t113.5 74v9q-49 12 -106.5 87t-57.5 167q0 81 48 152t125.5 113t160.5 42q123 0 211 -63l215 15l20 -23l-38 -111h-17l-124 40v-16q35 -73 35 -139t-31.5 -123.5t-81 -94.5 t-109 -58.5t-116.5 -21.5q-55 0 -90 10q-51 -54 -51 -89q0 -23 12.5 -37.5t54 -24.5t116.5 -10h138q63 0 107.5 -7.5t85.5 -28t62.5 -62t21.5 -104.5q0 -85 -67 -163t-174.5 -125.5t-219.5 -47.5q-73 0 -134.5 11.5t-114.5 36.5t-83 70t-30 107zM198 -108q0 -171 240 -171 q51 0 92.5 9.5t74 29.5t51 55.5t18.5 84.5q0 64 -54 83.5t-197 19.5h-174q-2 -1 -5.5 -2.5t-12 -9.5t-15.5 -19.5t-12.5 -32.5t-5.5 -47zM249 608q0 -98 53 -163t113 -65q69 0 108 49t39 151q0 57 -18 110.5t-56 92.5t-88 39q-75 0 -113 -56.5t-38 -157.5z" />
<glyph unicode="h" horiz-adv-x="1066" d="M33 0l11 79l154 37v1002l-160 53l11 76l290 23l25 -25v-395l-17 -105h12q140 156 293 156q56 0 97.5 -13.5t76 -46t52 -93t17.5 -148.5v-486l145 -35l-11 -79h-449l11 74l135 40l4 459v7q0 51 -16 88.5t-42 57.5t-54.5 29.5t-60.5 9.5q-105 0 -193 -90v-559l146 -35 l-12 -81h-465z" />
<glyph unicode="i" horiz-adv-x="572" d="M49 0l12 79l152 37v615l-152 55l13 76l281 23l25 -25v-744l160 -35l-11 -81h-480zM169 1194q0 48 35 80.5t83 32.5q50 0 86.5 -33.5t36.5 -80.5q0 -50 -37 -86.5t-86 -36.5t-83.5 36.5t-34.5 87.5z" />
<glyph unicode="j" horiz-adv-x="460" d="M-49 -295q37 28 65 54t58.5 67.5t51 88t33.5 113t13 144.5v559l-151 55l15 79l279 22l26 -25v-711q0 -82 -16.5 -153.5t-44 -123.5t-67 -97.5t-79.5 -76.5t-90 -59l-44 -24zM124 1189q0 50 36.5 84.5t87.5 34.5q49 0 84.5 -35.5t35.5 -84.5q0 -51 -36 -88t-86 -37 t-86 37.5t-36 88.5z" />
<glyph unicode="k" horiz-adv-x="986" d="M33 0l11 79l153 37v992l-158 53l12 76l288 23l25 -25v-57v-1062l159 -35l-11 -81h-479zM388 433v19l259 324l-134 42l12 75h425l-14 -74l-150 -41l-236 -291l79 -100q25 -31 57.5 -74t50 -66t42.5 -53t42 -45t39.5 -31t45.5 -24t49 -12l39 -5l-11 -77q-59 -20 -119 -20 q-49 0 -89.5 15.5t-86 57.5t-85.5 91t-110 143z" />
<glyph unicode="l" horiz-adv-x="556" d="M33 0l11 79l153 37v1002l-158 53l12 76l288 23l25 -25v-1129l159 -35l-11 -81h-479z" />
<glyph unicode="m" horiz-adv-x="1599" d="M46 0l10 74l150 40v606l-160 50l10 76l304 41l18 -20l-18 -127h10q53 66 132.5 111.5t167.5 45.5q76 0 137 -40t83 -126h11q53 68 130.5 112.5t166.5 44.5q236 0 236 -279v-493l138 -35l-13 -79h-426l8 72l124 40v471q0 75 -44.5 125t-122.5 50q-60 0 -104.5 -26.5 t-87.5 -73.5v-546l149 -35l-10 -79h-444l12 74l131 40v471q0 78 -49 126.5t-122 48.5q-122 0 -198 -86v-560l143 -35l-10 -79h-462z" />
<glyph unicode="n" horiz-adv-x="1086" d="M46 0l10 72l150 42v607l-153 52l10 76l297 39l18 -19l-18 -127h10q56 67 135 111.5t167 44.5q117 0 179 -73.5t62 -208.5v-502l144 -35l-10 -79h-451l12 72l137 42v463q0 93 -47.5 139t-125.5 46q-55 0 -107 -23t-90 -64v-561l148 -35l-13 -79h-464z" />
<glyph unicode="o" horiz-adv-x="957" d="M63 426q0 110 36.5 202t97.5 151t139 91.5t162 32.5q183 0 289 -126.5t106 -335.5q0 -137 -56 -244t-151.5 -165t-211.5 -58q-192 0 -301.5 126.5t-109.5 325.5zM241 497q0 -81 15 -154t45 -135.5t83.5 -99.5t123.5 -37q67 0 115.5 43.5t70 107t21.5 137.5 q0 79 -14.5 153t-43.5 140t-81 106t-120 40q-72 0 -122 -43.5t-71.5 -109.5t-21.5 -148z" />
<glyph unicode="p" horiz-adv-x="988" d="M23 -373l7 79l152 38v979l-154 45l11 78l292 36l21 -18l-15 -130h8q30 41 65.5 75t92.5 61.5t118 27.5q66 0 120 -25t95.5 -75.5t64.5 -135t23 -195.5q0 -213 -125.5 -350t-319.5 -137q-44 0 -94 10l-5 121q35 -14 64 -18t88 -4q102 0 156 86t54 231q0 362 -192 362 q-105 0 -205 -103v-922l155 -35l-11 -81h-466z" />
<glyph unicode="q" horiz-adv-x="975" d="M49 413q0 99 39.5 191t102 156t142 102.5t157.5 38.5q44 0 94.5 -15.5t79.5 -31.5l116 38l29 -2v-1141l161 -34l-12 -82h-476l10 80l150 36v915q-32 56 -82.5 96.5t-118.5 40.5q-94 0 -155 -89t-61 -238q0 -174 60 -272q59 -98 157 -98q29 0 84.5 12.5t87.5 32.5l4 -77 q-44 -42 -114.5 -67.5t-126.5 -25.5q-67 0 -126 26.5t-104.5 78.5t-71.5 136.5t-26 192.5z" />
<glyph unicode="r" horiz-adv-x="718" d="M36 0l12 74l152 40v614l-162 48l13 76l286 38l20 -23l-16 -231h19q38 130 103 200t132 70q53 0 86.5 -33.5t33.5 -79.5q-1 -66 -78 -119q-58 49 -110 49q-47 0 -96 -57.5t-64 -160.5v-384l231 -34l-10 -87h-552z" />
<glyph unicode="s" horiz-adv-x="690" d="M46 141q0 52 36 89t96 42q31 -103 80.5 -155.5t108 -52.5t95 25t36.5 76q0 32 -23.5 61t-61.5 53t-83.5 48t-91.5 53.5t-83.5 62t-61.5 79.5t-24 102q0 35 11.5 73t36 75t59 65.5t84.5 46t108 17.5q104 0 174.5 -43.5t70.5 -123.5q0 -63 -37 -102t-102 -44l-8 43 q-36 185 -149 185q-51 0 -81.5 -34.5t-30.5 -84.5q0 -38 24 -71.5t63 -59.5t85.5 -51.5t93.5 -54.5t85.5 -61.5t63 -78.5t24.5 -100q0 -108 -94 -181.5t-214 -73.5q-129 0 -209.5 52.5t-80.5 123.5z" />
<glyph unicode="t" horiz-adv-x="634" d="M26 783v54q126 99 248 251h53v-219h282l-8 -88h-275l-4 -455v-7q0 -110 34.5 -153t112.5 -43q33 0 69 14t56 27l19 14l21 -54q-47 -68 -117 -107.5t-153 -39.5q-49 0 -86 13t-66.5 44t-45 87.5t-15.5 137.5v31l3 493h-128z" />
<glyph unicode="u" horiz-adv-x="1029" d="M23 783l13 79l269 21l24 -24v-542q0 -203 155 -203q112 0 186 78v531l-160 42l10 90l294 28l22 -24v-644q0 -36 6.5 -59.5t23.5 -36.5t32 -18.5t46 -11.5l45 -10l-8 -84q-76 -18 -152 -18q-72 0 -109.5 40.5t-37.5 105.5v8h-12q-104 -154 -287 -154q-223 0 -223 290v461z " />
<glyph unicode="v" horiz-adv-x="926" d="M0 798l10 75h447l-8 -74l-146 -41l189 -565l191 564l-160 41l14 75h383l-12 -74l-109 -41l-272 -768l-127 -18l-279 785z" />
<glyph unicode="w" horiz-adv-x="1242" d="M0 799l10 76h416l-10 -74l-136 -41l113 -400l23 -119l152 570l139 18l137 -484l21 -111l136 524l-151 41l10 76h384l-12 -74l-108 -41l-213 -770l-118 -18l-174 614l-157 -596l-118 -18l-228 786z" />
<glyph unicode="x" horiz-adv-x="914" d="M0 0l10 72l108 42l244 322l-230 329l-117 41l10 76h434l-13 -74l-115 -41l156 -218l167 216l-137 41l14 76h375l-13 -74l-105 -41l-230 -300l243 -353l114 -40l-9 -74h-445l13 72l127 42l-165 236l-180 -236l142 -40l-10 -74h-388z" />
<glyph unicode="y" horiz-adv-x="944" d="M3 796l12 77h419l-8 -74l-127 -37l204 -540l215 535l-130 41l13 75h343l-8 -74l-100 -41l-331 -811q-77 -190 -148.5 -258.5t-187.5 -68.5q-66 0 -110 36.5t-44 82.5q0 72 56 120q78 -54 150 -54q23 0 41 4.5t42 17.5t47 44.5t42 79.5l20 49l-286 758z" />
<glyph unicode="z" horiz-adv-x="901" d="M92 87l491 693h-337l-59 -185l-78 13l9 265h672v-74l-503 -700h360l95 177l67 -9l-41 -267h-671z" />
<glyph unicode="{" horiz-adv-x="667" d="M99 390v99l48 8q52 9 83.5 47t40.5 93t14 122.5t4.5 136t9.5 133.5t30.5 115t69 80.5t121.5 30.5h101l-8 -99l-82 -7q-46 -4 -59 -60t-13 -169v-58q0 -53 -1.5 -89.5t-6.5 -85.5t-16.5 -83.5t-29.5 -68.5t-47.5 -56.5t-68.5 -34.5v-6q61 -17 98 -65.5t51 -111.5t18 -135 t4 -141t4 -125.5t23 -93t56 -38.5l75 -5l8 -101h-103q-84 0 -135.5 39.5t-70 103t-24 141.5t-7 157.5t-8.5 147t-38.5 115t-88.5 56.5z" />
<glyph unicode="|" horiz-adv-x="569" d="M233 -367v1627l116 -11v-1629z" />
<glyph unicode="}" horiz-adv-x="667" d="M41 -378l8 101l75 5q37 2 56 38.5t23 93t4 125.5t4 141t18 135t51 111t98 66v6q-39 12 -68.5 34.5t-47.5 56.5t-29.5 68.5t-16.5 83.5t-6.5 85.5t-1.5 89.5v58q0 113 -13 169t-59 60l-82 7l-8 99h101q73 0 121.5 -30.5t69 -80.5t30.5 -115t9.5 -133.5t4.5 -136t14 -122.5 t40.5 -93t83.5 -47l48 -8v-99l-51 -8q-58 -9 -89.5 -56.5t-38.5 -115t-8.5 -147t-7 -157.5t-24 -141.5t-70 -103t-135.5 -39.5h-103z" />
<glyph unicode="~" horiz-adv-x="950" d="M82 413q2 8 6 21t19 48t33.5 61t50 47.5t68.5 21.5q9 0 13 -1l446 -44h4q16 0 37 15t33 30l12 16l65 -2q-1 -4 -3.5 -11.5t-10.5 -28.5t-17.5 -40t-25.5 -42.5t-33.5 -40t-42.5 -28t-51 -11.5h-15l-445 45h-5q-18 0 -39 -17.5t-32 -34.5l-12 -17z" />
<glyph unicode="&#xa1;" horiz-adv-x="485" d="M119 785q0 53 36.5 89.5t88.5 36.5t88 -37.5t36 -90.5q0 -49 -37 -83.5t-87 -34.5q-51 0 -88 35t-37 85zM146 -378q0 247 54 912v6l89 -20v-3q20 -255 36.5 -534t16.5 -358v-3q-6 -19 -50.5 -29.5t-81.5 -10.5q-25 0 -44.5 9t-19.5 31z" />
<glyph unicode="&#xa2;" horiz-adv-x="801" d="M66 416q0 108 35.5 200.5t95.5 153.5t136 95.5t157 34.5l37 130l133 8l-46 -155q58 -19 87.5 -56t29.5 -80q0 -45 -32.5 -72.5t-93.5 -32.5q-26 65 -55 102l-169 -590q70 -64 162 -64q46 0 86.5 10.5t62.5 21t53 30.5l25 -58q-41 -50 -128.5 -87t-180.5 -37 q-54 0 -104 14l-38 -130l-129 -9l54 193q-84 59 -131 160t-47 218zM246 507q0 -70 19 -145.5t57 -136.5l164 573q-20 8 -44 8q-90 0 -143 -82t-53 -217z" />
<glyph unicode="&#xa3;" horiz-adv-x="1065" d="M38 0l8 74l167 47q21 70 29 142.5t11 197.5l1 88l-178 -10l11 100l170 10l4 137q7 232 118 348t290 116q137 0 232 -39l-31 -316l-85 13l-41 213q-43 23 -85 23q-51 0 -85 -14.5t-57.5 -43.5t-37 -84t-19 -124t-8.5 -175v-47l220 13l-12 -101l-209 -13l-2 -40 q-3 -143 -15.5 -247t-45.5 -169l461 -4l131 254l85 -18l-38 -331h-989z" />
<glyph unicode="&#xa4;" horiz-adv-x="777" d="M77 713l85 83l77 -88q32 27 74.5 43.5t79.5 16.5q40 0 84 -14t73 -36l78 80l75 -88l-84 -74q36 -64 37 -146q0 -86 -43 -148l94 -86l-88 -82l-79 90q-79 -48 -155 -48q-66 0 -134 41l-77 -88l-85 85l85 78q-20 31 -32.5 74t-12.5 83q0 80 38 139zM234 493 q0 -81 43.5 -130.5t112.5 -49.5q72 0 116 48.5t44 125.5q0 83 -44.5 133t-117.5 50q-69 0 -111.5 -48.5t-42.5 -128.5z" />
<glyph unicode="&#xa5;" horiz-adv-x="1209" d="M113 1168l13 76h460l-12 -76l-132 -39l217 -493l218 490l-157 42l10 76h396l-10 -76l-123 -39l-254 -551h300l-12 -98h-316v-143h325l-12 -97h-313v-128l164 -34l-10 -78h-501l10 72l150 46v122h-310l11 97h299v143h-307l12 98h267l-247 548z" />
<glyph unicode="&#xa6;" horiz-adv-x="569" d="M229 -367v789l119 -12v-790zM229 540v720l117 -11l-1 -720z" />
<glyph unicode="&#xa7;" horiz-adv-x="734" d="M42 -236l13 267l103 -15l38 -188q29 -46 84.5 -77.5t121.5 -31.5q42 0 82.5 12t76 36t57.5 66t22 95t-31.5 97t-82.5 77t-111.5 65t-122 68.5t-112 79.5t-82 105t-31.5 138q0 28 3 48l356 -201q24 -13 66 -35t69 -36.5t65.5 -38t63.5 -43.5t52.5 -49t43.5 -58.5t26.5 -68 t10.5 -81.5q0 -84 -37.5 -156t-99 -120t-141.5 -75t-166 -27q-104 0 -195 42t-142 105zM69 916q0 109 57 191t144 122.5t187 40.5q163 0 283 -100l-22 -283l-99 11l-26 192q-16 32 -64.5 63t-104.5 31q-81 0 -132 -47.5t-51 -140.5q0 -46 20 -85t54 -68.5t78 -56.5t92 -52 t96.5 -51.5t92.5 -59t77.5 -69.5t54 -88.5t20.5 -111.5q0 -27 -4 -54l-407 227l-21 12q-39 21 -59.5 32t-56 33t-56 38t-48.5 40.5t-44 48t-31.5 53t-22.5 62.5t-7 70z" />
<glyph unicode="&#xa8;" horiz-adv-x="686" d="M124 1465q0 35 25.5 56t58.5 21q35 0 60.5 -21.5t25.5 -55.5q0 -35 -25.5 -58t-60.5 -23q-34 0 -59 22.5t-25 58.5zM392 1465q0 35 25 56t58 21q35 0 61.5 -21.5t26.5 -55.5q0 -35 -26 -58t-62 -23q-34 0 -58.5 22.5t-24.5 58.5z" />
<glyph unicode="&#xa9;" horiz-adv-x="1381" d="M4 646q0 140 51.5 265.5t138 215t202 141.5t240.5 52q151 0 274.5 -53t203.5 -148q164 -195 165 -470q0 -132 -51 -254t-137.5 -211.5t-208 -143.5t-256.5 -54t-251.5 50.5t-197.5 138t-127 210t-46 261.5zM127 657q0 -162 65 -290.5t180.5 -201t261.5 -72.5 q107 0 203.5 41.5t166.5 113.5t111.5 174t41.5 217q0 232 -123 400q-63 84 -167 131.5t-231 47.5q-141 0 -258.5 -76.5t-184 -205t-66.5 -279.5zM272 647q0 225 176 354q97 67 229 67q138 0 220 -62l-16 -199l-53 6l-23 132q-43 53 -164 53q-101 0 -161.5 -82.5 t-60.5 -227.5q0 -163 75.5 -246.5t202.5 -83.5q123 0 210 71q14 -14 30 -48q-118 -114 -290 -114q-103 0 -187.5 45.5t-136 133t-51.5 201.5z" />
<glyph unicode="&#xaa;" horiz-adv-x="403" d="M28 287l7 58h338l-6 -58h-339zM48 479q0 46 40 76.5t143 49.5v26q0 105 -66 105q-25 0 -32.5 -15t-12.5 -55q-1 -5 -1 -7q-55 0 -55 41q0 30 44.5 53t89.5 23q53 0 76 -30t23 -94v-145q0 -28 8.5 -39t36.5 -14l20 -3l-5 -35q-49 -8 -55 -8q-32 0 -47.5 16.5t-15.5 37.5v5 h-5q-11 -23 -41 -42t-67 -19q-33 0 -55.5 18.5t-22.5 54.5zM118 497q0 -48 44 -48q22 0 41 13.5t28 29.5v85q-68 -11 -90.5 -29.5t-22.5 -50.5z" />
<glyph unicode="&#xab;" horiz-adv-x="721" d="M79 469l268 352l45 -59l-166 -301l169 -320l-53 -64l-261 372zM327 469l268 352l44 -59l-165 -301l168 -320l-52 -64l-262 372z" />
<glyph unicode="&#xac;" horiz-adv-x="955" d="M82 558l12 106h745l2 -314l-107 -18v226h-652z" />
<glyph unicode="&#xad;" horiz-adv-x="569" d="M79 406l8 115l408 61l-8 -116z" />
<glyph unicode="&#xae;" horiz-adv-x="468" d="M8 1068q0 108 61.5 174t161.5 66q103 0 166.5 -65.5t63.5 -172.5q0 -105 -65 -169t-170 -64q-98 0 -158 63.5t-60 167.5zM48 1075q0 -92 49.5 -148.5t131.5 -56.5q86 0 140 53.5t54 141.5q0 95 -53.5 153.5t-138.5 58.5q-83 0 -133 -56t-50 -146zM118 953l1 18l36 9v198 l-36 6l2 18q66 7 89 7q109 0 109 -63q0 -42 -55 -66l39 -54q28 -40 59 -53l6 -2l-4 -18q-10 -3 -25 -3q-44 0 -75 54l-33 56h-31v-79l34 -10l-1 -18h-115zM200 1085h34q16 0 25.5 14.5t9.5 38t-15 36t-39 12.5l-15 -2v-99z" />
<glyph unicode="&#xaf;" horiz-adv-x="701" d="M124 1379l13 101h441l-13 -101h-441z" />
<glyph unicode="&#xb0;" horiz-adv-x="403" d="M36 1113q0 70 49.5 121t119.5 51q71 0 113 -45.5t42 -116.5t-47 -123t-121 -52q-70 0 -113 44.5t-43 120.5zM108 1124q0 -50 25 -89t70 -39q41 0 63.5 29.5t22.5 84.5q0 51 -26 89t-70 38q-42 0 -63.5 -33.5t-21.5 -79.5z" />
<glyph unicode="&#xb1;" horiz-adv-x="792" d="M82 13l17 104l611 6l-17 -103zM107 475l11 101h210v232l108 -13l2 -219h219l-11 -101h-208l1 -236l-111 12v224h-221z" />
<glyph unicode="&#xb2;" horiz-adv-x="259" d="M28 1042l86 86q39 37 40 81q0 26 -11 42.5t-32 16.5q-32 0 -32 -72q-23 2 -33 10t-10 26q0 25 32.5 47t62.5 22q32 0 54.5 -22t22.5 -57q0 -39 -18 -64t-69 -70l-40 -34h132l-7 -43h-176z" />
<glyph unicode="&#xb3;" horiz-adv-x="600" d="M38 994q0 15 13 24t26 11q3 -20 6.5 -30.5t13.5 -20.5t27 -10q26 0 40 18.5t14 45.5t-18.5 50t-45.5 23q-5 0 -18 -1t-19 -1q-5 25 -5 26v2l9 2q7 2 14 4.5t17.5 7t19.5 11t16.5 15t12 20.5t4.5 26q0 21 -12 36t-32 15q-16 0 -27.5 -16.5t-11.5 -52.5q-41 2 -41 30 q0 31 34 51.5t64 20.5q32 0 54 -21.5t22 -49.5q0 -29 -16 -55.5t-42 -40.5v-5q35 -10 54.5 -34.5t19.5 -54.5q0 -40 -29 -71t-73 -31q-49 0 -70 17t-21 39z" />
<glyph unicode="&#xb4;" horiz-adv-x="618" d="M229 1381l123 325l112 -40l-184 -317z" />
<glyph unicode="&#xb6;" horiz-adv-x="1385" d="M48 844q0 116 60.5 208.5t161.5 142.5t222 50l745 -1l-10 -76l-170 -39v-1015l182 -33l-10 -81h-726l9 74l167 47v364q-64 -5 -130 -5q-501 0 -501 364zM254 880q0 -136 78 -219t235 -83l105 7l7 -5v572q-41 2 -106 2q-319 0 -319 -274zM846 114l21 -3l38 10v1005l-36 8 l-23 -5v-1015z" />
<glyph unicode="&#xb7;" horiz-adv-x="403" d="M82 505q0 48 35.5 80.5t84.5 32.5t84.5 -33.5t35.5 -81.5q0 -50 -35.5 -85.5t-85 -35.5t-84.5 36t-35 87z" />
<glyph unicode="&#xb8;" horiz-adv-x="384" d="M82 -331q41 14 64 37t23 46q0 40 -74 111l98 140h74l-54 -79q89 -77 89 -150q0 -104 -200 -164z" />
<glyph unicode="&#xb9;" horiz-adv-x="221" d="M31 1009l4 23l49 13v199h-46l1 23l87 23h8v-246l54 -10l-3 -25h-154z" />
<glyph unicode="&#xba;" horiz-adv-x="403" d="M28 287l7 58h338l-6 -58h-339zM38 583q0 89 48 139.5t117 50.5q72 0 111.5 -49.5t39.5 -135.5q0 -82 -45.5 -134.5t-115.5 -52.5q-76 0 -115.5 50.5t-39.5 131.5zM111 601q0 -72 26 -116t66 -44q77 0 77 134q0 69 -24.5 112.5t-67.5 43.5q-77 0 -77 -130z" />
<glyph unicode="&#xbb;" horiz-adv-x="721" d="M79 141l169 320l-166 301l45 59l268 -352l-2 -20l-261 -372zM327 141l168 320l-165 301l44 59l268 -352l-1 -20l-262 -372z" />
<glyph unicode="&#xbc;" horiz-adv-x="1044" d="M85 502l2 29l114 19v364h-108l2 31l164 30h11v-427l109 -13l-4 -33h-290zM154 -30l690 990l80 8l-686 -989zM574 173l247 305l26 -8q-3 -63 -3 -197v-81h102l-7 -51h-95v-135l-66 -11v148h-195zM642 192h134v172z" />
<glyph unicode="&#xbd;" horiz-adv-x="1047" d="M104 502l3 29l113 19v364h-107l2 31l164 30h11v-427l109 -13l-4 -33h-291zM154 -30l690 990l80 8l-686 -989zM628 41l97 82q40 35 66 61.5t49 66t23 77.5q0 101 -82 101q-65 0 -106 -102l-33 13q13 55 59 99.5t104 44.5q65 0 98 -35.5t33 -102.5q0 -32 -13 -63t-37 -60.5 t-45 -50t-53 -48t-44 -38.5l-38 -30h192l38 69l28 -4l-22 -121h-312z" />
<glyph unicode="&#xbe;" horiz-adv-x="1044" d="M89 543q0 16 13 27.5t37 13.5q2 -16 26 -39t50 -23q95 0 95 96q0 38 -34.5 70.5t-87.5 32.5h-6l-4 26q10 3 25 10.5t37 21.5t36.5 36t14.5 47q0 30 -16.5 49.5t-52.5 19.5q-55 0 -80 -61l-29 11q7 36 45.5 69.5t88.5 33.5q47 0 81.5 -29t34.5 -72q0 -45 -27 -75.5 t-68 -45.5v-4q52 -7 82.5 -41t30.5 -75q0 -65 -54.5 -110t-133.5 -45q-49 0 -76.5 17t-27.5 39zM154 -30l690 990l80 8l-686 -989zM574 173l247 305l26 -8q-3 -63 -3 -197v-81h102l-7 -51h-95v-135l-66 -11v148h-195zM642 192h134v172z" />
<glyph unicode="&#xbf;" horiz-adv-x="600" d="M33 39q0 49 16 87t41 61.5t56 43t62 35t56 32t41 40.5t16 54q0 53 -22 125l74 16q27 -40 52.5 -102.5t25.5 -115.5q0 -45 -17 -79t-44 -54t-59.5 -36t-65.5 -31t-60 -33.5t-44 -49t-17 -71.5q0 -65 57 -119.5t107 -54.5q58 0 109 18.5t82 52.5q28 -12 51 -42.5t23 -68.5 q0 -22 -9 -43.5t-29.5 -43t-61 -35t-96.5 -13.5q-58 0 -119 31.5t-111.5 86.5t-82 136.5t-31.5 172.5zM213 809q0 53 37 90t89 37t87.5 -37.5t35.5 -90.5q0 -50 -36.5 -84t-86.5 -34q-51 0 -88.5 34.5t-37.5 84.5z" />
<glyph unicode="&#xc0;" horiz-adv-x="1278" d="M2 0l10 74l148 55l438 1108l152 31l389 -1144l138 -43l-9 -81h-515l12 74l171 55l-109 304h-419l-113 -309l187 -43l-12 -81h-468zM446 534h352l-167 500zM476 1665l115 38l133 -334l-58 -35z" />
<glyph unicode="&#xc1;" horiz-adv-x="1278" d="M2 0l10 74l148 55l438 1108l152 31l389 -1144l138 -43l-9 -81h-515l12 74l171 55l-109 304h-419l-113 -309l187 -43l-12 -81h-468zM446 534h352l-167 500zM632 1386l123 325l112 -40l-184 -317z" />
<glyph unicode="&#xc2;" horiz-adv-x="1278" d="M2 0l10 74l148 55l438 1108l152 31l389 -1144l138 -43l-9 -81h-515l12 74l171 55l-109 304h-419l-113 -309l187 -43l-12 -81h-468zM446 534h352l-167 500zM483 1392l168 180l55 14l177 -185l-49 -37l-164 109h-10l-139 -111z" />
<glyph unicode="&#xc3;" horiz-adv-x="1278" d="M2 0l10 74l148 55l438 1108l152 31l389 -1144l138 -43l-9 -81h-515l12 74l171 55l-109 304h-419l-113 -309l187 -43l-12 -81h-468zM446 534h352l-167 500zM447 1384q2 6 4 15.5t13 34t23.5 43.5t34.5 34.5t46 15.5q10 0 14 -1l222 -30h5q12 0 25.5 10.5t21.5 20.5l8 10 l48 -1q-2 -6 -4.5 -16t-14 -34.5t-25 -43.5t-36.5 -34.5t-50 -15.5h-12l-223 32h-3q-13 0 -27.5 -12t-23.5 -24l-9 -12z" />
<glyph unicode="&#xc4;" horiz-adv-x="1278" d="M2 0l10 74l148 55l438 1108l152 31l389 -1144l138 -43l-9 -81h-515l12 74l171 55l-109 304h-419l-113 -309l187 -43l-12 -81h-468zM446 534h352l-167 500zM461 1453q0 35 25.5 56.5t58.5 21.5q35 0 60.5 -22t25.5 -56q0 -35 -25.5 -57.5t-60.5 -22.5q-34 0 -59 22.5 t-25 57.5zM729 1453q0 35 25.5 56.5t58.5 21.5q35 0 61.5 -22t26.5 -56q0 -35 -26.5 -57.5t-61.5 -22.5q-34 0 -59 22.5t-25 57.5z" />
<glyph unicode="&#xc5;" horiz-adv-x="1278" d="M2 0l10 74l148 55l438 1108l152 31l389 -1144l138 -43l-9 -81h-515l12 74l171 55l-109 304h-419l-113 -309l187 -43l-12 -81h-468zM446 534h352l-167 500zM521 1532q0 70 48.5 121t118.5 51q71 0 113.5 -45t42.5 -117q0 -71 -47.5 -123t-121.5 -52q-70 0 -112 45t-42 120 zM591 1544q0 -50 25.5 -89t70.5 -39q41 0 63.5 29.5t22.5 83.5q0 51 -26 89t-70 38q-42 0 -64 -33t-22 -79z" />
<glyph unicode="&#xc6;" horiz-adv-x="1692" d="M7 2l10 74l136 55l713 1113h777l-31 -316l-86 13l-41 211h-438v-472h257l43 123l95 6l-33 -385l-86 -14l-33 176h-243v-491h464l99 234l81 -16l-30 -313h-477h-440h-54l8 74l164 47h3v351h-360l-216 -346l186 -44l-11 -80h-457zM558 568h307l2 491z" />
<glyph unicode="&#xc7;" horiz-adv-x="1111" d="M49 590q0 65 11.5 130.5t37 133t61.5 128t89 113.5t117 92t148.5 61t179.5 22q229 0 362 -100l-31 -333l-88 13l-41 220q-81 104 -259 105q-160 0 -266 -140t-106 -376q0 -130 37.5 -236t101 -173t144.5 -103t171 -36q95 0 187 42.5t162 107.5l36 -76 q-57 -68 -155.5 -126t-215.5 -76l-40 -59q89 -77 89 -150q0 -104 -200 -164l-20 59q41 14 63.5 37t22.5 46q0 40 -73 111l78 112h-11q-117 0 -222.5 41t-188.5 116t-132 194t-49 264z" />
<glyph unicode="&#xc8;" horiz-adv-x="1074" d="M25 1168l10 76h996l-32 -320l-86 14l-41 214h-472v-475h290l43 119l94 13l-32 -388l-87 -13l-33 175h-275v-488h497l97 231l83 -13l-30 -313h-1016l8 74l167 47v1005zM418 1665l115 38l132 -334l-57 -35z" />
<glyph unicode="&#xc9;" horiz-adv-x="1074" d="M25 1168l10 76h996l-32 -320l-86 14l-41 214h-472v-475h290l43 119l94 13l-32 -388l-87 -13l-33 175h-275v-488h497l97 231l83 -13l-30 -313h-1016l8 74l167 47v1005zM492 1386l122 325l112 -40l-183 -317z" />
<glyph unicode="&#xca;" horiz-adv-x="1074" d="M25 1168l10 76h996l-32 -320l-86 14l-41 214h-472v-475h290l43 119l94 13l-32 -388l-87 -13l-33 175h-275v-488h497l97 231l83 -13l-30 -313h-1016l8 74l167 47v1005zM411 1388l168 179l55 14l178 -185l-50 -37l-163 109h-10l-140 -111z" />
<glyph unicode="&#xcb;" horiz-adv-x="1074" d="M25 1168l10 76h996l-32 -320l-86 14l-41 214h-472v-475h290l43 119l94 13l-32 -388l-87 -13l-33 175h-275v-488h497l97 231l83 -13l-30 -313h-1016l8 74l167 47v1005zM354 1453q0 35 25.5 56.5t58.5 21.5q35 0 60 -22t25 -56q0 -35 -25.5 -57.5t-59.5 -22.5t-59 22.5 t-25 57.5zM621 1453q0 35 25.5 56.5t58.5 21.5q35 0 61.5 -22t26.5 -56q0 -35 -26.5 -57.5t-61.5 -22.5q-34 0 -59 22.5t-25 57.5z" />
<glyph unicode="&#xcc;" horiz-adv-x="600" d="M25 1168l10 76h545l-10 -76l-170 -39v-1015l182 -33l-10 -81h-541l8 74l167 47v1005zM108 1665l115 38l132 -334l-57 -35z" />
<glyph unicode="&#xcd;" horiz-adv-x="600" d="M25 1168l10 76h545l-10 -76l-170 -39v-1015l182 -33l-10 -81h-541l8 74l167 47v1005zM264 1386l123 325l111 -40l-183 -317z" />
<glyph unicode="&#xce;" horiz-adv-x="600" d="M25 1168l10 76h545l-10 -76l-170 -39v-1015l182 -33l-10 -81h-541l8 74l167 47v1005zM106 1392l168 180l55 14l178 -185l-50 -37l-163 109h-10l-140 -111z" />
<glyph unicode="&#xcf;" horiz-adv-x="600" d="M25 1168l10 76h545l-10 -76l-170 -39v-1015l182 -33l-10 -81h-541l8 74l167 47v1005zM85 1453q0 35 25.5 56.5t58.5 21.5q35 0 60 -22t25 -56q0 -35 -25.5 -57.5t-59.5 -22.5t-59 22.5t-25 57.5zM352 1453q0 35 25.5 56.5t58.5 21.5q35 0 61.5 -22t26.5 -56 q0 -35 -26.5 -57.5t-61.5 -22.5q-34 0 -59 22.5t-25 57.5z" />
<glyph unicode="&#xd0;" horiz-adv-x="1320" d="M18 0l13 74l172 55v441l-180 -15l12 92l168 13v445l-172 29l8 77q310 49 515 49q164 0 291.5 -33.5t210 -89t135.5 -134.5t75 -163t22 -181q0 -99 -31 -194t-94 -179t-152 -148t-213 -101t-267 -37h-513zM395 104h211q119 0 211 40.5t146.5 111t82 157t27.5 185.5 q0 117 -35 217t-102.5 177t-175 121t-243.5 44q-67 0 -122 -6v-479l257 21l-11 -92l-246 -19v-478z" />
<glyph unicode="&#xd1;" horiz-adv-x="1337" d="M25 1168l10 76h352l642 -972v854l-185 42l11 76h476l-13 -76l-167 -39v-1127l-153 -32l-664 991v-847l183 -33l-10 -81h-476l8 74l167 47v997zM419 1384q2 6 4.5 15.5t13 34t23.5 43.5t35 34.5t46 15.5q9 0 13 -1l223 -30h4q12 0 26 10.5t22 20.5l8 10l48 -1 q-2 -6 -4.5 -16t-14 -34.5t-25.5 -43.5t-37 -34.5t-49 -15.5h-12l-223 32h-3q-13 0 -27.5 -12t-23.5 -24l-9 -12z" />
<glyph unicode="&#xd2;" horiz-adv-x="1322" d="M49 619q0 192 78 340t225 231t343 83q106 0 198.5 -34t161.5 -95t118.5 -143t74.5 -179.5t25 -202.5q0 -131 -43 -246.5t-123.5 -205t-205 -141.5t-275.5 -52q-169 0 -301.5 86t-204 232.5t-71.5 326.5zM272 677q0 -90 14 -174.5t45.5 -162.5t77 -135.5t114 -91.5 t152.5 -34q88 0 155.5 29t108.5 75t66.5 112t35 133t9.5 145q0 88 -14 172t-45.5 163t-77 138t-114.5 94.5t-152 35.5q-375 0 -375 -499zM516 1665l115 38l132 -334l-57 -35z" />
<glyph unicode="&#xd3;" horiz-adv-x="1322" d="M49 619q0 192 78 340t225 231t343 83q106 0 198.5 -34t161.5 -95t118.5 -143t74.5 -179.5t25 -202.5q0 -131 -43 -246.5t-123.5 -205t-205 -141.5t-275.5 -52q-169 0 -301.5 86t-204 232.5t-71.5 326.5zM272 677q0 -90 14 -174.5t45.5 -162.5t77 -135.5t114 -91.5 t152.5 -34q88 0 155.5 29t108.5 75t66.5 112t35 133t9.5 145q0 88 -14 172t-45.5 163t-77 138t-114.5 94.5t-152 35.5q-375 0 -375 -499zM620 1381l123 325l112 -40l-184 -317z" />
<glyph unicode="&#xd4;" horiz-adv-x="1322" d="M49 619q0 192 78 340t225 231t343 83q106 0 198.5 -34t161.5 -95t118.5 -143t74.5 -179.5t25 -202.5q0 -131 -43 -246.5t-123.5 -205t-205 -141.5t-275.5 -52q-169 0 -301.5 86t-204 232.5t-71.5 326.5zM272 677q0 -90 14 -174.5t45.5 -162.5t77 -135.5t114 -91.5 t152.5 -34q88 0 155.5 29t108.5 75t66.5 112t35 133t9.5 145q0 88 -14 172t-45.5 163t-77 138t-114.5 94.5t-152 35.5q-375 0 -375 -499zM473 1392l168 180l55 14l177 -185l-49 -37l-164 109h-9l-140 -111z" />
<glyph unicode="&#xd5;" horiz-adv-x="1322" d="M49 619q0 192 78 340t225 231t343 83q106 0 198.5 -34t161.5 -95t118.5 -143t74.5 -179.5t25 -202.5q0 -131 -43 -246.5t-123.5 -205t-205 -141.5t-275.5 -52q-169 0 -301.5 86t-204 232.5t-71.5 326.5zM272 677q0 -90 14 -174.5t45.5 -162.5t77 -135.5t114 -91.5 t152.5 -34q88 0 155.5 29t108.5 75t66.5 112t35 133t9.5 145q0 88 -14 172t-45.5 163t-77 138t-114.5 94.5t-152 35.5q-375 0 -375 -499zM436 1384q2 6 4 15.5t13 34t23.5 43.5t34.5 34.5t47 15.5q9 0 13 -1l223 -30h4q12 0 25.5 10.5t22.5 20.5l8 10l47 -1q-2 -6 -4.5 -16 t-14 -34.5t-25 -43.5t-36.5 -34.5t-50 -15.5h-12l-223 32h-2q-13 0 -28 -12t-24 -24l-8 -12z" />
<glyph unicode="&#xd6;" horiz-adv-x="1322" d="M49 619q0 192 78 340t225 231t343 83q106 0 198.5 -34t161.5 -95t118.5 -143t74.5 -179.5t25 -202.5q0 -131 -43 -246.5t-123.5 -205t-205 -141.5t-275.5 -52q-169 0 -301.5 86t-204 232.5t-71.5 326.5zM272 677q0 -90 14 -174.5t45.5 -162.5t77 -135.5t114 -91.5 t152.5 -34q88 0 155.5 29t108.5 75t66.5 112t35 133t9.5 145q0 88 -14 172t-45.5 163t-77 138t-114.5 94.5t-152 35.5q-375 0 -375 -499zM452 1453q0 35 25 56.5t58 21.5q35 0 60.5 -22t25.5 -56q0 -35 -25.5 -57.5t-60.5 -22.5q-34 0 -58.5 22.5t-24.5 57.5zM719 1453 q0 35 25.5 56.5t58.5 21.5q35 0 61.5 -22t26.5 -56q0 -35 -26.5 -57.5t-61.5 -22.5q-34 0 -59 22.5t-25 57.5z" />
<glyph unicode="&#xd7;" horiz-adv-x="569" d="M53 310l155 152l-155 157l83 66l153 -153l165 160l66 -84l-156 -151l157 -160l-82 -66l-155 157l-165 -160z" />
<glyph unicode="&#xd8;" horiz-adv-x="1322" d="M49 619q0 192 78 340t225 231t343 83q126 0 235 -49l43 80l151 9l-84 -157q111 -90 172 -231.5t61 -305.5q0 -131 -43 -246.5t-123.5 -205t-205 -141.5t-275.5 -52q-105 0 -202 36l-60 -113l-148 -8l96 179q-124 85 -193.5 229.5t-69.5 321.5zM272 677 q0 -141 34.5 -266.5t105.5 -208.5l470 879q-98 95 -235 95q-375 0 -375 -499zM469 146q87 -67 206 -67q88 0 155.5 29t108.5 75t66.5 112t35 133t9.5 145q0 123 -28 239.5t-86 202.5z" />
<glyph unicode="&#xd9;" horiz-adv-x="1368" d="M8 1168l13 76h542l-9 -76l-169 -39v-619q0 -206 93.5 -305t254.5 -99q155 0 240 92.5t86 283.5l1 644l-182 42l10 76h479l-12 -76l-166 -39l-5 -614q-2 -274 -122.5 -407.5t-378.5 -133.5q-76 0 -139.5 10.5t-131 42.5t-113.5 85t-76 144t-30 213v657zM503 1660l115 38 l132 -334l-57 -35z" />
<glyph unicode="&#xda;" horiz-adv-x="1368" d="M8 1168l13 76h542l-9 -76l-169 -39v-619q0 -206 93.5 -305t254.5 -99q155 0 240 92.5t86 283.5l1 644l-182 42l10 76h479l-12 -76l-166 -39l-5 -614q-2 -274 -122.5 -407.5t-378.5 -133.5q-76 0 -139.5 10.5t-131 42.5t-113.5 85t-76 144t-30 213v657zM676 1381l123 325 l111 -40l-183 -317z" />
<glyph unicode="&#xdb;" horiz-adv-x="1368" d="M8 1168l13 76h542l-9 -76l-169 -39v-619q0 -206 93.5 -305t254.5 -99q155 0 240 92.5t86 283.5l1 644l-182 42l10 76h479l-12 -76l-166 -39l-5 -614q-2 -274 -122.5 -407.5t-378.5 -133.5q-76 0 -139.5 10.5t-131 42.5t-113.5 85t-76 144t-30 213v657zM522 1392l168 180 l55 14l178 -185l-50 -37l-163 109h-10l-140 -111z" />
<glyph unicode="&#xdc;" horiz-adv-x="1368" d="M8 1168l13 76h542l-9 -76l-169 -39v-619q0 -206 93.5 -305t254.5 -99q155 0 240 92.5t86 283.5l1 644l-182 42l10 76h479l-12 -76l-166 -39l-5 -614q-2 -274 -122.5 -407.5t-378.5 -133.5q-76 0 -139.5 10.5t-131 42.5t-113.5 85t-76 144t-30 213v657zM501 1453 q0 35 25.5 56.5t58.5 21.5q35 0 60 -22t25 -56q0 -35 -25.5 -57.5t-59.5 -22.5t-59 22.5t-25 57.5zM768 1453q0 35 25.5 56.5t58.5 21.5q35 0 61.5 -22t26.5 -56q0 -35 -26.5 -57.5t-61.5 -22.5q-34 0 -59 22.5t-25 57.5z" />
<glyph unicode="&#xdd;" horiz-adv-x="1209" d="M31 1168l13 76h508l-12 -76l-158 -39l277 -488l264 485l-183 42l10 76h444l-10 -76l-124 -39l-345 -600v-415l163 -33l-9 -81h-507l10 74l149 47v384l-352 621zM564 1381l123 325l112 -40l-184 -317z" />
<glyph unicode="&#xde;" horiz-adv-x="1016" d="M20 1168l10 76h543l-10 -76l-170 -39v-108q82 3 124 3q501 0 500 -364q0 -116 -60 -208.5t-161.5 -142.5t-222.5 -50q-61 0 -116 7q-16 49 -16 84q12 -1 17.5 -0.5t16.5 0.5h17q319 0 319 274q0 136 -78 219t-235 83l-105 -6v-799l236 -39l-13 -84h-593l10 74l169 47 v1007z" />
<glyph unicode="&#xdf;" horiz-adv-x="1149" d="M39 0l12 72l152 44v669h-145l9 64l138 23q7 112 58 210t142 161t201 63q119 0 192.5 -72.5t73.5 -179.5q0 -54 -22.5 -101.5t-53.5 -80t-62.5 -62t-54 -62t-22.5 -65.5q0 -35 25 -65t64 -54t86 -47.5t94.5 -51.5t86.5 -60.5t63.5 -79t24.5 -102.5q0 -108 -93 -181 t-213 -73q-129 0 -210.5 51.5t-81.5 121.5q0 61 37 95t94 39q23 -95 78 -152t114 -57q61 0 96 21.5t35 78.5q0 28 -23.5 54.5t-61.5 49t-83.5 46.5t-91.5 53t-83.5 62.5t-61 80.5t-23.5 101q0 51 19.5 95.5t47 77.5t55 64t46.5 68t19 75q0 89 -49.5 146.5t-132.5 57.5 q-80 0 -122 -67.5t-42 -220.5l2 -910h-333z" />
<glyph unicode="&#xe0;" horiz-adv-x="866" d="M66 169q0 57 26.5 108.5t80.5 95.5t145 74t209 38v55q0 54 -8 99t-27.5 84t-55 60t-86.5 21q-31 0 -51 -12t-30.5 -39t-15.5 -55.5t-10 -74.5q-2 -21 -4 -32q-21 0 -35.5 1.5t-35.5 7t-34.5 16t-23.5 31t-10 48.5q0 52 57 101.5t137 77.5q78 27 148 27q132 0 190 -74 t58 -234v-364q0 -70 21 -96t90 -38l49 -8l-11 -85q-16 -2 -41 -8t-47.5 -9t-48.5 -3q-79 0 -117 40.5t-38 93.5v15h-12q-12 -23 -31.5 -47t-52 -50t-82 -42.5t-107.5 -16.5q-83 0 -139.5 52.5t-56.5 141.5zM219 1291l115 38l132 -334l-57 -34zM241 215q0 -43 30.5 -79.5 t82.5 -36.5q47 0 95.5 28t77.5 61v240q-155 -30 -220.5 -83.5t-65.5 -129.5z" />
<glyph unicode="&#xe1;" horiz-adv-x="866" d="M66 169q0 57 26.5 108.5t80.5 95.5t145 74t209 38v55q0 54 -8 99t-27.5 84t-55 60t-86.5 21q-31 0 -51 -12t-30.5 -39t-15.5 -55.5t-10 -74.5q-2 -21 -4 -32q-21 0 -35.5 1.5t-35.5 7t-34.5 16t-23.5 31t-10 48.5q0 52 57 101.5t137 77.5q78 27 148 27q132 0 190 -74 t58 -234v-364q0 -70 21 -96t90 -38l49 -8l-11 -85q-16 -2 -41 -8t-47.5 -9t-48.5 -3q-79 0 -117 40.5t-38 93.5v15h-12q-12 -23 -31.5 -47t-52 -50t-82 -42.5t-107.5 -16.5q-83 0 -139.5 52.5t-56.5 141.5zM241 215q0 -43 30.5 -79.5t82.5 -36.5q47 0 95.5 28t77.5 61v240 q-155 -30 -220.5 -83.5t-65.5 -129.5zM347 1017l123 325l112 -39l-184 -318z" />
<glyph unicode="&#xe2;" horiz-adv-x="866" d="M66 169q0 57 26.5 108.5t80.5 95.5t145 74t209 38v55q0 54 -8 99t-27.5 84t-55 60t-86.5 21q-31 0 -51 -12t-30.5 -39t-15.5 -55.5t-10 -74.5q-2 -21 -4 -32q-21 0 -35.5 1.5t-35.5 7t-34.5 16t-23.5 31t-10 48.5q0 52 57 101.5t137 77.5q78 27 148 27q132 0 190 -74 t58 -234v-364q0 -70 21 -96t90 -38l49 -8l-11 -85q-16 -2 -41 -8t-47.5 -9t-48.5 -3q-79 0 -117 40.5t-38 93.5v15h-12q-12 -23 -31.5 -47t-52 -50t-82 -42.5t-107.5 -16.5q-83 0 -139.5 52.5t-56.5 141.5zM230 1024l168 179l55 14l178 -185l-49 -37l-164 110h-10l-140 -111 zM241 215q0 -43 30.5 -79.5t82.5 -36.5q47 0 95.5 28t77.5 61v240q-155 -30 -220.5 -83.5t-65.5 -129.5z" />
<glyph unicode="&#xe3;" horiz-adv-x="866" d="M66 169q0 57 26.5 108.5t80.5 95.5t145 74t209 38v55q0 54 -8 99t-27.5 84t-55 60t-86.5 21q-31 0 -51 -12t-30.5 -39t-15.5 -55.5t-10 -74.5q-2 -21 -4 -32q-21 0 -35.5 1.5t-35.5 7t-34.5 16t-23.5 31t-10 48.5q0 52 57 101.5t137 77.5q78 27 148 27q132 0 190 -74 t58 -234v-364q0 -70 21 -96t90 -38l49 -8l-11 -85q-16 -2 -41 -8t-47.5 -9t-48.5 -3q-79 0 -117 40.5t-38 93.5v15h-12q-12 -23 -31.5 -47t-52 -50t-82 -42.5t-107.5 -16.5q-83 0 -139.5 52.5t-56.5 141.5zM193 1016q2 6 4.5 15t13 34t23.5 44t34.5 34t46.5 15q9 0 13 -1 l223 -29h4q12 0 26 10t22 20l8 11l48 -2q-2 -6 -5 -15.5t-14.5 -34.5t-25 -44t-36.5 -34.5t-49 -15.5q-8 0 -12 1l-223 31h-3q-13 0 -28 -12t-23 -23l-9 -12zM241 215q0 -43 30.5 -79.5t82.5 -36.5q47 0 95.5 28t77.5 61v240q-155 -30 -220.5 -83.5t-65.5 -129.5z" />
<glyph unicode="&#xe4;" horiz-adv-x="866" d="M66 169q0 57 26.5 108.5t80.5 95.5t145 74t209 38v55q0 54 -8 99t-27.5 84t-55 60t-86.5 21q-31 0 -51 -12t-30.5 -39t-15.5 -55.5t-10 -74.5q-2 -21 -4 -32q-21 0 -35.5 1.5t-35.5 7t-34.5 16t-23.5 31t-10 48.5q0 52 57 101.5t137 77.5q78 27 148 27q132 0 190 -74 t58 -234v-364q0 -70 21 -96t90 -38l49 -8l-11 -85q-16 -2 -41 -8t-47.5 -9t-48.5 -3q-79 0 -117 40.5t-38 93.5v15h-12q-12 -23 -31.5 -47t-52 -50t-82 -42.5t-107.5 -16.5q-83 0 -139.5 52.5t-56.5 141.5zM208 1085q0 35 25.5 56t58.5 21q35 0 60.5 -21.5t25.5 -55.5 q0 -35 -25.5 -58t-60.5 -23q-34 0 -59 22.5t-25 58.5zM241 215q0 -43 30.5 -79.5t82.5 -36.5q47 0 95.5 28t77.5 61v240q-155 -30 -220.5 -83.5t-65.5 -129.5zM475 1085q0 35 25.5 56t58.5 21q35 0 61.5 -21.5t26.5 -55.5q0 -35 -26 -58t-62 -23q-34 0 -59 22.5t-25 58.5z " />
<glyph unicode="&#xe5;" horiz-adv-x="866" d="M66 169q0 57 26.5 108.5t80.5 95.5t145 74t209 38v55q0 54 -8 99t-27.5 84t-55 60t-86.5 21q-31 0 -51 -12t-30.5 -39t-15.5 -55.5t-10 -74.5q-2 -21 -4 -32q-21 0 -35.5 1.5t-35.5 7t-34.5 16t-23.5 31t-10 48.5q0 52 57 101.5t137 77.5q78 27 148 27q132 0 190 -74 t58 -234v-364q0 -70 21 -96t90 -38l49 -8l-11 -85q-16 -2 -41 -8t-47.5 -9t-48.5 -3q-79 0 -117 40.5t-38 93.5v15h-12q-12 -23 -31.5 -47t-52 -50t-82 -42.5t-107.5 -16.5q-83 0 -139.5 52.5t-56.5 141.5zM241 215q0 -43 30.5 -79.5t82.5 -36.5q47 0 95.5 28t77.5 61v240 q-155 -30 -220.5 -83.5t-65.5 -129.5zM247 1167q0 70 49 121t119 51q71 0 113 -45t42 -117q0 -71 -47.5 -123t-121.5 -52q-70 0 -112 44.5t-42 120.5zM317 1179q0 -50 25.5 -89.5t70.5 -39.5q41 0 63.5 30t22.5 84q0 51 -26 89t-70 38q-42 0 -64 -33t-22 -79z" />
<glyph unicode="&#xe6;" horiz-adv-x="1260" d="M66 157q0 46 13 84.5t45 75t84 66t132 55.5t187 46v56q0 261 -165 261q-18 0 -32 -2.5t-25 -10.5t-18.5 -14.5t-14 -23t-10 -26.5t-7 -34.5t-5.5 -37.5t-6 -44q-20 0 -34.5 1t-35.5 7t-34 16t-22.5 30.5t-9.5 48.5q0 52 55 97.5t131 69.5q76 23 148 23q84 0 132.5 -30.5 t69.5 -94.5q58 58 131.5 90t145.5 32q115 0 191.5 -82t76.5 -234q0 -60 -18 -136l-481 -20q2 -49 14 -96t34.5 -91.5t53 -78t76.5 -54t100 -20.5q55 0 103.5 14t124.5 55l20 -51q-60 -63 -145.5 -98.5t-183.5 -35.5q-88 0 -168 43.5t-133 125.5q-8 13 -13 36 q-32 -96 -116 -148t-195 -52q-85 0 -140.5 47t-55.5 135zM241 203q0 -119 113 -119q63 0 118 49t55 110v167q-91 -14 -150 -35t-87.5 -48.5t-38.5 -55.5t-10 -68zM690 507l314 37q8 27 8 70q0 187 -140 187q-66 0 -120.5 -78.5t-61.5 -215.5z" />
<glyph unicode="&#xe7;" horiz-adv-x="783" d="M66 416q0 108 35.5 200.5t95.5 153.5t136 95.5t157 34.5q118 0 179.5 -44.5t61.5 -108.5q0 -45 -32.5 -72.5t-93.5 -32.5q-13 31 -25.5 55t-33 51.5t-46.5 42.5t-58 15q-90 0 -143 -82t-53 -217q0 -52 10.5 -107.5t34 -111.5t57.5 -99.5t84.5 -71t110.5 -27.5 q46 0 86.5 10.5t62.5 21t53 30.5l25 -58q-35 -44 -108 -78.5t-155 -42.5l-33 -49q89 -77 89 -150q0 -104 -200 -164l-20 59q41 14 63.5 37t22.5 46q0 40 -73 111l76 108q-109 7 -193.5 70.5t-128.5 161.5t-44 213z" />
<glyph unicode="&#xe8;" horiz-adv-x="824" d="M61 428q0 109 37 199.5t96.5 148.5t131.5 90t146 32q115 0 191.5 -82t76.5 -234q0 -58 -17 -131l-484 -5q3 -62 21.5 -121t51 -110t86.5 -82t120 -31h6q43 0 67 2t65 15t89 38l22 -53q-60 -63 -146 -98.5t-183 -35.5q-72 0 -138.5 30t-120.5 85t-86 144t-32 199zM241 524 l314 21q7 22 7 69q0 187 -139 187q-67 0 -121 -70.5t-61 -206.5zM256 1291l115 38l132 -334l-57 -34z" />
<glyph unicode="&#xe9;" horiz-adv-x="824" d="M61 428q0 109 37 199.5t96.5 148.5t131.5 90t146 32q115 0 191.5 -82t76.5 -234q0 -58 -17 -131l-484 -5q3 -62 21.5 -121t51 -110t86.5 -82t120 -31h6q43 0 67 2t65 15t89 38l22 -53q-60 -63 -146 -98.5t-183 -35.5q-72 0 -138.5 30t-120.5 85t-86 144t-32 199zM241 524 l314 21q7 22 7 69q0 187 -139 187q-67 0 -121 -70.5t-61 -206.5zM429 1012l123 325l112 -39l-184 -318z" />
<glyph unicode="&#xea;" horiz-adv-x="824" d="M61 428q0 109 37 199.5t96.5 148.5t131.5 90t146 32q115 0 191.5 -82t76.5 -234q0 -58 -17 -131l-484 -5q3 -62 21.5 -121t51 -110t86.5 -82t120 -31h6q43 0 67 2t65 15t89 38l22 -53q-60 -63 -146 -98.5t-183 -35.5q-72 0 -138.5 30t-120.5 85t-86 144t-32 199zM241 524 l314 21q7 22 7 69q0 187 -139 187q-67 0 -121 -70.5t-61 -206.5zM242 1024l168 179l55 14l177 -185l-49 -37l-164 110h-10l-139 -111z" />
<glyph unicode="&#xeb;" horiz-adv-x="824" d="M61 428q0 109 37 199.5t96.5 148.5t131.5 90t146 32q115 0 191.5 -82t76.5 -234q0 -58 -17 -131l-484 -5q3 -62 21.5 -121t51 -110t86.5 -82t120 -31h6q43 0 67 2t65 15t89 38l22 -53q-60 -63 -146 -98.5t-183 -35.5q-72 0 -138.5 30t-120.5 85t-86 144t-32 199z M220 1085q0 35 25 56t58 21q35 0 60.5 -21.5t25.5 -55.5q0 -35 -25.5 -58t-60.5 -23q-34 0 -58.5 22.5t-24.5 58.5zM241 524l314 21q7 22 7 69q0 187 -139 187q-67 0 -121 -70.5t-61 -206.5zM487 1085q0 35 25.5 56t58.5 21q35 0 61.5 -21.5t26.5 -55.5q0 -35 -26.5 -58 t-61.5 -23q-34 0 -59 22.5t-25 58.5z" />
<glyph unicode="&#xec;" horiz-adv-x="572" d="M49 0l12 79l152 37v615l-152 55l13 76l281 23l25 -25v-744l160 -35l-11 -81h-480zM72 1291l115 38l132 -334l-57 -34z" />
<glyph unicode="&#xed;" horiz-adv-x="572" d="M49 0l12 79l152 37v615l-152 55l13 76l281 23l25 -25v-744l160 -35l-11 -81h-480zM205 1042l122 325l112 -40l-183 -317z" />
<glyph unicode="&#xee;" horiz-adv-x="572" d="M49 0l12 79l152 37v615l-152 55l13 76l281 23l25 -25v-744l160 -35l-11 -81h-480zM88 1049l168 179l55 14l178 -185l-50 -37l-163 109h-10l-140 -111z" />
<glyph unicode="&#xef;" horiz-adv-x="572" d="M49 0l12 79l152 37v615l-152 55l13 76l281 23l25 -25v-744l160 -35l-11 -81h-480zM67 1110q0 35 25.5 56t58.5 21q35 0 60 -22t25 -55q0 -35 -25.5 -58t-59.5 -23t-59 22.5t-25 58.5zM334 1110q0 35 25.5 56t58.5 21q35 0 61.5 -22t26.5 -55q0 -35 -26.5 -58t-61.5 -23 q-34 0 -59 22.5t-25 58.5z" />
<glyph unicode="&#xf0;" horiz-adv-x="954" d="M82 451q0 144 54 258.5t143.5 176.5t195.5 62q17 0 37.5 -4t44 -13t43.5 -28.5t31 -45.5l6 2q-23 74 -110 213l-215 -41l10 75l168 33q-73 104 -140 164h117q73 -44 152 -132l151 30l-10 -77l-88 -18q200 -267 200 -640q0 -113 -31.5 -207t-85.5 -155.5t-125.5 -95.5 t-152.5 -34t-147.5 26t-111.5 71.5t-76.5 106.5t-45.5 129.5t-14 143.5zM261 498q2 -201 67.5 -314t171.5 -113q57 0 96.5 24t61 72.5t31 110.5t9.5 146q0 114 -35 214t-89 158t-112 59h-6q-68 0 -112.5 -46t-63.5 -124t-19 -187z" />
<glyph unicode="&#xf1;" horiz-adv-x="1086" d="M46 0l10 72l150 42v607l-153 52l10 76l297 39l18 -19l-18 -127h10q56 67 135 111.5t167 44.5q117 0 179 -73.5t62 -208.5v-502l144 -35l-10 -79h-451l12 72l137 42v463q0 93 -47.5 139t-125.5 46q-55 0 -107 -23t-90 -64v-561l148 -35l-13 -79h-464zM311 1016q2 6 4 15 t13 34t23.5 44t34.5 34t47 15q9 0 13 -1l223 -29h4q12 0 25.5 10t22.5 20l8 11l47 -2q-2 -6 -4.5 -15.5t-14 -34.5t-25 -44t-36.5 -34.5t-50 -15.5q-8 0 -12 1l-223 31h-2q-13 0 -28 -12t-24 -23l-8 -12z" />
<glyph unicode="&#xf2;" horiz-adv-x="957" d="M63 426q0 110 36.5 202t97.5 151t139 91.5t162 32.5q183 0 289 -126.5t106 -335.5q0 -137 -56 -244t-151.5 -165t-211.5 -58q-192 0 -301.5 126.5t-109.5 325.5zM241 497q0 -81 15 -154t45 -135.5t83.5 -99.5t123.5 -37q67 0 115.5 43.5t70 107t21.5 137.5 q0 79 -14.5 153t-43.5 140t-81 106t-120 40q-72 0 -122 -43.5t-71.5 -109.5t-21.5 -148zM326 1296l115 38l132 -334l-57 -34z" />
<glyph unicode="&#xf3;" horiz-adv-x="957" d="M63 426q0 110 36.5 202t97.5 151t139 91.5t162 32.5q183 0 289 -126.5t106 -335.5q0 -137 -56 -244t-151.5 -165t-211.5 -58q-192 0 -301.5 126.5t-109.5 325.5zM241 497q0 -81 15 -154t45 -135.5t83.5 -99.5t123.5 -37q67 0 115.5 43.5t70 107t21.5 137.5 q0 79 -14.5 153t-43.5 140t-81 106t-120 40q-72 0 -122 -43.5t-71.5 -109.5t-21.5 -148zM400 1017l122 325l112 -39l-183 -318z" />
<glyph unicode="&#xf4;" horiz-adv-x="957" d="M63 426q0 110 36.5 202t97.5 151t139 91.5t162 32.5q183 0 289 -126.5t106 -335.5q0 -137 -56 -244t-151.5 -165t-211.5 -58q-192 0 -301.5 126.5t-109.5 325.5zM241 497q0 -81 15 -154t45 -135.5t83.5 -99.5t123.5 -37q67 0 115.5 43.5t70 107t21.5 137.5 q0 79 -14.5 153t-43.5 140t-81 106t-120 40q-72 0 -122 -43.5t-71.5 -109.5t-21.5 -148zM283 1024l168 179l55 14l177 -185l-49 -37l-164 110h-9l-140 -111z" />
<glyph unicode="&#xf5;" horiz-adv-x="957" d="M63 426q0 110 36.5 202t97.5 151t139 91.5t162 32.5q183 0 289 -126.5t106 -335.5q0 -137 -56 -244t-151.5 -165t-211.5 -58q-192 0 -301.5 126.5t-109.5 325.5zM241 497q0 -81 15 -154t45 -135.5t83.5 -99.5t123.5 -37q67 0 115.5 43.5t70 107t21.5 137.5 q0 79 -14.5 153t-43.5 140t-81 106t-120 40q-72 0 -122 -43.5t-71.5 -109.5t-21.5 -148zM247 1016q2 6 4 15t13 34t23.5 44t34.5 34t46 15q9 0 14 -1l223 -29h4q12 0 25.5 10t21.5 20l9 11l47 -2q-2 -6 -4.5 -15.5t-14 -34.5t-25 -44t-36.5 -34.5t-50 -15.5q-8 0 -12 1 l-223 31h-2q-13 0 -28 -12t-24 -23l-8 -12z" />
<glyph unicode="&#xf6;" horiz-adv-x="957" d="M63 426q0 110 36.5 202t97.5 151t139 91.5t162 32.5q183 0 289 -126.5t106 -335.5q0 -137 -56 -244t-151.5 -165t-211.5 -58q-192 0 -301.5 126.5t-109.5 325.5zM241 497q0 -81 15 -154t45 -135.5t83.5 -99.5t123.5 -37q67 0 115.5 43.5t70 107t21.5 137.5 q0 79 -14.5 153t-43.5 140t-81 106t-120 40q-72 0 -122 -43.5t-71.5 -109.5t-21.5 -148zM262 1085q0 35 25 56t58 21q35 0 60.5 -21.5t25.5 -55.5q0 -35 -25.5 -58t-60.5 -23q-34 0 -58.5 22.5t-24.5 58.5zM529 1085q0 35 25.5 56t58.5 21q35 0 61.5 -21.5t26.5 -55.5 q0 -35 -26.5 -58t-61.5 -23q-34 0 -59 22.5t-25 58.5z" />
<glyph unicode="&#xf7;" horiz-adv-x="988" d="M82 454l12 106h812l-11 -106h-813zM368 228q0 48 35 80.5t84 32.5t85 -33.5t36 -81.5q0 -50 -36 -86t-85 -36t-84 36.5t-35 87.5zM368 791q0 48 35 80t84 32q50 0 85.5 -33t35.5 -80q0 -50 -36 -86.5t-85 -36.5t-84 36.5t-35 87.5z" />
<glyph unicode="&#xf8;" horiz-adv-x="957" d="M63 426q0 110 36.5 202t97.5 151t139 91.5t162 32.5q80 0 150 -27l33 62l141 8l-71 -133q69 -61 105.5 -156.5t36.5 -215.5q0 -137 -56 -244t-151.5 -165t-211.5 -58q-79 0 -151 24l-43 -79l-138 -9l78 144q-76 60 -116.5 157t-40.5 215zM241 497q0 -197 75 -316l285 553 q-61 63 -145 64q-72 0 -122 -43.5t-71.5 -109.5t-21.5 -148zM362 126q60 -55 146 -55q67 0 115.5 43.5t70 107t21.5 137.5q-1 187 -69 312z" />
<glyph unicode="&#xf9;" horiz-adv-x="1029" d="M23 783l13 79l269 21l24 -24v-542q0 -203 155 -203q112 0 186 78v531l-160 42l10 90l294 28l22 -24v-644q0 -36 6.5 -59.5t23.5 -36.5t32 -18.5t46 -11.5l45 -10l-8 -84q-76 -18 -152 -18q-72 0 -109.5 40.5t-37.5 105.5v8h-12q-104 -154 -287 -154q-223 0 -223 290v461z M345 1296l116 38l132 -334l-58 -34z" />
<glyph unicode="&#xfa;" horiz-adv-x="1029" d="M23 783l13 79l269 21l24 -24v-542q0 -203 155 -203q112 0 186 78v531l-160 42l10 90l294 28l22 -24v-644q0 -36 6.5 -59.5t23.5 -36.5t32 -18.5t46 -11.5l45 -10l-8 -84q-76 -18 -152 -18q-72 0 -109.5 40.5t-37.5 105.5v8h-12q-104 -154 -287 -154q-223 0 -223 290v461z M419 1017l123 325l112 -39l-184 -318z" />
<glyph unicode="&#xfb;" horiz-adv-x="1029" d="M23 783l13 79l269 21l24 -24v-542q0 -203 155 -203q112 0 186 78v531l-160 42l10 90l294 28l22 -24v-644q0 -36 6.5 -59.5t23.5 -36.5t32 -18.5t46 -11.5l45 -10l-8 -84q-76 -18 -152 -18q-72 0 -109.5 40.5t-37.5 105.5v8h-12q-104 -154 -287 -154q-223 0 -223 290v461z M303 1024l167 179l56 14l177 -185l-49 -37l-164 110h-10l-139 -111z" />
<glyph unicode="&#xfc;" horiz-adv-x="1029" d="M23 783l13 79l269 21l24 -24v-542q0 -203 155 -203q112 0 186 78v531l-160 42l10 90l294 28l22 -24v-644q0 -36 6.5 -59.5t23.5 -36.5t32 -18.5t46 -11.5l45 -10l-8 -84q-76 -18 -152 -18q-72 0 -109.5 40.5t-37.5 105.5v8h-12q-104 -154 -287 -154q-223 0 -223 290v461z M281 1085q0 35 25.5 56t58.5 21q35 0 60.5 -21.5t25.5 -55.5q0 -35 -25.5 -58t-60.5 -23q-34 0 -59 22.5t-25 58.5zM549 1085q0 35 25 56t58 21q35 0 62 -21.5t27 -55.5q0 -35 -26.5 -58t-62.5 -23q-34 0 -58.5 22.5t-24.5 58.5z" />
<glyph unicode="&#xfd;" horiz-adv-x="944" d="M3 796l12 77h419l-8 -74l-127 -37l204 -540l215 535l-130 41l13 75h343l-8 -74l-100 -41l-331 -811q-77 -190 -148.5 -258.5t-187.5 -68.5q-66 0 -110 36.5t-44 82.5q0 72 56 120q78 -54 150 -54q23 0 41 4.5t42 17.5t47 44.5t42 79.5l20 49l-286 758zM472 1012l123 325 l112 -39l-184 -318z" />
<glyph unicode="&#xfe;" d="M20 -367l8 80l152 36l-2 1369l-152 53l13 76l283 21l25 -23v-396l-15 -104h12q24 27 38 42t43 39t53.5 37t60.5 23.5t74 10.5q132 0 219.5 -115t87.5 -313q0 -103 -32.5 -193t-88 -153t-132 -99.5t-162.5 -36.5q-58 0 -100 15l-4 100q44 -10 88 -10q61 0 105.5 19.5 t70 49t41 73t20.5 84.5t5 90q0 359 -189 359q-110 0 -198 -92v-926l154 -34l-11 -82h-467z" />
<glyph unicode="&#xff;" horiz-adv-x="944" d="M3 796l12 77h419l-8 -74l-127 -37l204 -540l215 535l-130 41l13 75h343l-8 -74l-100 -41l-331 -811q-77 -190 -148.5 -258.5t-187.5 -68.5q-66 0 -110 36.5t-44 82.5q0 72 56 120q78 -54 150 -54q23 0 41 4.5t42 17.5t47 44.5t42 79.5l20 49l-286 758zM294 1096 q0 35 25.5 56.5t58.5 21.5q35 0 60 -22t25 -56q0 -35 -25.5 -57.5t-59.5 -22.5t-59 22.5t-25 57.5zM561 1096q0 35 25.5 56.5t58.5 21.5q35 0 61.5 -22t26.5 -56q0 -35 -26.5 -57.5t-61.5 -22.5q-34 0 -59 22.5t-25 57.5z" />
<glyph unicode="&#x152;" horiz-adv-x="1652" d="M49 619q0 290 151 474q147 180 446 180q106 0 185 -29h778l-32 -320l-86 14l-41 214h-469v-475h287l43 119l95 13l-33 -388l-87 -13l-33 175h-272v-488h494l97 231l83 -13l-30 -313h-840q-105 -26 -208 -26q-100 0 -185 31t-147.5 88.5t-106.5 137.5t-66.5 178t-22.5 210 zM272 677q0 -82 11 -162.5t37 -160.5t65 -140t99 -97.5t135 -37.5q91 0 169 44v1003q-86 50 -190 50q-326 0 -326 -499z" />
<glyph unicode="&#x153;" horiz-adv-x="1427" d="M63 426q0 111 32.5 202t89 150t131 91t158.5 32q90 0 176.5 -51t112.5 -114q52 69 134 115.5t180 46.5q115 0 191 -82t76 -234q0 -62 -17 -131l-483 -5v-5v-8q3 -49 15.5 -95.5t35.5 -91t54 -78t76 -54t98 -20.5q58 0 104.5 12t119.5 51l24 -53q-60 -63 -146.5 -98.5 t-184.5 -35.5q-174 0 -293 161q-67 -84 -137 -121.5t-161 -37.5q-96 0 -171 34.5t-121.5 96t-70 143.5t-23.5 180zM241 497q0 -80 15 -153.5t44.5 -134t76.5 -97t107 -36.5q52 0 94 41.5t64.5 106t22.5 135.5q0 79 -12.5 153.5t-39 141t-73.5 107t-107 40.5q-54 0 -93 -24.5 t-60 -69t-30 -96t-9 -114.5zM846 527l314 22q7 22 6 65q0 187 -139 187q-31 0 -61 -16t-56 -47t-43.5 -86t-20.5 -125z" />
<glyph unicode="&#x178;" horiz-adv-x="1209" d="M31 1168l13 76h508l-12 -76l-158 -39l277 -488l264 485l-183 42l10 76h444l-10 -76l-124 -39l-345 -600v-415l163 -33l-9 -81h-507l10 74l149 47v384l-352 621zM386 1465q0 35 25.5 56t58.5 21q35 0 60 -21.5t25 -55.5q0 -35 -25.5 -58t-59.5 -23t-59 22.5t-25 58.5z M653 1465q0 35 25.5 56t58.5 21q35 0 61.5 -21.5t26.5 -55.5q0 -35 -26.5 -58t-61.5 -23q-34 0 -59 22.5t-25 58.5z" />
<glyph unicode="&#x2c6;" horiz-adv-x="648" d="M121 1388l168 179l55 14l177 -185l-49 -37l-164 109h-9l-140 -111z" />
<glyph unicode="&#x2dc;" horiz-adv-x="713" d="M124 1379q2 6 4.5 15.5t13 34t23.5 43.5t34.5 34.5t46.5 15.5q9 0 13 -1l223 -30h4q12 0 26 10.5t22 20.5l8 10l48 -1q-2 -6 -5 -16t-14.5 -34.5t-25 -43.5t-36.5 -34.5t-49 -15.5q-8 0 -13 1l-222 31h-3q-13 0 -28 -12t-23 -24l-9 -12z" />
<glyph unicode="&#x2000;" horiz-adv-x="855" />
<glyph unicode="&#x2001;" horiz-adv-x="1711" />
<glyph unicode="&#x2002;" horiz-adv-x="855" />
<glyph unicode="&#x2003;" horiz-adv-x="1711" />
<glyph unicode="&#x2004;" horiz-adv-x="570" />
<glyph unicode="&#x2005;" horiz-adv-x="427" />
<glyph unicode="&#x2006;" horiz-adv-x="285" />
<glyph unicode="&#x2007;" horiz-adv-x="285" />
<glyph unicode="&#x2008;" horiz-adv-x="213" />
<glyph unicode="&#x2009;" horiz-adv-x="342" />
<glyph unicode="&#x200a;" horiz-adv-x="95" />
<glyph unicode="&#x2010;" horiz-adv-x="569" d="M79 398l11 100l408 19l-11 -101z" />
<glyph unicode="&#x2011;" horiz-adv-x="569" d="M79 398l11 100l408 19l-11 -101z" />
<glyph unicode="&#x2012;" horiz-adv-x="569" d="M79 398l11 100l408 19l-11 -101z" />
<glyph unicode="&#x2013;" horiz-adv-x="792" d="M82 410l17 103l611 7l-17 -104z" />
<glyph unicode="&#x2014;" horiz-adv-x="1301" d="M82 410l17 103l1120 7l-17 -104z" />
<glyph unicode="&#x2018;" horiz-adv-x="379" d="M28 961q0 33 5.5 63.5t24 71t49 73.5t86.5 64.5t131 51.5l23 -69q-92 -24 -137 -72t-45 -102q0 -44 32.5 -75.5t83.5 -31.5q20 0 30 2q15 -39 15 -63q0 -56 -39.5 -88.5t-83.5 -32.5q-28 0 -56.5 12t-56 35.5t-45 65.5t-17.5 95z" />
<glyph unicode="&#x2019;" horiz-adv-x="379" d="M35 819q92 24 136.5 72t44.5 102q0 44 -32.5 75.5t-83.5 31.5q-20 0 -29 -2q-15 39 -15 63q0 56 39.5 88t82.5 32q28 0 57 -11.5t56.5 -35t45 -65.5t17.5 -96q0 -33 -5.5 -63t-24 -70.5t-49 -73.5t-87 -64.5t-130.5 -51.5z" />
<glyph unicode="&#x201a;" horiz-adv-x="379" d="M20 -244q92 24 137 72t45 101q0 44 -32.5 75.5t-83.5 31.5q-20 0 -30 -1q-15 39 -15 62q0 56 39.5 88.5t83.5 32.5q28 0 56.5 -12t56 -35.5t45 -65.5t17.5 -95q0 -33 -5.5 -63.5t-24 -70.5t-49 -73t-86.5 -65t-131 -51z" />
<glyph unicode="&#x201c;" horiz-adv-x="686" d="M30 965q0 33 5 63.5t23.5 70.5t49 73t87 64.5t131.5 51.5l23 -69q-92 -24 -137 -72t-45 -102q0 -44 32.5 -75.5t83.5 -31.5q20 0 30 2q15 -39 14 -62q0 -56 -39.5 -88.5t-82.5 -32.5q-28 0 -57 12t-56.5 35t-44.5 65t-17 96zM345 965q0 33 5 63.5t23.5 70.5t49 73 t87 64.5t131.5 51.5l23 -69q-92 -24 -137 -72t-45 -102q0 -44 32.5 -75.5t83.5 -31.5q20 0 30 2q15 -39 14 -62q0 -56 -39 -88.5t-83 -32.5q-28 0 -57 12t-56.5 35t-44.5 65t-17 96z" />
<glyph unicode="&#x201d;" horiz-adv-x="688" d="M23 824q92 24 137 72t45 102q0 44 -32.5 75.5t-83.5 31.5q-20 0 -30 -2q-15 39 -15 62q0 56 39.5 88.5t83.5 32.5q28 0 57 -11.5t56.5 -35t44.5 -65.5t17 -96q0 -33 -5.5 -63t-24 -70.5t-48.5 -73.5t-86.5 -64.5t-131.5 -51.5zM341 824q92 24 136.5 72t44.5 102 q0 44 -32.5 75.5t-83.5 31.5q-20 0 -29 -2q-15 39 -15 62q0 56 39.5 88.5t82.5 32.5q28 0 57 -11.5t56.5 -35t45 -65.5t17.5 -96q0 -33 -5.5 -63t-24 -70.5t-49 -73.5t-87 -64.5t-130.5 -51.5z" />
<glyph unicode="&#x201e;" horiz-adv-x="716" d="M23 -254q92 24 137 72t45 101q0 44 -32.5 75.5t-83.5 31.5q-20 0 -30 -1q-15 39 -15 62q0 56 39.5 88.5t83.5 32.5q28 0 57 -12t56.5 -35.5t44.5 -65.5t17 -95q0 -33 -5.5 -63.5t-24 -70.5t-48.5 -73t-86.5 -64.5t-131.5 -51.5zM341 -254q92 24 136.5 72t44.5 101 q0 44 -32.5 75.5t-83.5 31.5q-20 0 -29 -1q-15 39 -15 62q0 56 39.5 88.5t82.5 32.5q28 0 57 -12t56.5 -35.5t45 -65.5t17.5 -95q0 -33 -5.5 -63.5t-24 -70.5t-49 -73t-87 -64.5t-130.5 -51.5z" />
<glyph unicode="&#x2022;" horiz-adv-x="547" d="M99 576q0 69 51.5 117t123.5 48t124.5 -49t52.5 -119q0 -74 -52.5 -126t-124.5 -52t-123.5 53.5t-51.5 127.5z" />
<glyph unicode="&#x2026;" horiz-adv-x="1537" d="M190 92q0 48 35 80.5t84 32.5t85 -33.5t36 -81.5q0 -50 -35.5 -85.5t-85 -35.5t-84.5 36t-35 87zM636 92q0 48 35 80.5t84 32.5t85 -33.5t36 -81.5q0 -50 -36 -85.5t-85 -35.5t-84 36t-35 87zM1108 92q0 48 35 80.5t84 32.5t85 -33.5t36 -81.5q0 -50 -35.5 -85.5 t-85 -35.5t-84.5 36t-35 87z" />
<glyph unicode="&#x202f;" horiz-adv-x="342" />
<glyph unicode="&#x2039;" horiz-adv-x="473" d="M79 469l268 352l45 -59l-166 -301l169 -320l-53 -64l-261 372z" />
<glyph unicode="&#x203a;" horiz-adv-x="473" d="M79 141l169 320l-166 301l45 59l268 -352l-2 -20l-261 -372z" />
<glyph unicode="&#x205f;" horiz-adv-x="427" />
<glyph unicode="&#x20ac;" horiz-adv-x="1111" d="M-46 485l18 106h77q0 23 4 69h-92l18 107h88q16 79 45.5 149.5t79.5 136.5t114.5 113t155.5 75.5t198 28.5q101 0 180 -23.5t149 -76.5l-31 -333l-88 13l-41 220q-40 52 -88.5 78.5t-137.5 26.5q-137 0 -225.5 -108t-108.5 -300h545l-29 -107h-521v-1q0 -46 2 -68h502 l-29 -106h-462q30 -195 131 -298t252 -103q52 0 102 22t84 68l41 219l88 13l31 -295q-95 -74 -183.5 -105t-211.5 -31q-141 0 -258.5 57.5t-197.5 174.5t-99 278h-102z" />
<glyph unicode="&#x2122;" horiz-adv-x="793" d="M0 1318h294l-10 -92l-30 3l-10 61h-67v-264l49 -9l-3 -26h-159l2 25l45 11v263h-65l-15 -64l-28 3zM307 991l1 25l46 11l19 256l-49 10l3 25h124l21 -51l68 -195l83 205l18 41h122l-3 -25l-45 -10l15 -257l48 -9l-3 -26h-152l3 25l43 11l-15 228l-100 -251l-52 -5 l-91 246l-16 -219l47 -9l-3 -26h-132z" />
<glyph unicode="&#x25fc;" horiz-adv-x="880" d="M0 0v880h880v-880h-880z" />
</font>
</defs>
</svg>
