<svg width="800" height="555" viewBox="0 0 800 555" fill="none" xmlns="http://www.w3.org/2000/svg">
<rect x="16.6702" y="50.0146" width="454.97" height="454.97" fill="#D9D9D9"/>
<path fill-rule="evenodd" clip-rule="evenodd" d="M471.641 211.052V375.319C459.816 368.603 448.044 361.939 435.947 362.835C424.441 363.696 412.575 371.462 402.764 377.884C395.009 382.96 388.537 387.196 384.542 386.516C380.45 385.733 378.956 379.79 376.945 371.788C374.51 362.097 371.315 349.384 361.824 339.155C353.502 330.093 340.341 322.986 326.966 315.764C312.492 307.948 297.769 299.997 288.663 289.29C271.143 268.882 274.224 238.078 299.252 232.494C312.35 229.55 331.553 233.62 350.675 237.673C367.812 241.305 384.884 244.924 397.441 243.468C415.468 241.248 424.277 228.657 431.506 218.325C434.932 213.429 438.002 209.041 441.53 206.503C449.715 200.615 460.471 204.582 471.641 211.052Z" fill="white"/>
<path d="M748.115 228.925C758.111 235.46 767.722 241.996 766.312 250.967C765.031 259.937 752.856 271.471 756.573 285.183C760.417 298.896 780.281 314.915 782.972 326.32C785.791 337.726 771.438 344.774 757.598 341.314C743.758 337.982 730.558 324.142 716.718 325.167C703.005 326.192 688.524 341.955 682.501 340.929C676.478 339.776 678.913 321.835 667.379 309.404C655.846 296.845 630.343 289.925 618.681 276.213C607.02 262.629 609.07 242.124 625.73 238.408C642.261 234.692 673.402 247.763 691.087 245.713C708.772 243.534 713.129 226.362 720.434 221.107C727.739 215.853 738.119 222.389 748.115 228.925Z" fill="#24A148"/>
<path d="M402.051 295.107L422.051 306.654V283.56L402.051 295.107ZM575.771 293.107H420.051V297.107H575.771V293.107Z" fill="black"/>
<path d="M468.711 258.604C468.157 257.237 467.627 255.938 467.119 254.708L465.732 251.397C464.645 248.8 463.974 247.254 463.72 246.759C463.473 246.257 463.284 245.971 463.154 245.899C462.959 245.795 462.555 245.737 461.943 245.724V244.874C463.506 244.92 464.456 244.942 464.795 244.942L468.301 244.874V245.724C467.754 245.73 467.357 245.763 467.109 245.821C466.966 245.854 466.865 245.903 466.806 245.968C466.754 246.026 466.728 246.104 466.728 246.202C466.728 246.397 466.943 247.016 467.373 248.058C467.62 248.657 467.75 248.982 467.763 249.034C467.783 249.08 467.806 249.138 467.832 249.21L470.302 255.235L472.47 249.864C472.523 249.741 472.754 249.125 473.164 248.019C473.457 247.237 473.636 246.713 473.701 246.446C473.714 246.368 473.72 246.29 473.72 246.212C473.72 246.101 473.701 246.02 473.662 245.968C473.629 245.909 473.584 245.867 473.525 245.841C473.48 245.821 473.362 245.805 473.174 245.792C472.75 245.753 472.392 245.73 472.099 245.724V244.874L474.58 244.933L476.689 244.874V245.724C476.058 245.782 475.69 245.851 475.586 245.929C475.41 246.065 475.042 246.804 474.482 248.146L473.789 249.767L472.47 252.911C471.351 255.593 470.592 257.491 470.195 258.604H468.711ZM479.277 244.396C479.694 244.396 480.045 244.542 480.332 244.835C480.625 245.128 480.771 245.479 480.771 245.89C480.771 246.306 480.625 246.661 480.332 246.954C480.045 247.247 479.694 247.394 479.277 247.394C478.867 247.394 478.515 247.247 478.222 246.954C477.929 246.661 477.783 246.306 477.783 245.89C477.783 245.479 477.926 245.128 478.213 244.835C478.506 244.542 478.86 244.396 479.277 244.396ZM476.601 258.536V257.813C477.33 257.761 477.747 257.706 477.851 257.647C477.955 257.582 478.021 257.465 478.047 257.296C478.112 256.938 478.144 256.017 478.144 254.532C478.144 252.494 478.115 251.336 478.056 251.056C478.03 250.925 477.988 250.841 477.929 250.802C477.799 250.717 477.357 250.672 476.601 250.665V249.923C477.584 249.819 478.327 249.708 478.828 249.591C479.329 249.474 479.876 249.295 480.469 249.054L480.703 249.181C480.625 250.196 480.586 251.15 480.586 252.042V255.362C480.586 256.495 480.612 257.166 480.664 257.374C480.69 257.491 480.742 257.569 480.82 257.608C480.996 257.693 481.422 257.748 482.099 257.774V258.536C481.175 258.51 480.169 258.497 479.082 258.497C478.144 258.497 477.317 258.51 476.601 258.536ZM482.939 245.714V245.011C484.417 244.854 485.67 244.568 486.699 244.151C486.797 244.177 486.885 244.223 486.963 244.288C486.898 246.99 486.865 248.556 486.865 248.985V250.821L488.047 249.845C488.392 249.565 488.704 249.373 488.984 249.269C489.271 249.164 489.632 249.112 490.068 249.112C491.181 249.112 492.077 249.457 492.754 250.147C493.431 250.838 493.769 251.765 493.769 252.931C493.769 253.634 493.646 254.317 493.398 254.981C493.151 255.639 492.819 256.179 492.402 256.603C492.344 256.661 491.868 257 490.976 257.618C490.091 258.237 489.593 258.572 489.482 258.624C489.105 258.793 488.62 258.878 488.027 258.878C487.63 258.878 487.243 258.816 486.865 258.692C486.487 258.575 486.061 258.373 485.586 258.087L484.726 258.81L484.277 258.644C484.407 256.658 484.472 254.282 484.472 251.515C484.472 248.78 484.433 247.049 484.355 246.319C484.323 246.078 484.267 245.929 484.189 245.87C484.085 245.799 483.668 245.746 482.939 245.714ZM486.865 251.866C486.852 252.368 486.845 253.032 486.845 253.858C486.845 254.965 486.852 255.818 486.865 256.417C487.106 256.762 487.366 257.013 487.646 257.169C488.03 257.377 488.444 257.481 488.886 257.481C489.362 257.481 489.775 257.358 490.127 257.11C490.485 256.856 490.761 256.446 490.957 255.88C491.159 255.313 491.26 254.688 491.26 254.005C491.26 252.989 491.028 252.215 490.566 251.681C490.104 251.147 489.524 250.88 488.828 250.88C488.392 250.88 487.998 250.981 487.646 251.183C487.301 251.384 487.041 251.612 486.865 251.866ZM503.877 257.032L503.447 257.989C502.913 258.315 502.363 258.556 501.797 258.712C501.373 258.823 500.892 258.878 500.351 258.878C499.707 258.878 499.137 258.803 498.642 258.653C498.154 258.504 497.734 258.299 497.383 258.038C497.038 257.778 496.732 257.459 496.465 257.081C496.204 256.703 496.015 256.267 495.898 255.772C495.781 255.278 495.722 254.737 495.722 254.151C495.722 253.299 495.836 252.537 496.064 251.866C496.22 251.397 496.403 251.059 496.611 250.851C496.741 250.72 497.08 250.476 497.627 250.118C498.174 249.76 498.571 249.526 498.818 249.415C499.274 249.213 499.811 249.112 500.429 249.112C501.302 249.112 502.018 249.295 502.578 249.659C503.138 250.024 503.532 250.489 503.76 251.056C503.994 251.622 504.111 252.309 504.111 253.116C504.111 253.299 504.105 253.474 504.092 253.644C503.929 253.696 503.681 253.754 503.349 253.819C502.907 253.904 502.607 253.95 502.451 253.956C501.963 253.995 501.318 254.018 500.517 254.024C499.717 254.031 499.274 254.037 499.189 254.044C499.105 254.05 499.01 254.054 498.906 254.054H498.261C498.314 255.082 498.633 255.896 499.219 256.495C499.804 257.088 500.527 257.384 501.386 257.384C501.758 257.384 502.099 257.345 502.412 257.267C502.724 257.182 503.135 257.013 503.642 256.759L503.877 257.032ZM501.552 252.989C501.579 251.954 501.439 251.228 501.133 250.812C500.82 250.401 500.416 250.196 499.922 250.196C499.414 250.196 498.994 250.411 498.662 250.841C498.323 251.277 498.167 251.993 498.193 252.989C498.577 253.048 499.219 253.077 500.117 253.077C500.69 253.077 501.168 253.048 501.552 252.989ZM505.859 255.46H506.64C506.673 256.189 506.705 256.648 506.738 256.837C507.031 257.195 507.353 257.462 507.705 257.638C508.056 257.807 508.46 257.892 508.916 257.892C509.528 257.892 509.997 257.745 510.322 257.452C510.648 257.159 510.81 256.804 510.81 256.388C510.81 256.114 510.755 255.89 510.644 255.714C510.54 255.532 510.325 255.366 510 255.216C509.746 255.125 509.258 255.001 508.535 254.845C507.819 254.688 507.275 254.516 506.904 254.327C506.533 254.138 506.243 253.858 506.035 253.487C505.827 253.11 505.722 252.67 505.722 252.169C505.722 251.271 506.061 250.525 506.738 249.933C507.415 249.334 508.388 249.034 509.658 249.034C510.185 249.034 510.67 249.08 511.113 249.171C511.556 249.262 511.956 249.399 512.314 249.581L512.344 249.679C512.304 249.907 512.275 250.138 512.256 250.372C512.236 250.606 512.207 251.16 512.168 252.032L511.416 252.022C511.409 251.951 511.399 251.83 511.386 251.661C511.367 251.368 511.328 251.085 511.269 250.812C511.067 250.551 510.817 250.356 510.517 250.226C510.224 250.095 509.879 250.03 509.482 250.03C508.929 250.03 508.499 250.154 508.193 250.401C507.894 250.649 507.744 250.945 507.744 251.29C507.744 251.642 507.812 251.902 507.949 252.071C508.086 252.241 508.288 252.368 508.554 252.452C508.821 252.537 509.313 252.647 510.029 252.784C510.752 252.914 511.237 253.025 511.484 253.116C511.842 253.253 512.129 253.425 512.344 253.634C512.558 253.842 512.721 254.103 512.832 254.415C512.949 254.721 513.008 255.06 513.008 255.431C513.008 256.401 512.63 257.218 511.875 257.882C511.126 258.546 510.071 258.878 508.711 258.878C508.255 258.878 507.812 258.836 507.383 258.751C506.953 258.673 506.429 258.526 505.81 258.312L505.703 258.165C505.755 257.664 505.788 257.309 505.801 257.101L505.859 255.46ZM534.775 256.056L535.058 256.69C534.85 256.879 534.531 257.205 534.101 257.667C533.678 258.129 533.375 258.478 533.193 258.712C532.724 258.816 532.34 258.868 532.041 258.868C531.481 258.868 530.963 258.784 530.488 258.614C529.804 258.38 529.095 257.993 528.359 257.452C527.76 257.927 527.125 258.285 526.455 258.526C525.791 258.761 525.039 258.878 524.199 258.878C522.702 258.878 521.566 258.474 520.791 257.667C520.016 256.853 519.629 255.935 519.629 254.913C519.629 254.164 519.817 253.51 520.195 252.95C520.716 252.182 521.575 251.515 522.773 250.948C522.526 250.395 522.353 249.916 522.256 249.513C522.158 249.109 522.109 248.699 522.109 248.282C522.109 247.716 522.22 247.306 522.441 247.052L523.379 245.968C523.815 245.46 524.111 245.164 524.267 245.079C524.814 244.786 525.387 244.64 525.986 244.64C526.429 244.64 526.826 244.728 527.177 244.903C527.529 245.079 527.796 245.336 527.978 245.675C528.161 246.013 528.252 246.388 528.252 246.798C528.252 247.384 528.047 247.979 527.636 248.585C527.226 249.184 526.37 249.89 525.068 250.704C525.667 251.609 526.338 252.475 527.08 253.302C527.829 254.122 528.548 254.793 529.238 255.313C529.459 254.949 529.619 254.62 529.717 254.327C529.814 254.028 529.863 253.728 529.863 253.429C529.863 253.194 529.83 252.944 529.765 252.677C529.7 252.403 529.606 252.166 529.482 251.964H527.724L527.636 251.847C527.773 251.632 527.874 251.463 527.939 251.339L528.271 250.616C529.534 250.649 530.273 250.665 530.488 250.665C532.259 250.665 533.62 250.613 534.57 250.509L534.658 250.587C534.515 250.984 534.424 251.264 534.385 251.427C534.352 251.59 534.326 251.785 534.306 252.013L534.219 252.12C533.405 252.055 532.946 252.022 532.842 252.022C532.581 252.009 532.086 251.996 531.357 251.983C531.422 252.296 531.455 252.569 531.455 252.804C531.455 253.292 531.357 253.764 531.162 254.22C530.973 254.675 530.625 255.216 530.117 255.841C530.56 256.153 531.061 256.394 531.621 256.563C532.181 256.733 532.711 256.817 533.213 256.817C533.362 256.817 533.486 256.804 533.584 256.778C533.681 256.746 533.795 256.69 533.926 256.612L534.775 256.056ZM524.648 249.884C525.28 249.441 525.742 249.011 526.035 248.595C526.334 248.172 526.484 247.726 526.484 247.257C526.484 246.84 526.367 246.508 526.133 246.261C525.898 246.007 525.605 245.88 525.254 245.88C524.883 245.88 524.57 246.013 524.316 246.28C524.069 246.547 523.945 246.905 523.945 247.354C523.945 248.064 524.179 248.907 524.648 249.884ZM523.164 251.778C522.819 251.987 522.542 252.257 522.334 252.589C522.132 252.914 522.031 253.292 522.031 253.722C522.031 254.36 522.204 254.981 522.549 255.587C522.9 256.186 523.346 256.651 523.886 256.983C524.433 257.309 524.993 257.472 525.566 257.472C526.224 257.472 526.875 257.263 527.519 256.847C526.569 256.046 525.765 255.265 525.107 254.503C524.456 253.741 523.808 252.833 523.164 251.778ZM540.986 245.685V244.874L543.877 244.942L548.242 244.854C549.095 244.854 549.769 244.942 550.263 245.118C550.758 245.294 551.181 245.613 551.533 246.075C551.891 246.537 552.07 247.136 552.07 247.872C552.07 248.608 551.898 249.291 551.552 249.923C551.214 250.554 550.68 251.075 549.951 251.485C549.228 251.889 548.454 252.091 547.627 252.091C547.418 252.091 547.213 252.081 547.011 252.062C546.816 252.035 546.621 252 546.426 251.954C546.36 251.772 546.243 251.541 546.074 251.261L546.279 251.046C546.422 251.091 546.556 251.127 546.679 251.153C546.81 251.173 546.927 251.183 547.031 251.183C547.663 251.183 548.183 250.961 548.594 250.519C549.004 250.069 549.209 249.418 549.209 248.565C549.209 247.674 548.994 247.003 548.564 246.554C548.135 246.104 547.536 245.88 546.767 245.88C546.403 245.88 545.996 245.922 545.547 246.007C545.514 246.41 545.495 247.003 545.488 247.784L545.459 249.698V253.399C545.459 254.311 545.472 255.255 545.498 256.231C545.517 256.798 545.553 257.156 545.605 257.306C545.631 257.371 545.674 257.429 545.732 257.481C545.797 257.527 545.911 257.563 546.074 257.589L547.392 257.677V258.536C545.726 258.497 544.472 258.478 543.633 258.478C542.708 258.478 541.826 258.497 540.986 258.536V257.677C541.709 257.664 542.164 257.608 542.353 257.511C542.412 257.478 542.457 257.429 542.49 257.364C542.536 257.273 542.571 257.035 542.597 256.651C542.669 255.61 542.705 254.451 542.705 253.175V249.728L542.666 247.892C542.653 247.104 542.636 246.612 542.617 246.417C542.604 246.222 542.575 246.082 542.529 245.997C542.503 245.945 542.457 245.899 542.392 245.86C542.334 245.821 542.223 245.785 542.06 245.753L540.986 245.685ZM553.642 251.866C553.642 250.675 553.821 249.636 554.179 248.751C554.544 247.866 555.062 247.114 555.732 246.495C556.403 245.877 557.132 245.431 557.92 245.157C558.929 244.812 560.029 244.64 561.22 244.64C562.405 244.64 563.48 244.806 564.443 245.138C565.159 245.392 565.791 245.759 566.338 246.241C566.891 246.716 567.311 247.205 567.597 247.706C567.884 248.207 568.099 248.757 568.242 249.356C568.392 249.955 568.467 250.616 568.467 251.339C568.467 252.563 568.255 253.699 567.832 254.747C567.519 255.528 567.06 256.222 566.455 256.827C565.856 257.433 565.172 257.898 564.404 258.224C563.349 258.66 562.145 258.878 560.791 258.878C559.326 258.878 558.066 258.614 557.011 258.087C555.963 257.553 555.14 256.769 554.541 255.733C553.942 254.698 553.642 253.409 553.642 251.866ZM556.65 251.29C556.65 252.807 556.858 254.063 557.275 255.06C557.692 256.049 558.226 256.749 558.877 257.159C559.528 257.569 560.296 257.774 561.181 257.774C562.002 257.774 562.734 257.579 563.379 257.188C564.03 256.798 564.538 256.137 564.902 255.206C565.273 254.275 565.459 253.146 565.459 251.817C565.459 250.906 565.358 250.073 565.156 249.317C564.961 248.562 564.677 247.921 564.306 247.394C563.935 246.86 563.496 246.453 562.988 246.173C562.487 245.893 561.819 245.753 560.986 245.753C560.036 245.753 559.225 245.978 558.554 246.427C557.89 246.869 557.405 247.527 557.099 248.399C556.8 249.272 556.65 250.235 556.65 251.29ZM576.504 258.604C575.95 257.237 575.42 255.938 574.912 254.708L573.525 251.397C572.438 248.8 571.767 247.254 571.513 246.759C571.266 246.257 571.077 245.971 570.947 245.899C570.752 245.795 570.348 245.737 569.736 245.724V244.874C571.299 244.92 572.249 244.942 572.588 244.942L576.094 244.874V245.724C575.547 245.73 575.149 245.763 574.902 245.821C574.759 245.854 574.658 245.903 574.599 245.968C574.547 246.026 574.521 246.104 574.521 246.202C574.521 246.397 574.736 247.016 575.166 248.058C575.413 248.657 575.543 248.982 575.556 249.034C575.576 249.08 575.599 249.138 575.625 249.21L578.095 255.235L580.263 249.864C580.316 249.741 580.547 249.125 580.957 248.019C581.25 247.237 581.429 246.713 581.494 246.446C581.507 246.368 581.513 246.29 581.513 246.212C581.513 246.101 581.494 246.02 581.455 245.968C581.422 245.909 581.377 245.867 581.318 245.841C581.273 245.821 581.155 245.805 580.967 245.792C580.543 245.753 580.185 245.73 579.892 245.724V244.874L582.373 244.933L584.482 244.874V245.724C583.851 245.782 583.483 245.851 583.379 245.929C583.203 246.065 582.835 246.804 582.275 248.146L581.582 249.767L580.263 252.911C579.144 255.593 578.385 257.491 577.988 258.604H576.504Z" fill="black"/>
</svg>
