<svg width="110" height="218" viewBox="0 0 110 218" fill="none" xmlns="http://www.w3.org/2000/svg">
<path d="M2.9615 2.83266C32.2092 2.9343 90.968 -1.06751 66.7836 65.4035C60.2965 83.2333 52.88 99.2596 38.2602 104.16C26.4376 108.123 28.4634 88.1167 37.658 78.7563C49.4987 66.7021 61.3928 61.2751 75.6474 61.3427C87.9228 61.4008 96.4737 62.62 102.995 74.5192C114.269 95.091 103.888 124.776 89.2906 152.046C78.1483 172.862 70.6927 186.344 58.747 200.136C56.8079 202.375 44.2315 216.006 44.7684 215.737C54.2597 210.987 67.7246 201.215 77.0249 194.42C80.0037 192.313 82.2283 190.962 84.6401 189.217C86.3991 187.945 81.2235 191.463 80.0037 192.313C69.541 199.608 57.2402 208.536 46.5998 214.786C39.9317 218.702 45.4032 200.185 48.1094 193.105C52.4557 181.734 56.228 171.865 58.4533 163.711" stroke="#02AD28" stroke-width="4" stroke-linecap="round"/>
</svg>
