<svg width="282" height="49" viewBox="0 0 282 49" fill="none" xmlns="http://www.w3.org/2000/svg">
<g clip-path="url(#clip0_2603_1979)">
<mask id="mask0_2603_1979" style="mask-type:luminance" maskUnits="userSpaceOnUse" x="0" y="0" width="282" height="49">
<path d="M282 0.912109H0V48.9121H282V0.912109Z" fill="white"/>
</mask>
<g mask="url(#mask0_2603_1979)">
<path d="M10.3 20.8124C9.80005 20.2124 9.00005 20.3124 8.60005 21.0124L0.100048 38.0124C-0.199952 38.7124 0.300048 39.5124 1.00005 39.5124H12.8C13.2 39.5124 13.5 39.3124 13.7 38.9124C16.3 33.6124 14.7 25.6124 10.3 20.8124Z" fill="#AAAAA9"/>
<path d="M16.5002 5.41221C11.8002 12.9122 12.1002 21.2122 15.2002 27.5122C18.3002 33.8122 20.7002 38.5122 20.9002 38.9122C21.1002 39.3122 21.4002 39.5122 21.8002 39.5122H33.6002C34.4002 39.5122 34.8002 38.7122 34.5002 38.0122C34.5002 38.0122 18.6002 6.21221 18.2002 5.41221C17.9002 4.71221 16.9002 4.71221 16.5002 5.41221Z" fill="#AAAAA9"/>
<path d="M155 19.0125C155 23.2125 156.9 26.5125 164.6 28.0125C169.1 29.0125 170.1 29.7125 170.1 31.2125C170.1 32.7125 169.1 33.6125 165.9 33.6125C162.2 33.6125 157.8 32.3125 154.9 30.6125V37.4125C157.2 38.5125 160.2 39.8125 165.9 39.8125C173.9 39.8125 177 36.2125 177 31.0125M177 31.1125C177 26.1125 174.4 23.8125 166.9 22.2125C162.8 21.3125 161.8 20.4125 161.8 19.1125C161.8 17.5125 163.3 16.8125 166 16.8125C169.3 16.8125 172.5 17.8125 175.6 19.2125V12.7125C173.4 11.6125 170.1 10.8125 166.2 10.8125C158.8 10.8125 155 14.0125 155 19.2125" fill="#AAAAA9"/>
<path d="M257.4 11.0122V39.5122H263.5V17.8122L266 23.5122L274.6 39.5122H282.2V11.0122H276.2V29.4122L273.9 24.0122L267 11.0122H257.4Z" fill="#AAAAA9"/>
<path d="M218.8 11.0122H212.2V39.5122H218.8V11.0122Z" fill="#AAAAA9"/>
<path d="M204.6 31.0124C204.6 26.0124 202 23.7124 194.5 22.1124C190.4 21.2124 189.4 20.3124 189.4 19.0124C189.4 17.4124 190.9 16.7124 193.6 16.7124C196.9 16.7124 200.1 17.7124 203.2 19.1124V12.6124C201 11.5124 197.7 10.7124 193.8 10.7124C186.4 10.7124 182.6 13.9124 182.6 19.1124C182.6 23.3124 184.5 26.6124 192.2 28.1124C196.7 29.1124 197.7 29.8124 197.7 31.3124C197.7 32.8124 196.7 33.7124 193.5 33.7124C189.8 33.7124 185.4 32.4124 182.5 30.7124V37.5124C184.8 38.6124 187.8 39.9124 193.5 39.9124C201.4 39.9124 204.6 36.3124 204.6 31.0124Z" fill="#AAAAA9"/>
<path d="M103.6 11.0122V39.5122H117.2L119.3 33.3122H110.2V11.0122H103.6Z" fill="#AAAAA9"/>
<path d="M76.7002 11.0122V17.1122H84.0002V39.5122H90.7002V17.1122H98.6002V11.0122H76.7002Z" fill="#AAAAA9"/>
<path d="M66.9999 11.0122H58.2999L48.3999 39.5122H55.9999L57.3999 34.7122C59.0999 35.2122 60.8999 35.5122 62.6999 35.5122C64.4999 35.5122 66.2999 35.2122 67.9999 34.7122L69.3999 39.5122H76.9999C76.8999 39.5122 66.9999 11.0122 66.9999 11.0122ZM62.5999 29.5122C61.2999 29.5122 60.0999 29.3122 58.9999 29.0122L62.5999 16.6122L66.1999 29.0122C65.0999 29.3122 63.8999 29.5122 62.5999 29.5122Z" fill="#AAAAA9"/>
<path d="M140.7 11.0122H132L122 39.5122H129.6L131 34.7122C132.7 35.2122 134.5 35.5122 136.3 35.5122C138.1 35.5122 139.9 35.2122 141.6 34.7122L143 39.5122H150.6L140.7 11.0122ZM136.3 29.5122C135 29.5122 133.8 29.3122 132.7 29.0122L136.3 16.6122L139.9 29.0122C138.8 29.3122 137.6 29.5122 136.3 29.5122Z" fill="#AAAAA9"/>
<path d="M242.7 11.0122H234L224.1 39.5122H231.7L233.1 34.7122C234.8 35.2122 236.6 35.5122 238.4 35.5122C240.2 35.5122 242 35.2122 243.7 34.7122L245.1 39.5122H252.7L242.7 11.0122ZM238.4 29.5122C237.1 29.5122 235.9 29.3122 234.8 29.0122L238.4 16.6122L242 29.0122C240.9 29.3122 239.6 29.5122 238.4 29.5122Z" fill="#AAAAA9"/>
</g>
</g>
<defs>
<clipPath id="clip0_2603_1979">
<rect width="282" height="48" fill="white" transform="translate(0 0.912109)"/>
</clipPath>
</defs>
</svg>
