<svg version="1.1" viewBox="0.0 0.0 600.0 371.0" fill="none" stroke="none" stroke-linecap="square" stroke-miterlimit="10" width="600" height="371" xmlns:xlink="http://www.w3.org/1999/xlink" xmlns="http://www.w3.org/2000/svg"><path fill="#ffffff" d="M0 0L600.0 0L600.0 371.0L0 371.0L0 0Z" fill-rule="nonzero"/><path fill="#4285f4" d="M300.0 18.55C343.79782 18.55 385.8416 35.760998 417.06738 66.47256L300.0 185.5Z" fill-rule="nonzero"/><path fill="#0f9d58" d="M209.53532 325.81552C147.30455 285.6939 118.93478 209.3768 139.84698 138.34798C160.75919 67.31915 225.95667 18.55 300.0 18.55L300.0 185.5Z" fill-rule="nonzero"/><path fill="#f4b400" d="M284.37158 351.7169C257.70987 349.21005 232.04239 340.32635 209.53532 325.81552L300.0 185.5Z" fill-rule="nonzero"/><path fill="#db4437" d="M417.06738 66.47256C467.42896 116.00481 481.16687 191.87149 451.37222 255.91841C421.57755 319.96536 354.69943 358.3294 284.37158 351.7169L300.0 185.5Z" fill-rule="nonzero"/><path fill="#757575" d="M20.753124 136.20558L19.628124 136.20558L19.628124 127.67433L20.753124 127.67433L20.753124 136.20558ZM23.39375 129.86183L23.425 130.6587Q24.159374 129.75246 25.33125 129.75246Q27.346874 129.75246 27.3625 132.01808L27.3625 136.20558L26.26875 136.20558L26.26875 132.00246Q26.26875 131.33058 25.95625 131.00246Q25.659374 130.67433 25.003124 130.67433Q24.471874 130.67433 24.065624 130.95558Q23.675 131.23683 23.45625 131.68996L23.45625 136.20558L22.378124 136.20558L22.378124 129.86183L23.39375 129.86183ZM31.628124 133.01808L28.76875 133.01808L28.76875 132.14308L31.628124 132.14308L31.628124 133.01808ZM33.39375 129.86183L33.425 130.6587Q34.159374 129.75246 35.33125 129.75246Q37.346874 129.75246 37.3625 132.01808L37.3625 136.20558L36.26875 136.20558L36.26875 132.00246Q36.26875 131.33058 35.95625 131.00246Q35.659374 130.67433 35.003124 130.67433Q34.471874 130.67433 34.065624 130.95558Q33.675 131.23683 33.45625 131.68996L33.45625 136.20558L32.378124 136.20558L32.378124 129.86183L33.39375 129.86183ZM42.003124 136.33058Q40.70625 136.33058 39.89375 135.48683Q39.096874 134.62746 39.096874 133.20558L39.096874 133.01808Q39.096874 132.06496 39.45625 131.33058Q39.815624 130.58058 40.45625 130.17433Q41.1125 129.75246 41.8625 129.75246Q43.096874 129.75246 43.784374 130.56496Q44.471874 131.37746 44.471874 132.89308L44.471874 133.3462L40.175 133.3462Q40.20625 134.2837 40.721874 134.86183Q41.253124 135.43996 42.065624 135.43996Q42.628124 135.43996 43.01875 135.20558Q43.425 134.9712 43.7375 134.58058L44.39375 135.0962Q43.596874 136.33058 42.003124 136.33058ZM41.8625 130.64308Q41.20625 130.64308 40.753124 131.12746Q40.315624 131.5962 40.221874 132.45558L43.39375 132.45558L43.39375 132.37746Q43.346874 131.54933 42.940624 131.0962Q42.55 130.64308 41.8625 130.64308ZM46.846874 128.33058L46.846874 129.86183L48.01875 129.86183L48.01875 130.70558L46.846874 130.70558L46.846874 134.62746Q46.846874 135.01808 47.003124 135.20558Q47.159374 135.39308 47.534374 135.39308Q47.721874 135.39308 48.05 135.33058L48.05 136.20558Q47.628124 136.33058 47.221874 136.33058Q46.503124 136.33058 46.128124 135.89308Q45.753124 135.43996 45.753124 134.62746L45.753124 130.70558L44.596874 130.70558L44.596874 129.86183L45.753124 129.86183L45.753124 128.33058L46.846874 128.33058ZM54.9875 134.70558L56.20625 129.86183L57.284374 129.86183L55.440624 136.20558L54.565624 136.20558L53.01875 131.39308L51.51875 136.20558L50.64375 136.20558L48.8 129.86183L49.878124 129.86183L51.128124 134.61183L52.6125 129.86183L53.471874 129.86183L54.9875 134.70558ZM58.08125 132.9712Q58.08125 132.04933 58.440624 131.29933Q58.815624 130.54933 59.471874 130.1587Q60.128124 129.75246 60.95625 129.75246Q62.253124 129.75246 63.05 130.64308Q63.8625 131.5337 63.8625 133.0337L63.8625 133.11183Q63.8625 134.0337 63.503124 134.76808Q63.14375 135.50246 62.4875 135.92433Q61.83125 136.33058 60.971874 136.33058Q59.690624 136.33058 58.878124 135.43996Q58.08125 134.5337 58.08125 133.04933L58.08125 132.9712ZM59.175 133.11183Q59.175 134.1587 59.659374 134.79933Q60.159374 135.43996 60.971874 135.43996Q61.8 135.43996 62.284374 134.79933Q62.76875 134.14308 62.76875 132.9712Q62.76875 131.93996 62.26875 131.29933Q61.784374 130.64308 60.95625 130.64308Q60.159374 130.64308 59.659374 131.2837Q59.175 131.9087 59.175 133.11183ZM68.44063 130.83058Q68.19063 130.79933 67.90938 130.79933Q66.83125 130.79933 66.45625 131.70558L66.45625 136.20558L65.37813 136.20558L65.37813 129.86183L66.425 129.86183L66.44063 130.5962Q66.97188 129.75246 67.95625 129.75246Q68.26875 129.75246 68.44063 129.83058L68.44063 130.83058ZM71.14375 133.26808L70.45625 133.9712L70.45625 136.20558L69.37813 136.20558L69.37813 127.20558L70.45625 127.20558L70.45625 132.64308L71.03438 131.95558L73.01875 129.86183L74.33125 129.86183L71.8625 132.51808L74.62813 136.20558L73.34688 136.20558L71.14375 133.26808Z" fill-rule="nonzero"/><path fill="#9e9e9e" d="M23.83125 151.3462L25.01875 151.3462L25.01875 152.2212L23.83125 152.2212L23.83125 154.20558L22.753124 154.20558L22.753124 152.2212L18.8625 152.2212L18.8625 151.58058L22.675 145.67433L23.83125 145.67433L23.83125 151.3462ZM20.096874 151.3462L22.753124 151.3462L22.753124 147.1587L22.6125 147.39308L20.096874 151.3462ZM31.6125 150.56496Q31.6125 152.4712 30.95625 153.4087Q30.315624 154.33058 28.925 154.33058Q27.565624 154.33058 26.909374 153.42433Q26.253124 152.51808 26.221874 150.70558L26.221874 149.26808Q26.221874 147.37746 26.8625 146.4712Q27.51875 145.54933 28.909374 145.54933Q30.284374 145.54933 30.940624 146.43996Q31.596874 147.31496 31.6125 149.1587L31.6125 150.56496ZM30.51875 149.08058Q30.51875 147.70558 30.128124 147.08058Q29.753124 146.43996 28.909374 146.43996Q28.08125 146.43996 27.690624 147.08058Q27.315624 147.70558 27.315624 149.00246L27.315624 150.73683Q27.315624 152.11183 27.70625 152.7837Q28.1125 153.43996 28.925 153.43996Q29.721874 153.43996 30.1125 152.81496Q30.503124 152.18996 30.51875 150.86183L30.51875 149.08058ZM33.39375 153.64308Q33.39375 153.36183 33.55 153.17433Q33.721874 152.98683 34.05 152.98683Q34.39375 152.98683 34.565624 153.17433Q34.7375 153.36183 34.7375 153.64308Q34.7375 153.9087 34.565624 154.0962Q34.39375 154.26808 34.05 154.26808Q33.721874 154.26808 33.55 154.0962Q33.39375 153.9087 33.39375 153.64308ZM40.409374 150.45558Q40.08125 150.86183 39.596874 151.11183Q39.128124 151.3462 38.565624 151.3462Q37.83125 151.3462 37.284374 150.98683Q36.7375 150.62746 36.440624 149.9712Q36.14375 149.29933 36.14375 148.50246Q36.14375 147.6587 36.45625 146.9712Q36.784374 146.2837 37.378124 145.92433Q37.9875 145.54933 38.784374 145.54933Q40.05 145.54933 40.76875 146.50246Q41.503124 147.45558 41.503124 149.08058L41.503124 149.39308Q41.503124 151.89308 40.51875 153.0337Q39.534374 154.17433 37.55 154.20558L37.33125 154.20558L37.33125 153.29933L37.565624 153.29933Q38.909374 153.26808 39.628124 152.5962Q40.346874 151.92433 40.409374 150.45558ZM38.7375 150.45558Q39.284374 150.45558 39.7375 150.12746Q40.20625 149.7837 40.425 149.29933L40.425 148.86183Q40.425 147.79933 39.95625 147.12746Q39.4875 146.45558 38.784374 146.45558Q38.065624 146.45558 37.628124 147.00246Q37.20625 147.54933 37.20625 148.45558Q37.20625 149.33058 37.6125 149.89308Q38.034374 150.45558 38.7375 150.45558ZM43.159374 147.31496Q43.159374 146.54933 43.64375 146.04933Q44.14375 145.54933 44.909374 145.54933Q45.690624 145.54933 46.175 146.04933Q46.659374 146.54933 46.659374 147.3462L46.659374 147.76808Q46.659374 148.5337 46.159374 149.0337Q45.675 149.51808 44.925 149.51808Q44.159374 149.51808 43.659374 149.0337Q43.159374 148.5337 43.159374 147.7212L43.159374 147.31496ZM43.971874 147.76808Q43.971874 148.2212 44.221874 148.51808Q44.4875 148.81496 44.925 148.81496Q45.346874 148.81496 45.596874 148.5337Q45.846874 148.23683 45.846874 147.73683L45.846874 147.31496Q45.846874 146.86183 45.596874 146.56496Q45.346874 146.25246 44.909374 146.25246Q44.471874 146.25246 44.221874 146.56496Q43.971874 146.86183 43.971874 147.33058L43.971874 147.76808ZM47.315624 152.11183Q47.315624 151.3462 47.8 150.86183Q48.3 150.36183 49.065624 150.36183Q49.83125 150.36183 50.315624 150.86183Q50.815624 151.3462 50.815624 152.1587L50.815624 152.56496Q50.815624 153.33058 50.33125 153.83058Q49.846874 154.33058 49.08125 154.33058Q48.315624 154.33058 47.815624 153.8462Q47.315624 153.3462 47.315624 152.5337L47.315624 152.11183ZM48.128124 152.56496Q48.128124 153.0337 48.378124 153.33058Q48.64375 153.62746 49.08125 153.62746Q49.503124 153.62746 49.753124 153.3462Q50.003124 153.04933 50.003124 152.54933L50.003124 152.11183Q50.003124 151.64308 49.7375 151.36183Q49.4875 151.06496 49.065624 151.06496Q48.64375 151.06496 48.378124 151.36183Q48.128124 151.64308 48.128124 152.14308L48.128124 152.56496ZM45.175 153.56496L44.55 153.17433L48.721874 146.50246L49.33125 146.89308L45.175 153.56496Z" fill-rule="nonzero"/><path stroke="#757575" stroke-width="1.0" stroke-linecap="butt" d="M18.55 140.70558L127.05 140.70558L147.85463 140.70558" fill-rule="nonzero"/><path fill="#9e9e9e" d="M149.85463 140.70558C149.85463 139.60101 148.9592 138.70558 147.85463 138.70558C146.75006 138.70558 145.85463 139.60101 145.85463 140.70558C145.85463 141.81015 146.75006 142.70558 147.85463 142.70558C148.9592 142.70558 149.85463 141.81015 149.85463 140.70558" fill-rule="nonzero"/><path fill="#757575" d="M24.3625 326.9418L20.659374 326.9418L20.659374 329.95743L24.95625 329.95743L24.95625 330.8793L19.534374 330.8793L19.534374 322.34805L24.909374 322.34805L24.909374 323.26993L20.659374 323.26993L20.659374 326.01993L24.3625 326.01993L24.3625 326.9418ZM28.503124 326.84805L29.909374 324.53555L31.175 324.53555L29.096874 327.67618L31.2375 330.8793L29.9875 330.8793L28.51875 328.5043L27.05 330.8793L25.784374 330.8793L27.925 327.67618L25.8625 324.53555L27.1125 324.53555L28.503124 326.84805ZM34.628124 327.6918L31.76875 327.6918L31.76875 326.8168L34.628124 326.8168L34.628124 327.6918ZM37.909374 330.11368Q38.4875 330.11368 38.925 329.76993Q39.3625 329.41055 39.409374 328.8793L40.440624 328.8793Q40.409374 329.42618 40.05 329.92618Q39.70625 330.41055 39.128124 330.70743Q38.565624 331.0043 37.909374 331.0043Q36.6125 331.0043 35.846874 330.14493Q35.096874 329.26993 35.096874 327.76993L35.096874 327.58243Q35.096874 326.66055 35.425 325.9418Q35.76875 325.22305 36.39375 324.83243Q37.034374 324.42618 37.909374 324.42618Q38.971874 324.42618 39.675 325.0668Q40.39375 325.6918 40.440624 326.72305L39.409374 326.72305Q39.3625 326.09805 38.940624 325.70743Q38.51875 325.3168 37.909374 325.3168Q37.08125 325.3168 36.628124 325.91055Q36.175 326.5043 36.175 327.6293L36.175 327.83243Q36.175 328.92618 36.628124 329.51993Q37.08125 330.11368 37.909374 330.11368ZM42.55 330.8793L41.471874 330.8793L41.471874 321.8793L42.55 321.8793L42.55 330.8793ZM45.55 330.8793L44.471874 330.8793L44.471874 324.53555L45.55 324.53555L45.55 330.8793ZM44.378124 322.86368Q44.378124 322.59805 44.534374 322.41055Q44.70625 322.22305 45.01875 322.22305Q45.33125 322.22305 45.4875 322.41055Q45.659374 322.59805 45.659374 322.86368Q45.659374 323.11368 45.4875 323.30118Q45.33125 323.47305 45.01875 323.47305Q44.70625 323.47305 44.534374 323.30118Q44.378124 323.11368 44.378124 322.86368ZM50.003124 331.0043Q48.70625 331.0043 47.89375 330.16055Q47.096874 329.30118 47.096874 327.8793L47.096874 327.6918Q47.096874 326.73868 47.45625 326.0043Q47.815624 325.2543 48.45625 324.84805Q49.1125 324.42618 49.8625 324.42618Q51.096874 324.42618 51.784374 325.23868Q52.471874 326.05118 52.471874 327.5668L52.471874 328.01993L48.175 328.01993Q48.20625 328.95743 48.721874 329.53555Q49.253124 330.11368 50.065624 330.11368Q50.628124 330.11368 51.01875 329.8793Q51.425 329.64493 51.7375 329.2543L52.39375 329.76993Q51.596874 331.0043 50.003124 331.0043ZM49.8625 325.3168Q49.20625 325.3168 48.753124 325.80118Q48.315624 326.26993 48.221874 327.1293L51.39375 327.1293L51.39375 327.05118Q51.346874 326.22305 50.940624 325.76993Q50.55 325.3168 49.8625 325.3168ZM54.39375 324.53555L54.425 325.33243Q55.159374 324.42618 56.33125 324.42618Q58.346874 324.42618 58.3625 326.6918L58.3625 330.8793L57.26875 330.8793L57.26875 326.67618Q57.26875 326.0043 56.95625 325.67618Q56.659374 325.34805 56.003124 325.34805Q55.471874 325.34805 55.065624 325.6293Q54.675 325.91055 54.45625 326.36368L54.45625 330.8793L53.378124 330.8793L53.378124 324.53555L54.39375 324.53555ZM61.846874 323.0043L61.846874 324.53555L63.01875 324.53555L63.01875 325.3793L61.846874 325.3793L61.846874 329.30118Q61.846874 329.6918 62.003124 329.8793Q62.159374 330.0668 62.534374 330.0668Q62.721874 330.0668 63.05 330.0043L63.05 330.8793Q62.628124 331.0043 62.221874 331.0043Q61.503124 331.0043 61.128124 330.5668Q60.753124 330.11368 60.753124 329.30118L60.753124 325.3793L59.596874 325.3793L59.596874 324.53555L60.753124 324.53555L60.753124 323.0043L61.846874 323.0043Z" fill-rule="nonzero"/><path fill="#9e9e9e" d="M24.76875 340.95743L21.2375 348.8793L20.096874 348.8793L23.6125 341.23868L19.003124 341.23868L19.003124 340.34805L24.76875 340.34805L24.76875 340.95743ZM26.39375 348.3168Q26.39375 348.03555 26.55 347.84805Q26.721874 347.66055 27.05 347.66055Q27.39375 347.66055 27.565624 347.84805Q27.7375 348.03555 27.7375 348.3168Q27.7375 348.58243 27.565624 348.76993Q27.39375 348.9418 27.05 348.9418Q26.721874 348.9418 26.55 348.76993Q26.39375 348.58243 26.39375 348.3168ZM33.51875 340.34805L33.51875 341.2543L33.315624 341.2543Q32.05 341.28555 31.3 342.01993Q30.55 342.73868 30.425 344.05118Q31.1125 343.28555 32.26875 343.28555Q33.378124 343.28555 34.05 344.0668Q34.721874 344.84805 34.721874 346.09805Q34.721874 347.41055 34.003124 348.20743Q33.284374 349.0043 32.065624 349.0043Q30.846874 349.0043 30.08125 348.0668Q29.33125 347.11368 29.33125 345.6293L29.33125 345.22305Q29.33125 342.86368 30.33125 341.61368Q31.33125 340.36368 33.315624 340.34805L33.51875 340.34805ZM32.096874 344.1918Q31.534374 344.1918 31.065624 344.51993Q30.596874 344.84805 30.409374 345.36368L30.409374 345.7543Q30.409374 346.8168 30.878124 347.45743Q31.3625 348.09805 32.065624 348.09805Q32.8 348.09805 33.221874 347.5668Q33.64375 347.01993 33.64375 346.14493Q33.64375 345.26993 33.221874 344.73868Q32.8 344.1918 32.096874 344.1918ZM36.159374 341.98868Q36.159374 341.22305 36.64375 340.72305Q37.14375 340.22305 37.909374 340.22305Q38.690624 340.22305 39.175 340.72305Q39.659374 341.22305 39.659374 342.01993L39.659374 342.4418Q39.659374 343.20743 39.159374 343.70743Q38.675 344.1918 37.925 344.1918Q37.159374 344.1918 36.659374 343.70743Q36.159374 343.20743 36.159374 342.39493L36.159374 341.98868ZM36.971874 342.4418Q36.971874 342.89493 37.221874 343.1918Q37.4875 343.48868 37.925 343.48868Q38.346874 343.48868 38.596874 343.20743Q38.846874 342.91055 38.846874 342.41055L38.846874 341.98868Q38.846874 341.53555 38.596874 341.23868Q38.346874 340.92618 37.909374 340.92618Q37.471874 340.92618 37.221874 341.23868Q36.971874 341.53555 36.971874 342.0043L36.971874 342.4418ZM40.315624 346.78555Q40.315624 346.01993 40.8 345.53555Q41.3 345.03555 42.065624 345.03555Q42.83125 345.03555 43.315624 345.53555Q43.815624 346.01993 43.815624 346.83243L43.815624 347.23868Q43.815624 348.0043 43.33125 348.5043Q42.846874 349.0043 42.08125 349.0043Q41.315624 349.0043 40.815624 348.51993Q40.315624 348.01993 40.315624 347.20743L40.315624 346.78555ZM41.128124 347.23868Q41.128124 347.70743 41.378124 348.0043Q41.64375 348.30118 42.08125 348.30118Q42.503124 348.30118 42.753124 348.01993Q43.003124 347.72305 43.003124 347.22305L43.003124 346.78555Q43.003124 346.3168 42.7375 346.03555Q42.4875 345.73868 42.065624 345.73868Q41.64375 345.73868 41.378124 346.03555Q41.128124 346.3168 41.128124 346.8168L41.128124 347.23868ZM38.175 348.23868L37.55 347.84805L41.721874 341.17618L42.33125 341.5668L38.175 348.23868Z" fill-rule="nonzero"/><path stroke="#757575" stroke-width="1.0" stroke-linecap="butt" d="M18.55 335.3793L127.05 335.3793L248.12569 335.3793" fill-rule="nonzero"/><path fill="#9e9e9e" d="M250.12569 335.3793C250.12569 334.27475 249.23026 333.3793 248.12569 333.3793C247.02112 333.3793 246.12569 334.27475 246.12569 335.3793C246.12569 336.4839 247.02112 337.3793 248.12569 337.3793C249.23026 337.3793 250.12569 336.4839 250.12569 335.3793" fill-rule="nonzero"/><path fill="#757575" d="M507.9969 30.235348Q507.9969 31.485348 507.575 32.422848Q507.15314 33.344723 506.3719 33.844723Q505.60626 34.344723 504.575 34.344723Q503.575 34.344723 502.79376 33.844723Q502.0125 33.344723 501.575 32.438473Q501.15314 31.516598 501.1375 30.297848L501.1375 29.688473Q501.1375 28.454098 501.5594 27.516598Q501.9969 26.579098 502.77814 26.079098Q503.5594 25.563473 504.575 25.563473Q505.59064 25.563473 506.3719 26.063473Q507.15314 26.563473 507.575 27.500973Q507.9969 28.438473 507.9969 29.688473L507.9969 30.235348ZM506.8875 29.672848Q506.8875 28.157223 506.27814 27.344723Q505.66876 26.532223 504.575 26.532223Q503.4969 26.532223 502.8875 27.344723Q502.27814 28.157223 502.2625 29.594723L502.2625 30.235348Q502.2625 31.704098 502.8719 32.547848Q503.4969 33.375973 504.575 33.375973Q505.66876 33.375973 506.2625 32.594723Q506.8719 31.797848 506.8875 30.313473L506.8875 29.672848ZM513.1844 33.594723Q512.5594 34.344723 511.325 34.344723Q510.3094 34.344723 509.77814 33.750973Q509.2469 33.157223 509.2469 32.000973L509.2469 27.875973L510.325 27.875973L510.325 31.969723Q510.325 33.422848 511.4969 33.422848Q512.7469 33.422848 513.15314 32.485348L513.15314 27.875973L514.2469 27.875973L514.2469 34.219723L513.21564 34.219723L513.1844 33.594723ZM517.7469 26.344723L517.7469 27.875973L518.91876 27.875973L518.91876 28.719723L517.7469 28.719723L517.7469 32.641598Q517.7469 33.032223 517.90314 33.219723Q518.0594 33.407223 518.4344 33.407223Q518.6219 33.407223 518.95 33.344723L518.95 34.219723Q518.52814 34.344723 518.1219 34.344723Q517.40314 34.344723 517.02814 33.907223Q516.65314 33.454098 516.65314 32.641598L516.65314 28.719723L515.4969 28.719723L515.4969 27.875973L516.65314 27.875973L516.65314 26.344723L517.7469 26.344723ZM522.98126 30.985348Q522.98126 30.063473 523.34064 29.313473Q523.71564 28.563473 524.3719 28.172848Q525.02814 27.766598 525.85626 27.766598Q527.15314 27.766598 527.95 28.657223Q528.7625 29.547848 528.7625 31.047848L528.7625 31.125973Q528.7625 32.047848 528.40314 32.782223Q528.04376 33.516598 527.3875 33.938473Q526.73126 34.344723 525.8719 34.344723Q524.59064 34.344723 523.77814 33.454098Q522.98126 32.547848 522.98126 31.063473L522.98126 30.985348ZM524.075 31.125973Q524.075 32.172848 524.5594 32.813473Q525.0594 33.454098 525.8719 33.454098Q526.7 33.454098 527.1844 32.813473Q527.66876 32.157223 527.66876 30.985348Q527.66876 29.954098 527.16876 29.313473Q526.6844 28.657223 525.85626 28.657223Q525.0594 28.657223 524.5594 29.297848Q524.075 29.922848 524.075 31.125973ZM530.8094 34.219723L530.8094 28.719723L529.8094 28.719723L529.8094 27.875973L530.8094 27.875973L530.8094 27.235348Q530.8094 26.204098 531.34064 25.657223Q531.8875 25.094723 532.8875 25.094723Q533.2625 25.094723 533.6375 25.188473L533.575 26.079098Q533.29376 26.016598 532.9969 26.016598Q532.46564 26.016598 532.16876 26.329098Q531.8875 26.641598 531.8875 27.204098L531.8875 27.875973L533.2469 27.875973L533.2469 28.719723L531.8875 28.719723L531.8875 34.219723L530.8094 34.219723ZM543.9969 34.219723L542.8719 34.219723L538.575 27.641598L538.575 34.219723L537.4344 34.219723L537.4344 25.688473L538.575 25.688473L542.8719 32.297848L542.8719 25.688473L543.9969 25.688473L543.9969 34.219723ZM548.90314 34.344723Q547.60626 34.344723 546.79376 33.500973Q545.9969 32.641598 545.9969 31.219723L545.9969 31.032223Q545.9969 30.079098 546.35626 29.344723Q546.71564 28.594723 547.35626 28.188473Q548.0125 27.766598 548.7625 27.766598Q549.9969 27.766598 550.6844 28.579098Q551.3719 29.391598 551.3719 30.907223L551.3719 31.360348L547.075 31.360348Q547.10626 32.297848 547.6219 32.875973Q548.15314 33.454098 548.96564 33.454098Q549.52814 33.454098 549.91876 33.219723Q550.325 32.985348 550.6375 32.594723L551.29376 33.110348Q550.4969 34.344723 548.90314 34.344723ZM548.7625 28.657223Q548.10626 28.657223 547.65314 29.141598Q547.21564 29.610348 547.1219 30.469723L550.29376 30.469723L550.29376 30.391598Q550.2469 29.563473 549.84064 29.110348Q549.45 28.657223 548.7625 28.657223ZM553.7469 26.344723L553.7469 27.875973L554.91876 27.875973L554.91876 28.719723L553.7469 28.719723L553.7469 32.641598Q553.7469 33.032223 553.90314 33.219723Q554.0594 33.407223 554.4344 33.407223Q554.6219 33.407223 554.95 33.344723L554.95 34.219723Q554.52814 34.344723 554.1219 34.344723Q553.40314 34.344723 553.02814 33.907223Q552.65314 33.454098 552.65314 32.641598L552.65314 28.719723L551.4969 28.719723L551.4969 27.875973L552.65314 27.875973L552.65314 26.344723L553.7469 26.344723ZM561.8875 32.719723L563.10626 27.875973L564.1844 27.875973L562.34064 34.219723L561.46564 34.219723L559.91876 29.407223L558.41876 34.219723L557.54376 34.219723L555.7 27.875973L556.77814 27.875973L558.02814 32.625973L559.5125 27.875973L560.3719 27.875973L561.8875 32.719723ZM564.98126 30.985348Q564.98126 30.063473 565.34064 29.313473Q565.71564 28.563473 566.3719 28.172848Q567.02814 27.766598 567.85626 27.766598Q569.15314 27.766598 569.95 28.657223Q570.7625 29.547848 570.7625 31.047848L570.7625 31.125973Q570.7625 32.047848 570.40314 32.782223Q570.04376 33.516598 569.3875 33.938473Q568.73126 34.344723 567.8719 34.344723Q566.59064 34.344723 565.77814 33.454098Q564.98126 32.547848 564.98126 31.063473L564.98126 30.985348ZM566.075 31.125973Q566.075 32.172848 566.5594 32.813473Q567.0594 33.454098 567.8719 33.454098Q568.7 33.454098 569.1844 32.813473Q569.66876 32.157223 569.66876 30.985348Q569.66876 29.954098 569.16876 29.313473Q568.6844 28.657223 567.85626 28.657223Q567.0594 28.657223 566.5594 29.297848Q566.075 29.922848 566.075 31.125973ZM575.34064 28.844723Q575.09064 28.813473 574.8094 28.813473Q573.73126 28.813473 573.35626 29.719723L573.35626 34.219723L572.27814 34.219723L572.27814 27.875973L573.325 27.875973L573.34064 28.610348Q573.8719 27.766598 574.85626 27.766598Q575.16876 27.766598 575.34064 27.844723L575.34064 28.844723ZM578.04376 31.282223L577.35626 31.985348L577.35626 34.219723L576.27814 34.219723L576.27814 25.219723L577.35626 25.219723L577.35626 30.657223L577.9344 29.969723L579.91876 27.875973L581.23126 27.875973L578.7625 30.532223L581.52814 34.219723L580.2469 34.219723L578.04376 31.282223Z" fill-rule="nonzero"/><path fill="#9e9e9e" d="M552.71564 52.219723L551.6375 52.219723L551.6375 45.000973L549.45 45.797848L549.45 44.813473L552.5594 43.641598L552.71564 43.641598L552.71564 52.219723ZM561.7469 52.219723L556.15314 52.219723L556.15314 51.438473L559.10626 48.157223Q559.7625 47.407223 560.0125 46.954098Q560.2625 46.485348 560.2625 45.985348Q560.2625 45.313473 559.85626 44.891598Q559.46564 44.454098 558.77814 44.454098Q557.98126 44.454098 557.52814 44.922848Q557.075 45.375973 557.075 46.204098L555.9969 46.204098Q555.9969 45.016598 556.7469 44.297848Q557.5125 43.563473 558.77814 43.563473Q559.98126 43.563473 560.66876 44.188473Q561.35626 44.813473 561.35626 45.860348Q561.35626 47.110348 559.7469 48.860348L557.46564 51.329098L561.7469 51.329098L561.7469 52.219723ZM563.29376 51.657223Q563.29376 51.375973 563.45 51.188473Q563.6219 51.000973 563.95 51.000973Q564.29376 51.000973 564.46564 51.188473Q564.6375 51.375973 564.6375 51.657223Q564.6375 51.922848 564.46564 52.110348Q564.29376 52.282223 563.95 52.282223Q563.6219 52.282223 563.45 52.110348Q563.29376 51.922848 563.29376 51.657223ZM570.73126 49.360348L571.91876 49.360348L571.91876 50.235348L570.73126 50.235348L570.73126 52.219723L569.65314 52.219723L569.65314 50.235348L565.7625 50.235348L565.7625 49.594723L569.575 43.688473L570.73126 43.688473L570.73126 49.360348ZM566.9969 49.360348L569.65314 49.360348L569.65314 45.172848L569.5125 45.407223L566.9969 49.360348ZM573.0594 45.329098Q573.0594 44.563473 573.54376 44.063473Q574.04376 43.563473 574.8094 43.563473Q575.59064 43.563473 576.075 44.063473Q576.5594 44.563473 576.5594 45.360348L576.5594 45.782223Q576.5594 46.547848 576.0594 47.047848Q575.575 47.532223 574.825 47.532223Q574.0594 47.532223 573.5594 47.047848Q573.0594 46.547848 573.0594 45.735348L573.0594 45.329098ZM573.8719 45.782223Q573.8719 46.235348 574.1219 46.532223Q574.3875 46.829098 574.825 46.829098Q575.2469 46.829098 575.4969 46.547848Q575.7469 46.250973 575.7469 45.750973L575.7469 45.329098Q575.7469 44.875973 575.4969 44.579098Q575.2469 44.266598 574.8094 44.266598Q574.3719 44.266598 574.1219 44.579098Q573.8719 44.875973 573.8719 45.344723L573.8719 45.782223ZM577.21564 50.125973Q577.21564 49.360348 577.7 48.875973Q578.2 48.375973 578.96564 48.375973Q579.73126 48.375973 580.21564 48.875973Q580.71564 49.360348 580.71564 50.172848L580.71564 50.579098Q580.71564 51.344723 580.23126 51.844723Q579.7469 52.344723 578.98126 52.344723Q578.21564 52.344723 577.71564 51.860348Q577.21564 51.360348 577.21564 50.547848L577.21564 50.125973ZM578.02814 50.579098Q578.02814 51.047848 578.27814 51.344723Q578.54376 51.641598 578.98126 51.641598Q579.40314 51.641598 579.65314 51.360348Q579.90314 51.063473 579.90314 50.563473L579.90314 50.125973Q579.90314 49.657223 579.6375 49.375973Q579.3875 49.079098 578.96564 49.079098Q578.54376 49.079098 578.27814 49.375973Q578.02814 49.657223 578.02814 50.157223L578.02814 50.579098ZM575.075 51.579098L574.45 51.188473L578.6219 44.516598L579.23126 44.907223L575.075 51.579098Z" fill-rule="nonzero"/><path stroke="#757575" stroke-width="1.0" stroke-linecap="butt" d="M581.45 38.719723L472.95 38.719723L360.0858 38.719723" fill-rule="nonzero"/><path fill="#9e9e9e" d="M362.0858 38.719723C362.0858 37.61515 361.19037 36.719723 360.0858 36.719723C358.98123 36.719723 358.0858 37.61515 358.0858 38.719723C358.0858 39.82429 358.98123 40.719723 360.0858 40.719723C361.19037 40.719723 362.0858 39.82429 362.0858 38.719723" fill-rule="nonzero"/><path fill="#757575" d="M499.9969 247.89749L498.8719 247.89749L494.575 241.31937L494.575 247.89749L493.4344 247.89749L493.4344 239.36624L494.575 239.36624L498.8719 245.97562L498.8719 239.36624L499.9969 239.36624L499.9969 247.89749ZM504.90314 248.02249Q503.60626 248.02249 502.79376 247.17874Q501.9969 246.31937 501.9969 244.89749L501.9969 244.70999Q501.9969 243.75687 502.35626 243.02249Q502.71564 242.27249 503.35626 241.86624Q504.0125 241.44437 504.7625 241.44437Q505.9969 241.44437 506.6844 242.25687Q507.3719 243.06937 507.3719 244.58499L507.3719 245.03812L503.075 245.03812Q503.10626 245.97562 503.6219 246.55374Q504.15314 247.13187 504.96564 247.13187Q505.52814 247.13187 505.91876 246.89749Q506.325 246.66312 506.6375 246.27249L507.29376 246.78812Q506.4969 248.02249 504.90314 248.02249ZM504.7625 242.33499Q504.10626 242.33499 503.65314 242.81937Q503.21564 243.28812 503.1219 244.14749L506.29376 244.14749L506.29376 244.06937Q506.2469 243.24124 505.84064 242.78812Q505.45 242.33499 504.7625 242.33499ZM509.7469 240.02249L509.7469 241.55374L510.91876 241.55374L510.91876 242.39749L509.7469 242.39749L509.7469 246.31937Q509.7469 246.70999 509.90314 246.89749Q510.0594 247.08499 510.4344 247.08499Q510.6219 247.08499 510.95 247.02249L510.95 247.89749Q510.52814 248.02249 510.1219 248.02249Q509.40314 248.02249 509.02814 247.58499Q508.65314 247.13187 508.65314 246.31937L508.65314 242.39749L507.4969 242.39749L507.4969 241.55374L508.65314 241.55374L508.65314 240.02249L509.7469 240.02249ZM517.8875 246.39749L519.10626 241.55374L520.1844 241.55374L518.34064 247.89749L517.46564 247.89749L515.91876 243.08499L514.41876 247.89749L513.54376 247.89749L511.7 241.55374L512.77814 241.55374L514.02814 246.30374L515.5125 241.55374L516.3719 241.55374L517.8875 246.39749ZM520.98126 244.66312Q520.98126 243.74124 521.34064 242.99124Q521.71564 242.24124 522.3719 241.85062Q523.02814 241.44437 523.85626 241.44437Q525.15314 241.44437 525.95 242.33499Q526.7625 243.22562 526.7625 244.72562L526.7625 244.80374Q526.7625 245.72562 526.40314 246.45999Q526.04376 247.19437 525.3875 247.61624Q524.73126 248.02249 523.8719 248.02249Q522.59064 248.02249 521.77814 247.13187Q520.98126 246.22562 520.98126 244.74124L520.98126 244.66312ZM522.075 244.80374Q522.075 245.85062 522.5594 246.49124Q523.0594 247.13187 523.8719 247.13187Q524.7 247.13187 525.1844 246.49124Q525.66876 245.83499 525.66876 244.66312Q525.66876 243.63187 525.16876 242.99124Q524.6844 242.33499 523.85626 242.33499Q523.0594 242.33499 522.5594 242.97562Q522.075 243.60062 522.075 244.80374ZM531.34064 242.52249Q531.09064 242.49124 530.8094 242.49124Q529.73126 242.49124 529.35626 243.39749L529.35626 247.89749L528.27814 247.89749L528.27814 241.55374L529.325 241.55374L529.34064 242.28812Q529.8719 241.44437 530.85626 241.44437Q531.16876 241.44437 531.34064 241.52249L531.34064 242.52249ZM534.04376 244.95999L533.35626 245.66312L533.35626 247.89749L532.27814 247.89749L532.27814 238.89749L533.35626 238.89749L533.35626 244.33499L533.9344 243.64749L535.91876 241.55374L537.23126 241.55374L534.7625 244.20999L537.52814 247.89749L536.2469 247.89749L534.04376 244.95999ZM544.575 244.44437L542.5594 244.44437L542.5594 247.89749L541.4344 247.89749L541.4344 239.36624L544.2625 239.36624Q545.7 239.36624 546.46564 240.02249Q547.2469 240.67874 547.2469 241.92874Q547.2469 242.72562 546.8094 243.31937Q546.3875 243.91312 545.6219 244.20999L547.6219 247.81937L547.6219 247.89749L546.41876 247.89749L544.575 244.44437ZM542.5594 243.52249L544.29376 243.52249Q545.1375 243.52249 545.6219 243.10062Q546.1219 242.66312 546.1219 241.92874Q546.1219 241.14749 545.65314 240.72562Q545.1844 240.30374 544.29376 240.28812L542.5594 240.28812L542.5594 243.52249ZM550.90314 248.02249Q549.60626 248.02249 548.79376 247.17874Q547.9969 246.31937 547.9969 244.89749L547.9969 244.70999Q547.9969 243.75687 548.35626 243.02249Q548.71564 242.27249 549.35626 241.86624Q550.0125 241.44437 550.7625 241.44437Q551.9969 241.44437 552.6844 242.25687Q553.3719 243.06937 553.3719 244.58499L553.3719 245.03812L549.075 245.03812Q549.10626 245.97562 549.6219 246.55374Q550.15314 247.13187 550.96564 247.13187Q551.52814 247.13187 551.91876 246.89749Q552.325 246.66312 552.6375 246.27249L553.29376 246.78812Q552.4969 248.02249 550.90314 248.02249ZM550.7625 242.33499Q550.10626 242.33499 549.65314 242.81937Q549.21564 243.28812 549.1219 244.14749L552.29376 244.14749L552.29376 244.06937Q552.2469 243.24124 551.84064 242.78812Q551.45 242.33499 550.7625 242.33499ZM554.8094 247.89749L554.8094 242.39749L553.8094 242.39749L553.8094 241.55374L554.8094 241.55374L554.8094 240.91312Q554.8094 239.88187 555.34064 239.33499Q555.8875 238.77249 556.8875 238.77249Q557.2625 238.77249 557.6375 238.86624L557.575 239.75687Q557.29376 239.69437 556.9969 239.69437Q556.46564 239.69437 556.16876 240.00687Q555.8875 240.31937 555.8875 240.88187L555.8875 241.55374L557.2469 241.55374L557.2469 242.39749L555.8875 242.39749L555.8875 247.89749L554.8094 247.89749ZM560.90314 248.02249Q559.60626 248.02249 558.79376 247.17874Q557.9969 246.31937 557.9969 244.89749L557.9969 244.70999Q557.9969 243.75687 558.35626 243.02249Q558.71564 242.27249 559.35626 241.86624Q560.0125 241.44437 560.7625 241.44437Q561.9969 241.44437 562.6844 242.25687Q563.3719 243.06937 563.3719 244.58499L563.3719 245.03812L559.075 245.03812Q559.10626 245.97562 559.6219 246.55374Q560.15314 247.13187 560.96564 247.13187Q561.52814 247.13187 561.91876 246.89749Q562.325 246.66312 562.6375 246.27249L563.29376 246.78812Q562.4969 248.02249 560.90314 248.02249ZM560.7625 242.33499Q560.10626 242.33499 559.65314 242.81937Q559.21564 243.28812 559.1219 244.14749L562.29376 244.14749L562.29376 244.06937Q562.2469 243.24124 561.84064 242.78812Q561.45 242.33499 560.7625 242.33499ZM567.34064 242.52249Q567.09064 242.49124 566.8094 242.49124Q565.73126 242.49124 565.35626 243.39749L565.35626 247.89749L564.27814 247.89749L564.27814 241.55374L565.325 241.55374L565.34064 242.28812Q565.8719 241.44437 566.85626 241.44437Q567.16876 241.44437 567.34064 241.52249L567.34064 242.52249ZM571.34064 242.52249Q571.09064 242.49124 570.8094 242.49124Q569.73126 242.49124 569.35626 243.39749L569.35626 247.89749L568.27814 247.89749L568.27814 241.55374L569.325 241.55374L569.34064 242.28812Q569.8719 241.44437 570.85626 241.44437Q571.16876 241.44437 571.34064 241.52249L571.34064 242.52249ZM576.1844 247.89749Q576.09064 247.70999 576.02814 247.22562Q575.27814 248.02249 574.23126 248.02249Q573.29376 248.02249 572.6844 247.49124Q572.09064 246.95999 572.09064 246.13187Q572.09064 245.14749 572.84064 244.60062Q573.59064 244.05374 574.96564 244.05374L576.0125 244.05374L576.0125 243.55374Q576.0125 242.99124 575.66876 242.66312Q575.34064 242.31937 574.66876 242.31937Q574.09064 242.31937 573.7 242.61624Q573.3094 242.89749 573.3094 243.31937L572.21564 243.31937Q572.21564 242.83499 572.54376 242.39749Q572.8875 241.95999 573.46564 241.70999Q574.04376 241.44437 574.73126 241.44437Q575.84064 241.44437 576.45 241.99124Q577.075 242.53812 577.10626 243.49124L577.10626 246.41312Q577.10626 247.28812 577.325 247.80374L577.325 247.89749L576.1844 247.89749ZM574.3875 247.06937Q574.90314 247.06937 575.35626 246.80374Q575.8094 246.53812 576.0125 246.11624L576.0125 244.81937L575.16876 244.81937Q573.16876 244.81937 573.16876 245.99124Q573.16876 246.49124 573.5125 246.78812Q573.85626 247.06937 574.3875 247.06937ZM580.45 247.89749L579.3719 247.89749L579.3719 238.89749L580.45 238.89749L580.45 247.89749Z" fill-rule="nonzero"/><path fill="#9e9e9e" d="M550.73126 261.10062L551.54376 261.10062Q552.325 261.085 552.7625 260.69437Q553.2 260.30374 553.2 259.63187Q553.2 258.13187 551.7 258.13187Q550.9969 258.13187 550.575 258.53812Q550.16876 258.94437 550.16876 259.60062L549.075 259.60062Q549.075 258.585 549.8094 257.91312Q550.5594 257.24124 551.7 257.24124Q552.90314 257.24124 553.59064 257.88187Q554.27814 258.5225 554.27814 259.66312Q554.27814 260.22562 553.91876 260.74124Q553.5594 261.25687 552.9344 261.5225Q553.6375 261.74124 554.0125 262.25687Q554.40314 262.7725 554.40314 263.5225Q554.40314 264.66312 553.65314 265.35062Q552.90314 266.0225 551.7 266.0225Q550.5125 266.0225 549.7469 265.36624Q548.9969 264.71 548.9969 263.6475L550.09064 263.6475Q550.09064 264.31937 550.52814 264.72562Q550.96564 265.13187 551.71564 265.13187Q552.4969 265.13187 552.90314 264.72562Q553.325 264.30374 553.325 263.53812Q553.325 262.80374 552.8719 262.41312Q552.41876 262.00687 551.54376 261.99124L550.73126 261.99124L550.73126 261.10062ZM560.3094 262.1475Q559.98126 262.55374 559.4969 262.80374Q559.02814 263.03812 558.46564 263.03812Q557.73126 263.03812 557.1844 262.67874Q556.6375 262.31937 556.34064 261.66312Q556.04376 260.99124 556.04376 260.19437Q556.04376 259.35062 556.35626 258.66312Q556.6844 257.97562 557.27814 257.61624Q557.8875 257.24124 558.6844 257.24124Q559.95 257.24124 560.66876 258.19437Q561.40314 259.1475 561.40314 260.7725L561.40314 261.085Q561.40314 263.585 560.41876 264.72562Q559.4344 265.86624 557.45 265.8975L557.23126 265.8975L557.23126 264.99124L557.46564 264.99124Q558.8094 264.96 559.52814 264.28812Q560.2469 263.61624 560.3094 262.1475ZM558.6375 262.1475Q559.1844 262.1475 559.6375 261.81937Q560.10626 261.47562 560.325 260.99124L560.325 260.55374Q560.325 259.49124 559.85626 258.81937Q559.3875 258.1475 558.6844 258.1475Q557.96564 258.1475 557.52814 258.69437Q557.10626 259.24124 557.10626 260.1475Q557.10626 261.0225 557.5125 261.585Q557.9344 262.1475 558.6375 262.1475ZM563.29376 265.335Q563.29376 265.05374 563.45 264.86624Q563.6219 264.67874 563.95 264.67874Q564.29376 264.67874 564.46564 264.86624Q564.6375 265.05374 564.6375 265.335Q564.6375 265.60062 564.46564 265.78812Q564.29376 265.96 563.95 265.96Q563.6219 265.96 563.45 265.78812Q563.29376 265.60062 563.29376 265.335ZM569.71564 265.8975L568.6375 265.8975L568.6375 258.67874L566.45 259.47562L566.45 258.49124L569.5594 257.31937L569.71564 257.31937L569.71564 265.8975ZM573.0594 259.00687Q573.0594 258.24124 573.54376 257.74124Q574.04376 257.24124 574.8094 257.24124Q575.59064 257.24124 576.075 257.74124Q576.5594 258.24124 576.5594 259.03812L576.5594 259.46Q576.5594 260.22562 576.0594 260.72562Q575.575 261.21 574.825 261.21Q574.0594 261.21 573.5594 260.72562Q573.0594 260.22562 573.0594 259.41312L573.0594 259.00687ZM573.8719 259.46Q573.8719 259.91312 574.1219 260.21Q574.3875 260.50687 574.825 260.50687Q575.2469 260.50687 575.4969 260.22562Q575.7469 259.92874 575.7469 259.42874L575.7469 259.00687Q575.7469 258.55374 575.4969 258.25687Q575.2469 257.94437 574.8094 257.94437Q574.3719 257.94437 574.1219 258.25687Q573.8719 258.55374 573.8719 259.0225L573.8719 259.46ZM577.21564 263.80374Q577.21564 263.03812 577.7 262.55374Q578.2 262.05374 578.96564 262.05374Q579.73126 262.05374 580.21564 262.55374Q580.71564 263.03812 580.71564 263.85062L580.71564 264.25687Q580.71564 265.0225 580.23126 265.5225Q579.7469 266.0225 578.98126 266.0225Q578.21564 266.0225 577.71564 265.53812Q577.21564 265.03812 577.21564 264.22562L577.21564 263.80374ZM578.02814 264.25687Q578.02814 264.72562 578.27814 265.0225Q578.54376 265.31937 578.98126 265.31937Q579.40314 265.31937 579.65314 265.03812Q579.90314 264.74124 579.90314 264.24124L579.90314 263.80374Q579.90314 263.335 579.6375 263.05374Q579.3875 262.75687 578.96564 262.75687Q578.54376 262.75687 578.27814 263.05374Q578.02814 263.335 578.02814 263.835L578.02814 264.25687ZM575.075 265.25687L574.45 264.86624L578.6219 258.19437L579.23126 258.585L575.075 265.25687Z" fill-rule="nonzero"/><path stroke="#757575" stroke-width="1.0" stroke-linecap="butt" d="M581.45 252.39749L472.95 252.39749L443.80362 252.39749" fill-rule="nonzero"/><path fill="#9e9e9e" d="M445.80362 252.39749C445.80362 251.29292 444.90817 250.39749 443.80362 250.39749C442.69904 250.39749 441.80362 251.29292 441.80362 252.39749C441.80362 253.50206 442.69904 254.39749 443.80362 254.39749C444.90817 254.39749 445.80362 253.50206 445.80362 252.39749" fill-rule="nonzero"/></svg>