<svg version="1.1" viewBox="0.0 0.0 600.0 371.0" fill="none" stroke="none" stroke-linecap="square" stroke-miterlimit="10" width="600" height="371" xmlns:xlink="http://www.w3.org/1999/xlink" xmlns="http://www.w3.org/2000/svg"><path fill="#ffffff" d="M0 0L600.0 0L600.0 371.0L0 371.0L0 0Z" fill-rule="nonzero"/><path fill="#4285f4" d="M300.0 18.55C360.89133 18.55 416.95328 51.701702 446.29248 105.05866L300.0 185.5Z" fill-rule="nonzero"/><path fill="#db4437" d="M446.29248 105.05866C486.7847 178.69873 466.2276 270.95856 398.30154 320.44113L300.0 185.5Z" fill-rule="nonzero"/><path fill="#0f9d58" d="M133.0526 184.56847C133.56505 92.72954 208.15964 18.55 300.0 18.55L300.0 185.5Z" fill-rule="nonzero"/><path fill="#f4b400" d="M398.30154 320.44113C347.39218 357.52744 279.9441 362.80542 223.88554 334.0897C167.82701 305.37393 132.70116 247.55284 133.0526 184.56847L300.0 185.5Z" fill-rule="nonzero"/><path fill="#757575" d="M26.096874 64.554276Q26.096874 65.804276 25.675 66.741776Q25.253124 67.66365 24.471874 68.16365Q23.70625 68.66365 22.675 68.66365Q21.675 68.66365 20.89375 68.16365Q20.1125 67.66365 19.675 66.7574Q19.253124 65.835526 19.2375 64.616776L19.2375 64.0074Q19.2375 62.773026 19.659374 61.835526Q20.096874 60.898026 20.878124 60.398026Q21.659374 59.8824 22.675 59.8824Q23.690624 59.8824 24.471874 60.3824Q25.253124 60.8824 25.675 61.8199Q26.096874 62.7574 26.096874 64.0074L26.096874 64.554276ZM24.9875 63.991776Q24.9875 62.47615 24.378124 61.66365Q23.76875 60.85115 22.675 60.85115Q21.596874 60.85115 20.9875 61.66365Q20.378124 62.47615 20.3625 63.91365L20.3625 64.554276Q20.3625 66.023026 20.971874 66.866776Q21.596874 67.6949 22.675 67.6949Q23.76875 67.6949 24.3625 66.91365Q24.971874 66.116776 24.9875 64.6324L24.9875 63.991776ZM28.846874 60.66365L28.846874 62.1949L30.01875 62.1949L30.01875 63.03865L28.846874 63.03865L28.846874 66.960526Q28.846874 67.35115 29.003124 67.53865Q29.159374 67.72615 29.534374 67.72615Q29.721874 67.72615 30.05 67.66365L30.05 68.53865Q29.628124 68.66365 29.221874 68.66365Q28.503124 68.66365 28.128124 68.22615Q27.753124 67.773026 27.753124 66.960526L27.753124 63.03865L26.596874 63.03865L26.596874 62.1949L27.753124 62.1949L27.753124 60.66365L28.846874 60.66365ZM32.45625 62.960526Q33.175 62.085526 34.33125 62.085526Q36.346874 62.085526 36.3625 64.35115L36.3625 68.53865L35.26875 68.53865L35.26875 64.335526Q35.26875 63.66365 34.95625 63.335526Q34.659374 63.0074 34.003124 63.0074Q33.471874 63.0074 33.065624 63.28865Q32.675 63.5699 32.45625 64.023026L32.45625 68.53865L31.378124 68.53865L31.378124 59.53865L32.45625 59.53865L32.45625 62.960526ZM41.003124 68.66365Q39.70625 68.66365 38.89375 67.8199Q38.096874 66.960526 38.096874 65.53865L38.096874 65.35115Q38.096874 64.398026 38.45625 63.66365Q38.815624 62.91365 39.45625 62.5074Q40.1125 62.085526 40.8625 62.085526Q42.096874 62.085526 42.784374 62.898026Q43.471874 63.710526 43.471874 65.22615L43.471874 65.679276L39.175 65.679276Q39.20625 66.616776 39.721874 67.1949Q40.253124 67.773026 41.065624 67.773026Q41.628124 67.773026 42.01875 67.53865Q42.425 67.304276 42.7375 66.91365L43.39375 67.429276Q42.596874 68.66365 41.003124 68.66365ZM40.8625 62.97615Q40.20625 62.97615 39.753124 63.460526Q39.315624 63.929276 39.221874 64.78865L42.39375 64.78865L42.39375 64.710526Q42.346874 63.8824 41.940624 63.429276Q41.55 62.97615 40.8625 62.97615ZM47.440624 63.16365Q47.190624 63.1324 46.909374 63.1324Q45.83125 63.1324 45.45625 64.03865L45.45625 68.53865L44.378124 68.53865L44.378124 62.1949L45.425 62.1949L45.440624 62.929276Q45.971874 62.085526 46.95625 62.085526Q47.26875 62.085526 47.440624 62.16365L47.440624 63.16365Z" fill-rule="nonzero"/><path fill="#9e9e9e" d="M24.846874 86.53865L19.253124 86.53865L19.253124 85.7574L22.20625 82.47615Q22.8625 81.72615 23.1125 81.273026Q23.3625 80.804276 23.3625 80.304276Q23.3625 79.6324 22.95625 79.210526Q22.565624 78.773026 21.878124 78.773026Q21.08125 78.773026 20.628124 79.241776Q20.175 79.6949 20.175 80.523026L19.096874 80.523026Q19.096874 79.335526 19.846874 78.616776Q20.6125 77.8824 21.878124 77.8824Q23.08125 77.8824 23.76875 78.5074Q24.45625 79.1324 24.45625 80.179276Q24.45625 81.429276 22.846874 83.179276L20.565624 85.648026L24.846874 85.648026L24.846874 86.53865ZM30.83125 83.679276L32.01875 83.679276L32.01875 84.554276L30.83125 84.554276L30.83125 86.53865L29.753124 86.53865L29.753124 84.554276L25.8625 84.554276L25.8625 83.91365L29.675 78.0074L30.83125 78.0074L30.83125 83.679276ZM27.096874 83.679276L29.753124 83.679276L29.753124 79.491776L29.6125 79.72615L27.096874 83.679276ZM33.39375 85.97615Q33.39375 85.6949 33.55 85.5074Q33.721874 85.3199 34.05 85.3199Q34.39375 85.3199 34.565624 85.5074Q34.7375 85.6949 34.7375 85.97615Q34.7375 86.241776 34.565624 86.429276Q34.39375 86.60115 34.05 86.60115Q33.721874 86.60115 33.55 86.429276Q33.39375 86.241776 33.39375 85.97615ZM40.409374 82.78865Q40.08125 83.1949 39.596874 83.4449Q39.128124 83.679276 38.565624 83.679276Q37.83125 83.679276 37.284374 83.3199Q36.7375 82.960526 36.440624 82.304276Q36.14375 81.6324 36.14375 80.835526Q36.14375 79.991776 36.45625 79.304276Q36.784374 78.616776 37.378124 78.2574Q37.9875 77.8824 38.784374 77.8824Q40.05 77.8824 40.76875 78.835526Q41.503124 79.78865 41.503124 81.41365L41.503124 81.72615Q41.503124 84.22615 40.51875 85.366776Q39.534374 86.5074 37.55 86.53865L37.33125 86.53865L37.33125 85.6324L37.565624 85.6324Q38.909374 85.60115 39.628124 84.929276Q40.346874 84.2574 40.409374 82.78865ZM38.7375 82.78865Q39.284374 82.78865 39.7375 82.460526Q40.20625 82.116776 40.425 81.6324L40.425 81.1949Q40.425 80.1324 39.95625 79.460526Q39.4875 78.78865 38.784374 78.78865Q38.065624 78.78865 37.628124 79.335526Q37.20625 79.8824 37.20625 80.78865Q37.20625 81.66365 37.6125 82.22615Q38.034374 82.78865 38.7375 82.78865ZM43.159374 79.648026Q43.159374 78.8824 43.64375 78.3824Q44.14375 77.8824 44.909374 77.8824Q45.690624 77.8824 46.175 78.3824Q46.659374 78.8824 46.659374 79.679276L46.659374 80.10115Q46.659374 80.866776 46.159374 81.366776Q45.675 81.85115 44.925 81.85115Q44.159374 81.85115 43.659374 81.366776Q43.159374 80.866776 43.159374 80.054276L43.159374 79.648026ZM43.971874 80.10115Q43.971874 80.554276 44.221874 80.85115Q44.4875 81.148026 44.925 81.148026Q45.346874 81.148026 45.596874 80.866776Q45.846874 80.5699 45.846874 80.0699L45.846874 79.648026Q45.846874 79.1949 45.596874 78.898026Q45.346874 78.585526 44.909374 78.585526Q44.471874 78.585526 44.221874 78.898026Q43.971874 79.1949 43.971874 79.66365L43.971874 80.10115ZM47.315624 84.4449Q47.315624 83.679276 47.8 83.1949Q48.3 82.6949 49.065624 82.6949Q49.83125 82.6949 50.315624 83.1949Q50.815624 83.679276 50.815624 84.491776L50.815624 84.898026Q50.815624 85.66365 50.33125 86.16365Q49.846874 86.66365 49.08125 86.66365Q48.315624 86.66365 47.815624 86.179276Q47.315624 85.679276 47.315624 84.866776L47.315624 84.4449ZM48.128124 84.898026Q48.128124 85.366776 48.378124 85.66365Q48.64375 85.960526 49.08125 85.960526Q49.503124 85.960526 49.753124 85.679276Q50.003124 85.3824 50.003124 84.8824L50.003124 84.4449Q50.003124 83.97615 49.7375 83.6949Q49.4875 83.398026 49.065624 83.398026Q48.64375 83.398026 48.378124 83.6949Q48.128124 83.97615 48.128124 84.47615L48.128124 84.898026ZM45.175 85.898026L44.55 85.5074L48.721874 78.835526L49.33125 79.22615L45.175 85.898026Z" fill-rule="nonzero"/><path stroke="#757575" stroke-width="1.0" stroke-linecap="butt" d="M18.55 73.03865L127.05 73.03865L188.16441 73.03865" fill-rule="nonzero"/><path fill="#9e9e9e" d="M190.16441 73.03865C190.16441 71.93408 189.26898 71.03865 188.16441 71.03865C187.05984 71.03865 186.16441 71.93408 186.16441 73.03865C186.16441 74.14322 187.05984 75.03865 188.16441 75.03865C189.26898 75.03865 190.16441 74.14322 190.16441 73.03865" fill-rule="nonzero"/><path fill="#757575" d="M19.534374 322.1602L19.534374 313.62894L21.95625 313.62894Q23.065624 313.62894 23.909374 314.12894Q24.76875 314.6133 25.2375 315.51956Q25.70625 316.4258 25.70625 317.6133L25.70625 318.14456Q25.70625 319.3633 25.2375 320.26956Q24.784374 321.1758 23.909374 321.6602Q23.05 322.14456 21.909374 322.1602L19.534374 322.1602ZM20.659374 314.5508L20.659374 321.2383L21.846874 321.2383Q23.14375 321.2383 23.8625 320.44144Q24.596874 319.62894 24.596874 318.12894L24.596874 317.62894Q24.596874 316.1758 23.909374 315.37894Q23.2375 314.56644 21.971874 314.5508L20.659374 314.5508ZM28.55 322.1602L27.471874 322.1602L27.471874 315.81644L28.55 315.81644L28.55 322.1602ZM27.378124 314.14456Q27.378124 313.87894 27.534374 313.69144Q27.70625 313.50394 28.01875 313.50394Q28.33125 313.50394 28.4875 313.69144Q28.659374 313.87894 28.659374 314.14456Q28.659374 314.39456 28.4875 314.58206Q28.33125 314.75394 28.01875 314.75394Q27.70625 314.75394 27.534374 314.58206Q27.378124 314.39456 27.378124 314.14456ZM30.1125 318.94144Q30.1125 317.45706 30.8 316.58206Q31.4875 315.70706 32.6125 315.70706Q33.76875 315.70706 34.425 316.51956L34.471874 315.81644L35.471874 315.81644L35.471874 322.00394Q35.471874 323.2383 34.7375 323.94144Q34.003124 324.6602 32.784374 324.6602Q32.096874 324.6602 31.440624 324.3633Q30.784374 324.06644 30.440624 323.56644L31.003124 322.9102Q31.690624 323.76956 32.70625 323.76956Q33.4875 323.76956 33.925 323.31644Q34.378124 322.87894 34.378124 322.06644L34.378124 321.51956Q33.721874 322.2852 32.596874 322.2852Q31.4875 322.2852 30.8 321.39456Q30.1125 320.4883 30.1125 318.94144ZM31.20625 319.06644Q31.20625 320.12894 31.64375 320.75394Q32.08125 321.3633 32.878124 321.3633Q33.89375 321.3633 34.378124 320.4258L34.378124 317.5352Q33.878124 316.62894 32.878124 316.62894Q32.096874 316.62894 31.64375 317.2383Q31.20625 317.8477 31.20625 319.06644ZM38.55 322.1602L37.471874 322.1602L37.471874 315.81644L38.55 315.81644L38.55 322.1602ZM37.378124 314.14456Q37.378124 313.87894 37.534374 313.69144Q37.70625 313.50394 38.01875 313.50394Q38.33125 313.50394 38.4875 313.69144Q38.659374 313.87894 38.659374 314.14456Q38.659374 314.39456 38.4875 314.58206Q38.33125 314.75394 38.01875 314.75394Q37.70625 314.75394 37.534374 314.58206Q37.378124 314.39456 37.378124 314.14456ZM41.846874 314.2852L41.846874 315.81644L43.01875 315.81644L43.01875 316.6602L41.846874 316.6602L41.846874 320.58206Q41.846874 320.9727 42.003124 321.1602Q42.159374 321.3477 42.534374 321.3477Q42.721874 321.3477 43.05 321.2852L43.05 322.1602Q42.628124 322.2852 42.221874 322.2852Q41.503124 322.2852 41.128124 321.8477Q40.753124 321.39456 40.753124 320.58206L40.753124 316.6602L39.596874 316.6602L39.596874 315.81644L40.753124 315.81644L40.753124 314.2852L41.846874 314.2852ZM48.284374 322.1602Q48.190624 321.9727 48.128124 321.4883Q47.378124 322.2852 46.33125 322.2852Q45.39375 322.2852 44.784374 321.75394Q44.190624 321.2227 44.190624 320.39456Q44.190624 319.4102 44.940624 318.8633Q45.690624 318.31644 47.065624 318.31644L48.1125 318.31644L48.1125 317.81644Q48.1125 317.25394 47.76875 316.9258Q47.440624 316.58206 46.76875 316.58206Q46.190624 316.58206 45.8 316.87894Q45.409374 317.1602 45.409374 317.58206L44.315624 317.58206Q44.315624 317.0977 44.64375 316.6602Q44.9875 316.2227 45.565624 315.9727Q46.14375 315.70706 46.83125 315.70706Q47.940624 315.70706 48.55 316.25394Q49.175 316.8008 49.20625 317.75394L49.20625 320.6758Q49.20625 321.5508 49.425 322.06644L49.425 322.1602L48.284374 322.1602ZM46.4875 321.33206Q47.003124 321.33206 47.45625 321.06644Q47.909374 320.8008 48.1125 320.37894L48.1125 319.08206L47.26875 319.08206Q45.26875 319.08206 45.26875 320.25394Q45.26875 320.75394 45.6125 321.0508Q45.95625 321.33206 46.4875 321.33206ZM52.55 322.1602L51.471874 322.1602L51.471874 313.1602L52.55 313.1602L52.55 322.1602Z" fill-rule="nonzero"/><path fill="#9e9e9e" d="M20.83125 335.3633L21.64375 335.3633Q22.425 335.3477 22.8625 334.95706Q23.3 334.56644 23.3 333.89456Q23.3 332.39456 21.8 332.39456Q21.096874 332.39456 20.675 332.8008Q20.26875 333.20706 20.26875 333.8633L19.175 333.8633Q19.175 332.8477 19.909374 332.1758Q20.659374 331.50394 21.8 331.50394Q23.003124 331.50394 23.690624 332.14456Q24.378124 332.7852 24.378124 333.9258Q24.378124 334.4883 24.01875 335.00394Q23.659374 335.51956 23.034374 335.7852Q23.7375 336.00394 24.1125 336.51956Q24.503124 337.0352 24.503124 337.7852Q24.503124 338.9258 23.753124 339.6133Q23.003124 340.2852 21.8 340.2852Q20.6125 340.2852 19.846874 339.62894Q19.096874 338.9727 19.096874 337.9102L20.190624 337.9102Q20.190624 338.58206 20.628124 338.9883Q21.065624 339.39456 21.815624 339.39456Q22.596874 339.39456 23.003124 338.9883Q23.425 338.56644 23.425 337.8008Q23.425 337.06644 22.971874 336.6758Q22.51875 336.26956 21.64375 336.25394L20.83125 336.25394L20.83125 335.3633ZM26.753124 335.87894L27.190624 331.62894L31.565624 331.62894L31.565624 332.62894L28.1125 332.62894L27.846874 334.95706Q28.4875 334.58206 29.284374 334.58206Q30.440624 334.58206 31.128124 335.3633Q31.815624 336.12894 31.815624 337.44144Q31.815624 338.75394 31.096874 339.51956Q30.39375 340.2852 29.1125 340.2852Q27.9875 340.2852 27.26875 339.6602Q26.55 339.01956 26.45625 337.9102L27.471874 337.9102Q27.58125 338.64456 28.003124 339.01956Q28.425 339.39456 29.1125 339.39456Q29.8625 339.39456 30.3 338.87894Q30.7375 338.3633 30.7375 337.45706Q30.7375 336.5977 30.26875 336.08206Q29.8 335.56644 29.01875 335.56644Q28.315624 335.56644 27.909374 335.8633L27.628124 336.0977L26.753124 335.87894ZM33.39375 339.5977Q33.39375 339.31644 33.55 339.12894Q33.721874 338.94144 34.05 338.94144Q34.39375 338.94144 34.565624 339.12894Q34.7375 339.31644 34.7375 339.5977Q34.7375 339.8633 34.565624 340.0508Q34.39375 340.2227 34.05 340.2227Q33.721874 340.2227 33.55 340.0508Q33.39375 339.8633 33.39375 339.5977ZM39.815624 340.1602L38.7375 340.1602L38.7375 332.94144L36.55 333.7383L36.55 332.75394L39.659374 331.58206L39.815624 331.58206L39.815624 340.1602ZM43.159374 333.26956Q43.159374 332.50394 43.64375 332.00394Q44.14375 331.50394 44.909374 331.50394Q45.690624 331.50394 46.175 332.00394Q46.659374 332.50394 46.659374 333.3008L46.659374 333.7227Q46.659374 334.4883 46.159374 334.9883Q45.675 335.4727 44.925 335.4727Q44.159374 335.4727 43.659374 334.9883Q43.159374 334.4883 43.159374 333.6758L43.159374 333.26956ZM43.971874 333.7227Q43.971874 334.1758 44.221874 334.4727Q44.4875 334.76956 44.925 334.76956Q45.346874 334.76956 45.596874 334.4883Q45.846874 334.19144 45.846874 333.69144L45.846874 333.26956Q45.846874 332.81644 45.596874 332.51956Q45.346874 332.20706 44.909374 332.20706Q44.471874 332.20706 44.221874 332.51956Q43.971874 332.81644 43.971874 333.2852L43.971874 333.7227ZM47.315624 338.06644Q47.315624 337.3008 47.8 336.81644Q48.3 336.31644 49.065624 336.31644Q49.83125 336.31644 50.315624 336.81644Q50.815624 337.3008 50.815624 338.1133L50.815624 338.51956Q50.815624 339.2852 50.33125 339.7852Q49.846874 340.2852 49.08125 340.2852Q48.315624 340.2852 47.815624 339.8008Q47.315624 339.3008 47.315624 338.4883L47.315624 338.06644ZM48.128124 338.51956Q48.128124 338.9883 48.378124 339.2852Q48.64375 339.58206 49.08125 339.58206Q49.503124 339.58206 49.753124 339.3008Q50.003124 339.00394 50.003124 338.50394L50.003124 338.06644Q50.003124 337.5977 49.7375 337.31644Q49.4875 337.01956 49.065624 337.01956Q48.64375 337.01956 48.378124 337.31644Q48.128124 337.5977 48.128124 338.0977L48.128124 338.51956ZM45.175 339.51956L44.55 339.12894L48.721874 332.45706L49.33125 332.8477L45.175 339.51956Z" fill-rule="nonzero"/><path stroke="#757575" stroke-width="1.0" stroke-linecap="butt" d="M18.55 326.6602L127.05 326.6602L227.69127 326.6602" fill-rule="nonzero"/><path fill="#9e9e9e" d="M229.69127 326.6602C229.69127 325.55563 228.79584 324.6602 227.69127 324.6602C226.5867 324.6602 225.69127 325.55563 225.69127 326.6602C225.69127 327.76477 226.5867 328.6602 227.69127 328.6602C228.79584 328.6602 229.69127 327.76477 229.69127 326.6602" fill-rule="nonzero"/><path fill="#757575" d="M553.71564 41.777573Q553.5594 43.121323 552.71564 43.871323Q551.8719 44.605698 550.48126 44.605698Q548.96564 44.605698 548.0594 43.527573Q547.15314 42.433823 547.15314 40.605698L547.15314 39.793198Q547.15314 38.605698 547.575 37.699448Q547.9969 36.793198 548.77814 36.308823Q549.5594 35.824448 550.575 35.824448Q551.9344 35.824448 552.7469 36.590073Q553.575 37.355698 553.71564 38.683823L552.59064 38.683823Q552.4344 37.668198 551.95 37.215073Q551.46564 36.761948 550.575 36.761948Q549.4969 36.761948 548.8875 37.558823Q548.27814 38.355698 548.27814 39.824448L548.27814 40.652573Q548.27814 42.043198 548.85626 42.871323Q549.4344 43.683823 550.48126 43.683823Q551.41876 43.683823 551.91876 43.261948Q552.41876 42.824448 552.59064 41.777573L553.71564 41.777573ZM554.98126 41.246323Q554.98126 40.324448 555.34064 39.574448Q555.71564 38.824448 556.3719 38.433823Q557.02814 38.027573 557.85626 38.027573Q559.15314 38.027573 559.95 38.918198Q560.7625 39.808823 560.7625 41.308823L560.7625 41.386948Q560.7625 42.308823 560.40314 43.043198Q560.04376 43.777573 559.3875 44.199448Q558.73126 44.605698 557.8719 44.605698Q556.59064 44.605698 555.77814 43.715073Q554.98126 42.808823 554.98126 41.324448L554.98126 41.246323ZM556.075 41.386948Q556.075 42.433823 556.5594 43.074448Q557.0594 43.715073 557.8719 43.715073Q558.7 43.715073 559.1844 43.074448Q559.66876 42.418198 559.66876 41.246323Q559.66876 40.215073 559.16876 39.574448Q558.6844 38.918198 557.85626 38.918198Q557.0594 38.918198 556.5594 39.558823Q556.075 40.183823 556.075 41.386948ZM562.8094 44.480698L562.8094 38.980698L561.8094 38.980698L561.8094 38.136948L562.8094 38.136948L562.8094 37.496323Q562.8094 36.465073 563.34064 35.918198Q563.8875 35.355698 564.8875 35.355698Q565.2625 35.355698 565.6375 35.449448L565.575 36.340073Q565.29376 36.277573 564.9969 36.277573Q564.46564 36.277573 564.16876 36.590073Q563.8875 36.902573 563.8875 37.465073L563.8875 38.136948L565.2469 38.136948L565.2469 38.980698L563.8875 38.980698L563.8875 44.480698L562.8094 44.480698ZM566.8094 44.480698L566.8094 38.980698L565.8094 38.980698L565.8094 38.136948L566.8094 38.136948L566.8094 37.496323Q566.8094 36.465073 567.34064 35.918198Q567.8875 35.355698 568.8875 35.355698Q569.2625 35.355698 569.6375 35.449448L569.575 36.340073Q569.29376 36.277573 568.9969 36.277573Q568.46564 36.277573 568.16876 36.590073Q567.8875 36.902573 567.8875 37.465073L567.8875 38.136948L569.2469 38.136948L569.2469 38.980698L567.8875 38.980698L567.8875 44.480698L566.8094 44.480698ZM572.90314 44.605698Q571.60626 44.605698 570.79376 43.761948Q569.9969 42.902573 569.9969 41.480698L569.9969 41.293198Q569.9969 40.340073 570.35626 39.605698Q570.71564 38.855698 571.35626 38.449448Q572.0125 38.027573 572.7625 38.027573Q573.9969 38.027573 574.6844 38.840073Q575.3719 39.652573 575.3719 41.168198L575.3719 41.621323L571.075 41.621323Q571.10626 42.558823 571.6219 43.136948Q572.15314 43.715073 572.96564 43.715073Q573.52814 43.715073 573.91876 43.480698Q574.325 43.246323 574.6375 42.855698L575.29376 43.371323Q574.4969 44.605698 572.90314 44.605698ZM572.7625 38.918198Q572.10626 38.918198 571.65314 39.402573Q571.21564 39.871323 571.1219 40.730698L574.29376 40.730698L574.29376 40.652573Q574.2469 39.824448 573.84064 39.371323Q573.45 38.918198 572.7625 38.918198ZM578.90314 44.605698Q577.60626 44.605698 576.79376 43.761948Q575.9969 42.902573 575.9969 41.480698L575.9969 41.293198Q575.9969 40.340073 576.35626 39.605698Q576.71564 38.855698 577.35626 38.449448Q578.0125 38.027573 578.7625 38.027573Q579.9969 38.027573 580.6844 38.840073Q581.3719 39.652573 581.3719 41.168198L581.3719 41.621323L577.075 41.621323Q577.10626 42.558823 577.6219 43.136948Q578.15314 43.715073 578.96564 43.715073Q579.52814 43.715073 579.91876 43.480698Q580.325 43.246323 580.6375 42.855698L581.29376 43.371323Q580.4969 44.605698 578.90314 44.605698ZM578.7625 38.918198Q578.10626 38.918198 577.65314 39.402573Q577.21564 39.871323 577.1219 40.730698L580.29376 40.730698L580.29376 40.652573Q580.2469 39.824448 579.84064 39.371323Q579.45 38.918198 578.7625 38.918198Z" fill-rule="nonzero"/><path fill="#9e9e9e" d="M552.71564 62.480698L551.6375 62.480698L551.6375 55.261948L549.45 56.058823L549.45 55.074448L552.5594 53.902573L552.71564 53.902573L552.71564 62.480698ZM561.66876 54.558823L558.1375 62.480698L556.9969 62.480698L560.5125 54.840073L555.90314 54.840073L555.90314 53.949448L561.66876 53.949448L561.66876 54.558823ZM563.29376 61.918198Q563.29376 61.636948 563.45 61.449448Q563.6219 61.261948 563.95 61.261948Q564.29376 61.261948 564.46564 61.449448Q564.6375 61.636948 564.6375 61.918198Q564.6375 62.183823 564.46564 62.371323Q564.29376 62.543198 563.95 62.543198Q563.6219 62.543198 563.45 62.371323Q563.29376 62.183823 563.29376 61.918198ZM571.5125 58.840073Q571.5125 60.746323 570.85626 61.683823Q570.21564 62.605698 568.825 62.605698Q567.46564 62.605698 566.8094 61.699448Q566.15314 60.793198 566.1219 58.980698L566.1219 57.543198Q566.1219 55.652573 566.7625 54.746323Q567.41876 53.824448 568.8094 53.824448Q570.1844 53.824448 570.84064 54.715073Q571.4969 55.590073 571.5125 57.433823L571.5125 58.840073ZM570.41876 57.355698Q570.41876 55.980698 570.02814 55.355698Q569.65314 54.715073 568.8094 54.715073Q567.98126 54.715073 567.59064 55.355698Q567.21564 55.980698 567.21564 57.277573L567.21564 59.011948Q567.21564 60.386948 567.60626 61.058823Q568.0125 61.715073 568.825 61.715073Q569.6219 61.715073 570.0125 61.090073Q570.40314 60.465073 570.41876 59.136948L570.41876 57.355698ZM573.0594 55.590073Q573.0594 54.824448 573.54376 54.324448Q574.04376 53.824448 574.8094 53.824448Q575.59064 53.824448 576.075 54.324448Q576.5594 54.824448 576.5594 55.621323L576.5594 56.043198Q576.5594 56.808823 576.0594 57.308823Q575.575 57.793198 574.825 57.793198Q574.0594 57.793198 573.5594 57.308823Q573.0594 56.808823 573.0594 55.996323L573.0594 55.590073ZM573.8719 56.043198Q573.8719 56.496323 574.1219 56.793198Q574.3875 57.090073 574.825 57.090073Q575.2469 57.090073 575.4969 56.808823Q575.7469 56.511948 575.7469 56.011948L575.7469 55.590073Q575.7469 55.136948 575.4969 54.840073Q575.2469 54.527573 574.8094 54.527573Q574.3719 54.527573 574.1219 54.840073Q573.8719 55.136948 573.8719 55.605698L573.8719 56.043198ZM577.21564 60.386948Q577.21564 59.621323 577.7 59.136948Q578.2 58.636948 578.96564 58.636948Q579.73126 58.636948 580.21564 59.136948Q580.71564 59.621323 580.71564 60.433823L580.71564 60.840073Q580.71564 61.605698 580.23126 62.105698Q579.7469 62.605698 578.98126 62.605698Q578.21564 62.605698 577.71564 62.121323Q577.21564 61.621323 577.21564 60.808823L577.21564 60.386948ZM578.02814 60.840073Q578.02814 61.308823 578.27814 61.605698Q578.54376 61.902573 578.98126 61.902573Q579.40314 61.902573 579.65314 61.621323Q579.90314 61.324448 579.90314 60.824448L579.90314 60.386948Q579.90314 59.918198 579.6375 59.636948Q579.3875 59.340073 578.96564 59.340073Q578.54376 59.340073 578.27814 59.636948Q578.02814 59.918198 578.02814 60.418198L578.02814 60.840073ZM575.075 61.840073L574.45 61.449448L578.6219 54.777573L579.23126 55.168198L575.075 61.840073Z" fill-rule="nonzero"/><path stroke="#757575" stroke-width="1.0" stroke-linecap="butt" d="M581.45 48.980698L472.95 48.980698L380.72937 48.980698" fill-rule="nonzero"/><path fill="#9e9e9e" d="M382.72937 48.980698C382.72937 47.87613 381.83395 46.980698 380.72937 46.980698C379.62482 46.980698 378.72937 47.87613 378.72937 48.980698C378.72937 50.085266 379.62482 50.980698 380.72937 50.980698C381.83395 50.980698 382.72937 50.085266 382.72937 48.980698" fill-rule="nonzero"/><path fill="#757575" d="M533.65314 215.49352L532.52814 215.49352L532.52814 206.96227L533.65314 206.96227L533.65314 215.49352ZM536.29376 209.14977L536.325 209.94664Q537.0594 209.04039 538.23126 209.04039Q540.2469 209.04039 540.2625 211.30602L540.2625 215.49352L539.16876 215.49352L539.16876 211.29039Q539.16876 210.61852 538.85626 210.29039Q538.5594 209.96227 537.90314 209.96227Q537.3719 209.96227 536.96564 210.24352Q536.575 210.52477 536.35626 210.97789L536.35626 215.49352L535.27814 215.49352L535.27814 209.14977L536.29376 209.14977ZM544.52814 212.30602L541.66876 212.30602L541.66876 211.43102L544.52814 211.43102L544.52814 212.30602ZM550.6219 212.39977Q550.6219 213.83727 549.96564 214.72789Q549.3094 215.61852 548.16876 215.61852Q547.0125 215.61852 546.35626 214.88414L546.35626 217.93102L545.27814 217.93102L545.27814 209.14977L546.2625 209.14977L546.3094 209.85289Q546.98126 209.04039 548.15314 209.04039Q549.29376 209.04039 549.95 209.89977Q550.6219 210.75914 550.6219 212.29039L550.6219 212.39977ZM549.54376 212.27477Q549.54376 211.19664 549.075 210.58727Q548.6219 209.96227 547.825 209.96227Q546.84064 209.96227 546.35626 210.82164L546.35626 213.85289Q546.84064 214.72789 547.84064 214.72789Q548.6219 214.72789 549.075 214.11852Q549.54376 213.49352 549.54376 212.27477ZM554.90314 215.61852Q553.60626 215.61852 552.79376 214.77477Q551.9969 213.91539 551.9969 212.49352L551.9969 212.30602Q551.9969 211.35289 552.35626 210.61852Q552.71564 209.86852 553.35626 209.46227Q554.0125 209.04039 554.7625 209.04039Q555.9969 209.04039 556.6844 209.85289Q557.3719 210.66539 557.3719 212.18102L557.3719 212.63414L553.075 212.63414Q553.10626 213.57164 553.6219 214.14977Q554.15314 214.72789 554.96564 214.72789Q555.52814 214.72789 555.91876 214.49352Q556.325 214.25914 556.6375 213.86852L557.29376 214.38414Q556.4969 215.61852 554.90314 215.61852ZM554.7625 209.93102Q554.10626 209.93102 553.65314 210.41539Q553.21564 210.88414 553.1219 211.74352L556.29376 211.74352L556.29376 211.66539Q556.2469 210.83727 555.84064 210.38414Q555.45 209.93102 554.7625 209.93102ZM561.34064 210.11852Q561.09064 210.08727 560.8094 210.08727Q559.73126 210.08727 559.35626 210.99352L559.35626 215.49352L558.27814 215.49352L558.27814 209.14977L559.325 209.14977L559.34064 209.88414Q559.8719 209.04039 560.85626 209.04039Q561.16876 209.04039 561.34064 209.11852L561.34064 210.11852ZM565.96564 213.80602Q565.96564 213.36852 565.6219 213.13414Q565.29376 212.88414 564.46564 212.71227Q563.65314 212.54039 563.16876 212.29039Q562.6844 212.04039 562.45 211.71227Q562.23126 211.36852 562.23126 210.89977Q562.23126 210.11852 562.8875 209.58727Q563.54376 209.04039 564.575 209.04039Q565.65314 209.04039 566.3094 209.60289Q566.98126 210.14977 566.98126 211.00914L565.90314 211.00914Q565.90314 210.57164 565.5125 210.25914Q565.1375 209.93102 564.575 209.93102Q563.98126 209.93102 563.6375 210.19664Q563.3094 210.44664 563.3094 210.85289Q563.3094 211.24352 563.6219 211.44664Q563.9344 211.64977 564.7469 211.83727Q565.5594 212.00914 566.0594 212.25914Q566.5594 212.50914 566.79376 212.86852Q567.04376 213.22789 567.04376 213.72789Q567.04376 214.58727 566.35626 215.10289Q565.6844 215.61852 564.60626 215.61852Q563.84064 215.61852 563.2469 215.35289Q562.66876 215.07164 562.34064 214.58727Q562.0125 214.10289 562.0125 213.54039L563.09064 213.54039Q563.1219 214.08727 563.52814 214.41539Q563.9344 214.72789 564.60626 214.72789Q565.21564 214.72789 565.59064 214.47789Q565.96564 214.22789 565.96564 213.80602ZM567.98126 212.25914Q567.98126 211.33727 568.34064 210.58727Q568.71564 209.83727 569.3719 209.44664Q570.02814 209.04039 570.85626 209.04039Q572.15314 209.04039 572.95 209.93102Q573.7625 210.82164 573.7625 212.32164L573.7625 212.39977Q573.7625 213.32164 573.40314 214.05602Q573.04376 214.79039 572.3875 215.21227Q571.73126 215.61852 570.8719 215.61852Q569.59064 215.61852 568.77814 214.72789Q567.98126 213.82164 567.98126 212.33727L567.98126 212.25914ZM569.075 212.39977Q569.075 213.44664 569.5594 214.08727Q570.0594 214.72789 570.8719 214.72789Q571.7 214.72789 572.1844 214.08727Q572.66876 213.43102 572.66876 212.25914Q572.66876 211.22789 572.16876 210.58727Q571.6844 209.93102 570.85626 209.93102Q570.0594 209.93102 569.5594 210.57164Q569.075 211.19664 569.075 212.39977ZM576.29376 209.14977L576.325 209.94664Q577.0594 209.04039 578.23126 209.04039Q580.2469 209.04039 580.2625 211.30602L580.2625 215.49352L579.16876 215.49352L579.16876 211.29039Q579.16876 210.61852 578.85626 210.29039Q578.5594 209.96227 577.90314 209.96227Q577.3719 209.96227 576.96564 210.24352Q576.575 210.52477 576.35626 210.97789L576.35626 215.49352L575.27814 215.49352L575.27814 209.14977L576.29376 209.14977Z" fill-rule="nonzero"/><path fill="#9e9e9e" d="M554.7469 233.49352L549.15314 233.49352L549.15314 232.71227L552.10626 229.43102Q552.7625 228.68102 553.0125 228.22789Q553.2625 227.75914 553.2625 227.25914Q553.2625 226.58727 552.85626 226.16539Q552.46564 225.72789 551.77814 225.72789Q550.98126 225.72789 550.52814 226.19664Q550.075 226.64977 550.075 227.47789L548.9969 227.47789Q548.9969 226.29039 549.7469 225.57164Q550.5125 224.83727 551.77814 224.83727Q552.98126 224.83727 553.66876 225.46227Q554.35626 226.08727 554.35626 227.13414Q554.35626 228.38414 552.7469 230.13414L550.46564 232.60289L554.7469 232.60289L554.7469 233.49352ZM557.73126 228.69664L558.54376 228.69664Q559.325 228.68102 559.7625 228.29039Q560.2 227.89977 560.2 227.22789Q560.2 225.72789 558.7 225.72789Q557.9969 225.72789 557.575 226.13414Q557.16876 226.54039 557.16876 227.19664L556.075 227.19664Q556.075 226.18102 556.8094 225.50914Q557.5594 224.83727 558.7 224.83727Q559.90314 224.83727 560.59064 225.47789Q561.27814 226.11852 561.27814 227.25914Q561.27814 227.82164 560.91876 228.33727Q560.5594 228.85289 559.9344 229.11852Q560.6375 229.33727 561.0125 229.85289Q561.40314 230.36852 561.40314 231.11852Q561.40314 232.25914 560.65314 232.94664Q559.90314 233.61852 558.7 233.61852Q557.5125 233.61852 556.7469 232.96227Q555.9969 232.30602 555.9969 231.24352L557.09064 231.24352Q557.09064 231.91539 557.52814 232.32164Q557.96564 232.72789 558.71564 232.72789Q559.4969 232.72789 559.90314 232.32164Q560.325 231.89977 560.325 231.13414Q560.325 230.39977 559.8719 230.00914Q559.41876 229.60289 558.54376 229.58727L557.73126 229.58727L557.73126 228.69664ZM563.29376 232.93102Q563.29376 232.64977 563.45 232.46227Q563.6219 232.27477 563.95 232.27477Q564.29376 232.27477 564.46564 232.46227Q564.6375 232.64977 564.6375 232.93102Q564.6375 233.19664 564.46564 233.38414Q564.29376 233.55602 563.95 233.55602Q563.6219 233.55602 563.45 233.38414Q563.29376 233.19664 563.29376 232.93102ZM571.5125 229.85289Q571.5125 231.75914 570.85626 232.69664Q570.21564 233.61852 568.825 233.61852Q567.46564 233.61852 566.8094 232.71227Q566.15314 231.80602 566.1219 229.99352L566.1219 228.55602Q566.1219 226.66539 566.7625 225.75914Q567.41876 224.83727 568.8094 224.83727Q570.1844 224.83727 570.84064 225.72789Q571.4969 226.60289 571.5125 228.44664L571.5125 229.85289ZM570.41876 228.36852Q570.41876 226.99352 570.02814 226.36852Q569.65314 225.72789 568.8094 225.72789Q567.98126 225.72789 567.59064 226.36852Q567.21564 226.99352 567.21564 228.29039L567.21564 230.02477Q567.21564 231.39977 567.60626 232.07164Q568.0125 232.72789 568.825 232.72789Q569.6219 232.72789 570.0125 232.10289Q570.40314 231.47789 570.41876 230.14977L570.41876 228.36852ZM573.0594 226.60289Q573.0594 225.83727 573.54376 225.33727Q574.04376 224.83727 574.8094 224.83727Q575.59064 224.83727 576.075 225.33727Q576.5594 225.83727 576.5594 226.63414L576.5594 227.05602Q576.5594 227.82164 576.0594 228.32164Q575.575 228.80602 574.825 228.80602Q574.0594 228.80602 573.5594 228.32164Q573.0594 227.82164 573.0594 227.00914L573.0594 226.60289ZM573.8719 227.05602Q573.8719 227.50914 574.1219 227.80602Q574.3875 228.10289 574.825 228.10289Q575.2469 228.10289 575.4969 227.82164Q575.7469 227.52477 575.7469 227.02477L575.7469 226.60289Q575.7469 226.14977 575.4969 225.85289Q575.2469 225.54039 574.8094 225.54039Q574.3719 225.54039 574.1219 225.85289Q573.8719 226.14977 573.8719 226.61852L573.8719 227.05602ZM577.21564 231.39977Q577.21564 230.63414 577.7 230.14977Q578.2 229.64977 578.96564 229.64977Q579.73126 229.64977 580.21564 230.14977Q580.71564 230.63414 580.71564 231.44664L580.71564 231.85289Q580.71564 232.61852 580.23126 233.11852Q579.7469 233.61852 578.98126 233.61852Q578.21564 233.61852 577.71564 233.13414Q577.21564 232.63414 577.21564 231.82164L577.21564 231.39977ZM578.02814 231.85289Q578.02814 232.32164 578.27814 232.61852Q578.54376 232.91539 578.98126 232.91539Q579.40314 232.91539 579.65314 232.63414Q579.90314 232.33727 579.90314 231.83727L579.90314 231.39977Q579.90314 230.93102 579.6375 230.64977Q579.3875 230.35289 578.96564 230.35289Q578.54376 230.35289 578.27814 230.64977Q578.02814 230.93102 578.02814 231.43102L578.02814 231.85289ZM575.075 232.85289L574.45 232.46227L578.6219 225.79039L579.23126 226.18102L575.075 232.85289Z" fill-rule="nonzero"/><path stroke="#757575" stroke-width="1.0" stroke-linecap="butt" d="M581.45 219.99352L472.95 219.99352L454.80618 219.99352" fill-rule="nonzero"/><path fill="#9e9e9e" d="M456.80618 219.99352C456.80618 218.88895 455.91074 217.99352 454.80618 217.99352C453.7016 217.99352 452.80618 218.88895 452.80618 219.99352C452.80618 221.09808 453.7016 221.99352 454.80618 221.99352C455.91074 221.99352 456.80618 221.09808 456.80618 219.99352" fill-rule="nonzero"/></svg>