<svg version="1.1" viewBox="0.0 0.0 600.0 371.0" fill="none" stroke="none" stroke-linecap="square" stroke-miterlimit="10" width="600" height="371" xmlns:xlink="http://www.w3.org/1999/xlink" xmlns="http://www.w3.org/2000/svg"><path fill="#ffffff" d="M0 0L600.0 0L600.0 371.0L0 371.0L0 0Z" fill-rule="nonzero"/><path fill="#4285f4" d="M300.0 72.916664C350.9768 72.916664 397.91058 100.6705 422.4727 145.33972L300.0 212.68333Z" fill-rule="nonzero"/><path fill="#db4437" d="M422.4727 145.33972C456.37183 206.98947 439.1619 284.22726 382.29578 325.65292L300.0 212.68333Z" fill-rule="nonzero"/><path fill="#0f9d58" d="M160.2355 211.90347C160.66452 135.01805 223.11337 72.916664 300.0 72.916664L300.0 212.68333Z" fill-rule="nonzero"/><path fill="#f4b400" d="M382.29578 325.65292C339.67563 356.7007 283.20966 361.11932 236.27875 337.07916C189.34784 313.039 159.9413 264.63254 160.2355 211.90347L300.0 212.68333Z" fill-rule="nonzero"/><path fill="#757575" d="M26.096874 114.0333L24.971874 114.0333L20.675 107.45518L20.675 114.0333L19.534374 114.0333L19.534374 105.50205L20.675 105.50205L24.971874 112.11143L24.971874 105.50205L26.096874 105.50205L26.096874 114.0333ZM28.58125 114.76768L27.659374 114.76768L31.221874 105.50205L32.14375 105.50205L28.58125 114.76768ZM38.253124 111.79893L34.675 111.79893L33.878124 114.0333L32.721874 114.0333L35.971874 105.50205L36.95625 105.50205L40.221874 114.0333L39.065624 114.0333L38.253124 111.79893ZM35.01875 110.87705L37.925 110.87705L36.471874 106.89268L35.01875 110.87705Z" fill-rule="nonzero"/><path fill="#9e9e9e" d="M24.846874 132.03331L19.253124 132.03331L19.253124 131.25206L22.20625 127.97081Q22.8625 127.22081 23.1125 126.767685Q23.3625 126.298935 23.3625 125.798935Q23.3625 125.12706 22.95625 124.705185Q22.565624 124.267685 21.878124 124.267685Q21.08125 124.267685 20.628124 124.736435Q20.175 125.18956 20.175 126.017685L19.096874 126.017685Q19.096874 124.830185 19.846874 124.111435Q20.6125 123.37706 21.878124 123.37706Q23.08125 123.37706 23.76875 124.00206Q24.45625 124.62706 24.45625 125.673935Q24.45625 126.923935 22.846874 128.67393L20.565624 131.14268L24.846874 131.14268L24.846874 132.03331ZM30.83125 129.17393L32.01875 129.17393L32.01875 130.04893L30.83125 130.04893L30.83125 132.03331L29.753124 132.03331L29.753124 130.04893L25.8625 130.04893L25.8625 129.40831L29.675 123.50206L30.83125 123.50206L30.83125 129.17393ZM27.096874 129.17393L29.753124 129.17393L29.753124 124.986435L29.6125 125.22081L27.096874 129.17393ZM33.39375 131.47081Q33.39375 131.18956 33.55 131.00206Q33.721874 130.81456 34.05 130.81456Q34.39375 130.81456 34.565624 131.00206Q34.7375 131.18956 34.7375 131.47081Q34.7375 131.73643 34.565624 131.92393Q34.39375 132.09581 34.05 132.09581Q33.721874 132.09581 33.55 131.92393Q33.39375 131.73643 33.39375 131.47081ZM40.409374 128.28331Q40.08125 128.68956 39.596874 128.93956Q39.128124 129.17393 38.565624 129.17393Q37.83125 129.17393 37.284374 128.81456Q36.7375 128.45518 36.440624 127.798935Q36.14375 127.12706 36.14375 126.330185Q36.14375 125.486435 36.45625 124.798935Q36.784374 124.111435 37.378124 123.75206Q37.9875 123.37706 38.784374 123.37706Q40.05 123.37706 40.76875 124.330185Q41.503124 125.28331 41.503124 126.90831L41.503124 127.22081Q41.503124 129.72081 40.51875 130.86143Q39.534374 132.00206 37.55 132.03331L37.33125 132.03331L37.33125 131.12706L37.565624 131.12706Q38.909374 131.09581 39.628124 130.42393Q40.346874 129.75206 40.409374 128.28331ZM38.7375 128.28331Q39.284374 128.28331 39.7375 127.955185Q40.20625 127.611435 40.425 127.12706L40.425 126.68956Q40.425 125.62706 39.95625 124.955185Q39.4875 124.28331 38.784374 124.28331Q38.065624 124.28331 37.628124 124.830185Q37.20625 125.37706 37.20625 126.28331Q37.20625 127.15831 37.6125 127.72081Q38.034374 128.28331 38.7375 128.28331ZM43.159374 125.142685Q43.159374 124.37706 43.64375 123.87706Q44.14375 123.37706 44.909374 123.37706Q45.690624 123.37706 46.175 123.87706Q46.659374 124.37706 46.659374 125.173935L46.659374 125.59581Q46.659374 126.361435 46.159374 126.861435Q45.675 127.34581 44.925 127.34581Q44.159374 127.34581 43.659374 126.861435Q43.159374 126.361435 43.159374 125.548935L43.159374 125.142685ZM43.971874 125.59581Q43.971874 126.048935 44.221874 126.34581Q44.4875 126.642685 44.925 126.642685Q45.346874 126.642685 45.596874 126.361435Q45.846874 126.06456 45.846874 125.56456L45.846874 125.142685Q45.846874 124.68956 45.596874 124.392685Q45.346874 124.080185 44.909374 124.080185Q44.471874 124.080185 44.221874 124.392685Q43.971874 124.68956 43.971874 125.15831L43.971874 125.59581ZM47.315624 129.93956Q47.315624 129.17393 47.8 128.68956Q48.3 128.18956 49.065624 128.18956Q49.83125 128.18956 50.315624 128.68956Q50.815624 129.17393 50.815624 129.98643L50.815624 130.39268Q50.815624 131.15831 50.33125 131.65831Q49.846874 132.15831 49.08125 132.15831Q48.315624 132.15831 47.815624 131.67393Q47.315624 131.17393 47.315624 130.36143L47.315624 129.93956ZM48.128124 130.39268Q48.128124 130.86143 48.378124 131.15831Q48.64375 131.45518 49.08125 131.45518Q49.503124 131.45518 49.753124 131.17393Q50.003124 130.87706 50.003124 130.37706L50.003124 129.93956Q50.003124 129.47081 49.7375 129.18956Q49.4875 128.89268 49.065624 128.89268Q48.64375 128.89268 48.378124 129.18956Q48.128124 129.47081 48.128124 129.97081L48.128124 130.39268ZM45.175 131.39268L44.55 131.00206L48.721874 124.330185L49.33125 124.72081L45.175 131.39268Z" fill-rule="nonzero"/><path stroke="#757575" stroke-width="1.0" stroke-linecap="butt" d="M18.55 118.5333L154.23334 118.5333L206.37384 118.5333" fill-rule="nonzero"/><path fill="#9e9e9e" d="M208.37384 118.5333C208.37384 117.428734 207.47841 116.5333 206.37384 116.5333C205.26927 116.5333 204.37384 117.428734 204.37384 118.5333C204.37384 119.63787 205.26927 120.5333 206.37384 120.5333C207.47841 120.5333 208.37384 119.63787 208.37384 118.5333" fill-rule="nonzero"/><path fill="#757575" d="M19.534374 326.35938L19.534374 317.82812L21.95625 317.82812Q23.065624 317.82812 23.909374 318.32812Q24.76875 318.8125 25.2375 319.71875Q25.70625 320.625 25.70625 321.8125L25.70625 322.34375Q25.70625 323.5625 25.2375 324.46875Q24.784374 325.375 23.909374 325.85938Q23.05 326.34375 21.909374 326.35938L19.534374 326.35938ZM20.659374 318.75L20.659374 325.4375L21.846874 325.4375Q23.14375 325.4375 23.8625 324.64062Q24.596874 323.82812 24.596874 322.32812L24.596874 321.82812Q24.596874 320.375 23.909374 319.57812Q23.2375 318.76562 21.971874 318.75L20.659374 318.75ZM28.55 326.35938L27.471874 326.35938L27.471874 320.01562L28.55 320.01562L28.55 326.35938ZM27.378124 318.34375Q27.378124 318.07812 27.534374 317.89062Q27.70625 317.70312 28.01875 317.70312Q28.33125 317.70312 28.4875 317.89062Q28.659374 318.07812 28.659374 318.34375Q28.659374 318.59375 28.4875 318.78125Q28.33125 318.95312 28.01875 318.95312Q27.70625 318.95312 27.534374 318.78125Q27.378124 318.59375 27.378124 318.34375ZM30.1125 323.14062Q30.1125 321.65625 30.8 320.78125Q31.4875 319.90625 32.6125 319.90625Q33.76875 319.90625 34.425 320.71875L34.471874 320.01562L35.471874 320.01562L35.471874 326.20312Q35.471874 327.4375 34.7375 328.14062Q34.003124 328.85938 32.784374 328.85938Q32.096874 328.85938 31.440624 328.5625Q30.784374 328.26562 30.440624 327.76562L31.003124 327.10938Q31.690624 327.96875 32.70625 327.96875Q33.4875 327.96875 33.925 327.51562Q34.378124 327.07812 34.378124 326.26562L34.378124 325.71875Q33.721874 326.48438 32.596874 326.48438Q31.4875 326.48438 30.8 325.59375Q30.1125 324.6875 30.1125 323.14062ZM31.20625 323.26562Q31.20625 324.32812 31.64375 324.95312Q32.08125 325.5625 32.878124 325.5625Q33.89375 325.5625 34.378124 324.625L34.378124 321.73438Q33.878124 320.82812 32.878124 320.82812Q32.096874 320.82812 31.64375 321.4375Q31.20625 322.04688 31.20625 323.26562ZM38.55 326.35938L37.471874 326.35938L37.471874 320.01562L38.55 320.01562L38.55 326.35938ZM37.378124 318.34375Q37.378124 318.07812 37.534374 317.89062Q37.70625 317.70312 38.01875 317.70312Q38.33125 317.70312 38.4875 317.89062Q38.659374 318.07812 38.659374 318.34375Q38.659374 318.59375 38.4875 318.78125Q38.33125 318.95312 38.01875 318.95312Q37.70625 318.95312 37.534374 318.78125Q37.378124 318.59375 37.378124 318.34375ZM41.846874 318.48438L41.846874 320.01562L43.01875 320.01562L43.01875 320.85938L41.846874 320.85938L41.846874 324.78125Q41.846874 325.17188 42.003124 325.35938Q42.159374 325.54688 42.534374 325.54688Q42.721874 325.54688 43.05 325.48438L43.05 326.35938Q42.628124 326.48438 42.221874 326.48438Q41.503124 326.48438 41.128124 326.04688Q40.753124 325.59375 40.753124 324.78125L40.753124 320.85938L39.596874 320.85938L39.596874 320.01562L40.753124 320.01562L40.753124 318.48438L41.846874 318.48438ZM48.284374 326.35938Q48.190624 326.17188 48.128124 325.6875Q47.378124 326.48438 46.33125 326.48438Q45.39375 326.48438 44.784374 325.95312Q44.190624 325.42188 44.190624 324.59375Q44.190624 323.60938 44.940624 323.0625Q45.690624 322.51562 47.065624 322.51562L48.1125 322.51562L48.1125 322.01562Q48.1125 321.45312 47.76875 321.125Q47.440624 320.78125 46.76875 320.78125Q46.190624 320.78125 45.8 321.07812Q45.409374 321.35938 45.409374 321.78125L44.315624 321.78125Q44.315624 321.29688 44.64375 320.85938Q44.9875 320.42188 45.565624 320.17188Q46.14375 319.90625 46.83125 319.90625Q47.940624 319.90625 48.55 320.45312Q49.175 321.0 49.20625 321.95312L49.20625 324.875Q49.20625 325.75 49.425 326.26562L49.425 326.35938L48.284374 326.35938ZM46.4875 325.53125Q47.003124 325.53125 47.45625 325.26562Q47.909374 325.0 48.1125 324.57812L48.1125 323.28125L47.26875 323.28125Q45.26875 323.28125 45.26875 324.45312Q45.26875 324.95312 45.6125 325.25Q45.95625 325.53125 46.4875 325.53125ZM52.55 326.35938L51.471874 326.35938L51.471874 317.35938L52.55 317.35938L52.55 326.35938Z" fill-rule="nonzero"/><path fill="#9e9e9e" d="M20.83125 339.5625L21.64375 339.5625Q22.425 339.54688 22.8625 339.15625Q23.3 338.76562 23.3 338.09375Q23.3 336.59375 21.8 336.59375Q21.096874 336.59375 20.675 337.0Q20.26875 337.40625 20.26875 338.0625L19.175 338.0625Q19.175 337.04688 19.909374 336.375Q20.659374 335.70312 21.8 335.70312Q23.003124 335.70312 23.690624 336.34375Q24.378124 336.98438 24.378124 338.125Q24.378124 338.6875 24.01875 339.20312Q23.659374 339.71875 23.034374 339.98438Q23.7375 340.20312 24.1125 340.71875Q24.503124 341.23438 24.503124 341.98438Q24.503124 343.125 23.753124 343.8125Q23.003124 344.48438 21.8 344.48438Q20.6125 344.48438 19.846874 343.82812Q19.096874 343.17188 19.096874 342.10938L20.190624 342.10938Q20.190624 342.78125 20.628124 343.1875Q21.065624 343.59375 21.815624 343.59375Q22.596874 343.59375 23.003124 343.1875Q23.425 342.76562 23.425 342.0Q23.425 341.26562 22.971874 340.875Q22.51875 340.46875 21.64375 340.45312L20.83125 340.45312L20.83125 339.5625ZM26.753124 340.07812L27.190624 335.82812L31.565624 335.82812L31.565624 336.82812L28.1125 336.82812L27.846874 339.15625Q28.4875 338.78125 29.284374 338.78125Q30.440624 338.78125 31.128124 339.5625Q31.815624 340.32812 31.815624 341.64062Q31.815624 342.95312 31.096874 343.71875Q30.39375 344.48438 29.1125 344.48438Q27.9875 344.48438 27.26875 343.85938Q26.55 343.21875 26.45625 342.10938L27.471874 342.10938Q27.58125 342.84375 28.003124 343.21875Q28.425 343.59375 29.1125 343.59375Q29.8625 343.59375 30.3 343.07812Q30.7375 342.5625 30.7375 341.65625Q30.7375 340.79688 30.26875 340.28125Q29.8 339.76562 29.01875 339.76562Q28.315624 339.76562 27.909374 340.0625L27.628124 340.29688L26.753124 340.07812ZM33.39375 343.79688Q33.39375 343.51562 33.55 343.32812Q33.721874 343.14062 34.05 343.14062Q34.39375 343.14062 34.565624 343.32812Q34.7375 343.51562 34.7375 343.79688Q34.7375 344.0625 34.565624 344.25Q34.39375 344.42188 34.05 344.42188Q33.721874 344.42188 33.55 344.25Q33.39375 344.0625 33.39375 343.79688ZM39.815624 344.35938L38.7375 344.35938L38.7375 337.14062L36.55 337.9375L36.55 336.95312L39.659374 335.78125L39.815624 335.78125L39.815624 344.35938ZM43.159374 337.46875Q43.159374 336.70312 43.64375 336.20312Q44.14375 335.70312 44.909374 335.70312Q45.690624 335.70312 46.175 336.20312Q46.659374 336.70312 46.659374 337.5L46.659374 337.92188Q46.659374 338.6875 46.159374 339.1875Q45.675 339.67188 44.925 339.67188Q44.159374 339.67188 43.659374 339.1875Q43.159374 338.6875 43.159374 337.875L43.159374 337.46875ZM43.971874 337.92188Q43.971874 338.375 44.221874 338.67188Q44.4875 338.96875 44.925 338.96875Q45.346874 338.96875 45.596874 338.6875Q45.846874 338.39062 45.846874 337.89062L45.846874 337.46875Q45.846874 337.01562 45.596874 336.71875Q45.346874 336.40625 44.909374 336.40625Q44.471874 336.40625 44.221874 336.71875Q43.971874 337.01562 43.971874 337.48438L43.971874 337.92188ZM47.315624 342.26562Q47.315624 341.5 47.8 341.01562Q48.3 340.51562 49.065624 340.51562Q49.83125 340.51562 50.315624 341.01562Q50.815624 341.5 50.815624 342.3125L50.815624 342.71875Q50.815624 343.48438 50.33125 343.98438Q49.846874 344.48438 49.08125 344.48438Q48.315624 344.48438 47.815624 344.0Q47.315624 343.5 47.315624 342.6875L47.315624 342.26562ZM48.128124 342.71875Q48.128124 343.1875 48.378124 343.48438Q48.64375 343.78125 49.08125 343.78125Q49.503124 343.78125 49.753124 343.5Q50.003124 343.20312 50.003124 342.70312L50.003124 342.26562Q50.003124 341.79688 49.7375 341.51562Q49.4875 341.21875 49.065624 341.21875Q48.64375 341.21875 48.378124 341.51562Q48.128124 341.79688 48.128124 342.29688L48.128124 342.71875ZM45.175 343.71875L44.55 343.32812L48.721874 336.65625L49.33125 337.04688L45.175 343.71875Z" fill-rule="nonzero"/><path stroke="#757575" stroke-width="1.0" stroke-linecap="butt" d="M18.55 330.85938L154.23334 330.85938L239.46481 330.85938" fill-rule="nonzero"/><path fill="#9e9e9e" d="M241.46481 330.85938C241.46481 329.7548 240.56938 328.85938 239.46481 328.85938C238.36024 328.85938 237.46481 329.7548 237.46481 330.85938C237.46481 331.96396 238.36024 332.85938 239.46481 332.85938C240.56938 332.85938 241.46481 331.96396 241.46481 330.85938" fill-rule="nonzero"/><path fill="#757575" d="M553.71564 91.189415Q553.5594 92.533165 552.71564 93.283165Q551.8719 94.01754 550.48126 94.01754Q548.96564 94.01754 548.0594 92.939415Q547.15314 91.845665 547.15314 90.01754L547.15314 89.20504Q547.15314 88.01754 547.575 87.11129Q547.9969 86.20504 548.77814 85.720665Q549.5594 85.23629 550.575 85.23629Q551.9344 85.23629 552.7469 86.001915Q553.575 86.76754 553.71564 88.095665L552.59064 88.095665Q552.4344 87.08004 551.95 86.626915Q551.46564 86.17379 550.575 86.17379Q549.4969 86.17379 548.8875 86.970665Q548.27814 87.76754 548.27814 89.23629L548.27814 90.064415Q548.27814 91.45504 548.85626 92.283165Q549.4344 93.095665 550.48126 93.095665Q551.41876 93.095665 551.91876 92.67379Q552.41876 92.23629 552.59064 91.189415L553.71564 91.189415ZM554.98126 90.658165Q554.98126 89.73629 555.34064 88.98629Q555.71564 88.23629 556.3719 87.845665Q557.02814 87.439415 557.85626 87.439415Q559.15314 87.439415 559.95 88.33004Q560.7625 89.220665 560.7625 90.720665L560.7625 90.79879Q560.7625 91.720665 560.40314 92.45504Q560.04376 93.189415 559.3875 93.61129Q558.73126 94.01754 557.8719 94.01754Q556.59064 94.01754 555.77814 93.126915Q554.98126 92.220665 554.98126 90.73629L554.98126 90.658165ZM556.075 90.79879Q556.075 91.845665 556.5594 92.48629Q557.0594 93.126915 557.8719 93.126915Q558.7 93.126915 559.1844 92.48629Q559.66876 91.83004 559.66876 90.658165Q559.66876 89.626915 559.16876 88.98629Q558.6844 88.33004 557.85626 88.33004Q557.0594 88.33004 556.5594 88.970665Q556.075 89.595665 556.075 90.79879ZM562.8094 93.89254L562.8094 88.39254L561.8094 88.39254L561.8094 87.54879L562.8094 87.54879L562.8094 86.908165Q562.8094 85.876915 563.34064 85.33004Q563.8875 84.76754 564.8875 84.76754Q565.2625 84.76754 565.6375 84.86129L565.575 85.751915Q565.29376 85.689415 564.9969 85.689415Q564.46564 85.689415 564.16876 86.001915Q563.8875 86.314415 563.8875 86.876915L563.8875 87.54879L565.2469 87.54879L565.2469 88.39254L563.8875 88.39254L563.8875 93.89254L562.8094 93.89254ZM566.8094 93.89254L566.8094 88.39254L565.8094 88.39254L565.8094 87.54879L566.8094 87.54879L566.8094 86.908165Q566.8094 85.876915 567.34064 85.33004Q567.8875 84.76754 568.8875 84.76754Q569.2625 84.76754 569.6375 84.86129L569.575 85.751915Q569.29376 85.689415 568.9969 85.689415Q568.46564 85.689415 568.16876 86.001915Q567.8875 86.314415 567.8875 86.876915L567.8875 87.54879L569.2469 87.54879L569.2469 88.39254L567.8875 88.39254L567.8875 93.89254L566.8094 93.89254ZM572.90314 94.01754Q571.60626 94.01754 570.79376 93.17379Q569.9969 92.314415 569.9969 90.89254L569.9969 90.70504Q569.9969 89.751915 570.35626 89.01754Q570.71564 88.26754 571.35626 87.86129Q572.0125 87.439415 572.7625 87.439415Q573.9969 87.439415 574.6844 88.251915Q575.3719 89.064415 575.3719 90.58004L575.3719 91.033165L571.075 91.033165Q571.10626 91.970665 571.6219 92.54879Q572.15314 93.126915 572.96564 93.126915Q573.52814 93.126915 573.91876 92.89254Q574.325 92.658165 574.6375 92.26754L575.29376 92.783165Q574.4969 94.01754 572.90314 94.01754ZM572.7625 88.33004Q572.10626 88.33004 571.65314 88.814415Q571.21564 89.283165 571.1219 90.14254L574.29376 90.14254L574.29376 90.064415Q574.2469 89.23629 573.84064 88.783165Q573.45 88.33004 572.7625 88.33004ZM578.90314 94.01754Q577.60626 94.01754 576.79376 93.17379Q575.9969 92.314415 575.9969 90.89254L575.9969 90.70504Q575.9969 89.751915 576.35626 89.01754Q576.71564 88.26754 577.35626 87.86129Q578.0125 87.439415 578.7625 87.439415Q579.9969 87.439415 580.6844 88.251915Q581.3719 89.064415 581.3719 90.58004L581.3719 91.033165L577.075 91.033165Q577.10626 91.970665 577.6219 92.54879Q578.15314 93.126915 578.96564 93.126915Q579.52814 93.126915 579.91876 92.89254Q580.325 92.658165 580.6375 92.26754L581.29376 92.783165Q580.4969 94.01754 578.90314 94.01754ZM578.7625 88.33004Q578.10626 88.33004 577.65314 88.814415Q577.21564 89.283165 577.1219 90.14254L580.29376 90.14254L580.29376 90.064415Q580.2469 89.23629 579.84064 88.783165Q579.45 88.33004 578.7625 88.33004Z" fill-rule="nonzero"/><path fill="#9e9e9e" d="M552.71564 111.89254L551.6375 111.89254L551.6375 104.67379L549.45 105.470665L549.45 104.48629L552.5594 103.314415L552.71564 103.314415L552.71564 111.89254ZM561.66876 103.970665L558.1375 111.89254L556.9969 111.89254L560.5125 104.251915L555.90314 104.251915L555.90314 103.36129L561.66876 103.36129L561.66876 103.970665ZM563.29376 111.33004Q563.29376 111.04879 563.45 110.86129Q563.6219 110.67379 563.95 110.67379Q564.29376 110.67379 564.46564 110.86129Q564.6375 111.04879 564.6375 111.33004Q564.6375 111.595665 564.46564 111.783165Q564.29376 111.95504 563.95 111.95504Q563.6219 111.95504 563.45 111.783165Q563.29376 111.595665 563.29376 111.33004ZM571.5125 108.251915Q571.5125 110.158165 570.85626 111.095665Q570.21564 112.01754 568.825 112.01754Q567.46564 112.01754 566.8094 111.11129Q566.15314 110.20504 566.1219 108.39254L566.1219 106.95504Q566.1219 105.064415 566.7625 104.158165Q567.41876 103.23629 568.8094 103.23629Q570.1844 103.23629 570.84064 104.126915Q571.4969 105.001915 571.5125 106.845665L571.5125 108.251915ZM570.41876 106.76754Q570.41876 105.39254 570.02814 104.76754Q569.65314 104.126915 568.8094 104.126915Q567.98126 104.126915 567.59064 104.76754Q567.21564 105.39254 567.21564 106.689415L567.21564 108.42379Q567.21564 109.79879 567.60626 110.470665Q568.0125 111.126915 568.825 111.126915Q569.6219 111.126915 570.0125 110.501915Q570.40314 109.876915 570.41876 108.54879L570.41876 106.76754ZM573.0594 105.001915Q573.0594 104.23629 573.54376 103.73629Q574.04376 103.23629 574.8094 103.23629Q575.59064 103.23629 576.075 103.73629Q576.5594 104.23629 576.5594 105.033165L576.5594 105.45504Q576.5594 106.220665 576.0594 106.720665Q575.575 107.20504 574.825 107.20504Q574.0594 107.20504 573.5594 106.720665Q573.0594 106.220665 573.0594 105.408165L573.0594 105.001915ZM573.8719 105.45504Q573.8719 105.908165 574.1219 106.20504Q574.3875 106.501915 574.825 106.501915Q575.2469 106.501915 575.4969 106.220665Q575.7469 105.92379 575.7469 105.42379L575.7469 105.001915Q575.7469 104.54879 575.4969 104.251915Q575.2469 103.939415 574.8094 103.939415Q574.3719 103.939415 574.1219 104.251915Q573.8719 104.54879 573.8719 105.01754L573.8719 105.45504ZM577.21564 109.79879Q577.21564 109.033165 577.7 108.54879Q578.2 108.04879 578.96564 108.04879Q579.73126 108.04879 580.21564 108.54879Q580.71564 109.033165 580.71564 109.845665L580.71564 110.251915Q580.71564 111.01754 580.23126 111.51754Q579.7469 112.01754 578.98126 112.01754Q578.21564 112.01754 577.71564 111.533165Q577.21564 111.033165 577.21564 110.220665L577.21564 109.79879ZM578.02814 110.251915Q578.02814 110.720665 578.27814 111.01754Q578.54376 111.314415 578.98126 111.314415Q579.40314 111.314415 579.65314 111.033165Q579.90314 110.73629 579.90314 110.23629L579.90314 109.79879Q579.90314 109.33004 579.6375 109.04879Q579.3875 108.751915 578.96564 108.751915Q578.54376 108.751915 578.27814 109.04879Q578.02814 109.33004 578.02814 109.83004L578.02814 110.251915ZM575.075 111.251915L574.45 110.86129L578.6219 104.189415L579.23126 104.58004L575.075 111.251915Z" fill-rule="nonzero"/><path stroke="#757575" stroke-width="1.0" stroke-linecap="butt" d="M581.45 98.39254L445.76666 98.39254L367.58478 98.39254" fill-rule="nonzero"/><path fill="#9e9e9e" d="M369.58478 98.39254C369.58478 97.28797 368.68933 96.39254 367.58478 96.39254C366.4802 96.39254 365.58478 97.28797 365.58478 98.39254C365.58478 99.49711 366.4802 100.39254 367.58478 100.39254C368.68933 100.39254 369.58478 99.49711 369.58478 98.39254" fill-rule="nonzero"/><path fill="#757575" d="M533.65314 237.0605L532.52814 237.0605L532.52814 228.52925L533.65314 228.52925L533.65314 237.0605ZM536.29376 230.71675L536.325 231.51363Q537.0594 230.60738 538.23126 230.60738Q540.2469 230.60738 540.2625 232.873L540.2625 237.0605L539.16876 237.0605L539.16876 232.85738Q539.16876 232.1855 538.85626 231.85738Q538.5594 231.52925 537.90314 231.52925Q537.3719 231.52925 536.96564 231.8105Q536.575 232.09175 536.35626 232.54488L536.35626 237.0605L535.27814 237.0605L535.27814 230.71675L536.29376 230.71675ZM544.52814 233.873L541.66876 233.873L541.66876 232.998L544.52814 232.998L544.52814 233.873ZM550.6219 233.96675Q550.6219 235.40425 549.96564 236.29488Q549.3094 237.1855 548.16876 237.1855Q547.0125 237.1855 546.35626 236.45113L546.35626 239.498L545.27814 239.498L545.27814 230.71675L546.2625 230.71675L546.3094 231.41988Q546.98126 230.60738 548.15314 230.60738Q549.29376 230.60738 549.95 231.46675Q550.6219 232.32613 550.6219 233.85738L550.6219 233.96675ZM549.54376 233.84175Q549.54376 232.76363 549.075 232.15425Q548.6219 231.52925 547.825 231.52925Q546.84064 231.52925 546.35626 232.38863L546.35626 235.41988Q546.84064 236.29488 547.84064 236.29488Q548.6219 236.29488 549.075 235.6855Q549.54376 235.0605 549.54376 233.84175ZM554.90314 237.1855Q553.60626 237.1855 552.79376 236.34175Q551.9969 235.48238 551.9969 234.0605L551.9969 233.873Q551.9969 232.91988 552.35626 232.1855Q552.71564 231.4355 553.35626 231.02925Q554.0125 230.60738 554.7625 230.60738Q555.9969 230.60738 556.6844 231.41988Q557.3719 232.23238 557.3719 233.748L557.3719 234.20113L553.075 234.20113Q553.10626 235.13863 553.6219 235.71675Q554.15314 236.29488 554.96564 236.29488Q555.52814 236.29488 555.91876 236.0605Q556.325 235.82613 556.6375 235.4355L557.29376 235.95113Q556.4969 237.1855 554.90314 237.1855ZM554.7625 231.498Q554.10626 231.498 553.65314 231.98238Q553.21564 232.45113 553.1219 233.3105L556.29376 233.3105L556.29376 233.23238Q556.2469 232.40425 555.84064 231.95113Q555.45 231.498 554.7625 231.498ZM561.34064 231.6855Q561.09064 231.65425 560.8094 231.65425Q559.73126 231.65425 559.35626 232.5605L559.35626 237.0605L558.27814 237.0605L558.27814 230.71675L559.325 230.71675L559.34064 231.45113Q559.8719 230.60738 560.85626 230.60738Q561.16876 230.60738 561.34064 230.6855L561.34064 231.6855ZM565.96564 235.373Q565.96564 234.9355 565.6219 234.70113Q565.29376 234.45113 564.46564 234.27925Q563.65314 234.10738 563.16876 233.85738Q562.6844 233.60738 562.45 233.27925Q562.23126 232.9355 562.23126 232.46675Q562.23126 231.6855 562.8875 231.15425Q563.54376 230.60738 564.575 230.60738Q565.65314 230.60738 566.3094 231.16988Q566.98126 231.71675 566.98126 232.57613L565.90314 232.57613Q565.90314 232.13863 565.5125 231.82613Q565.1375 231.498 564.575 231.498Q563.98126 231.498 563.6375 231.76363Q563.3094 232.01363 563.3094 232.41988Q563.3094 232.8105 563.6219 233.01363Q563.9344 233.21675 564.7469 233.40425Q565.5594 233.57613 566.0594 233.82613Q566.5594 234.07613 566.79376 234.4355Q567.04376 234.79488 567.04376 235.29488Q567.04376 236.15425 566.35626 236.66988Q565.6844 237.1855 564.60626 237.1855Q563.84064 237.1855 563.2469 236.91988Q562.66876 236.63863 562.34064 236.15425Q562.0125 235.66988 562.0125 235.10738L563.09064 235.10738Q563.1219 235.65425 563.52814 235.98238Q563.9344 236.29488 564.60626 236.29488Q565.21564 236.29488 565.59064 236.04488Q565.96564 235.79488 565.96564 235.373ZM567.98126 233.82613Q567.98126 232.90425 568.34064 232.15425Q568.71564 231.40425 569.3719 231.01363Q570.02814 230.60738 570.85626 230.60738Q572.15314 230.60738 572.95 231.498Q573.7625 232.38863 573.7625 233.88863L573.7625 233.96675Q573.7625 234.88863 573.40314 235.623Q573.04376 236.35738 572.3875 236.77925Q571.73126 237.1855 570.8719 237.1855Q569.59064 237.1855 568.77814 236.29488Q567.98126 235.38863 567.98126 233.90425L567.98126 233.82613ZM569.075 233.96675Q569.075 235.01363 569.5594 235.65425Q570.0594 236.29488 570.8719 236.29488Q571.7 236.29488 572.1844 235.65425Q572.66876 234.998 572.66876 233.82613Q572.66876 232.79488 572.16876 232.15425Q571.6844 231.498 570.85626 231.498Q570.0594 231.498 569.5594 232.13863Q569.075 232.76363 569.075 233.96675ZM576.29376 230.71675L576.325 231.51363Q577.0594 230.60738 578.23126 230.60738Q580.2469 230.60738 580.2625 232.873L580.2625 237.0605L579.16876 237.0605L579.16876 232.85738Q579.16876 232.1855 578.85626 231.85738Q578.5594 231.52925 577.90314 231.52925Q577.3719 231.52925 576.96564 231.8105Q576.575 232.09175 576.35626 232.54488L576.35626 237.0605L575.27814 237.0605L575.27814 230.71675L576.29376 230.71675Z" fill-rule="nonzero"/><path fill="#9e9e9e" d="M554.7469 255.0605L549.15314 255.0605L549.15314 254.27925L552.10626 250.998Q552.7625 250.248 553.0125 249.79488Q553.2625 249.32613 553.2625 248.82613Q553.2625 248.15425 552.85626 247.73238Q552.46564 247.29488 551.77814 247.29488Q550.98126 247.29488 550.52814 247.76363Q550.075 248.21675 550.075 249.04488L548.9969 249.04488Q548.9969 247.85738 549.7469 247.13863Q550.5125 246.40425 551.77814 246.40425Q552.98126 246.40425 553.66876 247.02925Q554.35626 247.65425 554.35626 248.70113Q554.35626 249.95113 552.7469 251.70113L550.46564 254.16988L554.7469 254.16988L554.7469 255.0605ZM557.73126 250.26363L558.54376 250.26363Q559.325 250.248 559.7625 249.85738Q560.2 249.46675 560.2 248.79488Q560.2 247.29488 558.7 247.29488Q557.9969 247.29488 557.575 247.70113Q557.16876 248.10738 557.16876 248.76363L556.075 248.76363Q556.075 247.748 556.8094 247.07613Q557.5594 246.40425 558.7 246.40425Q559.90314 246.40425 560.59064 247.04488Q561.27814 247.6855 561.27814 248.82613Q561.27814 249.38863 560.91876 249.90425Q560.5594 250.41988 559.9344 250.6855Q560.6375 250.90425 561.0125 251.41988Q561.40314 251.9355 561.40314 252.6855Q561.40314 253.82613 560.65314 254.51363Q559.90314 255.1855 558.7 255.1855Q557.5125 255.1855 556.7469 254.52925Q555.9969 253.873 555.9969 252.8105L557.09064 252.8105Q557.09064 253.48238 557.52814 253.88863Q557.96564 254.29488 558.71564 254.29488Q559.4969 254.29488 559.90314 253.88863Q560.325 253.46675 560.325 252.70113Q560.325 251.96675 559.8719 251.57613Q559.41876 251.16988 558.54376 251.15425L557.73126 251.15425L557.73126 250.26363ZM563.29376 254.498Q563.29376 254.21675 563.45 254.02925Q563.6219 253.84175 563.95 253.84175Q564.29376 253.84175 564.46564 254.02925Q564.6375 254.21675 564.6375 254.498Q564.6375 254.76363 564.46564 254.95113Q564.29376 255.123 563.95 255.123Q563.6219 255.123 563.45 254.95113Q563.29376 254.76363 563.29376 254.498ZM571.5125 251.41988Q571.5125 253.32613 570.85626 254.26363Q570.21564 255.1855 568.825 255.1855Q567.46564 255.1855 566.8094 254.27925Q566.15314 253.373 566.1219 251.5605L566.1219 250.123Q566.1219 248.23238 566.7625 247.32613Q567.41876 246.40425 568.8094 246.40425Q570.1844 246.40425 570.84064 247.29488Q571.4969 248.16988 571.5125 250.01363L571.5125 251.41988ZM570.41876 249.9355Q570.41876 248.5605 570.02814 247.9355Q569.65314 247.29488 568.8094 247.29488Q567.98126 247.29488 567.59064 247.9355Q567.21564 248.5605 567.21564 249.85738L567.21564 251.59175Q567.21564 252.96675 567.60626 253.63863Q568.0125 254.29488 568.825 254.29488Q569.6219 254.29488 570.0125 253.66988Q570.40314 253.04488 570.41876 251.71675L570.41876 249.9355ZM573.0594 248.16988Q573.0594 247.40425 573.54376 246.90425Q574.04376 246.40425 574.8094 246.40425Q575.59064 246.40425 576.075 246.90425Q576.5594 247.40425 576.5594 248.20113L576.5594 248.623Q576.5594 249.38863 576.0594 249.88863Q575.575 250.373 574.825 250.373Q574.0594 250.373 573.5594 249.88863Q573.0594 249.38863 573.0594 248.57613L573.0594 248.16988ZM573.8719 248.623Q573.8719 249.07613 574.1219 249.373Q574.3875 249.66988 574.825 249.66988Q575.2469 249.66988 575.4969 249.38863Q575.7469 249.09175 575.7469 248.59175L575.7469 248.16988Q575.7469 247.71675 575.4969 247.41988Q575.2469 247.10738 574.8094 247.10738Q574.3719 247.10738 574.1219 247.41988Q573.8719 247.71675 573.8719 248.1855L573.8719 248.623ZM577.21564 252.96675Q577.21564 252.20113 577.7 251.71675Q578.2 251.21675 578.96564 251.21675Q579.73126 251.21675 580.21564 251.71675Q580.71564 252.20113 580.71564 253.01363L580.71564 253.41988Q580.71564 254.1855 580.23126 254.6855Q579.7469 255.1855 578.98126 255.1855Q578.21564 255.1855 577.71564 254.70113Q577.21564 254.20113 577.21564 253.38863L577.21564 252.96675ZM578.02814 253.41988Q578.02814 253.88863 578.27814 254.1855Q578.54376 254.48238 578.98126 254.48238Q579.40314 254.48238 579.65314 254.20113Q579.90314 253.90425 579.90314 253.40425L579.90314 252.96675Q579.90314 252.498 579.6375 252.21675Q579.3875 251.91988 578.96564 251.91988Q578.54376 251.91988 578.27814 252.21675Q578.02814 252.498 578.02814 252.998L578.02814 253.41988ZM575.075 254.41988L574.45 254.02925L578.6219 247.35738L579.23126 247.748L575.075 254.41988Z" fill-rule="nonzero"/><path stroke="#757575" stroke-width="1.0" stroke-linecap="butt" d="M581.45 241.5605L445.76666 241.5605L429.60013 241.5605" fill-rule="nonzero"/><path fill="#9e9e9e" d="M431.60013 241.5605C431.60013 240.45593 430.7047 239.5605 429.60013 239.5605C428.49557 239.5605 427.60013 240.45593 427.60013 241.5605C427.60013 242.66507 428.49557 243.5605 429.60013 243.5605C430.7047 243.5605 431.60013 242.66507 431.60013 241.5605" fill-rule="nonzero"/><path fill="#bdbdbd" d="M264.90625 52.503124Q264.90625 50.971874 265.3125 49.55Q265.73438 48.128124 266.54688 46.971874Q267.375 45.8 268.26562 45.315624L268.51562 46.159374Q267.51562 46.925 266.875 48.503124Q266.25 50.065624 266.1875 52.003124L266.17188 52.596874Q266.17188 55.2375 267.14062 57.175Q267.71875 58.33125 268.51562 58.9875L268.26562 59.76875Q267.34375 59.253124 266.51562 58.065624Q264.90625 55.7375 264.90625 52.503124ZM269.71875 48.503124Q269.71875 47.6125 270.28125 47.034374Q270.85938 46.45625 271.75 46.45625Q272.67188 46.45625 273.23438 47.05Q273.79688 47.628124 273.79688 48.55L273.79688 49.034374Q273.79688 49.940624 273.21875 50.51875Q272.65625 51.08125 271.76562 51.08125Q270.875 51.08125 270.29688 50.51875Q269.71875 49.940624 269.71875 48.9875L269.71875 48.503124ZM270.65625 49.034374Q270.65625 49.565624 270.95312 49.909374Q271.26562 50.253124 271.76562 50.253124Q272.25 50.253124 272.54688 49.925Q272.84375 49.596874 272.84375 49.003124L272.84375 48.503124Q272.84375 47.971874 272.54688 47.628124Q272.26562 47.284374 271.75 47.284374Q271.25 47.284374 270.95312 47.628124Q270.65625 47.971874 270.65625 48.534374L270.65625 49.034374ZM274.5625 54.1125Q274.5625 53.20625 275.125 52.64375Q275.70312 52.065624 276.59375 52.065624Q277.5 52.065624 278.0625 52.64375Q278.64062 53.20625 278.64062 54.159374L278.64062 54.64375Q278.64062 55.534374 278.0625 56.1125Q277.5 56.690624 276.60938 56.690624Q275.73438 56.690624 275.14062 56.128124Q274.5625 55.55 274.5625 54.596874L274.5625 54.1125ZM275.51562 54.64375Q275.51562 55.175 275.8125 55.534374Q276.10938 55.878124 276.60938 55.878124Q277.10938 55.878124 277.40625 55.534374Q277.70312 55.190624 277.70312 54.6125L277.70312 54.1125Q277.70312 53.565624 277.39062 53.221874Q277.09375 52.878124 276.60938 52.878124Q276.10938 52.878124 275.8125 53.221874Q275.51562 53.565624 275.51562 54.14375L275.51562 54.64375ZM272.0625 55.8L271.34375 55.346874L276.20312 47.565624L276.92188 48.01875L272.0625 55.8ZM286.53125 50.284374Q286.25 50.2375 285.90625 50.2375Q284.67188 50.2375 284.21875 51.3L284.21875 56.55L282.95312 56.55L282.95312 49.159374L284.1875 49.159374L284.20312 50.003124Q284.82812 49.01875 285.96875 49.01875Q286.34375 49.01875 286.53125 49.1125L286.53125 50.284374ZM291.03125 56.690624Q289.51562 56.690624 288.57812 55.70625Q287.64062 54.70625 287.64062 53.05L287.64062 52.83125Q287.64062 51.721874 288.0625 50.8625Q288.48438 49.9875 289.23438 49.503124Q289.98438 49.01875 290.875 49.01875Q292.3125 49.01875 293.10938 49.971874Q293.90625 50.909374 293.90625 52.690624L293.90625 53.20625L288.90625 53.20625Q288.92188 54.3 289.53125 54.9875Q290.15625 55.659374 291.09375 55.659374Q291.76562 55.659374 292.21875 55.39375Q292.6875 55.1125 293.04688 54.659374L293.8125 55.253124Q292.89062 56.690624 291.03125 56.690624ZM290.875 50.05Q290.10938 50.05 289.57812 50.6125Q289.0625 51.175 288.9375 52.175L292.64062 52.175L292.64062 52.08125Q292.59375 51.1125 292.125 50.58125Q291.65625 50.05 290.875 50.05ZM297.39062 54.83125L299.23438 49.159374L300.51562 49.159374L297.875 56.55L296.90625 56.55L294.21875 49.159374L295.51562 49.159374L297.39062 54.83125ZM305.03125 56.690624Q303.51562 56.690624 302.57812 55.70625Q301.64062 54.70625 301.64062 53.05L301.64062 52.83125Q301.64062 51.721874 302.0625 50.8625Q302.48438 49.9875 303.23438 49.503124Q303.98438 49.01875 304.875 49.01875Q306.3125 49.01875 307.10938 49.971874Q307.90625 50.909374 307.90625 52.690624L307.90625 53.20625L302.90625 53.20625Q302.92188 54.3 303.53125 54.9875Q304.15625 55.659374 305.09375 55.659374Q305.76562 55.659374 306.21875 55.39375Q306.6875 55.1125 307.04688 54.659374L307.8125 55.253124Q306.89062 56.690624 305.03125 56.690624ZM304.875 50.05Q304.10938 50.05 303.57812 50.6125Q303.0625 51.175 302.9375 52.175L306.64062 52.175L306.64062 52.08125Q306.59375 51.1125 306.125 50.58125Q305.65625 50.05 304.875 50.05ZM310.15625 49.159374L310.1875 50.08125Q311.04688 49.01875 312.40625 49.01875Q314.75 49.01875 314.78125 51.659374L314.78125 56.55L313.51562 56.55L313.51562 51.659374Q313.5 50.8625 313.14062 50.4875Q312.78125 50.096874 312.03125 50.096874Q311.40625 50.096874 310.9375 50.425Q310.48438 50.753124 310.21875 51.284374L310.21875 56.55L308.95312 56.55L308.95312 49.159374L310.15625 49.159374ZM321.53125 55.815624Q320.78125 56.690624 319.35938 56.690624Q318.17188 56.690624 317.54688 56.003124Q316.9375 55.315624 316.9375 53.971874L316.9375 49.159374L318.1875 49.159374L318.1875 53.925Q318.1875 55.6125 319.5625 55.6125Q321.01562 55.6125 321.48438 54.534374L321.48438 49.159374L322.75 49.159374L322.75 56.55L321.54688 56.55L321.53125 55.815624ZM328.03125 56.690624Q326.51562 56.690624 325.57812 55.70625Q324.64062 54.70625 324.64062 53.05L324.64062 52.83125Q324.64062 51.721874 325.0625 50.8625Q325.48438 49.9875 326.23438 49.503124Q326.98438 49.01875 327.875 49.01875Q329.3125 49.01875 330.10938 49.971874Q330.90625 50.909374 330.90625 52.690624L330.90625 53.20625L325.90625 53.20625Q325.92188 54.3 326.53125 54.9875Q327.15625 55.659374 328.09375 55.659374Q328.76562 55.659374 329.21875 55.39375Q329.6875 55.1125 330.04688 54.659374L330.8125 55.253124Q329.89062 56.690624 328.03125 56.690624ZM327.875 50.05Q327.10938 50.05 326.57812 50.6125Q326.0625 51.175 325.9375 52.175L329.64062 52.175L329.64062 52.08125Q329.59375 51.1125 329.125 50.58125Q328.65625 50.05 327.875 50.05ZM334.875 52.58125Q334.875 54.096874 334.46875 55.503124Q334.07812 56.89375 333.25 58.08125Q332.42188 59.26875 331.53125 59.76875L331.26562 58.9875Q332.3125 58.190624 332.95312 56.4875Q333.59375 54.784374 333.60938 52.721874L333.60938 52.503124Q333.60938 51.065624 333.29688 49.83125Q333.0 48.596874 332.46875 47.628124Q331.9375 46.64375 331.26562 46.096874L331.53125 45.315624Q332.42188 45.815624 333.23438 46.9875Q334.0625 48.159374 334.46875 49.565624Q334.875 50.971874 334.875 52.58125Z" fill-rule="nonzero"/><path fill="#757575" d="M245.28125 28.58125L245.28125 31.675Q245.28125 32.675 245.5 32.909374Q245.79688 33.253124 246.40625 33.253124L246.8125 33.253124L246.8125 33.55L242.26562 33.55L242.26562 33.253124L242.67188 33.253124Q243.34375 33.253124 243.625 32.815624Q243.78125 32.58125 243.78125 31.675L243.78125 24.83125Q243.78125 23.83125 243.57812 23.58125Q243.26562 23.2375 242.67188 23.2375L242.26562 23.2375L242.26562 22.95625L246.15625 22.95625Q247.57812 22.95625 248.39062 23.253124Q249.21875 23.534374 249.78125 24.2375Q250.34375 24.925 250.34375 25.878124Q250.34375 27.175 249.48438 27.9875Q248.625 28.8 247.0625 28.8Q246.6875 28.8 246.23438 28.753124Q245.79688 28.690624 245.28125 28.58125ZM245.28125 28.14375Q245.70312 28.221874 246.01562 28.26875Q246.34375 28.3 246.5625 28.3Q247.375 28.3 247.96875 27.675Q248.5625 27.034374 248.5625 26.034374Q248.5625 25.346874 248.28125 24.76875Q248.0 24.175 247.48438 23.878124Q246.96875 23.58125 246.3125 23.58125Q245.90625 23.58125 245.28125 23.7375L245.28125 28.14375ZM253.59375 26.175L253.59375 27.784374Q254.5 26.175 255.4375 26.175Q255.875 26.175 256.15625 26.440624Q256.4375 26.70625 256.4375 27.05Q256.4375 27.346874 256.23438 27.565624Q256.03125 27.76875 255.75 27.76875Q255.46875 27.76875 255.125 27.503124Q254.79688 27.2375 254.625 27.2375Q254.48438 27.2375 254.32812 27.39375Q253.96875 27.70625 253.59375 28.440624L253.59375 31.878124Q253.59375 32.471874 253.75 32.76875Q253.84375 32.9875 254.09375 33.128124Q254.35938 33.26875 254.84375 33.26875L254.84375 33.55L251.1875 33.55L251.1875 33.26875Q251.73438 33.26875 252.0 33.096874Q252.1875 32.971874 252.26562 32.690624Q252.3125 32.565624 252.3125 31.940624L252.3125 29.159374Q252.3125 27.909374 252.25 27.675Q252.20312 27.440624 252.0625 27.33125Q251.9375 27.221874 251.73438 27.221874Q251.48438 27.221874 251.1875 27.33125L251.10938 27.05L253.26562 26.175L253.59375 26.175ZM257.70312 29.08125Q257.70312 30.675 258.48438 31.58125Q259.26562 32.4875 260.3125 32.4875Q261.01562 32.4875 261.53125 32.1125Q262.0625 31.721874 262.40625 30.784374L262.65625 30.940624Q262.48438 32.003124 261.6875 32.89375Q260.90625 33.76875 259.71875 33.76875Q258.4375 33.76875 257.51562 32.76875Q256.59375 31.753124 256.59375 30.065624Q256.59375 28.221874 257.53125 27.20625Q258.48438 26.175 259.90625 26.175Q261.10938 26.175 261.875 26.971874Q262.65625 27.753124 262.65625 29.08125L257.70312 29.08125ZM257.70312 28.628124L261.01562 28.628124Q260.98438 27.940624 260.85938 27.659374Q260.65625 27.221874 260.26562 26.971874Q259.89062 26.721874 259.46875 26.721874Q258.8125 26.721874 258.29688 27.2375Q257.79688 27.7375 257.70312 28.628124ZM263.65625 29.3625L267.6875 29.3625L267.6875 30.55L263.65625 30.55L263.65625 29.3625ZM275.34375 22.70625L275.34375 26.378124L275.04688 26.378124Q274.90625 25.315624 274.54688 24.690624Q274.1875 24.065624 273.51562 23.70625Q272.84375 23.33125 272.125 23.33125Q271.3125 23.33125 270.78125 23.83125Q270.25 24.33125 270.25 24.95625Q270.25 25.440624 270.57812 25.846874Q271.0625 26.425 272.89062 27.409374Q274.375 28.20625 274.90625 28.628124Q275.45312 29.05 275.75 29.628124Q276.04688 30.20625 276.04688 30.846874Q276.04688 32.05 275.10938 32.925Q274.17188 33.8 272.70312 33.8Q272.25 33.8 271.84375 33.721874Q271.59375 33.690624 270.82812 33.440624Q270.07812 33.190624 269.875 33.190624Q269.67188 33.190624 269.5625 33.315624Q269.45312 33.425 269.39062 33.8L269.10938 33.8L269.10938 30.159374L269.39062 30.159374Q269.59375 31.3 269.9375 31.8625Q270.28125 32.425 270.98438 32.8Q271.70312 33.175 272.54688 33.175Q273.51562 33.175 274.07812 32.659374Q274.65625 32.14375 274.65625 31.440624Q274.65625 31.05 274.4375 30.659374Q274.21875 30.253124 273.76562 29.909374Q273.46875 29.675 272.10938 28.925Q270.75 28.159374 270.17188 27.70625Q269.59375 27.253124 269.29688 26.70625Q269.0 26.159374 269.0 25.503124Q269.0 24.3625 269.875 23.534374Q270.75 22.70625 272.10938 22.70625Q272.95312 22.70625 273.89062 23.128124Q274.32812 23.315624 274.51562 23.315624Q274.71875 23.315624 274.84375 23.20625Q274.96875 23.08125 275.04688 22.70625L275.34375 22.70625ZM281.5625 32.51875Q280.45312 33.3625 280.17188 33.503124Q279.75 33.70625 279.28125 33.70625Q278.53125 33.70625 278.04688 33.190624Q277.57812 32.675 277.57812 31.846874Q277.57812 31.33125 277.8125 30.940624Q278.125 30.409374 278.92188 29.940624Q279.71875 29.471874 281.5625 28.8L281.5625 28.51875Q281.5625 27.45625 281.21875 27.065624Q280.875 26.659374 280.23438 26.659374Q279.73438 26.659374 279.45312 26.925Q279.15625 27.190624 279.15625 27.534374L279.17188 27.9875Q279.17188 28.346874 278.98438 28.55Q278.79688 28.7375 278.5 28.7375Q278.21875 28.7375 278.03125 28.534374Q277.84375 28.33125 277.84375 27.971874Q277.84375 27.3 278.53125 26.7375Q279.21875 26.175 280.46875 26.175Q281.42188 26.175 282.03125 26.503124Q282.48438 26.7375 282.70312 27.253124Q282.84375 27.596874 282.84375 28.628124L282.84375 31.065624Q282.84375 32.08125 282.875 32.315624Q282.92188 32.55 283.01562 32.628124Q283.10938 32.70625 283.21875 32.70625Q283.34375 32.70625 283.4375 32.64375Q283.60938 32.55 284.07812 32.08125L284.07812 32.51875Q283.20312 33.690624 282.40625 33.690624Q282.01562 33.690624 281.78125 33.425Q281.5625 33.159374 281.5625 32.51875ZM281.5625 32.003124L281.5625 29.284374Q280.375 29.753124 280.03125 29.940624Q279.42188 30.284374 279.15625 30.659374Q278.89062 31.034374 278.89062 31.4875Q278.89062 32.05 279.21875 32.425Q279.5625 32.784374 280.0 32.784374Q280.59375 32.784374 281.5625 32.003124ZM286.96875 22.440624L286.96875 31.925Q286.96875 32.596874 287.0625 32.815624Q287.15625 33.034374 287.35938 33.159374Q287.5625 33.26875 288.125 33.26875L288.125 33.55L284.60938 33.55L284.60938 33.26875Q285.10938 33.26875 285.28125 33.175Q285.46875 33.065624 285.5625 32.83125Q285.67188 32.596874 285.67188 31.925L285.67188 25.425Q285.67188 24.221874 285.60938 23.940624Q285.5625 23.659374 285.4375 23.565624Q285.3125 23.45625 285.125 23.45625Q284.92188 23.45625 284.60938 23.58125L284.48438 23.315624L286.60938 22.440624L286.96875 22.440624ZM289.70312 29.08125Q289.70312 30.675 290.48438 31.58125Q291.26562 32.4875 292.3125 32.4875Q293.01562 32.4875 293.53125 32.1125Q294.0625 31.721874 294.40625 30.784374L294.65625 30.940624Q294.48438 32.003124 293.6875 32.89375Q292.90625 33.76875 291.71875 33.76875Q290.4375 33.76875 289.51562 32.76875Q288.59375 31.753124 288.59375 30.065624Q288.59375 28.221874 289.53125 27.20625Q290.48438 26.175 291.90625 26.175Q293.10938 26.175 293.875 26.971874Q294.65625 27.753124 294.65625 29.08125L289.70312 29.08125ZM289.70312 28.628124L293.01562 28.628124Q292.98438 27.940624 292.85938 27.659374Q292.65625 27.221874 292.26562 26.971874Q291.89062 26.721874 291.46875 26.721874Q290.8125 26.721874 290.29688 27.2375Q289.79688 27.7375 289.70312 28.628124ZM300.125 26.175L300.125 28.6125L299.875 28.6125Q299.57812 27.471874 299.10938 27.065624Q298.64062 26.64375 297.92188 26.64375Q297.375 26.64375 297.03125 26.940624Q296.70312 27.221874 296.70312 27.565624Q296.70312 28.003124 296.95312 28.315624Q297.20312 28.64375 297.9375 29.003124L299.07812 29.55Q300.67188 30.33125 300.67188 31.596874Q300.67188 32.565624 299.92188 33.175Q299.1875 33.76875 298.28125 33.76875Q297.625 33.76875 296.78125 33.534374Q296.51562 33.45625 296.35938 33.45625Q296.17188 33.45625 296.07812 33.659374L295.8125 33.659374L295.8125 31.096874L296.07812 31.096874Q296.29688 32.190624 296.90625 32.753124Q297.53125 33.3 298.29688 33.3Q298.82812 33.3 299.17188 32.9875Q299.51562 32.675 299.51562 32.221874Q299.51562 31.690624 299.125 31.33125Q298.75 30.95625 297.60938 30.39375Q296.48438 29.83125 296.14062 29.378124Q295.78125 28.925 295.78125 28.253124Q295.78125 27.3625 296.39062 26.76875Q297.0 26.175 297.95312 26.175Q298.375 26.175 298.98438 26.3625Q299.375 26.471874 299.51562 26.471874Q299.64062 26.471874 299.70312 26.425Q299.78125 26.3625 299.875 26.175L300.125 26.175ZM311.54688 33.55L307.45312 24.628124L307.45312 31.70625Q307.45312 32.690624 307.67188 32.925Q307.95312 33.253124 308.57812 33.253124L308.95312 33.253124L308.95312 33.55L305.26562 33.55L305.26562 33.253124L305.64062 33.253124Q306.3125 33.253124 306.59375 32.846874Q306.76562 32.596874 306.76562 31.70625L306.76562 24.784374Q306.76562 24.08125 306.60938 23.76875Q306.5 23.55 306.20312 23.39375Q305.92188 23.2375 305.26562 23.2375L305.26562 22.95625L308.26562 22.95625L312.10938 31.2375L315.89062 22.95625L318.89062 22.95625L318.89062 23.2375L318.53125 23.2375Q317.84375 23.2375 317.5625 23.64375Q317.39062 23.89375 317.39062 24.784374L317.39062 31.70625Q317.39062 32.690624 317.60938 32.925Q317.90625 33.253124 318.53125 33.253124L318.89062 33.253124L318.89062 33.55L314.39062 33.55L314.39062 33.253124L314.76562 33.253124Q315.45312 33.253124 315.71875 32.846874Q315.89062 32.596874 315.89062 31.70625L315.89062 24.628124L311.8125 33.55L311.54688 33.55ZM320.70312 29.08125Q320.70312 30.675 321.48438 31.58125Q322.26562 32.4875 323.3125 32.4875Q324.01562 32.4875 324.53125 32.1125Q325.0625 31.721874 325.40625 30.784374L325.65625 30.940624Q325.48438 32.003124 324.6875 32.89375Q323.90625 33.76875 322.71875 33.76875Q321.4375 33.76875 320.51562 32.76875Q319.59375 31.753124 319.59375 30.065624Q319.59375 28.221874 320.53125 27.20625Q321.48438 26.175 322.90625 26.175Q324.10938 26.175 324.875 26.971874Q325.65625 27.753124 325.65625 29.08125L320.70312 29.08125ZM320.70312 28.628124L324.01562 28.628124Q323.98438 27.940624 323.85938 27.659374Q323.65625 27.221874 323.26562 26.971874Q322.89062 26.721874 322.46875 26.721874Q321.8125 26.721874 321.29688 27.2375Q320.79688 27.7375 320.70312 28.628124ZM331.5625 32.7375Q331.03125 33.284374 330.53125 33.534374Q330.03125 33.76875 329.45312 33.76875Q328.28125 33.76875 327.40625 32.784374Q326.53125 31.8 326.53125 30.26875Q326.53125 28.721874 327.5 27.45625Q328.46875 26.175 330.0 26.175Q330.9375 26.175 331.5625 26.76875L331.5625 25.45625Q331.5625 24.221874 331.5 23.940624Q331.4375 23.659374 331.3125 23.565624Q331.1875 23.45625 331.0 23.45625Q330.79688 23.45625 330.46875 23.58125L330.35938 23.315624L332.5 22.440624L332.84375 22.440624L332.84375 30.70625Q332.84375 31.971874 332.90625 32.253124Q332.96875 32.51875 333.09375 32.628124Q333.21875 32.7375 333.39062 32.7375Q333.60938 32.7375 333.95312 32.6125L334.04688 32.878124L331.92188 33.76875L331.5625 33.76875L331.5625 32.7375ZM331.5625 32.190624L331.5625 28.503124Q331.51562 27.971874 331.28125 27.534374Q331.04688 27.096874 330.65625 26.878124Q330.26562 26.659374 329.90625 26.659374Q329.21875 26.659374 328.67188 27.26875Q327.96875 28.08125 327.96875 29.64375Q327.96875 31.221874 328.65625 32.065624Q329.34375 32.909374 330.1875 32.909374Q330.89062 32.909374 331.5625 32.190624ZM336.32812 22.440624Q336.65625 22.440624 336.875 22.675Q337.10938 22.89375 337.10938 23.221874Q337.10938 23.55 336.875 23.784374Q336.65625 24.01875 336.32812 24.01875Q336.0 24.01875 335.76562 23.784374Q335.53125 23.55 335.53125 23.221874Q335.53125 22.89375 335.75 22.675Q335.98438 22.440624 336.32812 22.440624ZM336.96875 26.175L336.96875 31.925Q336.96875 32.596874 337.0625 32.83125Q337.17188 33.05 337.35938 33.159374Q337.54688 33.26875 338.0625 33.26875L338.0625 33.55L334.57812 33.55L334.57812 33.26875Q335.10938 33.26875 335.28125 33.175Q335.46875 33.065624 335.5625 32.83125Q335.67188 32.596874 335.67188 31.925L335.67188 29.175Q335.67188 28.003124 335.60938 27.659374Q335.54688 27.409374 335.42188 27.315624Q335.3125 27.221874 335.10938 27.221874Q334.89062 27.221874 334.57812 27.33125L334.46875 27.05L336.625 26.175L336.96875 26.175ZM344.78125 26.39375L344.78125 30.721874Q344.78125 31.971874 344.82812 32.253124Q344.89062 32.51875 345.01562 32.628124Q345.15625 32.7375 345.32812 32.7375Q345.5625 32.7375 345.875 32.6125L345.98438 32.878124L343.84375 33.76875L343.48438 33.76875L343.48438 32.253124Q342.5625 33.253124 342.07812 33.51875Q341.59375 33.76875 341.0625 33.76875Q340.45312 33.76875 340.01562 33.425Q339.57812 33.065624 339.40625 32.51875Q339.23438 31.971874 339.23438 30.971874L339.23438 27.784374Q339.23438 27.26875 339.125 27.08125Q339.01562 26.878124 338.79688 26.784374Q338.57812 26.675 338.01562 26.675L338.01562 26.39375L340.53125 26.39375L340.53125 31.175Q340.53125 32.175 340.875 32.4875Q341.21875 32.8 341.71875 32.8Q342.04688 32.8 342.46875 32.596874Q342.90625 32.378124 343.48438 31.784374L343.48438 27.7375Q343.48438 27.128124 343.26562 26.909374Q343.04688 26.690624 342.34375 26.675L342.34375 26.39375L344.78125 26.39375ZM348.625 27.70625Q349.40625 26.925 349.54688 26.8Q349.90625 26.503124 350.3125 26.346874Q350.71875 26.175 351.10938 26.175Q351.78125 26.175 352.26562 26.565624Q352.75 26.95625 352.92188 27.70625Q353.71875 26.76875 354.26562 26.471874Q354.82812 26.175 355.42188 26.175Q355.98438 26.175 356.42188 26.471874Q356.875 26.76875 357.125 27.425Q357.29688 27.878124 357.29688 28.846874L357.29688 31.925Q357.29688 32.596874 357.40625 32.846874Q357.48438 33.01875 357.6875 33.14375Q357.90625 33.26875 358.375 33.26875L358.375 33.55L354.84375 33.55L354.84375 33.26875L355.0 33.26875Q355.45312 33.26875 355.71875 33.08125Q355.89062 32.95625 355.96875 32.690624Q356.0 32.55 356.0 31.925L356.0 28.846874Q356.0 27.971874 355.79688 27.6125Q355.48438 27.1125 354.8125 27.1125Q354.40625 27.1125 353.98438 27.33125Q353.5625 27.534374 352.96875 28.096874L352.95312 28.175L352.96875 28.51875L352.96875 31.925Q352.96875 32.659374 353.04688 32.846874Q353.14062 33.01875 353.35938 33.14375Q353.59375 33.26875 354.14062 33.26875L354.14062 33.55L350.51562 33.55L350.51562 33.26875Q351.10938 33.26875 351.32812 33.128124Q351.5625 32.9875 351.64062 32.70625Q351.6875 32.565624 351.6875 31.925L351.6875 28.846874Q351.6875 27.971874 351.42188 27.596874Q351.07812 27.096874 350.46875 27.096874Q350.04688 27.096874 349.625 27.315624Q348.98438 27.659374 348.625 28.096874L348.625 31.925Q348.625 32.628124 348.71875 32.846874Q348.82812 33.05 349.01562 33.159374Q349.20312 33.26875 349.79688 33.26875L349.79688 33.55L346.25 33.55L346.25 33.26875Q346.75 33.26875 346.9375 33.159374Q347.14062 33.05 347.23438 32.83125Q347.34375 32.596874 347.34375 31.925L347.34375 29.190624Q347.34375 28.01875 347.26562 27.675Q347.21875 27.409374 347.09375 27.315624Q346.98438 27.221874 346.78125 27.221874Q346.5625 27.221874 346.25 27.33125L346.14062 27.05L348.29688 26.175L348.625 26.175L348.625 27.70625Z" fill-rule="nonzero"/></svg>