<svg version="1.1" viewBox="0.0 0.0 600.0 371.0" fill="none" stroke="none" stroke-linecap="square" stroke-miterlimit="10" width="600" height="371" xmlns:xlink="http://www.w3.org/1999/xlink" xmlns="http://www.w3.org/2000/svg"><path fill="#ffffff" d="M0 0L600.0 0L600.0 371.0L0 371.0L0 0Z" fill-rule="nonzero"/><path fill="#4285f4" d="M300.0 74.916664C336.40417 74.916664 371.35043 89.22222 397.30487 114.749275L300.0 213.68333Z" fill-rule="nonzero"/><path fill="#0f9d58" d="M224.80695 330.31177C173.08153 296.9632 149.50095 233.52942 166.88289 174.49118C184.26485 115.45295 238.45615 74.916664 300.0 74.916664L300.0 213.68333Z" fill-rule="nonzero"/><path fill="#f4b400" d="M287.0099 351.84064C264.849 349.757 243.51453 342.373 224.80695 330.31177L300.0 213.68333Z" fill-rule="nonzero"/><path fill="#db4437" d="M397.30487 114.749275C439.16476 155.91983 450.58356 218.97923 425.8186 272.2142C401.05368 325.4492 345.46545 357.33688 287.0099 351.84064L300.0 213.68333Z" fill-rule="nonzero"/><path fill="#757575" d="M20.753124 171.95079L19.628124 171.95079L19.628124 163.41954L20.753124 163.41954L20.753124 171.95079ZM23.39375 165.60704L23.425 166.40392Q24.159374 165.49767 25.33125 165.49767Q27.346874 165.49767 27.3625 167.76329L27.3625 171.95079L26.26875 171.95079L26.26875 167.74767Q26.26875 167.07579 25.95625 166.74767Q25.659374 166.41954 25.003124 166.41954Q24.471874 166.41954 24.065624 166.70079Q23.675 166.98204 23.45625 167.43517L23.45625 171.95079L22.378124 171.95079L22.378124 165.60704L23.39375 165.60704ZM31.628124 168.76329L28.76875 168.76329L28.76875 167.88829L31.628124 167.88829L31.628124 168.76329ZM33.39375 165.60704L33.425 166.40392Q34.159374 165.49767 35.33125 165.49767Q37.346874 165.49767 37.3625 167.76329L37.3625 171.95079L36.26875 171.95079L36.26875 167.74767Q36.26875 167.07579 35.95625 166.74767Q35.659374 166.41954 35.003124 166.41954Q34.471874 166.41954 34.065624 166.70079Q33.675 166.98204 33.45625 167.43517L33.45625 171.95079L32.378124 171.95079L32.378124 165.60704L33.39375 165.60704ZM42.003124 172.07579Q40.70625 172.07579 39.89375 171.23204Q39.096874 170.37267 39.096874 168.95079L39.096874 168.76329Q39.096874 167.81017 39.45625 167.07579Q39.815624 166.32579 40.45625 165.91954Q41.1125 165.49767 41.8625 165.49767Q43.096874 165.49767 43.784374 166.31017Q44.471874 167.12267 44.471874 168.63829L44.471874 169.09142L40.175 169.09142Q40.20625 170.02892 40.721874 170.60704Q41.253124 171.18517 42.065624 171.18517Q42.628124 171.18517 43.01875 170.95079Q43.425 170.71642 43.7375 170.32579L44.39375 170.84142Q43.596874 172.07579 42.003124 172.07579ZM41.8625 166.38829Q41.20625 166.38829 40.753124 166.87267Q40.315624 167.34142 40.221874 168.20079L43.39375 168.20079L43.39375 168.12267Q43.346874 167.29454 42.940624 166.84142Q42.55 166.38829 41.8625 166.38829ZM46.846874 164.07579L46.846874 165.60704L48.01875 165.60704L48.01875 166.45079L46.846874 166.45079L46.846874 170.37267Q46.846874 170.76329 47.003124 170.95079Q47.159374 171.13829 47.534374 171.13829Q47.721874 171.13829 48.05 171.07579L48.05 171.95079Q47.628124 172.07579 47.221874 172.07579Q46.503124 172.07579 46.128124 171.63829Q45.753124 171.18517 45.753124 170.37267L45.753124 166.45079L44.596874 166.45079L44.596874 165.60704L45.753124 165.60704L45.753124 164.07579L46.846874 164.07579ZM54.9875 170.45079L56.20625 165.60704L57.284374 165.60704L55.440624 171.95079L54.565624 171.95079L53.01875 167.13829L51.51875 171.95079L50.64375 171.95079L48.8 165.60704L49.878124 165.60704L51.128124 170.35704L52.6125 165.60704L53.471874 165.60704L54.9875 170.45079ZM58.08125 168.71642Q58.08125 167.79454 58.440624 167.04454Q58.815624 166.29454 59.471874 165.90392Q60.128124 165.49767 60.95625 165.49767Q62.253124 165.49767 63.05 166.38829Q63.8625 167.27892 63.8625 168.77892L63.8625 168.85704Q63.8625 169.77892 63.503124 170.51329Q63.14375 171.24767 62.4875 171.66954Q61.83125 172.07579 60.971874 172.07579Q59.690624 172.07579 58.878124 171.18517Q58.08125 170.27892 58.08125 168.79454L58.08125 168.71642ZM59.175 168.85704Q59.175 169.90392 59.659374 170.54454Q60.159374 171.18517 60.971874 171.18517Q61.8 171.18517 62.284374 170.54454Q62.76875 169.88829 62.76875 168.71642Q62.76875 167.68517 62.26875 167.04454Q61.784374 166.38829 60.95625 166.38829Q60.159374 166.38829 59.659374 167.02892Q59.175 167.65392 59.175 168.85704ZM68.44063 166.57579Q68.19063 166.54454 67.90938 166.54454Q66.83125 166.54454 66.45625 167.45079L66.45625 171.95079L65.37813 171.95079L65.37813 165.60704L66.425 165.60704L66.44063 166.34142Q66.97188 165.49767 67.95625 165.49767Q68.26875 165.49767 68.44063 165.57579L68.44063 166.57579ZM71.14375 169.01329L70.45625 169.71642L70.45625 171.95079L69.37813 171.95079L69.37813 162.95079L70.45625 162.95079L70.45625 168.38829L71.03438 167.70079L73.01875 165.60704L74.33125 165.60704L71.8625 168.26329L74.62813 171.95079L73.34688 171.95079L71.14375 169.01329Z" fill-rule="nonzero"/><path fill="#9e9e9e" d="M23.83125 187.09142L25.01875 187.09142L25.01875 187.96642L23.83125 187.96642L23.83125 189.95079L22.753124 189.95079L22.753124 187.96642L18.8625 187.96642L18.8625 187.32579L22.675 181.41954L23.83125 181.41954L23.83125 187.09142ZM20.096874 187.09142L22.753124 187.09142L22.753124 182.90392L22.6125 183.13829L20.096874 187.09142ZM31.6125 186.31017Q31.6125 188.21642 30.95625 189.15392Q30.315624 190.07579 28.925 190.07579Q27.565624 190.07579 26.909374 189.16954Q26.253124 188.26329 26.221874 186.45079L26.221874 185.01329Q26.221874 183.12267 26.8625 182.21642Q27.51875 181.29454 28.909374 181.29454Q30.284374 181.29454 30.940624 182.18517Q31.596874 183.06017 31.6125 184.90392L31.6125 186.31017ZM30.51875 184.82579Q30.51875 183.45079 30.128124 182.82579Q29.753124 182.18517 28.909374 182.18517Q28.08125 182.18517 27.690624 182.82579Q27.315624 183.45079 27.315624 184.74767L27.315624 186.48204Q27.315624 187.85704 27.70625 188.52892Q28.1125 189.18517 28.925 189.18517Q29.721874 189.18517 30.1125 188.56017Q30.503124 187.93517 30.51875 186.60704L30.51875 184.82579ZM33.39375 189.38829Q33.39375 189.10704 33.55 188.91954Q33.721874 188.73204 34.05 188.73204Q34.39375 188.73204 34.565624 188.91954Q34.7375 189.10704 34.7375 189.38829Q34.7375 189.65392 34.565624 189.84142Q34.39375 190.01329 34.05 190.01329Q33.721874 190.01329 33.55 189.84142Q33.39375 189.65392 33.39375 189.38829ZM40.409374 186.20079Q40.08125 186.60704 39.596874 186.85704Q39.128124 187.09142 38.565624 187.09142Q37.83125 187.09142 37.284374 186.73204Q36.7375 186.37267 36.440624 185.71642Q36.14375 185.04454 36.14375 184.24767Q36.14375 183.40392 36.45625 182.71642Q36.784374 182.02892 37.378124 181.66954Q37.9875 181.29454 38.784374 181.29454Q40.05 181.29454 40.76875 182.24767Q41.503124 183.20079 41.503124 184.82579L41.503124 185.13829Q41.503124 187.63829 40.51875 188.77892Q39.534374 189.91954 37.55 189.95079L37.33125 189.95079L37.33125 189.04454L37.565624 189.04454Q38.909374 189.01329 39.628124 188.34142Q40.346874 187.66954 40.409374 186.20079ZM38.7375 186.20079Q39.284374 186.20079 39.7375 185.87267Q40.20625 185.52892 40.425 185.04454L40.425 184.60704Q40.425 183.54454 39.95625 182.87267Q39.4875 182.20079 38.784374 182.20079Q38.065624 182.20079 37.628124 182.74767Q37.20625 183.29454 37.20625 184.20079Q37.20625 185.07579 37.6125 185.63829Q38.034374 186.20079 38.7375 186.20079ZM43.159374 183.06017Q43.159374 182.29454 43.64375 181.79454Q44.14375 181.29454 44.909374 181.29454Q45.690624 181.29454 46.175 181.79454Q46.659374 182.29454 46.659374 183.09142L46.659374 183.51329Q46.659374 184.27892 46.159374 184.77892Q45.675 185.26329 44.925 185.26329Q44.159374 185.26329 43.659374 184.77892Q43.159374 184.27892 43.159374 183.46642L43.159374 183.06017ZM43.971874 183.51329Q43.971874 183.96642 44.221874 184.26329Q44.4875 184.56017 44.925 184.56017Q45.346874 184.56017 45.596874 184.27892Q45.846874 183.98204 45.846874 183.48204L45.846874 183.06017Q45.846874 182.60704 45.596874 182.31017Q45.346874 181.99767 44.909374 181.99767Q44.471874 181.99767 44.221874 182.31017Q43.971874 182.60704 43.971874 183.07579L43.971874 183.51329ZM47.315624 187.85704Q47.315624 187.09142 47.8 186.60704Q48.3 186.10704 49.065624 186.10704Q49.83125 186.10704 50.315624 186.60704Q50.815624 187.09142 50.815624 187.90392L50.815624 188.31017Q50.815624 189.07579 50.33125 189.57579Q49.846874 190.07579 49.08125 190.07579Q48.315624 190.07579 47.815624 189.59142Q47.315624 189.09142 47.315624 188.27892L47.315624 187.85704ZM48.128124 188.31017Q48.128124 188.77892 48.378124 189.07579Q48.64375 189.37267 49.08125 189.37267Q49.503124 189.37267 49.753124 189.09142Q50.003124 188.79454 50.003124 188.29454L50.003124 187.85704Q50.003124 187.38829 49.7375 187.10704Q49.4875 186.81017 49.065624 186.81017Q48.64375 186.81017 48.378124 187.10704Q48.128124 187.38829 48.128124 187.88829L48.128124 188.31017ZM45.175 189.31017L44.55 188.91954L48.721874 182.24767L49.33125 182.63829L45.175 189.31017Z" fill-rule="nonzero"/><path stroke="#757575" stroke-width="1.0" stroke-linecap="butt" d="M18.55 176.45079L155.23334 176.45079L173.53876 176.45079" fill-rule="nonzero"/><path fill="#9e9e9e" d="M175.53876 176.45079C175.53876 175.34622 174.64333 174.45079 173.53876 174.45079C172.43419 174.45079 171.53876 175.34622 171.53876 176.45079C171.53876 177.55536 172.43419 178.45079 173.53876 178.45079C174.64333 178.45079 175.53876 177.55536 175.53876 176.45079" fill-rule="nonzero"/><path fill="#757575" d="M24.3625 327.5125L20.659374 327.5125L20.659374 330.52814L24.95625 330.52814L24.95625 331.45L19.534374 331.45L19.534374 322.91876L24.909374 322.91876L24.909374 323.84064L20.659374 323.84064L20.659374 326.59064L24.3625 326.59064L24.3625 327.5125ZM28.503124 327.41876L29.909374 325.10626L31.175 325.10626L29.096874 328.2469L31.2375 331.45L29.9875 331.45L28.51875 329.075L27.05 331.45L25.784374 331.45L27.925 328.2469L25.8625 325.10626L27.1125 325.10626L28.503124 327.41876ZM34.628124 328.2625L31.76875 328.2625L31.76875 327.3875L34.628124 327.3875L34.628124 328.2625ZM37.909374 330.6844Q38.4875 330.6844 38.925 330.34064Q39.3625 329.98126 39.409374 329.45L40.440624 329.45Q40.409374 329.9969 40.05 330.4969Q39.70625 330.98126 39.128124 331.27814Q38.565624 331.575 37.909374 331.575Q36.6125 331.575 35.846874 330.71564Q35.096874 329.84064 35.096874 328.34064L35.096874 328.15314Q35.096874 327.23126 35.425 326.5125Q35.76875 325.79376 36.39375 325.40314Q37.034374 324.9969 37.909374 324.9969Q38.971874 324.9969 39.675 325.6375Q40.39375 326.2625 40.440624 327.29376L39.409374 327.29376Q39.3625 326.66876 38.940624 326.27814Q38.51875 325.8875 37.909374 325.8875Q37.08125 325.8875 36.628124 326.48126Q36.175 327.075 36.175 328.2L36.175 328.40314Q36.175 329.4969 36.628124 330.09064Q37.08125 330.6844 37.909374 330.6844ZM42.55 331.45L41.471874 331.45L41.471874 322.45L42.55 322.45L42.55 331.45ZM45.55 331.45L44.471874 331.45L44.471874 325.10626L45.55 325.10626L45.55 331.45ZM44.378124 323.4344Q44.378124 323.16876 44.534374 322.98126Q44.70625 322.79376 45.01875 322.79376Q45.33125 322.79376 45.4875 322.98126Q45.659374 323.16876 45.659374 323.4344Q45.659374 323.6844 45.4875 323.8719Q45.33125 324.04376 45.01875 324.04376Q44.70625 324.04376 44.534374 323.8719Q44.378124 323.6844 44.378124 323.4344ZM50.003124 331.575Q48.70625 331.575 47.89375 330.73126Q47.096874 329.8719 47.096874 328.45L47.096874 328.2625Q47.096874 327.3094 47.45625 326.575Q47.815624 325.825 48.45625 325.41876Q49.1125 324.9969 49.8625 324.9969Q51.096874 324.9969 51.784374 325.8094Q52.471874 326.6219 52.471874 328.1375L52.471874 328.59064L48.175 328.59064Q48.20625 329.52814 48.721874 330.10626Q49.253124 330.6844 50.065624 330.6844Q50.628124 330.6844 51.01875 330.45Q51.425 330.21564 51.7375 329.825L52.39375 330.34064Q51.596874 331.575 50.003124 331.575ZM49.8625 325.8875Q49.20625 325.8875 48.753124 326.3719Q48.315624 326.84064 48.221874 327.7L51.39375 327.7L51.39375 327.6219Q51.346874 326.79376 50.940624 326.34064Q50.55 325.8875 49.8625 325.8875ZM54.39375 325.10626L54.425 325.90314Q55.159374 324.9969 56.33125 324.9969Q58.346874 324.9969 58.3625 327.2625L58.3625 331.45L57.26875 331.45L57.26875 327.2469Q57.26875 326.575 56.95625 326.2469Q56.659374 325.91876 56.003124 325.91876Q55.471874 325.91876 55.065624 326.2Q54.675 326.48126 54.45625 326.9344L54.45625 331.45L53.378124 331.45L53.378124 325.10626L54.39375 325.10626ZM61.846874 323.575L61.846874 325.10626L63.01875 325.10626L63.01875 325.95L61.846874 325.95L61.846874 329.8719Q61.846874 330.2625 62.003124 330.45Q62.159374 330.6375 62.534374 330.6375Q62.721874 330.6375 63.05 330.575L63.05 331.45Q62.628124 331.575 62.221874 331.575Q61.503124 331.575 61.128124 331.1375Q60.753124 330.6844 60.753124 329.8719L60.753124 325.95L59.596874 325.95L59.596874 325.10626L60.753124 325.10626L60.753124 323.575L61.846874 323.575Z" fill-rule="nonzero"/><path fill="#9e9e9e" d="M24.76875 341.52814L21.2375 349.45L20.096874 349.45L23.6125 341.8094L19.003124 341.8094L19.003124 340.91876L24.76875 340.91876L24.76875 341.52814ZM26.39375 348.8875Q26.39375 348.60626 26.55 348.41876Q26.721874 348.23126 27.05 348.23126Q27.39375 348.23126 27.565624 348.41876Q27.7375 348.60626 27.7375 348.8875Q27.7375 349.15314 27.565624 349.34064Q27.39375 349.5125 27.05 349.5125Q26.721874 349.5125 26.55 349.34064Q26.39375 349.15314 26.39375 348.8875ZM33.51875 340.91876L33.51875 341.825L33.315624 341.825Q32.05 341.85626 31.3 342.59064Q30.55 343.3094 30.425 344.6219Q31.1125 343.85626 32.26875 343.85626Q33.378124 343.85626 34.05 344.6375Q34.721874 345.41876 34.721874 346.66876Q34.721874 347.98126 34.003124 348.77814Q33.284374 349.575 32.065624 349.575Q30.846874 349.575 30.08125 348.6375Q29.33125 347.6844 29.33125 346.2L29.33125 345.79376Q29.33125 343.4344 30.33125 342.1844Q31.33125 340.9344 33.315624 340.91876L33.51875 340.91876ZM32.096874 344.7625Q31.534374 344.7625 31.065624 345.09064Q30.596874 345.41876 30.409374 345.9344L30.409374 346.325Q30.409374 347.3875 30.878124 348.02814Q31.3625 348.66876 32.065624 348.66876Q32.8 348.66876 33.221874 348.1375Q33.64375 347.59064 33.64375 346.71564Q33.64375 345.84064 33.221874 345.3094Q32.8 344.7625 32.096874 344.7625ZM36.159374 342.5594Q36.159374 341.79376 36.64375 341.29376Q37.14375 340.79376 37.909374 340.79376Q38.690624 340.79376 39.175 341.29376Q39.659374 341.79376 39.659374 342.59064L39.659374 343.0125Q39.659374 343.77814 39.159374 344.27814Q38.675 344.7625 37.925 344.7625Q37.159374 344.7625 36.659374 344.27814Q36.159374 343.77814 36.159374 342.96564L36.159374 342.5594ZM36.971874 343.0125Q36.971874 343.46564 37.221874 343.7625Q37.4875 344.0594 37.925 344.0594Q38.346874 344.0594 38.596874 343.77814Q38.846874 343.48126 38.846874 342.98126L38.846874 342.5594Q38.846874 342.10626 38.596874 341.8094Q38.346874 341.4969 37.909374 341.4969Q37.471874 341.4969 37.221874 341.8094Q36.971874 342.10626 36.971874 342.575L36.971874 343.0125ZM40.315624 347.35626Q40.315624 346.59064 40.8 346.10626Q41.3 345.60626 42.065624 345.60626Q42.83125 345.60626 43.315624 346.10626Q43.815624 346.59064 43.815624 347.40314L43.815624 347.8094Q43.815624 348.575 43.33125 349.075Q42.846874 349.575 42.08125 349.575Q41.315624 349.575 40.815624 349.09064Q40.315624 348.59064 40.315624 347.77814L40.315624 347.35626ZM41.128124 347.8094Q41.128124 348.27814 41.378124 348.575Q41.64375 348.8719 42.08125 348.8719Q42.503124 348.8719 42.753124 348.59064Q43.003124 348.29376 43.003124 347.79376L43.003124 347.35626Q43.003124 346.8875 42.7375 346.60626Q42.4875 346.3094 42.065624 346.3094Q41.64375 346.3094 41.378124 346.60626Q41.128124 346.8875 41.128124 347.3875L41.128124 347.8094ZM38.175 348.8094L37.55 348.41876L41.721874 341.7469L42.33125 342.1375L38.175 348.8094Z" fill-rule="nonzero"/><path stroke="#757575" stroke-width="1.0" stroke-linecap="butt" d="M18.55 335.95L155.23334 335.95L256.88275 338.26108" fill-rule="nonzero"/><path fill="#9e9e9e" d="M258.88275 338.26108C258.88275 337.1565 257.9873 336.26108 256.88275 336.26108C255.77818 336.26108 254.88275 337.1565 254.88275 338.26108C254.88275 339.36563 255.77818 340.26108 256.88275 340.26108C257.9873 340.26108 258.88275 339.36563 258.88275 338.26108" fill-rule="nonzero"/><path fill="#757575" d="M507.9969 83.197105Q507.9969 84.447105 507.575 85.384605Q507.15314 86.30648 506.3719 86.80648Q505.60626 87.30648 504.575 87.30648Q503.575 87.30648 502.79376 86.80648Q502.0125 86.30648 501.575 85.40023Q501.15314 84.478355 501.1375 83.259605L501.1375 82.65023Q501.1375 81.415855 501.5594 80.478355Q501.9969 79.540855 502.77814 79.040855Q503.5594 78.52523 504.575 78.52523Q505.59064 78.52523 506.3719 79.02523Q507.15314 79.52523 507.575 80.46273Q507.9969 81.40023 507.9969 82.65023L507.9969 83.197105ZM506.8875 82.634605Q506.8875 81.11898 506.27814 80.30648Q505.66876 79.49398 504.575 79.49398Q503.4969 79.49398 502.8875 80.30648Q502.27814 81.11898 502.2625 82.55648L502.2625 83.197105Q502.2625 84.665855 502.8719 85.509605Q503.4969 86.33773 504.575 86.33773Q505.66876 86.33773 506.2625 85.55648Q506.8719 84.759605 506.8875 83.27523L506.8875 82.634605ZM513.1844 86.55648Q512.5594 87.30648 511.325 87.30648Q510.3094 87.30648 509.77814 86.71273Q509.2469 86.11898 509.2469 84.96273L509.2469 80.83773L510.325 80.83773L510.325 84.93148Q510.325 86.384605 511.4969 86.384605Q512.7469 86.384605 513.15314 85.447105L513.15314 80.83773L514.2469 80.83773L514.2469 87.18148L513.21564 87.18148L513.1844 86.55648ZM517.7469 79.30648L517.7469 80.83773L518.91876 80.83773L518.91876 81.68148L517.7469 81.68148L517.7469 85.603355Q517.7469 85.99398 517.90314 86.18148Q518.0594 86.36898 518.4344 86.36898Q518.6219 86.36898 518.95 86.30648L518.95 87.18148Q518.52814 87.30648 518.1219 87.30648Q517.40314 87.30648 517.02814 86.86898Q516.65314 86.415855 516.65314 85.603355L516.65314 81.68148L515.4969 81.68148L515.4969 80.83773L516.65314 80.83773L516.65314 79.30648L517.7469 79.30648ZM522.98126 83.947105Q522.98126 83.02523 523.34064 82.27523Q523.71564 81.52523 524.3719 81.134605Q525.02814 80.728355 525.85626 80.728355Q527.15314 80.728355 527.95 81.61898Q528.7625 82.509605 528.7625 84.009605L528.7625 84.08773Q528.7625 85.009605 528.40314 85.74398Q528.04376 86.478355 527.3875 86.90023Q526.73126 87.30648 525.8719 87.30648Q524.59064 87.30648 523.77814 86.415855Q522.98126 85.509605 522.98126 84.02523L522.98126 83.947105ZM524.075 84.08773Q524.075 85.134605 524.5594 85.77523Q525.0594 86.415855 525.8719 86.415855Q526.7 86.415855 527.1844 85.77523Q527.66876 85.11898 527.66876 83.947105Q527.66876 82.915855 527.16876 82.27523Q526.6844 81.61898 525.85626 81.61898Q525.0594 81.61898 524.5594 82.259605Q524.075 82.884605 524.075 84.08773ZM530.8094 87.18148L530.8094 81.68148L529.8094 81.68148L529.8094 80.83773L530.8094 80.83773L530.8094 80.197105Q530.8094 79.165855 531.34064 78.61898Q531.8875 78.05648 532.8875 78.05648Q533.2625 78.05648 533.6375 78.15023L533.575 79.040855Q533.29376 78.978355 532.9969 78.978355Q532.46564 78.978355 532.16876 79.290855Q531.8875 79.603355 531.8875 80.165855L531.8875 80.83773L533.2469 80.83773L533.2469 81.68148L531.8875 81.68148L531.8875 87.18148L530.8094 87.18148ZM543.9969 87.18148L542.8719 87.18148L538.575 80.603355L538.575 87.18148L537.4344 87.18148L537.4344 78.65023L538.575 78.65023L542.8719 85.259605L542.8719 78.65023L543.9969 78.65023L543.9969 87.18148ZM548.90314 87.30648Q547.60626 87.30648 546.79376 86.46273Q545.9969 85.603355 545.9969 84.18148L545.9969 83.99398Q545.9969 83.040855 546.35626 82.30648Q546.71564 81.55648 547.35626 81.15023Q548.0125 80.728355 548.7625 80.728355Q549.9969 80.728355 550.6844 81.540855Q551.3719 82.353355 551.3719 83.86898L551.3719 84.322105L547.075 84.322105Q547.10626 85.259605 547.6219 85.83773Q548.15314 86.415855 548.96564 86.415855Q549.52814 86.415855 549.91876 86.18148Q550.325 85.947105 550.6375 85.55648L551.29376 86.072105Q550.4969 87.30648 548.90314 87.30648ZM548.7625 81.61898Q548.10626 81.61898 547.65314 82.103355Q547.21564 82.572105 547.1219 83.43148L550.29376 83.43148L550.29376 83.353355Q550.2469 82.52523 549.84064 82.072105Q549.45 81.61898 548.7625 81.61898ZM553.7469 79.30648L553.7469 80.83773L554.91876 80.83773L554.91876 81.68148L553.7469 81.68148L553.7469 85.603355Q553.7469 85.99398 553.90314 86.18148Q554.0594 86.36898 554.4344 86.36898Q554.6219 86.36898 554.95 86.30648L554.95 87.18148Q554.52814 87.30648 554.1219 87.30648Q553.40314 87.30648 553.02814 86.86898Q552.65314 86.415855 552.65314 85.603355L552.65314 81.68148L551.4969 81.68148L551.4969 80.83773L552.65314 80.83773L552.65314 79.30648L553.7469 79.30648ZM561.8875 85.68148L563.10626 80.83773L564.1844 80.83773L562.34064 87.18148L561.46564 87.18148L559.91876 82.36898L558.41876 87.18148L557.54376 87.18148L555.7 80.83773L556.77814 80.83773L558.02814 85.58773L559.5125 80.83773L560.3719 80.83773L561.8875 85.68148ZM564.98126 83.947105Q564.98126 83.02523 565.34064 82.27523Q565.71564 81.52523 566.3719 81.134605Q567.02814 80.728355 567.85626 80.728355Q569.15314 80.728355 569.95 81.61898Q570.7625 82.509605 570.7625 84.009605L570.7625 84.08773Q570.7625 85.009605 570.40314 85.74398Q570.04376 86.478355 569.3875 86.90023Q568.73126 87.30648 567.8719 87.30648Q566.59064 87.30648 565.77814 86.415855Q564.98126 85.509605 564.98126 84.02523L564.98126 83.947105ZM566.075 84.08773Q566.075 85.134605 566.5594 85.77523Q567.0594 86.415855 567.8719 86.415855Q568.7 86.415855 569.1844 85.77523Q569.66876 85.11898 569.66876 83.947105Q569.66876 82.915855 569.16876 82.27523Q568.6844 81.61898 567.85626 81.61898Q567.0594 81.61898 566.5594 82.259605Q566.075 82.884605 566.075 84.08773ZM575.34064 81.80648Q575.09064 81.77523 574.8094 81.77523Q573.73126 81.77523 573.35626 82.68148L573.35626 87.18148L572.27814 87.18148L572.27814 80.83773L573.325 80.83773L573.34064 81.572105Q573.8719 80.728355 574.85626 80.728355Q575.16876 80.728355 575.34064 80.80648L575.34064 81.80648ZM578.04376 84.24398L577.35626 84.947105L577.35626 87.18148L576.27814 87.18148L576.27814 78.18148L577.35626 78.18148L577.35626 83.61898L577.9344 82.93148L579.91876 80.83773L581.23126 80.83773L578.7625 83.49398L581.52814 87.18148L580.2469 87.18148L578.04376 84.24398Z" fill-rule="nonzero"/><path fill="#9e9e9e" d="M552.71564 105.18148L551.6375 105.18148L551.6375 97.96273L549.45 98.759605L549.45 97.77523L552.5594 96.603355L552.71564 96.603355L552.71564 105.18148ZM561.7469 105.18148L556.15314 105.18148L556.15314 104.40023L559.10626 101.11898Q559.7625 100.36898 560.0125 99.915855Q560.2625 99.447105 560.2625 98.947105Q560.2625 98.27523 559.85626 97.853355Q559.46564 97.415855 558.77814 97.415855Q557.98126 97.415855 557.52814 97.884605Q557.075 98.33773 557.075 99.165855L555.9969 99.165855Q555.9969 97.978355 556.7469 97.259605Q557.5125 96.52523 558.77814 96.52523Q559.98126 96.52523 560.66876 97.15023Q561.35626 97.77523 561.35626 98.822105Q561.35626 100.072105 559.7469 101.822105L557.46564 104.290855L561.7469 104.290855L561.7469 105.18148ZM563.29376 104.61898Q563.29376 104.33773 563.45 104.15023Q563.6219 103.96273 563.95 103.96273Q564.29376 103.96273 564.46564 104.15023Q564.6375 104.33773 564.6375 104.61898Q564.6375 104.884605 564.46564 105.072105Q564.29376 105.24398 563.95 105.24398Q563.6219 105.24398 563.45 105.072105Q563.29376 104.884605 563.29376 104.61898ZM570.73126 102.322105L571.91876 102.322105L571.91876 103.197105L570.73126 103.197105L570.73126 105.18148L569.65314 105.18148L569.65314 103.197105L565.7625 103.197105L565.7625 102.55648L569.575 96.65023L570.73126 96.65023L570.73126 102.322105ZM566.9969 102.322105L569.65314 102.322105L569.65314 98.134605L569.5125 98.36898L566.9969 102.322105ZM573.0594 98.290855Q573.0594 97.52523 573.54376 97.02523Q574.04376 96.52523 574.8094 96.52523Q575.59064 96.52523 576.075 97.02523Q576.5594 97.52523 576.5594 98.322105L576.5594 98.74398Q576.5594 99.509605 576.0594 100.009605Q575.575 100.49398 574.825 100.49398Q574.0594 100.49398 573.5594 100.009605Q573.0594 99.509605 573.0594 98.697105L573.0594 98.290855ZM573.8719 98.74398Q573.8719 99.197105 574.1219 99.49398Q574.3875 99.790855 574.825 99.790855Q575.2469 99.790855 575.4969 99.509605Q575.7469 99.21273 575.7469 98.71273L575.7469 98.290855Q575.7469 97.83773 575.4969 97.540855Q575.2469 97.228355 574.8094 97.228355Q574.3719 97.228355 574.1219 97.540855Q573.8719 97.83773 573.8719 98.30648L573.8719 98.74398ZM577.21564 103.08773Q577.21564 102.322105 577.7 101.83773Q578.2 101.33773 578.96564 101.33773Q579.73126 101.33773 580.21564 101.83773Q580.71564 102.322105 580.71564 103.134605L580.71564 103.540855Q580.71564 104.30648 580.23126 104.80648Q579.7469 105.30648 578.98126 105.30648Q578.21564 105.30648 577.71564 104.822105Q577.21564 104.322105 577.21564 103.509605L577.21564 103.08773ZM578.02814 103.540855Q578.02814 104.009605 578.27814 104.30648Q578.54376 104.603355 578.98126 104.603355Q579.40314 104.603355 579.65314 104.322105Q579.90314 104.02523 579.90314 103.52523L579.90314 103.08773Q579.90314 102.61898 579.6375 102.33773Q579.3875 102.040855 578.96564 102.040855Q578.54376 102.040855 578.27814 102.33773Q578.02814 102.61898 578.02814 103.11898L578.02814 103.540855ZM575.075 104.540855L574.45 104.15023L578.6219 97.478355L579.23126 97.86898L575.075 104.540855Z" fill-rule="nonzero"/><path stroke="#757575" stroke-width="1.0" stroke-linecap="butt" d="M581.45 91.68148L444.76666 91.68148L349.94254 91.68148" fill-rule="nonzero"/><path fill="#9e9e9e" d="M351.94254 91.68148C351.94254 90.576904 351.0471 89.68148 349.94254 89.68148C348.83795 89.68148 347.94254 90.576904 347.94254 91.68148C347.94254 92.78605 348.83795 93.68148 349.94254 93.68148C351.0471 93.68148 351.94254 92.78605 351.94254 91.68148" fill-rule="nonzero"/><path fill="#757575" d="M499.9969 264.78766L498.8719 264.78766L494.575 258.20953L494.575 264.78766L493.4344 264.78766L493.4344 256.2564L494.575 256.2564L498.8719 262.86578L498.8719 256.2564L499.9969 256.2564L499.9969 264.78766ZM504.90314 264.91266Q503.60626 264.91266 502.79376 264.0689Q501.9969 263.20953 501.9969 261.78766L501.9969 261.60016Q501.9969 260.64703 502.35626 259.91266Q502.71564 259.16266 503.35626 258.7564Q504.0125 258.33453 504.7625 258.33453Q505.9969 258.33453 506.6844 259.14703Q507.3719 259.95953 507.3719 261.47516L507.3719 261.92828L503.075 261.92828Q503.10626 262.86578 503.6219 263.4439Q504.15314 264.02203 504.96564 264.02203Q505.52814 264.02203 505.91876 263.78766Q506.325 263.55328 506.6375 263.16266L507.29376 263.67828Q506.4969 264.91266 504.90314 264.91266ZM504.7625 259.22516Q504.10626 259.22516 503.65314 259.70953Q503.21564 260.17828 503.1219 261.03766L506.29376 261.03766L506.29376 260.95953Q506.2469 260.1314 505.84064 259.67828Q505.45 259.22516 504.7625 259.22516ZM509.7469 256.91266L509.7469 258.4439L510.91876 258.4439L510.91876 259.28766L509.7469 259.28766L509.7469 263.20953Q509.7469 263.60016 509.90314 263.78766Q510.0594 263.97516 510.4344 263.97516Q510.6219 263.97516 510.95 263.91266L510.95 264.78766Q510.52814 264.91266 510.1219 264.91266Q509.40314 264.91266 509.02814 264.47516Q508.65314 264.02203 508.65314 263.20953L508.65314 259.28766L507.4969 259.28766L507.4969 258.4439L508.65314 258.4439L508.65314 256.91266L509.7469 256.91266ZM517.8875 263.28766L519.10626 258.4439L520.1844 258.4439L518.34064 264.78766L517.46564 264.78766L515.91876 259.97516L514.41876 264.78766L513.54376 264.78766L511.7 258.4439L512.77814 258.4439L514.02814 263.1939L515.5125 258.4439L516.3719 258.4439L517.8875 263.28766ZM520.98126 261.55328Q520.98126 260.6314 521.34064 259.8814Q521.71564 259.1314 522.3719 258.74078Q523.02814 258.33453 523.85626 258.33453Q525.15314 258.33453 525.95 259.22516Q526.7625 260.11578 526.7625 261.61578L526.7625 261.6939Q526.7625 262.61578 526.40314 263.35016Q526.04376 264.08453 525.3875 264.5064Q524.73126 264.91266 523.8719 264.91266Q522.59064 264.91266 521.77814 264.02203Q520.98126 263.11578 520.98126 261.6314L520.98126 261.55328ZM522.075 261.6939Q522.075 262.74078 522.5594 263.3814Q523.0594 264.02203 523.8719 264.02203Q524.7 264.02203 525.1844 263.3814Q525.66876 262.72516 525.66876 261.55328Q525.66876 260.52203 525.16876 259.8814Q524.6844 259.22516 523.85626 259.22516Q523.0594 259.22516 522.5594 259.86578Q522.075 260.49078 522.075 261.6939ZM531.34064 259.41266Q531.09064 259.3814 530.8094 259.3814Q529.73126 259.3814 529.35626 260.28766L529.35626 264.78766L528.27814 264.78766L528.27814 258.4439L529.325 258.4439L529.34064 259.17828Q529.8719 258.33453 530.85626 258.33453Q531.16876 258.33453 531.34064 258.41266L531.34064 259.41266ZM534.04376 261.85016L533.35626 262.55328L533.35626 264.78766L532.27814 264.78766L532.27814 255.78766L533.35626 255.78766L533.35626 261.22516L533.9344 260.53766L535.91876 258.4439L537.23126 258.4439L534.7625 261.10016L537.52814 264.78766L536.2469 264.78766L534.04376 261.85016ZM544.575 261.33453L542.5594 261.33453L542.5594 264.78766L541.4344 264.78766L541.4344 256.2564L544.2625 256.2564Q545.7 256.2564 546.46564 256.91266Q547.2469 257.5689 547.2469 258.8189Q547.2469 259.61578 546.8094 260.20953Q546.3875 260.80328 545.6219 261.10016L547.6219 264.70953L547.6219 264.78766L546.41876 264.78766L544.575 261.33453ZM542.5594 260.41266L544.29376 260.41266Q545.1375 260.41266 545.6219 259.99078Q546.1219 259.55328 546.1219 258.8189Q546.1219 258.03766 545.65314 257.61578Q545.1844 257.1939 544.29376 257.17828L542.5594 257.17828L542.5594 260.41266ZM550.90314 264.91266Q549.60626 264.91266 548.79376 264.0689Q547.9969 263.20953 547.9969 261.78766L547.9969 261.60016Q547.9969 260.64703 548.35626 259.91266Q548.71564 259.16266 549.35626 258.7564Q550.0125 258.33453 550.7625 258.33453Q551.9969 258.33453 552.6844 259.14703Q553.3719 259.95953 553.3719 261.47516L553.3719 261.92828L549.075 261.92828Q549.10626 262.86578 549.6219 263.4439Q550.15314 264.02203 550.96564 264.02203Q551.52814 264.02203 551.91876 263.78766Q552.325 263.55328 552.6375 263.16266L553.29376 263.67828Q552.4969 264.91266 550.90314 264.91266ZM550.7625 259.22516Q550.10626 259.22516 549.65314 259.70953Q549.21564 260.17828 549.1219 261.03766L552.29376 261.03766L552.29376 260.95953Q552.2469 260.1314 551.84064 259.67828Q551.45 259.22516 550.7625 259.22516ZM554.8094 264.78766L554.8094 259.28766L553.8094 259.28766L553.8094 258.4439L554.8094 258.4439L554.8094 257.80328Q554.8094 256.77203 555.34064 256.22516Q555.8875 255.66266 556.8875 255.66266Q557.2625 255.66266 557.6375 255.75641L557.575 256.64703Q557.29376 256.58453 556.9969 256.58453Q556.46564 256.58453 556.16876 256.89703Q555.8875 257.20953 555.8875 257.77203L555.8875 258.4439L557.2469 258.4439L557.2469 259.28766L555.8875 259.28766L555.8875 264.78766L554.8094 264.78766ZM560.90314 264.91266Q559.60626 264.91266 558.79376 264.0689Q557.9969 263.20953 557.9969 261.78766L557.9969 261.60016Q557.9969 260.64703 558.35626 259.91266Q558.71564 259.16266 559.35626 258.7564Q560.0125 258.33453 560.7625 258.33453Q561.9969 258.33453 562.6844 259.14703Q563.3719 259.95953 563.3719 261.47516L563.3719 261.92828L559.075 261.92828Q559.10626 262.86578 559.6219 263.4439Q560.15314 264.02203 560.96564 264.02203Q561.52814 264.02203 561.91876 263.78766Q562.325 263.55328 562.6375 263.16266L563.29376 263.67828Q562.4969 264.91266 560.90314 264.91266ZM560.7625 259.22516Q560.10626 259.22516 559.65314 259.70953Q559.21564 260.17828 559.1219 261.03766L562.29376 261.03766L562.29376 260.95953Q562.2469 260.1314 561.84064 259.67828Q561.45 259.22516 560.7625 259.22516ZM567.34064 259.41266Q567.09064 259.3814 566.8094 259.3814Q565.73126 259.3814 565.35626 260.28766L565.35626 264.78766L564.27814 264.78766L564.27814 258.4439L565.325 258.4439L565.34064 259.17828Q565.8719 258.33453 566.85626 258.33453Q567.16876 258.33453 567.34064 258.41266L567.34064 259.41266ZM571.34064 259.41266Q571.09064 259.3814 570.8094 259.3814Q569.73126 259.3814 569.35626 260.28766L569.35626 264.78766L568.27814 264.78766L568.27814 258.4439L569.325 258.4439L569.34064 259.17828Q569.8719 258.33453 570.85626 258.33453Q571.16876 258.33453 571.34064 258.41266L571.34064 259.41266ZM576.1844 264.78766Q576.09064 264.60016 576.02814 264.11578Q575.27814 264.91266 574.23126 264.91266Q573.29376 264.91266 572.6844 264.3814Q572.09064 263.85016 572.09064 263.02203Q572.09064 262.03766 572.84064 261.49078Q573.59064 260.9439 574.96564 260.9439L576.0125 260.9439L576.0125 260.4439Q576.0125 259.8814 575.66876 259.55328Q575.34064 259.20953 574.66876 259.20953Q574.09064 259.20953 573.7 259.5064Q573.3094 259.78766 573.3094 260.20953L572.21564 260.20953Q572.21564 259.72516 572.54376 259.28766Q572.8875 258.85016 573.46564 258.60016Q574.04376 258.33453 574.73126 258.33453Q575.84064 258.33453 576.45 258.8814Q577.075 259.42828 577.10626 260.3814L577.10626 263.30328Q577.10626 264.17828 577.325 264.6939L577.325 264.78766L576.1844 264.78766ZM574.3875 263.95953Q574.90314 263.95953 575.35626 263.6939Q575.8094 263.42828 576.0125 263.0064L576.0125 261.70953L575.16876 261.70953Q573.16876 261.70953 573.16876 262.8814Q573.16876 263.3814 573.5125 263.67828Q573.85626 263.95953 574.3875 263.95953ZM580.45 264.78766L579.3719 264.78766L579.3719 255.78766L580.45 255.78766L580.45 264.78766Z" fill-rule="nonzero"/><path fill="#9e9e9e" d="M550.73126 277.99078L551.54376 277.99078Q552.325 277.97516 552.7625 277.58453Q553.2 277.1939 553.2 276.52203Q553.2 275.02203 551.7 275.02203Q550.9969 275.02203 550.575 275.42828Q550.16876 275.83453 550.16876 276.49078L549.075 276.49078Q549.075 275.47516 549.8094 274.80328Q550.5594 274.1314 551.7 274.1314Q552.90314 274.1314 553.59064 274.77203Q554.27814 275.41266 554.27814 276.55328Q554.27814 277.11578 553.91876 277.6314Q553.5594 278.14703 552.9344 278.41266Q553.6375 278.6314 554.0125 279.14703Q554.40314 279.66266 554.40314 280.41266Q554.40314 281.55328 553.65314 282.24078Q552.90314 282.91266 551.7 282.91266Q550.5125 282.91266 549.7469 282.2564Q548.9969 281.60016 548.9969 280.53766L550.09064 280.53766Q550.09064 281.20953 550.52814 281.61578Q550.96564 282.02203 551.71564 282.02203Q552.4969 282.02203 552.90314 281.61578Q553.325 281.1939 553.325 280.42828Q553.325 279.6939 552.8719 279.30328Q552.41876 278.89703 551.54376 278.8814L550.73126 278.8814L550.73126 277.99078ZM560.3094 279.03766Q559.98126 279.4439 559.4969 279.6939Q559.02814 279.92828 558.46564 279.92828Q557.73126 279.92828 557.1844 279.5689Q556.6375 279.20953 556.34064 278.55328Q556.04376 277.8814 556.04376 277.08453Q556.04376 276.24078 556.35626 275.55328Q556.6844 274.86578 557.27814 274.5064Q557.8875 274.1314 558.6844 274.1314Q559.95 274.1314 560.66876 275.08453Q561.40314 276.03766 561.40314 277.66266L561.40314 277.97516Q561.40314 280.47516 560.41876 281.61578Q559.4344 282.7564 557.45 282.78766L557.23126 282.78766L557.23126 281.8814L557.46564 281.8814Q558.8094 281.85016 559.52814 281.17828Q560.2469 280.5064 560.3094 279.03766ZM558.6375 279.03766Q559.1844 279.03766 559.6375 278.70953Q560.10626 278.36578 560.325 277.8814L560.325 277.4439Q560.325 276.3814 559.85626 275.70953Q559.3875 275.03766 558.6844 275.03766Q557.96564 275.03766 557.52814 275.58453Q557.10626 276.1314 557.10626 277.03766Q557.10626 277.91266 557.5125 278.47516Q557.9344 279.03766 558.6375 279.03766ZM563.29376 282.22516Q563.29376 281.9439 563.45 281.7564Q563.6219 281.5689 563.95 281.5689Q564.29376 281.5689 564.46564 281.7564Q564.6375 281.9439 564.6375 282.22516Q564.6375 282.49078 564.46564 282.67828Q564.29376 282.85016 563.95 282.85016Q563.6219 282.85016 563.45 282.67828Q563.29376 282.49078 563.29376 282.22516ZM569.71564 282.78766L568.6375 282.78766L568.6375 275.5689L566.45 276.36578L566.45 275.3814L569.5594 274.20953L569.71564 274.20953L569.71564 282.78766ZM573.0594 275.89703Q573.0594 275.1314 573.54376 274.6314Q574.04376 274.1314 574.8094 274.1314Q575.59064 274.1314 576.075 274.6314Q576.5594 275.1314 576.5594 275.92828L576.5594 276.35016Q576.5594 277.11578 576.0594 277.61578Q575.575 278.10016 574.825 278.10016Q574.0594 278.10016 573.5594 277.61578Q573.0594 277.11578 573.0594 276.30328L573.0594 275.89703ZM573.8719 276.35016Q573.8719 276.80328 574.1219 277.10016Q574.3875 277.39703 574.825 277.39703Q575.2469 277.39703 575.4969 277.11578Q575.7469 276.8189 575.7469 276.3189L575.7469 275.89703Q575.7469 275.4439 575.4969 275.14703Q575.2469 274.83453 574.8094 274.83453Q574.3719 274.83453 574.1219 275.14703Q573.8719 275.4439 573.8719 275.91266L573.8719 276.35016ZM577.21564 280.6939Q577.21564 279.92828 577.7 279.4439Q578.2 278.9439 578.96564 278.9439Q579.73126 278.9439 580.21564 279.4439Q580.71564 279.92828 580.71564 280.74078L580.71564 281.14703Q580.71564 281.91266 580.23126 282.41266Q579.7469 282.91266 578.98126 282.91266Q578.21564 282.91266 577.71564 282.42828Q577.21564 281.92828 577.21564 281.11578L577.21564 280.6939ZM578.02814 281.14703Q578.02814 281.61578 578.27814 281.91266Q578.54376 282.20953 578.98126 282.20953Q579.40314 282.20953 579.65314 281.92828Q579.90314 281.6314 579.90314 281.1314L579.90314 280.6939Q579.90314 280.22516 579.6375 279.9439Q579.3875 279.64703 578.96564 279.64703Q578.54376 279.64703 578.27814 279.9439Q578.02814 280.22516 578.02814 280.72516L578.02814 281.14703ZM575.075 282.14703L574.45 281.7564L578.6219 275.08453L579.23126 275.47516L575.075 282.14703Z" fill-rule="nonzero"/><path stroke="#757575" stroke-width="1.0" stroke-linecap="butt" d="M581.45 269.28766L444.76666 269.28766L419.52768 269.28766" fill-rule="nonzero"/><path fill="#9e9e9e" d="M421.52768 269.28766C421.52768 268.1831 420.63226 267.28766 419.52768 267.28766C418.42313 267.28766 417.52768 268.1831 417.52768 269.28766C417.52768 270.39224 418.42313 271.28766 419.52768 271.28766C420.63226 271.28766 421.52768 270.39224 421.52768 269.28766" fill-rule="nonzero"/><path fill="#bdbdbd" d="M260.04688 53.925Q260.04688 52.159374 260.51562 50.534374Q260.98438 48.909374 261.92188 47.58125Q262.85938 46.253124 263.875 45.70625L264.17188 46.659374Q263.03125 47.534374 262.29688 49.33125Q261.5625 51.128124 261.5 53.3625L261.48438 54.01875Q261.48438 57.034374 262.59375 59.26875Q263.25 60.596874 264.17188 61.346874L263.875 62.221874Q262.82812 61.64375 261.89062 60.284374Q260.04688 57.628124 260.04688 53.925ZM264.82812 49.3625Q264.82812 48.33125 265.46875 47.675Q266.125 47.003124 267.15625 47.003124Q268.1875 47.003124 268.82812 47.675Q269.48438 48.346874 269.48438 49.409374L269.48438 49.95625Q269.48438 50.9875 268.82812 51.64375Q268.17188 52.3 267.17188 52.3Q266.15625 52.3 265.48438 51.64375Q264.82812 50.9875 264.82812 49.909374L264.82812 49.3625ZM265.90625 49.95625Q265.90625 50.565624 266.25 50.971874Q266.59375 51.3625 267.17188 51.3625Q267.71875 51.3625 268.0625 50.9875Q268.40625 50.596874 268.40625 49.925L268.40625 49.3625Q268.40625 48.753124 268.0625 48.3625Q267.73438 47.95625 267.15625 47.95625Q266.57812 47.95625 266.23438 48.3625Q265.90625 48.753124 265.90625 49.39375L265.90625 49.95625ZM270.35938 55.753124Q270.35938 54.7375 271.01562 54.08125Q271.67188 53.409374 272.6875 53.409374Q273.71875 53.409374 274.375 54.065624Q275.03125 54.721874 275.03125 55.815624L275.03125 56.3625Q275.03125 57.39375 274.375 58.065624Q273.71875 58.721874 272.70312 58.721874Q271.6875 58.721874 271.01562 58.065624Q270.35938 57.409374 270.35938 56.315624L270.35938 55.753124ZM271.4375 56.3625Q271.4375 56.9875 271.78125 57.378124Q272.125 57.76875 272.70312 57.76875Q273.26562 57.76875 273.59375 57.39375Q273.9375 57.003124 273.9375 56.33125L273.9375 55.753124Q273.9375 55.14375 273.59375 54.753124Q273.26562 54.3625 272.6875 54.3625Q272.14062 54.3625 271.78125 54.753124Q271.4375 55.128124 271.4375 55.784374L271.4375 56.3625ZM267.5 57.690624L266.67188 57.175L272.23438 48.284374L273.04688 48.8L267.5 57.690624ZM285.1875 51.39375Q284.85938 51.33125 284.46875 51.33125Q283.04688 51.33125 282.54688 52.55L282.54688 58.55L281.09375 58.55L281.09375 50.096874L282.5 50.096874L282.53125 51.065624Q283.23438 49.940624 284.54688 49.940624Q284.96875 49.940624 285.1875 50.05L285.1875 51.39375ZM289.60938 58.70625Q287.89062 58.70625 286.8125 57.58125Q285.73438 56.440624 285.73438 54.55L285.73438 54.284374Q285.73438 53.034374 286.20312 52.05Q286.6875 51.05 287.54688 50.503124Q288.42188 49.940624 289.42188 49.940624Q291.07812 49.940624 291.98438 51.034374Q292.90625 52.1125 292.90625 54.128124L292.90625 54.7375L287.17188 54.7375Q287.20312 55.9875 287.90625 56.753124Q288.60938 57.51875 289.6875 57.51875Q290.45312 57.51875 290.98438 57.20625Q291.51562 56.89375 291.90625 56.378124L292.79688 57.065624Q291.73438 58.70625 289.60938 58.70625ZM289.42188 51.128124Q288.54688 51.128124 287.95312 51.76875Q287.35938 52.39375 287.21875 53.55L291.45312 53.55L291.45312 53.440624Q291.39062 52.33125 290.85938 51.7375Q290.32812 51.128124 289.42188 51.128124ZM296.89062 56.58125L298.98438 50.096874L300.45312 50.096874L297.42188 58.55L296.32812 58.55L293.26562 50.096874L294.73438 50.096874L296.89062 56.58125ZM305.60938 58.70625Q303.89062 58.70625 302.8125 57.58125Q301.73438 56.440624 301.73438 54.55L301.73438 54.284374Q301.73438 53.034374 302.20312 52.05Q302.6875 51.05 303.54688 50.503124Q304.42188 49.940624 305.42188 49.940624Q307.07812 49.940624 307.98438 51.034374Q308.90625 52.1125 308.90625 54.128124L308.90625 54.7375L303.17188 54.7375Q303.20312 55.9875 303.90625 56.753124Q304.60938 57.51875 305.6875 57.51875Q306.45312 57.51875 306.98438 57.20625Q307.51562 56.89375 307.90625 56.378124L308.79688 57.065624Q307.73438 58.70625 305.60938 58.70625ZM305.42188 51.128124Q304.54688 51.128124 303.95312 51.76875Q303.35938 52.39375 303.21875 53.55L307.45312 53.55L307.45312 53.440624Q307.39062 52.33125 306.85938 51.7375Q306.32812 51.128124 305.42188 51.128124ZM311.46875 50.096874L311.51562 51.159374Q312.48438 49.940624 314.04688 49.940624Q316.71875 49.940624 316.75 52.95625L316.75 58.55L315.29688 58.55L315.29688 52.95625Q315.29688 52.034374 314.875 51.596874Q314.46875 51.159374 313.60938 51.159374Q312.90625 51.159374 312.375 51.534374Q311.84375 51.909374 311.54688 52.51875L311.54688 58.55L310.09375 58.55L310.09375 50.096874L311.46875 50.096874ZM324.3125 57.70625Q323.46875 58.70625 321.84375 58.70625Q320.48438 58.70625 319.78125 57.925Q319.07812 57.128124 319.0625 55.596874L319.0625 50.096874L320.51562 50.096874L320.51562 55.55Q320.51562 57.471874 322.07812 57.471874Q323.73438 57.471874 324.28125 56.2375L324.28125 50.096874L325.71875 50.096874L325.71875 58.55L324.34375 58.55L324.3125 57.70625ZM331.60938 58.70625Q329.89062 58.70625 328.8125 57.58125Q327.73438 56.440624 327.73438 54.55L327.73438 54.284374Q327.73438 53.034374 328.20312 52.05Q328.6875 51.05 329.54688 50.503124Q330.42188 49.940624 331.42188 49.940624Q333.07812 49.940624 333.98438 51.034374Q334.90625 52.1125 334.90625 54.128124L334.90625 54.7375L329.17188 54.7375Q329.20312 55.9875 329.90625 56.753124Q330.60938 57.51875 331.6875 57.51875Q332.45312 57.51875 332.98438 57.20625Q333.51562 56.89375 333.90625 56.378124L334.79688 57.065624Q333.73438 58.70625 331.60938 58.70625ZM331.42188 51.128124Q330.54688 51.128124 329.95312 51.76875Q329.35938 52.39375 329.21875 53.55L333.45312 53.55L333.45312 53.440624Q333.39062 52.33125 332.85938 51.7375Q332.32812 51.128124 331.42188 51.128124ZM339.4375 54.003124Q339.4375 55.753124 338.96875 57.3625Q338.51562 58.95625 337.57812 60.3Q336.64062 61.659374 335.60938 62.221874L335.29688 61.346874Q336.5 60.425 337.23438 58.4875Q337.96875 56.534374 337.98438 54.159374L337.98438 53.909374Q337.98438 52.26875 337.64062 50.8625Q337.29688 49.45625 336.67188 48.346874Q336.0625 47.221874 335.29688 46.596874L335.60938 45.70625Q336.64062 46.284374 337.5625 47.628124Q338.5 48.95625 338.96875 50.565624Q339.4375 52.175 339.4375 54.003124Z" fill-rule="nonzero"/><path fill="#757575" d="M255.84375 22.70625L255.84375 26.378124L255.54688 26.378124Q255.40625 25.315624 255.04688 24.690624Q254.6875 24.065624 254.01562 23.70625Q253.34375 23.33125 252.625 23.33125Q251.8125 23.33125 251.28125 23.83125Q250.75 24.33125 250.75 24.95625Q250.75 25.440624 251.07812 25.846874Q251.5625 26.425 253.39062 27.409374Q254.875 28.20625 255.40625 28.628124Q255.95312 29.05 256.25 29.628124Q256.54688 30.20625 256.54688 30.846874Q256.54688 32.05 255.60938 32.925Q254.67188 33.8 253.20312 33.8Q252.75 33.8 252.34375 33.721874Q252.09375 33.690624 251.32812 33.440624Q250.57812 33.190624 250.375 33.190624Q250.17188 33.190624 250.0625 33.315624Q249.95312 33.425 249.89062 33.8L249.60938 33.8L249.60938 30.159374L249.89062 30.159374Q250.09375 31.3 250.4375 31.8625Q250.78125 32.425 251.48438 32.8Q252.20312 33.175 253.04688 33.175Q254.01562 33.175 254.57812 32.659374Q255.15625 32.14375 255.15625 31.440624Q255.15625 31.05 254.9375 30.659374Q254.71875 30.253124 254.26562 29.909374Q253.96875 29.675 252.60938 28.925Q251.25 28.159374 250.67188 27.70625Q250.09375 27.253124 249.79688 26.70625Q249.5 26.159374 249.5 25.503124Q249.5 24.3625 250.375 23.534374Q251.25 22.70625 252.60938 22.70625Q253.45312 22.70625 254.39062 23.128124Q254.82812 23.315624 255.01562 23.315624Q255.21875 23.315624 255.34375 23.20625Q255.46875 23.08125 255.54688 22.70625L255.84375 22.70625ZM261.5 26.175Q263.125 26.175 264.10938 27.409374Q264.95312 28.471874 264.95312 29.83125Q264.95312 30.8 264.48438 31.784374Q264.03125 32.76875 263.21875 33.26875Q262.40625 33.76875 261.42188 33.76875Q259.79688 33.76875 258.84375 32.471874Q258.04688 31.39375 258.04688 30.034374Q258.04688 29.05 258.53125 28.08125Q259.01562 27.1125 259.8125 26.64375Q260.60938 26.175 261.5 26.175ZM261.26562 26.690624Q260.84375 26.690624 260.42188 26.940624Q260.01562 27.175 259.75 27.8Q259.5 28.409374 259.5 29.378124Q259.5 30.940624 260.10938 32.08125Q260.73438 33.20625 261.75 33.20625Q262.51562 33.20625 263.0 32.58125Q263.5 31.95625 263.5 30.440624Q263.5 28.534374 262.67188 27.440624Q262.125 26.690624 261.26562 26.690624ZM272.28125 26.39375L272.28125 30.721874Q272.28125 31.971874 272.32812 32.253124Q272.39062 32.51875 272.51562 32.628124Q272.65625 32.7375 272.82812 32.7375Q273.0625 32.7375 273.375 32.6125L273.48438 32.878124L271.34375 33.76875L270.98438 33.76875L270.98438 32.253124Q270.0625 33.253124 269.57812 33.51875Q269.09375 33.76875 268.5625 33.76875Q267.95312 33.76875 267.51562 33.425Q267.07812 33.065624 266.90625 32.51875Q266.73438 31.971874 266.73438 30.971874L266.73438 27.784374Q266.73438 27.26875 266.625 27.08125Q266.51562 26.878124 266.29688 26.784374Q266.07812 26.675 265.51562 26.675L265.51562 26.39375L268.03125 26.39375L268.03125 31.175Q268.03125 32.175 268.375 32.4875Q268.71875 32.8 269.21875 32.8Q269.54688 32.8 269.96875 32.596874Q270.40625 32.378124 270.98438 31.784374L270.98438 27.7375Q270.98438 27.128124 270.76562 26.909374Q270.54688 26.690624 269.84375 26.675L269.84375 26.39375L272.28125 26.39375ZM276.09375 26.175L276.09375 27.784374Q277.0 26.175 277.9375 26.175Q278.375 26.175 278.65625 26.440624Q278.9375 26.70625 278.9375 27.05Q278.9375 27.346874 278.73438 27.565624Q278.53125 27.76875 278.25 27.76875Q277.96875 27.76875 277.625 27.503124Q277.29688 27.2375 277.125 27.2375Q276.98438 27.2375 276.82812 27.39375Q276.46875 27.70625 276.09375 28.440624L276.09375 31.878124Q276.09375 32.471874 276.25 32.76875Q276.34375 32.9875 276.59375 33.128124Q276.85938 33.26875 277.34375 33.26875L277.34375 33.55L273.6875 33.55L273.6875 33.26875Q274.23438 33.26875 274.5 33.096874Q274.6875 32.971874 274.76562 32.690624Q274.8125 32.565624 274.8125 31.940624L274.8125 29.159374Q274.8125 27.909374 274.75 27.675Q274.70312 27.440624 274.5625 27.33125Q274.4375 27.221874 274.23438 27.221874Q273.98438 27.221874 273.6875 27.33125L273.60938 27.05L275.76562 26.175L276.09375 26.175ZM285.07812 30.83125Q284.79688 32.2375 283.95312 33.003124Q283.10938 33.76875 282.07812 33.76875Q280.85938 33.76875 279.95312 32.753124Q279.04688 31.721874 279.04688 29.971874Q279.04688 28.284374 280.04688 27.2375Q281.0625 26.175 282.46875 26.175Q283.51562 26.175 284.1875 26.7375Q284.875 27.3 284.875 27.89375Q284.875 28.190624 284.6875 28.378124Q284.5 28.565624 284.15625 28.565624Q283.6875 28.565624 283.45312 28.26875Q283.32812 28.096874 283.28125 27.64375Q283.23438 27.175 282.96875 26.940624Q282.6875 26.70625 282.20312 26.70625Q281.42188 26.70625 280.95312 27.284374Q280.3125 28.05 280.3125 29.3Q280.3125 30.58125 280.9375 31.565624Q281.57812 32.55 282.64062 32.55Q283.40625 32.55 284.01562 32.01875Q284.45312 31.659374 284.85938 30.721874L285.07812 30.83125ZM287.20312 29.08125Q287.20312 30.675 287.98438 31.58125Q288.76562 32.4875 289.8125 32.4875Q290.51562 32.4875 291.03125 32.1125Q291.5625 31.721874 291.90625 30.784374L292.15625 30.940624Q291.98438 32.003124 291.1875 32.89375Q290.40625 33.76875 289.21875 33.76875Q287.9375 33.76875 287.01562 32.76875Q286.09375 31.753124 286.09375 30.065624Q286.09375 28.221874 287.03125 27.20625Q287.98438 26.175 289.40625 26.175Q290.60938 26.175 291.375 26.971874Q292.15625 27.753124 292.15625 29.08125L287.20312 29.08125ZM287.20312 28.628124L290.51562 28.628124Q290.48438 27.940624 290.35938 27.659374Q290.15625 27.221874 289.76562 26.971874Q289.39062 26.721874 288.96875 26.721874Q288.3125 26.721874 287.79688 27.2375Q287.29688 27.7375 287.20312 28.628124ZM300.5 26.175Q302.125 26.175 303.10938 27.409374Q303.95312 28.471874 303.95312 29.83125Q303.95312 30.8 303.48438 31.784374Q303.03125 32.76875 302.21875 33.26875Q301.40625 33.76875 300.42188 33.76875Q298.79688 33.76875 297.84375 32.471874Q297.04688 31.39375 297.04688 30.034374Q297.04688 29.05 297.53125 28.08125Q298.01562 27.1125 298.8125 26.64375Q299.60938 26.175 300.5 26.175ZM300.26562 26.690624Q299.84375 26.690624 299.42188 26.940624Q299.01562 27.175 298.75 27.8Q298.5 28.409374 298.5 29.378124Q298.5 30.940624 299.10938 32.08125Q299.73438 33.20625 300.75 33.20625Q301.51562 33.20625 302.0 32.58125Q302.5 31.95625 302.5 30.440624Q302.5 28.534374 301.67188 27.440624Q301.125 26.690624 300.26562 26.690624ZM307.79688 26.95625L307.79688 31.659374Q307.79688 32.659374 308.01562 32.925Q308.3125 33.26875 308.79688 33.26875L309.4375 33.26875L309.4375 33.55L305.17188 33.55L305.17188 33.26875L305.48438 33.26875Q305.79688 33.26875 306.04688 33.1125Q306.3125 32.95625 306.40625 32.690624Q306.51562 32.425 306.51562 31.659374L306.51562 26.95625L305.125 26.95625L305.125 26.39375L306.51562 26.39375L306.51562 25.925Q306.51562 24.846874 306.85938 24.1125Q307.20312 23.3625 307.90625 22.909374Q308.60938 22.45625 309.5 22.45625Q310.3125 22.45625 311.0 22.9875Q311.45312 23.33125 311.45312 23.76875Q311.45312 24.003124 311.25 24.221874Q311.04688 24.425 310.8125 24.425Q310.64062 24.425 310.4375 24.3Q310.23438 24.159374 309.9375 23.7375Q309.65625 23.315624 309.42188 23.159374Q309.17188 23.01875 308.875 23.01875Q308.51562 23.01875 308.26562 23.20625Q308.01562 23.39375 307.90625 23.8Q307.79688 24.20625 307.79688 25.878124L307.79688 26.39375L309.64062 26.39375L309.64062 26.95625L307.79688 26.95625ZM323.14062 22.70625L323.375 26.315624L323.14062 26.315624Q322.65625 24.690624 321.75 23.9875Q320.85938 23.26875 319.59375 23.26875Q318.54688 23.26875 317.6875 23.815624Q316.84375 24.346874 316.34375 25.51875Q315.85938 26.690624 315.85938 28.425Q315.85938 29.8625 316.3125 30.925Q316.78125 31.971874 317.70312 32.534374Q318.64062 33.096874 319.82812 33.096874Q320.85938 33.096874 321.64062 32.659374Q322.4375 32.221874 323.375 30.909374L323.625 31.065624Q322.82812 32.471874 321.76562 33.14375Q320.70312 33.8 319.23438 33.8Q316.60938 33.8 315.15625 31.83125Q314.07812 30.378124 314.07812 28.409374Q314.07812 26.83125 314.78125 25.503124Q315.5 24.175 316.75 23.440624Q318.0 22.70625 319.46875 22.70625Q320.625 22.70625 321.73438 23.26875Q322.0625 23.440624 322.20312 23.440624Q322.42188 23.440624 322.57812 23.3Q322.78125 23.08125 322.85938 22.70625L323.14062 22.70625ZM327.46875 22.440624L327.46875 31.925Q327.46875 32.596874 327.5625 32.815624Q327.65625 33.034374 327.85938 33.159374Q328.0625 33.26875 328.625 33.26875L328.625 33.55L325.10938 33.55L325.10938 33.26875Q325.60938 33.26875 325.78125 33.175Q325.96875 33.065624 326.0625 32.83125Q326.17188 32.596874 326.17188 31.925L326.17188 25.425Q326.17188 24.221874 326.10938 23.940624Q326.0625 23.659374 325.9375 23.565624Q325.8125 23.45625 325.625 23.45625Q325.42188 23.45625 325.10938 23.58125L324.98438 23.315624L327.10938 22.440624L327.46875 22.440624ZM330.82812 22.440624Q331.15625 22.440624 331.375 22.675Q331.60938 22.89375 331.60938 23.221874Q331.60938 23.55 331.375 23.784374Q331.15625 24.01875 330.82812 24.01875Q330.5 24.01875 330.26562 23.784374Q330.03125 23.55 330.03125 23.221874Q330.03125 22.89375 330.25 22.675Q330.48438 22.440624 330.82812 22.440624ZM331.46875 26.175L331.46875 31.925Q331.46875 32.596874 331.5625 32.83125Q331.67188 33.05 331.85938 33.159374Q332.04688 33.26875 332.5625 33.26875L332.5625 33.55L329.07812 33.55L329.07812 33.26875Q329.60938 33.26875 329.78125 33.175Q329.96875 33.065624 330.0625 32.83125Q330.17188 32.596874 330.17188 31.925L330.17188 29.175Q330.17188 28.003124 330.10938 27.659374Q330.04688 27.409374 329.92188 27.315624Q329.8125 27.221874 329.60938 27.221874Q329.39062 27.221874 329.07812 27.33125L328.96875 27.05L331.125 26.175L331.46875 26.175ZM334.20312 29.08125Q334.20312 30.675 334.98438 31.58125Q335.76562 32.4875 336.8125 32.4875Q337.51562 32.4875 338.03125 32.1125Q338.5625 31.721874 338.90625 30.784374L339.15625 30.940624Q338.98438 32.003124 338.1875 32.89375Q337.40625 33.76875 336.21875 33.76875Q334.9375 33.76875 334.01562 32.76875Q333.09375 31.753124 333.09375 30.065624Q333.09375 28.221874 334.03125 27.20625Q334.98438 26.175 336.40625 26.175Q337.60938 26.175 338.375 26.971874Q339.15625 27.753124 339.15625 29.08125L334.20312 29.08125ZM334.20312 28.628124L337.51562 28.628124Q337.48438 27.940624 337.35938 27.659374Q337.15625 27.221874 336.76562 26.971874Q336.39062 26.721874 335.96875 26.721874Q335.3125 26.721874 334.79688 27.2375Q334.29688 27.7375 334.20312 28.628124ZM342.09375 27.690624Q343.34375 26.175 344.48438 26.175Q345.07812 26.175 345.5 26.471874Q345.92188 26.76875 346.17188 27.440624Q346.34375 27.909374 346.34375 28.878124L346.34375 31.925Q346.34375 32.6125 346.45312 32.846874Q346.53125 33.05 346.71875 33.159374Q346.92188 33.26875 347.4375 33.26875L347.4375 33.55L343.89062 33.55L343.89062 33.26875L344.04688 33.26875Q344.54688 33.26875 344.73438 33.1125Q344.9375 32.95625 345.01562 32.659374Q345.04688 32.55 345.04688 31.925L345.04688 29.003124Q345.04688 28.01875 344.79688 27.58125Q344.54688 27.14375 343.9375 27.14375Q343.01562 27.14375 342.09375 28.159374L342.09375 31.925Q342.09375 32.659374 342.17188 32.83125Q342.28125 33.05 342.46875 33.159374Q342.67188 33.26875 343.25 33.26875L343.25 33.55L339.71875 33.55L339.71875 33.26875L339.875 33.26875Q340.42188 33.26875 340.60938 32.9875Q340.79688 32.70625 340.79688 31.925L340.79688 29.26875Q340.79688 27.9875 340.73438 27.70625Q340.6875 27.425 340.5625 27.33125Q340.4375 27.221874 340.23438 27.221874Q340.01562 27.221874 339.71875 27.33125L339.59375 27.05L341.75 26.175L342.09375 26.175L342.09375 27.690624ZM350.07812 24.034374L350.07812 26.39375L351.75 26.39375L351.75 26.940624L350.07812 26.940624L350.07812 31.58125Q350.07812 32.26875 350.28125 32.51875Q350.48438 32.753124 350.79688 32.753124Q351.04688 32.753124 351.28125 32.596874Q351.53125 32.440624 351.67188 32.128124L351.96875 32.128124Q351.70312 32.89375 351.20312 33.284374Q350.70312 33.675 350.17188 33.675Q349.8125 33.675 349.46875 33.471874Q349.125 33.26875 348.95312 32.89375Q348.79688 32.51875 348.79688 31.753124L348.79688 26.940624L347.65625 26.940624L347.65625 26.675Q348.09375 26.503124 348.53125 26.096874Q348.98438 25.690624 349.34375 25.128124Q349.51562 24.83125 349.84375 24.034374L350.07812 24.034374Z" fill-rule="nonzero"/></svg>