<svg width="114" height="97" viewBox="0 0 114 97" fill="none" xmlns="http://www.w3.org/2000/svg">
<path d="M13.5806 -0.00878906H11.5894H9.54861L8.16963 8.3603C8.14049 8.3641 8.11136 8.36598 8.08122 8.36978C5.03463 8.76421 2.67027 11.2607 2.69651 14.0522C2.70817 15.2196 3.11729 16.1315 3.851 16.8788C4.51376 17.5543 5.41655 17.9204 6.32809 17.9204C6.68473 17.9204 7.04238 17.8646 7.38734 17.7491C9.02965 17.1986 9.57486 15.8572 9.83046 14.6293C9.83046 14.6302 9.82945 14.6321 9.82945 14.634C9.90329 13.2633 9.15114 11.9096 7.71677 11.1084L7.26294 13.8981C7.11721 14.6898 6.92769 15.1628 6.52147 15.2991C6.27852 15.3804 5.97922 15.2962 5.77709 15.09C5.51664 14.8242 5.36408 14.5281 5.35921 14.0277C5.34561 12.6323 6.47287 11.5369 7.71677 11.1084C8.10747 10.9712 8.51366 10.9069 8.9675 10.9069C9.4281 10.9069 9.91305 10.993 10.3562 11.1377C12.0364 11.5237 13.0548 13.2586 13.3065 15.1373L13.4542 16.1902H16.2501L13.5806 -0.00878906ZM10.7128 8.54006L11.5145 2.55103H11.5388H11.6137L12.5087 9.2344C11.9402 8.93258 11.3357 8.69708 10.7128 8.54006ZM37.5353 4.5092V16.1892H34.7453V4.5092H37.5353ZM29.3916 20.2352C33.0551 20.2352 33.3381 18.2023 33.3381 15.3294L33.3623 4.51017H31.9182C31.3984 4.51017 30.7608 4.88949 30.7172 5.3786L30.6831 5.756L30.5481 5.40031C30.2789 4.69369 29.6015 4.32 28.5889 4.32C27.5715 4.32 26.8202 4.70028 26.3557 5.44953C25.9038 6.17794 25.8096 7.12012 25.8096 7.78231V12.3239C25.8096 13.4506 25.9787 14.2802 26.3266 14.8592C26.7493 15.563 27.4335 15.9055 28.4198 15.9055C29.3528 15.9055 30.0583 15.5195 30.4062 14.8185L30.5723 14.4846V14.8554V16.1561C30.5723 17.2998 30.4994 18.1096 29.5617 18.1096C29.3469 18.1096 28.6482 18.0386 28.6482 17.1257V17.0927H25.8339V17.1494C25.8339 18.0367 26.0807 18.751 26.5676 19.2712C27.1643 19.9107 28.1147 20.2352 29.3916 20.2352ZM30.5238 11.8519C30.5238 12.9653 30.3624 13.5689 29.5131 13.5689C28.7084 13.5689 28.5996 12.8206 28.5996 12.0884V8.01976C28.5996 7.10309 28.9378 6.65752 29.6346 6.65752C30.4178 6.65752 30.5238 7.40582 30.5238 8.138V11.8519ZM37.681 1.94088C37.681 2.76861 37.0047 3.41659 36.1408 3.41659C35.2903 3.41659 34.6247 2.76861 34.6247 1.94088C34.6247 1.0999 35.2903 0.441495 36.1408 0.441495C36.99 0.441495 37.681 1.11409 37.681 1.94088ZM19.9303 8.2799V16.1902H17.1159L17.0917 4.51017H18.6562C19.1936 4.51017 19.8136 4.8791 19.8817 5.42867L19.9128 5.68033L20.044 5.4618C20.4978 4.70505 21.2324 4.32097 22.2285 4.32097C23.831 4.32097 24.6444 5.32655 24.6444 7.31121V16.1911H21.8544V7.92515C21.8544 7.08417 21.5551 6.65752 20.9652 6.65752C20.2014 6.65752 19.9303 7.08229 19.9303 8.2799Z" fill="#454540"/>
<path d="M9.72935 14.5709C9.8703 13.9853 10.1968 11.7367 10.2551 11.0746C9.81295 10.9308 9.32705 10.8438 8.86645 10.8438C8.41261 10.8438 8.00636 10.909 7.61572 11.0452C9.05107 11.8465 9.80325 13.2002 9.72935 14.5709Z" fill="#454540"/>
<path d="M2.13417 65.3403C1.01238 65.3403 0.0629883 66.2826 0.0629883 67.3981C0.0629883 68.5227 1.01151 69.4744 2.13417 69.4744C3.24658 69.4744 4.18657 68.5248 4.18657 67.3981C4.18657 66.2826 3.24658 65.3403 2.13417 65.3403Z" fill="#454540"/>
<path d="M31.6393 62.4686C31.3746 62.2196 31.0728 62.0136 30.7447 61.8579C30.4065 61.6936 30.0356 61.6087 29.6597 61.6098C29.3807 61.607 29.1044 61.6656 28.8505 61.7814C28.603 61.896 28.4791 62.0933 28.4791 62.3733C28.4791 62.6399 28.6155 62.8307 28.8884 62.9459C29.1611 63.0608 29.6023 63.1881 30.2117 63.3276C30.5779 63.4075 30.9378 63.5161 31.2871 63.6526C31.6396 63.7872 31.9703 63.9736 32.268 64.2056C32.5587 64.4333 32.7984 64.7194 32.9725 65.0455C33.1497 65.3765 33.2387 65.7708 33.2387 66.2286C33.2387 66.8269 33.1182 67.3327 32.8774 67.7462C32.6456 68.1496 32.3228 68.4928 31.9347 68.7482C31.5358 69.0078 31.0946 69.1952 30.631 69.3018C30.1575 69.4152 29.6723 69.4729 29.1853 69.4736C28.4113 69.4739 27.6425 69.3482 26.9088 69.1014C26.1666 68.8532 25.5479 68.4872 25.0527 68.0037L26.8042 66.1524C27.0966 66.4682 27.4448 66.727 27.831 66.9159C28.233 67.1188 28.6771 67.2235 29.1273 67.2214C29.3886 67.2197 29.6457 67.1577 29.8793 67.0402C30.1266 66.9194 30.2502 66.7061 30.2502 66.4007C30.2502 66.1082 30.098 65.8916 29.7936 65.7508C29.4889 65.61 29.013 65.4638 28.3658 65.312C28.029 65.2337 27.6982 65.1317 27.3757 65.0066C27.0544 64.8847 26.7553 64.7106 26.4905 64.4912C26.2261 64.27 26.0092 63.9973 25.8529 63.6897C25.6878 63.3719 25.6052 62.9901 25.6054 62.5444C25.6054 61.9718 25.726 61.485 25.967 61.0843C26.201 60.691 26.5196 60.3551 26.8997 60.1012C27.2873 59.8438 27.7153 59.6535 28.1658 59.5382C28.6161 59.4191 29.0799 59.3582 29.5457 59.357C30.2537 59.3567 30.9576 59.4694 31.6303 59.6909C32.3091 59.9137 32.8832 60.2477 33.353 60.6931L31.6393 62.4686ZM39.7294 59.3967C38.7917 59.3967 38 59.6717 37.4031 60.1965V55.2399H34.4616V69.1886H37.4025V63.9805C37.4025 62.6666 38.2537 62.1982 39.0503 62.1982C40.289 62.1982 40.5488 63.1574 40.5488 63.9618V69.1886H43.4923V63.179C43.4923 60.9524 41.9452 59.3969 39.7285 59.3969L39.7294 59.3967ZM15.7253 60.9825C16.2837 60.448 16.9487 60.0381 17.6766 59.7799C18.4061 59.5153 19.1759 59.38 19.9516 59.38C20.751 59.38 21.4269 59.4785 21.9788 59.6757C22.5309 59.8726 22.9781 60.1782 23.321 60.5919C23.6635 61.0055 23.9143 61.5272 24.0729 62.1571C24.2316 62.7868 24.311 63.5344 24.311 64.3997V69.1683H21.427V68.178C19.6006 70.468 15.5267 69.6183 15.5267 66.4411C15.5267 65.8661 15.9439 63.5592 19.1923 63.2642C19.8374 63.2055 20.412 63.2346 21.361 63.2346V63.0817C21.361 62.6113 21.1959 62.2646 20.8659 62.0415C20.5359 61.8185 20.1297 61.7074 19.6477 61.7077C19.2035 61.7077 18.7648 61.8053 18.3625 61.9938C17.9501 62.1848 17.6896 62.3493 17.3977 62.6164L15.7253 60.9825ZM21.4554 65.0479H20.3032C19.363 65.0479 18.8502 65.445 18.6983 65.6093C18.5408 65.774 18.4547 65.9944 18.4588 66.2225C18.4545 66.3688 18.4936 66.5129 18.5707 66.6372C18.6428 66.7501 18.7401 66.8447 18.8548 66.9135C18.9772 66.9855 19.1114 67.0352 19.2511 67.0604C19.3926 67.0883 19.5361 67.1029 19.6803 67.1036C20.2545 67.1036 20.6938 66.9454 20.9983 66.6288C21.3026 66.3122 21.4549 65.8832 21.4547 65.342V65.0479H21.4554ZM11.5454 55.2231V60.1887C10.8974 59.6482 10.1013 59.3748 9.15257 59.3748C6.51972 59.3748 4.53369 61.5298 4.53369 64.387C4.53369 67.2444 6.51919 69.4684 9.15257 69.4684C10.1072 69.4684 10.9971 69.1434 11.5953 68.5479V69.1683H14.4867V55.2231H11.5454ZM11.8447 65.3336C11.7378 65.6274 11.579 65.8995 11.3758 66.1367C11.172 66.3731 10.9229 66.5662 10.6435 66.7046C10.3572 66.8476 10.0319 66.9192 9.66749 66.9192C9.28968 66.9192 8.95739 66.8474 8.67049 66.7037C8.39264 66.5671 8.14639 66.3737 7.94753 66.136C7.74972 65.8963 7.60049 65.6202 7.5082 65.3232C7.41212 65.0232 7.3631 64.7101 7.3629 64.395C7.3629 64.0824 7.41227 63.7718 7.50942 63.4747C7.60107 63.1819 7.75141 62.911 7.95126 62.6786C8.15109 62.4462 8.3962 62.2573 8.67151 62.1233C8.95756 61.9799 9.29003 61.9081 9.66854 61.9079C10.033 61.9079 10.3585 61.9797 10.6452 62.1233C10.9246 62.2617 11.1736 62.4548 11.3775 62.6911C11.5806 62.9284 11.7394 63.2003 11.8464 63.494C12.0677 64.0876 12.0677 64.7414 11.8464 65.335L11.8447 65.3336Z" fill="#454540"/>
<path d="M6.98901 30.0213V35.1972C6.98901 35.1972 8.82058 35.1972 9.80083 35.1231C10.5717 34.9887 10.7136 34.9147 10.8555 34.147L11.1392 33.0228H11.9776L11.8357 35.4798L11.9101 37.9971H11.0648L10.8555 37.0141C10.6461 36.3146 10.3623 36.1724 9.80083 36.1053C9.09831 36.0312 6.98901 36.0312 6.98901 36.0312V40.3723C6.98901 41.2071 7.41468 41.5638 8.39491 41.5638H11.3486C12.2614 41.5638 13.1733 41.4897 13.7417 40.1638L14.5056 38.4813H15.2151C15.1407 38.8311 14.7894 41.9135 14.7219 42.607C14.7219 42.607 12.052 42.5398 10.9299 42.5398H5.86689L2.8457 42.607V41.8463L3.82594 41.631C4.53538 41.4897 4.74476 41.2812 4.74476 40.7221C4.74476 40.7221 4.81916 38.8311 4.81916 35.6805C4.81916 32.5377 4.74476 30.6459 4.74476 30.6459C4.74476 30.0196 4.53538 29.8783 3.82594 29.737L2.8457 29.5302V28.7626L5.7994 28.8229H11.423C12.5451 28.8229 14.4373 28.6213 14.4373 28.6213C14.4373 28.6213 14.3698 29.8059 14.2954 32.6058H13.5245L13.2407 31.6228C12.9639 30.3642 12.5443 29.7379 11.7674 29.7379H7.34719C6.98901 29.7387 6.98901 29.8059 6.98901 30.0213ZM18.3712 30.5735H19.2165V33.5147L22.1027 33.3734L21.9608 34.7062L19.149 34.4908V39.6736C19.149 41.1407 19.6421 41.7059 20.4874 41.7059C21.2514 41.7059 21.8189 41.282 22.0283 40.9323L22.447 41.4233C22.0283 42.3994 20.8387 42.8905 19.7096 42.8905C18.3107 42.8905 17.1747 42.0557 17.1747 40.4472V34.564H15.498V33.8645C16.9047 33.7232 17.9525 32.8815 18.3712 30.5735ZM24.4205 39.5986L24.9811 40.9314C25.1905 41.4897 25.6837 42.0557 26.8058 42.0557C28.0023 42.0557 28.4955 41.4233 28.4955 40.6557C28.4955 38.2728 23.7846 38.9732 23.7846 35.7555C23.7846 33.9385 25.258 33.09 27.1571 33.09C28.0023 33.09 29.2663 33.2313 29.9014 33.5138C29.7595 34.2134 29.6851 35.1223 29.6851 35.8227L28.9886 35.8899L28.4955 34.4899C28.3536 34.147 27.786 33.8636 27.0896 33.8636C26.2443 33.8636 25.3999 34.2134 25.3999 35.1223C25.3999 37.2898 30.2527 36.8048 30.2527 40.0225C30.2527 41.8463 28.6373 42.8224 26.6639 42.8224C25.1905 42.8224 23.7102 42.2573 23.7102 42.2573C23.8521 41.4225 23.7846 40.5144 23.7102 39.5986H24.4205ZM29.9022 46.3158C30.1117 45.5482 30.2535 44.573 30.3954 43.6572L31.1663 43.59L31.45 45.0572C31.5176 45.4069 31.7269 45.6895 32.2883 45.6895C33.2011 45.6895 34.3978 45.1312 35.526 43.1722C35.0258 41.9807 33.5524 38.1375 32.2139 35.1963C31.8628 34.4227 31.7951 34.3547 31.3081 34.2134L30.95 34.079V33.3726L33.0654 33.4466L35.6608 33.3054V34.0057L35.0258 34.147C34.5326 34.2142 34.3293 34.4899 34.3293 34.7734C34.3293 34.8475 34.3293 34.9147 34.3967 35.0559C34.5318 35.4798 35.6608 38.6234 36.5061 40.7229C37.2027 39.2558 38.5409 35.9648 38.7504 35.4057C38.8249 35.1231 38.8923 35.0559 38.8923 34.8475C38.8923 34.4908 38.6828 34.2823 38.1958 34.1479L37.6956 34.0057V33.3062L39.6691 33.3734L41.4939 33.3062V34.0057L41.1425 34.2814C40.4401 34.564 40.3656 34.6312 40.0879 35.1963L36.9993 42.3977C35.1676 46.5303 33.2687 46.8801 31.9361 46.8801C31.0919 46.881 30.4568 46.6656 29.9022 46.3158Z" fill="#454540"/>
<path d="M78.1156 37.5364C78.1156 36.3559 78.0717 35.3613 78.0388 34.5196H80.5708L80.7133 35.8203H80.757C81.1296 35.2301 82.1051 34.301 83.6397 34.301C85.5579 34.301 87.0047 35.5799 87.0047 38.3672V43.9636H84.0999V38.7388C84.0999 37.5364 83.6725 36.6838 82.6315 36.6838C81.8202 36.6838 81.3489 37.2522 81.1627 37.7878C81.086 37.9518 81.0421 38.2578 81.0421 38.5202V43.9527H78.1375V37.5364H78.1156ZM94.3482 38.5202C94.3482 38.3562 94.3262 38.1485 94.3045 38.0065C94.14 37.1976 93.4933 36.5636 92.6054 36.5636C91.2792 36.5636 90.5889 37.766 90.5889 39.2635C90.5889 40.8593 91.3779 41.8649 92.5837 41.8649C93.4386 41.8649 94.1072 41.2747 94.2606 40.444C94.3045 40.2253 94.3373 40.0177 94.3373 39.7553L94.3482 38.5202ZM97.2637 30.2458V41.1326C97.2637 42.1928 97.3076 43.3078 97.3404 43.9527H94.732L94.5894 42.5535H94.5455C93.9538 43.6138 92.8247 44.1494 91.608 44.1494C89.383 44.1494 87.5966 42.2366 87.5966 39.3072C87.5747 36.1155 89.5584 34.2791 91.8053 34.2791C92.9672 34.2791 93.866 34.6726 94.2934 35.3394H94.3373V30.2458H97.2637ZM104.048 38.1704C104.048 37.4599 103.731 36.2576 102.393 36.2576C101.166 36.2576 100.673 37.3615 100.596 38.1704H104.048ZM100.629 40.1816C100.727 41.384 101.911 41.9742 103.281 41.9742C104.268 41.9742 105.079 41.8321 105.868 41.6026L106.241 43.592C105.298 43.9636 104.103 44.1822 102.854 44.1822C99.6532 44.1822 97.8337 42.3131 97.8337 39.3728C97.8337 36.9899 99.3025 34.3447 102.569 34.3447C105.594 34.3447 106.756 36.7276 106.756 39.0667C106.756 39.5586 106.712 40.0067 106.657 40.2253H100.618L100.629 40.1816ZM107.391 37.6239C107.391 36.2248 107.348 35.3394 107.315 34.5087H109.825L109.923 36.2576H110C110.471 34.8803 111.633 34.301 112.532 34.301C112.795 34.301 112.926 34.301 113.146 34.3447V37.1101C112.926 37.0664 112.696 37.0336 112.356 37.0336C111.293 37.0336 110.559 37.602 110.362 38.5202C110.318 38.7169 110.318 38.9465 110.318 39.1869V43.9854H107.413V37.6239H107.391ZM74.0272 34.5305H76.9318V43.9745H74.0272V34.5305ZM71.2542 34.2026C71.2542 33.1642 71.7693 32.3881 73.3148 32.3663C73.2161 32.1258 73.1723 31.8744 73.1723 31.5793C73.1723 30.989 73.3915 30.4753 73.7422 30.0599C73.5778 30.0381 73.4134 30.0381 73.249 30.0381C70.3664 30.0381 68.3277 31.5028 68.3277 34.1042V34.4977H67.1001V36.6729H68.3277V43.9417H71.2651V36.6729H72.8325V34.5087H71.2542V34.2026Z" fill="#454540"/>
<path d="M59.2746 31.5793C55.8549 31.5793 53.1147 34.3666 53.1147 37.766C53.1147 41.1982 55.8659 43.9527 59.2746 43.9527C62.6834 43.9527 65.4345 41.1654 65.4345 37.766V31.5793H59.2746Z" fill="#454540"/>
<path d="M57.0275 37.908C56.5123 37.3943 56.3918 36.6073 56.6987 35.9952L57.0275 36.3231C57.0713 36.1263 57.1919 35.9733 57.3453 35.8312C57.4878 35.6891 57.6632 35.5689 57.8386 35.5143L57.5097 35.1645C58.1235 34.8475 58.9127 34.9677 59.4278 35.4924C60.0964 36.1592 60.0964 37.2413 59.4278 37.8971C58.7592 38.5529 57.6632 38.5639 57.0275 37.908ZM59.8115 35.0989C58.9017 34.1916 57.4659 34.1916 56.589 35.0989C55.6793 36.0061 55.6793 37.4599 56.589 38.3562C57.4221 39.1869 58.7483 39.2634 59.6471 38.5201L60.3157 39.2088C60.217 39.4055 60.239 39.6351 60.4143 39.7771L61.6748 41.0342C61.8721 41.2309 62.168 41.2309 62.3653 41.0342L62.5078 40.8921C62.7051 40.6953 62.7051 40.4002 62.5078 40.2034L61.2363 38.9464C61.0939 38.8043 60.8637 38.7497 60.6664 38.8481L59.9978 38.1594C60.7212 37.2413 60.6445 35.9187 59.8115 35.0989Z" fill="#F1F1F1"/>
<path d="M77.2063 31.5794C77.2063 32.5413 76.45 33.2955 75.4855 33.2955C74.5429 33.2955 73.7646 32.5085 73.7646 31.5794C73.7646 30.6503 74.521 29.8633 75.4855 29.8633C76.45 29.8633 77.2063 30.6393 77.2063 31.5794Z" fill="#454540"/>
<path d="M112.912 7.67087L112.728 9.86009H111.826C110.385 9.86009 109.637 11.0043 109.637 12.1009V17.0454H107.084V7.67087H109.502L109.557 8.84093C110.064 8.03856 110.952 7.67087 112.047 7.67087H112.912ZM95.2145 17.0453H92.6594V12.0895C92.6594 11.0516 92.569 9.74536 91.0961 9.74536C89.6778 9.74536 89.1125 10.76 89.1125 11.9414V17.0453H86.5585V7.67078H88.9267L88.9807 8.86923C89.4882 8.06686 90.4333 7.44209 91.8279 7.44209C94.4021 7.44209 95.2145 9.26359 95.2145 11.1592V17.0453ZM85.4446 14.8555L85.2658 16.9885C84.6533 17.1513 84.1094 17.2098 83.4513 17.2098C81.0441 17.2098 80.3458 16.1158 80.3458 13.9169V5.02723H82.9003V7.67099H85.4425L85.2658 9.85991H82.9003V13.7265C82.9003 14.6089 83.1445 15.0855 84.0577 15.0855C84.4548 15.0855 84.8966 15.0382 85.4446 14.8555ZM79.5069 7.67087L79.3091 9.86009H78.6149C77.1775 9.86009 76.4627 11.0029 76.4627 12.1009V17.0454H73.9078V7.67087H76.3268L76.3771 8.84093C76.8873 8.03856 77.775 7.67087 78.8711 7.67087H79.5069ZM62.379 16.0067C60.6463 16.9255 58.9155 17.4554 56.6293 17.3896C52.3911 17.2614 49.3335 14.6531 49.3335 10.2474C49.3335 5.86103 52.4206 3.05841 56.6314 2.99258C58.7658 2.96024 60.6758 3.49705 62.1686 4.80275L60.3703 6.6058C59.4465 5.82528 58.0873 5.36906 56.463 5.44198C53.813 5.56426 52.2162 7.47288 52.181 10.097C52.1464 12.9402 53.9055 14.8996 56.6554 14.9711C57.9493 15.0032 58.8763 14.831 59.6784 14.4741V11.5679H56.8203L57.0132 9.18429H62.379V16.0067ZM105.943 13.249H98.939C99.1386 14.4469 100.089 15.1675 101.272 15.2002C102.422 15.2311 103.066 14.8867 103.907 14.0423L105.574 15.302C104.389 16.7482 102.968 17.2745 101.348 17.2745C98.4999 17.2745 96.366 15.3006 96.366 12.3578C96.366 9.41816 98.4894 7.442 101.242 7.442C104.275 7.442 105.943 9.26353 105.943 12.4968V13.249ZM103.384 11.289C103.306 10.1048 102.41 9.356 101.177 9.40367C99.9364 9.4502 99.1102 10.2512 98.939 11.289H103.384ZM72.2995 10.9066V17.0453H70.0471L69.9913 16.1209C69.3002 16.9692 68.1783 17.2746 67.0232 17.2746C65.2839 17.2746 63.6404 16.4245 63.6061 14.4447C63.5543 11.3328 67.1398 11.1117 69.3916 11.1117H69.8416V10.9886C69.8416 9.95956 69.1545 9.40373 67.8609 9.40373C66.9322 9.40373 66.0156 9.77285 65.3377 10.4027L63.8637 8.91856C65.202 7.84326 66.5944 7.44206 68.0779 7.44206C71.0078 7.44206 72.2995 8.78407 72.2995 10.9066ZM69.8416 12.9571H69.4863C68.2768 12.9597 66.1524 13.0187 66.1604 14.2722C66.1719 16.0381 69.8416 15.4769 69.8416 13.3472V12.9571ZM110.919 15.9548C110.919 15.3581 111.373 14.9084 111.956 14.9084C112.531 14.9084 112.986 15.3581 112.986 15.9548C112.986 16.562 112.531 17.0103 111.956 17.0103C111.373 17.0103 110.919 16.562 110.919 15.9548ZM111.956 17.22C112.649 17.22 113.241 16.686 113.241 15.9548C113.241 15.231 112.649 14.6982 111.956 14.6982C111.256 14.6982 110.664 15.231 110.664 15.9548C110.664 16.686 111.256 17.22 111.956 17.22ZM111.686 16.0558H111.942L112.329 16.686H112.578L112.161 16.0456C112.377 16.0195 112.542 15.9049 112.542 15.6447C112.542 15.3581 112.37 15.231 112.023 15.231H111.465V16.686H111.686V16.0558ZM111.686 15.8683V15.4186H111.989C112.144 15.4186 112.309 15.4518 112.309 15.6319C112.309 15.8552 112.141 15.8683 111.953 15.8683H111.686Z" fill="#454540"/>
<path d="M79.1005 64.4818C79.1005 67.416 76.8613 69.5782 74.1133 69.5782C71.3652 69.5782 69.126 67.416 69.126 64.4818C69.126 61.527 71.3652 59.3855 74.1133 59.3855C76.8613 59.3855 79.1005 61.527 79.1005 64.4818ZM76.9174 64.4818C76.9174 62.6483 75.6195 61.3937 74.1133 61.3937C72.607 61.3937 71.3092 62.6483 71.3092 64.4818C71.3092 66.2971 72.607 67.57 74.1133 67.57C75.6195 67.57 76.9174 66.2948 76.9174 64.4818Z" fill="#454540"/>
<path d="M89.8594 64.4818C89.8594 67.416 87.6201 69.5782 84.8719 69.5782C82.124 69.5782 79.8848 67.416 79.8848 64.4818C79.8848 61.5293 82.124 59.3855 84.8719 59.3855C87.6201 59.3855 89.8594 61.527 89.8594 64.4818ZM87.6762 64.4818C87.6762 62.6483 86.3782 61.3937 84.8719 61.3937C83.3659 61.3937 82.0679 62.6483 82.0679 64.4818C82.0679 66.2971 83.3659 67.57 84.8719 67.57C86.3782 67.57 87.6762 66.2948 87.6762 64.4818Z" fill="#454540"/>
<path d="M100.17 59.6934V68.8429C100.17 72.6066 98.0052 74.1438 95.4454 74.1438C93.0359 74.1438 91.5857 72.4917 91.0387 71.1406L92.9394 70.3296C93.2777 71.159 94.1073 72.1379 95.4431 72.1379C97.0818 72.1379 98.0971 71.1016 98.0971 69.1508V68.4178H98.0208C97.5322 69.0359 96.5908 69.5759 95.4027 69.5759C92.9171 69.5759 90.6396 67.3563 90.6396 64.5002C90.6396 61.6235 92.9171 59.3855 95.4027 59.3855C96.5885 59.3855 97.5299 59.9254 98.0208 60.5252H98.0971V59.6957H100.17V59.6934ZM98.2517 64.5002C98.2517 62.7057 97.0838 61.3937 95.5977 61.3937C94.0914 61.3937 92.8296 62.7057 92.8296 64.5002C92.8296 66.2764 94.0914 67.57 95.5977 67.57C97.0838 67.57 98.2517 66.2764 98.2517 64.5002Z" fill="#454540"/>
<path d="M103.589 54.3308V69.266H101.459V54.3308H103.589Z" fill="#454540"/>
<path d="M111.886 66.1593L113.581 67.3174C113.034 68.1469 111.716 69.576 109.438 69.576C106.614 69.576 104.505 67.3381 104.505 64.4797C104.505 61.449 106.632 59.3833 109.194 59.3833C111.774 59.3833 113.036 61.488 113.448 62.6254L113.675 63.2044L107.029 66.026C107.538 67.0485 108.329 67.5701 109.438 67.5701C110.55 67.5701 111.321 67.0095 111.886 66.1593ZM106.67 64.3257L111.113 62.4347C110.869 61.7982 110.133 61.3548 109.268 61.3548C108.159 61.3548 106.614 62.3589 106.67 64.3257Z" fill="#454540"/>
<path d="M61.0653 63.1562V60.994H68.173C68.2425 61.3708 68.2784 61.8166 68.2784 62.2991C68.2784 63.9213 67.8458 65.9272 66.4516 67.3564C65.0955 68.804 63.3628 69.576 61.0676 69.576C56.8132 69.576 53.2358 66.0237 53.2358 61.6626C53.2358 57.3016 56.8132 53.7493 61.0676 53.7493C63.4211 53.7493 65.0977 54.6959 66.3575 55.9298L64.8691 57.4555C63.9658 56.587 62.7419 55.9114 61.0653 55.9114C57.9586 55.9114 55.5289 58.478 55.5289 61.6626C55.5289 64.8473 57.9586 67.4138 61.0653 67.4138C63.0804 67.4138 64.2281 66.5844 64.9633 65.8307C65.5595 65.2195 65.9517 64.3464 66.1064 63.1539L61.0653 63.1562Z" fill="#454540"/>
<path d="M8.65619 83.1187C8.65619 81.8708 7.4894 81.5588 6.56825 81.5588V81.746C7.12095 81.746 7.55082 81.9332 7.55082 82.37C7.55082 82.6195 7.36658 82.9939 6.8139 82.9939C6.38403 82.9939 5.46288 82.7443 4.78738 82.4947C3.98905 82.1828 3.25214 81.9332 2.63803 81.9332C1.40984 81.9332 0.550099 82.8691 0.550099 83.9298C0.550099 84.8657 1.22561 85.1777 1.47125 85.3024L1.53266 85.1777C1.40984 85.0529 1.22561 84.9281 1.22561 84.5537C1.22561 84.3041 1.47125 83.8674 2.08534 83.8674C2.63803 83.8674 3.37494 84.117 4.35751 84.4289C5.21725 84.6785 6.13838 84.8657 6.62966 84.9281V86.8623L5.70853 87.6734V87.7358L6.62966 88.5469V91.2298C6.13838 91.5418 5.58571 91.6042 5.09442 91.6042C4.17327 91.6042 3.37494 91.3546 2.69944 90.6059L5.21725 89.358V85.0529L2.14675 86.4255C2.39239 85.6144 3.0679 85.0529 3.7434 84.6785L3.68201 84.4913C1.8397 84.9905 0.181641 86.7375 0.181641 88.8589C0.181641 91.3546 2.20816 93.2264 4.48034 93.2264C6.93671 93.2264 8.53336 91.2298 8.53336 89.1708H8.41056C8.0421 89.9819 7.4894 90.7307 6.8139 91.105V88.5469L7.79645 87.7358V87.6734L6.8139 86.8623V84.9281C7.73503 84.9281 8.65619 84.3041 8.65619 83.1187ZM3.31355 89.9819L2.57661 90.3563C2.14675 89.7947 1.90111 89.046 1.90111 87.9853C1.90111 87.5486 1.90111 87.0495 2.02393 86.6751L3.31355 86.1135V89.9819ZM9.82297 91.417L9.02464 92.0409L9.14747 92.1657L9.51593 91.8537L10.867 93.1016L12.7092 91.8537L12.6478 91.7289L12.1565 92.0409L11.5425 91.417V87.1742L12.0337 86.7999L13.0777 87.6734V91.4794C13.0777 93.8503 12.5864 94.2247 11.5425 94.599V94.7862C13.2619 94.8486 14.8586 94.2871 14.8586 91.2298V87.1118L15.4113 86.6751L15.2885 86.5503L14.7972 86.9247L13.2619 85.6144L11.5425 86.9247V81.8084H11.4196L9.2703 83.3058V83.4306C9.51593 83.5554 9.88438 83.6802 9.88438 84.3665L9.82297 91.417ZM21.061 90.7307L19.5257 91.9161L17.9905 90.6683V89.9195L20.8767 87.9229V87.8606L19.4029 85.6144L16.2096 87.3614V91.4794L15.5955 91.9785L15.7183 92.1033L16.271 91.6665L18.3589 93.2264L21.1224 90.9802L21.061 90.7307ZM17.9905 89.67V86.6127L18.1133 86.5503L19.4643 88.7341L17.9905 89.67ZM32.7903 82.5571C32.7903 82.37 32.7288 82.1828 32.6675 81.9956H32.5447C32.3603 82.4947 32.1147 82.7443 31.5005 82.7443C30.9479 82.7443 30.5795 82.4323 30.3338 82.1828L28.5529 84.2417L28.6758 84.3665L29.2899 83.805C29.6584 84.117 29.9653 84.3665 30.8251 84.4289V89.6076L27.2018 83.3058C26.8949 82.8067 26.4651 82.1204 25.6053 82.1204C24.6227 82.1204 23.763 82.9939 23.8858 84.3665H24.0701C24.1314 83.9922 24.3157 83.5554 24.7456 83.5554C25.0527 83.5554 25.3597 83.8674 25.5438 84.1793V86.2383C24.4385 86.2383 23.7016 86.7375 23.7016 87.6734C23.7016 88.1725 23.9472 88.9213 24.6841 89.1084V88.9836C24.5613 88.8589 24.4999 88.7341 24.4999 88.5469C24.4999 88.2349 24.7456 87.9853 25.1753 87.9853H25.4825V90.6059C24.1929 90.6059 23.1489 91.3546 23.1489 92.6025C23.1489 93.7879 24.1314 94.3495 25.2368 94.2871V94.1623C24.5613 94.0999 24.2543 93.7879 24.2543 93.3512C24.2543 92.7896 24.6227 92.54 25.114 92.54C25.6053 92.54 26.0351 92.852 26.3423 93.2264L28.1232 91.2298L28.0003 91.105L27.5703 91.6042C26.8949 90.9802 26.5264 90.793 25.7281 90.6683V84.4289L30.641 93.164H31.0095V84.4289C31.9305 84.3665 32.7903 83.6178 32.7903 82.5571ZM37.2732 90.7307L35.7379 91.9161L34.2027 90.6683V89.9195L37.0888 87.9229V87.8606L35.6151 85.6144L32.4219 87.3614V91.4794L31.8077 91.9785L31.9305 92.1033L32.4831 91.6665L34.5712 93.2264L37.3344 90.9802L37.2732 90.7307ZM34.2027 89.67V86.6127L34.3256 86.5503L35.6764 88.7341L34.2027 89.67ZM47.283 86.3007L46.8532 86.6127L45.6862 85.6144L44.3354 86.8623L44.8879 87.4238V92.1033L43.414 91.1674V87.299L43.9053 86.9871L42.4929 85.6144L41.1418 86.8623L41.6947 87.4238V91.9161L41.5103 92.0409L40.2208 91.105V87.3614C40.2208 86.4879 39.791 86.2383 39.2997 85.9264C38.8699 85.6144 38.6243 85.4272 38.6243 84.9905C38.6243 84.6161 38.9927 84.4289 39.1769 84.3041V84.1793C38.6855 84.1793 37.396 84.6785 37.396 85.864C37.396 86.4879 37.7029 86.7375 38.0101 87.0495C38.3171 87.3614 38.6243 87.611 38.6243 88.1725V91.7913L37.9486 92.2905L38.0714 92.4153L38.6855 91.9161L40.0979 93.164L41.6332 92.1033L43.3527 93.164L46.6075 91.2298V87.0495L47.4058 86.4255L47.283 86.3007ZM58.7051 82.8691L58.091 83.4306L56.7402 82.1828L54.7136 83.6802V82.3076H54.5293L54.5908 92.4153C54.4064 92.4153 53.8538 92.2905 53.4238 92.1657L53.301 83.7426C53.301 83.1187 52.8712 82.2452 51.7658 82.2452C50.6606 82.2452 49.9236 83.1187 49.9236 83.9922H50.1077C50.1693 83.6178 50.3534 83.3058 50.7219 83.3058C51.0903 83.3058 51.3973 83.5554 51.3973 84.3665V86.7999C50.2921 86.8623 49.6164 87.4862 49.6164 88.2973C49.6164 88.7965 49.8621 89.5452 50.599 89.5452V89.4204C50.3534 89.2956 50.2921 89.1084 50.2921 88.9836C50.2921 88.6093 50.599 88.4845 51.0903 88.4845H51.336V92.3529C50.4149 92.6648 50.0464 93.3512 50.0464 94.0999C50.0464 95.1606 50.8447 95.9093 52.073 95.9093C52.9328 95.9093 53.6695 95.7845 54.4064 95.5973C55.0206 95.4725 55.8188 95.2854 56.1873 95.2854C56.6786 95.2854 56.863 95.5349 56.863 95.8469C56.863 96.2836 56.6786 96.4708 56.433 96.5332V96.658C57.4156 96.4708 58.0297 95.8469 58.0297 94.911C58.0297 93.9751 57.1084 93.4136 56.126 93.4136C55.6347 93.4136 54.5908 93.6007 53.8538 93.7255C52.994 93.9127 52.1343 94.0375 51.8886 94.0375C51.4588 94.0375 50.9675 93.8503 50.9675 93.2264C50.9675 92.7272 51.3973 92.2905 52.4414 92.2905C52.994 92.2905 53.6695 92.3529 54.3451 92.54C55.0819 92.7272 55.7575 92.9144 56.3717 92.9144C57.2927 92.9144 58.091 92.6025 58.091 91.2922V83.6178L58.828 82.9939L58.7051 82.8691ZM56.1873 86.6751C56.0032 86.8623 55.7575 87.0495 55.4503 87.0495C55.1434 87.0495 54.8365 86.8623 54.7136 86.6751V83.9298L55.3275 83.493L56.1873 84.3041V86.6751ZM56.1873 88.5469C56.0645 88.4221 55.7575 88.2349 55.4503 88.2349C55.1434 88.2349 54.8365 88.4221 54.7136 88.5469V86.9247C54.8365 87.0495 55.1434 87.2366 55.4503 87.2366C55.7575 87.2366 56.0645 87.0495 56.1873 86.9247V88.5469ZM56.1873 91.4794C56.1873 91.9785 55.8804 92.4777 55.2047 92.4777H54.7136V88.7965C54.8365 88.6717 55.1434 88.4845 55.4503 88.4845C55.7575 88.4845 56.0032 88.6717 56.1873 88.7965V91.4794ZM64.6006 87.0495L62.6354 85.6144L59.6262 87.3614V91.417L59.0123 91.9161L59.0736 92.0409L59.5649 91.6665L61.5299 93.164L64.6006 91.2922V87.0495ZM61.2843 90.9802V86.4879L62.8197 87.611V92.0409L61.2843 90.9802ZM70.4345 85.7392H70.3117C70.1273 85.864 69.9432 85.9888 69.7588 85.9888C69.5132 85.9888 69.2062 85.864 69.0834 85.6768H68.9606L67.9167 86.8623L66.8728 85.6768L65.0304 86.9247L65.0917 87.0495L65.583 86.7375L66.1971 87.4238V91.3546L65.3988 91.9785L65.5217 92.1033L65.8902 91.7913L67.3638 93.0392L69.2675 91.7289L69.2062 91.6042L68.6536 91.9161L67.9167 91.2922V86.9247C68.2236 87.2366 68.5921 87.5486 69.0221 87.5486C69.8817 87.611 70.373 86.7375 70.4345 85.7392ZM77.8036 91.7289L75.7156 93.164L72.8908 88.7965L74.9173 85.6144H75.0402C75.2858 85.864 75.6543 86.1135 76.0841 86.1135C76.5141 86.1135 76.821 85.864 77.0054 85.6144H77.128C77.0667 86.8623 76.2069 87.611 75.5928 87.611C74.9789 87.611 74.6717 87.299 74.3032 87.1118L74.1191 87.4238L77.1895 92.0409L77.8036 91.6665V91.7289ZM71.0487 91.417L70.2502 92.0409L70.373 92.1657L70.7415 91.8537L72.0926 93.1016L73.9347 91.8537L73.8119 91.7289L73.3206 92.0409L72.7067 91.417V81.8084H72.6452L70.4345 83.3058V83.4306C70.6802 83.5554 71.0487 83.6178 71.0487 84.3665V91.417ZM87.9976 83.1187C87.9976 81.8708 86.8308 81.5588 85.9098 81.5588V81.746C86.4623 81.746 86.8924 81.9332 86.8924 82.37C86.8924 82.6195 86.708 82.9939 86.1554 82.9939C85.7254 82.9939 84.8043 82.7443 84.1289 82.4947C83.3304 82.2452 82.5937 81.9956 81.9795 81.9956C80.7513 81.9956 79.8915 82.9315 79.8915 83.9922C79.8915 84.9281 80.5671 85.24 80.8128 85.3648L80.8741 85.24C80.69 85.1153 80.5056 84.9905 80.5056 84.6161C80.5056 84.3665 80.7513 83.9298 81.3654 83.9298C81.918 83.9298 82.655 84.1793 83.6376 84.4913C84.4974 84.7409 85.4184 84.9281 85.9098 84.9905V86.9247L84.9887 87.7358V87.7982L85.9098 88.6093V91.2922C85.4184 91.6042 84.8658 91.6665 84.3745 91.6665C83.4532 91.6665 82.655 91.417 81.9795 90.6683L84.4974 89.4204V85.0529L81.4267 86.4255C81.7339 85.6144 82.4093 85.0529 83.0234 84.6161L82.9621 84.4913C81.1197 84.9905 79.4617 86.6751 79.4617 88.7965C79.4617 91.2922 81.4882 93.164 83.7604 93.164C86.2167 93.164 87.8134 91.1674 87.8134 89.1084H87.6906C87.3221 89.9195 86.7695 90.6683 86.0939 91.0426V88.4845L87.0765 87.6734V87.611L86.1554 86.7999V84.9281C87.0765 84.9281 87.9976 84.3041 87.9976 83.1187ZM82.6549 89.9819L81.918 90.3563C81.4882 89.7947 81.2426 89.046 81.2426 87.9853C81.2426 87.5486 81.3038 87.0495 81.4267 86.6751L82.7165 86.1135L82.6549 89.9819ZM90.1469 82.4947H90.0856L88.8574 83.5554V83.6178L89.9013 84.8033H90.0241L91.2524 83.7426V83.6802L90.1469 82.4947ZM91.9893 91.7289L91.498 92.0409L90.8839 91.417V87.1118L91.498 86.6751L91.3752 86.5503L90.9454 86.9247L89.84 85.6144L88.0591 86.8623L88.1819 87.0495L88.6117 86.7375L89.1643 87.4238V91.4794L88.366 92.1033L88.4276 92.2281L88.8574 91.9161L90.2085 93.164L92.0506 91.9161L91.9893 91.7289ZM102.245 91.6665L101.815 91.9785L101.139 91.3546V87.1118L101.753 86.6127L101.631 86.4879L101.139 86.9247L99.7269 85.6144L97.8845 86.9247L96.4721 85.6144L94.7528 86.9247L93.6474 85.6144L91.8665 86.8623L91.9278 87.0495L92.3578 86.7375L92.9719 87.4238V91.4794L92.4806 91.9785L93.893 93.164L95.2439 91.9161L94.6913 91.3546V87.1118L95.2439 86.7375L96.1652 87.611V91.3546L95.6739 91.8537L97.0863 93.0392L98.4374 91.7913L97.8845 91.2298V87.1118L98.3758 86.7999L99.3585 87.6734V91.417L98.9287 91.8537L100.341 93.164L102.245 91.8537V91.6665ZM107.587 90.7307L106.052 91.9161L104.517 90.6683V89.9195L107.403 87.9229V87.8606L105.929 85.6144L102.736 87.3614V91.6042L104.885 93.164L107.649 90.9178L107.587 90.7307ZM104.517 89.67V86.6127L104.64 86.5503L105.991 88.7341L104.517 89.67ZM113.176 89.1084L112.009 88.1725C112.807 87.4862 113.114 86.5503 113.114 85.9264V85.552H112.992C112.869 85.864 112.623 86.1759 112.132 86.1759C111.64 86.1759 111.333 85.9264 111.026 85.552L108.263 87.1118V89.358L109.307 90.1691C108.263 91.105 108.079 91.7289 108.079 92.2281C108.079 92.852 108.386 93.2888 108.877 93.476L108.938 93.3512C108.816 93.2264 108.693 93.164 108.693 92.852C108.693 92.6648 108.938 92.3529 109.43 92.3529C110.044 92.3529 110.412 92.7896 110.597 92.9768L113.237 91.3546V89.1084H113.176ZM112.5 87.2366C112.07 87.9853 111.149 88.7341 110.597 89.1084L109.921 88.5469V86.3631C110.167 86.9871 110.842 87.4862 111.518 87.4862C111.947 87.4862 112.193 87.4238 112.5 87.2366ZM111.456 92.2281C111.149 91.5418 110.412 91.0426 109.675 91.0426C109.491 91.0426 109 91.0426 108.508 91.3546C108.816 90.8554 109.614 89.9819 110.658 89.358L111.395 89.9819L111.456 92.2281Z" fill="#454540"/>
</svg>
