<svg width="603" height="230" viewBox="0 0 603 230" fill="none" xmlns="http://www.w3.org/2000/svg">
<g clip-path="url(#clip0_2595_72)">
<path d="M0.931641 0.390625H602.932V229.391H0.931641V0.390625Z" fill="white"/>
<mask id="mask0_2595_72" style="mask-type:luminance" maskUnits="userSpaceOnUse" x="30" y="18" width="544" height="193">
<path d="M30.4463 18.915H573.417V210.866H30.4463V18.915Z" fill="white"/>
</mask>
<g mask="url(#mask0_2595_72)">
<path d="M30.4463 210.866C30.4463 210.866 34.6456 210.833 36.7453 210.816C38.8449 210.798 41.1545 210.79 43.2542 210.758C45.3538 210.727 47.4535 210.719 49.5531 210.625C51.6528 210.531 53.8924 210.288 56.0621 210.18C58.2317 210.071 60.6113 209.995 62.571 209.972C64.5307 209.95 66.4903 210.065 68.45 210.024C70.4097 209.982 72.8593 209.973 74.9589 209.692C77.0586 209.411 79.1583 208.688 81.2579 208.328C83.3576 207.968 85.6672 207.64 87.7668 207.508C89.8665 207.376 91.9661 207.978 94.0658 207.51C96.1655 207.042 98.4051 205.023 100.575 204.607C102.744 204.19 104.984 204.869 107.084 205.01C109.183 205.151 111.283 205.677 113.383 205.467C115.482 205.257 117.792 204.725 119.892 203.693C121.991 202.661 124.091 200.876 126.19 199.219C128.29 197.563 130.53 195.716 132.699 193.573C134.869 191.43 137.249 188.998 139.208 186.361C141.168 183.724 143.128 177.513 145.087 177.052C147.047 176.59 149.497 183.858 151.596 184.292C153.696 184.725 155.796 181.233 157.895 179.886C159.995 178.539 162.305 177.328 164.404 176.089C166.504 174.85 168.604 173.971 170.703 172.328C172.803 170.686 175.042 166.579 177.212 166.032C179.382 165.486 181.621 168.751 183.721 169.048C185.821 169.346 187.92 167.769 190.02 167.916C192.12 168.063 194.429 169.611 196.529 169.998C198.629 170.385 200.728 170.929 202.828 170.305C204.928 169.681 207.167 166.664 209.337 166.117C211.506 165.569 213.886 167.359 215.846 167.02C217.805 166.682 219.765 166.769 221.725 164.174C223.684 161.58 226.134 154.987 228.234 150.09C230.333 145.193 232.433 140.823 234.533 134.339C236.632 127.855 238.942 115.515 241.042 110.414C243.141 105.313 245.241 101.814 247.341 102.962C249.44 104.111 251.68 114.428 253.849 117.785C256.019 121.141 258.259 125.654 260.358 123.102C262.458 120.55 264.558 103.013 266.657 102.646C268.757 102.28 271.067 113.498 273.166 121.511C275.266 129.524 277.366 148.089 279.465 151.333C281.565 154.577 283.805 143.181 285.974 140.63C288.144 138.078 290.453 137.286 292.483 136.023C294.513 134.76 296.542 132.062 298.572 132.754C300.602 133.447 302.981 139.825 305.081 140.69C307.181 141.555 309.28 141.834 311.38 138.199C313.48 134.565 315.789 121.198 317.889 118.237C319.989 115.275 322.088 121.54 324.188 119.786C326.287 118.033 328.527 110.714 330.697 107.315C332.866 103.916 335.106 102.539 337.206 99.3922C339.305 96.2457 341.405 87.582 343.505 88.1797C345.604 88.7775 347.914 99.265 350.014 103.472C352.113 107.679 354.213 113.845 356.313 113.914C358.412 113.983 360.652 105.476 362.821 103.554C364.991 101.631 367.371 103.708 369.33 102.38C371.29 101.053 373.25 97.6191 375.209 95.4739C377.169 93.3286 379.619 88.9811 381.718 88.8695C383.818 88.7578 385.918 91.1612 388.017 94.5909C390.117 98.0206 392.427 106.581 394.526 109.943C396.626 113.305 398.726 114.494 400.825 115.259C402.925 116.023 405.164 113.504 407.334 114.506C409.504 115.509 411.743 121.192 413.843 121.275C415.943 121.357 418.042 116.977 420.142 115.222C422.242 113.466 424.551 114.2 426.651 110.593C428.751 106.987 430.85 98.2014 432.95 93.4328C435.05 88.6642 437.289 81.7722 439.459 81.5997C441.628 81.4272 444.008 93.3988 445.968 92.3975C447.927 91.3963 449.887 79.5116 451.847 76.6371C453.807 73.7627 456.256 75.9978 458.356 74.9915C460.455 73.9851 462.555 72.3097 464.655 70.5459C466.754 68.7821 469.064 65.471 471.164 64.2039C473.263 62.9367 475.363 64.9771 477.463 62.7386C479.562 60.5002 481.802 43.4788 483.971 50.3745C486.141 57.2702 488.381 96.9838 490.48 104.113C492.58 111.242 494.68 95.6937 496.779 94.8827C498.879 94.0716 501.189 96.2384 503.288 99.3922C505.388 102.546 507.488 116.471 509.587 113.951C511.687 111.431 513.927 89.9713 516.096 83.2837C518.266 76.5962 520.646 74.7142 522.605 73.8257C524.565 72.9372 526.524 73.7603 528.484 77.0377C530.444 80.315 532.893 94.3324 534.993 95.2525C537.093 96.1725 539.192 84.9984 541.292 83.1455C543.392 81.2926 545.701 87.2197 547.801 84.168C549.901 81.1162 552 71.1839 554.1 64.868C556.2 58.5521 558.439 47.5818 560.609 45.6525C562.779 43.7232 565.018 56.3581 567.118 53.2921C569.217 50.2261 573.417 27.5029 573.417 27.5029" stroke="#02AD28" stroke-width="4" stroke-miterlimit="10"/>
</g>
</g>
<defs>
<clipPath id="clip0_2595_72">
<rect width="602" height="229" fill="white" transform="translate(0.931641 0.390625)"/>
</clipPath>
</defs>
</svg>
