<svg width="603" height="229" viewBox="0 0 603 229" fill="none" xmlns="http://www.w3.org/2000/svg">
<g clip-path="url(#clip0_2602_1751)">
<path d="M0.765625 0H602.766V229H0.765625V0Z" fill="white"/>
<mask id="mask0_2602_1751" style="mask-type:luminance" maskUnits="userSpaceOnUse" x="30" y="18" width="544" height="193">
<path d="M30.3638 18.5176H573.167V210.483H30.3638V18.5176Z" fill="white"/>
</mask>
<g mask="url(#mask0_2602_1751)">
<path d="M30.3638 178.072C30.3638 178.072 38.1181 173.984 41.9953 172.498C45.8724 171.013 50.0081 170.915 54.0145 169.048C58.0209 167.182 62.1565 163.347 66.0337 161.299C69.9109 159.251 73.788 157.983 77.6652 156.512C81.5424 155.04 85.8072 155.171 89.6844 152.335C93.5616 149.5 97.4387 142.791 101.316 139.366C105.193 135.942 109.329 132.355 113.335 131.535C117.342 130.714 121.606 133.679 125.354 134.444C129.102 135.209 132.85 136.035 136.598 136.31C140.346 136.586 144.74 135.323 148.617 136.083C152.495 136.843 156.372 138.693 160.249 140.862C164.126 143.031 168.391 147.595 172.268 149.371C176.145 151.146 180.022 151.188 183.9 151.789C187.777 152.391 191.912 155.565 195.919 153.021C199.925 150.478 204.061 139.098 207.938 136.528C211.815 133.957 215.692 138.054 219.569 137.065C223.447 136.076 227.712 134.293 231.589 130.379C235.466 126.465 239.343 117.718 243.22 113.366C247.097 109.014 251.233 108.111 255.239 103.965C259.246 99.819 263.64 89.4122 267.259 88.4909C270.877 87.5695 274.496 98.6458 278.115 96.9392C281.733 95.2325 286.257 80.5148 290.134 76.2487C294.011 71.9827 297.888 72.5705 301.765 70.6753C305.643 68.7801 309.907 67.3796 313.785 64.6844C317.662 61.9893 321.539 57.2658 325.416 54.3113C329.293 51.3568 333.429 47.0013 337.435 46.7123C341.442 46.4233 345.577 49.5513 349.455 52.577C353.332 55.6027 357.209 57.9839 361.086 65.0556C364.963 72.1273 369.228 88.4646 373.105 96.0056C376.982 103.547 380.86 110.12 384.737 111.3C388.614 112.48 392.75 102.988 396.756 102.814C400.762 102.641 405.156 109.426 408.775 110.259C412.394 111.091 416.013 111.086 419.631 108.53C423.25 105.975 427.773 98.626 431.65 93.469C435.528 88.3119 439.405 81.2963 443.282 77.1021C447.159 72.9079 451.424 71.6292 455.301 68.0104C459.178 64.3915 463.056 58.9528 466.933 55.0958C470.81 51.2389 474.946 47.5191 478.952 44.5277C482.958 41.5363 487.094 34.6659 490.971 37.1476C494.848 39.6293 498.725 55.2475 502.603 59.18C506.48 63.1124 510.745 58.7793 514.622 60.7944C518.499 62.8095 522.376 69.9397 526.253 71.3227C530.131 72.7058 534.266 70.135 538.273 69.0182C542.279 67.9014 546.673 66.8731 550.292 64.622C553.911 62.3711 557.529 59.6675 561.148 55.0868C564.767 50.5061 573.167 35.2148 573.167 35.2148" stroke="#02AD28" stroke-width="4" stroke-miterlimit="10"/>
</g>
</g>
<defs>
<clipPath id="clip0_2602_1751">
<rect width="602" height="229" fill="white" transform="translate(0.765625)"/>
</clipPath>
</defs>
</svg>
