<svg width="447" height="381" viewBox="0 0 447 381" fill="none" xmlns="http://www.w3.org/2000/svg">
<path d="M53.745 0.360107H45.9238H37.908L32.4916 33.2326C32.3772 33.2475 32.2627 33.2549 32.1443 33.2698C20.1778 34.8191 10.891 44.6248 10.994 55.5896C11.0398 60.1748 12.6468 63.7567 15.5287 66.6921C18.1319 69.3451 21.6779 70.7831 25.2583 70.7831C26.6592 70.7831 28.064 70.5639 29.4189 70.1105C35.8696 67.948 38.0112 62.6793 39.0151 57.8564C39.0151 57.86 39.0111 57.8674 39.0111 57.8749C39.3012 52.4909 36.3468 47.1738 30.7129 44.0267L28.9303 54.9841C28.3578 58.0941 27.6134 59.9519 26.0179 60.4871C25.0636 60.8065 23.888 60.4759 23.0941 59.6658C22.0711 58.6217 21.4718 57.4588 21.4527 55.4931C21.3993 50.0126 25.827 45.7099 30.7129 44.0267C32.2475 43.4877 33.8429 43.2352 35.6255 43.2352C37.4347 43.2352 39.3395 43.5733 41.08 44.1418C47.6797 45.6579 51.6798 52.4722 52.6685 59.8516L53.2487 63.9872H64.2303L53.745 0.360107ZM42.4808 33.9387L45.6298 10.4147H45.7254H46.0193L49.5347 36.666C47.3018 35.4805 44.9275 34.5554 42.4808 33.9387ZM147.835 18.1061V63.9834H136.877V18.1061H147.835ZM115.848 79.8754C130.238 79.8754 131.35 71.8905 131.35 60.606L131.445 18.1099H125.772C123.731 18.1099 121.226 19.5998 121.055 21.5209L120.921 23.0033L120.391 21.6062C119.333 18.8307 116.673 17.3629 112.695 17.3629C108.699 17.3629 105.748 18.8566 103.924 21.7995C102.149 24.6606 101.779 28.3614 101.779 30.9624V48.8012C101.779 53.2266 102.443 56.4852 103.809 58.7593C105.47 61.5238 108.157 62.8688 112.031 62.8688C115.696 62.8688 118.467 61.3527 119.833 58.5994L120.486 57.2877V58.7445V63.8533C120.486 68.3456 120.2 71.5262 116.516 71.5262C115.673 71.5262 112.928 71.2475 112.928 67.6619V67.532H101.874V67.7549C101.874 71.2401 102.844 74.0455 104.756 76.0891C107.1 78.6008 110.833 79.8754 115.848 79.8754ZM120.295 46.9472C120.295 51.3204 119.661 53.691 116.325 53.691C113.165 53.691 112.737 50.7519 112.737 47.876V31.895C112.737 28.2945 114.066 26.5444 116.803 26.5444C119.879 26.5444 120.295 29.4836 120.295 32.3595V46.9472ZM148.408 8.0181C148.408 11.2693 145.751 13.8145 142.358 13.8145C139.018 13.8145 136.403 11.2693 136.403 8.0181C136.403 4.71487 139.018 2.12876 142.358 2.12876C145.694 2.12876 148.408 4.77061 148.408 8.0181ZM78.6856 32.9168V63.9872H67.6313L67.536 18.1099H73.6813C75.7922 18.1099 78.2274 19.559 78.4947 21.7176L78.6168 22.7061L79.1321 21.8477C80.9146 18.8753 83.8003 17.3667 87.7128 17.3667C94.007 17.3667 97.202 21.3165 97.202 29.1119V63.9908H86.2434V31.5234C86.2434 28.2202 85.0676 26.5444 82.7507 26.5444C79.7505 26.5444 78.6856 28.2128 78.6856 32.9168Z" fill="#454540"/>
<path d="M38.6184 57.627C39.172 55.3269 40.4544 46.4948 40.6836 43.894C38.9468 43.3292 37.0382 42.9873 35.2291 42.9873C33.4465 42.9873 31.8508 43.2437 30.3164 43.7788C35.9542 46.926 38.9087 52.243 38.6184 57.627Z" fill="#454540"/>
<path d="M8.78567 257.042C4.37946 257.042 0.650391 260.743 0.650391 265.124C0.650391 269.541 4.37605 273.279 8.78567 273.279C13.1551 273.279 16.8472 269.55 16.8472 265.124C16.8472 260.743 13.1551 257.042 8.78567 257.042Z" fill="#454540"/>
<path d="M124.678 245.762C123.638 244.784 122.452 243.975 121.164 243.363C119.835 242.718 118.378 242.384 116.902 242.388C115.806 242.377 114.721 242.608 113.724 243.063C112.752 243.513 112.265 244.288 112.265 245.387C112.265 246.435 112.801 247.184 113.872 247.636C114.944 248.088 116.677 248.588 119.07 249.136C120.509 249.45 121.922 249.876 123.294 250.412C124.679 250.941 125.978 251.673 127.147 252.584C128.289 253.479 129.23 254.602 129.914 255.883C130.61 257.184 130.96 258.732 130.96 260.53C130.96 262.88 130.487 264.867 129.541 266.491C128.63 268.076 127.362 269.424 125.838 270.427C124.271 271.447 122.538 272.183 120.717 272.602C118.857 273.047 116.951 273.274 115.039 273.276C111.999 273.277 108.979 272.784 106.097 271.815C103.182 270.839 100.751 269.402 98.8067 267.503L105.686 260.231C106.835 261.472 108.202 262.488 109.719 263.23C111.298 264.027 113.043 264.438 114.811 264.43C115.837 264.423 116.847 264.18 117.765 263.718C118.736 263.244 119.221 262.406 119.221 261.206C119.221 260.057 118.624 259.207 117.428 258.654C116.231 258.101 114.362 257.526 111.82 256.93C110.497 256.623 109.197 256.222 107.931 255.731C106.669 255.252 105.494 254.568 104.454 253.706C103.415 252.837 102.564 251.766 101.949 250.558C101.301 249.31 100.977 247.81 100.977 246.06C100.977 243.811 101.451 241.898 102.398 240.324C103.317 238.78 104.568 237.46 106.061 236.463C107.584 235.452 109.265 234.704 111.034 234.252C112.803 233.784 114.625 233.544 116.454 233.54C119.235 233.539 122 233.981 124.642 234.851C127.308 235.727 129.564 237.039 131.409 238.788L124.678 245.762ZM156.454 233.696C152.771 233.696 149.661 234.776 147.317 236.837V217.368H135.763V272.157H147.315V251.7C147.315 246.539 150.658 244.7 153.787 244.7C158.652 244.7 159.673 248.467 159.673 251.627V272.157H171.234V248.552C171.234 239.806 165.157 233.697 156.451 233.697L156.454 233.696ZM62.17 239.925C64.3632 237.825 66.9753 236.215 69.8342 235.201C72.6995 234.162 75.7232 233.63 78.7702 233.63C81.9101 233.63 84.5647 234.017 86.7327 234.792C88.9013 235.565 90.6577 236.765 92.0044 238.39C93.3499 240.015 94.3349 242.064 94.9581 244.538C95.5814 247.012 95.8933 249.948 95.8933 253.347V272.077H84.5654V268.187C77.3913 277.182 61.3896 273.845 61.3896 261.365C61.3896 259.107 63.0286 250.045 75.7879 248.887C78.3217 248.656 80.5784 248.77 84.3061 248.77V248.17C84.3061 246.322 83.6577 244.96 82.3614 244.084C81.0651 243.208 79.4698 242.772 77.5763 242.773C75.8315 242.773 74.1086 243.156 72.5285 243.897C70.9087 244.647 69.8854 245.293 68.7386 246.342L62.17 239.925ZM84.6768 255.893H80.1511C76.4581 255.893 74.4439 257.453 73.8472 258.098C73.2288 258.745 72.8906 259.61 72.9066 260.506C72.8896 261.081 73.0432 261.647 73.3462 262.135C73.6293 262.579 74.0114 262.95 74.4622 263.221C74.943 263.503 75.47 263.699 76.0186 263.798C76.5743 263.907 77.1381 263.965 77.7046 263.967C79.9599 263.967 81.6855 263.346 82.8815 262.102C84.0767 260.859 84.6747 259.174 84.674 257.048V255.893H84.6768ZM45.752 217.303V236.806C43.2065 234.684 40.0795 233.61 36.3532 233.61C26.0117 233.61 18.2109 242.074 18.2109 253.297C18.2109 264.52 26.0097 273.256 36.3532 273.256C40.1027 273.256 43.5983 271.979 45.9478 269.64V272.077H57.305V217.303H45.752ZM46.9274 257.015C46.5075 258.169 45.8837 259.238 45.0857 260.17C44.285 261.098 43.3069 261.857 42.2092 262.4C41.0849 262.962 39.8071 263.243 38.3757 263.243C36.8917 263.243 35.5865 262.961 34.4597 262.397C33.3683 261.86 32.4011 261.101 31.62 260.167C30.843 259.225 30.2568 258.141 29.8943 256.974C29.517 255.796 29.3244 254.566 29.3236 253.328C29.3236 252.101 29.5175 250.88 29.8992 249.713C30.2591 248.564 30.8496 247.5 31.6346 246.587C32.4195 245.674 33.3823 244.932 34.4637 244.405C35.5872 243.842 36.8931 243.56 38.3798 243.559C39.8112 243.559 41.0897 243.841 42.216 244.405C43.3136 244.949 44.2916 245.707 45.0925 246.636C45.8903 247.568 46.514 248.636 46.9343 249.789C47.8035 252.121 47.8035 254.689 46.9343 257.021L46.9274 257.015Z" fill="#454540"/>
<path d="M27.8544 118.314V138.644C27.8544 138.644 35.0485 138.644 38.8988 138.353C41.9265 137.825 42.4838 137.534 43.0412 134.519L44.1558 130.103H47.4488L46.8915 139.754L47.1837 149.642H43.8636L43.0412 145.781C42.2189 143.033 41.1042 142.475 38.8988 142.211C36.1394 141.92 27.8544 141.92 27.8544 141.92V158.971C27.8544 162.25 29.5263 163.651 33.3765 163.651H44.9782C48.5634 163.651 52.1451 163.36 54.3778 158.152L57.3784 151.543H60.165C59.8728 152.917 58.4931 165.025 58.2281 167.749C58.2281 167.749 47.741 167.485 43.3335 167.485H23.4468L11.5801 167.749V164.761L15.4303 163.915C18.2169 163.36 19.0393 162.541 19.0393 160.345C19.0393 160.345 19.3315 152.917 19.3315 140.542C19.3315 128.198 19.0393 120.767 19.0393 120.767C19.0393 118.307 18.2169 117.752 15.4303 117.197L11.5801 116.385V113.37L23.1817 113.607H45.2705C49.678 113.607 57.1101 112.815 57.1101 112.815C57.1101 112.815 56.845 117.468 56.5527 128.465H53.5249L52.4102 124.604C51.3228 119.661 49.6746 117.2 46.623 117.2H29.2612C27.8544 117.204 27.8544 117.468 27.8544 118.314ZM72.5619 120.483H75.8821V132.035L87.2186 131.48L86.6613 136.715L75.617 135.869V156.227C75.617 161.989 77.5539 164.209 80.8741 164.209C83.8748 164.209 86.1041 162.544 86.9264 161.17L88.5711 163.099C86.9264 166.933 82.2538 168.862 77.819 168.862C72.3241 168.862 67.8621 165.583 67.8621 159.265V136.157H61.2763V133.409C66.8018 132.854 70.9171 129.548 72.5619 120.483ZM96.3225 155.932L98.5247 161.167C99.347 163.36 101.284 165.583 105.692 165.583C110.391 165.583 112.328 163.099 112.328 160.084C112.328 150.724 93.8249 153.475 93.8249 140.837C93.8249 133.7 99.6121 130.367 107.071 130.367C110.391 130.367 115.356 130.922 117.851 132.032C117.293 134.78 117.001 138.35 117.001 141.101L114.265 141.365L112.328 135.866C111.771 134.519 109.542 133.406 106.806 133.406C103.486 133.406 100.169 134.78 100.169 138.35C100.169 146.863 119.231 144.958 119.231 157.597C119.231 164.761 112.886 168.595 105.134 168.595C99.347 168.595 93.5327 166.375 93.5327 166.375C94.09 163.096 93.8249 159.529 93.5327 155.932H96.3225ZM117.854 182.316C118.677 179.301 119.234 175.471 119.791 171.874L122.819 171.61L123.933 177.372C124.199 178.746 125.021 179.856 127.226 179.856C130.811 179.856 135.512 177.663 139.943 169.968C137.978 165.289 132.191 150.193 126.934 138.641C125.555 135.602 125.289 135.335 123.376 134.78L121.97 134.252V131.477L130.279 131.768L140.473 131.213V133.964L137.978 134.519C136.041 134.783 135.243 135.866 135.243 136.979C135.243 137.27 135.243 137.534 135.507 138.089C136.038 139.754 140.473 152.102 143.793 160.348C146.529 154.585 151.785 141.659 152.608 139.463C152.901 138.353 153.165 138.089 153.165 137.27C153.165 135.869 152.343 135.05 150.43 134.522L148.465 133.964V131.216L156.217 131.48L163.384 131.216V133.964L162.004 135.047C159.245 136.157 158.953 136.421 157.862 138.641L145.73 166.926C138.536 183.159 131.077 184.533 125.843 184.533C122.527 184.536 120.032 183.69 117.854 182.316Z" fill="#454540"/>
<path d="M307.228 147.832C307.228 143.195 307.056 139.289 306.927 135.983H316.872L317.432 141.092H317.603C319.067 138.773 322.899 135.124 328.927 135.124C336.461 135.124 342.143 140.147 342.143 151.095V173.077H330.734V152.555C330.734 147.832 329.055 144.483 324.966 144.483C321.78 144.483 319.929 146.716 319.197 148.82C318.896 149.464 318.723 150.666 318.723 151.696V173.034H307.315V147.832H307.228ZM370.988 151.696C370.988 151.052 370.901 150.237 370.816 149.678C370.17 146.501 367.63 144.011 364.142 144.011C358.933 144.011 356.222 148.734 356.222 154.616C356.222 160.884 359.321 164.834 364.057 164.834C367.415 164.834 370.041 162.515 370.644 159.253C370.816 158.394 370.945 157.578 370.945 156.548L370.988 151.696ZM382.44 119.196V161.957C382.44 166.122 382.612 170.501 382.741 173.034H372.495L371.935 167.539H371.763C369.439 171.703 365.004 173.807 360.225 173.807C351.485 173.807 344.469 166.294 344.469 154.787C344.382 142.251 352.174 135.038 361 135.038C365.564 135.038 369.094 136.584 370.773 139.203H370.945V119.196H382.44ZM409.089 150.322C409.089 147.532 407.841 142.809 402.588 142.809C397.767 142.809 395.829 147.145 395.528 150.322H409.089ZM395.657 158.222C396.044 162.945 400.694 165.263 406.076 165.263C409.95 165.263 413.136 164.705 416.235 163.804L417.699 171.617C413.996 173.077 409.304 173.936 404.396 173.936C391.825 173.936 384.678 166.594 384.678 155.045C384.678 145.686 390.447 135.296 403.277 135.296C415.159 135.296 419.723 144.655 419.723 153.843C419.723 155.775 419.55 157.535 419.335 158.394H395.614L395.657 158.222ZM422.219 148.176C422.219 142.68 422.048 139.203 421.918 135.94H431.777L432.165 142.809H432.466C434.317 137.399 438.88 135.124 442.41 135.124C443.444 135.124 443.96 135.124 444.822 135.296V146.158C443.96 145.986 443.057 145.857 441.722 145.857C437.546 145.857 434.661 148.09 433.886 151.696C433.715 152.469 433.715 153.371 433.715 154.315V173.163H422.306V148.176H422.219ZM291.17 136.025H302.579V173.12H291.17V136.025ZM280.278 134.738C280.278 130.659 282.301 127.611 288.372 127.525C287.984 126.58 287.812 125.593 287.812 124.434C287.812 122.115 288.673 120.097 290.051 118.466C289.405 118.38 288.759 118.38 288.114 118.38C276.791 118.38 268.783 124.133 268.783 134.351V135.897H263.961V144.44H268.783V172.991H280.321V144.44H286.478V135.94H280.278V134.738Z" fill="#454540"/>
<path d="M233.224 124.433C219.792 124.433 209.029 135.381 209.029 148.734C209.029 162.215 219.835 173.034 233.224 173.034C246.613 173.034 257.419 162.086 257.419 148.734V124.433H233.224Z" fill="#454540"/>
<path d="M224.399 149.291C222.375 147.274 221.902 144.182 223.107 141.778L224.399 143.066C224.571 142.293 225.044 141.692 225.647 141.134C226.207 140.576 226.896 140.104 227.584 139.889L226.293 138.515C228.704 137.27 231.804 137.742 233.827 139.803C236.453 142.422 236.453 146.673 233.827 149.248C231.201 151.825 226.896 151.867 224.399 149.291ZM235.334 138.258C231.76 134.694 226.121 134.694 222.677 138.258C219.103 141.821 219.103 147.531 222.677 151.052C225.949 154.315 231.158 154.615 234.688 151.696L237.314 154.401C236.927 155.173 237.013 156.075 237.702 156.633L242.653 161.57C243.427 162.343 244.59 162.343 245.365 161.57L245.924 161.012C246.699 160.239 246.699 159.08 245.924 158.307L240.93 153.37C240.371 152.812 239.467 152.597 238.692 152.984L236.066 150.279C238.907 146.673 238.606 141.478 235.334 138.258Z" fill="#F1F1F1"/>
<path d="M303.658 124.433C303.658 128.212 300.687 131.174 296.899 131.174C293.196 131.174 290.14 128.083 290.14 124.433C290.14 120.784 293.11 117.693 296.899 117.693C300.687 117.693 303.658 120.741 303.658 124.433Z" fill="#454540"/>
<path d="M443.902 30.5245L443.18 39.1235H439.637C433.979 39.1235 431.039 43.6179 431.039 47.9252V67.3462H421.012V30.5245H430.509L430.726 35.1204C432.718 31.9688 436.204 30.5245 440.505 30.5245H443.902ZM374.391 67.3458H364.355V47.8803C364.355 43.8037 364 38.6728 358.214 38.6728C352.643 38.6728 350.423 42.658 350.423 47.2985V67.3458H340.391V30.5242H349.693L349.905 35.2315C351.899 32.0799 355.611 29.6259 361.089 29.6259C371.2 29.6259 374.391 36.7805 374.391 44.226V67.3458ZM336.016 58.7445L335.314 67.1227C332.908 67.7624 330.771 67.9919 328.187 67.9919C318.732 67.9919 315.989 63.6948 315.989 55.058V20.1407H326.023V30.525H336.008L335.314 39.1228H326.023V54.3101C326.023 57.776 326.982 59.6482 330.569 59.6482C332.128 59.6482 333.864 59.4622 336.016 58.7445ZM312.694 30.5245L311.917 39.1235H309.19C303.544 39.1235 300.737 43.6122 300.737 47.9252V67.3462H290.701V30.5245H300.203L300.4 35.1204C302.404 31.9688 305.891 30.5245 310.197 30.5245H312.694ZM245.418 63.2666C238.612 66.8751 231.814 68.9568 222.834 68.6982C206.187 68.1945 194.177 57.9496 194.177 40.6448C194.177 23.4158 206.303 12.4075 222.842 12.149C231.226 12.0219 238.728 14.1304 244.592 19.259L237.528 26.3411C233.9 23.2754 228.561 21.4834 222.181 21.7698C211.772 22.2501 205.5 29.7469 205.362 40.0542C205.226 51.2218 212.135 58.918 222.937 59.1988C228.019 59.3248 231.66 58.6484 234.81 57.2464V45.8313H223.584L224.342 36.469H245.418V63.2666ZM416.531 52.4345H389.02C389.804 57.1396 393.536 59.9703 398.184 60.0985C402.701 60.2199 405.229 58.8671 408.533 55.5505L415.081 60.4985C410.428 66.1788 404.844 68.2461 398.483 68.2461C387.295 68.2461 378.914 60.4929 378.914 48.9341C378.914 37.3876 387.254 29.6256 398.065 29.6256C409.98 29.6256 416.531 36.7802 416.531 49.4802V52.4345ZM406.479 44.7361C406.171 40.0845 402.655 37.1435 397.812 37.3307C392.938 37.5135 389.692 40.6596 389.02 44.7361H406.479ZM284.384 43.2341V67.3458H275.537L275.318 63.715C272.603 67.0471 268.197 68.2463 263.66 68.2463C256.828 68.2463 250.373 64.9074 250.238 57.131C250.034 44.908 264.118 44.0397 272.962 44.0397H274.73V43.5561C274.73 39.5141 272.031 37.3309 266.95 37.3309C263.302 37.3309 259.702 38.7808 257.039 41.2549L251.25 35.4253C256.506 31.2017 261.976 29.6258 267.802 29.6258C279.311 29.6258 284.384 34.897 284.384 43.2341ZM274.73 51.288H273.334C268.584 51.2981 260.239 51.5298 260.271 56.4534C260.316 63.3896 274.73 61.1853 274.73 52.8204V51.288ZM436.075 63.0626C436.075 60.719 437.86 58.9526 440.147 58.9526C442.408 58.9526 444.195 60.719 444.195 63.0626C444.195 65.4474 442.408 67.2083 440.147 67.2083C437.86 67.2083 436.075 65.4474 436.075 63.0626ZM440.147 68.0319C442.872 68.0319 445.196 65.9346 445.196 63.0626C445.196 60.2197 442.872 58.1268 440.147 58.1268C437.399 58.1268 435.072 60.2197 435.072 63.0626C435.072 65.9346 437.399 68.0319 440.147 68.0319ZM439.09 63.4594H440.096L441.613 65.9345H442.593L440.956 63.4192C441.802 63.3167 442.449 62.8665 442.449 61.8445C442.449 60.719 441.774 60.2197 440.411 60.2197H438.22V65.9345H439.09V63.4594ZM439.09 62.7227V60.9563H440.278C440.888 60.9563 441.536 61.0867 441.536 61.7944C441.536 62.6715 440.874 62.7227 440.136 62.7227H439.09Z" fill="#454540"/>
<path d="M311.098 253.669C311.098 265.194 302.302 273.687 291.508 273.687C280.714 273.687 271.919 265.194 271.919 253.669C271.919 242.063 280.714 233.652 291.508 233.652C302.302 233.652 311.098 242.063 311.098 253.669ZM302.522 253.669C302.522 246.467 297.425 241.54 291.508 241.54C285.592 241.54 280.494 246.467 280.494 253.669C280.494 260.799 285.592 265.799 291.508 265.799C297.425 265.799 302.522 260.79 302.522 253.669Z" fill="#454540"/>
<path d="M353.357 253.669C353.357 265.194 344.561 273.687 333.766 273.687C322.973 273.687 314.178 265.194 314.178 253.669C314.178 242.072 322.973 233.652 333.766 233.652C344.561 233.652 353.357 242.063 353.357 253.669ZM344.781 253.669C344.781 246.467 339.683 241.54 333.766 241.54C327.851 241.54 322.753 246.467 322.753 253.669C322.753 260.799 327.851 265.799 333.766 265.799C339.683 265.799 344.781 260.79 344.781 253.669Z" fill="#454540"/>
<path d="M393.857 234.861V270.799C393.857 285.582 385.353 291.62 375.298 291.62C365.834 291.62 360.138 285.131 357.989 279.824L365.455 276.638C366.784 279.896 370.042 283.741 375.289 283.741C381.725 283.741 385.714 279.671 385.714 272.008V269.129H385.414C383.495 271.557 379.797 273.678 375.13 273.678C365.368 273.678 356.422 264.96 356.422 253.742C356.422 242.442 365.368 233.652 375.13 233.652C379.788 233.652 383.486 235.772 385.414 238.128H385.714V234.87H393.857V234.861ZM386.321 253.742C386.321 246.693 381.733 241.54 375.896 241.54C369.98 241.54 365.024 246.693 365.024 253.742C365.024 260.718 369.98 265.799 375.896 265.799C381.733 265.799 386.321 260.718 386.321 253.742Z" fill="#454540"/>
<path d="M407.285 213.798V272.461H398.92V213.798H407.285Z" fill="#454540"/>
<path d="M439.875 260.258L446.531 264.807C444.383 268.065 439.206 273.679 430.26 273.679C419.167 273.679 410.882 264.888 410.882 253.661C410.882 241.757 419.238 233.643 429.301 233.643C439.434 233.643 444.392 241.91 446.011 246.378L446.901 248.652L420.796 259.735C422.795 263.751 425.902 265.8 430.26 265.8C434.628 265.8 437.657 263.598 439.875 260.258ZM419.388 253.056L436.837 245.628C435.878 243.128 432.99 241.387 429.592 241.387C425.234 241.387 419.167 245.331 419.388 253.056Z" fill="#454540"/>
<path d="M240.258 248.462V239.97H268.176C268.449 241.45 268.59 243.201 268.59 245.096C268.59 251.468 266.89 259.347 261.414 264.96C256.088 270.646 249.282 273.678 240.267 273.678C223.556 273.678 209.505 259.726 209.505 242.596C209.505 225.466 223.556 211.513 240.267 211.513C249.511 211.513 256.097 215.232 261.045 220.078L255.199 226.071C251.651 222.659 246.843 220.006 240.258 220.006C228.055 220.006 218.512 230.087 218.512 242.596C218.512 255.105 228.055 265.186 240.258 265.186C248.173 265.186 252.681 261.928 255.568 258.967C257.91 256.567 259.451 253.137 260.058 248.453L240.258 248.462Z" fill="#454540"/>
<path d="M34.4034 326.872C34.4034 321.97 29.8205 320.745 26.2023 320.745V321.48C28.3732 321.48 30.0617 322.216 30.0617 323.931C30.0617 324.911 29.338 326.382 27.1672 326.382C25.4787 326.382 21.8606 325.401 19.2073 324.421C16.0716 323.196 13.1771 322.216 10.765 322.216C5.94087 322.216 2.56395 325.892 2.56395 330.058C2.56395 333.734 5.21724 334.959 6.18207 335.449L6.42328 334.959C5.94087 334.469 5.21724 333.979 5.21724 332.509C5.21724 331.528 6.18207 329.813 8.59416 329.813C10.765 329.813 13.6595 330.793 17.5189 332.018C20.8958 332.999 24.5139 333.734 26.4435 333.979V341.576L22.8255 344.762V345.007L26.4435 348.193V358.731C24.5139 359.957 22.343 360.202 20.4133 360.202C16.7952 360.202 13.6595 359.221 11.0062 356.28L20.8958 351.379V334.469L8.83536 339.861C9.80019 336.675 12.4535 334.469 15.1067 332.999L14.8656 332.263C7.62932 334.224 1.1167 341.086 1.1167 349.418C1.1167 359.221 9.07657 366.573 18.0013 366.573C27.6496 366.573 33.921 358.731 33.921 350.644H33.4386C31.9914 353.83 29.8205 356.771 27.1672 358.241V348.193L31.0265 345.007V344.762L27.1672 341.576V333.979C30.7853 333.979 34.4034 331.528 34.4034 326.872ZM13.4184 353.83L10.5238 355.3C8.83536 353.095 7.87053 350.154 7.87053 345.987C7.87053 344.272 7.87052 342.311 8.35294 340.841L13.4184 338.635V353.83ZM38.9864 359.466L35.8507 361.917L36.3331 362.407L37.7803 361.182L43.087 366.083L50.3232 361.182L50.0819 360.692L48.1523 361.917L45.7402 359.466V342.802L47.6699 341.331L51.7704 344.762V359.711C51.7704 369.024 49.8407 370.495 45.7402 371.965V372.7C52.4941 372.945 58.7655 370.74 58.7655 358.731V342.556L60.9363 340.841L60.454 340.351L58.5243 341.821L52.4941 336.675L45.7402 341.821V321.725H45.2578L36.8155 327.607V328.097C37.7803 328.587 39.2276 329.078 39.2276 331.773L38.9864 359.466ZM83.1275 356.771L77.0973 361.427L71.0671 356.526V353.585L82.4039 345.742V345.497L76.6148 336.675L64.072 343.537V359.711L61.66 361.672L62.1423 362.162L64.3132 360.447L72.5143 366.573L83.3687 357.751L83.1275 356.771ZM71.0671 352.604V340.596L71.5495 340.351L76.8561 348.928L71.0671 352.604ZM129.199 324.666C129.199 323.931 128.957 323.196 128.716 322.461H128.234C127.51 324.421 126.545 325.401 124.132 325.401C121.962 325.401 120.515 324.176 119.55 323.196L112.555 331.283L113.037 331.773L115.449 329.568C116.897 330.793 118.102 331.773 121.48 332.018V352.359L107.248 327.607C106.042 325.647 104.354 322.951 100.977 322.951C97.1175 322.951 93.7406 326.382 94.2231 331.773H94.9467C95.1879 330.303 95.9115 328.587 97.6 328.587C98.8065 328.587 100.012 329.813 100.735 331.038V339.125C96.394 339.125 93.4994 341.086 93.4994 344.762C93.4994 346.723 94.4643 349.664 97.3588 350.399V349.909C96.8763 349.418 96.6351 348.928 96.6351 348.193C96.6351 346.968 97.6 345.987 99.288 345.987H100.495V356.28C95.4291 356.28 91.3286 359.221 91.3286 364.123C91.3286 368.779 95.1879 370.985 99.5297 370.74V370.249C96.8763 370.004 95.6703 368.779 95.6703 367.064C95.6703 364.858 97.1175 363.878 99.0472 363.878C100.977 363.878 102.665 365.103 103.872 366.573L110.867 358.731L110.384 358.241L108.695 360.202C106.042 357.751 104.595 357.016 101.459 356.526V332.018L120.756 366.328H122.204V332.018C125.822 331.773 129.199 328.832 129.199 324.666ZM146.806 356.771L140.776 361.427L134.746 356.526V353.585L146.082 345.742V345.497L140.294 336.675L127.751 343.537V359.711L125.339 361.672L125.822 362.162L127.992 360.447L136.194 366.573L147.047 357.751L146.806 356.771ZM134.746 352.604V340.596L135.229 340.351L140.535 348.928L134.746 352.604ZM186.123 339.371L184.435 340.596L179.852 336.675L174.546 341.576L176.716 343.782V362.162L170.927 358.486V343.292L172.857 342.066L167.309 336.675L162.002 341.576L164.174 343.782V361.427L163.449 361.917L158.384 358.241V343.537C158.384 340.106 156.696 339.125 154.766 337.9C153.078 336.675 152.113 335.94 152.113 334.224C152.113 332.754 153.561 332.018 154.284 331.528V331.038C152.354 331.038 147.289 332.999 147.289 337.655C147.289 340.106 148.495 341.086 149.701 342.311C150.907 343.537 152.113 344.517 152.113 346.723V360.937L149.459 362.897L149.942 363.387L152.354 361.427L157.902 366.328L163.932 362.162L170.686 366.328L183.47 358.731V342.311L186.606 339.861L186.123 339.371ZM230.988 325.892L228.576 328.097L223.27 323.196L215.31 329.078V323.686H214.586L214.828 363.387C214.103 363.387 211.933 362.897 210.244 362.407L209.761 329.323C209.761 326.872 208.073 323.441 203.731 323.441C199.39 323.441 196.496 326.872 196.496 330.303H197.219C197.46 328.832 198.184 327.607 199.631 327.607C201.078 327.607 202.284 328.587 202.284 331.773V341.331C197.943 341.576 195.289 344.027 195.289 347.213C195.289 349.173 196.254 352.114 199.149 352.114V351.624C198.184 351.134 197.943 350.399 197.943 349.909C197.943 348.438 199.149 347.948 201.078 347.948H202.043V363.142C198.425 364.368 196.978 367.064 196.978 370.004C196.978 374.171 200.113 377.112 204.938 377.112C208.315 377.112 211.209 376.621 214.103 375.886C216.516 375.396 219.651 374.661 221.098 374.661C223.028 374.661 223.752 375.641 223.752 376.866C223.752 378.582 223.028 379.317 222.063 379.562V380.052C225.923 379.317 228.335 376.866 228.335 373.19C228.335 369.514 224.716 367.309 220.858 367.309C218.928 367.309 214.828 368.044 211.933 368.534C208.556 369.269 205.179 369.759 204.214 369.759C202.526 369.759 200.596 369.024 200.596 366.573C200.596 364.613 202.284 362.897 206.385 362.897C208.556 362.897 211.209 363.142 213.863 363.878C216.756 364.613 219.41 365.348 221.823 365.348C225.44 365.348 228.576 364.123 228.576 358.976V328.832L231.47 326.382L230.988 325.892ZM221.098 340.841C220.375 341.576 219.41 342.311 218.204 342.311C216.998 342.311 215.792 341.576 215.31 340.841V330.058L217.721 328.342L221.098 331.528V340.841ZM221.098 348.193C220.616 347.703 219.41 346.968 218.204 346.968C216.998 346.968 215.792 347.703 215.31 348.193V341.821C215.792 342.311 216.998 343.047 218.204 343.047C219.41 343.047 220.616 342.311 221.098 341.821V348.193ZM221.098 359.711C221.098 361.672 219.893 363.633 217.239 363.633H215.31V349.173C215.792 348.683 216.998 347.948 218.204 347.948C219.41 347.948 220.375 348.683 221.098 349.173V359.711ZM254.144 342.311L246.425 336.675L234.606 343.537V359.466L232.195 361.427L232.435 361.917L234.365 360.447L242.083 366.328L254.144 358.976V342.311ZM241.118 357.751V340.106L247.149 344.517V361.917L241.118 357.751ZM277.059 337.165H276.577C275.853 337.655 275.129 338.145 274.405 338.145C273.44 338.145 272.235 337.655 271.752 336.92H271.27L267.17 341.576L263.069 336.92L255.833 341.821L256.073 342.311L258.003 341.086L260.415 343.782V359.221L257.28 361.672L257.762 362.162L259.21 360.937L264.998 365.838L272.475 360.692L272.235 360.202L270.064 361.427L267.17 358.976V341.821C268.375 343.047 269.822 344.272 271.512 344.272C274.888 344.517 276.818 341.086 277.059 337.165ZM306.004 360.692L297.802 366.328L286.707 349.173L294.667 336.675H295.149C296.114 337.655 297.562 338.635 299.25 338.635C300.939 338.635 302.144 337.655 302.869 336.675H303.35C303.109 341.576 299.732 344.517 297.32 344.517C294.909 344.517 293.702 343.292 292.255 342.556L291.532 343.782L303.592 361.917L306.004 360.447V360.692ZM279.471 359.466L276.335 361.917L276.818 362.407L278.265 361.182L283.572 366.083L290.807 361.182L290.325 360.692L288.395 361.917L285.984 359.466V321.725H285.742L277.059 327.607V328.097C278.024 328.587 279.471 328.832 279.471 331.773V359.466ZM346.044 326.872C346.044 321.97 341.461 320.745 337.844 320.745V321.48C340.014 321.48 341.703 322.216 341.703 323.931C341.703 324.911 340.979 326.382 338.808 326.382C337.119 326.382 333.502 325.401 330.849 324.421C327.712 323.441 324.818 322.461 322.406 322.461C317.582 322.461 314.205 326.137 314.205 330.303C314.205 333.979 316.859 335.204 317.823 335.694L318.064 335.204C317.341 334.714 316.617 334.224 316.617 332.754C316.617 331.773 317.582 330.058 319.994 330.058C322.165 330.058 325.059 331.038 328.919 332.263C332.296 333.244 335.914 333.979 337.844 334.224V341.821L334.226 345.007V345.252L337.844 348.438V358.976C335.914 360.202 333.743 360.447 331.813 360.447C328.195 360.447 325.059 359.466 322.406 356.526L332.296 351.624V334.469L320.235 339.861C321.441 336.675 324.094 334.469 326.507 332.754L326.266 332.263C319.029 334.224 312.517 340.841 312.517 349.173C312.517 358.976 320.476 366.328 329.401 366.328C339.049 366.328 345.321 358.486 345.321 350.399H344.839C343.391 353.585 341.221 356.526 338.567 357.996V347.948L342.426 344.762V344.517L338.808 341.331V333.979C342.426 333.979 346.044 331.528 346.044 326.872ZM325.059 353.83L322.165 355.3C320.476 353.095 319.512 350.154 319.512 345.987C319.512 344.272 319.752 342.311 320.235 340.841L325.301 338.635L325.059 353.83ZM354.486 324.421H354.246L349.421 328.587V328.832L353.522 333.489H354.004L358.829 329.323V329.078L354.486 324.421ZM361.723 360.692L359.793 361.917L357.381 359.466V342.556L359.793 340.841L359.311 340.351L357.623 341.821L353.281 336.675L346.286 341.576L346.768 342.311L348.456 341.086L350.627 343.782V359.711L347.492 362.162L347.733 362.652L349.421 361.427L354.728 366.328L361.964 361.427L361.723 360.692ZM402.005 360.447L400.316 361.672L397.663 359.221V342.556L400.075 340.596L399.593 340.106L397.663 341.821L392.115 336.675L384.879 341.821L379.331 336.675L372.578 341.821L368.236 336.675L361.241 341.576L361.481 342.311L363.171 341.086L365.583 343.782V359.711L363.653 361.672L369.201 366.328L374.507 361.427L372.336 359.221V342.556L374.507 341.086L378.125 344.517V359.221L376.196 361.182L381.743 365.838L387.05 360.937L384.879 358.731V342.556L386.808 341.331L390.668 344.762V359.466L388.98 361.182L394.528 366.328L402.005 361.182V360.447ZM422.99 356.771L416.96 361.427L410.93 356.526V353.585L422.266 345.742V345.497L416.477 336.675L403.935 343.537V360.202L412.377 366.328L423.231 357.506L422.99 356.771ZM410.93 352.604V340.596L411.412 340.351L416.718 348.928L410.93 352.604ZM444.94 350.399L440.357 346.723C443.492 344.027 444.698 340.351 444.698 337.9V336.43H444.217C443.734 337.655 442.769 338.88 440.84 338.88C438.91 338.88 437.703 337.9 436.497 336.43L425.643 342.556V351.379L429.743 354.565C425.643 358.241 424.92 360.692 424.92 362.652C424.92 365.103 426.125 366.819 428.055 367.554L428.297 367.064C427.814 366.573 427.332 366.328 427.332 365.103C427.332 364.368 428.297 363.142 430.226 363.142C432.638 363.142 434.085 364.858 434.809 365.593L445.181 359.221V350.399H444.94ZM442.287 343.047C440.598 345.987 436.98 348.928 434.809 350.399L432.155 348.193V339.616C433.12 342.066 435.774 344.027 438.427 344.027C440.115 344.027 441.08 343.782 442.287 343.047ZM438.186 362.652C436.98 359.957 434.085 357.996 431.191 357.996C430.467 357.996 428.538 357.996 426.608 359.221C427.814 357.261 430.95 353.83 435.05 351.379L437.945 353.83L438.186 362.652Z" fill="#454540"/>
</svg>
