<svg width="800" height="448" viewBox="0 0 800 448" fill="none" xmlns="http://www.w3.org/2000/svg">
<rect x="81.1945" y="27.8232" width="145.153" height="328.216" rx="9.5" stroke="black" stroke-opacity="0.5"/>
<rect x="87.2314" y="99.8838" width="131.243" height="245.151" rx="9" stroke="#FF9900" stroke-width="2" stroke-dasharray="8 8"/>
<rect x="72.0561" y="175.52" width="491.735" height="195.777" rx="9" stroke="#00991F" stroke-width="2" stroke-dasharray="8 8"/>
<rect x="61.0604" y="266.146" width="677.879" height="123.009" rx="9" stroke="#0000FF" stroke-width="2" stroke-dasharray="8 8"/>
<rect x="245.347" y="27.8232" width="145.153" height="328.216" rx="9.5" stroke="black" stroke-opacity="0.5"/>
<rect x="409.5" y="27.8232" width="145.153" height="328.216" rx="9.5" stroke="black" stroke-opacity="0.5"/>
<rect x="573.653" y="27.0361" width="145.153" height="328.216" rx="9.5" stroke="black" stroke-opacity="0.5"/>
<path d="M124.715 65.9258C123.52 65.9258 122.629 65.4918 122.041 64.6238C121.462 63.7558 121.173 62.5051 121.173 60.8718C121.173 59.2385 121.462 57.9878 122.041 57.1198C122.629 56.2518 123.52 55.8178 124.715 55.8178C125.163 55.8178 125.55 55.8785 125.877 55.9998C126.203 56.1211 126.483 56.2845 126.717 56.4898C126.95 56.6951 127.146 56.9285 127.305 57.1898C127.463 57.4418 127.603 57.6985 127.725 57.9598L126.717 58.4218C126.633 58.2071 126.535 58.0065 126.423 57.8198C126.311 57.6238 126.175 57.4558 126.017 57.3158C125.867 57.1665 125.685 57.0498 125.471 56.9658C125.265 56.8818 125.013 56.8398 124.715 56.8398C123.94 56.8398 123.361 57.1338 122.979 57.7218C122.605 58.3098 122.419 59.0938 122.419 60.0738V61.6698C122.419 62.6498 122.605 63.4338 122.979 64.0218C123.361 64.6098 123.94 64.9038 124.715 64.9038C125.013 64.9038 125.265 64.8618 125.471 64.7778C125.685 64.6938 125.867 64.5818 126.017 64.4418C126.175 64.2925 126.311 64.1245 126.423 63.9378C126.535 63.7418 126.633 63.5365 126.717 63.3218L127.725 63.7838C127.603 64.0545 127.463 64.3158 127.305 64.5678C127.146 64.8198 126.95 65.0485 126.717 65.2538C126.483 65.4591 126.203 65.6225 125.877 65.7438C125.55 65.8651 125.163 65.9258 124.715 65.9258ZM129.707 64.8058H132.227V56.3498H129.707V55.3978H133.347V64.8058H135.867V65.7578H129.707V64.8058ZM141.63 56.9378C141.303 56.9378 141.075 56.8725 140.944 56.7418C140.813 56.6018 140.748 56.4291 140.748 56.2238V55.9998C140.748 55.7945 140.813 55.6265 140.944 55.4958C141.075 55.3558 141.303 55.2858 141.63 55.2858C141.957 55.2858 142.185 55.3558 142.316 55.4958C142.447 55.6265 142.512 55.7945 142.512 55.9998V56.2238C142.512 56.4291 142.447 56.6018 142.316 56.7418C142.185 56.8725 141.957 56.9378 141.63 56.9378ZM138.466 64.8058H141.07V59.4858H138.466V58.5338H142.19V64.8058H144.626V65.7578H138.466V64.8058ZM149.702 65.9258C149.18 65.9258 148.708 65.8371 148.288 65.6598C147.878 65.4825 147.523 65.2305 147.224 64.9038C146.935 64.5678 146.711 64.1711 146.552 63.7138C146.394 63.2471 146.314 62.7291 146.314 62.1598C146.314 61.5811 146.394 61.0585 146.552 60.5918C146.72 60.1251 146.949 59.7285 147.238 59.4018C147.528 59.0658 147.873 58.8091 148.274 58.6318C148.685 58.4545 149.138 58.3658 149.632 58.3658C150.118 58.3658 150.556 58.4545 150.948 58.6318C151.35 58.8091 151.69 59.0565 151.97 59.3738C152.25 59.6818 152.465 60.0505 152.614 60.4798C152.764 60.9091 152.838 61.3805 152.838 61.8938V62.4258H147.49V62.7618C147.49 63.0791 147.542 63.3731 147.644 63.6438C147.747 63.9145 147.892 64.1478 148.078 64.3438C148.274 64.5398 148.508 64.6938 148.778 64.8058C149.058 64.9085 149.366 64.9598 149.702 64.9598C150.188 64.9598 150.608 64.8478 150.962 64.6238C151.317 64.3998 151.588 64.0918 151.774 63.6998L152.6 64.2598C152.386 64.7451 152.026 65.1465 151.522 65.4638C151.028 65.7718 150.421 65.9258 149.702 65.9258ZM149.632 59.2898C149.324 59.2898 149.04 59.3458 148.778 59.4578C148.517 59.5698 148.288 59.7238 148.092 59.9198C147.906 60.1158 147.756 60.3491 147.644 60.6198C147.542 60.8811 147.49 61.1705 147.49 61.4878V61.5858H151.634V61.4318C151.634 61.1145 151.583 60.8251 151.48 60.5638C151.387 60.3025 151.252 60.0785 151.074 59.8918C150.906 59.6958 150.696 59.5465 150.444 59.4438C150.202 59.3411 149.931 59.2898 149.632 59.2898ZM155.143 65.7578V58.5338H156.263V59.7098H156.319C156.394 59.5325 156.487 59.3645 156.599 59.2058C156.711 59.0378 156.846 58.8931 157.005 58.7718C157.173 58.6505 157.369 58.5525 157.593 58.4778C157.817 58.4031 158.078 58.3658 158.377 58.3658C159.133 58.3658 159.74 58.6085 160.197 59.0938C160.654 59.5698 160.883 60.2465 160.883 61.1238V65.7578H159.763V61.3198C159.763 60.6571 159.618 60.1671 159.329 59.8498C159.04 59.5231 158.615 59.3598 158.055 59.3598C157.831 59.3598 157.612 59.3878 157.397 59.4438C157.182 59.4998 156.991 59.5838 156.823 59.6958C156.655 59.8078 156.52 59.9525 156.417 60.1298C156.314 60.3071 156.263 60.5125 156.263 60.7458V65.7578H155.143ZM166.715 65.7578C166.165 65.7578 165.759 65.6038 165.497 65.2958C165.245 64.9878 165.119 64.5911 165.119 64.1058V59.4858H162.711V58.5338H164.503C164.746 58.5338 164.914 58.4871 165.007 58.3938C165.11 58.2911 165.161 58.1185 165.161 57.8758V55.9858H166.239V58.5338H169.529V59.4858H166.239V64.8058H169.529V65.7578H166.715ZM185.689 65.7578L184.863 62.9718H181.433L180.607 65.7578H179.389L182.385 55.9858H183.939L186.935 65.7578H185.689ZM183.211 57.2318H183.085L181.713 61.9498H184.583L183.211 57.2318Z" fill="black"/>
<path d="M107.482 126.712V125.372H110.962V114.092H107.482V112.752H116.122V114.092H112.642V125.372H116.122V126.712H107.482ZM119.754 126.712V116.392H121.354V118.072H121.434C121.541 117.819 121.674 117.579 121.834 117.352C121.994 117.112 122.188 116.905 122.414 116.732C122.654 116.559 122.934 116.419 123.254 116.312C123.574 116.205 123.948 116.152 124.374 116.152C125.454 116.152 126.321 116.499 126.974 117.192C127.628 117.872 127.954 118.839 127.954 120.092V126.712H126.354V120.372C126.354 119.425 126.148 118.725 125.734 118.272C125.321 117.805 124.714 117.572 123.914 117.572C123.594 117.572 123.281 117.612 122.974 117.692C122.668 117.772 122.394 117.892 122.154 118.052C121.914 118.212 121.721 118.419 121.574 118.672C121.428 118.925 121.354 119.219 121.354 119.552V126.712H119.754ZM132.887 121.472V119.792H138.687V121.472H132.887ZM150.499 120.372H145.059V126.712H143.379V112.752H145.059V118.912H150.499V112.752H152.179V126.712H150.499V120.372ZM159.771 126.952C159.051 126.952 158.398 126.825 157.811 126.572C157.238 126.319 156.744 125.959 156.331 125.492C155.931 125.012 155.624 124.445 155.411 123.792C155.198 123.125 155.091 122.379 155.091 121.552C155.091 120.739 155.198 119.999 155.411 119.332C155.624 118.665 155.931 118.099 156.331 117.632C156.744 117.152 157.238 116.785 157.811 116.532C158.398 116.279 159.051 116.152 159.771 116.152C160.491 116.152 161.138 116.279 161.711 116.532C162.298 116.785 162.791 117.152 163.191 117.632C163.604 118.099 163.918 118.665 164.131 119.332C164.344 119.999 164.451 120.739 164.451 121.552C164.451 122.379 164.344 123.125 164.131 123.792C163.918 124.445 163.604 125.012 163.191 125.492C162.791 125.959 162.298 126.319 161.711 126.572C161.138 126.825 160.491 126.952 159.771 126.952ZM159.771 125.572C160.664 125.572 161.384 125.305 161.931 124.772C162.478 124.239 162.751 123.412 162.751 122.292V120.812C162.751 119.692 162.478 118.865 161.931 118.332C161.384 117.799 160.664 117.532 159.771 117.532C158.878 117.532 158.158 117.799 157.611 118.332C157.064 118.865 156.791 119.692 156.791 120.812V122.292C156.791 123.412 157.064 124.239 157.611 124.772C158.158 125.305 158.878 125.572 159.771 125.572ZM174.203 125.032H174.123C174.016 125.285 173.883 125.532 173.723 125.772C173.563 125.999 173.363 126.199 173.123 126.372C172.896 126.545 172.623 126.685 172.303 126.792C171.983 126.899 171.61 126.952 171.183 126.952C170.103 126.952 169.236 126.612 168.583 125.932C167.93 125.239 167.603 124.265 167.603 123.012V116.392H169.203V122.732C169.203 123.679 169.41 124.385 169.823 124.852C170.236 125.305 170.843 125.532 171.643 125.532C171.963 125.532 172.276 125.492 172.583 125.412C172.89 125.332 173.163 125.212 173.403 125.052C173.643 124.892 173.836 124.692 173.983 124.452C174.13 124.199 174.203 123.899 174.203 123.552V116.392H175.803V126.712H174.203V125.032ZM183.875 126.952C182.795 126.952 181.862 126.772 181.075 126.412C180.302 126.039 179.642 125.545 179.095 124.932L180.175 123.992C180.669 124.512 181.209 124.912 181.795 125.192C182.382 125.472 183.089 125.612 183.915 125.612C184.715 125.612 185.369 125.472 185.875 125.192C186.395 124.899 186.655 124.445 186.655 123.832C186.655 123.565 186.602 123.345 186.495 123.172C186.402 122.985 186.269 122.839 186.095 122.732C185.922 122.625 185.729 122.545 185.515 122.492C185.302 122.425 185.075 122.372 184.835 122.332L183.215 122.092C182.855 122.039 182.462 121.965 182.035 121.872C181.622 121.779 181.242 121.632 180.895 121.432C180.549 121.219 180.255 120.939 180.015 120.592C179.789 120.245 179.675 119.792 179.675 119.232C179.675 118.712 179.775 118.265 179.975 117.892C180.189 117.505 180.482 117.185 180.855 116.932C181.229 116.665 181.669 116.472 182.175 116.352C182.682 116.219 183.235 116.152 183.835 116.152C184.769 116.152 185.575 116.299 186.255 116.592C186.949 116.885 187.542 117.292 188.035 117.812L186.995 118.792C186.875 118.645 186.722 118.499 186.535 118.352C186.362 118.192 186.142 118.052 185.875 117.932C185.622 117.799 185.322 117.692 184.975 117.612C184.629 117.532 184.229 117.492 183.775 117.492C182.962 117.492 182.335 117.632 181.895 117.912C181.469 118.192 181.255 118.599 181.255 119.132C181.255 119.399 181.302 119.625 181.395 119.812C181.502 119.985 181.642 120.125 181.815 120.232C181.989 120.339 182.182 120.425 182.395 120.492C182.622 120.545 182.849 120.592 183.075 120.632L184.695 120.872C185.069 120.925 185.462 120.999 185.875 121.092C186.289 121.185 186.669 121.339 187.015 121.552C187.362 121.752 187.649 122.025 187.875 122.372C188.115 122.719 188.235 123.172 188.235 123.732C188.235 124.759 187.835 125.552 187.035 126.112C186.249 126.672 185.195 126.952 183.875 126.952ZM195.927 126.952C195.181 126.952 194.507 126.825 193.907 126.572C193.321 126.319 192.814 125.959 192.387 125.492C191.974 125.012 191.654 124.445 191.427 123.792C191.201 123.125 191.087 122.385 191.087 121.572C191.087 120.745 191.201 119.999 191.427 119.332C191.667 118.665 191.994 118.099 192.407 117.632C192.821 117.152 193.314 116.785 193.887 116.532C194.474 116.279 195.121 116.152 195.827 116.152C196.521 116.152 197.147 116.279 197.707 116.532C198.281 116.785 198.767 117.139 199.167 117.592C199.567 118.032 199.874 118.559 200.087 119.172C200.301 119.785 200.407 120.459 200.407 121.192V121.952H192.767V122.432C192.767 122.885 192.841 123.305 192.987 123.692C193.134 124.079 193.341 124.412 193.607 124.692C193.887 124.972 194.221 125.192 194.607 125.352C195.007 125.499 195.447 125.572 195.927 125.572C196.621 125.572 197.221 125.412 197.727 125.092C198.234 124.772 198.621 124.332 198.887 123.772L200.067 124.572C199.761 125.265 199.247 125.839 198.527 126.292C197.821 126.732 196.954 126.952 195.927 126.952ZM195.827 117.472C195.387 117.472 194.981 117.552 194.607 117.712C194.234 117.872 193.907 118.092 193.627 118.372C193.361 118.652 193.147 118.985 192.987 119.372C192.841 119.745 192.767 120.159 192.767 120.612V120.752H198.687V120.532C198.687 120.079 198.614 119.665 198.467 119.292C198.334 118.919 198.141 118.599 197.887 118.332C197.647 118.052 197.347 117.839 196.987 117.692C196.641 117.545 196.254 117.472 195.827 117.472Z" fill="#FF9900"/>
<path d="M264.423 214.687C262.716 214.687 261.443 214.067 260.603 212.827C259.776 211.587 259.363 209.801 259.363 207.467C259.363 205.134 259.776 203.347 260.603 202.107C261.443 200.867 262.716 200.247 264.423 200.247C265.063 200.247 265.616 200.334 266.083 200.507C266.549 200.681 266.949 200.914 267.283 201.207C267.616 201.501 267.896 201.834 268.123 202.207C268.349 202.567 268.549 202.934 268.723 203.307L267.283 203.967C267.163 203.661 267.023 203.374 266.863 203.107C266.703 202.827 266.509 202.587 266.283 202.387C266.069 202.174 265.809 202.007 265.503 201.887C265.209 201.767 264.849 201.707 264.423 201.707C263.316 201.707 262.489 202.127 261.943 202.967C261.409 203.807 261.143 204.927 261.143 206.327V208.607C261.143 210.007 261.409 211.127 261.943 211.967C262.489 212.807 263.316 213.227 264.423 213.227C264.849 213.227 265.209 213.167 265.503 213.047C265.809 212.927 266.069 212.767 266.283 212.567C266.509 212.354 266.703 212.114 266.863 211.847C267.023 211.567 267.163 211.274 267.283 210.967L268.723 211.627C268.549 212.014 268.349 212.387 268.123 212.747C267.896 213.107 267.616 213.434 267.283 213.727C266.949 214.021 266.549 214.254 266.083 214.427C265.616 214.601 265.063 214.687 264.423 214.687ZM275.955 214.687C275.235 214.687 274.582 214.561 273.995 214.307C273.422 214.054 272.928 213.694 272.515 213.227C272.115 212.747 271.808 212.181 271.595 211.527C271.382 210.861 271.275 210.114 271.275 209.287C271.275 208.474 271.382 207.734 271.595 207.067C271.808 206.401 272.115 205.834 272.515 205.367C272.928 204.887 273.422 204.521 273.995 204.267C274.582 204.014 275.235 203.887 275.955 203.887C276.675 203.887 277.322 204.014 277.895 204.267C278.482 204.521 278.975 204.887 279.375 205.367C279.788 205.834 280.102 206.401 280.315 207.067C280.528 207.734 280.635 208.474 280.635 209.287C280.635 210.114 280.528 210.861 280.315 211.527C280.102 212.181 279.788 212.747 279.375 213.227C278.975 213.694 278.482 214.054 277.895 214.307C277.322 214.561 276.675 214.687 275.955 214.687ZM275.955 213.307C276.848 213.307 277.568 213.041 278.115 212.507C278.662 211.974 278.935 211.147 278.935 210.027V208.547C278.935 207.427 278.662 206.601 278.115 206.067C277.568 205.534 276.848 205.267 275.955 205.267C275.062 205.267 274.342 205.534 273.795 206.067C273.248 206.601 272.975 207.427 272.975 208.547V210.027C272.975 211.147 273.248 211.974 273.795 212.507C274.342 213.041 275.062 213.307 275.955 213.307ZM283.907 214.447V204.127H285.507V205.807H285.587C285.694 205.554 285.827 205.314 285.987 205.087C286.147 204.847 286.34 204.641 286.567 204.467C286.807 204.294 287.087 204.154 287.407 204.047C287.727 203.941 288.1 203.887 288.527 203.887C289.607 203.887 290.474 204.234 291.127 204.927C291.78 205.607 292.107 206.574 292.107 207.827V214.447H290.507V208.107C290.507 207.161 290.3 206.461 289.887 206.007C289.474 205.541 288.867 205.307 288.067 205.307C287.747 205.307 287.434 205.347 287.127 205.427C286.82 205.507 286.547 205.627 286.307 205.787C286.067 205.947 285.874 206.154 285.727 206.407C285.58 206.661 285.507 206.954 285.507 207.287V214.447H283.907ZM300.059 214.687C298.979 214.687 298.046 214.507 297.259 214.147C296.486 213.774 295.826 213.281 295.279 212.667L296.359 211.727C296.853 212.247 297.393 212.647 297.979 212.927C298.566 213.207 299.273 213.347 300.099 213.347C300.899 213.347 301.553 213.207 302.059 212.927C302.579 212.634 302.839 212.181 302.839 211.567C302.839 211.301 302.786 211.081 302.679 210.907C302.586 210.721 302.453 210.574 302.279 210.467C302.106 210.361 301.913 210.281 301.699 210.227C301.486 210.161 301.259 210.107 301.019 210.067L299.399 209.827C299.039 209.774 298.646 209.701 298.219 209.607C297.806 209.514 297.426 209.367 297.079 209.167C296.733 208.954 296.439 208.674 296.199 208.327C295.973 207.981 295.859 207.527 295.859 206.967C295.859 206.447 295.959 206.001 296.159 205.627C296.373 205.241 296.666 204.921 297.039 204.667C297.413 204.401 297.853 204.207 298.359 204.087C298.866 203.954 299.419 203.887 300.019 203.887C300.953 203.887 301.759 204.034 302.439 204.327C303.133 204.621 303.726 205.027 304.219 205.547L303.179 206.527C303.059 206.381 302.906 206.234 302.719 206.087C302.546 205.927 302.326 205.787 302.059 205.667C301.806 205.534 301.506 205.427 301.159 205.347C300.813 205.267 300.413 205.227 299.959 205.227C299.146 205.227 298.519 205.367 298.079 205.647C297.653 205.927 297.439 206.334 297.439 206.867C297.439 207.134 297.486 207.361 297.579 207.547C297.686 207.721 297.826 207.861 297.999 207.967C298.173 208.074 298.366 208.161 298.579 208.227C298.806 208.281 299.033 208.327 299.259 208.367L300.879 208.607C301.253 208.661 301.646 208.734 302.059 208.827C302.473 208.921 302.853 209.074 303.199 209.287C303.546 209.487 303.833 209.761 304.059 210.107C304.299 210.454 304.419 210.907 304.419 211.467C304.419 212.494 304.019 213.287 303.219 213.847C302.433 214.407 301.379 214.687 300.059 214.687ZM314.371 212.767H314.291C314.185 213.021 314.051 213.267 313.891 213.507C313.731 213.734 313.531 213.934 313.291 214.107C313.065 214.281 312.791 214.421 312.471 214.527C312.151 214.634 311.778 214.687 311.351 214.687C310.271 214.687 309.405 214.347 308.751 213.667C308.098 212.974 307.771 212.001 307.771 210.747V204.127H309.371V210.467C309.371 211.414 309.578 212.121 309.991 212.587C310.405 213.041 311.011 213.267 311.811 213.267C312.131 213.267 312.445 213.227 312.751 213.147C313.058 213.067 313.331 212.947 313.571 212.787C313.811 212.627 314.005 212.427 314.151 212.187C314.298 211.934 314.371 211.634 314.371 211.287V204.127H315.971V214.447H314.371V212.767ZM319.524 213.087H323.124V201.007H319.524V199.647H324.724V213.087H328.324V214.447H319.524V213.087ZM336.416 214.447C335.629 214.447 335.049 214.227 334.676 213.787C334.316 213.347 334.136 212.781 334.136 212.087V205.487H330.696V204.127H333.256C333.603 204.127 333.843 204.061 333.976 203.927C334.123 203.781 334.196 203.534 334.196 203.187V200.487H335.736V204.127H340.436V205.487H335.736V213.087H340.436V214.447H336.416ZM351.808 214.447C351.181 214.447 350.735 214.287 350.468 213.967C350.201 213.647 350.035 213.247 349.968 212.767H349.868C349.641 213.367 349.275 213.841 348.768 214.187C348.275 214.521 347.608 214.687 346.768 214.687C345.688 214.687 344.828 214.407 344.188 213.847C343.548 213.287 343.228 212.521 343.228 211.547C343.228 210.587 343.575 209.847 344.268 209.327C344.975 208.807 346.108 208.547 347.668 208.547H349.868V207.527C349.868 206.767 349.655 206.201 349.228 205.827C348.801 205.441 348.195 205.247 347.408 205.247C346.715 205.247 346.148 205.387 345.708 205.667C345.268 205.934 344.915 206.301 344.648 206.767L343.568 205.967C343.701 205.701 343.881 205.441 344.108 205.187C344.335 204.934 344.615 204.714 344.948 204.527C345.281 204.327 345.661 204.174 346.088 204.067C346.515 203.947 346.988 203.887 347.508 203.887C348.721 203.887 349.681 204.194 350.388 204.807C351.108 205.421 351.468 206.274 351.468 207.367V213.047H352.908V214.447H351.808ZM347.048 213.347C347.461 213.347 347.835 213.301 348.168 213.207C348.515 213.101 348.815 212.967 349.068 212.807C349.321 212.634 349.515 212.434 349.648 212.207C349.795 211.967 349.868 211.714 349.868 211.447V209.747H347.668C346.708 209.747 346.008 209.881 345.568 210.147C345.128 210.414 344.908 210.801 344.908 211.307V211.727C344.908 212.261 345.095 212.667 345.468 212.947C345.855 213.214 346.381 213.347 347.048 213.347ZM355.86 214.447V204.127H357.46V205.807H357.54C357.647 205.554 357.78 205.314 357.94 205.087C358.1 204.847 358.294 204.641 358.52 204.467C358.76 204.294 359.04 204.154 359.36 204.047C359.68 203.941 360.054 203.887 360.48 203.887C361.56 203.887 362.427 204.234 363.08 204.927C363.734 205.607 364.06 206.574 364.06 207.827V214.447H362.46V208.107C362.46 207.161 362.254 206.461 361.84 206.007C361.427 205.541 360.82 205.307 360.02 205.307C359.7 205.307 359.387 205.347 359.08 205.427C358.774 205.507 358.5 205.627 358.26 205.787C358.02 205.947 357.827 206.154 357.68 206.407C357.534 206.661 357.46 206.954 357.46 207.287V214.447H355.86ZM372.392 214.447C371.606 214.447 371.026 214.227 370.652 213.787C370.292 213.347 370.112 212.781 370.112 212.087V205.487H366.672V204.127H369.232C369.579 204.127 369.819 204.061 369.952 203.927C370.099 203.781 370.172 203.534 370.172 203.187V200.487H371.712V204.127H376.412V205.487H371.712V213.087H376.412V214.447H372.392Z" fill="#00991F"/>
<path d="M373.643 421.076L372.463 417.096H367.563L366.383 421.076H364.643L368.923 407.116H371.143L375.423 421.076H373.643ZM370.103 408.896H369.923L367.963 415.636H372.063L370.103 408.896ZM387.236 422.256C387.236 423.296 386.802 424.063 385.936 424.556C385.069 425.063 383.769 425.316 382.036 425.316C380.369 425.316 379.169 425.096 378.436 424.656C377.716 424.216 377.356 423.583 377.356 422.756C377.356 422.196 377.502 421.763 377.796 421.456C378.089 421.15 378.502 420.923 379.036 420.776V420.536C378.742 420.39 378.516 420.203 378.356 419.976C378.196 419.75 378.116 419.463 378.116 419.116C378.116 418.583 378.289 418.183 378.636 417.916C378.996 417.65 379.442 417.45 379.976 417.316V417.236C379.336 416.956 378.836 416.543 378.476 415.996C378.129 415.45 377.956 414.81 377.956 414.076C377.956 413.556 378.049 413.076 378.236 412.636C378.422 412.196 378.689 411.823 379.036 411.516C379.396 411.196 379.822 410.95 380.316 410.776C380.809 410.603 381.356 410.516 381.956 410.516C382.729 410.516 383.409 410.656 383.996 410.936V410.756C383.996 410.356 384.089 410.023 384.276 409.756C384.462 409.49 384.782 409.356 385.236 409.356H387.136V410.756H384.816V411.456C385.189 411.776 385.476 412.156 385.676 412.596C385.876 413.036 385.976 413.53 385.976 414.076C385.976 414.596 385.876 415.076 385.676 415.516C385.489 415.956 385.222 416.336 384.876 416.656C384.529 416.963 384.102 417.203 383.596 417.376C383.102 417.55 382.556 417.636 381.956 417.636C381.782 417.636 381.616 417.63 381.456 417.616C381.296 417.603 381.136 417.583 380.976 417.556C380.816 417.583 380.649 417.63 380.476 417.696C380.302 417.75 380.142 417.83 379.996 417.936C379.849 418.03 379.729 418.143 379.636 418.276C379.542 418.41 379.496 418.563 379.496 418.736C379.496 419.043 379.649 419.25 379.956 419.356C380.262 419.45 380.662 419.496 381.156 419.496H383.436C384.769 419.496 385.736 419.75 386.336 420.256C386.936 420.75 387.236 421.416 387.236 422.256ZM385.736 422.336C385.736 421.923 385.569 421.59 385.236 421.336C384.902 421.096 384.322 420.976 383.496 420.976H379.916C379.222 421.256 378.876 421.723 378.876 422.376C378.876 422.83 379.056 423.216 379.416 423.536C379.776 423.87 380.376 424.036 381.216 424.036H382.776C383.709 424.036 384.436 423.89 384.956 423.596C385.476 423.316 385.736 422.896 385.736 422.336ZM381.956 416.396C382.756 416.396 383.342 416.21 383.716 415.836C384.102 415.463 384.296 414.97 384.296 414.356V413.776C384.296 413.163 384.102 412.676 383.716 412.316C383.342 411.943 382.756 411.756 381.956 411.756C381.156 411.756 380.569 411.943 380.196 412.316C379.822 412.676 379.636 413.163 379.636 413.776V414.356C379.636 414.97 379.822 415.463 380.196 415.836C380.569 416.21 381.156 416.396 381.956 416.396ZM394.188 421.316C393.441 421.316 392.768 421.19 392.168 420.936C391.581 420.683 391.074 420.323 390.648 419.856C390.234 419.376 389.914 418.81 389.688 418.156C389.461 417.49 389.348 416.75 389.348 415.936C389.348 415.11 389.461 414.363 389.688 413.696C389.928 413.03 390.254 412.463 390.668 411.996C391.081 411.516 391.574 411.15 392.148 410.896C392.734 410.643 393.381 410.516 394.088 410.516C394.781 410.516 395.408 410.643 395.968 410.896C396.541 411.15 397.028 411.503 397.428 411.956C397.828 412.396 398.134 412.923 398.348 413.536C398.561 414.15 398.668 414.823 398.668 415.556V416.316H391.028V416.796C391.028 417.25 391.101 417.67 391.248 418.056C391.394 418.443 391.601 418.776 391.868 419.056C392.148 419.336 392.481 419.556 392.868 419.716C393.268 419.863 393.708 419.936 394.188 419.936C394.881 419.936 395.481 419.776 395.988 419.456C396.494 419.136 396.881 418.696 397.148 418.136L398.328 418.936C398.021 419.63 397.508 420.203 396.788 420.656C396.081 421.096 395.214 421.316 394.188 421.316ZM394.088 411.836C393.648 411.836 393.241 411.916 392.868 412.076C392.494 412.236 392.168 412.456 391.888 412.736C391.621 413.016 391.408 413.35 391.248 413.736C391.101 414.11 391.028 414.523 391.028 414.976V415.116H396.948V414.896C396.948 414.443 396.874 414.03 396.728 413.656C396.594 413.283 396.401 412.963 396.148 412.696C395.908 412.416 395.608 412.203 395.248 412.056C394.901 411.91 394.514 411.836 394.088 411.836ZM401.96 421.076V410.756H403.56V412.436H403.64C403.747 412.183 403.88 411.943 404.04 411.716C404.2 411.476 404.393 411.27 404.62 411.096C404.86 410.923 405.14 410.783 405.46 410.676C405.78 410.57 406.153 410.516 406.58 410.516C407.66 410.516 408.527 410.863 409.18 411.556C409.833 412.236 410.16 413.203 410.16 414.456V421.076H408.56V414.736C408.56 413.79 408.353 413.09 407.94 412.636C407.527 412.17 406.92 411.936 406.12 411.936C405.8 411.936 405.487 411.976 405.18 412.056C404.873 412.136 404.6 412.256 404.36 412.416C404.12 412.576 403.927 412.783 403.78 413.036C403.633 413.29 403.56 413.583 403.56 413.916V421.076H401.96ZM418.352 421.316C417.606 421.316 416.939 421.19 416.352 420.936C415.779 420.67 415.292 420.303 414.892 419.836C414.492 419.37 414.186 418.803 413.972 418.136C413.772 417.47 413.672 416.73 413.672 415.916C413.672 415.103 413.779 414.363 413.992 413.696C414.206 413.03 414.512 412.463 414.912 411.996C415.312 411.516 415.799 411.15 416.372 410.896C416.946 410.643 417.599 410.516 418.332 410.516C419.332 410.516 420.146 410.736 420.772 411.176C421.399 411.616 421.859 412.19 422.152 412.896L420.872 413.576C420.686 413.043 420.372 412.63 419.932 412.336C419.506 412.043 418.972 411.896 418.332 411.896C417.866 411.896 417.446 411.976 417.072 412.136C416.712 412.283 416.406 412.496 416.152 412.776C415.899 413.056 415.706 413.39 415.572 413.776C415.452 414.163 415.392 414.583 415.392 415.036V416.796C415.392 417.25 415.452 417.67 415.572 418.056C415.706 418.443 415.899 418.776 416.152 419.056C416.406 419.336 416.719 419.556 417.092 419.716C417.466 419.863 417.892 419.936 418.372 419.936C419.066 419.936 419.639 419.776 420.092 419.456C420.546 419.136 420.906 418.696 421.172 418.136L422.312 418.916C422.006 419.61 421.526 420.183 420.872 420.636C420.232 421.09 419.392 421.316 418.352 421.316ZM433.324 410.756H434.924L429.804 423.336C429.684 423.63 429.551 423.883 429.404 424.096C429.258 424.323 429.084 424.503 428.884 424.636C428.684 424.783 428.444 424.89 428.164 424.956C427.884 425.036 427.551 425.076 427.164 425.076H425.644V423.716H428.044L429.204 420.876L425.044 410.756H426.684L428.424 415.076L429.964 418.996H430.044L431.584 415.076L433.324 410.756Z" fill="#0000FF"/>
<path d="M288.868 65.9258C287.673 65.9258 286.782 65.4918 286.194 64.6238C285.615 63.7558 285.326 62.5051 285.326 60.8718C285.326 59.2385 285.615 57.9878 286.194 57.1198C286.782 56.2518 287.673 55.8178 288.868 55.8178C289.316 55.8178 289.703 55.8785 290.03 55.9998C290.356 56.1211 290.636 56.2845 290.87 56.4898C291.103 56.6951 291.299 56.9285 291.458 57.1898C291.616 57.4418 291.756 57.6985 291.878 57.9598L290.87 58.4218C290.786 58.2071 290.688 58.0065 290.576 57.8198C290.464 57.6238 290.328 57.4558 290.17 57.3158C290.02 57.1665 289.838 57.0498 289.624 56.9658C289.418 56.8818 289.166 56.8398 288.868 56.8398C288.093 56.8398 287.514 57.1338 287.132 57.7218C286.758 58.3098 286.572 59.0938 286.572 60.0738V61.6698C286.572 62.6498 286.758 63.4338 287.132 64.0218C287.514 64.6098 288.093 64.9038 288.868 64.9038C289.166 64.9038 289.418 64.8618 289.624 64.7778C289.838 64.6938 290.02 64.5818 290.17 64.4418C290.328 64.2925 290.464 64.1245 290.576 63.9378C290.688 63.7418 290.786 63.5365 290.87 63.3218L291.878 63.7838C291.756 64.0545 291.616 64.3158 291.458 64.5678C291.299 64.8198 291.103 65.0485 290.87 65.2538C290.636 65.4591 290.356 65.6225 290.03 65.7438C289.703 65.8651 289.316 65.9258 288.868 65.9258ZM293.86 64.8058H296.38V56.3498H293.86V55.3978H297.5V64.8058H300.02V65.7578H293.86V64.8058ZM305.783 56.9378C305.456 56.9378 305.227 56.8725 305.097 56.7418C304.966 56.6018 304.901 56.4291 304.901 56.2238V55.9998C304.901 55.7945 304.966 55.6265 305.097 55.4958C305.227 55.3558 305.456 55.2858 305.783 55.2858C306.109 55.2858 306.338 55.3558 306.469 55.4958C306.599 55.6265 306.665 55.7945 306.665 55.9998V56.2238C306.665 56.4291 306.599 56.6018 306.469 56.7418C306.338 56.8725 306.109 56.9378 305.783 56.9378ZM302.619 64.8058H305.223V59.4858H302.619V58.5338H306.343V64.8058H308.779V65.7578H302.619V64.8058ZM313.855 65.9258C313.332 65.9258 312.861 65.8371 312.441 65.6598C312.03 65.4825 311.676 65.2305 311.377 64.9038C311.088 64.5678 310.864 64.1711 310.705 63.7138C310.546 63.2471 310.467 62.7291 310.467 62.1598C310.467 61.5811 310.546 61.0585 310.705 60.5918C310.873 60.1251 311.102 59.7285 311.391 59.4018C311.68 59.0658 312.026 58.8091 312.427 58.6318C312.838 58.4545 313.29 58.3658 313.785 58.3658C314.27 58.3658 314.709 58.4545 315.101 58.6318C315.502 58.8091 315.843 59.0565 316.123 59.3738C316.403 59.6818 316.618 60.0505 316.767 60.4798C316.916 60.9091 316.991 61.3805 316.991 61.8938V62.4258H311.643V62.7618C311.643 63.0791 311.694 63.3731 311.797 63.6438C311.9 63.9145 312.044 64.1478 312.231 64.3438C312.427 64.5398 312.66 64.6938 312.931 64.8058C313.211 64.9085 313.519 64.9598 313.855 64.9598C314.34 64.9598 314.76 64.8478 315.115 64.6238C315.47 64.3998 315.74 64.0918 315.927 63.6998L316.753 64.2598C316.538 64.7451 316.179 65.1465 315.675 65.4638C315.18 65.7718 314.574 65.9258 313.855 65.9258ZM313.785 59.2898C313.477 59.2898 313.192 59.3458 312.931 59.4578C312.67 59.5698 312.441 59.7238 312.245 59.9198C312.058 60.1158 311.909 60.3491 311.797 60.6198C311.694 60.8811 311.643 61.1705 311.643 61.4878V61.5858H315.787V61.4318C315.787 61.1145 315.736 60.8251 315.633 60.5638C315.54 60.3025 315.404 60.0785 315.227 59.8918C315.059 59.6958 314.849 59.5465 314.597 59.4438C314.354 59.3411 314.084 59.2898 313.785 59.2898ZM319.296 65.7578V58.5338H320.416V59.7098H320.472C320.546 59.5325 320.64 59.3645 320.752 59.2058C320.864 59.0378 320.999 58.8931 321.158 58.7718C321.326 58.6505 321.522 58.5525 321.746 58.4778C321.97 58.4031 322.231 58.3658 322.53 58.3658C323.286 58.3658 323.892 58.6085 324.35 59.0938C324.807 59.5698 325.036 60.2465 325.036 61.1238V65.7578H323.916V61.3198C323.916 60.6571 323.771 60.1671 323.482 59.8498C323.192 59.5231 322.768 59.3598 322.208 59.3598C321.984 59.3598 321.764 59.3878 321.55 59.4438C321.335 59.4998 321.144 59.5838 320.976 59.6958C320.808 59.8078 320.672 59.9525 320.57 60.1298C320.467 60.3071 320.416 60.5125 320.416 60.7458V65.7578H319.296ZM330.868 65.7578C330.318 65.7578 329.912 65.6038 329.65 65.2958C329.398 64.9878 329.272 64.5911 329.272 64.1058V59.4858H326.864V58.5338H328.656C328.899 58.5338 329.067 58.4871 329.16 58.3938C329.263 58.2911 329.314 58.1185 329.314 57.8758V55.9858H330.392V58.5338H333.682V59.4858H330.392V64.8058H333.682V65.7578H330.868ZM344.339 55.9858H347.657C348.497 55.9858 349.155 56.2145 349.631 56.6718C350.107 57.1291 350.345 57.7405 350.345 58.5058C350.345 59.0938 350.201 59.5558 349.911 59.8918C349.631 60.2278 349.267 60.4658 348.819 60.6058V60.6478C349.37 60.7785 349.823 61.0258 350.177 61.3898C350.532 61.7445 350.709 62.2625 350.709 62.9438C350.709 63.3358 350.644 63.7045 350.513 64.0498C350.383 64.3951 350.196 64.6938 349.953 64.9458C349.72 65.1978 349.44 65.3985 349.113 65.5478C348.796 65.6878 348.451 65.7578 348.077 65.7578H344.339V55.9858ZM347.727 64.7358C348.269 64.7358 348.693 64.6145 349.001 64.3718C349.309 64.1291 349.463 63.7558 349.463 63.2518V62.6778C349.463 62.1831 349.309 61.8145 349.001 61.5718C348.693 61.3198 348.269 61.1938 347.727 61.1938H345.515V64.7358H347.727ZM347.531 60.2278C348.026 60.2278 348.413 60.1205 348.693 59.9058C348.973 59.6818 349.113 59.3458 349.113 58.8978V58.3518C349.113 57.9038 348.973 57.5678 348.693 57.3438C348.413 57.1198 348.026 57.0078 347.531 57.0078H345.515V60.2278H347.531Z" fill="black"/>
<path d="M453.02 65.9258C451.826 65.9258 450.934 65.4918 450.346 64.6238C449.768 63.7558 449.478 62.5051 449.478 60.8718C449.478 59.2385 449.768 57.9878 450.346 57.1198C450.934 56.2518 451.826 55.8178 453.02 55.8178C453.468 55.8178 453.856 55.8785 454.182 55.9998C454.509 56.1211 454.789 56.2845 455.022 56.4898C455.256 56.6951 455.452 56.9285 455.61 57.1898C455.769 57.4418 455.909 57.6985 456.03 57.9598L455.022 58.4218C454.938 58.2071 454.84 58.0065 454.728 57.8198C454.616 57.6238 454.481 57.4558 454.322 57.3158C454.173 57.1665 453.991 57.0498 453.776 56.9658C453.571 56.8818 453.319 56.8398 453.02 56.8398C452.246 56.8398 451.667 57.1338 451.284 57.7218C450.911 58.3098 450.724 59.0938 450.724 60.0738V61.6698C450.724 62.6498 450.911 63.4338 451.284 64.0218C451.667 64.6098 452.246 64.9038 453.02 64.9038C453.319 64.9038 453.571 64.8618 453.776 64.7778C453.991 64.6938 454.173 64.5818 454.322 64.4418C454.481 64.2925 454.616 64.1245 454.728 63.9378C454.84 63.7418 454.938 63.5365 455.022 63.3218L456.03 63.7838C455.909 64.0545 455.769 64.3158 455.61 64.5678C455.452 64.8198 455.256 65.0485 455.022 65.2538C454.789 65.4591 454.509 65.6225 454.182 65.7438C453.856 65.8651 453.468 65.9258 453.02 65.9258ZM458.013 64.8058H460.533V56.3498H458.013V55.3978H461.653V64.8058H464.173V65.7578H458.013V64.8058ZM469.935 56.9378C469.609 56.9378 469.38 56.8725 469.249 56.7418C469.119 56.6018 469.053 56.4291 469.053 56.2238V55.9998C469.053 55.7945 469.119 55.6265 469.249 55.4958C469.38 55.3558 469.609 55.2858 469.935 55.2858C470.262 55.2858 470.491 55.3558 470.621 55.4958C470.752 55.6265 470.817 55.7945 470.817 55.9998V56.2238C470.817 56.4291 470.752 56.6018 470.621 56.7418C470.491 56.8725 470.262 56.9378 469.935 56.9378ZM466.771 64.8058H469.375V59.4858H466.771V58.5338H470.495V64.8058H472.931V65.7578H466.771V64.8058ZM478.008 65.9258C477.485 65.9258 477.014 65.8371 476.594 65.6598C476.183 65.4825 475.829 65.2305 475.53 64.9038C475.241 64.5678 475.017 64.1711 474.858 63.7138C474.699 63.2471 474.62 62.7291 474.62 62.1598C474.62 61.5811 474.699 61.0585 474.858 60.5918C475.026 60.1251 475.255 59.7285 475.544 59.4018C475.833 59.0658 476.179 58.8091 476.58 58.6318C476.991 58.4545 477.443 58.3658 477.938 58.3658C478.423 58.3658 478.862 58.4545 479.254 58.6318C479.655 58.8091 479.996 59.0565 480.276 59.3738C480.556 59.6818 480.771 60.0505 480.92 60.4798C481.069 60.9091 481.144 61.3805 481.144 61.8938V62.4258H475.796V62.7618C475.796 63.0791 475.847 63.3731 475.95 63.6438C476.053 63.9145 476.197 64.1478 476.384 64.3438C476.58 64.5398 476.813 64.6938 477.084 64.8058C477.364 64.9085 477.672 64.9598 478.008 64.9598C478.493 64.9598 478.913 64.8478 479.268 64.6238C479.623 64.3998 479.893 64.0918 480.08 63.6998L480.906 64.2598C480.691 64.7451 480.332 65.1465 479.828 65.4638C479.333 65.7718 478.727 65.9258 478.008 65.9258ZM477.938 59.2898C477.63 59.2898 477.345 59.3458 477.084 59.4578C476.823 59.5698 476.594 59.7238 476.398 59.9198C476.211 60.1158 476.062 60.3491 475.95 60.6198C475.847 60.8811 475.796 61.1705 475.796 61.4878V61.5858H479.94V61.4318C479.94 61.1145 479.889 60.8251 479.786 60.5638C479.693 60.3025 479.557 60.0785 479.38 59.8918C479.212 59.6958 479.002 59.5465 478.75 59.4438C478.507 59.3411 478.237 59.2898 477.938 59.2898ZM483.448 65.7578V58.5338H484.568V59.7098H484.624C484.699 59.5325 484.792 59.3645 484.904 59.2058C485.016 59.0378 485.152 58.8931 485.31 58.7718C485.478 58.6505 485.674 58.5525 485.898 58.4778C486.122 58.4031 486.384 58.3658 486.682 58.3658C487.438 58.3658 488.045 58.6085 488.502 59.0938C488.96 59.5698 489.188 60.2465 489.188 61.1238V65.7578H488.068V61.3198C488.068 60.6571 487.924 60.1671 487.634 59.8498C487.345 59.5231 486.92 59.3598 486.36 59.3598C486.136 59.3598 485.917 59.3878 485.702 59.4438C485.488 59.4998 485.296 59.5838 485.128 59.6958C484.96 59.8078 484.825 59.9525 484.722 60.1298C484.62 60.3071 484.568 60.5125 484.568 60.7458V65.7578H483.448ZM495.021 65.7578C494.47 65.7578 494.064 65.6038 493.803 65.2958C493.551 64.9878 493.425 64.5911 493.425 64.1058V59.4858H491.017V58.5338H492.809C493.052 58.5338 493.22 58.4871 493.313 58.3938C493.416 58.2911 493.467 58.1185 493.467 57.8758V55.9858H494.545V58.5338H497.835V59.4858H494.545V64.8058H497.835V65.7578H495.021ZM511.782 65.9258C510.587 65.9258 509.696 65.4918 509.108 64.6238C508.529 63.7558 508.24 62.5051 508.24 60.8718C508.24 59.2385 508.529 57.9878 509.108 57.1198C509.696 56.2518 510.587 55.8178 511.782 55.8178C512.23 55.8178 512.617 55.8785 512.944 55.9998C513.271 56.1211 513.551 56.2845 513.784 56.4898C514.017 56.6951 514.213 56.9285 514.372 57.1898C514.531 57.4418 514.671 57.6985 514.792 57.9598L513.784 58.4218C513.7 58.2071 513.602 58.0065 513.49 57.8198C513.378 57.6238 513.243 57.4558 513.084 57.3158C512.935 57.1665 512.753 57.0498 512.538 56.9658C512.333 56.8818 512.081 56.8398 511.782 56.8398C511.007 56.8398 510.429 57.1338 510.046 57.7218C509.673 58.3098 509.486 59.0938 509.486 60.0738V61.6698C509.486 62.6498 509.673 63.4338 510.046 64.0218C510.429 64.6098 511.007 64.9038 511.782 64.9038C512.081 64.9038 512.333 64.8618 512.538 64.7778C512.753 64.6938 512.935 64.5818 513.084 64.4418C513.243 64.2925 513.378 64.1245 513.49 63.9378C513.602 63.7418 513.7 63.5365 513.784 63.3218L514.792 63.7838C514.671 64.0545 514.531 64.3158 514.372 64.5678C514.213 64.8198 514.017 65.0485 513.784 65.2538C513.551 65.4591 513.271 65.6225 512.944 65.7438C512.617 65.8651 512.23 65.9258 511.782 65.9258Z" fill="black"/>
<path d="M617.173 65.9258C615.978 65.9258 615.087 65.4918 614.499 64.6238C613.92 63.7558 613.631 62.5051 613.631 60.8718C613.631 59.2385 613.92 57.9878 614.499 57.1198C615.087 56.2518 615.978 55.8178 617.173 55.8178C617.621 55.8178 618.008 55.8785 618.335 55.9998C618.662 56.1211 618.942 56.2845 619.175 56.4898C619.408 56.6951 619.604 56.9285 619.763 57.1898C619.922 57.4418 620.062 57.6985 620.183 57.9598L619.175 58.4218C619.091 58.2071 618.993 58.0065 618.881 57.8198C618.769 57.6238 618.634 57.4558 618.475 57.3158C618.326 57.1665 618.144 57.0498 617.929 56.9658C617.724 56.8818 617.472 56.8398 617.173 56.8398C616.398 56.8398 615.82 57.1338 615.437 57.7218C615.064 58.3098 614.877 59.0938 614.877 60.0738V61.6698C614.877 62.6498 615.064 63.4338 615.437 64.0218C615.82 64.6098 616.398 64.9038 617.173 64.9038C617.472 64.9038 617.724 64.8618 617.929 64.7778C618.144 64.6938 618.326 64.5818 618.475 64.4418C618.634 64.2925 618.769 64.1245 618.881 63.9378C618.993 63.7418 619.091 63.5365 619.175 63.3218L620.183 63.7838C620.062 64.0545 619.922 64.3158 619.763 64.5678C619.604 64.8198 619.408 65.0485 619.175 65.2538C618.942 65.4591 618.662 65.6225 618.335 65.7438C618.008 65.8651 617.621 65.9258 617.173 65.9258ZM622.166 64.8058H624.686V56.3498H622.166V55.3978H625.806V64.8058H628.326V65.7578H622.166V64.8058ZM634.088 56.9378C633.761 56.9378 633.533 56.8725 633.402 56.7418C633.271 56.6018 633.206 56.4291 633.206 56.2238V55.9998C633.206 55.7945 633.271 55.6265 633.402 55.4958C633.533 55.3558 633.761 55.2858 634.088 55.2858C634.415 55.2858 634.643 55.3558 634.774 55.4958C634.905 55.6265 634.97 55.7945 634.97 55.9998V56.2238C634.97 56.4291 634.905 56.6018 634.774 56.7418C634.643 56.8725 634.415 56.9378 634.088 56.9378ZM630.924 64.8058H633.528V59.4858H630.924V58.5338H634.648V64.8058H637.084V65.7578H630.924V64.8058ZM642.161 65.9258C641.638 65.9258 641.167 65.8371 640.747 65.6598C640.336 65.4825 639.981 65.2305 639.683 64.9038C639.393 64.5678 639.169 64.1711 639.011 63.7138C638.852 63.2471 638.773 62.7291 638.773 62.1598C638.773 61.5811 638.852 61.0585 639.011 60.5918C639.179 60.1251 639.407 59.7285 639.697 59.4018C639.986 59.0658 640.331 58.8091 640.733 58.6318C641.143 58.4545 641.596 58.3658 642.091 58.3658C642.576 58.3658 643.015 58.4545 643.407 58.6318C643.808 58.8091 644.149 59.0565 644.429 59.3738C644.709 59.6818 644.923 60.0505 645.073 60.4798C645.222 60.9091 645.297 61.3805 645.297 61.8938V62.4258H639.949V62.7618C639.949 63.0791 640 63.3731 640.103 63.6438C640.205 63.9145 640.35 64.1478 640.537 64.3438C640.733 64.5398 640.966 64.6938 641.237 64.8058C641.517 64.9085 641.825 64.9598 642.161 64.9598C642.646 64.9598 643.066 64.8478 643.421 64.6238C643.775 64.3998 644.046 64.0918 644.233 63.6998L645.059 64.2598C644.844 64.7451 644.485 65.1465 643.981 65.4638C643.486 65.7718 642.879 65.9258 642.161 65.9258ZM642.091 59.2898C641.783 59.2898 641.498 59.3458 641.237 59.4578C640.975 59.5698 640.747 59.7238 640.551 59.9198C640.364 60.1158 640.215 60.3491 640.103 60.6198C640 60.8811 639.949 61.1705 639.949 61.4878V61.5858H644.093V61.4318C644.093 61.1145 644.041 60.8251 643.939 60.5638C643.845 60.3025 643.71 60.0785 643.533 59.8918C643.365 59.6958 643.155 59.5465 642.903 59.4438C642.66 59.3411 642.389 59.2898 642.091 59.2898ZM647.601 65.7578V58.5338H648.721V59.7098H648.777C648.852 59.5325 648.945 59.3645 649.057 59.2058C649.169 59.0378 649.304 58.8931 649.463 58.7718C649.631 58.6505 649.827 58.5525 650.051 58.4778C650.275 58.4031 650.536 58.3658 650.835 58.3658C651.591 58.3658 652.198 58.6085 652.655 59.0938C653.112 59.5698 653.341 60.2465 653.341 61.1238V65.7578H652.221V61.3198C652.221 60.6571 652.076 60.1671 651.787 59.8498C651.498 59.5231 651.073 59.3598 650.513 59.3598C650.289 59.3598 650.07 59.3878 649.855 59.4438C649.64 59.4998 649.449 59.5838 649.281 59.6958C649.113 59.8078 648.978 59.9525 648.875 60.1298C648.772 60.3071 648.721 60.5125 648.721 60.7458V65.7578H647.601ZM659.174 65.7578C658.623 65.7578 658.217 65.6038 657.956 65.2958C657.704 64.9878 657.578 64.5911 657.578 64.1058V59.4858H655.17V58.5338H656.962C657.204 58.5338 657.372 58.4871 657.466 58.3938C657.568 58.2911 657.62 58.1185 657.62 57.8758V55.9858H658.698V58.5338H661.988V59.4858H658.698V64.8058H661.988V65.7578H659.174ZM672.743 55.9858H675.473C676.667 55.9858 677.559 56.3965 678.147 57.2178C678.735 58.0391 679.029 59.2571 679.029 60.8718C679.029 62.4865 678.735 63.7045 678.147 64.5258C677.559 65.3471 676.667 65.7578 675.473 65.7578H672.743V55.9858ZM675.417 64.7358C676.201 64.7358 676.789 64.4651 677.181 63.9238C677.582 63.3825 677.783 62.6171 677.783 61.6278V60.1158C677.783 59.1265 677.582 58.3611 677.181 57.8198C676.789 57.2785 676.201 57.0078 675.417 57.0078H673.919V64.7358H675.417Z" fill="black"/>
</svg>
