<svg width="387" height="74" viewBox="0 0 387 74" fill="none" xmlns="http://www.w3.org/2000/svg">
<g clip-path="url(#clip0_2603_1945)">
<path d="M37.7926 37.478V34.7529H71.8093V35.2819C67.4546 36.6923 61.0065 38.0224 59.3517 38.2791C60.2537 38.6967 60.5477 39.0647 60.9318 39.19C62.2634 39.3498 63.5838 39.5916 64.8853 39.9138C67.4468 40.5 69.5682 41.0552 71.3132 41.6676C73.1266 42.3419 74.0862 42.6528 75.1547 42.959C76.4027 43.2973 77.6672 43.5724 78.9433 43.7833C79.9962 43.938 82.2342 43.1647 82.7599 43.0301C83.2856 42.8956 90.0929 40.2649 90.0929 40.2649C90.0929 40.2649 93.0479 39.1653 94.2175 38.873C95.2922 38.5776 95.3202 38.9348 95.3202 38.9348C95.4178 39.2444 95.4947 39.5601 95.5503 39.8798C95.6588 40.8864 95.6682 41.9011 95.5783 42.9095C95.4624 43.6866 95.3066 44.4572 95.1118 45.2185C94.9358 45.8472 94.6988 46.4573 94.4041 47.0404C94.1864 47.4193 93.8504 48.0101 93.7354 48.2668C93.5573 48.6202 93.4426 49.0017 93.3963 49.3943C93.3428 49.9256 93.3685 50.4618 93.4725 50.9857C93.5658 51.4342 93.8675 52.5585 93.8675 52.5585L94.2237 53.9643L45.4725 53.9056V56.7482H5.99225C6.01387 56.6828 6.01763 56.6129 6.00313 56.5456C5.9627 56.3723 5.76362 56.1172 5.00155 55.6609C4.02018 55.0253 0.922098 53.9102 0.0247135 53.5839C-0.0110575 52.7379 -0.379654 48.8406 4.51008 44.5643C5.97402 43.3204 7.51465 42.1685 9.12298 41.1155C9.12298 41.1155 13.3222 38.3843 16.6598 37.2939" fill="#AAAAA9"/>
<path d="M94.216 53.964L45.4648 53.9053V56.7479H5.99235C5.77306 57.3881 2.81029 58.5202 0.782227 58.913C1.87091 60.4024 3.92696 61.7618 5.99079 62.9341C7.97986 64.0136 10.0443 64.9496 12.1683 65.7349C12.9459 66.0025 15.2633 66.9041 16.6443 67.0124C18.566 67.1487 20.4961 67.1124 22.4112 66.9041C23.4234 66.8062 24.4292 66.6513 25.4238 66.4402C25.4238 66.4402 25.6166 67.198 26.8235 68.8621C27.696 70.0143 28.766 71.1928 29.8345 71.8903C31.1067 72.6898 31.5297 73.1121 34.2856 73.6116C36.3352 74 38.4298 74.0968 40.5067 73.8993C41.9064 73.7709 43.2626 73.726 44.4679 73.3935C44.5255 71.8562 44.3311 70.4365 43.709 69.1822C45.3824 69.2487 46.3125 69.2967 48.6485 69.2518C53.1587 69.1668 58.0842 68.2435 62.1217 67.4764C65.4577 66.8438 70.9151 65.3236 73.5248 64.4606C75.0241 63.9641 78.5888 62.7594 78.92 62.7594C79.4566 62.7594 80.2622 62.8846 81.3836 63.214C83.0493 63.7043 84.3292 64.142 87.138 65.1457C89.9468 66.1494 92.4461 67.0248 93.9672 67.232C95.0916 67.3867 95.23 67.232 95.3078 66.6722C95.4369 65.9638 94.4446 64.3523 94.0356 63.0872C93.523 61.8091 93.4203 60.4046 93.7417 59.0662C93.8472 58.6727 93.9749 58.2854 94.1243 57.9062C94.3952 57.1344 94.5135 56.3178 94.4726 55.5013C94.4416 54.9814 94.3556 54.4661 94.216 53.964Z" fill="#AAAAA9"/>
<path d="M93.5799 30.7379C93.5642 30.2053 93.6324 29.6735 93.7821 29.1619C93.8785 28.8526 93.9781 28.5773 94.1616 28.0561C94.424 27.2627 94.524 26.425 94.4555 25.5925C94.4031 25.0989 94.3215 24.6088 94.2113 24.1248L58.459 24.0645V26.8328H6.01566C6.12142 27.5922 2.82738 28.8062 0.799316 29.2052C1.85689 30.6497 3.99538 32.0741 6.06543 33.251C8.05911 34.3278 10.1265 35.2637 12.2523 36.0519C13.1854 36.3797 15.2259 37.1345 16.6692 37.2999L37.7927 37.4778V34.7528H71.8094V35.2817C72.3226 35.1394 73.0847 34.9136 73.5746 34.7528C75.0739 34.2563 78.6976 33.016 79.0289 33.0113C79.567 33.0113 80.2529 33.1289 81.3742 33.4583C83.0399 33.947 84.365 34.4373 87.1769 35.4348C89.9888 36.4323 92.429 37.2907 93.9469 37.5134C95.2518 37.7067 95.3296 37.2721 95.3296 36.754C95.3607 36.0936 94.3778 34.4249 93.9672 33.1536C93.7116 32.3735 93.5809 31.5583 93.5799 30.7379Z" fill="#AAAAA9"/>
<path d="M95.5501 10.1934C95.5781 10.6976 95.6558 12.7545 95.5781 13.2216C95.4766 13.9355 95.3312 14.6426 95.1426 15.3388C94.9404 15.9729 94.6325 16.8854 94.3961 17.2999C94.1783 17.6788 93.8237 18.2634 93.7087 18.5201C93.5381 18.8968 93.4299 19.2984 93.3883 19.7094C93.3348 20.2407 93.3605 20.777 93.4645 21.3008C93.5578 21.7493 93.8595 22.8737 93.8595 22.8737L94.211 24.1249L58.4587 24.0645V26.8329H6.01532C6.01532 26.8329 6.06198 26.5236 5.11327 25.9359C4.25787 25.4719 1.47396 24.2965 0.0586716 23.8635C-0.0781912 23.1567 -0.379912 19.1542 4.50983 14.8795C5.97432 13.6344 7.51603 12.482 9.12584 11.4291C9.12584 11.4291 13.182 8.56642 17.5398 7.28432C18.5902 6.98957 19.661 6.77246 20.7436 6.63476C23.8339 6.38422 28.7874 6.26358 29.2727 6.2806C30.2445 4.99414 31.3024 3.77424 32.4392 2.62916C34.2853 0.821226 35.332 0.123725 36.4362 0C37.9604 0.0897007 46.1193 1.98579 48.4226 2.66782C49.7446 3.039 52.3916 3.75042 54.4881 4.62423C56.6499 5.45009 57.1756 6.15223 57.1756 6.15223C57.5805 6.76062 58.0198 7.34565 58.4913 7.90449C59.0015 8.41176 60.4665 9.28712 60.874 9.45105C61.4883 9.60571 62.5272 9.61499 64.8788 10.1795C67.3361 10.761 69.5446 11.3827 71.302 11.9271C73.1217 12.5303 74.0704 12.9478 75.1591 13.2262C76.2478 13.5046 77.9896 13.9222 78.9539 14.0614C79.9182 14.2005 82.038 13.4427 82.5637 13.3082C83.0893 13.1736 90.0927 10.5785 90.0927 10.5785C90.0927 10.5785 93.872 9.23453 94.2141 9.12473C95.3603 8.75355 95.5501 8.72726 95.5501 10.1934Z" fill="#AAAAA9"/>
<path d="M16.6411 14.4619C14.1683 14.4619 12.302 16.3487 12.1776 19.0243C12.0531 21.6689 14.1838 23.5866 16.6411 23.5866C19.0985 23.5866 21.1047 21.5452 21.1047 19.0243C21.1047 16.5034 19.1156 14.4619 16.6411 14.4619ZM15.5991 22.6278C13.7017 22.6278 12.162 21.2823 12.1776 19.1171C12.2398 17.3385 13.7173 15.6064 15.5991 15.6064C17.481 15.6064 19.0207 17.1684 19.0207 19.1171C19.0207 21.0657 17.4981 22.6278 15.6007 22.6278H15.5991Z" fill="white"/>
<path d="M15.6008 15.6201C13.7034 15.6201 12.2259 17.3523 12.1792 19.1308C12.1792 21.296 13.7189 22.6415 15.6008 22.6415C17.4826 22.6415 19.0223 21.0795 19.0223 19.1308C19.0223 17.1821 17.4982 15.6201 15.6008 15.6201ZM13.9833 21.4661C13.7545 21.4723 13.529 21.4104 13.3356 21.2885C13.1423 21.1665 12.99 20.99 12.8981 20.7815C12.8062 20.573 12.7789 20.342 12.8198 20.118C12.8606 19.894 12.9677 19.6872 13.1273 19.524C13.287 19.3608 13.4919 19.2487 13.716 19.202C13.94 19.1553 14.173 19.1761 14.3851 19.2617C14.5973 19.3473 14.7789 19.4939 14.9068 19.6827C15.0346 19.8716 15.103 20.094 15.1031 20.3217C15.1058 20.4702 15.0789 20.6177 15.0239 20.7559C14.969 20.894 14.8872 21.0199 14.7831 21.1265C14.679 21.233 14.5547 21.318 14.4175 21.3765C14.2802 21.4351 14.1327 21.4661 13.9833 21.4677V21.4661Z" fill="white"/>
<path d="M13.9831 21.4676C14.6015 21.4676 15.1029 20.9552 15.1029 20.3232C15.1029 19.6911 14.6015 19.1787 13.9831 19.1787C13.3646 19.1787 12.8633 19.6911 12.8633 20.3232C12.8633 20.9552 13.3646 21.4676 13.9831 21.4676Z" fill="#AAAAA9"/>
<path d="M16.6411 44.4004C14.1683 44.4004 12.302 46.2872 12.1776 48.9628C12.0531 51.6074 14.1838 53.5251 16.6411 53.5251C19.0985 53.5251 21.1047 51.4837 21.1047 48.9628C21.1047 46.4419 19.1156 44.4004 16.6411 44.4004ZM15.5991 52.5663C13.7017 52.5663 12.162 51.2207 12.1776 49.0555C12.2398 47.277 13.7173 45.5448 15.5991 45.5448C17.481 45.5448 19.0207 47.1069 19.0207 49.0555C19.0207 51.0042 17.4981 52.5663 15.6007 52.5663H15.5991Z" fill="white"/>
<path d="M15.6008 45.5601C13.7034 45.5601 12.2259 47.2922 12.1792 49.0708C12.1792 51.236 13.7189 52.5815 15.6008 52.5815C17.4826 52.5815 19.0223 51.0194 19.0223 49.0708C19.0223 47.1221 17.4982 45.5601 15.6008 45.5601ZM13.9833 51.4061C13.7545 51.4122 13.529 51.3504 13.3356 51.2284C13.1423 51.1065 12.99 50.9299 12.8981 50.7214C12.8062 50.5129 12.7789 50.2819 12.8198 50.0579C12.8606 49.8339 12.9677 49.6271 13.1273 49.4639C13.287 49.3008 13.4919 49.1887 13.716 49.1419C13.94 49.0952 14.173 49.116 14.3851 49.2016C14.5973 49.2873 14.7789 49.4339 14.9068 49.6227C15.0346 49.8115 15.103 50.034 15.1031 50.2616C15.1056 50.41 15.0785 50.5574 15.0235 50.6953C14.9685 50.8333 14.8866 50.959 14.7825 51.0654C14.6784 51.1717 14.5543 51.2566 14.4171 51.3151C14.2799 51.3735 14.1325 51.4045 13.9833 51.4061Z" fill="white"/>
<path d="M13.9831 51.4061C14.6015 51.4061 15.1029 50.8937 15.1029 50.2616C15.1029 49.6296 14.6015 49.1172 13.9831 49.1172C13.3646 49.1172 12.8633 49.6296 12.8633 50.2616C12.8633 50.8937 13.3646 51.4061 13.9831 51.4061Z" fill="#AAAAA9"/>
<path d="M34.909 26.833C34.2698 29.2194 33.6057 31.1835 33.5933 31.2191C33.5474 31.3538 33.5287 31.4962 33.5382 31.6382C33.5477 31.7801 33.5852 31.9188 33.6486 32.0464C33.712 32.1739 33.8001 32.2877 33.9077 32.3814C34.0154 32.4751 34.1405 32.5468 34.2761 32.5924C34.4116 32.638 34.5548 32.6566 34.6975 32.6472C34.8403 32.6377 34.9798 32.6004 35.108 32.5374C35.2362 32.4743 35.3507 32.3868 35.445 32.2797C35.5392 32.1727 35.6113 32.0482 35.6571 31.9135C35.71 31.7588 36.4752 29.4931 37.1626 26.833H34.909ZM29.898 26.833C29.6989 27.28 29.5558 27.5537 29.5481 27.5692C29.4422 27.7856 29.4251 28.0344 29.5002 28.2631C29.5753 28.4918 29.7369 28.6826 29.9508 28.7951C30.1646 28.9077 30.4141 28.9332 30.6465 28.8664C30.879 28.7995 31.0762 28.6455 31.1966 28.4368C31.4661 27.9147 31.7091 27.3794 31.9245 26.833H29.898Z" fill="#AAAAA9"/>
<path d="M36.0665 20.902C36.0665 20.9345 36.0572 20.9654 36.0541 20.9979C35.9296 22.6883 35.432 24.8999 34.9094 26.8331H37.1707C37.656 24.9556 38.1039 22.8785 38.2299 21.2005C38.5067 19.3307 37.3574 15.8169 36.5968 13.7646C43.1098 14.0116 49.6052 14.5985 56.0563 15.5231C67.1095 17.1129 80.4427 23.7013 80.5765 23.7678C80.7047 23.8344 80.8449 23.8749 80.9889 23.887C81.133 23.8991 81.2781 23.8826 81.4157 23.8383C81.5533 23.7941 81.6806 23.723 81.7903 23.6293C81.8999 23.5355 81.9897 23.421 82.0544 23.2924C82.119 23.1638 82.1573 23.0237 82.1669 22.8802C82.1765 22.7367 82.1573 22.5928 82.1103 22.4568C82.0634 22.3208 81.9897 22.1955 81.8935 22.0881C81.7973 21.9807 81.6805 21.8935 81.5501 21.8315C80.9933 21.5531 67.7736 15.0266 56.3689 13.3795C44.5489 11.6783 35.0945 11.5577 35.0012 11.5577C34.8212 11.5557 34.6436 11.598 34.4841 11.681C34.3246 11.7639 34.1884 11.8849 34.0874 12.0331C33.9865 12.1812 33.9241 12.352 33.9058 12.53C33.8875 12.708 33.9138 12.8878 33.9825 13.0532C34.9125 15.3112 36.3091 19.4282 36.0665 20.902ZM31.1939 21.1232C31.3758 23.1832 30.4349 25.633 29.8983 26.8331H31.9202C32.5174 25.3422 33.2328 23.0487 33.0477 20.9562C32.7859 18.1514 31.8352 15.4535 30.2794 13.0996C30.2079 13.0005 30.1175 12.9164 30.0133 12.852C29.9091 12.7876 29.7932 12.7443 29.6722 12.7245C29.5512 12.7047 29.4274 12.7087 29.308 12.7365C29.1885 12.7642 29.0757 12.8151 28.9761 12.8862C28.8764 12.9573 28.7918 13.0472 28.7271 13.1508C28.6623 13.2544 28.6188 13.3696 28.5988 13.49C28.5789 13.6103 28.583 13.7334 28.6109 13.8522C28.6388 13.971 28.69 14.0831 28.7614 14.1822C30.1166 16.2702 30.9505 18.6499 31.1939 21.1232Z" fill="#AAAAA9"/>
<path d="M34.9293 56.7417C34.2901 59.128 33.626 61.0922 33.6135 61.1278C33.5236 61.399 33.545 61.6946 33.6733 61.9502C33.8016 62.2058 34.0262 62.4006 34.2983 62.4922C34.5703 62.5838 34.8678 62.5648 35.1258 62.4393C35.3838 62.3138 35.5815 62.092 35.6758 61.8222C35.7302 61.6675 36.4954 59.4018 37.1813 56.7417H34.9293ZM29.9182 56.7417C29.7176 57.1887 29.5745 57.4624 29.5667 57.4779C29.451 57.6955 29.427 57.9499 29.4999 58.1851C29.5728 58.4203 29.7367 58.6171 29.9555 58.7321C30.1744 58.8472 30.4302 58.8711 30.6667 58.7986C30.9033 58.7261 31.1012 58.5631 31.2169 58.3455C31.4864 57.8234 31.7293 57.2881 31.9447 56.7417H29.9182Z" fill="#AAAAA9"/>
<path d="M36.0819 50.8108C36.0766 50.8426 36.073 50.8746 36.071 50.9067C35.945 52.5971 35.4489 54.8087 34.9263 56.7419H37.1783C37.6636 54.8643 38.1115 52.7873 38.239 51.1093C38.5158 49.2395 37.3665 45.7257 36.6044 43.6734C43.1179 43.9203 49.6138 44.5073 56.0654 45.4318C67.1171 47.0217 80.4519 53.6101 80.5841 53.6766C80.7119 53.7402 80.8511 53.7783 80.9938 53.7884C81.1364 53.7986 81.2796 53.7807 81.4153 53.7359C81.551 53.691 81.6765 53.62 81.7845 53.5269C81.8926 53.4338 81.9812 53.3204 82.0452 53.1933C82.1093 53.0661 82.1475 52.9277 82.1577 52.7859C82.1679 52.644 82.15 52.5016 82.1048 52.3667C82.0597 52.2318 81.9883 52.107 81.8947 51.9995C81.8011 51.892 81.6871 51.8039 81.5592 51.7403C81.0024 51.4619 67.7827 44.9354 56.3764 43.2883C49.2962 42.2625 42.1612 41.6537 35.0087 41.4649C34.8287 41.463 34.651 41.5056 34.4916 41.5887C34.3322 41.6719 34.196 41.793 34.0952 41.9414C33.9944 42.0897 33.9322 42.2606 33.9141 42.4387C33.896 42.6168 33.9227 42.7966 33.9916 42.962C34.9325 45.2138 36.3291 49.3354 36.0819 50.8108ZM31.2123 51.0366C31.3959 53.0966 30.4534 55.5464 29.9184 56.7465H31.9402C32.5359 55.2556 33.2528 52.9621 33.0678 50.8696C32.8059 48.0648 31.8552 45.3669 30.2994 43.013C30.155 42.8129 29.9366 42.6779 29.6922 42.6379C29.4478 42.5979 29.1974 42.656 28.9961 42.7996C28.7948 42.9431 28.6591 43.1603 28.6189 43.4034C28.5786 43.6465 28.6371 43.8954 28.7815 44.0956C30.1357 46.1839 30.9691 48.5635 31.2123 51.0366Z" fill="#AAAAA9"/>
<path d="M151.56 34.1574V44.5782H167.433C167.024 56.2702 159.063 62.4704 147.782 62.4704C132.318 62.4704 125.735 50.8309 125.735 36.5469C125.735 23.2294 132.318 11.2899 147.579 11.2899C156.766 11.2899 164.319 15.6621 167.642 25.4209L179.126 20.6435C173.301 7.21781 161.868 0 147.681 0C123.845 0 112.873 17.3834 112.873 37.0557C112.873 56.7775 124.051 74.0093 147.782 74.0093C157.378 74.0093 165.239 69.6371 169.117 62.874L170.239 72.9978H180.504V34.1574H151.56ZM204.741 74.0093C207.696 74.0093 211.428 73.5005 214.03 72.9932V62.5724C212.898 62.751 211.755 62.8544 210.609 62.8817C208.108 62.8817 206.526 61.8657 206.526 59.4793V1.1692H194.073V62.8771C194.075 71.824 198.871 74.0093 204.741 74.0093ZM223.37 12.606H236.434V1.1692H223.37V12.606ZM223.681 72.9932H236.134V22.2133H223.681V72.9932ZM269.049 74.0093C272.782 74.0093 276.449 73.1958 278.337 72.4844V61.2439C276.653 62.0574 273.846 63.0751 271.244 63.0751C267.978 63.0751 265.578 61.6522 265.578 56.7713V32.583H278.331V22.2133H265.578V0.762456L253.329 9.60726V22.2133H244.908V32.583H253.125V58.9628C253.125 68.2143 259.095 74.0093 269.049 74.0093ZM309.522 74.0093C319.631 74.0093 327.589 68.4184 330.956 58.9628L319.626 54.6942C318.3 59.4716 314.421 62.7766 309.419 62.7766C300.742 62.7766 297.476 55.4057 297.476 47.679C297.476 40.1009 300.845 32.3789 309.419 32.3789C314.523 32.3789 318.3 35.8354 319.626 40.7148L331.468 36.1401C327.589 26.0256 319.525 21.1384 309.419 21.1384C292.778 21.1384 284.819 34.3538 284.819 47.6713C284.819 61.1496 292.882 74.0093 309.522 74.0093ZM340.655 72.9978H353.312V47.2723C353.312 38.8342 357.088 32.3789 365.051 32.3789C372.553 32.3789 374.238 37.8181 374.238 44.0693V72.9978H386.894V42.4949C386.894 31.87 381.434 21.1524 368.062 21.1524C365.237 21.1441 362.445 21.7649 359.893 22.9692C357.341 24.1735 355.092 25.9307 353.312 28.1119V1.1692H340.655V72.9978Z" fill="#AAAAA9"/>
</g>
<defs>
<clipPath id="clip0_2603_1945">
<rect width="387" height="74" fill="white"/>
</clipPath>
</defs>
</svg>
