
<svg width="569" height="450" viewBox="0 0 569 450" fill="none" xmlns="http://www.w3.org/2000/svg">
<path d="M143.533 128.416L142.433 114.456H143.933L144.513 122.456L144.813 126.676H144.973L146.813 118.096H148.693L150.533 126.676H150.693L150.993 122.456L151.573 114.456H153.033L151.933 128.416H149.513L147.813 120.076H147.653L145.953 128.416H143.533ZM155.685 113.616H157.285V119.776H157.365C157.472 119.523 157.605 119.283 157.765 119.056C157.925 118.816 158.118 118.609 158.345 118.436C158.585 118.263 158.865 118.123 159.185 118.016C159.505 117.909 159.878 117.856 160.305 117.856C161.385 117.856 162.252 118.203 162.905 118.896C163.558 119.576 163.885 120.543 163.885 121.796V128.416H162.285V122.076C162.285 121.129 162.078 120.429 161.665 119.976C161.252 119.509 160.645 119.276 159.845 119.276C159.525 119.276 159.212 119.316 158.905 119.396C158.598 119.476 158.325 119.596 158.085 119.756C157.845 119.916 157.652 120.123 157.505 120.376C157.358 120.629 157.285 120.923 157.285 121.256V128.416H155.685V113.616ZM175.617 128.416C174.99 128.416 174.544 128.256 174.277 127.936C174.01 127.616 173.844 127.216 173.777 126.736H173.677C173.45 127.336 173.084 127.809 172.577 128.156C172.084 128.489 171.417 128.656 170.577 128.656C169.497 128.656 168.637 128.376 167.997 127.816C167.357 127.256 167.037 126.489 167.037 125.516C167.037 124.556 167.384 123.816 168.077 123.296C168.784 122.776 169.917 122.516 171.477 122.516H173.677V121.496C173.677 120.736 173.464 120.169 173.037 119.796C172.61 119.409 172.004 119.216 171.217 119.216C170.524 119.216 169.957 119.356 169.517 119.636C169.077 119.903 168.724 120.269 168.457 120.736L167.377 119.936C167.51 119.669 167.69 119.409 167.917 119.156C168.144 118.903 168.424 118.683 168.757 118.496C169.09 118.296 169.47 118.143 169.897 118.036C170.324 117.916 170.797 117.856 171.317 117.856C172.53 117.856 173.49 118.163 174.197 118.776C174.917 119.389 175.277 120.243 175.277 121.336V127.016H176.717V128.416H175.617ZM170.857 127.316C171.27 127.316 171.644 127.269 171.977 127.176C172.324 127.069 172.624 126.936 172.877 126.776C173.13 126.603 173.324 126.403 173.457 126.176C173.604 125.936 173.677 125.683 173.677 125.416V123.716H171.477C170.517 123.716 169.817 123.849 169.377 124.116C168.937 124.383 168.717 124.769 168.717 125.276V125.696C168.717 126.229 168.904 126.636 169.277 126.916C169.664 127.183 170.19 127.316 170.857 127.316ZM184.209 128.416C183.423 128.416 182.843 128.196 182.469 127.756C182.109 127.316 181.929 126.749 181.929 126.056V119.456H178.489V118.096H181.049C181.396 118.096 181.636 118.029 181.769 117.896C181.916 117.749 181.989 117.503 181.989 117.156V114.456H183.529V118.096H188.229V119.456H183.529V127.056H188.229V128.416H184.209ZM139.08 144.096H140.68L135.56 156.676C135.44 156.969 135.307 157.223 135.16 157.436C135.014 157.663 134.84 157.843 134.64 157.976C134.44 158.123 134.2 158.229 133.92 158.296C133.64 158.376 133.307 158.416 132.92 158.416H131.4V157.056H133.8L134.96 154.216L130.8 144.096H132.44L134.18 148.416L135.72 152.336H135.8L137.34 148.416L139.08 144.096ZM147.733 154.656C147.013 154.656 146.359 154.529 145.773 154.276C145.199 154.023 144.706 153.663 144.293 153.196C143.893 152.716 143.586 152.149 143.373 151.496C143.159 150.829 143.053 150.083 143.053 149.256C143.053 148.443 143.159 147.703 143.373 147.036C143.586 146.369 143.893 145.803 144.293 145.336C144.706 144.856 145.199 144.489 145.773 144.236C146.359 143.983 147.013 143.856 147.733 143.856C148.453 143.856 149.099 143.983 149.673 144.236C150.259 144.489 150.753 144.856 151.153 145.336C151.566 145.803 151.879 146.369 152.093 147.036C152.306 147.703 152.413 148.443 152.413 149.256C152.413 150.083 152.306 150.829 152.093 151.496C151.879 152.149 151.566 152.716 151.153 153.196C150.753 153.663 150.259 154.023 149.673 154.276C149.099 154.529 148.453 154.656 147.733 154.656ZM147.733 153.276C148.626 153.276 149.346 153.009 149.893 152.476C150.439 151.943 150.713 151.116 150.713 149.996V148.516C150.713 147.396 150.439 146.569 149.893 146.036C149.346 145.503 148.626 145.236 147.733 145.236C146.839 145.236 146.119 145.503 145.573 146.036C145.026 146.569 144.753 147.396 144.753 148.516V149.996C144.753 151.116 145.026 151.943 145.573 152.476C146.119 153.009 146.839 153.276 147.733 153.276ZM162.165 152.736H162.085C161.978 152.989 161.845 153.236 161.685 153.476C161.525 153.703 161.325 153.903 161.085 154.076C160.858 154.249 160.585 154.389 160.265 154.496C159.945 154.603 159.572 154.656 159.145 154.656C158.065 154.656 157.198 154.316 156.545 153.636C155.892 152.943 155.565 151.969 155.565 150.716V144.096H157.165V150.436C157.165 151.383 157.372 152.089 157.785 152.556C158.198 153.009 158.805 153.236 159.605 153.236C159.925 153.236 160.238 153.196 160.545 153.116C160.852 153.036 161.125 152.916 161.365 152.756C161.605 152.596 161.798 152.396 161.945 152.156C162.092 151.903 162.165 151.603 162.165 151.256V144.096H163.765V154.416H162.165V152.736ZM171.237 139.616H173.817L171.517 145.156H170.177L171.237 139.616ZM179.249 153.056H182.269V145.456H179.249V144.096H183.869V146.696H183.969C184.183 145.883 184.583 145.249 185.169 144.796C185.769 144.329 186.529 144.096 187.449 144.096H188.889V145.696H186.949C186.029 145.696 185.283 145.963 184.709 146.496C184.149 147.029 183.869 147.729 183.869 148.596V153.056H187.869V154.416H179.249V153.056ZM195.881 154.656C195.135 154.656 194.461 154.529 193.861 154.276C193.275 154.023 192.768 153.663 192.341 153.196C191.928 152.716 191.608 152.149 191.381 151.496C191.155 150.829 191.041 150.089 191.041 149.276C191.041 148.449 191.155 147.703 191.381 147.036C191.621 146.369 191.948 145.803 192.361 145.336C192.775 144.856 193.268 144.489 193.841 144.236C194.428 143.983 195.075 143.856 195.781 143.856C196.475 143.856 197.101 143.983 197.661 144.236C198.235 144.489 198.721 144.843 199.121 145.296C199.521 145.736 199.828 146.263 200.041 146.876C200.255 147.489 200.361 148.163 200.361 148.896V149.656H192.721V150.136C192.721 150.589 192.795 151.009 192.941 151.396C193.088 151.783 193.295 152.116 193.561 152.396C193.841 152.676 194.175 152.896 194.561 153.056C194.961 153.203 195.401 153.276 195.881 153.276C196.575 153.276 197.175 153.116 197.681 152.796C198.188 152.476 198.575 152.036 198.841 151.476L200.021 152.276C199.715 152.969 199.201 153.543 198.481 153.996C197.775 154.436 196.908 154.656 195.881 154.656ZM195.781 145.176C195.341 145.176 194.935 145.256 194.561 145.416C194.188 145.576 193.861 145.796 193.581 146.076C193.315 146.356 193.101 146.689 192.941 147.076C192.795 147.449 192.721 147.863 192.721 148.316V148.456H198.641V148.236C198.641 147.783 198.568 147.369 198.421 146.996C198.288 146.623 198.095 146.303 197.841 146.036C197.601 145.756 197.301 145.543 196.941 145.396C196.595 145.249 196.208 145.176 195.781 145.176ZM134.964 181.596C134.964 182.636 134.531 183.403 133.664 183.896C132.798 184.403 131.498 184.656 129.764 184.656C128.098 184.656 126.898 184.436 126.164 183.996C125.444 183.556 125.084 182.923 125.084 182.096C125.084 181.536 125.231 181.103 125.524 180.796C125.818 180.489 126.231 180.263 126.764 180.116V179.876C126.471 179.729 126.244 179.543 126.084 179.316C125.924 179.089 125.844 178.803 125.844 178.456C125.844 177.923 126.018 177.523 126.364 177.256C126.724 176.989 127.171 176.789 127.704 176.656V176.576C127.064 176.296 126.564 175.883 126.204 175.336C125.858 174.789 125.684 174.149 125.684 173.416C125.684 172.896 125.778 172.416 125.964 171.976C126.151 171.536 126.418 171.163 126.764 170.856C127.124 170.536 127.551 170.289 128.044 170.116C128.538 169.943 129.084 169.856 129.684 169.856C130.458 169.856 131.138 169.996 131.724 170.276V170.096C131.724 169.696 131.818 169.363 132.004 169.096C132.191 168.829 132.511 168.696 132.964 168.696H134.864V170.096H132.544V170.796C132.918 171.116 133.204 171.496 133.404 171.936C133.604 172.376 133.704 172.869 133.704 173.416C133.704 173.936 133.604 174.416 133.404 174.856C133.218 175.296 132.951 175.676 132.604 175.996C132.258 176.303 131.831 176.543 131.324 176.716C130.831 176.889 130.284 176.976 129.684 176.976C129.511 176.976 129.344 176.969 129.184 176.956C129.024 176.943 128.864 176.923 128.704 176.896C128.544 176.923 128.378 176.969 128.204 177.036C128.031 177.089 127.871 177.169 127.724 177.276C127.578 177.369 127.458 177.483 127.364 177.616C127.271 177.749 127.224 177.903 127.224 178.076C127.224 178.383 127.378 178.589 127.684 178.696C127.991 178.789 128.391 178.836 128.884 178.836H131.164C132.498 178.836 133.464 179.089 134.064 179.596C134.664 180.089 134.964 180.756 134.964 181.596ZM133.464 181.676C133.464 181.263 133.298 180.929 132.964 180.676C132.631 180.436 132.051 180.316 131.224 180.316H127.644C126.951 180.596 126.604 181.063 126.604 181.716C126.604 182.169 126.784 182.556 127.144 182.876C127.504 183.209 128.104 183.376 128.944 183.376H130.504C131.438 183.376 132.164 183.229 132.684 182.936C133.204 182.656 133.464 182.236 133.464 181.676ZM129.684 175.736C130.484 175.736 131.071 175.549 131.444 175.176C131.831 174.803 132.024 174.309 132.024 173.696V173.116C132.024 172.503 131.831 172.016 131.444 171.656C131.071 171.283 130.484 171.096 129.684 171.096C128.884 171.096 128.298 171.283 127.924 171.656C127.551 172.016 127.364 172.503 127.364 173.116V173.696C127.364 174.309 127.551 174.803 127.924 175.176C128.298 175.549 128.884 175.736 129.684 175.736ZM141.737 180.656C141.017 180.656 140.363 180.529 139.777 180.276C139.203 180.023 138.71 179.663 138.297 179.196C137.897 178.716 137.59 178.149 137.377 177.496C137.163 176.829 137.057 176.083 137.057 175.256C137.057 174.443 137.163 173.703 137.377 173.036C137.59 172.369 137.897 171.803 138.297 171.336C138.71 170.856 139.203 170.489 139.777 170.236C140.363 169.983 141.017 169.856 141.737 169.856C142.457 169.856 143.103 169.983 143.677 170.236C144.263 170.489 144.757 170.856 145.157 171.336C145.57 171.803 145.883 172.369 146.097 173.036C146.31 173.703 146.417 174.443 146.417 175.256C146.417 176.083 146.31 176.829 146.097 177.496C145.883 178.149 145.57 178.716 145.157 179.196C144.757 179.663 144.263 180.023 143.677 180.276C143.103 180.529 142.457 180.656 141.737 180.656ZM141.737 179.276C142.63 179.276 143.35 179.009 143.897 178.476C144.443 177.943 144.717 177.116 144.717 175.996V174.516C144.717 173.396 144.443 172.569 143.897 172.036C143.35 171.503 142.63 171.236 141.737 171.236C140.843 171.236 140.123 171.503 139.577 172.036C139.03 172.569 138.757 173.396 138.757 174.516V175.996C138.757 177.116 139.03 177.943 139.577 178.476C140.123 179.009 140.843 179.276 141.737 179.276ZM153.729 180.656C153.009 180.656 152.355 180.529 151.769 180.276C151.195 180.023 150.702 179.663 150.289 179.196C149.889 178.716 149.582 178.149 149.369 177.496C149.155 176.829 149.049 176.083 149.049 175.256C149.049 174.443 149.155 173.703 149.369 173.036C149.582 172.369 149.889 171.803 150.289 171.336C150.702 170.856 151.195 170.489 151.769 170.236C152.355 169.983 153.009 169.856 153.729 169.856C154.449 169.856 155.095 169.983 155.669 170.236C156.255 170.489 156.749 170.856 157.149 171.336C157.562 171.803 157.875 172.369 158.089 173.036C158.302 173.703 158.409 174.443 158.409 175.256C158.409 176.083 158.302 176.829 158.089 177.496C157.875 178.149 157.562 178.716 157.149 179.196C156.749 179.663 156.255 180.023 155.669 180.276C155.095 180.529 154.449 180.656 153.729 180.656ZM153.729 179.276C154.622 179.276 155.342 179.009 155.889 178.476C156.435 177.943 156.709 177.116 156.709 175.996V174.516C156.709 173.396 156.435 172.569 155.889 172.036C155.342 171.503 154.622 171.236 153.729 171.236C152.835 171.236 152.115 171.503 151.569 172.036C151.022 172.569 150.749 173.396 150.749 174.516V175.996C150.749 177.116 151.022 177.943 151.569 178.476C152.115 179.009 152.835 179.276 153.729 179.276ZM168.221 178.736H168.141C167.474 180.016 166.414 180.656 164.961 180.656C163.694 180.656 162.701 180.183 161.981 179.236C161.274 178.289 160.921 176.963 160.921 175.256C160.921 173.549 161.274 172.223 161.981 171.276C162.701 170.329 163.694 169.856 164.961 169.856C166.414 169.856 167.474 170.496 168.141 171.776H168.221V165.616H169.821V180.416H168.221V178.736ZM165.581 179.236C165.941 179.236 166.281 179.189 166.601 179.096C166.921 179.003 167.201 178.869 167.441 178.696C167.681 178.509 167.868 178.289 168.001 178.036C168.148 177.769 168.221 177.463 168.221 177.116V173.396C168.221 173.049 168.148 172.749 168.001 172.496C167.868 172.229 167.681 172.009 167.441 171.836C167.201 171.649 166.921 171.509 166.601 171.416C166.281 171.323 165.941 171.276 165.581 171.276C164.648 171.276 163.921 171.563 163.401 172.136C162.894 172.696 162.641 173.443 162.641 174.376V176.136C162.641 177.069 162.894 177.823 163.401 178.396C163.921 178.956 164.648 179.236 165.581 179.236ZM193.605 180.416C192.979 180.416 192.532 180.256 192.265 179.936C191.999 179.616 191.832 179.216 191.765 178.736H191.665C191.439 179.336 191.072 179.809 190.565 180.156C190.072 180.489 189.405 180.656 188.565 180.656C187.485 180.656 186.625 180.376 185.985 179.816C185.345 179.256 185.025 178.489 185.025 177.516C185.025 176.556 185.372 175.816 186.065 175.296C186.772 174.776 187.905 174.516 189.465 174.516H191.665V173.496C191.665 172.736 191.452 172.169 191.025 171.796C190.599 171.409 189.992 171.216 189.205 171.216C188.512 171.216 187.945 171.356 187.505 171.636C187.065 171.903 186.712 172.269 186.445 172.736L185.365 171.936C185.499 171.669 185.679 171.409 185.905 171.156C186.132 170.903 186.412 170.683 186.745 170.496C187.079 170.296 187.459 170.143 187.885 170.036C188.312 169.916 188.785 169.856 189.305 169.856C190.519 169.856 191.479 170.163 192.185 170.776C192.905 171.389 193.265 172.243 193.265 173.336V179.016H194.705V180.416H193.605ZM188.845 179.316C189.259 179.316 189.632 179.269 189.965 179.176C190.312 179.069 190.612 178.936 190.865 178.776C191.119 178.603 191.312 178.403 191.445 178.176C191.592 177.936 191.665 177.683 191.665 177.416V175.716H189.465C188.505 175.716 187.805 175.849 187.365 176.116C186.925 176.383 186.705 176.769 186.705 177.276V177.696C186.705 178.229 186.892 178.636 187.265 178.916C187.652 179.183 188.179 179.316 188.845 179.316ZM202.197 180.416C201.411 180.416 200.831 180.196 200.457 179.756C200.097 179.316 199.917 178.749 199.917 178.056V171.456H196.477V170.096H199.037C199.384 170.096 199.624 170.029 199.757 169.896C199.904 169.749 199.977 169.503 199.977 169.156V166.456H201.517V170.096H206.217V171.456H201.517V179.056H206.217V180.416H202.197Z" fill="black"/>
<path d="M357.114 128.416L356.014 114.456H357.514L358.094 122.456L358.394 126.676H358.554L360.394 118.096H362.274L364.114 126.676H364.274L364.574 122.456L365.154 114.456H366.614L365.514 128.416H363.094L361.394 120.076H361.234L359.534 128.416H357.114ZM369.266 113.616H370.866V119.776H370.946C371.053 119.523 371.186 119.283 371.346 119.056C371.506 118.816 371.7 118.609 371.926 118.436C372.166 118.263 372.446 118.123 372.766 118.016C373.086 117.909 373.46 117.856 373.886 117.856C374.966 117.856 375.833 118.203 376.486 118.896C377.14 119.576 377.466 120.543 377.466 121.796V128.416H375.866V122.076C375.866 121.129 375.66 120.429 375.246 119.976C374.833 119.509 374.226 119.276 373.426 119.276C373.106 119.276 372.793 119.316 372.486 119.396C372.18 119.476 371.906 119.596 371.666 119.756C371.426 119.916 371.233 120.123 371.086 120.376C370.94 120.629 370.866 120.923 370.866 121.256V128.416H369.266V113.616ZM389.199 128.416C388.572 128.416 388.125 128.256 387.859 127.936C387.592 127.616 387.425 127.216 387.359 126.736H387.259C387.032 127.336 386.665 127.809 386.159 128.156C385.665 128.489 384.999 128.656 384.159 128.656C383.079 128.656 382.219 128.376 381.579 127.816C380.939 127.256 380.619 126.489 380.619 125.516C380.619 124.556 380.965 123.816 381.659 123.296C382.365 122.776 383.499 122.516 385.059 122.516H387.259V121.496C387.259 120.736 387.045 120.169 386.619 119.796C386.192 119.409 385.585 119.216 384.799 119.216C384.105 119.216 383.539 119.356 383.099 119.636C382.659 119.903 382.305 120.269 382.039 120.736L380.959 119.936C381.092 119.669 381.272 119.409 381.499 119.156C381.725 118.903 382.005 118.683 382.339 118.496C382.672 118.296 383.052 118.143 383.479 118.036C383.905 117.916 384.379 117.856 384.899 117.856C386.112 117.856 387.072 118.163 387.779 118.776C388.499 119.389 388.859 120.243 388.859 121.336V127.016H390.299V128.416H389.199ZM384.439 127.316C384.852 127.316 385.225 127.269 385.559 127.176C385.905 127.069 386.205 126.936 386.459 126.776C386.712 126.603 386.905 126.403 387.039 126.176C387.185 125.936 387.259 125.683 387.259 125.416V123.716H385.059C384.099 123.716 383.399 123.849 382.959 124.116C382.519 124.383 382.299 124.769 382.299 125.276V125.696C382.299 126.229 382.485 126.636 382.859 126.916C383.245 127.183 383.772 127.316 384.439 127.316ZM397.791 128.416C397.004 128.416 396.424 128.196 396.051 127.756C395.691 127.316 395.511 126.749 395.511 126.056V119.456H392.071V118.096H394.631C394.977 118.096 395.217 118.029 395.351 117.896C395.497 117.749 395.571 117.503 395.571 117.156V114.456H397.111V118.096H401.811V119.456H397.111V127.056H401.811V128.416H397.791ZM421.775 128.416C420.989 128.416 420.409 128.196 420.035 127.756C419.675 127.316 419.495 126.749 419.495 126.056V119.456H416.055V118.096H418.615C418.962 118.096 419.202 118.029 419.335 117.896C419.482 117.749 419.555 117.503 419.555 117.156V114.456H421.095V118.096H425.795V119.456H421.095V127.056H425.795V128.416H421.775ZM429.227 113.616H430.827V119.776H430.907C431.014 119.523 431.147 119.283 431.307 119.056C431.467 118.816 431.661 118.609 431.887 118.436C432.127 118.263 432.407 118.123 432.727 118.016C433.047 117.909 433.421 117.856 433.847 117.856C434.927 117.856 435.794 118.203 436.447 118.896C437.101 119.576 437.427 120.543 437.427 121.796V128.416H435.827V122.076C435.827 121.129 435.621 120.429 435.207 119.976C434.794 119.509 434.187 119.276 433.387 119.276C433.067 119.276 432.754 119.316 432.447 119.396C432.141 119.476 431.867 119.596 431.627 119.756C431.387 119.916 431.194 120.123 431.047 120.376C430.901 120.629 430.827 120.923 430.827 121.256V128.416H429.227V113.616ZM445.44 128.656C444.693 128.656 444.02 128.529 443.42 128.276C442.833 128.023 442.326 127.663 441.9 127.196C441.486 126.716 441.166 126.149 440.94 125.496C440.713 124.829 440.6 124.089 440.6 123.276C440.6 122.449 440.713 121.703 440.94 121.036C441.18 120.369 441.506 119.803 441.92 119.336C442.333 118.856 442.826 118.489 443.4 118.236C443.986 117.983 444.633 117.856 445.34 117.856C446.033 117.856 446.66 117.983 447.22 118.236C447.793 118.489 448.28 118.843 448.68 119.296C449.08 119.736 449.386 120.263 449.6 120.876C449.813 121.489 449.92 122.163 449.92 122.896V123.656H442.28V124.136C442.28 124.589 442.353 125.009 442.5 125.396C442.646 125.783 442.853 126.116 443.12 126.396C443.4 126.676 443.733 126.896 444.12 127.056C444.52 127.203 444.96 127.276 445.44 127.276C446.133 127.276 446.733 127.116 447.24 126.796C447.746 126.476 448.133 126.036 448.4 125.476L449.58 126.276C449.273 126.969 448.76 127.543 448.04 127.996C447.333 128.436 446.466 128.656 445.44 128.656ZM445.34 119.176C444.9 119.176 444.493 119.256 444.12 119.416C443.746 119.576 443.42 119.796 443.14 120.076C442.873 120.356 442.66 120.689 442.5 121.076C442.353 121.449 442.28 121.863 442.28 122.316V122.456H448.2V122.236C448.2 121.783 448.126 121.369 447.98 120.996C447.846 120.623 447.653 120.303 447.4 120.036C447.16 119.756 446.86 119.543 446.5 119.396C446.153 119.249 445.766 119.176 445.34 119.176ZM368.386 154.416V144.096H369.866V145.296H369.946C370.106 144.896 370.333 144.556 370.626 144.276C370.92 143.996 371.353 143.856 371.926 143.856C372.526 143.856 372.973 144.009 373.266 144.316C373.56 144.609 373.74 144.996 373.806 145.476H373.866C374.053 145.009 374.32 144.623 374.666 144.316C375.013 144.009 375.493 143.856 376.106 143.856C376.946 143.856 377.506 144.149 377.786 144.736C378.08 145.323 378.226 146.163 378.226 147.256V154.416H376.746V147.516C376.746 146.636 376.653 146.029 376.466 145.696C376.293 145.349 375.966 145.176 375.486 145.176C375.06 145.176 374.713 145.316 374.446 145.596C374.18 145.863 374.046 146.276 374.046 146.836V154.416H372.566V147.516C372.566 146.636 372.473 146.029 372.286 145.696C372.113 145.349 371.793 145.176 371.326 145.176C370.9 145.176 370.546 145.316 370.266 145.596C370 145.863 369.866 146.276 369.866 146.836V154.416H368.386ZM389.199 154.416C388.572 154.416 388.125 154.256 387.859 153.936C387.592 153.616 387.425 153.216 387.359 152.736H387.259C387.032 153.336 386.665 153.809 386.159 154.156C385.665 154.489 384.999 154.656 384.159 154.656C383.079 154.656 382.219 154.376 381.579 153.816C380.939 153.256 380.619 152.489 380.619 151.516C380.619 150.556 380.965 149.816 381.659 149.296C382.365 148.776 383.499 148.516 385.059 148.516H387.259V147.496C387.259 146.736 387.045 146.169 386.619 145.796C386.192 145.409 385.585 145.216 384.799 145.216C384.105 145.216 383.539 145.356 383.099 145.636C382.659 145.903 382.305 146.269 382.039 146.736L380.959 145.936C381.092 145.669 381.272 145.409 381.499 145.156C381.725 144.903 382.005 144.683 382.339 144.496C382.672 144.296 383.052 144.143 383.479 144.036C383.905 143.916 384.379 143.856 384.899 143.856C386.112 143.856 387.072 144.163 387.779 144.776C388.499 145.389 388.859 146.243 388.859 147.336V153.016H390.299V154.416H389.199ZM384.439 153.316C384.852 153.316 385.225 153.269 385.559 153.176C385.905 153.069 386.205 152.936 386.459 152.776C386.712 152.603 386.905 152.403 387.039 152.176C387.185 151.936 387.259 151.683 387.259 151.416V149.716H385.059C384.099 149.716 383.399 149.849 382.959 150.116C382.519 150.383 382.299 150.769 382.299 151.276V151.696C382.299 152.229 382.485 152.636 382.859 152.916C383.245 153.183 383.772 153.316 384.439 153.316ZM392.831 153.056H395.851V145.456H392.831V144.096H397.451V146.696H397.551C397.764 145.883 398.164 145.249 398.751 144.796C399.351 144.329 400.111 144.096 401.031 144.096H402.471V145.696H400.531C399.611 145.696 398.864 145.963 398.291 146.496C397.731 147.029 397.451 147.729 397.451 148.596V153.056H401.451V154.416H392.831V153.056ZM405.383 139.616H406.983V148.956H407.063L408.863 147.256L412.303 144.096H414.263L409.983 148.136L414.763 154.416H412.783L408.763 149.056L406.983 150.676V154.416H405.383V139.616ZM421.455 154.656C420.709 154.656 420.035 154.529 419.435 154.276C418.849 154.023 418.342 153.663 417.915 153.196C417.502 152.716 417.182 152.149 416.955 151.496C416.729 150.829 416.615 150.089 416.615 149.276C416.615 148.449 416.729 147.703 416.955 147.036C417.195 146.369 417.522 145.803 417.935 145.336C418.349 144.856 418.842 144.489 419.415 144.236C420.002 143.983 420.649 143.856 421.355 143.856C422.049 143.856 422.675 143.983 423.235 144.236C423.809 144.489 424.295 144.843 424.695 145.296C425.095 145.736 425.402 146.263 425.615 146.876C425.829 147.489 425.935 148.163 425.935 148.896V149.656H418.295V150.136C418.295 150.589 418.369 151.009 418.515 151.396C418.662 151.783 418.869 152.116 419.135 152.396C419.415 152.676 419.749 152.896 420.135 153.056C420.535 153.203 420.975 153.276 421.455 153.276C422.149 153.276 422.749 153.116 423.255 152.796C423.762 152.476 424.149 152.036 424.415 151.476L425.595 152.276C425.289 152.969 424.775 153.543 424.055 153.996C423.349 154.436 422.482 154.656 421.455 154.656ZM421.355 145.176C420.915 145.176 420.509 145.256 420.135 145.416C419.762 145.576 419.435 145.796 419.155 146.076C418.889 146.356 418.675 146.689 418.515 147.076C418.369 147.449 418.295 147.863 418.295 148.316V148.456H424.215V148.236C424.215 147.783 424.142 147.369 423.995 146.996C423.862 146.623 423.669 146.303 423.415 146.036C423.175 145.756 422.875 145.543 422.515 145.396C422.169 145.249 421.782 145.176 421.355 145.176ZM433.767 154.416C432.981 154.416 432.401 154.196 432.027 153.756C431.667 153.316 431.487 152.749 431.487 152.056V145.456H428.047V144.096H430.607C430.954 144.096 431.194 144.029 431.327 143.896C431.474 143.749 431.547 143.503 431.547 143.156V140.456H433.087V144.096H437.787V145.456H433.087V153.056H437.787V154.416H433.767ZM373.903 170.096H375.323L376.503 179.016H376.683L378.443 170.096H380.203L381.963 179.016H382.143L383.323 170.096H384.703L383.123 180.416H381.043L379.403 171.776H379.243L377.563 180.416H375.483L373.903 170.096ZM395.195 180.416C394.568 180.416 394.121 180.256 393.855 179.936C393.588 179.616 393.421 179.216 393.355 178.736H393.255C393.028 179.336 392.661 179.809 392.155 180.156C391.661 180.489 390.995 180.656 390.155 180.656C389.075 180.656 388.215 180.376 387.575 179.816C386.935 179.256 386.615 178.489 386.615 177.516C386.615 176.556 386.961 175.816 387.655 175.296C388.361 174.776 389.495 174.516 391.055 174.516H393.255V173.496C393.255 172.736 393.041 172.169 392.615 171.796C392.188 171.409 391.581 171.216 390.795 171.216C390.101 171.216 389.535 171.356 389.095 171.636C388.655 171.903 388.301 172.269 388.035 172.736L386.955 171.936C387.088 171.669 387.268 171.409 387.495 171.156C387.721 170.903 388.001 170.683 388.335 170.496C388.668 170.296 389.048 170.143 389.475 170.036C389.901 169.916 390.375 169.856 390.895 169.856C392.108 169.856 393.068 170.163 393.775 170.776C394.495 171.389 394.855 172.243 394.855 173.336V179.016H396.295V180.416H395.195ZM390.435 179.316C390.848 179.316 391.221 179.269 391.555 179.176C391.901 179.069 392.201 178.936 392.455 178.776C392.708 178.603 392.901 178.403 393.035 178.176C393.181 177.936 393.255 177.683 393.255 177.416V175.716H391.055C390.095 175.716 389.395 175.849 388.955 176.116C388.515 176.383 388.295 176.769 388.295 177.276V177.696C388.295 178.229 388.481 178.636 388.855 178.916C389.241 179.183 389.768 179.316 390.435 179.316ZM399.247 180.416V170.096H400.847V171.776H400.927C401.034 171.523 401.167 171.283 401.327 171.056C401.487 170.816 401.68 170.609 401.907 170.436C402.147 170.263 402.427 170.123 402.747 170.016C403.067 169.909 403.44 169.856 403.867 169.856C404.947 169.856 405.814 170.203 406.467 170.896C407.12 171.576 407.447 172.543 407.447 173.796V180.416H405.847V174.076C405.847 173.129 405.64 172.429 405.227 171.976C404.814 171.509 404.207 171.276 403.407 171.276C403.087 171.276 402.774 171.316 402.467 171.396C402.16 171.476 401.887 171.596 401.647 171.756C401.407 171.916 401.214 172.123 401.067 172.376C400.92 172.629 400.847 172.923 400.847 173.256V180.416H399.247ZM415.779 180.416C414.992 180.416 414.412 180.196 414.039 179.756C413.679 179.316 413.499 178.749 413.499 178.056V171.456H410.059V170.096H412.619C412.966 170.096 413.206 170.029 413.339 169.896C413.486 169.749 413.559 169.503 413.559 169.156V166.456H415.099V170.096H419.799V171.456H415.099V179.056H419.799V180.416H415.779ZM427.391 180.656C426.311 180.656 425.378 180.476 424.591 180.116C423.818 179.743 423.158 179.249 422.611 178.636L423.691 177.696C424.185 178.216 424.725 178.616 425.311 178.896C425.898 179.176 426.605 179.316 427.431 179.316C428.231 179.316 428.885 179.176 429.391 178.896C429.911 178.603 430.171 178.149 430.171 177.536C430.171 177.269 430.118 177.049 430.011 176.876C429.918 176.689 429.785 176.543 429.611 176.436C429.438 176.329 429.245 176.249 429.031 176.196C428.818 176.129 428.591 176.076 428.351 176.036L426.731 175.796C426.371 175.743 425.978 175.669 425.551 175.576C425.138 175.483 424.758 175.336 424.411 175.136C424.065 174.923 423.771 174.643 423.531 174.296C423.305 173.949 423.191 173.496 423.191 172.936C423.191 172.416 423.291 171.969 423.491 171.596C423.705 171.209 423.998 170.889 424.371 170.636C424.745 170.369 425.185 170.176 425.691 170.056C426.198 169.923 426.751 169.856 427.351 169.856C428.285 169.856 429.091 170.003 429.771 170.296C430.465 170.589 431.058 170.996 431.551 171.516L430.511 172.496C430.391 172.349 430.238 172.203 430.051 172.056C429.878 171.896 429.658 171.756 429.391 171.636C429.138 171.503 428.838 171.396 428.491 171.316C428.145 171.236 427.745 171.196 427.291 171.196C426.478 171.196 425.851 171.336 425.411 171.616C424.985 171.896 424.771 172.303 424.771 172.836C424.771 173.103 424.818 173.329 424.911 173.516C425.018 173.689 425.158 173.829 425.331 173.936C425.505 174.043 425.698 174.129 425.911 174.196C426.138 174.249 426.365 174.296 426.591 174.336L428.211 174.576C428.585 174.629 428.978 174.703 429.391 174.796C429.805 174.889 430.185 175.043 430.531 175.256C430.878 175.456 431.165 175.729 431.391 176.076C431.631 176.423 431.751 176.876 431.751 177.436C431.751 178.463 431.351 179.256 430.551 179.816C429.765 180.376 428.711 180.656 427.391 180.656Z" fill="black"/>
<path d="M282.128 294.215L280.948 290.235H276.048L274.868 294.215H273.128L277.408 280.255H279.628L283.908 294.215H282.128ZM278.588 282.035H278.408L276.448 288.775H280.548L278.588 282.035ZM286.46 294.215V283.895H288.06V285.575H288.14C288.247 285.322 288.38 285.082 288.54 284.855C288.7 284.615 288.893 284.409 289.12 284.235C289.36 284.062 289.64 283.922 289.96 283.815C290.28 283.709 290.653 283.655 291.08 283.655C292.16 283.655 293.027 284.002 293.68 284.695C294.333 285.375 294.66 286.342 294.66 287.595V294.215H293.06V287.875C293.06 286.929 292.853 286.229 292.44 285.775C292.027 285.309 291.42 285.075 290.62 285.075C290.3 285.075 289.987 285.115 289.68 285.195C289.373 285.275 289.1 285.395 288.86 285.555C288.62 285.715 288.427 285.922 288.28 286.175C288.133 286.429 288.06 286.722 288.06 287.055V294.215H286.46ZM243.171 307.615C242.705 307.615 242.378 307.522 242.191 307.335C242.005 307.135 241.911 306.889 241.911 306.595V306.275C241.911 305.982 242.005 305.742 242.191 305.555C242.378 305.355 242.705 305.255 243.171 305.255C243.638 305.255 243.965 305.355 244.151 305.555C244.338 305.742 244.431 305.982 244.431 306.275V306.595C244.431 306.889 244.338 307.135 244.151 307.335C243.965 307.522 243.638 307.615 243.171 307.615ZM238.651 318.855H242.371V311.255H238.651V309.895H243.971V318.855H247.451V320.215H238.651V318.855ZM257.023 318.535H256.943C256.277 319.815 255.217 320.455 253.763 320.455C252.497 320.455 251.503 319.982 250.783 319.035C250.077 318.089 249.723 316.762 249.723 315.055C249.723 313.349 250.077 312.022 250.783 311.075C251.503 310.129 252.497 309.655 253.763 309.655C255.217 309.655 256.277 310.295 256.943 311.575H257.023V305.415H258.623V320.215H257.023V318.535ZM254.383 319.035C254.743 319.035 255.083 318.989 255.403 318.895C255.723 318.802 256.003 318.669 256.243 318.495C256.483 318.309 256.67 318.089 256.803 317.835C256.95 317.569 257.023 317.262 257.023 316.915V313.195C257.023 312.849 256.95 312.549 256.803 312.295C256.67 312.029 256.483 311.809 256.243 311.635C256.003 311.449 255.723 311.309 255.403 311.215C255.083 311.122 254.743 311.075 254.383 311.075C253.45 311.075 252.723 311.362 252.203 311.935C251.697 312.495 251.443 313.242 251.443 314.175V315.935C251.443 316.869 251.697 317.622 252.203 318.195C252.723 318.755 253.45 319.035 254.383 319.035ZM266.696 320.455C265.949 320.455 265.276 320.329 264.676 320.075C264.089 319.822 263.582 319.462 263.156 318.995C262.742 318.515 262.422 317.949 262.196 317.295C261.969 316.629 261.856 315.889 261.856 315.075C261.856 314.249 261.969 313.502 262.196 312.835C262.436 312.169 262.762 311.602 263.176 311.135C263.589 310.655 264.082 310.289 264.656 310.035C265.242 309.782 265.889 309.655 266.596 309.655C267.289 309.655 267.916 309.782 268.476 310.035C269.049 310.289 269.536 310.642 269.936 311.095C270.336 311.535 270.642 312.062 270.856 312.675C271.069 313.289 271.176 313.962 271.176 314.695V315.455H263.536V315.935C263.536 316.389 263.609 316.809 263.756 317.195C263.902 317.582 264.109 317.915 264.376 318.195C264.656 318.475 264.989 318.695 265.376 318.855C265.776 319.002 266.216 319.075 266.696 319.075C267.389 319.075 267.989 318.915 268.496 318.595C269.002 318.275 269.389 317.835 269.656 317.275L270.836 318.075C270.529 318.769 270.016 319.342 269.296 319.795C268.589 320.235 267.722 320.455 266.696 320.455ZM266.596 310.975C266.156 310.975 265.749 311.055 265.376 311.215C265.002 311.375 264.676 311.595 264.396 311.875C264.129 312.155 263.916 312.489 263.756 312.875C263.609 313.249 263.536 313.662 263.536 314.115V314.255H269.456V314.035C269.456 313.582 269.382 313.169 269.236 312.795C269.102 312.422 268.909 312.102 268.656 311.835C268.416 311.555 268.116 311.342 267.756 311.195C267.409 311.049 267.022 310.975 266.596 310.975ZM274.468 320.215V309.895H276.068V311.575H276.148C276.254 311.322 276.388 311.082 276.548 310.855C276.708 310.615 276.901 310.409 277.128 310.235C277.368 310.062 277.648 309.922 277.968 309.815C278.288 309.709 278.661 309.655 279.088 309.655C280.168 309.655 281.034 310.002 281.688 310.695C282.341 311.375 282.668 312.342 282.668 313.595V320.215H281.068V313.875C281.068 312.929 280.861 312.229 280.448 311.775C280.034 311.309 279.428 311.075 278.628 311.075C278.308 311.075 277.994 311.115 277.688 311.195C277.381 311.275 277.108 311.395 276.868 311.555C276.628 311.715 276.434 311.922 276.288 312.175C276.141 312.429 276.068 312.722 276.068 313.055V320.215H274.468ZM291 320.215C290.213 320.215 289.633 319.995 289.26 319.555C288.9 319.115 288.72 318.549 288.72 317.855V311.255H285.28V309.895H287.84C288.187 309.895 288.427 309.829 288.56 309.695C288.707 309.549 288.78 309.302 288.78 308.955V306.255H290.32V309.895H295.02V311.255H290.32V318.855H295.02V320.215H291ZM303.132 307.615C302.666 307.615 302.339 307.522 302.152 307.335C301.966 307.135 301.872 306.889 301.872 306.595V306.275C301.872 305.982 301.966 305.742 302.152 305.555C302.339 305.355 302.666 305.255 303.132 305.255C303.599 305.255 303.926 305.355 304.112 305.555C304.299 305.742 304.392 305.982 304.392 306.275V306.595C304.392 306.889 304.299 307.135 304.112 307.335C303.926 307.522 303.599 307.615 303.132 307.615ZM298.612 318.855H302.332V311.255H298.612V309.895H303.932V318.855H307.412V320.215H298.612V318.855ZM314.984 320.215C314.198 320.215 313.618 319.995 313.244 319.555C312.884 319.115 312.704 318.549 312.704 317.855V311.255H309.264V309.895H311.824C312.171 309.895 312.411 309.829 312.544 309.695C312.691 309.549 312.764 309.302 312.764 308.955V306.255H314.304V309.895H319.004V311.255H314.304V318.855H319.004V320.215H314.984ZM329.817 309.895H331.417L326.297 322.475C326.177 322.769 326.043 323.022 325.897 323.235C325.75 323.462 325.577 323.642 325.377 323.775C325.177 323.922 324.937 324.029 324.657 324.095C324.377 324.175 324.043 324.215 323.657 324.215H322.137V322.855H324.537L325.697 320.015L321.537 309.895H323.177L324.917 314.215L326.457 318.135H326.537L328.077 314.215L329.817 309.895ZM231.039 346.215C230.252 346.215 229.672 345.995 229.299 345.555C228.939 345.115 228.759 344.549 228.759 343.855V337.255H225.319V335.895H227.879C228.226 335.895 228.466 335.829 228.599 335.695C228.746 335.549 228.819 335.302 228.819 334.955V332.255H230.359V335.895H235.059V337.255H230.359V344.855H235.059V346.215H231.039ZM238.491 331.415H240.091V337.575H240.171C240.278 337.322 240.411 337.082 240.571 336.855C240.731 336.615 240.925 336.409 241.151 336.235C241.391 336.062 241.671 335.922 241.991 335.815C242.311 335.709 242.685 335.655 243.111 335.655C244.191 335.655 245.058 336.002 245.711 336.695C246.365 337.375 246.691 338.342 246.691 339.595V346.215H245.091V339.875C245.091 338.929 244.885 338.229 244.471 337.775C244.058 337.309 243.451 337.075 242.651 337.075C242.331 337.075 242.018 337.115 241.711 337.195C241.405 337.275 241.131 337.395 240.891 337.555C240.651 337.715 240.458 337.922 240.311 338.175C240.165 338.429 240.091 338.722 240.091 339.055V346.215H238.491V331.415ZM258.423 346.215C257.797 346.215 257.35 346.055 257.083 345.735C256.817 345.415 256.65 345.015 256.583 344.535H256.483C256.257 345.135 255.89 345.609 255.383 345.955C254.89 346.289 254.223 346.455 253.383 346.455C252.303 346.455 251.443 346.175 250.803 345.615C250.163 345.055 249.843 344.289 249.843 343.315C249.843 342.355 250.19 341.615 250.883 341.095C251.59 340.575 252.723 340.315 254.283 340.315H256.483V339.295C256.483 338.535 256.27 337.969 255.843 337.595C255.417 337.209 254.81 337.015 254.023 337.015C253.33 337.015 252.763 337.155 252.323 337.435C251.883 337.702 251.53 338.069 251.263 338.535L250.183 337.735C250.317 337.469 250.497 337.209 250.723 336.955C250.95 336.702 251.23 336.482 251.563 336.295C251.897 336.095 252.277 335.942 252.703 335.835C253.13 335.715 253.603 335.655 254.123 335.655C255.337 335.655 256.297 335.962 257.003 336.575C257.723 337.189 258.083 338.042 258.083 339.135V344.815H259.523V346.215H258.423ZM253.663 345.115C254.077 345.115 254.45 345.069 254.783 344.975C255.13 344.869 255.43 344.735 255.683 344.575C255.937 344.402 256.13 344.202 256.263 343.975C256.41 343.735 256.483 343.482 256.483 343.215V341.515H254.283C253.323 341.515 252.623 341.649 252.183 341.915C251.743 342.182 251.523 342.569 251.523 343.075V343.495C251.523 344.029 251.71 344.435 252.083 344.715C252.47 344.982 252.997 345.115 253.663 345.115ZM267.016 346.215C266.229 346.215 265.649 345.995 265.276 345.555C264.916 345.115 264.736 344.549 264.736 343.855V337.255H261.296V335.895H263.856C264.202 335.895 264.442 335.829 264.576 335.695C264.722 335.549 264.796 335.302 264.796 334.955V332.255H266.336V335.895H271.036V337.255H266.336V344.855H271.036V346.215H267.016ZM295.72 347.395C295.72 348.435 295.287 349.202 294.42 349.695C293.553 350.202 292.253 350.455 290.52 350.455C288.853 350.455 287.653 350.235 286.92 349.795C286.2 349.355 285.84 348.722 285.84 347.895C285.84 347.335 285.987 346.902 286.28 346.595C286.573 346.289 286.987 346.062 287.52 345.915V345.675C287.227 345.529 287 345.342 286.84 345.115C286.68 344.889 286.6 344.602 286.6 344.255C286.6 343.722 286.773 343.322 287.12 343.055C287.48 342.789 287.927 342.589 288.46 342.455V342.375C287.82 342.095 287.32 341.682 286.96 341.135C286.613 340.589 286.44 339.949 286.44 339.215C286.44 338.695 286.533 338.215 286.72 337.775C286.907 337.335 287.173 336.962 287.52 336.655C287.88 336.335 288.307 336.089 288.8 335.915C289.293 335.742 289.84 335.655 290.44 335.655C291.213 335.655 291.893 335.795 292.48 336.075V335.895C292.48 335.495 292.573 335.162 292.76 334.895C292.947 334.629 293.267 334.495 293.72 334.495H295.62V335.895H293.3V336.595C293.673 336.915 293.96 337.295 294.16 337.735C294.36 338.175 294.46 338.669 294.46 339.215C294.46 339.735 294.36 340.215 294.16 340.655C293.973 341.095 293.707 341.475 293.36 341.795C293.013 342.102 292.587 342.342 292.08 342.515C291.587 342.689 291.04 342.775 290.44 342.775C290.267 342.775 290.1 342.769 289.94 342.755C289.78 342.742 289.62 342.722 289.46 342.695C289.3 342.722 289.133 342.769 288.96 342.835C288.787 342.889 288.627 342.969 288.48 343.075C288.333 343.169 288.213 343.282 288.12 343.415C288.027 343.549 287.98 343.702 287.98 343.875C287.98 344.182 288.133 344.389 288.44 344.495C288.747 344.589 289.147 344.635 289.64 344.635H291.92C293.253 344.635 294.22 344.889 294.82 345.395C295.42 345.889 295.72 346.555 295.72 347.395ZM294.22 347.475C294.22 347.062 294.053 346.729 293.72 346.475C293.387 346.235 292.807 346.115 291.98 346.115H288.4C287.707 346.395 287.36 346.862 287.36 347.515C287.36 347.969 287.54 348.355 287.9 348.675C288.26 349.009 288.86 349.175 289.7 349.175H291.26C292.193 349.175 292.92 349.029 293.44 348.735C293.96 348.455 294.22 348.035 294.22 347.475ZM290.44 341.535C291.24 341.535 291.827 341.349 292.2 340.975C292.587 340.602 292.78 340.109 292.78 339.495V338.915C292.78 338.302 292.587 337.815 292.2 337.455C291.827 337.082 291.24 336.895 290.44 336.895C289.64 336.895 289.053 337.082 288.68 337.455C288.307 337.815 288.12 338.302 288.12 338.915V339.495C288.12 340.109 288.307 340.602 288.68 340.975C289.053 341.349 289.64 341.535 290.44 341.535ZM303.132 333.615C302.666 333.615 302.339 333.522 302.152 333.335C301.966 333.135 301.872 332.889 301.872 332.595V332.275C301.872 331.982 301.966 331.742 302.152 331.555C302.339 331.355 302.666 331.255 303.132 331.255C303.599 331.255 303.926 331.355 304.112 331.555C304.299 331.742 304.392 331.982 304.392 332.275V332.595C304.392 332.889 304.299 333.135 304.112 333.335C303.926 333.522 303.599 333.615 303.132 333.615ZM298.612 344.855H302.332V337.255H298.612V335.895H303.932V344.855H307.412V346.215H298.612V344.855ZM313.464 346.215L309.764 335.895H311.384L312.864 340.215L314.464 344.875H314.544L316.144 340.215L317.624 335.895H319.204L315.504 346.215H313.464ZM326.657 346.455C325.91 346.455 325.237 346.329 324.637 346.075C324.05 345.822 323.543 345.462 323.117 344.995C322.703 344.515 322.383 343.949 322.157 343.295C321.93 342.629 321.817 341.889 321.817 341.075C321.817 340.249 321.93 339.502 322.157 338.835C322.397 338.169 322.723 337.602 323.137 337.135C323.55 336.655 324.043 336.289 324.617 336.035C325.203 335.782 325.85 335.655 326.557 335.655C327.25 335.655 327.877 335.782 328.437 336.035C329.01 336.289 329.497 336.642 329.897 337.095C330.297 337.535 330.603 338.062 330.817 338.675C331.03 339.289 331.137 339.962 331.137 340.695V341.455H323.497V341.935C323.497 342.389 323.57 342.809 323.717 343.195C323.863 343.582 324.07 343.915 324.337 344.195C324.617 344.475 324.95 344.695 325.337 344.855C325.737 345.002 326.177 345.075 326.657 345.075C327.35 345.075 327.95 344.915 328.457 344.595C328.963 344.275 329.35 343.835 329.617 343.275L330.797 344.075C330.49 344.769 329.977 345.342 329.257 345.795C328.55 346.235 327.683 346.455 326.657 346.455ZM326.557 336.975C326.117 336.975 325.71 337.055 325.337 337.215C324.963 337.375 324.637 337.595 324.357 337.875C324.09 338.155 323.877 338.489 323.717 338.875C323.57 339.249 323.497 339.662 323.497 340.115V340.255H329.417V340.035C329.417 339.582 329.343 339.169 329.197 338.795C329.063 338.422 328.87 338.102 328.617 337.835C328.377 337.555 328.077 337.342 327.717 337.195C327.37 337.049 326.983 336.975 326.557 336.975ZM338.589 346.455C337.509 346.455 336.575 346.275 335.789 345.915C335.015 345.542 334.355 345.049 333.809 344.435L334.889 343.495C335.382 344.015 335.922 344.415 336.509 344.695C337.095 344.975 337.802 345.115 338.629 345.115C339.429 345.115 340.082 344.975 340.589 344.695C341.109 344.402 341.369 343.949 341.369 343.335C341.369 343.069 341.315 342.849 341.209 342.675C341.115 342.489 340.982 342.342 340.809 342.235C340.635 342.129 340.442 342.049 340.229 341.995C340.015 341.929 339.789 341.875 339.549 341.835L337.929 341.595C337.569 341.542 337.175 341.469 336.749 341.375C336.335 341.282 335.955 341.135 335.609 340.935C335.262 340.722 334.969 340.442 334.729 340.095C334.502 339.749 334.389 339.295 334.389 338.735C334.389 338.215 334.489 337.769 334.689 337.395C334.902 337.009 335.195 336.689 335.569 336.435C335.942 336.169 336.382 335.975 336.889 335.855C337.395 335.722 337.949 335.655 338.549 335.655C339.482 335.655 340.289 335.802 340.969 336.095C341.662 336.389 342.255 336.795 342.749 337.315L341.709 338.295C341.589 338.149 341.435 338.002 341.249 337.855C341.075 337.695 340.855 337.555 340.589 337.435C340.335 337.302 340.035 337.195 339.689 337.115C339.342 337.035 338.942 336.995 338.489 336.995C337.675 336.995 337.049 337.135 336.609 337.415C336.182 337.695 335.969 338.102 335.969 338.635C335.969 338.902 336.015 339.129 336.109 339.315C336.215 339.489 336.355 339.629 336.529 339.735C336.702 339.842 336.895 339.929 337.109 339.995C337.335 340.049 337.562 340.095 337.789 340.135L339.409 340.375C339.782 340.429 340.175 340.502 340.589 340.595C341.002 340.689 341.382 340.842 341.729 341.055C342.075 341.255 342.362 341.529 342.589 341.875C342.829 342.222 342.949 342.675 342.949 343.235C342.949 344.262 342.549 345.055 341.749 345.615C340.962 346.175 339.909 346.455 338.589 346.455ZM233.879 361.895H235.479L230.359 374.475C230.239 374.769 230.106 375.022 229.959 375.235C229.812 375.462 229.639 375.642 229.439 375.775C229.239 375.922 228.999 376.029 228.719 376.095C228.439 376.175 228.106 376.215 227.719 376.215H226.199V374.855H228.599L229.759 372.015L225.599 361.895H227.239L228.979 366.215L230.519 370.135H230.599L232.139 366.215L233.879 361.895ZM242.531 372.455C241.811 372.455 241.158 372.329 240.571 372.075C239.998 371.822 239.505 371.462 239.091 370.995C238.691 370.515 238.385 369.949 238.171 369.295C237.958 368.629 237.851 367.882 237.851 367.055C237.851 366.242 237.958 365.502 238.171 364.835C238.385 364.169 238.691 363.602 239.091 363.135C239.505 362.655 239.998 362.289 240.571 362.035C241.158 361.782 241.811 361.655 242.531 361.655C243.251 361.655 243.898 361.782 244.471 362.035C245.058 362.289 245.551 362.655 245.951 363.135C246.365 363.602 246.678 364.169 246.891 364.835C247.105 365.502 247.211 366.242 247.211 367.055C247.211 367.882 247.105 368.629 246.891 369.295C246.678 369.949 246.365 370.515 245.951 370.995C245.551 371.462 245.058 371.822 244.471 372.075C243.898 372.329 243.251 372.455 242.531 372.455ZM242.531 371.075C243.425 371.075 244.145 370.809 244.691 370.275C245.238 369.742 245.511 368.915 245.511 367.795V366.315C245.511 365.195 245.238 364.369 244.691 363.835C244.145 363.302 243.425 363.035 242.531 363.035C241.638 363.035 240.918 363.302 240.371 363.835C239.825 364.369 239.551 365.195 239.551 366.315V367.795C239.551 368.915 239.825 369.742 240.371 370.275C240.918 370.809 241.638 371.075 242.531 371.075ZM256.963 370.535H256.883C256.777 370.789 256.643 371.035 256.483 371.275C256.323 371.502 256.123 371.702 255.883 371.875C255.657 372.049 255.383 372.189 255.063 372.295C254.743 372.402 254.37 372.455 253.943 372.455C252.863 372.455 251.997 372.115 251.343 371.435C250.69 370.742 250.363 369.769 250.363 368.515V361.895H251.963V368.235C251.963 369.182 252.17 369.889 252.583 370.355C252.997 370.809 253.603 371.035 254.403 371.035C254.723 371.035 255.037 370.995 255.343 370.915C255.65 370.835 255.923 370.715 256.163 370.555C256.403 370.395 256.597 370.195 256.743 369.955C256.89 369.702 256.963 369.402 256.963 369.055V361.895H258.563V372.215H256.963V370.535ZM278.688 372.455C277.941 372.455 277.268 372.329 276.668 372.075C276.081 371.822 275.574 371.462 275.148 370.995C274.734 370.515 274.414 369.949 274.188 369.295C273.961 368.629 273.848 367.889 273.848 367.075C273.848 366.249 273.961 365.502 274.188 364.835C274.428 364.169 274.754 363.602 275.168 363.135C275.581 362.655 276.074 362.289 276.648 362.035C277.234 361.782 277.881 361.655 278.588 361.655C279.281 361.655 279.908 361.782 280.468 362.035C281.041 362.289 281.528 362.642 281.928 363.095C282.328 363.535 282.634 364.062 282.848 364.675C283.061 365.289 283.168 365.962 283.168 366.695V367.455H275.528V367.935C275.528 368.389 275.601 368.809 275.748 369.195C275.894 369.582 276.101 369.915 276.368 370.195C276.648 370.475 276.981 370.695 277.368 370.855C277.768 371.002 278.208 371.075 278.688 371.075C279.381 371.075 279.981 370.915 280.488 370.595C280.994 370.275 281.381 369.835 281.648 369.275L282.828 370.075C282.521 370.769 282.008 371.342 281.288 371.795C280.581 372.235 279.714 372.455 278.688 372.455ZM278.588 362.975C278.148 362.975 277.741 363.055 277.368 363.215C276.994 363.375 276.668 363.595 276.388 363.875C276.121 364.155 275.908 364.489 275.748 364.875C275.601 365.249 275.528 365.662 275.528 366.115V366.255H281.448V366.035C281.448 365.582 281.374 365.169 281.228 364.795C281.094 364.422 280.901 364.102 280.648 363.835C280.408 363.555 280.108 363.342 279.748 363.195C279.401 363.049 279.014 362.975 278.588 362.975ZM286.46 372.215V361.895H288.06V363.575H288.14C288.247 363.322 288.38 363.082 288.54 362.855C288.7 362.615 288.893 362.409 289.12 362.235C289.36 362.062 289.64 361.922 289.96 361.815C290.28 361.709 290.653 361.655 291.08 361.655C292.16 361.655 293.027 362.002 293.68 362.695C294.333 363.375 294.66 364.342 294.66 365.595V372.215H293.06V365.875C293.06 364.929 292.853 364.229 292.44 363.775C292.027 363.309 291.42 363.075 290.62 363.075C290.3 363.075 289.987 363.115 289.68 363.195C289.373 363.275 289.1 363.395 288.86 363.555C288.62 363.715 288.427 363.922 288.28 364.175C288.133 364.429 288.06 364.722 288.06 365.055V372.215H286.46ZM302.672 372.455C301.926 372.455 301.252 372.329 300.652 372.075C300.066 371.822 299.559 371.462 299.132 370.995C298.719 370.515 298.399 369.949 298.172 369.295C297.946 368.629 297.832 367.889 297.832 367.075C297.832 366.249 297.946 365.502 298.172 364.835C298.412 364.169 298.739 363.602 299.152 363.135C299.566 362.655 300.059 362.289 300.632 362.035C301.219 361.782 301.866 361.655 302.572 361.655C303.266 361.655 303.892 361.782 304.452 362.035C305.026 362.289 305.512 362.642 305.912 363.095C306.312 363.535 306.619 364.062 306.832 364.675C307.046 365.289 307.152 365.962 307.152 366.695V367.455H299.512V367.935C299.512 368.389 299.586 368.809 299.732 369.195C299.879 369.582 300.086 369.915 300.352 370.195C300.632 370.475 300.966 370.695 301.352 370.855C301.752 371.002 302.192 371.075 302.672 371.075C303.366 371.075 303.966 370.915 304.472 370.595C304.979 370.275 305.366 369.835 305.632 369.275L306.812 370.075C306.506 370.769 305.992 371.342 305.272 371.795C304.566 372.235 303.699 372.455 302.672 372.455ZM302.572 362.975C302.132 362.975 301.726 363.055 301.352 363.215C300.979 363.375 300.652 363.595 300.372 363.875C300.106 364.155 299.892 364.489 299.732 364.875C299.586 365.249 299.512 365.662 299.512 366.115V366.255H305.432V366.035C305.432 365.582 305.359 365.169 305.212 364.795C305.079 364.422 304.886 364.102 304.632 363.835C304.392 363.555 304.092 363.342 303.732 363.195C303.386 363.049 302.999 362.975 302.572 362.975ZM310.024 370.855H313.044V363.255H310.024V361.895H314.644V364.495H314.744C314.958 363.682 315.358 363.049 315.944 362.595C316.544 362.129 317.304 361.895 318.224 361.895H319.664V363.495H317.724C316.804 363.495 316.058 363.762 315.484 364.295C314.924 364.829 314.644 365.529 314.644 366.395V370.855H318.644V372.215H310.024V370.855ZM331.697 373.395C331.697 374.435 331.263 375.202 330.397 375.695C329.53 376.202 328.23 376.455 326.497 376.455C324.83 376.455 323.63 376.235 322.897 375.795C322.177 375.355 321.817 374.722 321.817 373.895C321.817 373.335 321.963 372.902 322.257 372.595C322.55 372.289 322.963 372.062 323.497 371.915V371.675C323.203 371.529 322.977 371.342 322.817 371.115C322.657 370.889 322.577 370.602 322.577 370.255C322.577 369.722 322.75 369.322 323.097 369.055C323.457 368.789 323.903 368.589 324.437 368.455V368.375C323.797 368.095 323.297 367.682 322.937 367.135C322.59 366.589 322.417 365.949 322.417 365.215C322.417 364.695 322.51 364.215 322.697 363.775C322.883 363.335 323.15 362.962 323.497 362.655C323.857 362.335 324.283 362.089 324.777 361.915C325.27 361.742 325.817 361.655 326.417 361.655C327.19 361.655 327.87 361.795 328.457 362.075V361.895C328.457 361.495 328.55 361.162 328.737 360.895C328.923 360.629 329.243 360.495 329.697 360.495H331.597V361.895H329.277V362.595C329.65 362.915 329.937 363.295 330.137 363.735C330.337 364.175 330.437 364.669 330.437 365.215C330.437 365.735 330.337 366.215 330.137 366.655C329.95 367.095 329.683 367.475 329.337 367.795C328.99 368.102 328.563 368.342 328.057 368.515C327.563 368.689 327.017 368.775 326.417 368.775C326.243 368.775 326.077 368.769 325.917 368.755C325.757 368.742 325.597 368.722 325.437 368.695C325.277 368.722 325.11 368.769 324.937 368.835C324.763 368.889 324.603 368.969 324.457 369.075C324.31 369.169 324.19 369.282 324.097 369.415C324.003 369.549 323.957 369.702 323.957 369.875C323.957 370.182 324.11 370.389 324.417 370.495C324.723 370.589 325.123 370.635 325.617 370.635H327.897C329.23 370.635 330.197 370.889 330.797 371.395C331.397 371.889 331.697 372.555 331.697 373.395ZM330.197 373.475C330.197 373.062 330.03 372.729 329.697 372.475C329.363 372.235 328.783 372.115 327.957 372.115H324.377C323.683 372.395 323.337 372.862 323.337 373.515C323.337 373.969 323.517 374.355 323.877 374.675C324.237 375.009 324.837 375.175 325.677 375.175H327.237C328.17 375.175 328.897 375.029 329.417 374.735C329.937 374.455 330.197 374.035 330.197 373.475ZM326.417 367.535C327.217 367.535 327.803 367.349 328.177 366.975C328.563 366.602 328.757 366.109 328.757 365.495V364.915C328.757 364.302 328.563 363.815 328.177 363.455C327.803 363.082 327.217 362.895 326.417 362.895C325.617 362.895 325.03 363.082 324.657 363.455C324.283 363.815 324.097 364.302 324.097 364.915V365.495C324.097 366.109 324.283 366.602 324.657 366.975C325.03 367.349 325.617 367.535 326.417 367.535ZM341.809 361.895H343.409L338.289 374.475C338.169 374.769 338.035 375.022 337.889 375.235C337.742 375.462 337.569 375.642 337.369 375.775C337.169 375.922 336.929 376.029 336.649 376.095C336.369 376.175 336.035 376.215 335.649 376.215H334.129V374.855H336.529L337.689 372.015L333.529 361.895H335.169L336.909 366.215L338.449 370.135H338.529L340.069 366.215L341.809 361.895Z" fill="#00991F"/>
<circle cx="198.01" cy="146.982" r="126.406" stroke="black"/>
<circle cx="284.5" cy="303.018" r="125.906" stroke="#00991F" stroke-width="2"/>
<circle cx="370.99" cy="152.323" r="126.406" stroke="black"/>
</svg>
