<svg width="569" height="450" viewBox="0 0 569 450" fill="none" xmlns="http://www.w3.org/2000/svg">
<path d="M143.533 120.191L142.433 106.231H143.933L144.513 114.231L144.813 118.451H144.973L146.813 109.871H148.693L150.533 118.451H150.693L150.993 114.231L151.573 106.231H153.033L151.933 120.191H149.513L147.813 111.851H147.653L145.953 120.191H143.533ZM155.685 105.391H157.285V111.551H157.365C157.471 111.298 157.605 111.058 157.765 110.831C157.925 110.591 158.118 110.385 158.345 110.211C158.585 110.038 158.865 109.898 159.185 109.791C159.505 109.685 159.878 109.631 160.305 109.631C161.385 109.631 162.251 109.978 162.905 110.671C163.558 111.351 163.885 112.318 163.885 113.571V120.191H162.285V113.851C162.285 112.905 162.078 112.205 161.665 111.751C161.251 111.285 160.645 111.051 159.845 111.051C159.525 111.051 159.211 111.091 158.905 111.171C158.598 111.251 158.325 111.371 158.085 111.531C157.845 111.691 157.651 111.898 157.505 112.151C157.358 112.405 157.285 112.698 157.285 113.031V120.191H155.685V105.391ZM175.617 120.191C174.99 120.191 174.544 120.031 174.277 119.711C174.01 119.391 173.844 118.991 173.777 118.511H173.677C173.45 119.111 173.084 119.585 172.577 119.931C172.084 120.265 171.417 120.431 170.577 120.431C169.497 120.431 168.637 120.151 167.997 119.591C167.357 119.031 167.037 118.265 167.037 117.291C167.037 116.331 167.384 115.591 168.077 115.071C168.784 114.551 169.917 114.291 171.477 114.291H173.677V113.271C173.677 112.511 173.464 111.945 173.037 111.571C172.61 111.185 172.004 110.991 171.217 110.991C170.524 110.991 169.957 111.131 169.517 111.411C169.077 111.678 168.724 112.045 168.457 112.511L167.377 111.711C167.51 111.445 167.69 111.185 167.917 110.931C168.144 110.678 168.424 110.458 168.757 110.271C169.09 110.071 169.47 109.918 169.897 109.811C170.324 109.691 170.797 109.631 171.317 109.631C172.53 109.631 173.49 109.938 174.197 110.551C174.917 111.165 175.277 112.018 175.277 113.111V118.791H176.717V120.191H175.617ZM170.857 119.091C171.27 119.091 171.644 119.045 171.977 118.951C172.324 118.845 172.624 118.711 172.877 118.551C173.13 118.378 173.324 118.178 173.457 117.951C173.604 117.711 173.677 117.458 173.677 117.191V115.491H171.477C170.517 115.491 169.817 115.625 169.377 115.891C168.937 116.158 168.717 116.545 168.717 117.051V117.471C168.717 118.005 168.904 118.411 169.277 118.691C169.664 118.958 170.19 119.091 170.857 119.091ZM184.209 120.191C183.423 120.191 182.843 119.971 182.469 119.531C182.109 119.091 181.929 118.525 181.929 117.831V111.231H178.489V109.871H181.049C181.396 109.871 181.636 109.805 181.769 109.671C181.916 109.525 181.989 109.278 181.989 108.931V106.231H183.529V109.871H188.229V111.231H183.529V118.831H188.229V120.191H184.209ZM139.08 135.871H140.68L135.56 148.451C135.44 148.745 135.307 148.998 135.16 149.211C135.014 149.438 134.84 149.618 134.64 149.751C134.44 149.898 134.2 150.005 133.92 150.071C133.64 150.151 133.307 150.191 132.92 150.191H131.4V148.831H133.8L134.96 145.991L130.8 135.871H132.44L134.18 140.191L135.72 144.111H135.8L137.34 140.191L139.08 135.871ZM147.733 146.431C147.013 146.431 146.359 146.305 145.773 146.051C145.199 145.798 144.706 145.438 144.293 144.971C143.893 144.491 143.586 143.925 143.373 143.271C143.159 142.605 143.053 141.858 143.053 141.031C143.053 140.218 143.159 139.478 143.373 138.811C143.586 138.145 143.893 137.578 144.293 137.111C144.706 136.631 145.199 136.265 145.773 136.011C146.359 135.758 147.013 135.631 147.733 135.631C148.453 135.631 149.099 135.758 149.673 136.011C150.259 136.265 150.753 136.631 151.153 137.111C151.566 137.578 151.879 138.145 152.093 138.811C152.306 139.478 152.413 140.218 152.413 141.031C152.413 141.858 152.306 142.605 152.093 143.271C151.879 143.925 151.566 144.491 151.153 144.971C150.753 145.438 150.259 145.798 149.673 146.051C149.099 146.305 148.453 146.431 147.733 146.431ZM147.733 145.051C148.626 145.051 149.346 144.785 149.893 144.251C150.439 143.718 150.713 142.891 150.713 141.771V140.291C150.713 139.171 150.439 138.345 149.893 137.811C149.346 137.278 148.626 137.011 147.733 137.011C146.839 137.011 146.119 137.278 145.573 137.811C145.026 138.345 144.753 139.171 144.753 140.291V141.771C144.753 142.891 145.026 143.718 145.573 144.251C146.119 144.785 146.839 145.051 147.733 145.051ZM162.165 144.511H162.085C161.978 144.765 161.845 145.011 161.685 145.251C161.525 145.478 161.325 145.678 161.085 145.851C160.858 146.025 160.585 146.165 160.265 146.271C159.945 146.378 159.571 146.431 159.145 146.431C158.065 146.431 157.198 146.091 156.545 145.411C155.891 144.718 155.565 143.745 155.565 142.491V135.871H157.165V142.211C157.165 143.158 157.371 143.865 157.785 144.331C158.198 144.785 158.805 145.011 159.605 145.011C159.925 145.011 160.238 144.971 160.545 144.891C160.851 144.811 161.125 144.691 161.365 144.531C161.605 144.371 161.798 144.171 161.945 143.931C162.091 143.678 162.165 143.378 162.165 143.031V135.871H163.765V146.191H162.165V144.511ZM171.237 131.391H173.817L171.517 136.931H170.177L171.237 131.391ZM179.249 144.831H182.269V137.231H179.249V135.871H183.869V138.471H183.969C184.183 137.658 184.583 137.025 185.169 136.571C185.769 136.105 186.529 135.871 187.449 135.871H188.889V137.471H186.949C186.029 137.471 185.283 137.738 184.709 138.271C184.149 138.805 183.869 139.505 183.869 140.371V144.831H187.869V146.191H179.249V144.831ZM195.881 146.431C195.135 146.431 194.461 146.305 193.861 146.051C193.275 145.798 192.768 145.438 192.341 144.971C191.928 144.491 191.608 143.925 191.381 143.271C191.155 142.605 191.041 141.865 191.041 141.051C191.041 140.225 191.155 139.478 191.381 138.811C191.621 138.145 191.948 137.578 192.361 137.111C192.775 136.631 193.268 136.265 193.841 136.011C194.428 135.758 195.075 135.631 195.781 135.631C196.475 135.631 197.101 135.758 197.661 136.011C198.235 136.265 198.721 136.618 199.121 137.071C199.521 137.511 199.828 138.038 200.041 138.651C200.255 139.265 200.361 139.938 200.361 140.671V141.431H192.721V141.911C192.721 142.365 192.795 142.785 192.941 143.171C193.088 143.558 193.295 143.891 193.561 144.171C193.841 144.451 194.175 144.671 194.561 144.831C194.961 144.978 195.401 145.051 195.881 145.051C196.575 145.051 197.175 144.891 197.681 144.571C198.188 144.251 198.575 143.811 198.841 143.251L200.021 144.051C199.715 144.745 199.201 145.318 198.481 145.771C197.775 146.211 196.908 146.431 195.881 146.431ZM195.781 136.951C195.341 136.951 194.935 137.031 194.561 137.191C194.188 137.351 193.861 137.571 193.581 137.851C193.315 138.131 193.101 138.465 192.941 138.851C192.795 139.225 192.721 139.638 192.721 140.091V140.231H198.641V140.011C198.641 139.558 198.568 139.145 198.421 138.771C198.288 138.398 198.095 138.078 197.841 137.811C197.601 137.531 197.301 137.318 196.941 137.171C196.595 137.025 196.208 136.951 195.781 136.951ZM134.964 173.371C134.964 174.411 134.531 175.178 133.664 175.671C132.798 176.178 131.498 176.431 129.764 176.431C128.098 176.431 126.898 176.211 126.164 175.771C125.444 175.331 125.084 174.698 125.084 173.871C125.084 173.311 125.231 172.878 125.524 172.571C125.818 172.265 126.231 172.038 126.764 171.891V171.651C126.471 171.505 126.244 171.318 126.084 171.091C125.924 170.865 125.844 170.578 125.844 170.231C125.844 169.698 126.018 169.298 126.364 169.031C126.724 168.765 127.171 168.565 127.704 168.431V168.351C127.064 168.071 126.564 167.658 126.204 167.111C125.858 166.565 125.684 165.925 125.684 165.191C125.684 164.671 125.778 164.191 125.964 163.751C126.151 163.311 126.418 162.938 126.764 162.631C127.124 162.311 127.551 162.065 128.044 161.891C128.538 161.718 129.084 161.631 129.684 161.631C130.458 161.631 131.138 161.771 131.724 162.051V161.871C131.724 161.471 131.818 161.138 132.004 160.871C132.191 160.605 132.511 160.471 132.964 160.471H134.864V161.871H132.544V162.571C132.918 162.891 133.204 163.271 133.404 163.711C133.604 164.151 133.704 164.645 133.704 165.191C133.704 165.711 133.604 166.191 133.404 166.631C133.218 167.071 132.951 167.451 132.604 167.771C132.258 168.078 131.831 168.318 131.324 168.491C130.831 168.665 130.284 168.751 129.684 168.751C129.511 168.751 129.344 168.745 129.184 168.731C129.024 168.718 128.864 168.698 128.704 168.671C128.544 168.698 128.378 168.745 128.204 168.811C128.031 168.865 127.871 168.945 127.724 169.051C127.578 169.145 127.458 169.258 127.364 169.391C127.271 169.525 127.224 169.678 127.224 169.851C127.224 170.158 127.378 170.365 127.684 170.471C127.991 170.565 128.391 170.611 128.884 170.611H131.164C132.498 170.611 133.464 170.865 134.064 171.371C134.664 171.865 134.964 172.531 134.964 173.371ZM133.464 173.451C133.464 173.038 133.298 172.705 132.964 172.451C132.631 172.211 132.051 172.091 131.224 172.091H127.644C126.951 172.371 126.604 172.838 126.604 173.491C126.604 173.945 126.784 174.331 127.144 174.651C127.504 174.985 128.104 175.151 128.944 175.151H130.504C131.438 175.151 132.164 175.005 132.684 174.711C133.204 174.431 133.464 174.011 133.464 173.451ZM129.684 167.511C130.484 167.511 131.071 167.325 131.444 166.951C131.831 166.578 132.024 166.085 132.024 165.471V164.891C132.024 164.278 131.831 163.791 131.444 163.431C131.071 163.058 130.484 162.871 129.684 162.871C128.884 162.871 128.298 163.058 127.924 163.431C127.551 163.791 127.364 164.278 127.364 164.891V165.471C127.364 166.085 127.551 166.578 127.924 166.951C128.298 167.325 128.884 167.511 129.684 167.511ZM141.737 172.431C141.017 172.431 140.363 172.305 139.777 172.051C139.203 171.798 138.71 171.438 138.297 170.971C137.897 170.491 137.59 169.925 137.377 169.271C137.163 168.605 137.057 167.858 137.057 167.031C137.057 166.218 137.163 165.478 137.377 164.811C137.59 164.145 137.897 163.578 138.297 163.111C138.71 162.631 139.203 162.265 139.777 162.011C140.363 161.758 141.017 161.631 141.737 161.631C142.457 161.631 143.103 161.758 143.677 162.011C144.263 162.265 144.757 162.631 145.157 163.111C145.57 163.578 145.883 164.145 146.097 164.811C146.31 165.478 146.417 166.218 146.417 167.031C146.417 167.858 146.31 168.605 146.097 169.271C145.883 169.925 145.57 170.491 145.157 170.971C144.757 171.438 144.263 171.798 143.677 172.051C143.103 172.305 142.457 172.431 141.737 172.431ZM141.737 171.051C142.63 171.051 143.35 170.785 143.897 170.251C144.443 169.718 144.717 168.891 144.717 167.771V166.291C144.717 165.171 144.443 164.345 143.897 163.811C143.35 163.278 142.63 163.011 141.737 163.011C140.843 163.011 140.123 163.278 139.577 163.811C139.03 164.345 138.757 165.171 138.757 166.291V167.771C138.757 168.891 139.03 169.718 139.577 170.251C140.123 170.785 140.843 171.051 141.737 171.051ZM153.729 172.431C153.009 172.431 152.355 172.305 151.769 172.051C151.195 171.798 150.702 171.438 150.289 170.971C149.889 170.491 149.582 169.925 149.369 169.271C149.155 168.605 149.049 167.858 149.049 167.031C149.049 166.218 149.155 165.478 149.369 164.811C149.582 164.145 149.889 163.578 150.289 163.111C150.702 162.631 151.195 162.265 151.769 162.011C152.355 161.758 153.009 161.631 153.729 161.631C154.449 161.631 155.095 161.758 155.669 162.011C156.255 162.265 156.749 162.631 157.149 163.111C157.562 163.578 157.875 164.145 158.089 164.811C158.302 165.478 158.409 166.218 158.409 167.031C158.409 167.858 158.302 168.605 158.089 169.271C157.875 169.925 157.562 170.491 157.149 170.971C156.749 171.438 156.255 171.798 155.669 172.051C155.095 172.305 154.449 172.431 153.729 172.431ZM153.729 171.051C154.622 171.051 155.342 170.785 155.889 170.251C156.435 169.718 156.709 168.891 156.709 167.771V166.291C156.709 165.171 156.435 164.345 155.889 163.811C155.342 163.278 154.622 163.011 153.729 163.011C152.835 163.011 152.115 163.278 151.569 163.811C151.022 164.345 150.749 165.171 150.749 166.291V167.771C150.749 168.891 151.022 169.718 151.569 170.251C152.115 170.785 152.835 171.051 153.729 171.051ZM168.221 170.511H168.141C167.474 171.791 166.414 172.431 164.961 172.431C163.694 172.431 162.701 171.958 161.981 171.011C161.274 170.065 160.921 168.738 160.921 167.031C160.921 165.325 161.274 163.998 161.981 163.051C162.701 162.105 163.694 161.631 164.961 161.631C166.414 161.631 167.474 162.271 168.141 163.551H168.221V157.391H169.821V172.191H168.221V170.511ZM165.581 171.011C165.941 171.011 166.281 170.965 166.601 170.871C166.921 170.778 167.201 170.645 167.441 170.471C167.681 170.285 167.868 170.065 168.001 169.811C168.148 169.545 168.221 169.238 168.221 168.891V165.171C168.221 164.825 168.148 164.525 168.001 164.271C167.868 164.005 167.681 163.785 167.441 163.611C167.201 163.425 166.921 163.285 166.601 163.191C166.281 163.098 165.941 163.051 165.581 163.051C164.648 163.051 163.921 163.338 163.401 163.911C162.894 164.471 162.641 165.218 162.641 166.151V167.911C162.641 168.845 162.894 169.598 163.401 170.171C163.921 170.731 164.648 171.011 165.581 171.011ZM193.605 172.191C192.979 172.191 192.532 172.031 192.265 171.711C191.999 171.391 191.832 170.991 191.765 170.511H191.665C191.439 171.111 191.072 171.585 190.565 171.931C190.072 172.265 189.405 172.431 188.565 172.431C187.485 172.431 186.625 172.151 185.985 171.591C185.345 171.031 185.025 170.265 185.025 169.291C185.025 168.331 185.372 167.591 186.065 167.071C186.772 166.551 187.905 166.291 189.465 166.291H191.665V165.271C191.665 164.511 191.452 163.945 191.025 163.571C190.599 163.185 189.992 162.991 189.205 162.991C188.512 162.991 187.945 163.131 187.505 163.411C187.065 163.678 186.712 164.045 186.445 164.511L185.365 163.711C185.499 163.445 185.679 163.185 185.905 162.931C186.132 162.678 186.412 162.458 186.745 162.271C187.079 162.071 187.459 161.918 187.885 161.811C188.312 161.691 188.785 161.631 189.305 161.631C190.519 161.631 191.479 161.938 192.185 162.551C192.905 163.165 193.265 164.018 193.265 165.111V170.791H194.705V172.191H193.605ZM188.845 171.091C189.259 171.091 189.632 171.045 189.965 170.951C190.312 170.845 190.612 170.711 190.865 170.551C191.119 170.378 191.312 170.178 191.445 169.951C191.592 169.711 191.665 169.458 191.665 169.191V167.491H189.465C188.505 167.491 187.805 167.625 187.365 167.891C186.925 168.158 186.705 168.545 186.705 169.051V169.471C186.705 170.005 186.892 170.411 187.265 170.691C187.652 170.958 188.179 171.091 188.845 171.091ZM202.197 172.191C201.411 172.191 200.831 171.971 200.457 171.531C200.097 171.091 199.917 170.525 199.917 169.831V163.231H196.477V161.871H199.037C199.384 161.871 199.624 161.805 199.757 161.671C199.904 161.525 199.977 161.278 199.977 160.931V158.231H201.517V161.871H206.217V163.231H201.517V170.831H206.217V172.191H202.197Z" fill="black"/>
<path d="M357.114 120.191L356.014 106.231H357.514L358.094 114.231L358.394 118.451H358.554L360.394 109.871H362.274L364.114 118.451H364.274L364.574 114.231L365.154 106.231H366.614L365.514 120.191H363.094L361.394 111.851H361.234L359.534 120.191H357.114ZM369.266 105.391H370.866V111.551H370.946C371.053 111.298 371.186 111.058 371.346 110.831C371.506 110.591 371.7 110.385 371.926 110.211C372.166 110.038 372.446 109.898 372.766 109.791C373.086 109.685 373.46 109.631 373.886 109.631C374.966 109.631 375.833 109.978 376.486 110.671C377.14 111.351 377.466 112.318 377.466 113.571V120.191H375.866V113.851C375.866 112.905 375.66 112.205 375.246 111.751C374.833 111.285 374.226 111.051 373.426 111.051C373.106 111.051 372.793 111.091 372.486 111.171C372.18 111.251 371.906 111.371 371.666 111.531C371.426 111.691 371.233 111.898 371.086 112.151C370.94 112.405 370.866 112.698 370.866 113.031V120.191H369.266V105.391ZM389.199 120.191C388.572 120.191 388.125 120.031 387.859 119.711C387.592 119.391 387.425 118.991 387.359 118.511H387.259C387.032 119.111 386.665 119.585 386.159 119.931C385.665 120.265 384.999 120.431 384.159 120.431C383.079 120.431 382.219 120.151 381.579 119.591C380.939 119.031 380.619 118.265 380.619 117.291C380.619 116.331 380.965 115.591 381.659 115.071C382.365 114.551 383.499 114.291 385.059 114.291H387.259V113.271C387.259 112.511 387.045 111.945 386.619 111.571C386.192 111.185 385.585 110.991 384.799 110.991C384.105 110.991 383.539 111.131 383.099 111.411C382.659 111.678 382.305 112.045 382.039 112.511L380.959 111.711C381.092 111.445 381.272 111.185 381.499 110.931C381.725 110.678 382.005 110.458 382.339 110.271C382.672 110.071 383.052 109.918 383.479 109.811C383.905 109.691 384.379 109.631 384.899 109.631C386.112 109.631 387.072 109.938 387.779 110.551C388.499 111.165 388.859 112.018 388.859 113.111V118.791H390.299V120.191H389.199ZM384.439 119.091C384.852 119.091 385.225 119.045 385.559 118.951C385.905 118.845 386.205 118.711 386.459 118.551C386.712 118.378 386.905 118.178 387.039 117.951C387.185 117.711 387.259 117.458 387.259 117.191V115.491H385.059C384.099 115.491 383.399 115.625 382.959 115.891C382.519 116.158 382.299 116.545 382.299 117.051V117.471C382.299 118.005 382.485 118.411 382.859 118.691C383.245 118.958 383.772 119.091 384.439 119.091ZM397.791 120.191C397.004 120.191 396.424 119.971 396.051 119.531C395.691 119.091 395.511 118.525 395.511 117.831V111.231H392.071V109.871H394.631C394.977 109.871 395.217 109.805 395.351 109.671C395.497 109.525 395.571 109.278 395.571 108.931V106.231H397.111V109.871H401.811V111.231H397.111V118.831H401.811V120.191H397.791ZM421.775 120.191C420.989 120.191 420.409 119.971 420.035 119.531C419.675 119.091 419.495 118.525 419.495 117.831V111.231H416.055V109.871H418.615C418.962 109.871 419.202 109.805 419.335 109.671C419.482 109.525 419.555 109.278 419.555 108.931V106.231H421.095V109.871H425.795V111.231H421.095V118.831H425.795V120.191H421.775ZM429.227 105.391H430.827V111.551H430.907C431.014 111.298 431.147 111.058 431.307 110.831C431.467 110.591 431.661 110.385 431.887 110.211C432.127 110.038 432.407 109.898 432.727 109.791C433.047 109.685 433.421 109.631 433.847 109.631C434.927 109.631 435.794 109.978 436.447 110.671C437.101 111.351 437.427 112.318 437.427 113.571V120.191H435.827V113.851C435.827 112.905 435.621 112.205 435.207 111.751C434.794 111.285 434.187 111.051 433.387 111.051C433.067 111.051 432.754 111.091 432.447 111.171C432.141 111.251 431.867 111.371 431.627 111.531C431.387 111.691 431.194 111.898 431.047 112.151C430.901 112.405 430.827 112.698 430.827 113.031V120.191H429.227V105.391ZM445.44 120.431C444.693 120.431 444.02 120.305 443.42 120.051C442.833 119.798 442.326 119.438 441.9 118.971C441.486 118.491 441.166 117.925 440.94 117.271C440.713 116.605 440.6 115.865 440.6 115.051C440.6 114.225 440.713 113.478 440.94 112.811C441.18 112.145 441.506 111.578 441.92 111.111C442.333 110.631 442.826 110.265 443.4 110.011C443.986 109.758 444.633 109.631 445.34 109.631C446.033 109.631 446.66 109.758 447.22 110.011C447.793 110.265 448.28 110.618 448.68 111.071C449.08 111.511 449.386 112.038 449.6 112.651C449.813 113.265 449.92 113.938 449.92 114.671V115.431H442.28V115.911C442.28 116.365 442.353 116.785 442.5 117.171C442.646 117.558 442.853 117.891 443.12 118.171C443.4 118.451 443.733 118.671 444.12 118.831C444.52 118.978 444.96 119.051 445.44 119.051C446.133 119.051 446.733 118.891 447.24 118.571C447.746 118.251 448.133 117.811 448.4 117.251L449.58 118.051C449.273 118.745 448.76 119.318 448.04 119.771C447.333 120.211 446.466 120.431 445.44 120.431ZM445.34 110.951C444.9 110.951 444.493 111.031 444.12 111.191C443.746 111.351 443.42 111.571 443.14 111.851C442.873 112.131 442.66 112.465 442.5 112.851C442.353 113.225 442.28 113.638 442.28 114.091V114.231H448.2V114.011C448.2 113.558 448.126 113.145 447.98 112.771C447.846 112.398 447.653 112.078 447.4 111.811C447.16 111.531 446.86 111.318 446.5 111.171C446.153 111.025 445.766 110.951 445.34 110.951ZM368.386 146.191V135.871H369.866V137.071H369.946C370.106 136.671 370.333 136.331 370.626 136.051C370.92 135.771 371.353 135.631 371.926 135.631C372.526 135.631 372.973 135.785 373.266 136.091C373.56 136.385 373.74 136.771 373.806 137.251H373.866C374.053 136.785 374.32 136.398 374.666 136.091C375.013 135.785 375.493 135.631 376.106 135.631C376.946 135.631 377.506 135.925 377.786 136.511C378.08 137.098 378.226 137.938 378.226 139.031V146.191H376.746V139.291C376.746 138.411 376.653 137.805 376.466 137.471C376.293 137.125 375.966 136.951 375.486 136.951C375.06 136.951 374.713 137.091 374.446 137.371C374.18 137.638 374.046 138.051 374.046 138.611V146.191H372.566V139.291C372.566 138.411 372.473 137.805 372.286 137.471C372.113 137.125 371.793 136.951 371.326 136.951C370.9 136.951 370.546 137.091 370.266 137.371C370 137.638 369.866 138.051 369.866 138.611V146.191H368.386ZM389.199 146.191C388.572 146.191 388.125 146.031 387.859 145.711C387.592 145.391 387.425 144.991 387.359 144.511H387.259C387.032 145.111 386.665 145.585 386.159 145.931C385.665 146.265 384.999 146.431 384.159 146.431C383.079 146.431 382.219 146.151 381.579 145.591C380.939 145.031 380.619 144.265 380.619 143.291C380.619 142.331 380.965 141.591 381.659 141.071C382.365 140.551 383.499 140.291 385.059 140.291H387.259V139.271C387.259 138.511 387.045 137.945 386.619 137.571C386.192 137.185 385.585 136.991 384.799 136.991C384.105 136.991 383.539 137.131 383.099 137.411C382.659 137.678 382.305 138.045 382.039 138.511L380.959 137.711C381.092 137.445 381.272 137.185 381.499 136.931C381.725 136.678 382.005 136.458 382.339 136.271C382.672 136.071 383.052 135.918 383.479 135.811C383.905 135.691 384.379 135.631 384.899 135.631C386.112 135.631 387.072 135.938 387.779 136.551C388.499 137.165 388.859 138.018 388.859 139.111V144.791H390.299V146.191H389.199ZM384.439 145.091C384.852 145.091 385.225 145.045 385.559 144.951C385.905 144.845 386.205 144.711 386.459 144.551C386.712 144.378 386.905 144.178 387.039 143.951C387.185 143.711 387.259 143.458 387.259 143.191V141.491H385.059C384.099 141.491 383.399 141.625 382.959 141.891C382.519 142.158 382.299 142.545 382.299 143.051V143.471C382.299 144.005 382.485 144.411 382.859 144.691C383.245 144.958 383.772 145.091 384.439 145.091ZM392.831 144.831H395.851V137.231H392.831V135.871H397.451V138.471H397.551C397.764 137.658 398.164 137.025 398.751 136.571C399.351 136.105 400.111 135.871 401.031 135.871H402.471V137.471H400.531C399.611 137.471 398.864 137.738 398.291 138.271C397.731 138.805 397.451 139.505 397.451 140.371V144.831H401.451V146.191H392.831V144.831ZM405.383 131.391H406.983V140.731H407.063L408.863 139.031L412.303 135.871H414.263L409.983 139.911L414.763 146.191H412.783L408.763 140.831L406.983 142.451V146.191H405.383V131.391ZM421.455 146.431C420.709 146.431 420.035 146.305 419.435 146.051C418.849 145.798 418.342 145.438 417.915 144.971C417.502 144.491 417.182 143.925 416.955 143.271C416.729 142.605 416.615 141.865 416.615 141.051C416.615 140.225 416.729 139.478 416.955 138.811C417.195 138.145 417.522 137.578 417.935 137.111C418.349 136.631 418.842 136.265 419.415 136.011C420.002 135.758 420.649 135.631 421.355 135.631C422.049 135.631 422.675 135.758 423.235 136.011C423.809 136.265 424.295 136.618 424.695 137.071C425.095 137.511 425.402 138.038 425.615 138.651C425.829 139.265 425.935 139.938 425.935 140.671V141.431H418.295V141.911C418.295 142.365 418.369 142.785 418.515 143.171C418.662 143.558 418.869 143.891 419.135 144.171C419.415 144.451 419.749 144.671 420.135 144.831C420.535 144.978 420.975 145.051 421.455 145.051C422.149 145.051 422.749 144.891 423.255 144.571C423.762 144.251 424.149 143.811 424.415 143.251L425.595 144.051C425.289 144.745 424.775 145.318 424.055 145.771C423.349 146.211 422.482 146.431 421.455 146.431ZM421.355 136.951C420.915 136.951 420.509 137.031 420.135 137.191C419.762 137.351 419.435 137.571 419.155 137.851C418.889 138.131 418.675 138.465 418.515 138.851C418.369 139.225 418.295 139.638 418.295 140.091V140.231H424.215V140.011C424.215 139.558 424.142 139.145 423.995 138.771C423.862 138.398 423.669 138.078 423.415 137.811C423.175 137.531 422.875 137.318 422.515 137.171C422.169 137.025 421.782 136.951 421.355 136.951ZM433.767 146.191C432.981 146.191 432.401 145.971 432.027 145.531C431.667 145.091 431.487 144.525 431.487 143.831V137.231H428.047V135.871H430.607C430.954 135.871 431.194 135.805 431.327 135.671C431.474 135.525 431.547 135.278 431.547 134.931V132.231H433.087V135.871H437.787V137.231H433.087V144.831H437.787V146.191H433.767ZM373.903 161.871H375.323L376.503 170.791H376.683L378.443 161.871H380.203L381.963 170.791H382.143L383.323 161.871H384.703L383.123 172.191H381.043L379.403 163.551H379.243L377.563 172.191H375.483L373.903 161.871ZM395.195 172.191C394.568 172.191 394.121 172.031 393.855 171.711C393.588 171.391 393.421 170.991 393.355 170.511H393.255C393.028 171.111 392.661 171.585 392.155 171.931C391.661 172.265 390.995 172.431 390.155 172.431C389.075 172.431 388.215 172.151 387.575 171.591C386.935 171.031 386.615 170.265 386.615 169.291C386.615 168.331 386.961 167.591 387.655 167.071C388.361 166.551 389.495 166.291 391.055 166.291H393.255V165.271C393.255 164.511 393.041 163.945 392.615 163.571C392.188 163.185 391.581 162.991 390.795 162.991C390.101 162.991 389.535 163.131 389.095 163.411C388.655 163.678 388.301 164.045 388.035 164.511L386.955 163.711C387.088 163.445 387.268 163.185 387.495 162.931C387.721 162.678 388.001 162.458 388.335 162.271C388.668 162.071 389.048 161.918 389.475 161.811C389.901 161.691 390.375 161.631 390.895 161.631C392.108 161.631 393.068 161.938 393.775 162.551C394.495 163.165 394.855 164.018 394.855 165.111V170.791H396.295V172.191H395.195ZM390.435 171.091C390.848 171.091 391.221 171.045 391.555 170.951C391.901 170.845 392.201 170.711 392.455 170.551C392.708 170.378 392.901 170.178 393.035 169.951C393.181 169.711 393.255 169.458 393.255 169.191V167.491H391.055C390.095 167.491 389.395 167.625 388.955 167.891C388.515 168.158 388.295 168.545 388.295 169.051V169.471C388.295 170.005 388.481 170.411 388.855 170.691C389.241 170.958 389.768 171.091 390.435 171.091ZM399.247 172.191V161.871H400.847V163.551H400.927C401.034 163.298 401.167 163.058 401.327 162.831C401.487 162.591 401.68 162.385 401.907 162.211C402.147 162.038 402.427 161.898 402.747 161.791C403.067 161.685 403.44 161.631 403.867 161.631C404.947 161.631 405.814 161.978 406.467 162.671C407.12 163.351 407.447 164.318 407.447 165.571V172.191H405.847V165.851C405.847 164.905 405.64 164.205 405.227 163.751C404.814 163.285 404.207 163.051 403.407 163.051C403.087 163.051 402.774 163.091 402.467 163.171C402.16 163.251 401.887 163.371 401.647 163.531C401.407 163.691 401.214 163.898 401.067 164.151C400.92 164.405 400.847 164.698 400.847 165.031V172.191H399.247ZM415.779 172.191C414.992 172.191 414.412 171.971 414.039 171.531C413.679 171.091 413.499 170.525 413.499 169.831V163.231H410.059V161.871H412.619C412.966 161.871 413.206 161.805 413.339 161.671C413.486 161.525 413.559 161.278 413.559 160.931V158.231H415.099V161.871H419.799V163.231H415.099V170.831H419.799V172.191H415.779ZM427.391 172.431C426.311 172.431 425.378 172.251 424.591 171.891C423.818 171.518 423.158 171.025 422.611 170.411L423.691 169.471C424.185 169.991 424.725 170.391 425.311 170.671C425.898 170.951 426.605 171.091 427.431 171.091C428.231 171.091 428.885 170.951 429.391 170.671C429.911 170.378 430.171 169.925 430.171 169.311C430.171 169.045 430.118 168.825 430.011 168.651C429.918 168.465 429.785 168.318 429.611 168.211C429.438 168.105 429.245 168.025 429.031 167.971C428.818 167.905 428.591 167.851 428.351 167.811L426.731 167.571C426.371 167.518 425.978 167.445 425.551 167.351C425.138 167.258 424.758 167.111 424.411 166.911C424.065 166.698 423.771 166.418 423.531 166.071C423.305 165.725 423.191 165.271 423.191 164.711C423.191 164.191 423.291 163.745 423.491 163.371C423.705 162.985 423.998 162.665 424.371 162.411C424.745 162.145 425.185 161.951 425.691 161.831C426.198 161.698 426.751 161.631 427.351 161.631C428.285 161.631 429.091 161.778 429.771 162.071C430.465 162.365 431.058 162.771 431.551 163.291L430.511 164.271C430.391 164.125 430.238 163.978 430.051 163.831C429.878 163.671 429.658 163.531 429.391 163.411C429.138 163.278 428.838 163.171 428.491 163.091C428.145 163.011 427.745 162.971 427.291 162.971C426.478 162.971 425.851 163.111 425.411 163.391C424.985 163.671 424.771 164.078 424.771 164.611C424.771 164.878 424.818 165.105 424.911 165.291C425.018 165.465 425.158 165.605 425.331 165.711C425.505 165.818 425.698 165.905 425.911 165.971C426.138 166.025 426.365 166.071 426.591 166.111L428.211 166.351C428.585 166.405 428.978 166.478 429.391 166.571C429.805 166.665 430.185 166.818 430.531 167.031C430.878 167.231 431.165 167.505 431.391 167.851C431.631 168.198 431.751 168.651 431.751 169.211C431.751 170.238 431.351 171.031 430.551 171.591C429.765 172.151 428.711 172.431 427.391 172.431Z" fill="black"/>
<path d="M282.128 282.018L280.948 278.038H276.048L274.868 282.018H273.128L277.408 268.058H279.628L283.908 282.018H282.128ZM278.588 269.838H278.408L276.448 276.578H280.548L278.588 269.838ZM286.46 282.018V271.698H288.06V273.378H288.14C288.247 273.124 288.38 272.884 288.54 272.658C288.7 272.418 288.893 272.211 289.12 272.038C289.36 271.864 289.64 271.724 289.96 271.618C290.28 271.511 290.653 271.458 291.08 271.458C292.16 271.458 293.027 271.804 293.68 272.498C294.333 273.178 294.66 274.144 294.66 275.398V282.018H293.06V275.678C293.06 274.731 292.853 274.031 292.44 273.578C292.027 273.111 291.42 272.878 290.62 272.878C290.3 272.878 289.987 272.918 289.68 272.998C289.373 273.078 289.1 273.198 288.86 273.358C288.62 273.518 288.427 273.724 288.28 273.978C288.133 274.231 288.06 274.524 288.06 274.858V282.018H286.46ZM243.171 295.418C242.705 295.418 242.378 295.324 242.191 295.138C242.005 294.938 241.911 294.691 241.911 294.398V294.078C241.911 293.784 242.005 293.544 242.191 293.358C242.378 293.158 242.705 293.058 243.171 293.058C243.638 293.058 243.965 293.158 244.151 293.358C244.338 293.544 244.431 293.784 244.431 294.078V294.398C244.431 294.691 244.338 294.938 244.151 295.138C243.965 295.324 243.638 295.418 243.171 295.418ZM238.651 306.658H242.371V299.058H238.651V297.698H243.971V306.658H247.451V308.018H238.651V306.658ZM257.023 306.338H256.943C256.277 307.618 255.217 308.258 253.763 308.258C252.497 308.258 251.503 307.784 250.783 306.838C250.077 305.891 249.723 304.564 249.723 302.858C249.723 301.151 250.077 299.824 250.783 298.878C251.503 297.931 252.497 297.458 253.763 297.458C255.217 297.458 256.277 298.098 256.943 299.378H257.023V293.218H258.623V308.018H257.023V306.338ZM254.383 306.838C254.743 306.838 255.083 306.791 255.403 306.698C255.723 306.604 256.003 306.471 256.243 306.298C256.483 306.111 256.67 305.891 256.803 305.638C256.95 305.371 257.023 305.064 257.023 304.718V300.998C257.023 300.651 256.95 300.351 256.803 300.098C256.67 299.831 256.483 299.611 256.243 299.438C256.003 299.251 255.723 299.111 255.403 299.018C255.083 298.924 254.743 298.878 254.383 298.878C253.45 298.878 252.723 299.164 252.203 299.738C251.697 300.298 251.443 301.044 251.443 301.978V303.738C251.443 304.671 251.697 305.424 252.203 305.998C252.723 306.558 253.45 306.838 254.383 306.838ZM266.696 308.258C265.949 308.258 265.276 308.131 264.676 307.878C264.089 307.624 263.582 307.264 263.156 306.798C262.742 306.318 262.422 305.751 262.196 305.098C261.969 304.431 261.856 303.691 261.856 302.878C261.856 302.051 261.969 301.304 262.196 300.638C262.436 299.971 262.762 299.404 263.176 298.938C263.589 298.458 264.082 298.091 264.656 297.838C265.242 297.584 265.889 297.458 266.596 297.458C267.289 297.458 267.916 297.584 268.476 297.838C269.049 298.091 269.536 298.444 269.936 298.898C270.336 299.338 270.642 299.864 270.856 300.478C271.069 301.091 271.176 301.764 271.176 302.498V303.258H263.536V303.738C263.536 304.191 263.609 304.611 263.756 304.998C263.902 305.384 264.109 305.718 264.376 305.998C264.656 306.278 264.989 306.498 265.376 306.658C265.776 306.804 266.216 306.878 266.696 306.878C267.389 306.878 267.989 306.718 268.496 306.398C269.002 306.078 269.389 305.638 269.656 305.078L270.836 305.878C270.529 306.571 270.016 307.144 269.296 307.598C268.589 308.038 267.722 308.258 266.696 308.258ZM266.596 298.778C266.156 298.778 265.749 298.858 265.376 299.018C265.002 299.178 264.676 299.398 264.396 299.678C264.129 299.958 263.916 300.291 263.756 300.678C263.609 301.051 263.536 301.464 263.536 301.918V302.058H269.456V301.838C269.456 301.384 269.382 300.971 269.236 300.598C269.102 300.224 268.909 299.904 268.656 299.638C268.416 299.358 268.116 299.144 267.756 298.998C267.409 298.851 267.022 298.778 266.596 298.778ZM274.468 308.018V297.698H276.068V299.378H276.148C276.254 299.124 276.388 298.884 276.548 298.658C276.708 298.418 276.901 298.211 277.128 298.038C277.368 297.864 277.648 297.724 277.968 297.618C278.288 297.511 278.661 297.458 279.088 297.458C280.168 297.458 281.034 297.804 281.688 298.498C282.341 299.178 282.668 300.144 282.668 301.398V308.018H281.068V301.678C281.068 300.731 280.861 300.031 280.448 299.578C280.034 299.111 279.428 298.878 278.628 298.878C278.308 298.878 277.994 298.918 277.688 298.998C277.381 299.078 277.108 299.198 276.868 299.358C276.628 299.518 276.434 299.724 276.288 299.978C276.141 300.231 276.068 300.524 276.068 300.858V308.018H274.468ZM291 308.018C290.213 308.018 289.633 307.798 289.26 307.358C288.9 306.918 288.72 306.351 288.72 305.658V299.058H285.28V297.698H287.84C288.187 297.698 288.427 297.631 288.56 297.498C288.707 297.351 288.78 297.104 288.78 296.758V294.058H290.32V297.698H295.02V299.058H290.32V306.658H295.02V308.018H291ZM303.132 295.418C302.666 295.418 302.339 295.324 302.152 295.138C301.966 294.938 301.872 294.691 301.872 294.398V294.078C301.872 293.784 301.966 293.544 302.152 293.358C302.339 293.158 302.666 293.058 303.132 293.058C303.599 293.058 303.926 293.158 304.112 293.358C304.299 293.544 304.392 293.784 304.392 294.078V294.398C304.392 294.691 304.299 294.938 304.112 295.138C303.926 295.324 303.599 295.418 303.132 295.418ZM298.612 306.658H302.332V299.058H298.612V297.698H303.932V306.658H307.412V308.018H298.612V306.658ZM314.984 308.018C314.198 308.018 313.618 307.798 313.244 307.358C312.884 306.918 312.704 306.351 312.704 305.658V299.058H309.264V297.698H311.824C312.171 297.698 312.411 297.631 312.544 297.498C312.691 297.351 312.764 297.104 312.764 296.758V294.058H314.304V297.698H319.004V299.058H314.304V306.658H319.004V308.018H314.984ZM329.817 297.698H331.417L326.297 310.278C326.177 310.571 326.043 310.824 325.897 311.038C325.75 311.264 325.577 311.444 325.377 311.578C325.177 311.724 324.937 311.831 324.657 311.898C324.377 311.978 324.043 312.018 323.657 312.018H322.137V310.658H324.537L325.697 307.818L321.537 297.698H323.177L324.917 302.018L326.457 305.938H326.537L328.077 302.018L329.817 297.698ZM231.039 334.018C230.252 334.018 229.672 333.798 229.299 333.358C228.939 332.918 228.759 332.351 228.759 331.658V325.058H225.319V323.698H227.879C228.226 323.698 228.466 323.631 228.599 323.498C228.746 323.351 228.819 323.104 228.819 322.758V320.058H230.359V323.698H235.059V325.058H230.359V332.658H235.059V334.018H231.039ZM238.491 319.218H240.091V325.378H240.171C240.278 325.124 240.411 324.884 240.571 324.658C240.731 324.418 240.925 324.211 241.151 324.038C241.391 323.864 241.671 323.724 241.991 323.618C242.311 323.511 242.685 323.458 243.111 323.458C244.191 323.458 245.058 323.804 245.711 324.498C246.365 325.178 246.691 326.144 246.691 327.398V334.018H245.091V327.678C245.091 326.731 244.885 326.031 244.471 325.578C244.058 325.111 243.451 324.878 242.651 324.878C242.331 324.878 242.018 324.918 241.711 324.998C241.405 325.078 241.131 325.198 240.891 325.358C240.651 325.518 240.458 325.724 240.311 325.978C240.165 326.231 240.091 326.524 240.091 326.858V334.018H238.491V319.218ZM258.423 334.018C257.797 334.018 257.35 333.858 257.083 333.538C256.817 333.218 256.65 332.818 256.583 332.338H256.483C256.257 332.938 255.89 333.411 255.383 333.758C254.89 334.091 254.223 334.258 253.383 334.258C252.303 334.258 251.443 333.978 250.803 333.418C250.163 332.858 249.843 332.091 249.843 331.118C249.843 330.158 250.19 329.418 250.883 328.898C251.59 328.378 252.723 328.118 254.283 328.118H256.483V327.098C256.483 326.338 256.27 325.771 255.843 325.398C255.417 325.011 254.81 324.818 254.023 324.818C253.33 324.818 252.763 324.958 252.323 325.238C251.883 325.504 251.53 325.871 251.263 326.338L250.183 325.538C250.317 325.271 250.497 325.011 250.723 324.758C250.95 324.504 251.23 324.284 251.563 324.098C251.897 323.898 252.277 323.744 252.703 323.638C253.13 323.518 253.603 323.458 254.123 323.458C255.337 323.458 256.297 323.764 257.003 324.378C257.723 324.991 258.083 325.844 258.083 326.938V332.618H259.523V334.018H258.423ZM253.663 332.918C254.077 332.918 254.45 332.871 254.783 332.778C255.13 332.671 255.43 332.538 255.683 332.378C255.937 332.204 256.13 332.004 256.263 331.778C256.41 331.538 256.483 331.284 256.483 331.018V329.318H254.283C253.323 329.318 252.623 329.451 252.183 329.718C251.743 329.984 251.523 330.371 251.523 330.878V331.298C251.523 331.831 251.71 332.238 252.083 332.518C252.47 332.784 252.997 332.918 253.663 332.918ZM267.016 334.018C266.229 334.018 265.649 333.798 265.276 333.358C264.916 332.918 264.736 332.351 264.736 331.658V325.058H261.296V323.698H263.856C264.202 323.698 264.442 323.631 264.576 323.498C264.722 323.351 264.796 323.104 264.796 322.758V320.058H266.336V323.698H271.036V325.058H266.336V332.658H271.036V334.018H267.016ZM295.72 335.198C295.72 336.238 295.287 337.004 294.42 337.498C293.553 338.004 292.253 338.258 290.52 338.258C288.853 338.258 287.653 338.038 286.92 337.598C286.2 337.158 285.84 336.524 285.84 335.698C285.84 335.138 285.987 334.704 286.28 334.398C286.573 334.091 286.987 333.864 287.52 333.718V333.478C287.227 333.331 287 333.144 286.84 332.918C286.68 332.691 286.6 332.404 286.6 332.058C286.6 331.524 286.773 331.124 287.12 330.858C287.48 330.591 287.927 330.391 288.46 330.258V330.178C287.82 329.898 287.32 329.484 286.96 328.938C286.613 328.391 286.44 327.751 286.44 327.018C286.44 326.498 286.533 326.018 286.72 325.578C286.907 325.138 287.173 324.764 287.52 324.458C287.88 324.138 288.307 323.891 288.8 323.718C289.293 323.544 289.84 323.458 290.44 323.458C291.213 323.458 291.893 323.598 292.48 323.878V323.698C292.48 323.298 292.573 322.964 292.76 322.698C292.947 322.431 293.267 322.298 293.72 322.298H295.62V323.698H293.3V324.398C293.673 324.718 293.96 325.098 294.16 325.538C294.36 325.978 294.46 326.471 294.46 327.018C294.46 327.538 294.36 328.018 294.16 328.458C293.973 328.898 293.707 329.278 293.36 329.598C293.013 329.904 292.587 330.144 292.08 330.318C291.587 330.491 291.04 330.578 290.44 330.578C290.267 330.578 290.1 330.571 289.94 330.558C289.78 330.544 289.62 330.524 289.46 330.498C289.3 330.524 289.133 330.571 288.96 330.638C288.787 330.691 288.627 330.771 288.48 330.878C288.333 330.971 288.213 331.084 288.12 331.218C288.027 331.351 287.98 331.504 287.98 331.678C287.98 331.984 288.133 332.191 288.44 332.298C288.747 332.391 289.147 332.438 289.64 332.438H291.92C293.253 332.438 294.22 332.691 294.82 333.198C295.42 333.691 295.72 334.358 295.72 335.198ZM294.22 335.278C294.22 334.864 294.053 334.531 293.72 334.278C293.387 334.038 292.807 333.918 291.98 333.918H288.4C287.707 334.198 287.36 334.664 287.36 335.318C287.36 335.771 287.54 336.158 287.9 336.478C288.26 336.811 288.86 336.978 289.7 336.978H291.26C292.193 336.978 292.92 336.831 293.44 336.538C293.96 336.258 294.22 335.838 294.22 335.278ZM290.44 329.338C291.24 329.338 291.827 329.151 292.2 328.778C292.587 328.404 292.78 327.911 292.78 327.298V326.718C292.78 326.104 292.587 325.618 292.2 325.258C291.827 324.884 291.24 324.698 290.44 324.698C289.64 324.698 289.053 324.884 288.68 325.258C288.307 325.618 288.12 326.104 288.12 326.718V327.298C288.12 327.911 288.307 328.404 288.68 328.778C289.053 329.151 289.64 329.338 290.44 329.338ZM303.132 321.418C302.666 321.418 302.339 321.324 302.152 321.138C301.966 320.938 301.872 320.691 301.872 320.398V320.078C301.872 319.784 301.966 319.544 302.152 319.358C302.339 319.158 302.666 319.058 303.132 319.058C303.599 319.058 303.926 319.158 304.112 319.358C304.299 319.544 304.392 319.784 304.392 320.078V320.398C304.392 320.691 304.299 320.938 304.112 321.138C303.926 321.324 303.599 321.418 303.132 321.418ZM298.612 332.658H302.332V325.058H298.612V323.698H303.932V332.658H307.412V334.018H298.612V332.658ZM313.464 334.018L309.764 323.698H311.384L312.864 328.018L314.464 332.678H314.544L316.144 328.018L317.624 323.698H319.204L315.504 334.018H313.464ZM326.657 334.258C325.91 334.258 325.237 334.131 324.637 333.878C324.05 333.624 323.543 333.264 323.117 332.798C322.703 332.318 322.383 331.751 322.157 331.098C321.93 330.431 321.817 329.691 321.817 328.878C321.817 328.051 321.93 327.304 322.157 326.638C322.397 325.971 322.723 325.404 323.137 324.938C323.55 324.458 324.043 324.091 324.617 323.838C325.203 323.584 325.85 323.458 326.557 323.458C327.25 323.458 327.877 323.584 328.437 323.838C329.01 324.091 329.497 324.444 329.897 324.898C330.297 325.338 330.603 325.864 330.817 326.478C331.03 327.091 331.137 327.764 331.137 328.498V329.258H323.497V329.738C323.497 330.191 323.57 330.611 323.717 330.998C323.863 331.384 324.07 331.718 324.337 331.998C324.617 332.278 324.95 332.498 325.337 332.658C325.737 332.804 326.177 332.878 326.657 332.878C327.35 332.878 327.95 332.718 328.457 332.398C328.963 332.078 329.35 331.638 329.617 331.078L330.797 331.878C330.49 332.571 329.977 333.144 329.257 333.598C328.55 334.038 327.683 334.258 326.657 334.258ZM326.557 324.778C326.117 324.778 325.71 324.858 325.337 325.018C324.963 325.178 324.637 325.398 324.357 325.678C324.09 325.958 323.877 326.291 323.717 326.678C323.57 327.051 323.497 327.464 323.497 327.918V328.058H329.417V327.838C329.417 327.384 329.343 326.971 329.197 326.598C329.063 326.224 328.87 325.904 328.617 325.638C328.377 325.358 328.077 325.144 327.717 324.998C327.37 324.851 326.983 324.778 326.557 324.778ZM338.589 334.258C337.509 334.258 336.575 334.078 335.789 333.718C335.015 333.344 334.355 332.851 333.809 332.238L334.889 331.298C335.382 331.818 335.922 332.218 336.509 332.498C337.095 332.778 337.802 332.918 338.629 332.918C339.429 332.918 340.082 332.778 340.589 332.498C341.109 332.204 341.369 331.751 341.369 331.138C341.369 330.871 341.315 330.651 341.209 330.478C341.115 330.291 340.982 330.144 340.809 330.038C340.635 329.931 340.442 329.851 340.229 329.798C340.015 329.731 339.789 329.678 339.549 329.638L337.929 329.398C337.569 329.344 337.175 329.271 336.749 329.178C336.335 329.084 335.955 328.938 335.609 328.738C335.262 328.524 334.969 328.244 334.729 327.898C334.502 327.551 334.389 327.098 334.389 326.538C334.389 326.018 334.489 325.571 334.689 325.198C334.902 324.811 335.195 324.491 335.569 324.238C335.942 323.971 336.382 323.778 336.889 323.658C337.395 323.524 337.949 323.458 338.549 323.458C339.482 323.458 340.289 323.604 340.969 323.898C341.662 324.191 342.255 324.598 342.749 325.118L341.709 326.098C341.589 325.951 341.435 325.804 341.249 325.658C341.075 325.498 340.855 325.358 340.589 325.238C340.335 325.104 340.035 324.998 339.689 324.918C339.342 324.838 338.942 324.798 338.489 324.798C337.675 324.798 337.049 324.938 336.609 325.218C336.182 325.498 335.969 325.904 335.969 326.438C335.969 326.704 336.015 326.931 336.109 327.118C336.215 327.291 336.355 327.431 336.529 327.538C336.702 327.644 336.895 327.731 337.109 327.798C337.335 327.851 337.562 327.898 337.789 327.938L339.409 328.178C339.782 328.231 340.175 328.304 340.589 328.398C341.002 328.491 341.382 328.644 341.729 328.858C342.075 329.058 342.362 329.331 342.589 329.678C342.829 330.024 342.949 330.478 342.949 331.038C342.949 332.064 342.549 332.858 341.749 333.418C340.962 333.978 339.909 334.258 338.589 334.258ZM233.879 349.698H235.479L230.359 362.278C230.239 362.571 230.106 362.824 229.959 363.038C229.812 363.264 229.639 363.444 229.439 363.578C229.239 363.724 228.999 363.831 228.719 363.898C228.439 363.978 228.106 364.018 227.719 364.018H226.199V362.658H228.599L229.759 359.818L225.599 349.698H227.239L228.979 354.018L230.519 357.938H230.599L232.139 354.018L233.879 349.698ZM242.531 360.258C241.811 360.258 241.158 360.131 240.571 359.878C239.998 359.624 239.505 359.264 239.091 358.798C238.691 358.318 238.385 357.751 238.171 357.098C237.958 356.431 237.851 355.684 237.851 354.858C237.851 354.044 237.958 353.304 238.171 352.638C238.385 351.971 238.691 351.404 239.091 350.938C239.505 350.458 239.998 350.091 240.571 349.838C241.158 349.584 241.811 349.458 242.531 349.458C243.251 349.458 243.898 349.584 244.471 349.838C245.058 350.091 245.551 350.458 245.951 350.938C246.365 351.404 246.678 351.971 246.891 352.638C247.105 353.304 247.211 354.044 247.211 354.858C247.211 355.684 247.105 356.431 246.891 357.098C246.678 357.751 246.365 358.318 245.951 358.798C245.551 359.264 245.058 359.624 244.471 359.878C243.898 360.131 243.251 360.258 242.531 360.258ZM242.531 358.878C243.425 358.878 244.145 358.611 244.691 358.078C245.238 357.544 245.511 356.718 245.511 355.598V354.118C245.511 352.998 245.238 352.171 244.691 351.638C244.145 351.104 243.425 350.838 242.531 350.838C241.638 350.838 240.918 351.104 240.371 351.638C239.825 352.171 239.551 352.998 239.551 354.118V355.598C239.551 356.718 239.825 357.544 240.371 358.078C240.918 358.611 241.638 358.878 242.531 358.878ZM256.963 358.338H256.883C256.777 358.591 256.643 358.838 256.483 359.078C256.323 359.304 256.123 359.504 255.883 359.678C255.657 359.851 255.383 359.991 255.063 360.098C254.743 360.204 254.37 360.258 253.943 360.258C252.863 360.258 251.997 359.918 251.343 359.238C250.69 358.544 250.363 357.571 250.363 356.318V349.698H251.963V356.038C251.963 356.984 252.17 357.691 252.583 358.158C252.997 358.611 253.603 358.838 254.403 358.838C254.723 358.838 255.037 358.798 255.343 358.718C255.65 358.638 255.923 358.518 256.163 358.358C256.403 358.198 256.597 357.998 256.743 357.758C256.89 357.504 256.963 357.204 256.963 356.858V349.698H258.563V360.018H256.963V358.338ZM278.688 360.258C277.941 360.258 277.268 360.131 276.668 359.878C276.081 359.624 275.574 359.264 275.148 358.798C274.734 358.318 274.414 357.751 274.188 357.098C273.961 356.431 273.848 355.691 273.848 354.878C273.848 354.051 273.961 353.304 274.188 352.638C274.428 351.971 274.754 351.404 275.168 350.938C275.581 350.458 276.074 350.091 276.648 349.838C277.234 349.584 277.881 349.458 278.588 349.458C279.281 349.458 279.908 349.584 280.468 349.838C281.041 350.091 281.528 350.444 281.928 350.898C282.328 351.338 282.634 351.864 282.848 352.478C283.061 353.091 283.168 353.764 283.168 354.498V355.258H275.528V355.738C275.528 356.191 275.601 356.611 275.748 356.998C275.894 357.384 276.101 357.718 276.368 357.998C276.648 358.278 276.981 358.498 277.368 358.658C277.768 358.804 278.208 358.878 278.688 358.878C279.381 358.878 279.981 358.718 280.488 358.398C280.994 358.078 281.381 357.638 281.648 357.078L282.828 357.878C282.521 358.571 282.008 359.144 281.288 359.598C280.581 360.038 279.714 360.258 278.688 360.258ZM278.588 350.778C278.148 350.778 277.741 350.858 277.368 351.018C276.994 351.178 276.668 351.398 276.388 351.678C276.121 351.958 275.908 352.291 275.748 352.678C275.601 353.051 275.528 353.464 275.528 353.918V354.058H281.448V353.838C281.448 353.384 281.374 352.971 281.228 352.598C281.094 352.224 280.901 351.904 280.648 351.638C280.408 351.358 280.108 351.144 279.748 350.998C279.401 350.851 279.014 350.778 278.588 350.778ZM286.46 360.018V349.698H288.06V351.378H288.14C288.247 351.124 288.38 350.884 288.54 350.658C288.7 350.418 288.893 350.211 289.12 350.038C289.36 349.864 289.64 349.724 289.96 349.618C290.28 349.511 290.653 349.458 291.08 349.458C292.16 349.458 293.027 349.804 293.68 350.498C294.333 351.178 294.66 352.144 294.66 353.398V360.018H293.06V353.678C293.06 352.731 292.853 352.031 292.44 351.578C292.027 351.111 291.42 350.878 290.62 350.878C290.3 350.878 289.987 350.918 289.68 350.998C289.373 351.078 289.1 351.198 288.86 351.358C288.62 351.518 288.427 351.724 288.28 351.978C288.133 352.231 288.06 352.524 288.06 352.858V360.018H286.46ZM302.672 360.258C301.926 360.258 301.252 360.131 300.652 359.878C300.066 359.624 299.559 359.264 299.132 358.798C298.719 358.318 298.399 357.751 298.172 357.098C297.946 356.431 297.832 355.691 297.832 354.878C297.832 354.051 297.946 353.304 298.172 352.638C298.412 351.971 298.739 351.404 299.152 350.938C299.566 350.458 300.059 350.091 300.632 349.838C301.219 349.584 301.866 349.458 302.572 349.458C303.266 349.458 303.892 349.584 304.452 349.838C305.026 350.091 305.512 350.444 305.912 350.898C306.312 351.338 306.619 351.864 306.832 352.478C307.046 353.091 307.152 353.764 307.152 354.498V355.258H299.512V355.738C299.512 356.191 299.586 356.611 299.732 356.998C299.879 357.384 300.086 357.718 300.352 357.998C300.632 358.278 300.966 358.498 301.352 358.658C301.752 358.804 302.192 358.878 302.672 358.878C303.366 358.878 303.966 358.718 304.472 358.398C304.979 358.078 305.366 357.638 305.632 357.078L306.812 357.878C306.506 358.571 305.992 359.144 305.272 359.598C304.566 360.038 303.699 360.258 302.672 360.258ZM302.572 350.778C302.132 350.778 301.726 350.858 301.352 351.018C300.979 351.178 300.652 351.398 300.372 351.678C300.106 351.958 299.892 352.291 299.732 352.678C299.586 353.051 299.512 353.464 299.512 353.918V354.058H305.432V353.838C305.432 353.384 305.359 352.971 305.212 352.598C305.079 352.224 304.886 351.904 304.632 351.638C304.392 351.358 304.092 351.144 303.732 350.998C303.386 350.851 302.999 350.778 302.572 350.778ZM310.024 358.658H313.044V351.058H310.024V349.698H314.644V352.298H314.744C314.958 351.484 315.358 350.851 315.944 350.398C316.544 349.931 317.304 349.698 318.224 349.698H319.664V351.298H317.724C316.804 351.298 316.058 351.564 315.484 352.098C314.924 352.631 314.644 353.331 314.644 354.198V358.658H318.644V360.018H310.024V358.658ZM331.697 361.198C331.697 362.238 331.263 363.004 330.397 363.498C329.53 364.004 328.23 364.258 326.497 364.258C324.83 364.258 323.63 364.038 322.897 363.598C322.177 363.158 321.817 362.524 321.817 361.698C321.817 361.138 321.963 360.704 322.257 360.398C322.55 360.091 322.963 359.864 323.497 359.718V359.478C323.203 359.331 322.977 359.144 322.817 358.918C322.657 358.691 322.577 358.404 322.577 358.058C322.577 357.524 322.75 357.124 323.097 356.858C323.457 356.591 323.903 356.391 324.437 356.258V356.178C323.797 355.898 323.297 355.484 322.937 354.938C322.59 354.391 322.417 353.751 322.417 353.018C322.417 352.498 322.51 352.018 322.697 351.578C322.883 351.138 323.15 350.764 323.497 350.458C323.857 350.138 324.283 349.891 324.777 349.718C325.27 349.544 325.817 349.458 326.417 349.458C327.19 349.458 327.87 349.598 328.457 349.878V349.698C328.457 349.298 328.55 348.964 328.737 348.698C328.923 348.431 329.243 348.298 329.697 348.298H331.597V349.698H329.277V350.398C329.65 350.718 329.937 351.098 330.137 351.538C330.337 351.978 330.437 352.471 330.437 353.018C330.437 353.538 330.337 354.018 330.137 354.458C329.95 354.898 329.683 355.278 329.337 355.598C328.99 355.904 328.563 356.144 328.057 356.318C327.563 356.491 327.017 356.578 326.417 356.578C326.243 356.578 326.077 356.571 325.917 356.558C325.757 356.544 325.597 356.524 325.437 356.498C325.277 356.524 325.11 356.571 324.937 356.638C324.763 356.691 324.603 356.771 324.457 356.878C324.31 356.971 324.19 357.084 324.097 357.218C324.003 357.351 323.957 357.504 323.957 357.678C323.957 357.984 324.11 358.191 324.417 358.298C324.723 358.391 325.123 358.438 325.617 358.438H327.897C329.23 358.438 330.197 358.691 330.797 359.198C331.397 359.691 331.697 360.358 331.697 361.198ZM330.197 361.278C330.197 360.864 330.03 360.531 329.697 360.278C329.363 360.038 328.783 359.918 327.957 359.918H324.377C323.683 360.198 323.337 360.664 323.337 361.318C323.337 361.771 323.517 362.158 323.877 362.478C324.237 362.811 324.837 362.978 325.677 362.978H327.237C328.17 362.978 328.897 362.831 329.417 362.538C329.937 362.258 330.197 361.838 330.197 361.278ZM326.417 355.338C327.217 355.338 327.803 355.151 328.177 354.778C328.563 354.404 328.757 353.911 328.757 353.298V352.718C328.757 352.104 328.563 351.618 328.177 351.258C327.803 350.884 327.217 350.698 326.417 350.698C325.617 350.698 325.03 350.884 324.657 351.258C324.283 351.618 324.097 352.104 324.097 352.718V353.298C324.097 353.911 324.283 354.404 324.657 354.778C325.03 355.151 325.617 355.338 326.417 355.338ZM341.809 349.698H343.409L338.289 362.278C338.169 362.571 338.035 362.824 337.889 363.038C337.742 363.264 337.569 363.444 337.369 363.578C337.169 363.724 336.929 363.831 336.649 363.898C336.369 363.978 336.035 364.018 335.649 364.018H334.129V362.658H336.529L337.689 359.818L333.529 349.698H335.169L336.909 354.018L338.449 357.938H338.529L340.069 354.018L341.809 349.698Z" fill="#00991F"/>
<circle cx="198.01" cy="146.982" r="126.406" stroke="black"/>
<circle cx="284.5" cy="303.018" r="126.406" stroke="#00991F"/>
<circle cx="370.99" cy="152.323" r="126.406" stroke="black"/>
</svg>
