<?xml version="1.0" encoding="iso-8859-1"?>
<!-- Generator: Adobe Illustrator 19.0.0, SVG Export Plug-In . SVG Version: 6.00 Build 0)  -->
<svg version="1.1" id="Layer_1" xmlns="http://www.w3.org/2000/svg" xmlns:xlink="http://www.w3.org/1999/xlink" x="0px" y="0px"
	 viewBox="0 0 502 502" style="enable-background:new 0 0 502 502;" xml:space="preserve">
<g>
	<g>
		<rect x="5" y="5" style="fill:#F78422;" width="492" height="492"/>
		<path d="M497,502H5c-2.761,0-5-2.239-5-5V5c0-2.761,2.239-5,5-5h492c2.761,0,5,2.239,5,5v492C502,499.761,499.761,502,497,502z
			 M10,492h482V10H10V492z"/>
	</g>
	<g>
		<g>
			<path style="fill:#FFFFFF;" d="M324.779,176.826C258.101,110.148,169.382,73.428,74.968,73.428v69.467
				c75.859,0,147.135,29.493,200.691,83.056c53.558,53.557,83.051,124.832,83.051,200.687h69.472
				c0-38.894-6.232-76.821-18.223-112.638C392.842,262.869,363.989,216.037,324.779,176.826L324.779,176.826z"/>
		</g>
	</g>
	<g>
		<g>
			<g>
				<path style="fill:#FFFFFF;" d="M74.244,190.986v69.466c91.639,0,166.192,74.553,166.192,166.191h69.466
					C309.902,296.697,204.189,190.986,74.244,190.986L74.244,190.986z"/>
			</g>
		</g>
		<g>
			<g>
				<path d="M309.902,431.643h-69.466c-2.761,0-5-2.239-5-5c0-88.881-72.311-161.191-161.192-161.191c-2.761,0-5-2.239-5-5v-69.465
					c0-2.761,2.239-5,5-5c132.699,0,240.658,107.958,240.658,240.656C314.902,429.404,312.663,431.643,309.902,431.643z
					 M245.364,421.643h59.484C302.217,298.416,202.472,198.671,79.244,196.04v59.484
					C169.679,258.128,242.76,331.208,245.364,421.643z"/>
			</g>
		</g>
	</g>
	<g>
		<g>
			<g>
				<path style="fill:#FFFFFF;" d="M173.331,378.816c0,27.479-22.277,49.757-49.757,49.757s-49.757-22.277-49.757-49.757
					c0-27.479,22.277-49.757,49.757-49.757S173.331,351.336,173.331,378.816L173.331,378.816z"/>
			</g>
		</g>
		<g>
			<g>
				<path d="M123.574,433.572c-30.193,0-54.756-24.564-54.756-54.757s24.563-54.756,54.756-54.756s54.757,24.563,54.757,54.756
					S153.767,433.572,123.574,433.572z M123.574,334.059c-24.679,0-44.756,20.078-44.756,44.756
					c0,24.679,20.078,44.757,44.756,44.757c24.679,0,44.757-20.078,44.757-44.757C168.331,354.137,148.253,334.059,123.574,334.059z
					"/>
			</g>
		</g>
	</g>
	<path d="M455,50H329c-2.761,0-5-2.239-5-5s2.239-5,5-5h126c2.761,0,5,2.239,5,5S457.761,50,455,50z"/>
	<path d="M290,50h-14c-2.761,0-5-2.239-5-5s2.239-5,5-5h14c2.761,0,5,2.239,5,5S292.761,50,290,50z"/>
	<g>
		<path d="M428.182,431.638H358.71c-2.761,0-5-2.239-5-5c0-74.524-28.975-144.541-81.586-197.151
			c-52.608-52.615-122.626-81.592-197.156-81.592c-2.761,0-5-2.239-5-5V73.428c0-2.761,2.239-5,5-5
			c95.751,0,185.725,37.241,253.346,104.863c18.29,18.29,34.582,38.478,48.423,60.003c1.494,2.322,0.821,5.416-1.501,6.91
			c-2.322,1.494-5.417,0.821-6.91-1.501c-13.456-20.925-29.297-40.554-47.083-58.34C256.689,115.808,171.175,79.736,79.968,78.462
			v59.475c75.329,1.267,145.908,31.152,199.227,84.479c53.323,53.322,83.207,123.898,84.473,199.222h59.479
			c-0.287-20.357-2.322-40.675-6.06-60.469c-0.513-2.713,1.271-5.329,3.985-5.841c2.712-0.509,5.329,1.271,5.841,3.985
			c4.16,22.025,6.269,44.676,6.269,67.324C433.182,429.399,430.943,431.638,428.182,431.638z M409.282,317.002
			c-2.08,0-4.021-1.308-4.731-3.386c-4.348-12.731-9.499-25.333-15.31-37.457c-1.194-2.49-0.143-5.477,2.348-6.67
			c2.49-1.193,5.476-0.143,6.67,2.348c5.98,12.477,11.281,25.446,15.755,38.548c0.893,2.613-0.502,5.455-3.116,6.347
			C410.363,316.915,409.818,317.002,409.282,317.002z"/>
	</g>
</g>
<g>
</g>
<g>
</g>
<g>
</g>
<g>
</g>
<g>
</g>
<g>
</g>
<g>
</g>
<g>
</g>
<g>
</g>
<g>
</g>
<g>
</g>
<g>
</g>
<g>
</g>
<g>
</g>
<g>
</g>
</svg>
