<svg width="800" height="608" viewBox="0 0 800 608" fill="none" xmlns="http://www.w3.org/2000/svg">
<path d="M332.84 193.274L336.659 170.498L315.025 178.579L332.84 193.274ZM300.632 112.761L324.668 177.112L328.415 175.712L304.379 111.362L300.632 112.761Z" fill="black"/>
<path d="M199.615 167.356L280.121 247.862H199.615L199.615 167.356Z" fill="#D9D9D9"/>
<path d="M199.815 247.662L199.815 167.839L279.639 247.662H199.815Z" stroke="black" stroke-opacity="0.6" stroke-width="0.4"/>
<path d="M198.735 328.708L279.241 409.214H198.735L198.735 328.708Z" fill="#D9D9D9"/>
<path d="M198.935 409.014L198.935 329.19L278.758 409.014H198.935Z" stroke="black" stroke-opacity="0.6" stroke-width="0.4"/>
<path d="M198.735 247.861L279.241 328.367H198.735L198.735 247.861Z" fill="#D9D9D9"/>
<path d="M198.935 328.167L198.935 248.344L278.758 328.167H198.935Z" stroke="black" stroke-opacity="0.6" stroke-width="0.4"/>
<path d="M197.854 409.213L278.36 489.719H197.854L197.854 409.213Z" fill="#D9D9D9"/>
<path d="M198.054 489.519L198.054 409.696L277.878 489.519H198.054Z" stroke="black" stroke-opacity="0.6" stroke-width="0.4"/>
<path d="M197.854 489.719L278.36 570.225H197.854L197.854 489.719Z" fill="#D9D9D9"/>
<path d="M198.054 570.025L198.054 490.202L277.878 570.025H198.054Z" stroke="black" stroke-opacity="0.6" stroke-width="0.4"/>
<path d="M280.121 167.356L360.628 247.862H280.121L280.121 167.356Z" fill="#D9D9D9"/>
<path d="M280.321 247.662L280.321 167.839L360.145 247.662H280.321Z" stroke="black" stroke-opacity="0.6" stroke-width="0.4"/>
<path d="M279.241 328.708L359.747 409.214H279.241L279.241 328.708Z" fill="#D9D9D9"/>
<path d="M279.441 409.014L279.441 329.19L359.264 409.014H279.441Z" stroke="black" stroke-opacity="0.6" stroke-width="0.4"/>
<path d="M279.241 247.861L359.747 328.367H279.241L279.241 247.861Z" fill="#D9D9D9"/>
<path d="M279.441 328.167L279.441 248.344L359.264 328.167H279.441Z" stroke="black" stroke-opacity="0.6" stroke-width="0.4"/>
<path d="M278.36 409.213L358.866 489.719H278.36L278.36 409.213Z" fill="#D9D9D9"/>
<path d="M278.56 489.519L278.56 409.696L358.384 489.519H278.56Z" stroke="black" stroke-opacity="0.6" stroke-width="0.4"/>
<path d="M278.36 489.719L358.866 570.225H278.36L278.36 489.719Z" fill="#D9D9D9"/>
<path d="M278.56 570.025L278.56 490.202L358.384 570.025H278.56Z" stroke="black" stroke-opacity="0.6" stroke-width="0.4"/>
<path d="M360.628 167.356L441.134 247.862H360.628L360.628 167.356Z" fill="#D9D9D9"/>
<path d="M360.828 247.662L360.828 167.839L440.651 247.662H360.828Z" stroke="black" stroke-opacity="0.6" stroke-width="0.4"/>
<path d="M359.747 328.708L440.253 409.214H359.747L359.747 328.708Z" fill="#D9D9D9"/>
<path d="M359.947 409.014L359.947 329.19L439.77 409.014H359.947Z" stroke="black" stroke-opacity="0.6" stroke-width="0.4"/>
<path d="M359.747 247.861L440.253 328.367H359.747L359.747 247.861Z" fill="#D9D9D9"/>
<path d="M359.947 328.167L359.947 248.344L439.77 328.167H359.947Z" stroke="black" stroke-opacity="0.6" stroke-width="0.4"/>
<path d="M358.867 409.213L439.373 489.719H358.867L358.867 409.213Z" fill="#D9D9D9"/>
<path d="M359.067 489.519L359.067 409.696L438.89 489.519H359.067Z" stroke="black" stroke-opacity="0.6" stroke-width="0.4"/>
<path d="M358.867 489.719L439.373 570.225H358.867L358.867 489.719Z" fill="#D9D9D9"/>
<path d="M359.067 570.025L359.067 490.202L438.89 570.025H359.067Z" stroke="black" stroke-opacity="0.6" stroke-width="0.4"/>
<path d="M441.134 167.356L521.64 247.862H441.134L441.134 167.356Z" fill="#D9D9D9"/>
<path d="M441.334 247.662L441.334 167.839L521.157 247.662H441.334Z" stroke="black" stroke-opacity="0.6" stroke-width="0.4"/>
<path d="M440.253 328.708L520.759 409.214H440.253L440.253 328.708Z" fill="#D9D9D9"/>
<path d="M440.453 409.014L440.453 329.19L520.276 409.014H440.453Z" stroke="black" stroke-opacity="0.6" stroke-width="0.4"/>
<path d="M440.253 247.861L520.759 328.367H440.253L440.253 247.861Z" fill="#D9D9D9"/>
<path d="M440.453 328.167L440.453 248.344L520.276 328.167H440.453Z" stroke="black" stroke-opacity="0.6" stroke-width="0.4"/>
<path d="M439.373 409.213L519.879 489.719H439.373L439.373 409.213Z" fill="#D9D9D9"/>
<path d="M439.573 489.519L439.573 409.696L519.396 489.519H439.573Z" stroke="black" stroke-opacity="0.6" stroke-width="0.4"/>
<path d="M439.373 489.719L519.879 570.225H439.373L439.373 489.719Z" fill="#D9D9D9"/>
<path d="M439.573 570.025L439.573 490.202L519.396 570.025H439.573Z" stroke="black" stroke-opacity="0.6" stroke-width="0.4"/>
<path d="M521.64 167.356L602.146 247.862H521.64L521.64 167.356Z" fill="#D9D9D9"/>
<path d="M521.84 247.662L521.84 167.839L601.663 247.662H521.84Z" stroke="black" stroke-opacity="0.6" stroke-width="0.4"/>
<path d="M520.759 328.708L601.265 409.214H520.759L520.759 328.708Z" fill="#D9D9D9"/>
<path d="M520.959 409.014L520.959 329.19L600.782 409.014H520.959Z" stroke="black" stroke-opacity="0.6" stroke-width="0.4"/>
<path d="M520.759 247.861L601.265 328.367H520.759L520.759 247.861Z" fill="#D9D9D9"/>
<path d="M520.959 328.167L520.959 248.344L600.782 328.167H520.959Z" stroke="black" stroke-opacity="0.6" stroke-width="0.4"/>
<path d="M519.879 409.213L600.385 489.719H519.879L519.879 409.213Z" fill="#D9D9D9"/>
<path d="M520.079 489.519L520.079 409.696L599.902 489.519H520.079Z" stroke="black" stroke-opacity="0.6" stroke-width="0.4"/>
<path d="M519.879 489.719L600.385 570.225H519.879L519.879 489.719Z" fill="#D9D9D9"/>
<path d="M520.079 570.025L520.079 490.202L599.902 570.025H520.079Z" stroke="black" stroke-opacity="0.6" stroke-width="0.4"/>
<path d="M280.121 247.861L199.615 167.355L280.121 167.355L280.121 247.861Z" fill="#D9D9D9"/>
<path d="M279.921 167.555L279.921 247.378L200.098 167.555L279.921 167.555Z" stroke="black" stroke-opacity="0.6" stroke-width="0.4"/>
<path d="M279.241 409.213L198.735 328.707L279.241 328.707L279.241 409.213Z" fill="#D9D9D9"/>
<path d="M279.041 328.907L279.041 408.73L199.218 328.907L279.041 328.907Z" stroke="black" stroke-opacity="0.6" stroke-width="0.4"/>
<path d="M279.241 328.368L198.735 247.862L279.241 247.862L279.241 328.368Z" fill="#D9D9D9"/>
<path d="M279.041 248.062L279.041 327.885L199.218 248.062L279.041 248.062Z" stroke="black" stroke-opacity="0.6" stroke-width="0.4"/>
<path d="M278.36 489.719L197.854 409.213L278.36 409.213L278.36 489.719Z" fill="#D9D9D9"/>
<path d="M278.16 409.413L278.16 489.236L198.337 409.413L278.16 409.413Z" stroke="black" stroke-opacity="0.6" stroke-width="0.4"/>
<path d="M278.36 570.226L197.854 489.72L278.36 489.72L278.36 570.226Z" fill="#D9D9D9"/>
<path d="M278.16 489.92L278.16 569.743L198.337 489.92L278.16 489.92Z" stroke="black" stroke-opacity="0.6" stroke-width="0.4"/>
<path d="M359.747 409.213L279.241 328.707L359.747 328.707L359.747 409.213Z" fill="#D9D9D9"/>
<path d="M359.547 328.907L359.547 408.73L279.724 328.907L359.547 328.907Z" stroke="black" stroke-opacity="0.6" stroke-width="0.4"/>
<path d="M359.747 328.368L279.241 247.862L359.747 247.862L359.747 328.368Z" fill="#D9D9D9"/>
<path d="M359.547 248.062L359.547 327.885L279.724 248.062L359.547 248.062Z" stroke="black" stroke-opacity="0.6" stroke-width="0.4"/>
<path d="M358.867 489.719L278.361 409.213L358.867 409.213L358.867 489.719Z" fill="#D9D9D9"/>
<path d="M358.667 409.413L358.667 489.236L278.843 409.413L358.667 409.413Z" stroke="black" stroke-opacity="0.6" stroke-width="0.4"/>
<path d="M358.867 570.226L278.361 489.72L358.867 489.72L358.867 570.226Z" fill="#D9D9D9"/>
<path d="M358.667 489.92L358.667 569.743L278.843 489.92L358.667 489.92Z" stroke="black" stroke-opacity="0.6" stroke-width="0.4"/>
<path d="M441.134 247.861L360.627 167.355L441.134 167.355L441.134 247.861Z" fill="#D9D9D9"/>
<path d="M440.934 167.555L440.934 247.378L361.11 167.555L440.934 167.555Z" stroke="black" stroke-opacity="0.6" stroke-width="0.4"/>
<path d="M312.875 38.3809L332.061 114.808L236.447 57.5675L312.875 38.3809Z" fill="#00991F" stroke="black"/>
<path d="M440.253 409.213L359.747 328.707L440.253 328.707L440.253 409.213Z" fill="#D9D9D9"/>
<path d="M440.053 328.907L440.053 408.73L360.23 328.907L440.053 328.907Z" stroke="black" stroke-opacity="0.6" stroke-width="0.4"/>
<path d="M440.253 328.368L359.747 247.862L440.253 247.862L440.253 328.368Z" fill="#D9D9D9"/>
<path d="M440.053 248.062L440.053 327.885L360.23 248.062L440.053 248.062Z" stroke="black" stroke-opacity="0.6" stroke-width="0.4"/>
<path d="M439.373 489.719L358.866 409.213L439.373 409.213L439.373 489.719Z" fill="#D9D9D9"/>
<path d="M439.173 409.413L439.173 489.236L359.349 409.413L439.173 409.413Z" stroke="black" stroke-opacity="0.6" stroke-width="0.4"/>
<path d="M439.373 570.226L358.866 489.72L439.373 489.72L439.373 570.226Z" fill="#D9D9D9"/>
<path d="M439.173 489.92L439.173 569.743L359.349 489.92L439.173 489.92Z" stroke="black" stroke-opacity="0.6" stroke-width="0.4"/>
<path d="M521.64 247.861L441.134 167.355L521.64 167.355L521.64 247.861Z" fill="#D9D9D9"/>
<path d="M521.44 167.555L521.44 247.378L441.616 167.555L521.44 167.555Z" stroke="black" stroke-opacity="0.6" stroke-width="0.4"/>
<path d="M520.759 409.213L440.253 328.707L520.759 328.707L520.759 409.213Z" fill="#D9D9D9"/>
<path d="M520.559 328.907L520.559 408.73L440.736 328.907L520.559 328.907Z" stroke="black" stroke-opacity="0.6" stroke-width="0.4"/>
<path d="M520.759 328.368L440.253 247.862L520.759 247.862L520.759 328.368Z" fill="#D9D9D9"/>
<path d="M520.559 248.062L520.559 327.885L440.736 248.062L520.559 248.062Z" stroke="black" stroke-opacity="0.6" stroke-width="0.4"/>
<path d="M519.879 489.719L439.373 409.213L519.879 409.213L519.879 489.719Z" fill="#D9D9D9"/>
<path d="M519.679 409.413L519.679 489.236L439.855 409.413L519.679 409.413Z" stroke="black" stroke-opacity="0.6" stroke-width="0.4"/>
<path d="M519.879 570.226L439.373 489.72L519.879 489.72L519.879 570.226Z" fill="#D9D9D9"/>
<path d="M519.679 489.92L519.679 569.743L439.855 489.92L519.679 489.92Z" stroke="black" stroke-opacity="0.6" stroke-width="0.4"/>
<path d="M602.146 247.861L521.64 167.355L602.146 167.355L602.146 247.861Z" fill="#D9D9D9"/>
<path d="M601.946 167.555L601.946 247.378L522.123 167.555L601.946 167.555Z" stroke="black" stroke-opacity="0.6" stroke-width="0.4"/>
<path d="M601.265 409.213L520.759 328.707L601.265 328.707L601.265 409.213Z" fill="#D9D9D9"/>
<path d="M601.065 328.907L601.065 408.73L521.242 328.907L601.065 328.907Z" stroke="black" stroke-opacity="0.6" stroke-width="0.4"/>
<path d="M601.265 328.368L520.759 247.862L601.265 247.862L601.265 328.368Z" fill="#D9D9D9"/>
<path d="M601.065 248.062L601.065 327.885L521.242 248.062L601.065 248.062Z" stroke="black" stroke-opacity="0.6" stroke-width="0.4"/>
<path d="M600.385 489.719L519.879 409.213L600.385 409.213L600.385 489.719Z" fill="#D9D9D9"/>
<path d="M600.185 409.413L600.185 489.236L520.362 409.413L600.185 409.413Z" stroke="black" stroke-opacity="0.6" stroke-width="0.4"/>
<path d="M600.385 570.226L519.879 489.72L600.385 489.72L600.385 570.226Z" fill="#D9D9D9"/>
<path d="M600.185 489.92L600.185 569.743L520.362 489.92L600.185 489.92Z" stroke="black" stroke-opacity="0.6" stroke-width="0.4"/>
<path d="M347.443 141.038V140.237C348.224 140.211 348.687 140.159 348.83 140.081C348.98 140.003 349.081 139.873 349.133 139.69C349.204 139.41 349.24 138.567 349.24 137.161V131.312C349.24 129.716 349.23 128.825 349.211 128.636H347.814C347.111 128.636 346.493 128.659 345.959 128.704C345.744 128.724 345.62 128.75 345.588 128.782C345.542 128.821 345.503 128.935 345.471 129.124C345.386 129.58 345.337 130.091 345.324 130.657H344.514C344.488 129.323 344.471 128.571 344.465 128.401C344.445 128.115 344.413 127.806 344.367 127.474L344.455 127.376C344.761 127.409 345.086 127.431 345.432 127.444C345.991 127.464 347.069 127.474 348.664 127.474H352.609C354.25 127.474 355.347 127.464 355.9 127.444C356.2 127.431 356.502 127.409 356.808 127.376L356.906 127.474C356.848 127.871 356.812 128.219 356.799 128.519C356.792 128.571 356.779 129.284 356.76 130.657H355.949C355.936 130.149 355.894 129.664 355.822 129.202C355.783 128.968 355.741 128.828 355.695 128.782C355.656 128.75 355.552 128.727 355.383 128.714C354.849 128.662 354.208 128.636 353.459 128.636H352.062C352.043 128.864 352.033 129.756 352.033 131.312V137.161C352.033 138.567 352.069 139.414 352.141 139.7C352.186 139.869 352.284 139.996 352.433 140.081C352.583 140.159 353.049 140.211 353.83 140.237V141.038C352.567 140.979 351.502 140.95 350.637 140.95C349.712 140.95 348.648 140.979 347.443 141.038ZM359.523 126.897C359.94 126.897 360.292 127.044 360.578 127.337C360.871 127.63 361.017 127.981 361.017 128.392C361.017 128.808 360.871 129.163 360.578 129.456C360.292 129.749 359.94 129.896 359.523 129.896C359.113 129.896 358.762 129.749 358.469 129.456C358.176 129.163 358.029 128.808 358.029 128.392C358.029 127.981 358.172 127.63 358.459 127.337C358.752 127.044 359.107 126.897 359.523 126.897ZM356.848 141.038V140.315C357.577 140.263 357.993 140.208 358.098 140.149C358.202 140.084 358.267 139.967 358.293 139.798C358.358 139.44 358.391 138.519 358.391 137.034C358.391 134.996 358.361 133.838 358.303 133.558C358.277 133.427 358.234 133.343 358.176 133.304C358.045 133.219 357.603 133.174 356.848 133.167V132.425C357.831 132.321 358.573 132.21 359.074 132.093C359.575 131.976 360.122 131.797 360.715 131.556L360.949 131.683C360.871 132.698 360.832 133.652 360.832 134.544V137.864C360.832 138.997 360.858 139.668 360.91 139.876C360.936 139.993 360.988 140.071 361.066 140.11C361.242 140.195 361.668 140.25 362.346 140.276V141.038C361.421 141.012 360.415 140.999 359.328 140.999C358.391 140.999 357.564 141.012 356.848 141.038ZM364.767 138.763L366.125 137.776C365.643 137.601 365.256 137.399 364.963 137.171C364.676 136.937 364.445 136.631 364.269 136.253C364.1 135.875 364.016 135.459 364.016 135.003C364.016 134.384 364.175 133.808 364.494 133.274C364.813 132.734 365.311 132.304 365.988 131.985C366.672 131.666 367.469 131.507 368.381 131.507C368.993 131.507 369.556 131.578 370.07 131.722C370.591 131.858 371.027 132.063 371.379 132.337C371.756 132.356 372.017 132.366 372.16 132.366C372.355 132.366 372.886 132.347 373.752 132.308L373.615 133.509H372.072C372.157 133.834 372.199 134.15 372.199 134.456C372.199 135.153 372.014 135.768 371.642 136.302C371.271 136.836 370.747 137.246 370.07 137.532C369.4 137.819 368.687 137.962 367.932 137.962C367.73 137.962 367.446 137.946 367.082 137.913C366.88 138.03 366.727 138.17 366.623 138.333C366.519 138.489 366.467 138.636 366.467 138.772C366.467 138.89 366.509 139 366.594 139.104C366.685 139.209 366.808 139.277 366.965 139.31C367.18 139.355 367.717 139.378 368.576 139.378L370.978 139.319C371.682 139.319 372.225 139.401 372.609 139.563C372.993 139.726 373.28 139.974 373.469 140.306C373.657 140.638 373.752 141.077 373.752 141.624C373.752 142.438 373.56 143.174 373.176 143.831C372.792 144.489 372.215 145.029 371.447 145.452C370.477 145.979 369.321 146.243 367.98 146.243C366.926 146.243 366.066 146.097 365.402 145.804C364.738 145.511 364.273 145.162 364.006 144.759C363.739 144.355 363.605 143.916 363.605 143.44C363.605 143.167 363.648 142.92 363.732 142.698C363.817 142.477 363.915 142.311 364.025 142.2C364.136 142.09 364.354 141.94 364.68 141.751C365.305 141.399 365.653 141.207 365.724 141.175C365.373 141.136 365.057 141.009 364.777 140.794C364.523 140.56 364.396 140.293 364.396 139.993C364.396 139.83 364.429 139.648 364.494 139.446C364.585 139.16 364.676 138.932 364.767 138.763ZM366.467 134.554C366.467 135.452 366.623 136.093 366.935 136.478C367.248 136.862 367.655 137.054 368.156 137.054C368.71 137.054 369.133 136.829 369.426 136.38C369.634 136.054 369.738 135.566 369.738 134.915C369.738 134.004 369.592 133.366 369.299 133.001C369.006 132.636 368.599 132.454 368.078 132.454C367.583 132.454 367.189 132.62 366.896 132.952C366.61 133.284 366.467 133.818 366.467 134.554ZM366.808 141.272C366.275 141.611 365.917 141.92 365.734 142.2C365.558 142.487 365.471 142.806 365.471 143.157C365.471 143.75 365.711 144.244 366.193 144.642C366.682 145.039 367.411 145.237 368.381 145.237C369.396 145.237 370.171 145 370.705 144.524C371.245 144.049 371.516 143.447 371.516 142.718C371.516 142.366 371.46 142.096 371.349 141.907C371.245 141.725 371.096 141.578 370.9 141.468C370.705 141.364 370.435 141.302 370.09 141.282C369.745 141.269 368.947 141.263 367.697 141.263C367.469 141.263 367.173 141.266 366.808 141.272ZM385.676 140.267V141.038C384.699 141.012 384.061 140.999 383.762 140.999C383.56 140.999 382.896 141.012 381.769 141.038L381.672 140.94L381.808 138.899C381.828 138.541 381.838 138.115 381.838 137.62V135.726C381.838 134.84 381.688 134.228 381.389 133.89C381.096 133.545 380.672 133.372 380.119 133.372C379.715 133.372 379.364 133.473 379.064 133.675C378.765 133.877 378.537 134.15 378.381 134.495C378.322 134.619 378.293 134.886 378.293 135.296V136.526C378.293 137.034 378.303 137.682 378.322 138.47C378.342 139.251 378.364 139.713 378.391 139.856C378.41 139.935 378.436 139.993 378.469 140.032C378.501 140.071 378.547 140.104 378.605 140.13C378.703 140.175 378.853 140.208 379.055 140.228L379.807 140.267V141.038C378.029 140.993 377.04 140.97 376.838 140.97L374.416 141.038V140.267C374.995 140.241 375.334 140.215 375.432 140.188C375.536 140.162 375.611 140.127 375.656 140.081C375.708 140.029 375.747 139.957 375.773 139.866C375.819 139.664 375.851 139.046 375.871 138.011C375.891 136.976 375.9 136.054 375.9 135.247V132.083C375.9 131.035 375.874 130.084 375.822 129.231C375.803 128.795 375.773 128.538 375.734 128.46C375.708 128.414 375.672 128.379 375.627 128.353C375.555 128.307 375.435 128.271 375.266 128.245C375.155 128.226 374.872 128.206 374.416 128.187V127.464C375.334 127.353 375.998 127.252 376.408 127.161C376.825 127.07 377.42 126.901 378.195 126.653L378.41 126.771L378.332 129.095C378.306 130.273 378.293 131.367 378.293 132.376V133.313L380.012 131.888C380.467 131.712 380.939 131.624 381.428 131.624C381.942 131.624 382.398 131.709 382.795 131.878C383.198 132.041 383.514 132.259 383.742 132.532C383.97 132.806 384.129 133.105 384.221 133.431C384.318 133.75 384.367 134.17 384.367 134.69C384.367 134.866 384.354 135.374 384.328 136.214C384.308 136.832 384.299 137.34 384.299 137.737C384.299 138.942 384.321 139.648 384.367 139.856C384.4 140 384.471 140.101 384.582 140.159C384.693 140.218 385.057 140.254 385.676 140.267ZM386.642 133.606V133.167L387.521 132.61C387.665 132.519 387.801 132.422 387.932 132.317V131.009C387.932 130.54 387.905 129.961 387.853 129.271C388.485 129.062 388.895 128.922 389.084 128.851C389.116 128.838 389.53 128.646 390.324 128.274L390.578 128.47L390.48 129.485L390.412 130.608L390.324 132.317H390.646C391.512 132.317 392.167 132.285 392.609 132.22L392.443 133.538C392.365 133.551 392.293 133.558 392.228 133.558L391.271 133.538H390.324V136.8C390.324 137.802 390.334 138.395 390.353 138.577C390.379 138.883 390.487 139.124 390.676 139.3C390.871 139.469 391.151 139.554 391.516 139.554C391.737 139.56 391.913 139.557 392.043 139.544C392.18 139.524 392.352 139.492 392.56 139.446L392.717 139.847L392.365 140.198C392.079 140.491 391.828 140.748 391.613 140.97C391.359 141.08 391.131 141.152 390.93 141.185C390.734 141.224 390.532 141.243 390.324 141.243C389.569 141.243 388.973 141.051 388.537 140.667C388.107 140.276 387.892 139.791 387.892 139.212L387.932 135.989V133.577H387.668C387.31 133.577 386.968 133.587 386.642 133.606ZM402.277 140.97V144.583C402.277 144.882 402.307 145.068 402.365 145.14C402.424 145.218 402.531 145.273 402.687 145.306C402.752 145.319 403.192 145.358 404.006 145.423V146.194L400.91 146.126L398.351 146.194V145.423C398.944 145.423 399.308 145.397 399.445 145.345C399.523 145.319 399.585 145.27 399.631 145.198C399.683 145.133 399.715 145.052 399.728 144.954C399.761 144.694 399.79 144.134 399.816 143.274L399.846 141.175V136.653C399.846 135.833 399.833 135.117 399.807 134.505C399.78 133.886 399.735 133.522 399.67 133.411C399.624 133.34 399.556 133.287 399.465 133.255C399.374 133.216 399.002 133.193 398.351 133.187V132.425C399.321 132.321 400.054 132.21 400.549 132.093C401.043 131.976 401.555 131.8 402.082 131.565L402.307 131.712L402.277 133.353C402.375 133.274 402.538 133.141 402.766 132.952L403.742 132.151C403.807 132.093 403.905 132.002 404.035 131.878C404.289 131.774 404.501 131.705 404.67 131.673C404.846 131.634 405.086 131.614 405.392 131.614C406.083 131.614 406.639 131.712 407.062 131.907C407.668 132.187 408.166 132.623 408.557 133.216C408.947 133.802 409.142 134.518 409.142 135.364C409.142 135.898 409.071 136.429 408.928 136.956C408.784 137.483 408.622 137.903 408.439 138.216C408.264 138.528 408.075 138.789 407.873 138.997C407.723 139.153 407.469 139.362 407.111 139.622C406.76 139.882 406.434 140.136 406.135 140.384C405.835 140.631 405.62 140.797 405.49 140.882C405.282 141.012 405.083 141.103 404.894 141.155C404.634 141.233 404.331 141.272 403.986 141.272C403.713 141.272 403.433 141.246 403.146 141.194C402.86 141.142 402.57 141.067 402.277 140.97ZM402.277 139.095C402.577 139.401 402.889 139.632 403.215 139.788C403.54 139.938 403.879 140.013 404.23 140.013C404.699 140.013 405.113 139.896 405.471 139.661C405.835 139.427 406.118 139.033 406.32 138.479C406.529 137.926 406.633 137.288 406.633 136.565C406.633 136.103 406.581 135.667 406.476 135.257C406.372 134.84 406.229 134.505 406.047 134.251C405.864 133.991 405.614 133.776 405.295 133.606C404.982 133.431 404.641 133.343 404.269 133.343C403.911 133.343 403.547 133.434 403.176 133.616C402.811 133.799 402.512 134.03 402.277 134.31V139.095ZM410.92 136.429C410.92 135.322 411.109 134.407 411.486 133.685C411.864 132.955 412.43 132.409 413.185 132.044C413.941 131.673 414.82 131.487 415.822 131.487C417.326 131.487 418.469 131.881 419.25 132.669C420.038 133.457 420.432 134.612 420.432 136.136C420.432 137.015 420.318 137.776 420.09 138.421C419.862 139.065 419.556 139.586 419.172 139.983C418.788 140.374 418.384 140.67 417.961 140.872C417.238 141.211 416.424 141.38 415.519 141.38C414.048 141.38 412.912 140.963 412.111 140.13C411.317 139.29 410.92 138.056 410.92 136.429ZM413.625 135.96C413.625 137.692 413.879 138.925 414.387 139.661C414.725 140.149 415.207 140.394 415.832 140.394C416.366 140.394 416.789 140.208 417.101 139.837C417.518 139.342 417.726 138.385 417.726 136.966C417.726 135.97 417.642 135.117 417.473 134.407C417.31 133.691 417.066 133.193 416.74 132.913C416.421 132.633 416.034 132.493 415.578 132.493C415.187 132.493 414.846 132.597 414.553 132.806C414.26 133.007 414.032 133.353 413.869 133.841C413.706 134.323 413.625 135.029 413.625 135.96ZM422.258 137.962H423.039C423.071 138.691 423.104 139.15 423.137 139.339C423.43 139.697 423.752 139.964 424.103 140.14C424.455 140.309 424.859 140.394 425.314 140.394C425.926 140.394 426.395 140.247 426.721 139.954C427.046 139.661 427.209 139.306 427.209 138.89C427.209 138.616 427.154 138.392 427.043 138.216C426.939 138.034 426.724 137.868 426.398 137.718C426.144 137.627 425.656 137.503 424.933 137.347C424.217 137.19 423.674 137.018 423.303 136.829C422.932 136.64 422.642 136.36 422.433 135.989C422.225 135.612 422.121 135.172 422.121 134.671C422.121 133.772 422.46 133.027 423.137 132.435C423.814 131.836 424.787 131.536 426.057 131.536C426.584 131.536 427.069 131.582 427.512 131.673C427.954 131.764 428.355 131.901 428.713 132.083L428.742 132.181C428.703 132.409 428.674 132.64 428.654 132.874C428.635 133.108 428.605 133.662 428.566 134.534L427.814 134.524C427.808 134.453 427.798 134.332 427.785 134.163C427.766 133.87 427.726 133.587 427.668 133.313C427.466 133.053 427.215 132.858 426.916 132.728C426.623 132.597 426.278 132.532 425.881 132.532C425.327 132.532 424.898 132.656 424.592 132.903C424.292 133.151 424.142 133.447 424.142 133.792C424.142 134.144 424.211 134.404 424.348 134.573C424.484 134.743 424.686 134.869 424.953 134.954C425.22 135.039 425.711 135.149 426.428 135.286C427.15 135.416 427.635 135.527 427.883 135.618C428.241 135.755 428.527 135.927 428.742 136.136C428.957 136.344 429.12 136.604 429.23 136.917C429.348 137.223 429.406 137.562 429.406 137.933C429.406 138.903 429.029 139.72 428.273 140.384C427.525 141.048 426.47 141.38 425.109 141.38C424.654 141.38 424.211 141.338 423.781 141.253C423.351 141.175 422.827 141.028 422.209 140.813L422.101 140.667C422.154 140.166 422.186 139.811 422.199 139.603L422.258 137.962ZM433.449 126.897C433.866 126.897 434.217 127.044 434.504 127.337C434.797 127.63 434.943 127.981 434.943 128.392C434.943 128.808 434.797 129.163 434.504 129.456C434.217 129.749 433.866 129.896 433.449 129.896C433.039 129.896 432.687 129.749 432.394 129.456C432.101 129.163 431.955 128.808 431.955 128.392C431.955 127.981 432.098 127.63 432.385 127.337C432.678 127.044 433.032 126.897 433.449 126.897ZM430.773 141.038V140.315C431.502 140.263 431.919 140.208 432.023 140.149C432.127 140.084 432.193 139.967 432.219 139.798C432.284 139.44 432.316 138.519 432.316 137.034C432.316 134.996 432.287 133.838 432.228 133.558C432.202 133.427 432.16 133.343 432.101 133.304C431.971 133.219 431.529 133.174 430.773 133.167V132.425C431.756 132.321 432.499 132.21 433 132.093C433.501 131.976 434.048 131.797 434.641 131.556L434.875 131.683C434.797 132.698 434.758 133.652 434.758 134.544V137.864C434.758 138.997 434.784 139.668 434.836 139.876C434.862 139.993 434.914 140.071 434.992 140.11C435.168 140.195 435.594 140.25 436.271 140.276V141.038C435.347 141.012 434.341 140.999 433.254 140.999C432.316 140.999 431.489 141.012 430.773 141.038ZM437.209 133.606V133.167L438.088 132.61C438.231 132.519 438.368 132.422 438.498 132.317V131.009C438.498 130.54 438.472 129.961 438.42 129.271C439.051 129.062 439.461 128.922 439.65 128.851C439.683 128.838 440.096 128.646 440.891 128.274L441.144 128.47L441.047 129.485L440.978 130.608L440.891 132.317H441.213C442.079 132.317 442.733 132.285 443.176 132.22L443.01 133.538C442.932 133.551 442.86 133.558 442.795 133.558L441.838 133.538H440.891V136.8C440.891 137.802 440.9 138.395 440.92 138.577C440.946 138.883 441.053 139.124 441.242 139.3C441.437 139.469 441.717 139.554 442.082 139.554C442.303 139.56 442.479 139.557 442.609 139.544C442.746 139.524 442.918 139.492 443.127 139.446L443.283 139.847L442.932 140.198C442.645 140.491 442.394 140.748 442.18 140.97C441.926 141.08 441.698 141.152 441.496 141.185C441.301 141.224 441.099 141.243 440.891 141.243C440.135 141.243 439.54 141.051 439.103 140.667C438.674 140.276 438.459 139.791 438.459 139.212L438.498 135.989V133.577H438.234C437.876 133.577 437.534 133.587 437.209 133.606ZM446.769 126.897C447.186 126.897 447.538 127.044 447.824 127.337C448.117 127.63 448.264 127.981 448.264 128.392C448.264 128.808 448.117 129.163 447.824 129.456C447.538 129.749 447.186 129.896 446.769 129.896C446.359 129.896 446.008 129.749 445.715 129.456C445.422 129.163 445.275 128.808 445.275 128.392C445.275 127.981 445.418 127.63 445.705 127.337C445.998 127.044 446.353 126.897 446.769 126.897ZM444.094 141.038V140.315C444.823 140.263 445.239 140.208 445.344 140.149C445.448 140.084 445.513 139.967 445.539 139.798C445.604 139.44 445.637 138.519 445.637 137.034C445.637 134.996 445.607 133.838 445.549 133.558C445.523 133.427 445.48 133.343 445.422 133.304C445.292 133.219 444.849 133.174 444.094 133.167V132.425C445.077 132.321 445.819 132.21 446.32 132.093C446.821 131.976 447.368 131.797 447.961 131.556L448.195 131.683C448.117 132.698 448.078 133.652 448.078 134.544V137.864C448.078 138.997 448.104 139.668 448.156 139.876C448.182 139.993 448.234 140.071 448.312 140.11C448.488 140.195 448.915 140.25 449.592 140.276V141.038C448.667 141.012 447.661 140.999 446.574 140.999C445.637 140.999 444.81 141.012 444.094 141.038ZM450.92 136.429C450.92 135.322 451.109 134.407 451.486 133.685C451.864 132.955 452.43 132.409 453.185 132.044C453.941 131.673 454.82 131.487 455.822 131.487C457.326 131.487 458.469 131.881 459.25 132.669C460.038 133.457 460.432 134.612 460.432 136.136C460.432 137.015 460.318 137.776 460.09 138.421C459.862 139.065 459.556 139.586 459.172 139.983C458.788 140.374 458.384 140.67 457.961 140.872C457.238 141.211 456.424 141.38 455.519 141.38C454.048 141.38 452.912 140.963 452.111 140.13C451.317 139.29 450.92 138.056 450.92 136.429ZM453.625 135.96C453.625 137.692 453.879 138.925 454.387 139.661C454.725 140.149 455.207 140.394 455.832 140.394C456.366 140.394 456.789 140.208 457.101 139.837C457.518 139.342 457.726 138.385 457.726 136.966C457.726 135.97 457.642 135.117 457.473 134.407C457.31 133.691 457.066 133.193 456.74 132.913C456.421 132.633 456.034 132.493 455.578 132.493C455.187 132.493 454.846 132.597 454.553 132.806C454.26 133.007 454.032 133.353 453.869 133.841C453.706 134.323 453.625 135.029 453.625 135.96ZM473.019 140.286V141.038C472.134 140.993 471.411 140.97 470.851 140.97C470.207 140.97 469.647 140.993 469.172 141.038L468.996 140.862C469.009 140.726 469.051 140.162 469.123 139.173L469.172 137.571V136.8C469.172 135.66 469.126 134.912 469.035 134.554C468.95 134.196 468.771 133.909 468.498 133.694C468.224 133.473 467.86 133.362 467.404 133.362C466.948 133.362 466.571 133.473 466.271 133.694C465.972 133.909 465.783 134.127 465.705 134.349C465.659 134.479 465.64 135 465.646 135.911V137.552C465.646 138.027 465.659 138.61 465.685 139.3C465.692 139.606 465.718 139.808 465.764 139.905C465.796 139.977 465.838 140.029 465.891 140.062C465.969 140.114 466.122 140.162 466.349 140.208C466.428 140.221 466.701 140.247 467.17 140.286V141.038C466.46 141.012 465.591 140.999 464.562 140.999C463.371 140.999 462.446 141.012 461.789 141.038V140.286C462.297 140.286 462.648 140.25 462.844 140.179C462.935 140.146 463.003 140.091 463.049 140.013C463.114 139.889 463.15 139.655 463.156 139.31L463.195 138.44C463.202 138.258 463.205 137.962 463.205 137.552V136.272C463.205 135.693 463.185 134.99 463.146 134.163C463.127 133.746 463.098 133.512 463.058 133.46C463.026 133.401 462.971 133.359 462.892 133.333C462.769 133.287 462.401 133.255 461.789 133.235V132.483C462.974 132.282 463.752 132.132 464.123 132.034C464.494 131.937 464.914 131.78 465.383 131.565L465.646 131.683V133.255L467.424 131.829C467.639 131.744 467.818 131.689 467.961 131.663C468.111 131.631 468.316 131.614 468.576 131.614C469.273 131.614 469.793 131.692 470.139 131.849C470.49 132.005 470.786 132.226 471.027 132.513C471.268 132.793 471.437 133.089 471.535 133.401C471.633 133.707 471.682 134.189 471.682 134.847C471.682 135.589 471.675 136.061 471.662 136.263C471.655 136.341 471.652 136.435 471.652 136.546L471.662 137.552C471.668 138.652 471.685 139.332 471.711 139.593C471.743 139.853 471.802 140.022 471.887 140.101C471.978 140.172 472.173 140.218 472.473 140.237C472.583 140.244 472.766 140.26 473.019 140.286ZM476.789 126.897C477.206 126.897 477.557 127.044 477.844 127.337C478.137 127.63 478.283 127.981 478.283 128.392C478.283 128.808 478.137 129.163 477.844 129.456C477.557 129.749 477.206 129.896 476.789 129.896C476.379 129.896 476.027 129.749 475.734 129.456C475.441 129.163 475.295 128.808 475.295 128.392C475.295 127.981 475.438 127.63 475.724 127.337C476.017 127.044 476.372 126.897 476.789 126.897ZM474.113 141.038V140.315C474.842 140.263 475.259 140.208 475.363 140.149C475.467 140.084 475.532 139.967 475.558 139.798C475.624 139.44 475.656 138.519 475.656 137.034C475.656 134.996 475.627 133.838 475.568 133.558C475.542 133.427 475.5 133.343 475.441 133.304C475.311 133.219 474.868 133.174 474.113 133.167V132.425C475.096 132.321 475.838 132.21 476.34 132.093C476.841 131.976 477.388 131.797 477.98 131.556L478.215 131.683C478.137 132.698 478.098 133.652 478.098 134.544V137.864C478.098 138.997 478.124 139.668 478.176 139.876C478.202 139.993 478.254 140.071 478.332 140.11C478.508 140.195 478.934 140.25 479.611 140.276V141.038C478.687 141.012 477.681 140.999 476.594 140.999C475.656 140.999 474.829 141.012 474.113 141.038ZM491.906 140.286V141.038C491.021 140.993 490.298 140.97 489.738 140.97C489.094 140.97 488.534 140.993 488.058 141.038L487.883 140.862C487.896 140.726 487.938 140.162 488.01 139.173L488.058 137.571V136.8C488.058 135.66 488.013 134.912 487.922 134.554C487.837 134.196 487.658 133.909 487.385 133.694C487.111 133.473 486.747 133.362 486.291 133.362C485.835 133.362 485.458 133.473 485.158 133.694C484.859 133.909 484.67 134.127 484.592 134.349C484.546 134.479 484.527 135 484.533 135.911V137.552C484.533 138.027 484.546 138.61 484.572 139.3C484.579 139.606 484.605 139.808 484.65 139.905C484.683 139.977 484.725 140.029 484.777 140.062C484.855 140.114 485.008 140.162 485.236 140.208C485.314 140.221 485.588 140.247 486.057 140.286V141.038C485.347 141.012 484.478 140.999 483.449 140.999C482.258 140.999 481.333 141.012 480.676 141.038V140.286C481.183 140.286 481.535 140.25 481.73 140.179C481.821 140.146 481.89 140.091 481.935 140.013C482.001 139.889 482.036 139.655 482.043 139.31L482.082 138.44C482.088 138.258 482.092 137.962 482.092 137.552V136.272C482.092 135.693 482.072 134.99 482.033 134.163C482.014 133.746 481.984 133.512 481.945 133.46C481.913 133.401 481.857 133.359 481.779 133.333C481.655 133.287 481.288 133.255 480.676 133.235V132.483C481.861 132.282 482.639 132.132 483.01 132.034C483.381 131.937 483.801 131.78 484.269 131.565L484.533 131.683V133.255L486.31 131.829C486.525 131.744 486.704 131.689 486.848 131.663C486.997 131.631 487.202 131.614 487.463 131.614C488.159 131.614 488.68 131.692 489.025 131.849C489.377 132.005 489.673 132.226 489.914 132.513C490.155 132.793 490.324 133.089 490.422 133.401C490.519 133.707 490.568 134.189 490.568 134.847C490.568 135.589 490.562 136.061 490.549 136.263C490.542 136.341 490.539 136.435 490.539 136.546L490.549 137.552C490.555 138.652 490.571 139.332 490.598 139.593C490.63 139.853 490.689 140.022 490.773 140.101C490.864 140.172 491.06 140.218 491.359 140.237C491.47 140.244 491.652 140.26 491.906 140.286ZM494.26 138.763L495.617 137.776C495.135 137.601 494.748 137.399 494.455 137.171C494.168 136.937 493.937 136.631 493.762 136.253C493.592 135.875 493.508 135.459 493.508 135.003C493.508 134.384 493.667 133.808 493.986 133.274C494.305 132.734 494.803 132.304 495.48 131.985C496.164 131.666 496.961 131.507 497.873 131.507C498.485 131.507 499.048 131.578 499.562 131.722C500.083 131.858 500.519 132.063 500.871 132.337C501.249 132.356 501.509 132.366 501.652 132.366C501.848 132.366 502.378 132.347 503.244 132.308L503.107 133.509H501.564C501.649 133.834 501.691 134.15 501.691 134.456C501.691 135.153 501.506 135.768 501.135 136.302C500.764 136.836 500.239 137.246 499.562 137.532C498.892 137.819 498.179 137.962 497.424 137.962C497.222 137.962 496.939 137.946 496.574 137.913C496.372 138.03 496.219 138.17 496.115 138.333C496.011 138.489 495.959 138.636 495.959 138.772C495.959 138.89 496.001 139 496.086 139.104C496.177 139.209 496.301 139.277 496.457 139.31C496.672 139.355 497.209 139.378 498.068 139.378L500.471 139.319C501.174 139.319 501.717 139.401 502.101 139.563C502.486 139.726 502.772 139.974 502.961 140.306C503.15 140.638 503.244 141.077 503.244 141.624C503.244 142.438 503.052 143.174 502.668 143.831C502.284 144.489 501.708 145.029 500.939 145.452C499.969 145.979 498.814 146.243 497.473 146.243C496.418 146.243 495.558 146.097 494.894 145.804C494.23 145.511 493.765 145.162 493.498 144.759C493.231 144.355 493.098 143.916 493.098 143.44C493.098 143.167 493.14 142.92 493.224 142.698C493.309 142.477 493.407 142.311 493.517 142.2C493.628 142.09 493.846 141.94 494.172 141.751C494.797 141.399 495.145 141.207 495.217 141.175C494.865 141.136 494.549 141.009 494.269 140.794C494.016 140.56 493.889 140.293 493.889 139.993C493.889 139.83 493.921 139.648 493.986 139.446C494.077 139.16 494.168 138.932 494.26 138.763ZM495.959 134.554C495.959 135.452 496.115 136.093 496.428 136.478C496.74 136.862 497.147 137.054 497.648 137.054C498.202 137.054 498.625 136.829 498.918 136.38C499.126 136.054 499.23 135.566 499.23 134.915C499.23 134.004 499.084 133.366 498.791 133.001C498.498 132.636 498.091 132.454 497.57 132.454C497.075 132.454 496.682 132.62 496.389 132.952C496.102 133.284 495.959 133.818 495.959 134.554ZM496.301 141.272C495.767 141.611 495.409 141.92 495.226 142.2C495.051 142.487 494.963 142.806 494.963 143.157C494.963 143.75 495.204 144.244 495.685 144.642C496.174 145.039 496.903 145.237 497.873 145.237C498.889 145.237 499.663 145 500.197 144.524C500.738 144.049 501.008 143.447 501.008 142.718C501.008 142.366 500.952 142.096 500.842 141.907C500.738 141.725 500.588 141.578 500.392 141.468C500.197 141.364 499.927 141.302 499.582 141.282C499.237 141.269 498.439 141.263 497.189 141.263C496.961 141.263 496.665 141.266 496.301 141.272Z" fill="black"/>
</svg>
