<svg width="600" height="470" viewBox="0 0 600 470" fill="none" xmlns="http://www.w3.org/2000/svg">
<g clip-path="url(#clip0_23_2)">
<path d="M106.796 394.632L298.62 62.3828L490.444 394.632H106.796Z" stroke="black"/>
<path d="M274.772 26.0208C274.772 25.9541 274.786 25.9008 274.812 25.8608C274.852 25.8208 274.919 25.8008 275.012 25.8008H285.772C285.852 25.8008 285.912 25.8208 285.952 25.8608C285.992 25.9008 286.012 25.9541 286.012 26.0208V27.0608C286.012 27.1941 285.932 27.2608 285.772 27.2608H281.712C281.566 27.2608 281.492 27.3274 281.492 27.4608V40.3808C281.492 40.5541 281.412 40.6408 281.252 40.6408H279.812C279.652 40.6408 279.572 40.5541 279.572 40.3808V27.4808C279.572 27.3341 279.506 27.2608 279.372 27.2608H275.012C274.852 27.2608 274.772 27.1941 274.772 27.0608V26.0208ZM290.443 25.8008C290.603 25.8008 290.683 25.8874 290.683 26.0608V40.3008C290.683 40.4341 290.656 40.5274 290.603 40.5808C290.55 40.6208 290.456 40.6408 290.323 40.6408H289.063C288.943 40.6408 288.863 40.6208 288.823 40.5808C288.783 40.5408 288.763 40.4674 288.763 40.3608V26.0808C288.763 25.8941 288.843 25.8008 289.003 25.8008H290.443ZM294.844 40.6408C294.657 40.6408 294.564 40.5408 294.564 40.3408V26.0808C294.564 25.8941 294.644 25.8008 294.804 25.8008H296.724C296.83 25.8008 296.904 25.8141 296.944 25.8408C296.997 25.8674 297.037 25.9274 297.064 26.0208L301.504 37.4808C301.557 37.6008 301.61 37.6608 301.664 37.6608C301.717 37.6474 301.77 37.5808 301.824 37.4608L306.264 26.0608C306.317 25.8874 306.417 25.8008 306.564 25.8008H308.584C308.73 25.8008 308.804 25.8874 308.804 26.0608V40.3408C308.804 40.5408 308.704 40.6408 308.504 40.6408H307.184C307.077 40.6408 306.997 40.6208 306.944 40.5808C306.904 40.5408 306.884 40.4741 306.884 40.3808V28.9408C306.884 28.8741 306.87 28.8474 306.844 28.8608C306.817 28.8608 306.797 28.8874 306.784 28.9408L302.384 40.3808C302.317 40.5541 302.19 40.6408 302.004 40.6408H301.044C300.83 40.6408 300.697 40.5608 300.644 40.4008L296.304 29.0608C296.277 28.9941 296.25 28.9674 296.224 28.9808C296.21 28.9808 296.204 29.0074 296.204 29.0608V40.3808C296.204 40.4741 296.184 40.5408 296.144 40.5808C296.104 40.6208 296.03 40.6408 295.924 40.6408H294.844ZM312.689 26.0808C312.689 25.8941 312.769 25.8008 312.929 25.8008H321.909C322.042 25.8008 322.109 25.8741 322.109 26.0208V27.0408C322.109 27.2008 322.022 27.2808 321.849 27.2808H314.869C314.695 27.2808 314.609 27.3608 314.609 27.5208V32.2008C314.609 32.3474 314.682 32.4208 314.829 32.4208H320.009C320.155 32.4208 320.229 32.4941 320.229 32.6408V33.7008C320.229 33.7541 320.215 33.8008 320.189 33.8408C320.162 33.8674 320.102 33.8808 320.009 33.8808H314.829C314.682 33.8808 314.609 33.9541 314.609 34.1008V38.9608C314.609 39.0941 314.675 39.1608 314.809 39.1608H322.149C322.295 39.1608 322.369 39.2274 322.369 39.3608V40.4208C322.369 40.4874 322.349 40.5408 322.309 40.5808C322.282 40.6208 322.229 40.6408 322.149 40.6408H312.969C312.782 40.6408 312.689 40.5474 312.689 40.3608V26.0808Z" fill="black"/>
<path d="M504.84 428.253C504.653 428.253 504.56 428.153 504.56 427.953V413.693C504.56 413.507 504.64 413.413 504.8 413.413H506.72C506.827 413.413 506.9 413.427 506.94 413.453C506.993 413.48 507.033 413.54 507.06 413.633L511.5 425.093C511.553 425.213 511.607 425.273 511.66 425.273C511.713 425.26 511.767 425.193 511.82 425.073L516.26 413.673C516.313 413.5 516.413 413.413 516.56 413.413H518.58C518.727 413.413 518.8 413.5 518.8 413.673V427.953C518.8 428.153 518.7 428.253 518.5 428.253H517.18C517.073 428.253 516.993 428.233 516.94 428.193C516.9 428.153 516.88 428.087 516.88 427.993V416.553C516.88 416.487 516.867 416.46 516.84 416.473C516.813 416.473 516.793 416.5 516.78 416.553L512.38 427.993C512.313 428.167 512.187 428.253 512 428.253H511.04C510.827 428.253 510.693 428.173 510.64 428.013L506.3 416.673C506.273 416.607 506.247 416.58 506.22 416.593C506.207 416.593 506.2 416.62 506.2 416.673V427.993C506.2 428.087 506.18 428.153 506.14 428.193C506.1 428.233 506.027 428.253 505.92 428.253H504.84ZM528.385 428.453C527.078 428.453 525.945 428.16 524.985 427.573C524.038 426.987 523.312 426.133 522.805 425.013C522.298 423.88 522.045 422.507 522.045 420.893C522.045 419.267 522.305 417.88 522.825 416.733C523.345 415.587 524.078 414.713 525.025 414.113C525.972 413.513 527.098 413.213 528.405 413.213C529.712 413.213 530.832 413.513 531.765 414.113C532.712 414.713 533.438 415.58 533.945 416.713C534.465 417.847 534.725 419.233 534.725 420.873C534.725 422.487 534.472 423.86 533.965 424.993C533.458 426.113 532.725 426.973 531.765 427.573C530.818 428.16 529.692 428.453 528.385 428.453ZM528.425 426.993C529.865 426.993 530.938 426.5 531.645 425.513C532.365 424.513 532.725 422.973 532.725 420.893C532.725 418.773 532.358 417.207 531.625 416.193C530.905 415.18 529.832 414.673 528.405 414.673C526.965 414.673 525.878 415.187 525.145 416.213C524.412 417.227 524.045 418.787 524.045 420.893C524.045 422.96 524.412 424.493 525.145 425.493C525.878 426.493 526.972 426.993 528.425 426.993ZM548.999 413.413C549.145 413.413 549.219 413.493 549.219 413.653V428.013C549.219 428.093 549.192 428.153 549.139 428.193C549.099 428.233 549.039 428.253 548.959 428.253H547.979C547.899 428.253 547.825 428.247 547.759 428.233C547.692 428.22 547.625 428.173 547.559 428.093L539.839 416.873C539.772 416.78 539.719 416.74 539.679 416.753C539.639 416.767 539.619 416.813 539.619 416.893V427.993C539.619 428.167 539.525 428.253 539.339 428.253H538.219C538.045 428.253 537.959 428.167 537.959 427.993V413.693C537.959 413.507 538.045 413.413 538.219 413.413H539.359C539.465 413.413 539.545 413.427 539.599 413.453C539.652 413.467 539.712 413.52 539.779 413.613L547.279 424.593C547.359 424.687 547.425 424.72 547.479 424.693C547.545 424.667 547.579 424.613 547.579 424.533V413.653C547.579 413.493 547.659 413.413 547.819 413.413H548.999ZM553.095 413.693C553.095 413.507 553.175 413.413 553.335 413.413H562.315C562.449 413.413 562.515 413.487 562.515 413.633V414.653C562.515 414.813 562.429 414.893 562.255 414.893H555.275C555.102 414.893 555.015 414.973 555.015 415.133V419.813C555.015 419.96 555.089 420.033 555.235 420.033H560.415C560.562 420.033 560.635 420.107 560.635 420.253V421.313C560.635 421.367 560.622 421.413 560.595 421.453C560.569 421.48 560.509 421.493 560.415 421.493H555.235C555.089 421.493 555.015 421.567 555.015 421.713V426.573C555.015 426.707 555.082 426.773 555.215 426.773H562.555C562.702 426.773 562.775 426.84 562.775 426.973V428.033C562.775 428.1 562.755 428.153 562.715 428.193C562.689 428.233 562.635 428.253 562.555 428.253H553.375C553.189 428.253 553.095 428.16 553.095 427.973V413.693ZM576.194 413.413C576.287 413.413 576.347 413.44 576.374 413.493C576.414 413.547 576.407 413.613 576.354 413.693L571.594 421.653C571.541 421.733 571.507 421.813 571.494 421.893C571.481 421.973 571.474 422.113 571.474 422.313V427.913C571.474 428.14 571.347 428.253 571.094 428.253H569.894C569.761 428.253 569.674 428.227 569.634 428.173C569.594 428.12 569.574 428.047 569.574 427.953V422.393C569.574 422.26 569.561 422.16 569.534 422.093C569.507 422.027 569.467 421.947 569.414 421.853L564.594 413.733C564.541 413.64 564.527 413.567 564.554 413.513C564.594 413.447 564.681 413.413 564.814 413.413H566.254C566.374 413.413 566.461 413.433 566.514 413.473C566.567 413.5 566.621 413.56 566.674 413.653L570.394 420.053C570.474 420.2 570.547 420.28 570.614 420.293C570.681 420.293 570.754 420.227 570.834 420.093L574.534 413.653C574.587 413.547 574.641 413.48 574.694 413.453C574.747 413.427 574.834 413.413 574.954 413.413H576.194Z" fill="black"/>
<path d="M9.32187 403.661C9.32187 403.474 9.40187 403.381 9.56187 403.381H18.5419C18.6752 403.381 18.7419 403.454 18.7419 403.601V404.621C18.7419 404.781 18.6552 404.861 18.4819 404.861H11.5019C11.3285 404.861 11.2419 404.941 11.2419 405.101V409.781C11.2419 409.927 11.3152 410.001 11.4619 410.001H16.6419C16.7885 410.001 16.8619 410.074 16.8619 410.221V411.281C16.8619 411.334 16.8485 411.381 16.8219 411.421C16.7952 411.447 16.7352 411.461 16.6419 411.461H11.4619C11.3152 411.461 11.2419 411.534 11.2419 411.681V416.541C11.2419 416.674 11.3085 416.741 11.4419 416.741H18.7819C18.9285 416.741 19.0019 416.807 19.0019 416.941V418.001C19.0019 418.067 18.9819 418.121 18.9419 418.161C18.9152 418.201 18.8619 418.221 18.7819 418.221H9.60187C9.41521 418.221 9.32187 418.127 9.32187 417.941V403.661ZM32.9205 403.381C33.0671 403.381 33.1405 403.461 33.1405 403.621V417.981C33.1405 418.061 33.1138 418.121 33.0605 418.161C33.0205 418.201 32.9605 418.221 32.8805 418.221H31.9005C31.8205 418.221 31.7471 418.214 31.6805 418.201C31.6138 418.187 31.5471 418.141 31.4805 418.061L23.7605 406.841C23.6938 406.747 23.6405 406.707 23.6005 406.721C23.5605 406.734 23.5405 406.781 23.5405 406.861V417.961C23.5405 418.134 23.4471 418.221 23.2605 418.221H22.1405C21.9671 418.221 21.8805 418.134 21.8805 417.961V403.661C21.8805 403.474 21.9671 403.381 22.1405 403.381H23.2805C23.3871 403.381 23.4671 403.394 23.5205 403.421C23.5738 403.434 23.6338 403.487 23.7005 403.581L31.2005 414.561C31.2805 414.654 31.3471 414.687 31.4005 414.661C31.4671 414.634 31.5005 414.581 31.5005 414.501V403.621C31.5005 403.461 31.5805 403.381 31.7405 403.381H32.9205ZM37.0172 403.661C37.0172 403.474 37.0972 403.381 37.2572 403.381H46.2372C46.3705 403.381 46.4372 403.454 46.4372 403.601V404.621C46.4372 404.781 46.3505 404.861 46.1772 404.861H39.1972C39.0239 404.861 38.9372 404.941 38.9372 405.101V409.781C38.9372 409.927 39.0105 410.001 39.1572 410.001H44.3372C44.4839 410.001 44.5572 410.074 44.5572 410.221V411.281C44.5572 411.334 44.5439 411.381 44.5172 411.421C44.4905 411.447 44.4305 411.461 44.3372 411.461H39.1572C39.0105 411.461 38.9372 411.534 38.9372 411.681V416.541C38.9372 416.674 39.0039 416.741 39.1372 416.741H46.4772C46.6239 416.741 46.6972 416.807 46.6972 416.941V418.001C46.6972 418.067 46.6772 418.121 46.6372 418.161C46.6105 418.201 46.5572 418.221 46.4772 418.221H37.2972C37.1105 418.221 37.0172 418.127 37.0172 417.941V403.661ZM60.1758 417.841C60.2158 417.934 60.2091 418.021 60.1558 418.101C60.1158 418.181 60.0491 418.221 59.9558 418.221H58.4958C58.3491 418.221 58.2424 418.141 58.1758 417.981L55.5958 411.681C55.5291 411.534 55.3691 411.461 55.1158 411.461H51.7358C51.6424 411.461 51.5758 411.481 51.5358 411.521C51.5091 411.561 51.4958 411.614 51.4958 411.681V417.901C51.4958 418.114 51.3824 418.221 51.1558 418.221H49.8558C49.7491 418.221 49.6758 418.201 49.6358 418.161C49.5958 418.107 49.5758 418.041 49.5758 417.961V403.661C49.5758 403.474 49.6558 403.381 49.8158 403.381H55.3958C56.9691 403.381 58.1891 403.707 59.0558 404.361C59.9358 405.001 60.3758 405.954 60.3758 407.221C60.3758 407.981 60.2291 408.627 59.9358 409.161C59.6424 409.681 59.2691 410.101 58.8158 410.421C58.3758 410.727 57.9224 410.954 57.4558 411.101C57.3491 411.114 57.3224 411.181 57.3758 411.301L60.1758 417.841ZM54.8358 410.061C56.0091 410.061 56.8891 409.847 57.4758 409.421C58.0758 408.994 58.3758 408.321 58.3758 407.401C58.3758 406.507 58.1091 405.847 57.5758 405.421C57.0558 404.994 56.2958 404.781 55.2958 404.781H51.7758C51.5891 404.781 51.4958 404.854 51.4958 405.001V409.801C51.4958 409.974 51.5558 410.061 51.6758 410.061H54.8358ZM68.8662 418.421C67.5862 418.421 66.4796 418.121 65.5462 417.521C64.6129 416.907 63.8996 416.041 63.4062 414.921C62.9129 413.787 62.6662 412.434 62.6662 410.861C62.6662 409.247 62.9262 407.867 63.4462 406.721C63.9662 405.574 64.6996 404.701 65.6462 404.101C66.5929 403.487 67.6929 403.181 68.9462 403.181C69.8796 403.181 70.7329 403.367 71.5062 403.741C72.2929 404.114 72.9396 404.607 73.4462 405.221C73.9662 405.834 74.2796 406.487 74.3862 407.181C74.3996 407.287 74.3929 407.361 74.3662 407.401C74.3529 407.441 74.3062 407.474 74.2262 407.501L72.7862 407.721C72.7196 407.734 72.6662 407.727 72.6262 407.701C72.5996 407.661 72.5796 407.601 72.5662 407.521C72.4729 406.987 72.2596 406.507 71.9262 406.081C71.5929 405.641 71.1662 405.294 70.6462 405.041C70.1396 404.774 69.5662 404.641 68.9262 404.641C68.0196 404.641 67.2462 404.874 66.6062 405.341C65.9662 405.794 65.4796 406.481 65.1462 407.401C64.8262 408.307 64.6662 409.421 64.6662 410.741C64.6662 412.127 64.8262 413.287 65.1462 414.221C65.4796 415.141 65.9662 415.827 66.6062 416.281C67.2596 416.734 68.0462 416.961 68.9662 416.961C69.6196 416.961 70.1862 416.854 70.6662 416.641C71.1462 416.414 71.5462 416.121 71.8662 415.761C72.1862 415.387 72.4329 414.994 72.6062 414.581C72.7796 414.154 72.8729 413.741 72.8862 413.341L72.9062 412.141C72.9329 412.007 72.8663 411.941 72.7062 411.941H69.4462C69.3662 411.941 69.3062 411.927 69.2662 411.901C69.2396 411.861 69.2262 411.801 69.2262 411.721V410.861C69.2262 410.741 69.2929 410.681 69.4262 410.681L74.3862 410.701C74.4796 410.701 74.5529 410.721 74.6063 410.761C74.6596 410.801 74.6862 410.861 74.6862 410.941V417.961C74.6862 418.054 74.6662 418.121 74.6263 418.161C74.5862 418.201 74.5262 418.221 74.4462 418.221H73.9862C73.8929 418.221 73.8129 418.207 73.7462 418.181C73.6929 418.154 73.6529 418.087 73.6262 417.981L73.4063 416.121C73.3929 416.067 73.3662 416.041 73.3263 416.041C73.2996 416.041 73.2662 416.074 73.2263 416.141C72.9729 416.541 72.6529 416.914 72.2662 417.261C71.8796 417.607 71.4062 417.887 70.8462 418.101C70.2862 418.314 69.6262 418.421 68.8662 418.421ZM87.772 403.381C87.8654 403.381 87.9254 403.407 87.952 403.461C87.992 403.514 87.9854 403.581 87.932 403.661L83.172 411.621C83.1187 411.701 83.0854 411.781 83.072 411.861C83.0587 411.941 83.052 412.081 83.052 412.281V417.881C83.052 418.107 82.9254 418.221 82.672 418.221H81.472C81.3387 418.221 81.252 418.194 81.212 418.141C81.172 418.087 81.152 418.014 81.152 417.921V412.361C81.152 412.227 81.1387 412.127 81.112 412.061C81.0854 411.994 81.0454 411.914 80.992 411.821L76.172 403.701C76.1187 403.607 76.1054 403.534 76.132 403.481C76.172 403.414 76.2587 403.381 76.392 403.381H77.832C77.952 403.381 78.0387 403.401 78.092 403.441C78.1454 403.467 78.1987 403.527 78.252 403.621L81.972 410.021C82.052 410.167 82.1254 410.247 82.192 410.261C82.2587 410.261 82.332 410.194 82.412 410.061L86.112 403.621C86.1654 403.514 86.2187 403.447 86.272 403.421C86.3254 403.394 86.412 403.381 86.532 403.381H87.772Z" fill="black"/>
</g>
<defs>
<clipPath id="clip0_23_2">
<rect width="600" height="470" fill="white"/>
</clipPath>
</defs>
</svg>
