<svg version="1.1" xmlns="http://www.w3.org/2000/svg" viewBox="0 0 693.719785256322 645.4056579731271" width="1387.439570512644" height="1290.8113159462541">
  <!-- svg-source:excalidraw -->
  
  <defs>
    <style>
      @font-face {
        font-family: "Virgil";
        src: url("https://excalidraw.com/Virgil.woff2");
      }
      @font-face {
        font-family: "Cascadia";
        src: url("https://excalidraw.com/Cascadia.woff2");
      }
    </style>
  </defs>
  <g stroke-linecap="round"><g transform="translate(347.23992813288237 39.50563883444795) rotate(0 0.12648896256200715 282.2799675529197)"><path d="M1.72 0.6 C1.43 94.93, 1.48 472.67, 0.76 566.1 M-0.79 -1.54 C-1.61 92.05, -1.67 468.42, -1.07 562.52" stroke="#000000" stroke-width="1" fill="none"></path></g><g transform="translate(347.23992813288237 39.50563883444795) rotate(0 0.12648896256200715 282.2799675529197)"><path d="M1.74 -1.28 L9.74 17.28 L-4.29 16 L3.73 4.06" stroke="none" stroke-width="0" fill="#000000" fill-rule="evenodd"></path><path d="M2.36 1.41 C7.01 3.01, 4.17 13.07, 8.51 11.8 M2.59 0.3 C4.82 5.9, 6.88 8.48, 8.15 14.99 M9.21 12.78 C6.09 15.02, 0.13 16.34, -2.25 16.12 M7.86 14.18 C3.5 13.05, 1.01 14.55, -3.94 12.93 M-6.88 12.34 C-4.77 13.12, -1.74 7.51, -0.43 1.28 M-4.54 13.18 C-3.17 10.11, -1.19 5.03, 0.47 0.1 M1.72 0.6 C1.72 0.6, 1.72 0.6, 1.72 0.6 M1.72 0.6 C1.72 0.6, 1.72 0.6, 1.72 0.6" stroke="#000000" stroke-width="1" fill="none"></path></g><g transform="translate(347.23992813288237 39.50563883444795) rotate(0 0.12648896256200715 282.2799675529197)"><path d="M-1.05 560.64 L-5.75 552.02 L5.58 550.72 L0.93 565.97" stroke="none" stroke-width="0" fill="#000000" fill-rule="evenodd"></path><path d="M-0.43 563.33 C-0.74 554.53, -8.51 554.03, -6.98 546.53 M-0.21 562.22 C-1.87 558.85, -4.03 552.38, -7.34 549.73 M-6.27 547.52 C-3.81 549.99, -4.17 551.31, 7.62 550.84 M-7.63 548.92 C-5.24 548.06, -0.99 549.54, 5.93 547.65 M2.99 547.06 C1.66 555.08, 1.4 556.53, -3.22 563.19 M5.33 547.9 C2.59 553.53, 0.51 557.17, -2.32 562.02 M-1.07 562.52 C-1.07 562.52, -1.07 562.52, -1.07 562.52 M-1.07 562.52 C-1.07 562.52, -1.07 562.52, -1.07 562.52" stroke="#000000" stroke-width="1" fill="none"></path></g></g><g stroke-linecap="round"><g transform="translate(345.42707090016074 40.47924652714096) rotate(89.99999999999994 0.9334531141031448 280.07029473934284)"><path d="M2.16 0.24 C2.59 93.75, 1.22 468.63, 1.27 562.23 M-0.12 -2.09 C0.17 90.48, -0.62 464.83, -0.28 557.98" stroke="#000000" stroke-width="1" fill="none"></path></g><g transform="translate(345.42707090016074 40.47924652714096) rotate(89.99999999999994 0.9334531141031448 280.07029473934284)"><path d="M6.02 2.19 L11.7 17.33 L-3.2 17.15 L1.84 -3.36" stroke="none" stroke-width="0" fill="#000000" fill-rule="evenodd"></path><path d="M2.42 1.6 C5.37 6.18, 6.54 6.49, 7.26 12.67 M3.38 -1.22 C3.1 4.02, 4.99 6.31, 8.78 13.32 M6.76 14.62 C3.09 14.46, 2.38 14.03, -4.03 11.63 M8.04 13.79 C3.95 14.59, -1.24 14.29, -4.2 13.81 M-5.21 14.1 C-4.47 7.74, -0.28 7.15, 5.01 -0.22 M-4.69 14.63 C-2.31 8.77, -1.61 5.77, 2.82 -0.74 M2.16 0.24 C2.16 0.24, 2.16 0.24, 2.16 0.24 M2.16 0.24 C2.16 0.24, 2.16 0.24, 2.16 0.24" stroke="#000000" stroke-width="1" fill="none"></path></g><g transform="translate(345.42707090016074 40.47924652714096) rotate(89.99999999999994 0.9334531141031448 280.07029473934284)"><path d="M3.58 559.93 L-3.4 547.87 L7.06 547.71 L-0.6 554.38" stroke="none" stroke-width="0" fill="#000000" fill-rule="evenodd"></path><path d="M-0.02 559.34 C-0.5 557.23, -2.54 550.66, -7.84 543.22 M0.94 556.52 C-2.42 555.21, -3.64 550.8, -6.32 543.86 M-8.34 545.17 C-5.61 545.2, 0.09 544.77, 6.22 542.19 M-7.06 544.33 C-1.6 545.1, 2.76 544.81, 6.06 544.37 M5.05 544.66 C1.89 547.31, 1.86 555.75, 2.57 557.52 M5.57 545.19 C4.23 547.95, 0.93 553.5, 0.39 557 M-0.28 557.98 C-0.28 557.98, -0.28 557.98, -0.28 557.98 M-0.28 557.98 C-0.28 557.98, -0.28 557.98, -0.28 557.98" stroke="#000000" stroke-width="1" fill="none"></path></g></g><g transform="translate(315.66007361842526 10) rotate(0 31 9.5)"><text x="31" y="15" font-family="Helvetica, Segoe UI Emoji" font-size="16px" fill="#000000" text-anchor="middle" style="white-space: pre;" direction="ltr">Meaning</text></g><g transform="translate(324.0495367623528 616.4056579731271) rotate(0 19 9.5)"><text x="19" y="15" font-family="Helvetica, Segoe UI Emoji" font-size="16px" fill="#000000" text-anchor="middle" style="white-space: pre;" direction="ltr">Skills</text></g><g transform="translate(640.719785256322 303.0208170737417) rotate(0 21.5 18.5)"><text x="21.5" y="15.5" font-family="Helvetica, Segoe UI Emoji" font-size="16px" fill="#000000" text-anchor="middle" style="white-space: pre;" direction="ltr">Outer</text><text x="21.5" y="34" font-family="Helvetica, Segoe UI Emoji" font-size="16px" fill="#000000" text-anchor="middle" style="white-space: pre;" direction="ltr">World</text></g><g transform="translate(10 302.06871228020077) rotate(0 21.5 18.5)"><text x="21.5" y="15.5" font-family="Helvetica, Segoe UI Emoji" font-size="16px" fill="#000000" text-anchor="middle" style="white-space: pre;" direction="ltr">Inner</text><text x="21.5" y="34" font-family="Helvetica, Segoe UI Emoji" font-size="16px" fill="#000000" text-anchor="middle" style="white-space: pre;" direction="ltr">World</text></g><g transform="translate(111.45209999062104 150.74616511253726) rotate(0 76.5 24)"><text x="76.5" y="20" font-family="Cascadia, Segoe UI Emoji" font-size="20px" fill="#2b8a3e" text-anchor="middle" style="white-space: pre;" direction="ltr">Work that</text><text x="76.5" y="44" font-family="Cascadia, Segoe UI Emoji" font-size="20px" fill="#2b8a3e" text-anchor="middle" style="white-space: pre;" direction="ltr">energizes you</text></g><g transform="translate(416.2339457231444 150.16430819335278) rotate(0 65 24)"><text x="65" y="20" font-family="Cascadia, Segoe UI Emoji" font-size="20px" fill="#2b8a3e" text-anchor="middle" style="white-space: pre;" direction="ltr">Work that</text><text x="65" y="44" font-family="Cascadia, Segoe UI Emoji" font-size="20px" fill="#2b8a3e" text-anchor="middle" style="white-space: pre;" direction="ltr">has meaning</text></g><g transform="translate(433.1781433890926 424.358868583372) rotate(0 52.5 24)"><text x="52.5" y="20" font-family="Cascadia, Segoe UI Emoji" font-size="20px" fill="#2b8a3e" text-anchor="middle" style="white-space: pre;" direction="ltr">Executive</text><text x="52.5" y="44" font-family="Cascadia, Segoe UI Emoji" font-size="20px" fill="#2b8a3e" text-anchor="middle" style="white-space: pre;" direction="ltr">Presence</text></g><g transform="translate(121.44848639980205 424.358868583372) rotate(0 71 24)"><text x="71" y="20" font-family="Cascadia, Segoe UI Emoji" font-size="20px" fill="#2b8a3e" text-anchor="middle" style="white-space: pre;" direction="ltr">Personal</text><text x="71" y="44" font-family="Cascadia, Segoe UI Emoji" font-size="20px" fill="#2b8a3e" text-anchor="middle" style="white-space: pre;" direction="ltr">Productivity</text></g></svg>